<svg id="Layer_1" data-name="Layer 1" xmlns="http://www.w3.org/2000/svg" width="727.47" height="351.09" viewBox="0 0 727.47 351.09"><title>PrepArticle1_DaysAbsent_Overall</title><line x1="374.38" y1="339.08" x2="387.44" y2="339.08" fill="none" stroke="#231f20" stroke-miterlimit="10" stroke-width="0.5"/><line x1="584.96" y1="339.08" x2="598.76" y2="339.08" fill="none" stroke="#231f20" stroke-miterlimit="10" stroke-width="0.5"/><line x1="390.91" y1="339.08" x2="581.56" y2="339.08" fill="none" stroke="#231f20" stroke-miterlimit="10" stroke-width="0.5"/><line x1="374.62" y1="338.94" x2="374.62" y2="341.34" fill="none" stroke="#231f20" stroke-miterlimit="10" stroke-width="0.5"/><line x1="598.62" y1="338.94" x2="598.62" y2="341.34" fill="none" stroke="#231f20" stroke-miterlimit="10" stroke-width="0.5"/><line x1="566.62" y1="338.94" x2="566.62" y2="341.34" fill="none" stroke="#231f20" stroke-miterlimit="10" stroke-width="0.5"/><line x1="534.62" y1="338.94" x2="534.62" y2="341.34" fill="none" stroke="#231f20" stroke-miterlimit="10" stroke-width="0.5"/><line x1="502.62" y1="338.94" x2="502.62" y2="341.34" fill="none" stroke="#231f20" stroke-miterlimit="10" stroke-width="0.5"/><line x1="470.62" y1="338.94" x2="470.62" y2="341.34" fill="none" stroke="#231f20" stroke-miterlimit="10" stroke-width="0.5"/><line x1="438.62" y1="338.94" x2="438.62" y2="341.34" fill="none" stroke="#231f20" stroke-miterlimit="10" stroke-width="0.5"/><line x1="406.62" y1="338.94" x2="406.62" y2="341.34" fill="none" stroke="#231f20" stroke-miterlimit="10" stroke-width="0.5"/><path d="M378,351.28a5.7,5.7,0,0,1-.65,3,2.38,2.38,0,0,1-3.89,0,5.66,5.66,0,0,1-.66-3,5.82,5.82,0,0,1,.64-3,2.37,2.37,0,0,1,3.89,0A5.51,5.51,0,0,1,378,351.28Zm-4.29,0a5.72,5.72,0,0,0,.4,2.49,1.44,1.44,0,0,0,2.57,0,7.89,7.89,0,0,0,0-5,1.44,1.44,0,0,0-2.57,0A5.72,5.72,0,0,0,373.74,351.28Z" transform="translate(-1.08 -4.24)" fill="#58595b"/><path d="M404.92,355.22h-5.16v-.77l2.07-2.08a16.29,16.29,0,0,0,1.25-1.36,3.63,3.63,0,0,0,.45-.8,2.27,2.27,0,0,0,.15-.83,1.35,1.35,0,0,0-.38-1,1.5,1.5,0,0,0-1.06-.36,2.6,2.6,0,0,0-.93.16,3.43,3.43,0,0,0-1,.58l-.48-.6a3.62,3.62,0,0,1,2.37-.91,2.47,2.47,0,0,1,1.73.57,1.94,1.94,0,0,1,.63,1.52,3,3,0,0,1-.42,1.48,9.35,9.35,0,0,1-1.57,1.85l-1.71,1.68v0h4Z" transform="translate(-1.08 -4.24)" fill="#58595b"/><path d="M408.51,350.42a2.91,2.91,0,0,1,1.95.62,2.12,2.12,0,0,1,.71,1.68,2.45,2.45,0,0,1-.77,1.91,3.09,3.09,0,0,1-2.15.7,3.94,3.94,0,0,1-2-.43V354a3.06,3.06,0,0,0,.93.38,4.75,4.75,0,0,0,1.11.14,2.14,2.14,0,0,0,1.46-.45,1.6,1.6,0,0,0,.53-1.29c0-1.09-.67-1.64-2-1.64a7.47,7.47,0,0,0-1.36.16l-.46-.3.29-3.67h3.91v.82h-3.14l-.2,2.36A5.71,5.71,0,0,1,408.51,350.42Z" transform="translate(-1.08 -4.24)" fill="#58595b"/><path d="M417.55,351.28a5.7,5.7,0,0,1-.65,3,2.36,2.36,0,0,1-3.89,0,7.39,7.39,0,0,1,0-6.06,2.36,2.36,0,0,1,3.89,0A5.6,5.6,0,0,1,417.55,351.28Zm-4.3,0a5.74,5.74,0,0,0,.41,2.5,1.44,1.44,0,0,0,2.57,0,7.92,7.92,0,0,0,0-5,1.45,1.45,0,0,0-2.57,0A5.69,5.69,0,0,0,413.25,351.28Z" transform="translate(-1.08 -4.24)" fill="#58595b"/><path d="M436.66,355.22H431.5v-.77l2.07-2.08a18.35,18.35,0,0,0,1.25-1.36,3.63,3.63,0,0,0,.45-.8,2.27,2.27,0,0,0,.15-.83,1.35,1.35,0,0,0-.38-1A1.5,1.5,0,0,0,434,348a2.6,2.6,0,0,0-.93.16,3.43,3.43,0,0,0-1,.58l-.48-.6a3.6,3.6,0,0,1,2.37-.91,2.49,2.49,0,0,1,1.73.57,1.94,1.94,0,0,1,.63,1.52,3,3,0,0,1-.42,1.48,9.35,9.35,0,0,1-1.57,1.85l-1.72,1.68v0h4Z" transform="translate(-1.08 -4.24)" fill="#58595b"/><path d="M437.88,351.86a5.55,5.55,0,0,1,.9-3.46,3.19,3.19,0,0,1,2.66-1.15,3.91,3.91,0,0,1,1,.1v.77a3.07,3.07,0,0,0-.95-.13,2.38,2.38,0,0,0-1.93.79,4.07,4.07,0,0,0-.73,2.47h.07a2,2,0,0,1,1.87-.92,2.23,2.23,0,0,1,1.67.63,2.46,2.46,0,0,1,.61,1.74,2.67,2.67,0,0,1-.67,1.92,2.39,2.39,0,0,1-1.81.71,2.32,2.32,0,0,1-1.93-.92A4,4,0,0,1,437.88,351.86Zm2.64,2.71a1.48,1.48,0,0,0,1.18-.48,2.06,2.06,0,0,0,.42-1.39,1.81,1.81,0,0,0-.39-1.23,1.49,1.49,0,0,0-1.17-.44,2,2,0,0,0-.88.2,1.64,1.64,0,0,0-.65.54,1.3,1.3,0,0,0-.24.73,2.54,2.54,0,0,0,.22,1,1.84,1.84,0,0,0,.61.76A1.48,1.48,0,0,0,440.52,354.57Z" transform="translate(-1.08 -4.24)" fill="#58595b"/><path d="M449.28,351.28a5.71,5.71,0,0,1-.64,3,2.36,2.36,0,0,1-3.89,0,7.39,7.39,0,0,1,0-6.06,2.36,2.36,0,0,1,3.89,0A5.61,5.61,0,0,1,449.28,351.28Zm-4.29,0a5.74,5.74,0,0,0,.41,2.5,1.33,1.33,0,0,0,1.28.78,1.36,1.36,0,0,0,1.29-.79,7.92,7.92,0,0,0,0-5,1.36,1.36,0,0,0-1.29-.78,1.32,1.32,0,0,0-1.28.77A5.69,5.69,0,0,0,445,351.28Z" transform="translate(-1.08 -4.24)" fill="#58595b"/><path d="M468.8,355.22h-5.16v-.77l2.07-2.08A16.29,16.29,0,0,0,467,351a3.63,3.63,0,0,0,.45-.8,2.27,2.27,0,0,0,.15-.83,1.35,1.35,0,0,0-.38-1,1.5,1.5,0,0,0-1.06-.36,2.6,2.6,0,0,0-.93.16,3.58,3.58,0,0,0-1,.58l-.48-.6a3.62,3.62,0,0,1,2.37-.91,2.47,2.47,0,0,1,1.73.57,1.94,1.94,0,0,1,.63,1.52,3,3,0,0,1-.42,1.48,9.35,9.35,0,0,1-1.57,1.85l-1.71,1.68v0h4Z" transform="translate(-1.08 -4.24)" fill="#58595b"/><path d="M470.93,355.22l3.25-7H469.9v-.82h5.23v.71l-3.22,7.14Z" transform="translate(-1.08 -4.24)" fill="#58595b"/><path d="M481.43,351.28a5.7,5.7,0,0,1-.65,3,2.36,2.36,0,0,1-3.89,0,7.39,7.39,0,0,1,0-6.06,2.36,2.36,0,0,1,3.89,0A5.6,5.6,0,0,1,481.43,351.28Zm-4.3,0a5.74,5.74,0,0,0,.41,2.5,1.44,1.44,0,0,0,2.57,0,7.92,7.92,0,0,0,0-5,1.45,1.45,0,0,0-2.57,0A5.69,5.69,0,0,0,477.13,351.28Z" transform="translate(-1.08 -4.24)" fill="#58595b"/><path d="M499.75,355.22h-5.17v-.77l2.07-2.08A16.29,16.29,0,0,0,497.9,351a3.63,3.63,0,0,0,.45-.8,2.27,2.27,0,0,0,.15-.83,1.35,1.35,0,0,0-.38-1,1.5,1.5,0,0,0-1.06-.36,2.64,2.64,0,0,0-.93.16,3.58,3.58,0,0,0-1,.58l-.47-.6a3.58,3.58,0,0,1,2.36-.91,2.46,2.46,0,0,1,1.73.57,1.94,1.94,0,0,1,.63,1.52,3,3,0,0,1-.42,1.48,9.59,9.59,0,0,1-1.56,1.85l-1.72,1.68v0h4Z" transform="translate(-1.08 -4.24)" fill="#58595b"/><path d="M503.47,347.25a2.7,2.7,0,0,1,1.71.5,1.8,1.8,0,0,1,.26,2.44,3.12,3.12,0,0,1-1.15.87,4,4,0,0,1,1.36,1,1.79,1.79,0,0,1,.41,1.16,1.94,1.94,0,0,1-.69,1.56,2.76,2.76,0,0,1-1.87.59,3,3,0,0,1-1.93-.56,1.88,1.88,0,0,1-.68-1.56,2.35,2.35,0,0,1,1.65-2.1,3,3,0,0,1-1.07-.9,2,2,0,0,1-.32-1.09,1.66,1.66,0,0,1,.63-1.36A2.62,2.62,0,0,1,503.47,347.25Zm-1.69,6a1.2,1.2,0,0,0,.44,1,2,2,0,0,0,1.26.36,1.83,1.83,0,0,0,1.25-.38,1.31,1.31,0,0,0,0-2,4.22,4.22,0,0,0-1.47-.79,3.28,3.28,0,0,0-1.16.76A1.52,1.52,0,0,0,501.78,353.24Zm1.68-5.26a1.59,1.59,0,0,0-1,.32,1.09,1.09,0,0,0-.38.86,1.24,1.24,0,0,0,.31.85,3.61,3.61,0,0,0,1.18.71,2.91,2.91,0,0,0,1.08-.7,1.23,1.23,0,0,0,.32-.86,1.05,1.05,0,0,0-.39-.86A1.59,1.59,0,0,0,503.46,348Z" transform="translate(-1.08 -4.24)" fill="#58595b"/><path d="M512.37,351.28a5.7,5.7,0,0,1-.65,3,2.36,2.36,0,0,1-3.89,0,5.64,5.64,0,0,1-.66-3,5.76,5.76,0,0,1,.64-3,2.36,2.36,0,0,1,3.89,0A5.51,5.51,0,0,1,512.37,351.28Zm-4.29,0a5.77,5.77,0,0,0,.4,2.5,1.44,1.44,0,0,0,2.57,0,7.92,7.92,0,0,0,0-5,1.45,1.45,0,0,0-2.57,0A5.72,5.72,0,0,0,508.08,351.28Z" transform="translate(-1.08 -4.24)" fill="#58595b"/><path d="M532.69,355.22h-5.17v-.77l2.07-2.08a16.29,16.29,0,0,0,1.25-1.36,3.63,3.63,0,0,0,.45-.8,2.27,2.27,0,0,0,.15-.83,1.35,1.35,0,0,0-.38-1A1.48,1.48,0,0,0,530,348a2.68,2.68,0,0,0-.93.16,3.58,3.58,0,0,0-1,.58l-.47-.6a3.58,3.58,0,0,1,2.36-.91,2.5,2.5,0,0,1,1.74.57,2,2,0,0,1,.62,1.52,3,3,0,0,1-.41,1.48,9.72,9.72,0,0,1-1.57,1.85l-1.72,1.68v0h4Z" transform="translate(-1.08 -4.24)" fill="#58595b"/><path d="M539,350.72q0,4.61-3.57,4.61a3.65,3.65,0,0,1-1-.11v-.77a3.26,3.26,0,0,0,1,.14,2.39,2.39,0,0,0,2-.8,4.09,4.09,0,0,0,.71-2.44H538a1.91,1.91,0,0,1-.79.67,2.44,2.44,0,0,1-1.1.24,2.23,2.23,0,0,1-1.65-.62,2.38,2.38,0,0,1-.61-1.74,2.67,2.67,0,0,1,.68-1.94,2.62,2.62,0,0,1,3.2-.3,2.62,2.62,0,0,1,.92,1.2A4.79,4.79,0,0,1,539,350.72Zm-2.65-2.7a1.46,1.46,0,0,0-1.18.49,2.06,2.06,0,0,0-.42,1.37,1.82,1.82,0,0,0,.38,1.22,1.47,1.47,0,0,0,1.18.44,2,2,0,0,0,.9-.19,1.75,1.75,0,0,0,.65-.55,1.31,1.31,0,0,0,.23-.72,2.43,2.43,0,0,0-.22-1,1.75,1.75,0,0,0-.61-.75A1.57,1.57,0,0,0,536.33,348Z" transform="translate(-1.08 -4.24)" fill="#58595b"/><path d="M545.31,351.28a5.81,5.81,0,0,1-.64,3,2.37,2.37,0,0,1-3.9,0,5.64,5.64,0,0,1-.66-3,5.76,5.76,0,0,1,.64-3,2.36,2.36,0,0,1,3.89,0A5.51,5.51,0,0,1,545.31,351.28Zm-4.29,0a5.77,5.77,0,0,0,.4,2.5,1.44,1.44,0,0,0,2.57,0,7.92,7.92,0,0,0,0-5,1.45,1.45,0,0,0-2.57,0A5.72,5.72,0,0,0,541,351.28Z" transform="translate(-1.08 -4.24)" fill="#58595b"/><path d="M564.17,349.21a1.76,1.76,0,0,1-.41,1.23,2,2,0,0,1-1.16.64v.05a2.19,2.19,0,0,1,1.37.6,1.82,1.82,0,0,1,.44,1.27,2.06,2.06,0,0,1-.76,1.72,3.32,3.32,0,0,1-2.15.61,5.35,5.35,0,0,1-1.1-.1,3.54,3.54,0,0,1-1-.33v-.85a4.72,4.72,0,0,0,1.05.39,4.59,4.59,0,0,0,1.07.13c1.31,0,2-.53,2-1.6s-.72-1.42-2.18-1.42h-.75v-.77h.76a2.26,2.26,0,0,0,1.42-.41,1.35,1.35,0,0,0,.52-1.12,1.12,1.12,0,0,0-.39-.91,1.58,1.58,0,0,0-1-.32,2.93,2.93,0,0,0-.94.14,4,4,0,0,0-1,.51l-.44-.6a3.77,3.77,0,0,1,1.08-.6,4,4,0,0,1,1.29-.22,2.59,2.59,0,0,1,1.73.53A1.78,1.78,0,0,1,564.17,349.21Z" transform="translate(-1.08 -4.24)" fill="#58595b"/><path d="M570.61,351.28a5.82,5.82,0,0,1-.63,3,2.25,2.25,0,0,1-3.77,0,7.6,7.6,0,0,1,0-6.06,2.06,2.06,0,0,1,1.89-1,2.08,2.08,0,0,1,1.88,1A5.71,5.71,0,0,1,570.61,351.28Zm-4.17,0a6,6,0,0,0,.39,2.5,1.39,1.39,0,0,0,2.5,0,8.11,8.11,0,0,0,0-5,1.4,1.4,0,0,0-2.5,0A5.9,5.9,0,0,0,566.44,351.28Z" transform="translate(-1.08 -4.24)" fill="#58595b"/><path d="M576.71,351.28a5.83,5.83,0,0,1-.62,3,2.26,2.26,0,0,1-3.78,0,5.75,5.75,0,0,1-.64-3,5.88,5.88,0,0,1,.62-3,2.26,2.26,0,0,1,3.78,0A5.72,5.72,0,0,1,576.71,351.28Zm-4.16,0a6,6,0,0,0,.39,2.5,1.3,1.3,0,0,0,1.24.78,1.32,1.32,0,0,0,1.26-.79,8.11,8.11,0,0,0,0-5,1.31,1.31,0,0,0-1.26-.78,1.29,1.29,0,0,0-1.24.77A5.9,5.9,0,0,0,572.55,351.28Z" transform="translate(-1.08 -4.24)" fill="#58595b"/><path d="M593.53,350.42a2.87,2.87,0,0,1,2,.62,2.09,2.09,0,0,1,.71,1.68,2.45,2.45,0,0,1-.77,1.91,3.07,3.07,0,0,1-2.14.7,4,4,0,0,1-2-.43V354a3,3,0,0,0,.94.38,4.67,4.67,0,0,0,1.1.14,2.19,2.19,0,0,0,1.47-.45,1.59,1.59,0,0,0,.52-1.29c0-1.09-.67-1.64-2-1.64a7.56,7.56,0,0,0-1.37.16l-.46-.3.29-3.67h3.91v.82H592.5l-.2,2.36A5.71,5.71,0,0,1,593.53,350.42Z" transform="translate(-1.08 -4.24)" fill="#58595b"/><path d="M602.57,351.28a5.81,5.81,0,0,1-.64,3,2.19,2.19,0,0,1-2,1,2.14,2.14,0,0,1-1.92-1,5.54,5.54,0,0,1-.67-3,5.76,5.76,0,0,1,.64-3,2.36,2.36,0,0,1,3.89,0A5.51,5.51,0,0,1,602.57,351.28Zm-4.29,0a5.77,5.77,0,0,0,.4,2.5,1.44,1.44,0,0,0,2.57,0,7.92,7.92,0,0,0,0-5,1.45,1.45,0,0,0-2.57,0A5.72,5.72,0,0,0,598.28,351.28Z" transform="translate(-1.08 -4.24)" fill="#58595b"/><path d="M608.86,351.28a5.7,5.7,0,0,1-.65,3,2.36,2.36,0,0,1-3.89,0,5.64,5.64,0,0,1-.66-3,5.76,5.76,0,0,1,.64-3,2.36,2.36,0,0,1,3.89,0A5.51,5.51,0,0,1,608.86,351.28Zm-4.29,0a5.77,5.77,0,0,0,.4,2.5,1.44,1.44,0,0,0,2.57,0,7.92,7.92,0,0,0,0-5,1.45,1.45,0,0,0-2.57,0A5.72,5.72,0,0,0,604.57,351.28Z" transform="translate(-1.08 -4.24)" fill="#58595b"/><line x1="392.86" y1="340.97" x2="388.87" y2="337.04" fill="#231f20" stroke="#231f20" stroke-width="0.5"/><line x1="389.69" y1="340.97" x2="385.7" y2="337.04" fill="#231f20" stroke="#231f20" stroke-width="0.5"/><line x1="586.86" y1="340.97" x2="582.87" y2="337.04" fill="#231f20" stroke="#231f20" stroke-width="0.5"/><line x1="583.69" y1="340.97" x2="579.7" y2="337.04" fill="#231f20" stroke="#231f20" stroke-width="0.5"/><path d="M623.93,173.74a4,4,0,0,1-1,2.74,5,5,0,0,1-2.73,1.54v.07a5.43,5.43,0,0,1,3.14,1.26,3.54,3.54,0,0,1,1.07,2.7,4.57,4.57,0,0,1-1.8,3.85,8.23,8.23,0,0,1-5.12,1.38,12.33,12.33,0,0,1-4.94-.93v-3.08a10.69,10.69,0,0,0,2.19.82,9.2,9.2,0,0,0,2.37.32,4.55,4.55,0,0,0,2.64-.61,2.25,2.25,0,0,0,.86-2,1.77,1.77,0,0,0-1-1.71,7.36,7.36,0,0,0-3.14-.5h-1.3v-2.78h1.33a6.11,6.11,0,0,0,2.91-.52,1.89,1.89,0,0,0,.92-1.79c0-1.3-.81-1.94-2.44-1.94a5.46,5.46,0,0,0-1.71.28,8,8,0,0,0-1.94,1l-1.68-2.5a9.34,9.34,0,0,1,5.59-1.68,7.29,7.29,0,0,1,4.2,1.07A3.45,3.45,0,0,1,623.93,173.74Z" transform="translate(-1.08 -4.24)" fill="#231f20"/><path d="M638.69,183.49h-2.07v3.56h-3.54v-3.56h-7.31V181l7.51-11.07h3.34v10.77h2.07Zm-5.61-2.81v-2.9c0-.49,0-1.19.06-2.11s.07-1.46.1-1.61h-.1a12.89,12.89,0,0,1-1,1.88L629,180.68Z" transform="translate(-1.08 -4.24)" fill="#231f20"/><path d="M639.42,184.56V183.1h3.14v1.46Z" transform="translate(-1.08 -4.24)" fill="#231f20"/><path d="M647.46,187.16a2.16,2.16,0,0,1-1.81-.84h-.1c.07.55.1.87.1,1v2.66h-1.79v-9.44h1.45l.25.85h.09a2.06,2.06,0,0,1,1.85-1,2.12,2.12,0,0,1,1.82.9,4.14,4.14,0,0,1,.66,2.49,5,5,0,0,1-.31,1.82,2.58,2.58,0,0,1-.88,1.18A2.23,2.23,0,0,1,647.46,187.16Zm-.53-5.36a1.15,1.15,0,0,0-1,.41,2.3,2.3,0,0,0-.31,1.34v.2a2.77,2.77,0,0,0,.31,1.51,1.13,1.13,0,0,0,1,.46c.8,0,1.2-.66,1.2-2a2.84,2.84,0,0,0-.29-1.45A1,1,0,0,0,646.93,181.8Z" transform="translate(-1.08 -4.24)" fill="#231f20"/><path d="M657.41,183.76a3.49,3.49,0,0,1-.85,2.5,3.05,3.05,0,0,1-2.35.9,3.32,3.32,0,0,1-1.66-.41,2.78,2.78,0,0,1-1.11-1.19,3.92,3.92,0,0,1-.39-1.8,3.52,3.52,0,0,1,.84-2.5,3.11,3.11,0,0,1,2.36-.89,3.32,3.32,0,0,1,1.66.41A2.81,2.81,0,0,1,657,182,3.92,3.92,0,0,1,657.41,183.76Zm-4.53,0a2.67,2.67,0,0,0,.32,1.47,1.14,1.14,0,0,0,1,.5,1.11,1.11,0,0,0,1-.5,2.76,2.76,0,0,0,.32-1.47,2.7,2.7,0,0,0-.32-1.46,1.15,1.15,0,0,0-1-.49,1.13,1.13,0,0,0-1,.49A2.71,2.71,0,0,0,652.88,183.76Z" transform="translate(-1.08 -4.24)" fill="#231f20"/><path d="M658.81,178.8c0-.58.32-.87,1-.87s1,.29,1,.87a.87.87,0,0,1-.24.65,1,1,0,0,1-.73.23C659.13,179.68,658.81,179.39,658.81,178.8Zm1.86,8.25h-1.79v-6.56h1.79Z" transform="translate(-1.08 -4.24)" fill="#231f20"/><path d="M668.59,187.05H666.8v-3.83a1.8,1.8,0,0,0-.25-1.06.91.91,0,0,0-.8-.36,1.2,1.2,0,0,0-1.08.5,3,3,0,0,0-.34,1.66v3.09h-1.79v-6.56h1.37l.24.84h.1a2,2,0,0,1,.82-.72,2.86,2.86,0,0,1,1.2-.24A2.28,2.28,0,0,1,668,181a2.5,2.5,0,0,1,.59,1.78Z" transform="translate(-1.08 -4.24)" fill="#231f20"/><path d="M673.19,185.74a3.85,3.85,0,0,0,1.13-.21v1.33a4,4,0,0,1-1.64.3,2,2,0,0,1-1.57-.54,2.39,2.39,0,0,1-.48-1.63v-3.15h-.86v-.76l1-.6.52-1.38h1.14v1.39h1.84v1.35h-1.84V185a.68.68,0,0,0,.22.57A.84.84,0,0,0,673.19,185.74Z" transform="translate(-1.08 -4.24)" fill="#231f20"/><path d="M682.87,185.26a1.64,1.64,0,0,1-.64,1.41,3.2,3.2,0,0,1-1.92.48,6,6,0,0,1-1.12-.09,3.32,3.32,0,0,1-.86-.26v-1.35a6.06,6.06,0,0,0,1,.36,4.11,4.11,0,0,0,1,.15c.6,0,.89-.18.89-.52a.41.41,0,0,0-.12-.31,1.29,1.29,0,0,0-.4-.28c-.2-.1-.45-.22-.78-.36a5.14,5.14,0,0,1-1-.53,1.67,1.67,0,0,1-.47-.57,1.86,1.86,0,0,1-.15-.79,1.42,1.42,0,0,1,.62-1.23,3,3,0,0,1,1.76-.44,5,5,0,0,1,2.11.47l-.49,1.18a8.07,8.07,0,0,0-.84-.31,2.44,2.44,0,0,0-.8-.13c-.49,0-.73.13-.73.39a.44.44,0,0,0,.24.38,5.56,5.56,0,0,0,1,.48,5,5,0,0,1,1,.53,1.59,1.59,0,0,1,.48.57A1.71,1.71,0,0,1,682.87,185.26Z" transform="translate(-1.08 -4.24)" fill="#231f20"/><path d="M686.48,187.15c-1.87,0-2.81-1-2.81-3.08a3.3,3.3,0,0,1,.76-2.33,2.87,2.87,0,0,1,2.19-.81,4.05,4.05,0,0,1,1.87.41L688,182.6c-.26-.1-.5-.19-.72-.25a2.27,2.27,0,0,0-.67-.1c-.85,0-1.28.6-1.28,1.81s.43,1.77,1.28,1.77a3.06,3.06,0,0,0,.88-.13,3.46,3.46,0,0,0,.8-.39v1.4a2.67,2.67,0,0,1-.8.35A4.82,4.82,0,0,1,686.48,187.15Z" transform="translate(-1.08 -4.24)" fill="#231f20"/><path d="M695,184a3.28,3.28,0,0,1-.77,2.3,2.83,2.83,0,0,1-2.16.82,2.93,2.93,0,0,1-1.52-.38,2.54,2.54,0,0,1-1-1.08,3.79,3.79,0,0,1-.35-1.66,3.19,3.19,0,0,1,.77-2.29,2.83,2.83,0,0,1,2.16-.81,3,3,0,0,1,1.52.37,2.54,2.54,0,0,1,1,1.08A3.71,3.71,0,0,1,695,184Zm-4.15,0a2.55,2.55,0,0,0,.29,1.35,1,1,0,0,0,1,.46,1,1,0,0,0,1-.46,2.56,2.56,0,0,0,.28-1.35,2.45,2.45,0,0,0-.29-1.34,1.23,1.23,0,0,0-1.89,0A2.52,2.52,0,0,0,690.89,184Z" transform="translate(-1.08 -4.24)" fill="#231f20"/><path d="M699.64,180.93a2.19,2.19,0,0,1,.55,0l-.12,1.53a2.31,2.31,0,0,0-.49,0,1.73,1.73,0,0,0-1.22.4,1.48,1.48,0,0,0-.44,1.13v3.06h-1.64v-6h1.24l.25,1h.08a2.17,2.17,0,0,1,.75-.81A1.84,1.84,0,0,1,699.64,180.93Z" transform="translate(-1.08 -4.24)" fill="#231f20"/><path d="M703.89,187.15a2.81,2.81,0,0,1-3.09-3.06,3.36,3.36,0,0,1,.76-2.34,3.08,3.08,0,0,1,4.07-.1,2.77,2.77,0,0,1,.71,2v.79h-3.88a1.57,1.57,0,0,0,.42,1.09,1.44,1.44,0,0,0,1.08.39,4.28,4.28,0,0,0,1-.11,4.56,4.56,0,0,0,1-.36v1.27a4,4,0,0,1-.92.32A5.81,5.81,0,0,1,703.89,187.15Zm-.23-5.06a1,1,0,0,0-.82.33,1.54,1.54,0,0,0-.34.94h2.3a1.37,1.37,0,0,0-.32-.94A1.06,1.06,0,0,0,703.66,182.09Z" transform="translate(-1.08 -4.24)" fill="#231f20"/><path d="M715.53,181v.83l-.94.24a1.67,1.67,0,0,1,.26.91,1.81,1.81,0,0,1-.67,1.5,2.94,2.94,0,0,1-1.88.54H712l-.24,0a.55.55,0,0,0-.26.43c0,.24.31.36.91.36h1a2.31,2.31,0,0,1,1.5.42,1.51,1.51,0,0,1,.52,1.25,1.84,1.84,0,0,1-.88,1.63,4.6,4.6,0,0,1-2.52.58,3.5,3.5,0,0,1-1.92-.44,1.39,1.39,0,0,1-.66-1.23,1.25,1.25,0,0,1,.34-.9,1.88,1.88,0,0,1,1-.53,1,1,0,0,1-.44-.35.85.85,0,0,1-.19-.52.84.84,0,0,1,.2-.57,2.43,2.43,0,0,1,.58-.45,1.53,1.53,0,0,1-.75-.65,2,2,0,0,1-.28-1.07,1.84,1.84,0,0,1,.64-1.51,2.76,2.76,0,0,1,1.83-.54,4.59,4.59,0,0,1,.59,0l.45.07Zm-4.63,6.85a.59.59,0,0,0,.32.54,1.79,1.79,0,0,0,.91.19,3.23,3.23,0,0,0,1.38-.24.74.74,0,0,0,.5-.66.48.48,0,0,0-.29-.47,2.39,2.39,0,0,0-.92-.13H712a1.28,1.28,0,0,0-.75.21A.66.66,0,0,0,710.9,187.89Zm.59-4.88a1.22,1.22,0,0,0,.23.77,1,1,0,0,0,1.35,0,1.28,1.28,0,0,0,.22-.77c0-.73-.3-1.09-.89-1.09S711.49,182.28,711.49,183Z" transform="translate(-1.08 -4.24)" fill="#231f20"/><path d="M720.22,187.05l-.31-.82h0a2.31,2.31,0,0,1-.85.72,2.65,2.65,0,0,1-1.14.2,1.83,1.83,0,0,1-1.36-.49,1.91,1.91,0,0,1-.5-1.41,1.59,1.59,0,0,1,.67-1.41,3.9,3.9,0,0,1,2-.5l1,0V183a.82.82,0,0,0-.93-.91,4.32,4.32,0,0,0-1.7.44l-.54-1.11a4.91,4.91,0,0,1,2.3-.54,2.85,2.85,0,0,1,1.85.52,2,2,0,0,1,.65,1.6v4Zm-.48-2.79-.63,0a2.2,2.2,0,0,0-1.07.26.82.82,0,0,0-.35.72c0,.46.27.7.8.7a1.26,1.26,0,0,0,.91-.33,1.15,1.15,0,0,0,.34-.87Z" transform="translate(-1.08 -4.24)" fill="#231f20"/><path d="M726.24,187.15a2,2,0,0,1-1.66-.76h-.08c0,.5.08.79.08.86v2.44h-1.64V181h1.34l.23.78h.07a1.9,1.9,0,0,1,1.7-.89,2,2,0,0,1,1.67.82,3.81,3.81,0,0,1,.6,2.28,4.46,4.46,0,0,1-.28,1.67,2.33,2.33,0,0,1-.8,1.08A2.06,2.06,0,0,1,726.24,187.15Zm-.48-4.91a1,1,0,0,0-.89.37,2.22,2.22,0,0,0-.29,1.23V184a2.55,2.55,0,0,0,.29,1.39,1,1,0,0,0,.91.42c.73,0,1.1-.61,1.1-1.82a2.62,2.62,0,0,0-.27-1.33A.94.94,0,0,0,725.76,182.24Z" transform="translate(-1.08 -4.24)" fill="#231f20"/><line x1="89.05" y1="213.49" x2="61.44" y2="224.95" fill="none" stroke="#231f20" stroke-miterlimit="10"/><circle cx="61.38" cy="225.33" r="2.72" fill="#fff" stroke="#231f20" stroke-miterlimit="10"/><line x1="230.87" y1="199.8" x2="260.5" y2="203.81" fill="none" stroke="#231f20" stroke-miterlimit="10"/><circle cx="260.73" cy="203.51" r="2.72" fill="#fff" stroke="#231f20" stroke-miterlimit="10"/><line x1="225.73" y1="141.28" x2="252.29" y2="127.56" fill="none" stroke="#231f20" stroke-miterlimit="10"/><circle cx="252.32" cy="127.18" r="2.72" fill="#fff" stroke="#231f20" stroke-miterlimit="10"/><line x1="158.32" y1="108.07" x2="158.32" y2="79.97" fill="none" stroke="#231f20" stroke-miterlimit="10"/><circle cx="158.18" cy="79.81" r="2.72" fill="#fff" stroke="#231f20" stroke-miterlimit="10"/><line x1="158.13" y1="248.22" x2="158.13" y2="278.12" fill="none" stroke="#231f20" stroke-miterlimit="10"/><circle cx="158.27" cy="278.28" r="2.72" fill="#fff" stroke="#231f20" stroke-miterlimit="10"/><path d="M157.19,182,244,186.56a83,83,0,0,1-10.05,36.25Z" transform="translate(-1.08 -4.24)" fill="#ccc"/><path d="M157.19,182l46.05-73.7c27.39,17.12,42.42,46,40.73,78.25Z" transform="translate(-1.08 -4.24)" fill="#595959"/><path d="M157.19,182,77.8,217.36a86.91,86.91,0,0,1,44-114.74c27.32-12.16,56-10.15,81.4,5.69Z" transform="translate(-1.08 -4.24)" fill="#1f76bd"/><path d="M157.19,182,82.7,226.77a81.54,81.54,0,0,1-4.9-9.41Z" transform="translate(-1.08 -4.24)" fill="#00aeef" fill-rule="evenodd"/><path d="M157.19,182l76.73,40.8a86.91,86.91,0,0,1-117.53,35.93,82.73,82.73,0,0,1-33.69-32Z" transform="translate(-1.08 -4.24)" fill="#262b69" fill-rule="evenodd"/><circle cx="155.96" cy="177.82" r="57.79" fill="#fff"/><path d="M152.86,54.88H150.8v3.55h-3.54V54.88H140V52.36l7.51-11.07h3.34V52.06h2.06Zm-5.6-2.82v-2.9c0-.49,0-1.19.06-2.11s.07-1.46.09-1.61h-.09a13,13,0,0,1-1,1.88l-3.14,4.74Z" transform="translate(-1.08 -4.24)" fill="#231f20"/><path d="M163.15,58.43h-3.62V48.51l0-1.63.06-1.78c-.6.6-1,1-1.25,1.19l-2,1.58-1.75-2.18,5.52-4.4h3Z" transform="translate(-1.08 -4.24)" fill="#231f20"/><path d="M171.72,51.41a4.32,4.32,0,0,1-.52,2.36,1.72,1.72,0,0,1-1.54.79,1.66,1.66,0,0,1-1.48-.81,4.22,4.22,0,0,1-.53-2.34,4.37,4.37,0,0,1,.51-2.34,1.67,1.67,0,0,1,1.5-.78,1.73,1.73,0,0,1,1.53.81A4.24,4.24,0,0,1,171.72,51.41Zm-3.13,0a4.6,4.6,0,0,0,.25,1.75.86.86,0,0,0,.82.58c.75,0,1.12-.78,1.12-2.33s-.37-2.31-1.12-2.31a.85.85,0,0,0-.82.58A4.48,4.48,0,0,0,168.59,51.41Zm7.39-3-5.54,10h-1l5.54-10Zm1.76,7a4.31,4.31,0,0,1-.52,2.35,1.72,1.72,0,0,1-1.53.79,1.68,1.68,0,0,1-1.5-.81,5.55,5.55,0,0,1,0-4.67,1.69,1.69,0,0,1,1.51-.79,1.72,1.72,0,0,1,1.51.81A4.14,4.14,0,0,1,177.74,55.42Zm-3.14,0a4.47,4.47,0,0,0,.26,1.74.85.85,0,0,0,.83.58.88.88,0,0,0,.84-.57,4.26,4.26,0,0,0,.28-1.75,4.15,4.15,0,0,0-.28-1.73.88.88,0,0,0-.84-.57.85.85,0,0,0-.83.57A4.38,4.38,0,0,0,174.6,55.42Z" transform="translate(-1.08 -4.24)" fill="#231f20"/><path d="M133.75,72.43h-.87v-5.6c0-.47,0-.91,0-1.32l-.25.23c-.1.09-.52.44-1.28,1.05l-.47-.61L133,64.57h.76Z" transform="translate(-1.08 -4.24)" fill="#231f20"/><path d="M141.9,71.8a2.32,2.32,0,0,0,.46,0,2.15,2.15,0,0,0,.35-.07v.68a1.51,1.51,0,0,1-.43.12,3.25,3.25,0,0,1-.51,0q-1.71,0-1.71-1.8v-3.5h-.84V66.8l.84-.37.38-1.25H141v1.36h1.71v.69H141V70.7a1.18,1.18,0,0,0,.26.81A.88.88,0,0,0,141.9,71.8Z" transform="translate(-1.08 -4.24)" fill="#231f20"/><path d="M149,69.48a3.27,3.27,0,0,1-.72,2.25,2.59,2.59,0,0,1-2,.8,2.64,2.64,0,0,1-1.4-.37,2.38,2.38,0,0,1-.94-1.06,3.72,3.72,0,0,1-.34-1.62,3.27,3.27,0,0,1,.72-2.25,2.57,2.57,0,0,1,2-.8,2.53,2.53,0,0,1,2,.82A3.27,3.27,0,0,1,149,69.48Zm-4.48,0a2.82,2.82,0,0,0,.45,1.72,1.78,1.78,0,0,0,2.65,0,2.73,2.73,0,0,0,.46-1.72,2.7,2.7,0,0,0-.46-1.71,1.57,1.57,0,0,0-1.33-.58,1.59,1.59,0,0,0-1.33.57A2.85,2.85,0,0,0,144.48,69.48Z" transform="translate(-1.08 -4.24)" fill="#231f20"/><path d="M158.14,72.43H153v-.77L155,69.58a16.29,16.29,0,0,0,1.25-1.36,3.63,3.63,0,0,0,.45-.8,2.27,2.27,0,0,0,.15-.83,1.35,1.35,0,0,0-.38-1,1.5,1.5,0,0,0-1.06-.37,2.69,2.69,0,0,0-.93.17,3.58,3.58,0,0,0-1,.58l-.47-.61a3.62,3.62,0,0,1,2.36-.9,2.5,2.5,0,0,1,1.74.57,2,2,0,0,1,.62,1.52,3,3,0,0,1-.42,1.48,9.52,9.52,0,0,1-1.56,1.85l-1.72,1.68v0h4Z" transform="translate(-1.08 -4.24)" fill="#231f20"/><path d="M166.54,71.64h0a2.11,2.11,0,0,1-1.85.89,2.18,2.18,0,0,1-1.8-.79,4.25,4.25,0,0,1,0-4.5,2.38,2.38,0,0,1,3.63.06h.07l0-.42,0-.42V64.07h.89v8.36h-.72Zm-1.79.15a1.65,1.65,0,0,0,1.33-.5,2.54,2.54,0,0,0,.41-1.6V69.5a2.94,2.94,0,0,0-.42-1.79,1.6,1.6,0,0,0-1.33-.53,1.36,1.36,0,0,0-1.2.61,3.08,3.08,0,0,0-.41,1.72,2.86,2.86,0,0,0,.41,1.7A1.39,1.39,0,0,0,164.75,71.79Z" transform="translate(-1.08 -4.24)" fill="#231f20"/><path d="M172.89,72.43l-.18-.84h0a2.45,2.45,0,0,1-.88.75,2.66,2.66,0,0,1-1.09.19,2,2,0,0,1-1.37-.45,1.65,1.65,0,0,1-.5-1.28c0-1.19.95-1.81,2.85-1.87l1,0v-.37a1.48,1.48,0,0,0-.3-1,1.2,1.2,0,0,0-.95-.33,3.84,3.84,0,0,0-1.66.45l-.28-.68a4.36,4.36,0,0,1,2-.51,2.22,2.22,0,0,1,1.56.47,1.94,1.94,0,0,1,.51,1.5v4Zm-2-.63a1.81,1.81,0,0,0,1.31-.46,1.71,1.71,0,0,0,.47-1.28v-.53l-.89,0a3.17,3.17,0,0,0-1.54.33,1,1,0,0,0-.46.91.92.92,0,0,0,.29.74A1.25,1.25,0,0,0,170.88,71.8Z" transform="translate(-1.08 -4.24)" fill="#231f20"/><path d="M174.45,66.54h1l1.29,3.36a13.45,13.45,0,0,1,.53,1.66h0a9.84,9.84,0,0,1,.29-.94c.15-.44.64-1.8,1.46-4.08h1l-2.53,6.7a3.35,3.35,0,0,1-.88,1.41,1.88,1.88,0,0,1-1.24.42,3.57,3.57,0,0,1-.8-.09v-.72a2.73,2.73,0,0,0,.66.07,1.37,1.37,0,0,0,1.31-1l.33-.84Z" transform="translate(-1.08 -4.24)" fill="#231f20"/><path d="M184.73,70.82a1.47,1.47,0,0,1-.61,1.27,2.86,2.86,0,0,1-1.72.44,3.73,3.73,0,0,1-1.83-.37v-.82a4.47,4.47,0,0,0,.91.33,3.54,3.54,0,0,0,.94.13,2.1,2.1,0,0,0,1.07-.23.72.72,0,0,0,.38-.67.73.73,0,0,0-.3-.59,4.31,4.31,0,0,0-1.16-.58,6.16,6.16,0,0,1-1.17-.53,1.83,1.83,0,0,1-.52-.52,1.42,1.42,0,0,1-.16-.7,1.31,1.31,0,0,1,.58-1.13,2.72,2.72,0,0,1,1.61-.42,4.7,4.7,0,0,1,1.86.39l-.32.72a4.33,4.33,0,0,0-1.61-.36,1.75,1.75,0,0,0-1,.2.6.6,0,0,0-.33.55.62.62,0,0,0,.13.4,1.41,1.41,0,0,0,.38.32,9.34,9.34,0,0,0,1,.43,3.75,3.75,0,0,1,1.41.77A1.34,1.34,0,0,1,184.73,70.82Z" transform="translate(-1.08 -4.24)" fill="#231f20"/><path d="M275.71,129.83h-3.62v-9.92l0-1.63.06-1.78c-.61.6-1,1-1.26,1.19l-2,1.58-1.74-2.18,5.52-4.4h3Z" transform="translate(-1.08 -4.24)" fill="#231f20"/><path d="M282.16,129.83l6.43-14.07h-8.45v-3h12.29V115L286,129.83Z" transform="translate(-1.08 -4.24)" fill="#231f20"/><path d="M298,122.81a4.32,4.32,0,0,1-.52,2.36,1.72,1.72,0,0,1-1.54.79,1.67,1.67,0,0,1-1.48-.81,4.22,4.22,0,0,1-.53-2.34,4.37,4.37,0,0,1,.51-2.34,1.68,1.68,0,0,1,1.5-.78,1.73,1.73,0,0,1,1.53.81A4.24,4.24,0,0,1,298,122.81Zm-3.13,0a4.6,4.6,0,0,0,.25,1.75.87.87,0,0,0,.82.58c.75,0,1.12-.78,1.12-2.33s-.37-2.31-1.12-2.31a.86.86,0,0,0-.82.58A4.48,4.48,0,0,0,294.85,122.81Zm7.39-3-5.54,10h-1l5.55-10Zm1.76,7a4.31,4.31,0,0,1-.52,2.35A1.72,1.72,0,0,1,302,130a1.68,1.68,0,0,1-1.5-.81,5.55,5.55,0,0,1,0-4.67,1.69,1.69,0,0,1,1.51-.79,1.72,1.72,0,0,1,1.51.81A4.14,4.14,0,0,1,304,126.82Zm-3.13,0a4.5,4.5,0,0,0,.25,1.74.85.85,0,0,0,.83.58.88.88,0,0,0,.84-.57,4.09,4.09,0,0,0,.28-1.75,4,4,0,0,0-.28-1.73.88.88,0,0,0-.84-.57.85.85,0,0,0-.83.57A4.41,4.41,0,0,0,300.87,126.82Z" transform="translate(-1.08 -4.24)" fill="#231f20"/><path d="M271.2,137.82a1.8,1.8,0,0,1-.42,1.23,2.12,2.12,0,0,1-1.2.64v0a2.23,2.23,0,0,1,1.41.61,1.77,1.77,0,0,1,.45,1.26,2.06,2.06,0,0,1-.78,1.73,3.53,3.53,0,0,1-2.21.6,6.76,6.76,0,0,1-1.14-.09,3.73,3.73,0,0,1-1-.33v-.85a5,5,0,0,0,1.09.39,5.47,5.47,0,0,0,1.09.13c1.36,0,2-.53,2-1.6s-.75-1.43-2.25-1.43h-.77v-.76h.79a2.36,2.36,0,0,0,1.45-.41,1.34,1.34,0,0,0,.54-1.13,1.1,1.1,0,0,0-.4-.9,1.61,1.61,0,0,0-1.07-.33,3.39,3.39,0,0,0-1,.14,4.77,4.77,0,0,0-1,.52l-.45-.6a3.49,3.49,0,0,1,1.11-.6,3.91,3.91,0,0,1,1.33-.22,2.72,2.72,0,0,1,1.78.53A1.74,1.74,0,0,1,271.2,137.82Z" transform="translate(-1.08 -4.24)" fill="#231f20"/><path d="M277.79,143.2a2.32,2.32,0,0,0,.46,0,1.94,1.94,0,0,0,.35-.07v.68a1.51,1.51,0,0,1-.43.12,3.25,3.25,0,0,1-.51,0c-1.14,0-1.7-.6-1.7-1.79v-3.51h-.85v-.43l.85-.37.37-1.25h.52v1.36h1.7v.69h-1.7v3.47a1.17,1.17,0,0,0,.25.81A.88.88,0,0,0,277.79,143.2Z" transform="translate(-1.08 -4.24)" fill="#231f20"/><path d="M284.85,140.88a3.27,3.27,0,0,1-.72,2.25,2.57,2.57,0,0,1-2,.8,2.65,2.65,0,0,1-1.41-.37,2.44,2.44,0,0,1-.94-1.06,3.72,3.72,0,0,1-.33-1.62,3.23,3.23,0,0,1,.72-2.24,2.81,2.81,0,0,1,4,0A3.27,3.27,0,0,1,284.85,140.88Zm-4.48,0a2.82,2.82,0,0,0,.45,1.72,1.57,1.57,0,0,0,1.33.59,1.6,1.6,0,0,0,1.33-.59,2.8,2.8,0,0,0,.45-1.72,2.77,2.77,0,0,0-.45-1.71,1.6,1.6,0,0,0-1.34-.58,1.56,1.56,0,0,0-1.32.57A2.78,2.78,0,0,0,280.37,140.88Z" transform="translate(-1.08 -4.24)" fill="#231f20"/><path d="M294.4,142h-1.17v1.81h-.85V142h-3.82v-.78l3.73-5.31h.94v5.28h1.17Zm-2-.81V138.6c0-.51,0-1.09.05-1.73h0a8.61,8.61,0,0,1-.48.85l-2.46,3.49Z" transform="translate(-1.08 -4.24)" fill="#231f20"/><path d="M302.43,143h-.05a2.09,2.09,0,0,1-1.85.89,2.19,2.19,0,0,1-1.79-.78,3.49,3.49,0,0,1-.65-2.25,3.54,3.54,0,0,1,.65-2.26,2.38,2.38,0,0,1,3.63.06h.07l0-.42,0-.42v-2.39h.89v8.36h-.72Zm-1.78.15a1.63,1.63,0,0,0,1.32-.5,2.54,2.54,0,0,0,.41-1.6v-.19a2.94,2.94,0,0,0-.42-1.79,1.58,1.58,0,0,0-1.32-.53,1.34,1.34,0,0,0-1.2.61,3,3,0,0,0-.42,1.72,2.94,2.94,0,0,0,.41,1.7A1.4,1.4,0,0,0,300.65,143.19Z" transform="translate(-1.08 -4.24)" fill="#231f20"/><path d="M308.78,143.83l-.17-.84h-.05a2.37,2.37,0,0,1-.88.75,2.66,2.66,0,0,1-1.09.19,2,2,0,0,1-1.37-.45,1.65,1.65,0,0,1-.5-1.28c0-1.19.95-1.81,2.86-1.87l1,0v-.37a1.53,1.53,0,0,0-.29-1,1.24,1.24,0,0,0-1-.33,3.88,3.88,0,0,0-1.66.45l-.28-.68a4.45,4.45,0,0,1,2-.51,2.26,2.26,0,0,1,1.56.47,2,2,0,0,1,.5,1.5v4Zm-2-.63a1.81,1.81,0,0,0,1.31-.46,1.71,1.71,0,0,0,.47-1.28v-.53l-.89,0a3.1,3.1,0,0,0-1.53.33,1,1,0,0,0-.47.91.92.92,0,0,0,.29.74A1.27,1.27,0,0,0,306.77,143.2Z" transform="translate(-1.08 -4.24)" fill="#231f20"/><path d="M310.35,137.94h.95l1.29,3.36a13.45,13.45,0,0,1,.53,1.66h0c0-.19.14-.5.29-.94s.64-1.8,1.46-4.08h1l-2.53,6.7a3.29,3.29,0,0,1-.88,1.41,1.87,1.87,0,0,1-1.23.42,3.66,3.66,0,0,1-.81-.09v-.72a2.73,2.73,0,0,0,.66.07,1.37,1.37,0,0,0,1.31-1l.33-.84Z" transform="translate(-1.08 -4.24)" fill="#231f20"/><path d="M320.62,142.22a1.47,1.47,0,0,1-.61,1.27,2.86,2.86,0,0,1-1.72.44,3.73,3.73,0,0,1-1.83-.37v-.82a4.7,4.7,0,0,0,.91.33,3.54,3.54,0,0,0,.94.13,2.26,2.26,0,0,0,1.08-.22.77.77,0,0,0,.07-1.27,4.31,4.31,0,0,0-1.16-.58,6.16,6.16,0,0,1-1.17-.53,1.67,1.67,0,0,1-.51-.52,1.43,1.43,0,0,1,.41-1.83,2.72,2.72,0,0,1,1.61-.42,4.7,4.7,0,0,1,1.86.39l-.32.72a4.33,4.33,0,0,0-1.61-.36,1.84,1.84,0,0,0-.95.2.6.6,0,0,0-.32.55.68.68,0,0,0,.12.4,1.33,1.33,0,0,0,.39.32,8.94,8.94,0,0,0,1,.43,3.67,3.67,0,0,1,1.41.77A1.34,1.34,0,0,1,320.62,142.22Z" transform="translate(-1.08 -4.24)" fill="#231f20"/><path d="M277.26,209,283.69,195h-8.45v-3h12.3v2.27L281.06,209Z" transform="translate(-1.08 -4.24)" fill="#231f20"/><path d="M293.08,202a4.32,4.32,0,0,1-.52,2.36,1.72,1.72,0,0,1-1.54.79,1.67,1.67,0,0,1-1.48-.81A4.31,4.31,0,0,1,289,202a4.37,4.37,0,0,1,.51-2.34,1.68,1.68,0,0,1,1.5-.78,1.72,1.72,0,0,1,1.53.81A4.24,4.24,0,0,1,293.08,202ZM290,202a4.8,4.8,0,0,0,.25,1.75.87.87,0,0,0,.82.58c.75,0,1.13-.78,1.13-2.33s-.38-2.31-1.13-2.31a.86.86,0,0,0-.82.58A4.68,4.68,0,0,0,290,202Zm7.39-3-5.54,10h-1l5.55-10Zm1.77,7a4.3,4.3,0,0,1-.53,2.35,1.72,1.72,0,0,1-1.53.79,1.68,1.68,0,0,1-1.5-.81A4.4,4.4,0,0,1,295,206a4.32,4.32,0,0,1,.51-2.34,1.69,1.69,0,0,1,1.51-.79,1.71,1.71,0,0,1,1.51.81A4.14,4.14,0,0,1,299.11,206ZM296,206a4.5,4.5,0,0,0,.25,1.74.85.85,0,0,0,.83.58.88.88,0,0,0,.84-.57,4.09,4.09,0,0,0,.28-1.75,4,4,0,0,0-.28-1.73.88.88,0,0,0-.84-.57.85.85,0,0,0-.83.57A4.41,4.41,0,0,0,296,206Z" transform="translate(-1.08 -4.24)" fill="#231f20"/><path d="M277.59,218.23a2.87,2.87,0,0,1,2,.61,2.11,2.11,0,0,1,.71,1.69,2.42,2.42,0,0,1-.77,1.91,3.11,3.11,0,0,1-2.14.69,4,4,0,0,1-2-.42v-.86a3,3,0,0,0,.94.38,4.67,4.67,0,0,0,1.1.14,2.19,2.19,0,0,0,1.47-.45,1.6,1.6,0,0,0,.52-1.29c0-1.1-.67-1.64-2-1.64a8.38,8.38,0,0,0-1.37.15l-.46-.29.3-3.68h3.9V216h-3.14l-.2,2.36A6.41,6.41,0,0,1,277.59,218.23Z" transform="translate(-1.08 -4.24)" fill="#231f20"/><path d="M286.59,222.4a2.32,2.32,0,0,0,.46,0l.35-.07V223a1.51,1.51,0,0,1-.43.12,3.25,3.25,0,0,1-.51,0q-1.71,0-1.71-1.8v-3.5h-.84v-.43l.84-.37.38-1.26h.52v1.37h1.7v.69h-1.7v3.47a1.17,1.17,0,0,0,.25.81A.88.88,0,0,0,286.59,222.4Z" transform="translate(-1.08 -4.24)" fill="#231f20"/><path d="M293.65,220.08a3.23,3.23,0,0,1-.72,2.24,2.54,2.54,0,0,1-2,.81,2.65,2.65,0,0,1-1.41-.37,2.44,2.44,0,0,1-.94-1.06,3.72,3.72,0,0,1-.33-1.62,3.27,3.27,0,0,1,.72-2.25,2.82,2.82,0,0,1,4,0A3.27,3.27,0,0,1,293.65,220.08Zm-4.48,0a2.82,2.82,0,0,0,.45,1.72,1.57,1.57,0,0,0,1.33.59,1.6,1.6,0,0,0,1.33-.59,2.8,2.8,0,0,0,.45-1.72,2.77,2.77,0,0,0-.45-1.71,1.6,1.6,0,0,0-1.34-.58,1.56,1.56,0,0,0-1.32.57A2.78,2.78,0,0,0,289.17,220.08Z" transform="translate(-1.08 -4.24)" fill="#231f20"/><path d="M301,223h-.87v-5.6c0-.47,0-.91,0-1.32l-.25.23c-.09.09-.52.44-1.28,1l-.47-.61,2.08-1.61H301Z" transform="translate(-1.08 -4.24)" fill="#231f20"/><path d="M309.16,219.09a5.71,5.71,0,0,1-.64,3,2.16,2.16,0,0,1-2,1,2.14,2.14,0,0,1-1.93-1,5.6,5.6,0,0,1-.66-3,5.73,5.73,0,0,1,.64-3.05,2.37,2.37,0,0,1,3.89.05A5.61,5.61,0,0,1,309.16,219.09Zm-4.29,0a5.72,5.72,0,0,0,.4,2.49,1.44,1.44,0,0,0,2.58,0,7.89,7.89,0,0,0,0-5,1.45,1.45,0,0,0-2.58,0A5.72,5.72,0,0,0,304.87,219.09Z" transform="translate(-1.08 -4.24)" fill="#231f20"/><path d="M317.52,222.24h0a2.11,2.11,0,0,1-1.85.89,2.15,2.15,0,0,1-1.79-.79,3.44,3.44,0,0,1-.65-2.24,3.52,3.52,0,0,1,.65-2.26,2.38,2.38,0,0,1,3.63.06h.07l0-.42,0-.42v-2.39h.89V223h-.72Zm-1.78.15a1.63,1.63,0,0,0,1.32-.5,2.54,2.54,0,0,0,.41-1.6v-.19a2.94,2.94,0,0,0-.42-1.79,1.59,1.59,0,0,0-1.33-.53,1.36,1.36,0,0,0-1.2.61,3.08,3.08,0,0,0-.41,1.72,2.94,2.94,0,0,0,.41,1.7A1.42,1.42,0,0,0,315.74,222.39Z" transform="translate(-1.08 -4.24)" fill="#231f20"/><path d="M323.87,223l-.17-.84h-.05a2.37,2.37,0,0,1-.88.75,2.66,2.66,0,0,1-1.09.19,2,2,0,0,1-1.37-.45,1.65,1.65,0,0,1-.5-1.28c0-1.19.95-1.81,2.85-1.87l1,0v-.37a1.48,1.48,0,0,0-.3-1,1.2,1.2,0,0,0-.95-.33,3.88,3.88,0,0,0-1.66.45l-.28-.68a4.45,4.45,0,0,1,2-.51,2.27,2.27,0,0,1,1.57.47,2,2,0,0,1,.5,1.5v4Zm-2-.63a1.81,1.81,0,0,0,1.31-.46,1.71,1.71,0,0,0,.47-1.28v-.53l-.89,0a3.1,3.1,0,0,0-1.53.33,1,1,0,0,0-.47.91.92.92,0,0,0,.29.74A1.25,1.25,0,0,0,321.86,222.4Z" transform="translate(-1.08 -4.24)" fill="#231f20"/><path d="M325.44,217.14h.95l1.29,3.36a13.45,13.45,0,0,1,.53,1.66h0c.05-.19.14-.5.29-.94s.64-1.8,1.46-4.08h1l-2.53,6.7a3.35,3.35,0,0,1-.88,1.41,1.87,1.87,0,0,1-1.23.42,3.66,3.66,0,0,1-.81-.09v-.72a2.73,2.73,0,0,0,.66.07,1.37,1.37,0,0,0,1.31-1l.33-.84Z" transform="translate(-1.08 -4.24)" fill="#231f20"/><path d="M335.71,221.42a1.47,1.47,0,0,1-.61,1.27,2.93,2.93,0,0,1-1.72.44,3.73,3.73,0,0,1-1.83-.37v-.82a4.7,4.7,0,0,0,.91.33,3.54,3.54,0,0,0,.94.13,2.14,2.14,0,0,0,1.08-.23.72.72,0,0,0,.37-.68.73.73,0,0,0-.3-.58,4.31,4.31,0,0,0-1.16-.58,6.16,6.16,0,0,1-1.17-.53,1.67,1.67,0,0,1-.51-.52,1.43,1.43,0,0,1,.41-1.83,2.72,2.72,0,0,1,1.61-.42,4.7,4.7,0,0,1,1.86.39l-.32.72a4.33,4.33,0,0,0-1.61-.36,1.75,1.75,0,0,0-1,.2.59.59,0,0,0-.32.54.69.69,0,0,0,.12.41,1.18,1.18,0,0,0,.39.31,7.09,7.09,0,0,0,1,.44,3.67,3.67,0,0,1,1.41.77A1.34,1.34,0,0,1,335.71,221.42Z" transform="translate(-1.08 -4.24)" fill="#231f20"/><path d="M156.21,295.73a4,4,0,0,1-1,2.73A5,5,0,0,1,152.5,300v.07a5.41,5.41,0,0,1,3.14,1.26,3.54,3.54,0,0,1,1.07,2.7,4.58,4.58,0,0,1-1.79,3.85,8.27,8.27,0,0,1-5.12,1.38,12.42,12.42,0,0,1-5-.93v-3.08a10.92,10.92,0,0,0,2.19.82,9.32,9.32,0,0,0,2.37.32,4.59,4.59,0,0,0,2.65-.61,2.24,2.24,0,0,0,.85-2,1.78,1.78,0,0,0-1-1.71,7.39,7.39,0,0,0-3.14-.5h-1.3v-2.78h1.32a6.11,6.11,0,0,0,2.91-.52,1.87,1.87,0,0,0,.92-1.79c0-1.29-.81-1.94-2.43-1.94a5.48,5.48,0,0,0-1.72.28,8.53,8.53,0,0,0-1.94,1l-1.68-2.5a9.37,9.37,0,0,1,5.59-1.68,7.23,7.23,0,0,1,4.21,1.08A3.45,3.45,0,0,1,156.21,295.73Z" transform="translate(-1.08 -4.24)" fill="#231f20"/><path d="M171,305.48H168.9V309h-3.54v-3.55h-7.31V303l7.51-11.07h3.34v10.77H171Zm-5.6-2.82v-2.9c0-.49,0-1.19.06-2.11s.07-1.46.09-1.61h-.09a13,13,0,0,1-1,1.88l-3.14,4.74Z" transform="translate(-1.08 -4.24)" fill="#231f20"/><path d="M176.12,302a4.32,4.32,0,0,1-.52,2.36,1.72,1.72,0,0,1-1.54.79,1.66,1.66,0,0,1-1.48-.81,4.22,4.22,0,0,1-.53-2.34,4.37,4.37,0,0,1,.51-2.34,1.67,1.67,0,0,1,1.5-.78,1.73,1.73,0,0,1,1.53.81A4.24,4.24,0,0,1,176.12,302ZM173,302a4.6,4.6,0,0,0,.25,1.75.86.86,0,0,0,.82.58c.75,0,1.12-.78,1.12-2.33s-.37-2.31-1.12-2.31a.85.85,0,0,0-.82.58A4.48,4.48,0,0,0,173,302Zm7.39-3-5.55,10h-1l5.54-10Zm1.76,7a4.31,4.31,0,0,1-.52,2.35,1.72,1.72,0,0,1-1.54.79,1.68,1.68,0,0,1-1.49-.81,5.55,5.55,0,0,1,0-4.67,1.69,1.69,0,0,1,1.5-.79,1.73,1.73,0,0,1,1.52.81A4.14,4.14,0,0,1,182.14,306ZM179,306a4.56,4.56,0,0,0,.26,1.75.85.85,0,0,0,.82.57.89.89,0,0,0,.85-.57,4.26,4.26,0,0,0,.28-1.75,4.15,4.15,0,0,0-.28-1.73.89.89,0,0,0-.85-.57.85.85,0,0,0-.82.57A4.38,4.38,0,0,0,179,306Z" transform="translate(-1.08 -4.24)" fill="#231f20"/><path d="M153.82,323h-1l-4.29-6.59h0c.05.77.08,1.48.08,2.12V323h-.84v-7.86h1l4.28,6.57h.05c0-.1,0-.41-.05-.93s0-.91,0-1.13v-4.51h.85Z" transform="translate(-1.08 -4.24)" fill="#231f20"/><path d="M160.93,320.08a3.23,3.23,0,0,1-.72,2.24,2.58,2.58,0,0,1-2,.81,2.64,2.64,0,0,1-1.4-.37,2.46,2.46,0,0,1-1-1.06,3.72,3.72,0,0,1-.33-1.62,3.27,3.27,0,0,1,.72-2.25,2.57,2.57,0,0,1,2-.8,2.51,2.51,0,0,1,2,.82A3.22,3.22,0,0,1,160.93,320.08Zm-4.48,0a2.82,2.82,0,0,0,.45,1.72,1.78,1.78,0,0,0,2.65,0,2.8,2.8,0,0,0,.46-1.72,2.77,2.77,0,0,0-.46-1.71,1.83,1.83,0,0,0-2.66,0A2.78,2.78,0,0,0,156.45,320.08Z" transform="translate(-1.08 -4.24)" fill="#231f20"/><path d="M166.52,323v-3.81a1.55,1.55,0,0,0-.33-1.08,1.34,1.34,0,0,0-1-.35,1.72,1.72,0,0,0-1.36.5,2.55,2.55,0,0,0-.43,1.65V323h-.89v-5.89h.73l.14.8h0a1.78,1.78,0,0,1,.76-.67,2.51,2.51,0,0,1,1.11-.24,1.86,1.86,0,0,1,2.13,2.16V323Z" transform="translate(-1.08 -4.24)" fill="#231f20"/><path d="M171.73,323.13a2.7,2.7,0,0,1-2.06-.79,3.1,3.1,0,0,1-.75-2.21,3.4,3.4,0,0,1,.7-2.26,2.32,2.32,0,0,1,1.88-.84,2.2,2.2,0,0,1,1.75.73,2.79,2.79,0,0,1,.65,1.92v.56h-4.06a2.35,2.35,0,0,0,.52,1.58,1.82,1.82,0,0,0,1.4.53,4.8,4.8,0,0,0,1.88-.39v.79a3.84,3.84,0,0,1-.89.29A5,5,0,0,1,171.73,323.13Zm-.24-5.35a1.45,1.45,0,0,0-1.13.46,2.13,2.13,0,0,0-.5,1.28h3.08a2,2,0,0,0-.38-1.29A1.31,1.31,0,0,0,171.49,317.78Z" transform="translate(-1.08 -4.24)" fill="#231f20"/><path d="M41.31,228.63h-12v-2.52l4.31-4.35c1.27-1.31,2.1-2.21,2.49-2.71a6.46,6.46,0,0,0,.85-1.4,3.62,3.62,0,0,0,.25-1.34,2,2,0,0,0-.57-1.54,2.2,2.2,0,0,0-1.51-.5,4.32,4.32,0,0,0-1.94.46,10,10,0,0,0-1.95,1.3l-2-2.33a12.68,12.68,0,0,1,2.1-1.53,8,8,0,0,1,1.81-.68,9.33,9.33,0,0,1,2.2-.24,6.52,6.52,0,0,1,2.84.58,4.52,4.52,0,0,1,1.91,1.64,4.41,4.41,0,0,1,.68,2.42,5.85,5.85,0,0,1-.42,2.22,8.42,8.42,0,0,1-1.28,2.13,32.9,32.9,0,0,1-3.08,3.1l-2.2,2.08v.16h7.46Z" transform="translate(-1.08 -4.24)" fill="#231f20"/><path d="M46.86,221.61a4.32,4.32,0,0,1-.53,2.36,1.82,1.82,0,0,1-3,0,4.31,4.31,0,0,1-.53-2.34,4.37,4.37,0,0,1,.51-2.34,1.68,1.68,0,0,1,1.51-.78,1.71,1.71,0,0,1,1.52.81A4.15,4.15,0,0,1,46.86,221.61Zm-3.13,0a4.6,4.6,0,0,0,.25,1.75.86.86,0,0,0,.82.58c.75,0,1.12-.78,1.12-2.33s-.37-2.31-1.12-2.31a.85.85,0,0,0-.82.58A4.48,4.48,0,0,0,43.73,221.61Zm7.39-3-5.55,10h-1l5.54-10Zm1.76,7a4.31,4.31,0,0,1-.52,2.35,1.72,1.72,0,0,1-1.54.79,1.68,1.68,0,0,1-1.49-.81,5.55,5.55,0,0,1,0-4.67,1.68,1.68,0,0,1,1.5-.79,1.74,1.74,0,0,1,1.52.81A4.14,4.14,0,0,1,52.88,225.62Zm-3.14,0a4.47,4.47,0,0,0,.26,1.74.84.84,0,0,0,.82.58.89.89,0,0,0,.85-.57,4.28,4.28,0,0,0,.27-1.75,4.18,4.18,0,0,0-.27-1.73.89.89,0,0,0-.85-.57.84.84,0,0,0-.82.57A4.38,4.38,0,0,0,49.74,225.62Z" transform="translate(-1.08 -4.24)" fill="#231f20"/><path d="M4.55,242.63l-2.66-7h0c0,.55.07,1.2.07,2v5H1.08v-7.86H2.45l2.49,6.48H5l2.51-6.48H8.86v7.86H7.94v-5.06c0-.58,0-1.21.08-1.89H8l-2.69,6.95Z" transform="translate(-1.08 -4.24)" fill="#231f20"/><path d="M16,239.68a3.22,3.22,0,0,1-.73,2.25,2.57,2.57,0,0,1-2,.8,2.62,2.62,0,0,1-1.4-.37,2.4,2.4,0,0,1-.95-1.06,3.72,3.72,0,0,1-.33-1.62,3.23,3.23,0,0,1,.72-2.24,2.53,2.53,0,0,1,2-.81,2.52,2.52,0,0,1,2,.82A3.27,3.27,0,0,1,16,239.68Zm-4.49,0a2.82,2.82,0,0,0,.45,1.72,1.59,1.59,0,0,0,1.33.59,1.59,1.59,0,0,0,1.33-.59,2.8,2.8,0,0,0,.45-1.72,2.77,2.77,0,0,0-.45-1.71,1.59,1.59,0,0,0-1.34-.58,1.58,1.58,0,0,0-1.32.57A2.78,2.78,0,0,0,11.47,239.68Z" transform="translate(-1.08 -4.24)" fill="#231f20"/><path d="M20.21,236.63a3,3,0,0,1,.7.07l-.12.82a3.37,3.37,0,0,0-.65-.08,1.6,1.6,0,0,0-1.22.58,2.12,2.12,0,0,0-.51,1.45v3.16h-.89v-5.89h.74l.1,1.09h0a2.65,2.65,0,0,1,.79-.89A1.85,1.85,0,0,1,20.21,236.63Z" transform="translate(-1.08 -4.24)" fill="#231f20"/><path d="M24.5,242.73a2.7,2.7,0,0,1-2.06-.79,3.06,3.06,0,0,1-.76-2.21,3.45,3.45,0,0,1,.7-2.26,2.34,2.34,0,0,1,1.89-.84,2.22,2.22,0,0,1,1.75.73,2.8,2.8,0,0,1,.64,1.92v.56H22.61a2.35,2.35,0,0,0,.52,1.58,1.8,1.8,0,0,0,1.4.53,4.84,4.84,0,0,0,1.88-.39v.79a4.66,4.66,0,0,1-.89.3A6,6,0,0,1,24.5,242.73Zm-.24-5.35a1.43,1.43,0,0,0-1.13.46,2.07,2.07,0,0,0-.5,1.28h3.08a2,2,0,0,0-.38-1.29A1.32,1.32,0,0,0,24.26,237.38Z" transform="translate(-1.08 -4.24)" fill="#231f20"/><path d="M32.94,242a2.32,2.32,0,0,0,.46,0,2.15,2.15,0,0,0,.35-.07v.68a1.51,1.51,0,0,1-.43.12,3.25,3.25,0,0,1-.51,0c-1.14,0-1.71-.6-1.71-1.79v-3.51h-.84V237l.84-.37.38-1.25H32v1.36h1.7v.69H32v3.47a1.17,1.17,0,0,0,.25.81A.88.88,0,0,0,32.94,242Z" transform="translate(-1.08 -4.24)" fill="#231f20"/><path d="M39,242.63v-3.81a1.55,1.55,0,0,0-.33-1.08,1.34,1.34,0,0,0-1-.35,1.72,1.72,0,0,0-1.36.5,2.6,2.6,0,0,0-.43,1.66v3.08h-.89v-8.36h.89v2.53a5.44,5.44,0,0,1,0,.76h.06a1.72,1.72,0,0,1,.74-.67,2.39,2.39,0,0,1,1.11-.25,2.24,2.24,0,0,1,1.62.52,2.15,2.15,0,0,1,.54,1.63v3.84Z" transform="translate(-1.08 -4.24)" fill="#231f20"/><path d="M45.29,242.63l-.17-.84h0a2.43,2.43,0,0,1-.87.75,2.75,2.75,0,0,1-1.1.19,2,2,0,0,1-1.37-.45,1.65,1.65,0,0,1-.5-1.28c0-1.19,1-1.81,2.86-1.87l1,0v-.37a1.48,1.48,0,0,0-.29-1,1.24,1.24,0,0,0-1-.33,3.88,3.88,0,0,0-1.66.45l-.28-.68a4.45,4.45,0,0,1,2-.51,2.26,2.26,0,0,1,1.56.47,1.94,1.94,0,0,1,.51,1.5v4Zm-2-.63a1.79,1.79,0,0,0,1.31-.46,1.71,1.71,0,0,0,.47-1.28v-.53l-.89,0a3.1,3.1,0,0,0-1.53.33,1,1,0,0,0-.47.91,1,1,0,0,0,.29.74A1.27,1.27,0,0,0,43.28,242Z" transform="translate(-1.08 -4.24)" fill="#231f20"/><path d="M51.82,242.63v-3.81a1.55,1.55,0,0,0-.33-1.08,1.35,1.35,0,0,0-1-.35,1.72,1.72,0,0,0-1.36.5,2.55,2.55,0,0,0-.43,1.65v3.09h-.89v-5.89h.73l.14.81h.05a1.8,1.8,0,0,1,.76-.68,2.5,2.5,0,0,1,1.1-.24,2.19,2.19,0,0,1,1.6.52,2.16,2.16,0,0,1,.54,1.64v3.84Z" transform="translate(-1.08 -4.24)" fill="#231f20"/><path d="M15.5,256.63h-.87V251c0-.47,0-.91,0-1.32l-.25.23c-.1.09-.52.44-1.28,1.05l-.47-.61,2.07-1.61h.76Z" transform="translate(-1.08 -4.24)" fill="#231f20"/><path d="M23.69,252.69a5.7,5.7,0,0,1-.65,3,2.15,2.15,0,0,1-2,1,2.16,2.16,0,0,1-1.93-1,5.66,5.66,0,0,1-.66-3,5.82,5.82,0,0,1,.64-3.05,2.17,2.17,0,0,1,1.95-1,2.16,2.16,0,0,1,1.94,1A5.51,5.51,0,0,1,23.69,252.69Zm-4.29,0a5.72,5.72,0,0,0,.4,2.49,1.44,1.44,0,0,0,2.57,0,7.89,7.89,0,0,0,0-5,1.44,1.44,0,0,0-2.57,0A5.72,5.72,0,0,0,19.4,252.69Z" transform="translate(-1.08 -4.24)" fill="#231f20"/><path d="M32,255.84h0a2.1,2.1,0,0,1-1.85.89,2.18,2.18,0,0,1-1.8-.79,3.44,3.44,0,0,1-.64-2.24,3.53,3.53,0,0,1,.64-2.26,2.17,2.17,0,0,1,1.8-.81,2.12,2.12,0,0,1,1.83.87h.07l0-.42,0-.42v-2.39h.89v8.36h-.73Zm-1.78.15a1.61,1.61,0,0,0,1.32-.5,2.47,2.47,0,0,0,.42-1.6v-.19a2.94,2.94,0,0,0-.42-1.79,1.6,1.6,0,0,0-1.33-.53,1.36,1.36,0,0,0-1.2.61,3,3,0,0,0-.42,1.72,2.86,2.86,0,0,0,.42,1.7A1.38,1.38,0,0,0,30.26,256Z" transform="translate(-1.08 -4.24)" fill="#231f20"/><path d="M38.4,256.63l-.18-.84h0a2.53,2.53,0,0,1-.88.75,2.7,2.7,0,0,1-1.09.19,2,2,0,0,1-1.38-.45,1.64,1.64,0,0,1-.49-1.28c0-1.19.95-1.81,2.85-1.87l1,0v-.37a1.48,1.48,0,0,0-.3-1,1.23,1.23,0,0,0-1-.33,3.92,3.92,0,0,0-1.67.45l-.27-.68a4.36,4.36,0,0,1,2-.51,2.26,2.26,0,0,1,1.56.47,1.94,1.94,0,0,1,.51,1.5v4Zm-2-.63a1.79,1.79,0,0,0,1.31-.46,1.67,1.67,0,0,0,.48-1.28v-.53l-.89,0a3.17,3.17,0,0,0-1.54.33,1,1,0,0,0-.47.91,1,1,0,0,0,.29.74A1.27,1.27,0,0,0,36.38,256Z" transform="translate(-1.08 -4.24)" fill="#231f20"/><path d="M40,250.74h1l1.29,3.36a13,13,0,0,1,.52,1.66h.05a9.84,9.84,0,0,1,.29-.94c.15-.44.63-1.8,1.46-4.08h.95L43,257.44a3.26,3.26,0,0,1-.88,1.41,1.84,1.84,0,0,1-1.23.42,3.57,3.57,0,0,1-.8-.09v-.72a2.62,2.62,0,0,0,.66.07,1.37,1.37,0,0,0,1.31-1l.32-.84Z" transform="translate(-1.08 -4.24)" fill="#231f20"/><path d="M50.24,255a1.48,1.48,0,0,1-.62,1.27,2.84,2.84,0,0,1-1.72.44,3.69,3.69,0,0,1-1.82-.37v-.82a4.47,4.47,0,0,0,.91.33,3.49,3.49,0,0,0,.94.13,2.1,2.1,0,0,0,1.07-.23.72.72,0,0,0,.38-.67.73.73,0,0,0-.3-.59,4.47,4.47,0,0,0-1.16-.58,6.16,6.16,0,0,1-1.17-.53,1.71,1.71,0,0,1-.52-.52,1.41,1.41,0,0,1-.17-.69,1.32,1.32,0,0,1,.59-1.14,2.69,2.69,0,0,1,1.6-.42,4.63,4.63,0,0,1,1.86.39l-.31.72a4.37,4.37,0,0,0-1.61-.36,1.81,1.81,0,0,0-1,.2.61.61,0,0,0-.32.55.68.68,0,0,0,.12.4,1.33,1.33,0,0,0,.39.32,8.94,8.94,0,0,0,1,.43,3.81,3.81,0,0,1,1.42.77A1.38,1.38,0,0,1,50.24,255Z" transform="translate(-1.08 -4.24)" fill="#231f20"/><line x1="569.77" y1="176.95" x2="599.67" y2="176.95" fill="none" stroke="#231f20" stroke-miterlimit="10"/><circle cx="599.83" cy="176.81" r="2.72" fill="#fff" stroke="#231f20" stroke-miterlimit="10"/><rect x="374.52" y="227.61" width="115.47" height="32.8" fill="#ccc"/><path d="M460.38,256.65H449.9v-2.21l3.77-3.8c1.11-1.14,1.84-1.94,2.18-2.38a5.37,5.37,0,0,0,.74-1.22,3.15,3.15,0,0,0,.22-1.17,1.69,1.69,0,0,0-.49-1.34,1.91,1.91,0,0,0-1.33-.44,3.87,3.87,0,0,0-1.69.39,8.75,8.75,0,0,0-1.71,1.14l-1.73-2a11,11,0,0,1,1.84-1.33,6.55,6.55,0,0,1,1.59-.6,8.09,8.09,0,0,1,1.93-.21,5.75,5.75,0,0,1,2.48.51,4,4,0,0,1,1.67,1.44,3.85,3.85,0,0,1,.59,2.11,5.19,5.19,0,0,1-.36,1.94,7.19,7.19,0,0,1-1.13,1.86,27,27,0,0,1-2.69,2.72l-1.93,1.82V254h6.53Z" transform="translate(-1.08 -4.24)" fill="#231f20"/><path d="M463.17,256.65l5.63-12.31h-7.4v-2.66h10.76v2l-5.67,13Z" transform="translate(-1.08 -4.24)" fill="#231f20"/><path d="M473.35,250.28q0-4.46,1.89-6.63a7.06,7.06,0,0,1,5.63-2.17,10.4,10.4,0,0,1,2,.15v2.54a8,8,0,0,0-1.8-.21,6.29,6.29,0,0,0-2.66.49,3.33,3.33,0,0,0-1.55,1.46,6.71,6.71,0,0,0-.6,2.74h.13a3.49,3.49,0,0,1,3.25-1.75,4,4,0,0,1,3.15,1.27,5,5,0,0,1,1.14,3.48,5.2,5.2,0,0,1-1.36,3.8,5,5,0,0,1-3.75,1.4,5.33,5.33,0,0,1-2.9-.77,5,5,0,0,1-1.9-2.24A8.53,8.53,0,0,1,473.35,250.28Zm5.42,4a1.88,1.88,0,0,0,1.56-.68,3.1,3.1,0,0,0,.54-1.95,2.65,2.65,0,0,0-.51-1.72,1.85,1.85,0,0,0-1.53-.63,2.31,2.31,0,0,0-1.64.62,1.91,1.91,0,0,0-.69,1.46,3.35,3.35,0,0,0,.64,2.06A2,2,0,0,0,478.77,254.32Z" transform="translate(-1.08 -4.24)" fill="#231f20"/><line x1="542.78" y1="307.01" x2="569.58" y2="307.01" fill="none" stroke="#231f20" stroke-miterlimit="10" stroke-width="0.5"/><line x1="435.58" y1="51.01" x2="569.58" y2="51.01" fill="none" stroke="#231f20" stroke-miterlimit="10" stroke-width="0.5"/><line x1="569.58" y1="51.21" x2="569.58" y2="307.21" fill="none" stroke="#231f20" stroke-miterlimit="10" stroke-width="0.5"/><rect x="374.58" y="290.61" width="159.93" height="32.8" fill="#262b69"/><path d="M504.38,318.65H493.9v-2.21l3.77-3.8c1.11-1.14,1.84-1.94,2.18-2.38a5.37,5.37,0,0,0,.74-1.22,3.15,3.15,0,0,0,.22-1.17,1.69,1.69,0,0,0-.49-1.34,1.91,1.91,0,0,0-1.33-.44,3.87,3.87,0,0,0-1.69.39,8.75,8.75,0,0,0-1.71,1.14l-1.73-2a11,11,0,0,1,1.84-1.33,6.55,6.55,0,0,1,1.59-.6,8.09,8.09,0,0,1,1.93-.21,5.75,5.75,0,0,1,2.48.51,4,4,0,0,1,1.67,1.44,3.85,3.85,0,0,1,.59,2.11,5.19,5.19,0,0,1-.36,1.94,7.19,7.19,0,0,1-1.13,1.86,27,27,0,0,1-2.69,2.72l-1.93,1.82V316h6.53Z" transform="translate(-1.08 -4.24)" fill="#fff"/><path d="M516.1,310.05c0,3-.62,5.16-1.87,6.62s-3.13,2.18-5.65,2.18a11.18,11.18,0,0,1-2-.14v-2.55a7.18,7.18,0,0,0,1.81.22,6.31,6.31,0,0,0,2.61-.47,3.28,3.28,0,0,0,1.57-1.46,6.61,6.61,0,0,0,.63-2.76h-.13a3.42,3.42,0,0,1-1.37,1.36,4.34,4.34,0,0,1-1.95.39,4,4,0,0,1-3.09-1.26,5,5,0,0,1-1.12-3.49,5.17,5.17,0,0,1,1.37-3.81,5,5,0,0,1,3.72-1.4,5.37,5.37,0,0,1,2.91.78,5,5,0,0,1,1.91,2.26A8.49,8.49,0,0,1,516.1,310.05Zm-5.43-4a1.88,1.88,0,0,0-1.53.68,3,3,0,0,0-.56,1.95,2.73,2.73,0,0,0,.5,1.72,1.83,1.83,0,0,0,1.53.64,2.33,2.33,0,0,0,1.65-.63,1.93,1.93,0,0,0,.69-1.45,3.32,3.32,0,0,0-.64-2.07A2,2,0,0,0,510.67,306Z" transform="translate(-1.08 -4.24)" fill="#fff"/><path d="M527.85,311.15c0,2.62-.42,4.56-1.28,5.81a4.47,4.47,0,0,1-4,1.89,4.42,4.42,0,0,1-3.91-2,10.28,10.28,0,0,1-1.31-5.75c0-2.64.42-4.59,1.28-5.85a5,5,0,0,1,7.87.09A10.35,10.35,0,0,1,527.85,311.15Zm-7.33,0a11.54,11.54,0,0,0,.48,4,1.66,1.66,0,0,0,3.2,0,15.85,15.85,0,0,0,0-7.9,1.66,1.66,0,0,0-1.6-1.21,1.64,1.64,0,0,0-1.59,1.21A11.35,11.35,0,0,0,520.52,311.15Z" transform="translate(-1.08 -4.24)" fill="#fff"/><path d="M383.88,288.65h-1.05l-4.29-6.59h0c.06.77.09,1.48.09,2.12v4.47h-.85v-7.86h1l4.28,6.57h.05c0-.1,0-.41-.05-.93s0-.9,0-1.13v-4.51h.86Z" transform="translate(-1.08 -4.24)" fill="#231f20"/><path d="M391,285.7a3.23,3.23,0,0,1-.72,2.24,2.56,2.56,0,0,1-2,.81,2.64,2.64,0,0,1-1.4-.37,2.38,2.38,0,0,1-.94-1.06,3.58,3.58,0,0,1-.34-1.62,3.27,3.27,0,0,1,.72-2.25,2.57,2.57,0,0,1,2-.8,2.49,2.49,0,0,1,2,.82A3.22,3.22,0,0,1,391,285.7Zm-4.48,0a2.82,2.82,0,0,0,.45,1.72,1.78,1.78,0,0,0,2.65,0,2.73,2.73,0,0,0,.46-1.72,2.7,2.7,0,0,0-.46-1.71,1.83,1.83,0,0,0-2.66,0A2.85,2.85,0,0,0,386.5,285.7Z" transform="translate(-1.08 -4.24)" fill="#231f20"/><path d="M396.57,288.65v-3.81a1.6,1.6,0,0,0-.32-1.08,1.36,1.36,0,0,0-1-.35,1.68,1.68,0,0,0-1.35.5,2.49,2.49,0,0,0-.43,1.65v3.09h-.89v-5.89h.72l.15.8h0a1.8,1.8,0,0,1,.77-.67,2.47,2.47,0,0,1,1.1-.24,2.24,2.24,0,0,1,1.6.51,2.2,2.2,0,0,1,.54,1.65v3.84Z" transform="translate(-1.08 -4.24)" fill="#231f20"/><path d="M401.78,288.75a2.71,2.71,0,0,1-2.06-.79,3.1,3.1,0,0,1-.75-2.21,3.4,3.4,0,0,1,.7-2.26,2.33,2.33,0,0,1,1.88-.84,2.23,2.23,0,0,1,1.75.73,2.79,2.79,0,0,1,.65,1.92v.56h-4.06a2.36,2.36,0,0,0,.53,1.58,1.79,1.79,0,0,0,1.4.54,4.85,4.85,0,0,0,1.88-.4v.79a4.06,4.06,0,0,1-.9.29A5,5,0,0,1,401.78,288.75Zm-.24-5.35a1.45,1.45,0,0,0-1.13.46,2.13,2.13,0,0,0-.5,1.28H403a2,2,0,0,0-.37-1.29A1.33,1.33,0,0,0,401.54,283.4Z" transform="translate(-1.08 -4.24)" fill="#231f20"/><path d="M379.65,220.85a3,3,0,0,1,2,.61,2.14,2.14,0,0,1,.71,1.69,2.42,2.42,0,0,1-.78,1.91,3.09,3.09,0,0,1-2.14.69,4,4,0,0,1-2-.42v-.86a3.06,3.06,0,0,0,.93.38,4.67,4.67,0,0,0,1.1.14,2.19,2.19,0,0,0,1.47-.45,1.61,1.61,0,0,0,.53-1.29c0-1.1-.68-1.64-2-1.64a8.28,8.28,0,0,0-1.36.15l-.46-.29.29-3.68h3.91v.83h-3.15l-.2,2.35A6.57,6.57,0,0,1,379.65,220.85Z" transform="translate(-1.08 -4.24)" fill="#231f20"/><path d="M388.66,225a2.22,2.22,0,0,0,.45,0,1.77,1.77,0,0,0,.35-.07v.68a1.43,1.43,0,0,1-.42.12,3.25,3.25,0,0,1-.51,0q-1.71,0-1.71-1.8v-3.5H386V220l.84-.37.38-1.25h.51v1.36h1.71v.69h-1.71v3.47a1.22,1.22,0,0,0,.25.81A.89.89,0,0,0,388.66,225Z" transform="translate(-1.08 -4.24)" fill="#231f20"/><path d="M395.72,222.7a3.18,3.18,0,0,1-.73,2.24,2.54,2.54,0,0,1-2,.81,2.62,2.62,0,0,1-1.4-.37,2.46,2.46,0,0,1-.95-1.06,3.72,3.72,0,0,1-.33-1.62,3.27,3.27,0,0,1,.72-2.25,2.57,2.57,0,0,1,2-.8,2.51,2.51,0,0,1,2,.82A3.22,3.22,0,0,1,395.72,222.7Zm-4.49,0a2.82,2.82,0,0,0,.46,1.72,1.78,1.78,0,0,0,2.65,0,2.8,2.8,0,0,0,.46-1.72,2.77,2.77,0,0,0-.46-1.71,1.83,1.83,0,0,0-2.66,0A2.78,2.78,0,0,0,391.23,222.7Z" transform="translate(-1.08 -4.24)" fill="#231f20"/><path d="M403,225.65h-.87v-5.6c0-.47,0-.91,0-1.32L402,219c-.1.09-.52.44-1.28,1l-.48-.61,2.08-1.61H403Z" transform="translate(-1.08 -4.24)" fill="#231f20"/><path d="M411.23,221.71a5.7,5.7,0,0,1-.65,3,2.38,2.38,0,0,1-3.89,0,5.66,5.66,0,0,1-.66-3,5.82,5.82,0,0,1,.64-3.05,2.37,2.37,0,0,1,3.89.05A5.6,5.6,0,0,1,411.23,221.71Zm-4.3,0a5.69,5.69,0,0,0,.41,2.49,1.44,1.44,0,0,0,2.57,0,7.89,7.89,0,0,0,0-5,1.44,1.44,0,0,0-2.57,0A5.69,5.69,0,0,0,406.93,221.71Z" transform="translate(-1.08 -4.24)" fill="#231f20"/><path d="M419.58,224.86h0a2.12,2.12,0,0,1-1.85.89,2.18,2.18,0,0,1-1.8-.79,3.44,3.44,0,0,1-.64-2.24,3.52,3.52,0,0,1,.64-2.26,2.17,2.17,0,0,1,1.8-.81,2.12,2.12,0,0,1,1.83.87h.07l0-.42,0-.42v-2.39h.89v8.36h-.73Zm-1.78.15a1.61,1.61,0,0,0,1.32-.5,2.45,2.45,0,0,0,.42-1.6v-.19a2.94,2.94,0,0,0-.42-1.79,1.6,1.6,0,0,0-1.33-.53,1.36,1.36,0,0,0-1.2.61,3,3,0,0,0-.42,1.72,2.86,2.86,0,0,0,.42,1.7A1.38,1.38,0,0,0,417.8,225Z" transform="translate(-1.08 -4.24)" fill="#231f20"/><path d="M425.94,225.65l-.18-.84h0a2.53,2.53,0,0,1-.88.75,2.7,2.7,0,0,1-1.09.19,2,2,0,0,1-1.38-.45,1.64,1.64,0,0,1-.49-1.28c0-1.19.95-1.81,2.85-1.87l1,0v-.37a1.48,1.48,0,0,0-.3-1,1.23,1.23,0,0,0-.95-.33,3.92,3.92,0,0,0-1.67.45l-.27-.68a4.36,4.36,0,0,1,2-.51,2.26,2.26,0,0,1,1.56.47,1.94,1.94,0,0,1,.51,1.5v4Zm-2-.63a1.79,1.79,0,0,0,1.31-.46,1.67,1.67,0,0,0,.48-1.28v-.53l-.89,0a3.14,3.14,0,0,0-1.54.33,1,1,0,0,0-.47.91,1,1,0,0,0,.29.74A1.27,1.27,0,0,0,423.92,225Z" transform="translate(-1.08 -4.24)" fill="#231f20"/><path d="M427.5,219.76h1l1.29,3.36a13,13,0,0,1,.52,1.66h.05a9.84,9.84,0,0,1,.29-.94c.15-.44.63-1.8,1.46-4.08H433l-2.53,6.7a3.2,3.2,0,0,1-.88,1.41,1.84,1.84,0,0,1-1.23.42,3.57,3.57,0,0,1-.8-.09v-.72a2.62,2.62,0,0,0,.66.07,1.37,1.37,0,0,0,1.31-1l.33-.84Z" transform="translate(-1.08 -4.24)" fill="#231f20"/><path d="M437.78,224a1.48,1.48,0,0,1-.62,1.27,2.9,2.9,0,0,1-1.71.44,3.7,3.7,0,0,1-1.83-.37v-.82a4.47,4.47,0,0,0,.91.33,3.49,3.49,0,0,0,.94.13,2.1,2.1,0,0,0,1.07-.23.72.72,0,0,0,.38-.67.73.73,0,0,0-.3-.59,4.47,4.47,0,0,0-1.16-.58,6.16,6.16,0,0,1-1.17-.53,1.71,1.71,0,0,1-.52-.52,1.42,1.42,0,0,1-.17-.7,1.32,1.32,0,0,1,.59-1.13,2.69,2.69,0,0,1,1.6-.42,4.63,4.63,0,0,1,1.86.39l-.31.72a4.37,4.37,0,0,0-1.61-.36,1.91,1.91,0,0,0-1,.2.61.61,0,0,0-.32.55.68.68,0,0,0,.12.4,1.07,1.07,0,0,0,.39.31,7.09,7.09,0,0,0,1,.44,3.81,3.81,0,0,1,1.42.77A1.38,1.38,0,0,1,437.78,224Z" transform="translate(-1.08 -4.24)" fill="#231f20"/><rect x="374.52" y="37.61" width="51.47" height="32.8" fill="#00aeef"/><path d="M397.38,66.65H386.9V64.44l3.77-3.8c1.11-1.14,1.84-1.94,2.18-2.38a5.37,5.37,0,0,0,.74-1.22,3.15,3.15,0,0,0,.22-1.17,1.69,1.69,0,0,0-.49-1.34,1.91,1.91,0,0,0-1.33-.44,3.87,3.87,0,0,0-1.69.39,8.75,8.75,0,0,0-1.71,1.14l-1.73-2a11,11,0,0,1,1.84-1.33,6.55,6.55,0,0,1,1.59-.6,8.09,8.09,0,0,1,1.93-.21,5.75,5.75,0,0,1,2.48.51,4,4,0,0,1,1.67,1.44A3.85,3.85,0,0,1,397,55.5a5.19,5.19,0,0,1-.36,1.94,7.19,7.19,0,0,1-1.13,1.86A27,27,0,0,1,392.78,62l-1.93,1.82V64h6.53Z" transform="translate(-1.08 -4.24)" fill="#fff"/><path d="M404.14,57.07a4.85,4.85,0,0,1,3.46,1.22,4.41,4.41,0,0,1,1.28,3.34,4.83,4.83,0,0,1-1.55,3.87,6.51,6.51,0,0,1-4.42,1.35,8.66,8.66,0,0,1-4-.81V63.3a8.57,8.57,0,0,0,1.88.71,8.42,8.42,0,0,0,2,.27c1.94,0,2.9-.8,2.9-2.38s-1-2.27-3-2.27a7.75,7.75,0,0,0-1.2.11,9.1,9.1,0,0,0-1.07.23l-1.26-.68.57-7.64h8.13v2.69h-5.35l-.28,2.94.36-.07A7.39,7.39,0,0,1,404.14,57.07Z" transform="translate(-1.08 -4.24)" fill="#fff"/><path d="M410.35,60.28q0-4.45,1.89-6.63a7.06,7.06,0,0,1,5.63-2.17,10.4,10.4,0,0,1,2,.15v2.54a8,8,0,0,0-1.8-.21,6.29,6.29,0,0,0-2.66.49,3.33,3.33,0,0,0-1.55,1.46,6.71,6.71,0,0,0-.6,2.74h.13a3.49,3.49,0,0,1,3.25-1.75,4,4,0,0,1,3.15,1.27,5,5,0,0,1,1.14,3.48,5.2,5.2,0,0,1-1.36,3.8,5,5,0,0,1-3.75,1.4,5.33,5.33,0,0,1-2.9-.77,5,5,0,0,1-1.9-2.24A8.53,8.53,0,0,1,410.35,60.28Zm5.42,4a1.88,1.88,0,0,0,1.56-.68,3.1,3.1,0,0,0,.54-2,2.65,2.65,0,0,0-.51-1.72,1.85,1.85,0,0,0-1.53-.63,2.31,2.31,0,0,0-1.64.62,1.91,1.91,0,0,0-.69,1.46,3.35,3.35,0,0,0,.64,2.06A2,2,0,0,0,415.77,64.32Z" transform="translate(-1.08 -4.24)" fill="#fff"/><path d="M381.22,35.65l-2.67-7h0c.05.55.08,1.2.08,2v5h-.85V27.79h1.38l2.48,6.48h0l2.51-6.48h1.36v7.86h-.91V30.59c0-.58,0-1.21.07-1.89h0l-2.69,7Z" transform="translate(-1.08 -4.24)" fill="#231f20"/><path d="M392.62,32.7a3.23,3.23,0,0,1-.72,2.24,2.58,2.58,0,0,1-2,.81,2.64,2.64,0,0,1-1.4-.37,2.46,2.46,0,0,1-.95-1.06,3.72,3.72,0,0,1-.33-1.62,3.27,3.27,0,0,1,.72-2.25,2.57,2.57,0,0,1,2-.8,2.51,2.51,0,0,1,2,.82A3.22,3.22,0,0,1,392.62,32.7Zm-4.48,0a2.82,2.82,0,0,0,.45,1.72,1.78,1.78,0,0,0,2.65,0,2.73,2.73,0,0,0,.46-1.72,2.7,2.7,0,0,0-.46-1.71,1.83,1.83,0,0,0-2.66,0A2.78,2.78,0,0,0,388.14,32.7Z" transform="translate(-1.08 -4.24)" fill="#231f20"/><path d="M396.87,29.65a3,3,0,0,1,.7.07l-.12.82a3.28,3.28,0,0,0-.65-.08,1.6,1.6,0,0,0-1.22.58,2.12,2.12,0,0,0-.5,1.45v3.16h-.9V29.76h.74l.1,1.09h0a2.76,2.76,0,0,1,.79-.89A1.85,1.85,0,0,1,396.87,29.65Z" transform="translate(-1.08 -4.24)" fill="#231f20"/><path d="M401.16,35.75A2.7,2.7,0,0,1,399.1,35a3.1,3.1,0,0,1-.75-2.21,3.4,3.4,0,0,1,.7-2.26,2.31,2.31,0,0,1,1.88-.84,2.2,2.2,0,0,1,1.75.73,2.77,2.77,0,0,1,.65,1.92v.56h-4.06a2.37,2.37,0,0,0,.52,1.58,1.82,1.82,0,0,0,1.4.53,4.8,4.8,0,0,0,1.88-.39v.79a3.84,3.84,0,0,1-.89.29A5,5,0,0,1,401.16,35.75Zm-.24-5.35a1.45,1.45,0,0,0-1.13.46,2.13,2.13,0,0,0-.5,1.28h3.08a2,2,0,0,0-.38-1.29A1.32,1.32,0,0,0,400.92,30.4Z" transform="translate(-1.08 -4.24)" fill="#231f20"/><path d="M409.6,35a2.32,2.32,0,0,0,.46,0,1.94,1.94,0,0,0,.35-.07v.68a1.51,1.51,0,0,1-.43.12,3.13,3.13,0,0,1-.5,0q-1.71,0-1.71-1.8v-3.5h-.85V30l.85-.37.37-1.25h.52v1.36h1.71v.69h-1.71v3.47a1.17,1.17,0,0,0,.25.81A.88.88,0,0,0,409.6,35Z" transform="translate(-1.08 -4.24)" fill="#231f20"/><path d="M415.61,35.65V31.84a1.6,1.6,0,0,0-.32-1.08,1.36,1.36,0,0,0-1-.35,1.72,1.72,0,0,0-1.36.5,2.61,2.61,0,0,0-.42,1.66v3.08h-.89V27.29h.89v2.53a5.26,5.26,0,0,1-.05.76h.06a1.69,1.69,0,0,1,.75-.67,2.33,2.33,0,0,1,1.11-.25,2.24,2.24,0,0,1,1.62.52,2.15,2.15,0,0,1,.54,1.63v3.84Z" transform="translate(-1.08 -4.24)" fill="#231f20"/><path d="M422,35.65l-.18-.84h0a2.53,2.53,0,0,1-.88.75,2.7,2.7,0,0,1-1.09.19,2,2,0,0,1-1.38-.45A1.64,1.64,0,0,1,417.9,34c0-1.19,1-1.81,2.85-1.87l1,0v-.37a1.48,1.48,0,0,0-.3-1,1.23,1.23,0,0,0-.95-.33,3.92,3.92,0,0,0-1.67.45l-.27-.68a4.36,4.36,0,0,1,2-.51,2.26,2.26,0,0,1,1.56.47,1.94,1.94,0,0,1,.51,1.5v4Zm-2-.63a1.79,1.79,0,0,0,1.31-.46,1.67,1.67,0,0,0,.48-1.28v-.53l-.9,0a3.13,3.13,0,0,0-1.53.33,1,1,0,0,0-.47.91,1,1,0,0,0,.29.74A1.27,1.27,0,0,0,419.94,35Z" transform="translate(-1.08 -4.24)" fill="#231f20"/><path d="M428.48,35.65V31.84a1.6,1.6,0,0,0-.32-1.08,1.36,1.36,0,0,0-1-.35,1.68,1.68,0,0,0-1.35.5,2.49,2.49,0,0,0-.43,1.65v3.09h-.89V29.76h.72l.15.8h0a1.8,1.8,0,0,1,.77-.67,2.47,2.47,0,0,1,1.1-.24,2.24,2.24,0,0,1,1.6.51,2.2,2.2,0,0,1,.54,1.65v3.84Z" transform="translate(-1.08 -4.24)" fill="#231f20"/><path d="M437,35.65h-.87v-5.6c0-.47,0-.91,0-1.32l-.25.23c-.09.09-.52.44-1.28,1.05l-.47-.61,2.08-1.61H437Z" transform="translate(-1.08 -4.24)" fill="#231f20"/><path d="M445.15,31.71a5.71,5.71,0,0,1-.64,3,2.17,2.17,0,0,1-2,1,2.15,2.15,0,0,1-1.92-1,5.66,5.66,0,0,1-.66-3,5.73,5.73,0,0,1,.64-3.05,2.14,2.14,0,0,1,1.94-1,2.18,2.18,0,0,1,1.95,1A5.61,5.61,0,0,1,445.15,31.71Zm-4.29,0a5.72,5.72,0,0,0,.4,2.49,1.34,1.34,0,0,0,1.28.79,1.36,1.36,0,0,0,1.3-.8,5.85,5.85,0,0,0,.4-2.48,5.85,5.85,0,0,0-.4-2.48,1.37,1.37,0,0,0-1.3-.79,1.35,1.35,0,0,0-1.28.78A5.72,5.72,0,0,0,440.86,31.71Z" transform="translate(-1.08 -4.24)" fill="#231f20"/><path d="M453.51,34.86h-.05a2.11,2.11,0,0,1-1.85.89,2.18,2.18,0,0,1-1.8-.79,3.49,3.49,0,0,1-.64-2.24,3.52,3.52,0,0,1,.65-2.26,2.38,2.38,0,0,1,3.63.06h.07l0-.42,0-.42V27.29h.89v8.36h-.72Zm-1.79.15a1.65,1.65,0,0,0,1.33-.5,2.54,2.54,0,0,0,.41-1.6v-.19a2.94,2.94,0,0,0-.42-1.79,1.6,1.6,0,0,0-1.33-.53,1.36,1.36,0,0,0-1.2.61,3.08,3.08,0,0,0-.41,1.72,2.86,2.86,0,0,0,.41,1.7A1.39,1.39,0,0,0,451.72,35Z" transform="translate(-1.08 -4.24)" fill="#231f20"/><path d="M459.86,35.65l-.18-.84h0a2.45,2.45,0,0,1-.88.75,2.66,2.66,0,0,1-1.09.19,2,2,0,0,1-1.37-.45,1.65,1.65,0,0,1-.5-1.28c0-1.19.95-1.81,2.85-1.87l1,0v-.37a1.48,1.48,0,0,0-.3-1,1.2,1.2,0,0,0-1-.33,3.84,3.84,0,0,0-1.66.45l-.28-.68a4.45,4.45,0,0,1,2-.51,2.22,2.22,0,0,1,1.56.47,1.94,1.94,0,0,1,.51,1.5v4Zm-2-.63a1.81,1.81,0,0,0,1.31-.46,1.71,1.71,0,0,0,.47-1.28v-.53l-.89,0a3.1,3.1,0,0,0-1.53.33,1,1,0,0,0-.47.91.92.92,0,0,0,.29.74A1.25,1.25,0,0,0,457.85,35Z" transform="translate(-1.08 -4.24)" fill="#231f20"/><path d="M461.42,29.76h1l1.29,3.36a13.45,13.45,0,0,1,.53,1.66h0c.05-.19.14-.5.29-.94s.64-1.8,1.46-4.08h1l-2.53,6.7a3.35,3.35,0,0,1-.88,1.41,1.87,1.87,0,0,1-1.23.42,3.59,3.59,0,0,1-.81-.09v-.72a2.73,2.73,0,0,0,.66.07,1.37,1.37,0,0,0,1.31-1l.33-.84Z" transform="translate(-1.08 -4.24)" fill="#231f20"/><path d="M471.7,34a1.47,1.47,0,0,1-.61,1.27,2.93,2.93,0,0,1-1.72.44,3.73,3.73,0,0,1-1.83-.37v-.82a4.7,4.7,0,0,0,.91.33,3.54,3.54,0,0,0,.94.13,2.07,2.07,0,0,0,1.07-.23.72.72,0,0,0,.38-.67.73.73,0,0,0-.3-.59,4.31,4.31,0,0,0-1.16-.58,6.16,6.16,0,0,1-1.17-.53,1.67,1.67,0,0,1-.51-.52,1.43,1.43,0,0,1,.41-1.83,2.72,2.72,0,0,1,1.61-.42,4.7,4.7,0,0,1,1.86.39l-.32.72a4.33,4.33,0,0,0-1.61-.36,1.75,1.75,0,0,0-.95.2.6.6,0,0,0-.32.55.68.68,0,0,0,.12.4,1.24,1.24,0,0,0,.38.31,8.84,8.84,0,0,0,1,.44,3.67,3.67,0,0,1,1.41.77A1.34,1.34,0,0,1,471.7,34Z" transform="translate(-1.08 -4.24)" fill="#231f20"/><rect x="374.52" y="100.61" width="153.6" height="32.8" fill="#1f76bd"/><path d="M497.38,129.65H486.9v-2.21l3.77-3.8c1.11-1.14,1.84-1.94,2.18-2.38a5.37,5.37,0,0,0,.74-1.22,3.15,3.15,0,0,0,.22-1.17,1.69,1.69,0,0,0-.49-1.34,1.91,1.91,0,0,0-1.33-.44,3.87,3.87,0,0,0-1.69.39,8.75,8.75,0,0,0-1.71,1.14l-1.73-2a11,11,0,0,1,1.84-1.33,6.55,6.55,0,0,1,1.59-.6,8.09,8.09,0,0,1,1.93-.21,5.75,5.75,0,0,1,2.48.51,4,4,0,0,1,1.67,1.44,3.85,3.85,0,0,1,.59,2.11,5.19,5.19,0,0,1-.36,1.94,7.19,7.19,0,0,1-1.13,1.86,27,27,0,0,1-2.69,2.72l-1.93,1.82V127h6.53Z" transform="translate(-1.08 -4.24)" fill="#fff"/><path d="M503.85,114.46a5.71,5.71,0,0,1,3.47,1,3.11,3.11,0,0,1,1.32,2.64,3.42,3.42,0,0,1-.64,2,5.47,5.47,0,0,1-2.05,1.6,7.33,7.33,0,0,1,2.42,1.88,3.67,3.67,0,0,1-.72,5.12,6,6,0,0,1-3.8,1.12,6.42,6.42,0,0,1-3.87-1,3.5,3.5,0,0,1-1.4-3,3.94,3.94,0,0,1,.68-2.27,5.58,5.58,0,0,1,2.19-1.76,5.67,5.67,0,0,1-1.85-1.73,3.87,3.87,0,0,1-.56-2,3.12,3.12,0,0,1,1.33-2.61A5.7,5.7,0,0,1,503.85,114.46Zm-2.34,11.2a1.66,1.66,0,0,0,.62,1.37,2.61,2.61,0,0,0,1.68.49,2.68,2.68,0,0,0,1.76-.5,1.7,1.7,0,0,0,.59-1.34,1.86,1.86,0,0,0-.58-1.29,7.8,7.8,0,0,0-1.89-1.28C502.24,123.78,501.51,124.63,501.51,125.66Zm2.32-8.88a2,2,0,0,0-1.31.41,1.39,1.39,0,0,0-.5,1.12,1.68,1.68,0,0,0,.4,1.1,4.35,4.35,0,0,0,1.43,1,4,4,0,0,0,1.4-1,1.72,1.72,0,0,0,.4-1.13,1.35,1.35,0,0,0-.51-1.12A2,2,0,0,0,503.83,116.78Z" transform="translate(-1.08 -4.24)" fill="#fff"/><path d="M515.63,114.46a5.71,5.71,0,0,1,3.47,1,3.13,3.13,0,0,1,1.31,2.64,3.48,3.48,0,0,1-.63,2,5.55,5.55,0,0,1-2,1.6,7.28,7.28,0,0,1,2.41,1.88,3.5,3.5,0,0,1,.74,2.15,3.59,3.59,0,0,1-1.45,3,6,6,0,0,1-3.8,1.12,6.4,6.4,0,0,1-3.87-1,3.49,3.49,0,0,1-1.41-3,3.88,3.88,0,0,1,.69-2.27,5.58,5.58,0,0,1,2.19-1.76,5.67,5.67,0,0,1-1.85-1.73,3.78,3.78,0,0,1-.56-2,3.12,3.12,0,0,1,1.33-2.61A5.7,5.7,0,0,1,515.63,114.46Zm-2.34,11.2a1.65,1.65,0,0,0,.61,1.37,2.61,2.61,0,0,0,1.68.49,2.69,2.69,0,0,0,1.77-.5,1.69,1.69,0,0,0,.58-1.34,1.82,1.82,0,0,0-.58-1.29,7.51,7.51,0,0,0-1.88-1.28C514,123.78,513.29,124.63,513.29,125.66Zm2.31-8.88a2,2,0,0,0-1.3.41,1.39,1.39,0,0,0-.5,1.12,1.72,1.72,0,0,0,.39,1.1,4.53,4.53,0,0,0,1.44,1,4.06,4.06,0,0,0,1.4-1,1.72,1.72,0,0,0,.4-1.13,1.35,1.35,0,0,0-.51-1.12A2,2,0,0,0,515.6,116.78Z" transform="translate(-1.08 -4.24)" fill="#fff"/><path d="M380.5,98.65h-.87v-5.6c0-.47,0-.91.05-1.32l-.26.23c-.09.09-.52.44-1.27,1.05l-.48-.61,2.08-1.61h.75Z" transform="translate(-1.08 -4.24)" fill="#231f20"/><path d="M388.66,98a2.22,2.22,0,0,0,.45,0,1.77,1.77,0,0,0,.35-.07v.68a1.43,1.43,0,0,1-.42.12,3.25,3.25,0,0,1-.51,0q-1.71,0-1.71-1.8v-3.5H386V93l.84-.37.38-1.25h.51v1.36h1.71v.69h-1.71v3.47a1.22,1.22,0,0,0,.25.81A.89.89,0,0,0,388.66,98Z" transform="translate(-1.08 -4.24)" fill="#231f20"/><path d="M395.72,95.7a3.18,3.18,0,0,1-.73,2.24,2.54,2.54,0,0,1-2,.81,2.62,2.62,0,0,1-1.4-.37,2.46,2.46,0,0,1-.95-1.06,3.72,3.72,0,0,1-.33-1.62,3.27,3.27,0,0,1,.72-2.25,2.57,2.57,0,0,1,2-.8,2.51,2.51,0,0,1,2,.82A3.22,3.22,0,0,1,395.72,95.7Zm-4.49,0a2.82,2.82,0,0,0,.46,1.72,1.78,1.78,0,0,0,2.65,0,2.8,2.8,0,0,0,.46-1.72,2.77,2.77,0,0,0-.46-1.71,1.83,1.83,0,0,0-2.66,0A2.78,2.78,0,0,0,391.23,95.7Z" transform="translate(-1.08 -4.24)" fill="#231f20"/><path d="M404.89,98.65h-5.16v-.77l2.07-2.08a16.29,16.29,0,0,0,1.25-1.36,3.63,3.63,0,0,0,.45-.8,2.31,2.31,0,0,0,.15-.83,1.35,1.35,0,0,0-.38-1,1.5,1.5,0,0,0-1.06-.37,2.84,2.84,0,0,0-.93.16,3.76,3.76,0,0,0-1,.59l-.48-.61a3.66,3.66,0,0,1,2.37-.9,2.47,2.47,0,0,1,1.73.57,1.94,1.94,0,0,1,.63,1.52,3,3,0,0,1-.42,1.48,9.36,9.36,0,0,1-1.57,1.84l-1.72,1.69v0h4Z" transform="translate(-1.08 -4.24)" fill="#231f20"/><path d="M413.29,97.86h0a2.12,2.12,0,0,1-1.85.89,2.18,2.18,0,0,1-1.8-.79,3.44,3.44,0,0,1-.64-2.24,3.52,3.52,0,0,1,.64-2.26,2.17,2.17,0,0,1,1.8-.81,2.12,2.12,0,0,1,1.83.87h.07l0-.42,0-.42V90.29h.89v8.36h-.73Zm-1.78.15a1.61,1.61,0,0,0,1.32-.5,2.47,2.47,0,0,0,.42-1.6v-.19a2.94,2.94,0,0,0-.42-1.79,1.6,1.6,0,0,0-1.33-.53,1.36,1.36,0,0,0-1.2.61,3,3,0,0,0-.42,1.72,2.86,2.86,0,0,0,.42,1.7A1.38,1.38,0,0,0,411.51,98Z" transform="translate(-1.08 -4.24)" fill="#231f20"/><path d="M419.65,98.65l-.18-.84h0a2.53,2.53,0,0,1-.88.75,2.7,2.7,0,0,1-1.09.19,2,2,0,0,1-1.38-.45,1.64,1.64,0,0,1-.49-1.28c0-1.19,1-1.81,2.85-1.87l1,0v-.37a1.48,1.48,0,0,0-.3-1,1.23,1.23,0,0,0-.95-.33,3.92,3.92,0,0,0-1.67.45l-.27-.68a4.36,4.36,0,0,1,2-.51,2.26,2.26,0,0,1,1.56.47,1.94,1.94,0,0,1,.51,1.5v4Zm-2-.63a1.79,1.79,0,0,0,1.31-.46,1.67,1.67,0,0,0,.48-1.28v-.53l-.89,0a3.17,3.17,0,0,0-1.54.33,1,1,0,0,0-.47.91,1,1,0,0,0,.29.74A1.27,1.27,0,0,0,417.63,98Z" transform="translate(-1.08 -4.24)" fill="#231f20"/><path d="M421.21,92.76h1l1.29,3.36a13,13,0,0,1,.52,1.66h0a9.84,9.84,0,0,1,.29-.94c.15-.44.63-1.8,1.46-4.08h1l-2.53,6.7a3.26,3.26,0,0,1-.88,1.41,1.84,1.84,0,0,1-1.23.42,3.57,3.57,0,0,1-.8-.09v-.72a2.62,2.62,0,0,0,.66.07,1.37,1.37,0,0,0,1.31-1l.32-.84Z" transform="translate(-1.08 -4.24)" fill="#231f20"/><path d="M431.49,97a1.48,1.48,0,0,1-.62,1.27,2.9,2.9,0,0,1-1.71.44,3.7,3.7,0,0,1-1.83-.37v-.82a4.47,4.47,0,0,0,.91.33,3.49,3.49,0,0,0,.94.13,2.1,2.1,0,0,0,1.07-.23.72.72,0,0,0,.38-.67.73.73,0,0,0-.3-.59,4.47,4.47,0,0,0-1.16-.58,6.16,6.16,0,0,1-1.17-.53,1.71,1.71,0,0,1-.52-.52,1.42,1.42,0,0,1-.17-.7,1.32,1.32,0,0,1,.59-1.13,2.69,2.69,0,0,1,1.6-.42,4.63,4.63,0,0,1,1.86.39l-.31.72a4.37,4.37,0,0,0-1.61-.36,1.81,1.81,0,0,0-1,.2.61.61,0,0,0-.32.55.68.68,0,0,0,.12.4,1.18,1.18,0,0,0,.39.31,8.47,8.47,0,0,0,1,.44,3.81,3.81,0,0,1,1.42.77A1.38,1.38,0,0,1,431.49,97Z" transform="translate(-1.08 -4.24)" fill="#231f20"/><rect x="374.52" y="163.61" width="127.73" height="32.8" fill="#595959"/><path d="M470.38,192.65H459.9v-2.21l3.77-3.8c1.11-1.14,1.84-1.94,2.18-2.38a5.37,5.37,0,0,0,.74-1.22,3.15,3.15,0,0,0,.22-1.17,1.69,1.69,0,0,0-.49-1.34,1.91,1.91,0,0,0-1.33-.44,3.87,3.87,0,0,0-1.69.39,8.75,8.75,0,0,0-1.71,1.14l-1.73-2a11,11,0,0,1,1.84-1.33,6.55,6.55,0,0,1,1.59-.6,8.09,8.09,0,0,1,1.93-.21,5.75,5.75,0,0,1,2.48.51,4,4,0,0,1,1.67,1.44,3.85,3.85,0,0,1,.59,2.11,5.19,5.19,0,0,1-.36,1.94,7.19,7.19,0,0,1-1.13,1.86,27,27,0,0,1-2.69,2.72l-1.93,1.82V190h6.53Z" transform="translate(-1.08 -4.24)" fill="#fff"/><path d="M476.85,177.46a5.71,5.71,0,0,1,3.47,1,3.11,3.11,0,0,1,1.32,2.64,3.42,3.42,0,0,1-.64,2,5.47,5.47,0,0,1-2.05,1.6,7.33,7.33,0,0,1,2.42,1.88,3.67,3.67,0,0,1-.72,5.12,6,6,0,0,1-3.8,1.12,6.42,6.42,0,0,1-3.87-1,3.5,3.5,0,0,1-1.4-3,3.94,3.94,0,0,1,.68-2.27,5.58,5.58,0,0,1,2.19-1.76,5.67,5.67,0,0,1-1.85-1.73,3.87,3.87,0,0,1-.56-2,3.12,3.12,0,0,1,1.33-2.61A5.7,5.7,0,0,1,476.85,177.46Zm-2.34,11.2a1.66,1.66,0,0,0,.62,1.37,2.61,2.61,0,0,0,1.68.49,2.68,2.68,0,0,0,1.76-.5,1.7,1.7,0,0,0,.59-1.34,1.86,1.86,0,0,0-.58-1.29,7.8,7.8,0,0,0-1.89-1.28C475.24,186.78,474.51,187.63,474.51,188.66Zm2.32-8.88a2,2,0,0,0-1.31.41,1.39,1.39,0,0,0-.5,1.12,1.68,1.68,0,0,0,.4,1.1,4.35,4.35,0,0,0,1.43,1,4,4,0,0,0,1.4-1,1.72,1.72,0,0,0,.4-1.13,1.35,1.35,0,0,0-.51-1.12A2,2,0,0,0,476.83,179.78Z" transform="translate(-1.08 -4.24)" fill="#fff"/><path d="M493.85,185.15c0,2.62-.42,4.56-1.28,5.81a4.47,4.47,0,0,1-4,1.89,4.42,4.42,0,0,1-3.91-1.95,10.28,10.28,0,0,1-1.31-5.75c0-2.64.42-4.59,1.28-5.85a5,5,0,0,1,7.87.09A10.35,10.35,0,0,1,493.85,185.15Zm-7.33,0a11.54,11.54,0,0,0,.48,3.95,1.66,1.66,0,0,0,3.2,0,15.85,15.85,0,0,0,0-7.9,1.66,1.66,0,0,0-1.6-1.21,1.64,1.64,0,0,0-1.59,1.21A11.35,11.35,0,0,0,486.52,185.15Z" transform="translate(-1.08 -4.24)" fill="#fff"/><path d="M382.07,155.64a1.76,1.76,0,0,1-.43,1.23,2.09,2.09,0,0,1-1.19.64v0a2.25,2.25,0,0,1,1.4.6,1.77,1.77,0,0,1,.46,1.27,2.06,2.06,0,0,1-.78,1.73,3.56,3.56,0,0,1-2.21.6,6.79,6.79,0,0,1-1.15-.09,3.67,3.67,0,0,1-1-.33v-.85a4.4,4.4,0,0,0,1.09.38,4.72,4.72,0,0,0,1.09.14c1.36,0,2-.54,2-1.6s-.74-1.43-2.24-1.43h-.77v-.77h.78a2.39,2.39,0,0,0,1.46-.4,1.35,1.35,0,0,0,.53-1.13,1.12,1.12,0,0,0-.39-.9,1.63,1.63,0,0,0-1.07-.33,3.46,3.46,0,0,0-1,.14,4.77,4.77,0,0,0-1,.52l-.45-.6a3.44,3.44,0,0,1,1.12-.6,3.89,3.89,0,0,1,1.32-.22,2.7,2.7,0,0,1,1.78.52A1.78,1.78,0,0,1,382.07,155.64Z" transform="translate(-1.08 -4.24)" fill="#231f20"/><path d="M388.66,161a2.22,2.22,0,0,0,.45,0,1.77,1.77,0,0,0,.35-.07v.68a1.43,1.43,0,0,1-.42.12,3.25,3.25,0,0,1-.51,0q-1.71,0-1.71-1.8v-3.5H386V156l.84-.37.38-1.25h.51v1.36h1.71v.69h-1.71v3.47a1.22,1.22,0,0,0,.25.81A.89.89,0,0,0,388.66,161Z" transform="translate(-1.08 -4.24)" fill="#231f20"/><path d="M395.72,158.7a3.18,3.18,0,0,1-.73,2.24,2.54,2.54,0,0,1-2,.81,2.62,2.62,0,0,1-1.4-.37,2.46,2.46,0,0,1-.95-1.06,3.72,3.72,0,0,1-.33-1.62,3.27,3.27,0,0,1,.72-2.25,2.57,2.57,0,0,1,2-.8,2.51,2.51,0,0,1,2,.82A3.22,3.22,0,0,1,395.72,158.7Zm-4.49,0a2.82,2.82,0,0,0,.46,1.72,1.78,1.78,0,0,0,2.65,0,2.8,2.8,0,0,0,.46-1.72,2.77,2.77,0,0,0-.46-1.71,1.83,1.83,0,0,0-2.66,0A2.78,2.78,0,0,0,391.23,158.7Z" transform="translate(-1.08 -4.24)" fill="#231f20"/><path d="M405.26,159.84H404.1v1.81h-.86v-1.81h-3.81v-.78l3.72-5.31h1V159h1.16Zm-2-.81v-2.61c0-.51,0-1.09.06-1.73h0c-.18.34-.34.62-.49.85L400.32,159Z" transform="translate(-1.08 -4.24)" fill="#231f20"/><path d="M413.29,160.86h0a2.12,2.12,0,0,1-1.85.89,2.18,2.18,0,0,1-1.8-.79,3.44,3.44,0,0,1-.64-2.24,3.52,3.52,0,0,1,.64-2.26,2.17,2.17,0,0,1,1.8-.81,2.12,2.12,0,0,1,1.83.87h.07l0-.42,0-.42v-2.39h.89v8.36h-.73Zm-1.78.15a1.61,1.61,0,0,0,1.32-.5,2.45,2.45,0,0,0,.42-1.6v-.19a2.94,2.94,0,0,0-.42-1.79,1.6,1.6,0,0,0-1.33-.53,1.36,1.36,0,0,0-1.2.61,3,3,0,0,0-.42,1.72,2.86,2.86,0,0,0,.42,1.7A1.38,1.38,0,0,0,411.51,161Z" transform="translate(-1.08 -4.24)" fill="#231f20"/><path d="M419.65,161.65l-.18-.84h0a2.53,2.53,0,0,1-.88.75,2.7,2.7,0,0,1-1.09.19,2,2,0,0,1-1.38-.45,1.64,1.64,0,0,1-.49-1.28c0-1.19,1-1.81,2.85-1.87l1,0v-.37a1.48,1.48,0,0,0-.3-1,1.23,1.23,0,0,0-.95-.33,3.92,3.92,0,0,0-1.67.45l-.27-.68a4.36,4.36,0,0,1,2-.51,2.26,2.26,0,0,1,1.56.47,1.94,1.94,0,0,1,.51,1.5v4Zm-2-.63a1.79,1.79,0,0,0,1.31-.46,1.67,1.67,0,0,0,.48-1.28v-.53l-.89,0a3.17,3.17,0,0,0-1.54.33,1,1,0,0,0-.47.91,1,1,0,0,0,.29.74A1.27,1.27,0,0,0,417.63,161Z" transform="translate(-1.08 -4.24)" fill="#231f20"/><path d="M421.21,155.76h1l1.29,3.36a13,13,0,0,1,.52,1.66h0a9.84,9.84,0,0,1,.29-.94c.15-.44.63-1.8,1.46-4.08h1l-2.53,6.7a3.2,3.2,0,0,1-.88,1.41,1.84,1.84,0,0,1-1.23.42,3.57,3.57,0,0,1-.8-.09v-.72a2.62,2.62,0,0,0,.66.07,1.37,1.37,0,0,0,1.31-1l.32-.84Z" transform="translate(-1.08 -4.24)" fill="#231f20"/><path d="M431.49,160a1.48,1.48,0,0,1-.62,1.27,2.9,2.9,0,0,1-1.71.44,3.7,3.7,0,0,1-1.83-.37v-.82a4.47,4.47,0,0,0,.91.33,3.49,3.49,0,0,0,.94.13,2.1,2.1,0,0,0,1.07-.23.72.72,0,0,0,.38-.67.73.73,0,0,0-.3-.59,4.47,4.47,0,0,0-1.16-.58,6.16,6.16,0,0,1-1.17-.53,1.71,1.71,0,0,1-.52-.52,1.42,1.42,0,0,1-.17-.7,1.32,1.32,0,0,1,.59-1.13,2.69,2.69,0,0,1,1.6-.42,4.63,4.63,0,0,1,1.86.39l-.31.72a4.37,4.37,0,0,0-1.61-.36,1.91,1.91,0,0,0-1,.2.61.61,0,0,0-.32.55.68.68,0,0,0,.12.4,1.07,1.07,0,0,0,.39.31,7.09,7.09,0,0,0,1,.44,3.81,3.81,0,0,1,1.42.77A1.38,1.38,0,0,1,431.49,160Z" transform="translate(-1.08 -4.24)" fill="#231f20"/><path d="M383.07,14.39l-1-2.78h-3.83l-1,2.78h-1.73l3.74-10h1.78l3.74,10Zm-1.42-4.19-.94-2.72c-.07-.18-.16-.47-.28-.86s-.21-.68-.25-.86a18.82,18.82,0,0,1-.54,1.84l-.91,2.6Z" transform="translate(-1.08 -4.24)" fill="#231f20"/><path d="M391.82,4.39h1.7l-3.5,10H388.3l-3.49-10h1.68l2.09,6.22c.11.29.22.67.35,1.14s.2.82.24,1a12,12,0,0,1,.27-1.2c.12-.46.22-.79.3-1Z" transform="translate(-1.08 -4.24)" fill="#231f20"/><path d="M400.49,14.39h-5.65v-10h5.65V5.77h-4V8.49h3.77V9.86h-3.77V13h4Z" transform="translate(-1.08 -4.24)" fill="#231f20"/><path d="M404.29,10.39v4h-1.64v-10h2.83a4.58,4.58,0,0,1,2.86.73,2.59,2.59,0,0,1,.93,2.18A2.73,2.73,0,0,1,407.33,10l2.82,4.43h-1.86l-2.39-4Zm0-1.35h1.13a2.65,2.65,0,0,0,1.66-.42,1.55,1.55,0,0,0,.51-1.26A1.36,1.36,0,0,0,407,6.14a3,3,0,0,0-1.66-.37h-1.08Z" transform="translate(-1.08 -4.24)" fill="#231f20"/><path d="M417.8,14.39l-1-2.78H413l-1,2.78h-1.72l3.74-10h1.78l3.74,10Zm-1.43-4.19-.93-2.72c-.07-.18-.17-.47-.29-.86s-.2-.68-.25-.86a14.54,14.54,0,0,1-.54,1.84l-.9,2.6Z" transform="translate(-1.08 -4.24)" fill="#231f20"/><path d="M424.94,9h3.68v5a10.09,10.09,0,0,1-1.73.42,12.54,12.54,0,0,1-1.8.12,4.51,4.51,0,0,1-3.5-1.34,5.4,5.4,0,0,1-1.23-3.79,5.08,5.08,0,0,1,1.39-3.78,5.22,5.22,0,0,1,3.82-1.36,7.44,7.44,0,0,1,3,.6L428,6.21a5.89,5.89,0,0,0-2.44-.56,3.29,3.29,0,0,0-2.53,1,3.87,3.87,0,0,0-.93,2.74,4.1,4.1,0,0,0,.84,2.79,3.05,3.05,0,0,0,2.41,1,7.54,7.54,0,0,0,1.7-.2V10.37h-2.08Z" transform="translate(-1.08 -4.24)" fill="#231f20"/><path d="M436.67,14.39H431v-10h5.65V5.77h-4V8.49h3.76V9.86h-3.76V13h4Z" transform="translate(-1.08 -4.24)" fill="#231f20"/><path d="M444.11,10.39v4h-1.64v-10h2.82a4.61,4.61,0,0,1,2.87.73,2.59,2.59,0,0,1,.93,2.18A2.73,2.73,0,0,1,447.15,10L450,14.39h-1.86l-2.39-4Zm0-1.35h1.13a2.59,2.59,0,0,0,1.65-.42,1.53,1.53,0,0,0,.52-1.26,1.36,1.36,0,0,0-.56-1.22,3.07,3.07,0,0,0-1.66-.37h-1.08Z" transform="translate(-1.08 -4.24)" fill="#231f20"/><path d="M457.07,14.39h-5.65v-10h5.65V5.77h-4V8.49h3.77V9.86h-3.77V13h4Z" transform="translate(-1.08 -4.24)" fill="#231f20"/><path d="M465.43,14.39l-1-2.78h-3.83l-1,2.78h-1.73l3.74-10h1.78l3.74,10ZM464,10.2l-.93-2.72c-.07-.18-.16-.47-.28-.86s-.21-.68-.25-.86A18.82,18.82,0,0,1,462,7.6l-.91,2.6Z" transform="translate(-1.08 -4.24)" fill="#231f20"/><path d="M476.62,9.29a5,5,0,0,1-1.38,3.79,5.5,5.5,0,0,1-3.95,1.31h-2.8v-10h3.09a5.09,5.09,0,0,1,3.71,1.29A4.8,4.8,0,0,1,476.62,9.29Zm-1.73.06c0-2.39-1.11-3.59-3.35-3.59h-1.42V13h1.17Q474.89,13,474.89,9.35Z" transform="translate(-1.08 -4.24)" fill="#231f20"/><path d="M478.76,14.39v-10h1.64v10Z" transform="translate(-1.08 -4.24)" fill="#231f20"/><path d="M491.36,14.39h-2l-4.92-8h-.05l0,.45c.07.84.1,1.62.1,2.32v5.2H483v-10h2l4.9,7.93h0c0-.11,0-.49,0-1.15s0-1.17,0-1.54V4.39h1.49Z" transform="translate(-1.08 -4.24)" fill="#231f20"/><path d="M498.09,9h3.68v5a10,10,0,0,1-1.74.42,12.5,12.5,0,0,1-1.79.12,4.49,4.49,0,0,1-3.5-1.34,5.4,5.4,0,0,1-1.23-3.79,5,5,0,0,1,1.39-3.78,5.2,5.2,0,0,1,3.82-1.36,7.42,7.42,0,0,1,3,.6l-.57,1.36a5.81,5.81,0,0,0-2.43-.56,3.28,3.28,0,0,0-2.53,1,3.87,3.87,0,0,0-.93,2.74,4.15,4.15,0,0,0,.83,2.79,3.07,3.07,0,0,0,2.41,1,7.48,7.48,0,0,0,1.7-.2V10.37h-2.07Z" transform="translate(-1.08 -4.24)" fill="#231f20"/><path d="M513.57,11.67a2.51,2.51,0,0,1-1,2.09,4.17,4.17,0,0,1-2.66.76,6.34,6.34,0,0,1-2.77-.52V12.45a7.53,7.53,0,0,0,1.45.51,6.29,6.29,0,0,0,1.43.18,2.23,2.23,0,0,0,1.43-.37,1.19,1.19,0,0,0,.47-1,1.26,1.26,0,0,0-.43-.95,6.11,6.11,0,0,0-1.75-.92,4.65,4.65,0,0,1-1.93-1.27,2.67,2.67,0,0,1-.56-1.7,2.4,2.4,0,0,1,.89-2,3.68,3.68,0,0,1,2.39-.72,7,7,0,0,1,2.86.63l-.52,1.33a6.35,6.35,0,0,0-2.38-.56,1.86,1.86,0,0,0-1.21.35,1.14,1.14,0,0,0-.41.91,1.24,1.24,0,0,0,.17.66,1.71,1.71,0,0,0,.54.53,9.65,9.65,0,0,0,1.35.65,7.39,7.39,0,0,1,1.61.85,2.46,2.46,0,0,1,.76.9A2.66,2.66,0,0,1,513.57,11.67Z" transform="translate(-1.08 -4.24)" fill="#231f20"/><path d="M519.75,5.65a2.67,2.67,0,0,0-2.21,1,4.23,4.23,0,0,0-.81,2.75,4.3,4.3,0,0,0,.78,2.79,2.74,2.74,0,0,0,2.24.94A5.46,5.46,0,0,0,521,13c.4-.08.81-.19,1.24-.32v1.4a7.4,7.4,0,0,1-2.67.44,4.26,4.26,0,0,1-3.37-1.33A5.56,5.56,0,0,1,515,9.39a6.16,6.16,0,0,1,.57-2.73,4.09,4.09,0,0,1,1.65-1.79,5,5,0,0,1,2.54-.62,6.29,6.29,0,0,1,2.83.64L522,6.25a9.15,9.15,0,0,0-1.07-.42A3.9,3.9,0,0,0,519.75,5.65Z" transform="translate(-1.08 -4.24)" fill="#231f20"/><path d="M533.25,9.38A5.48,5.48,0,0,1,532,13.17a5.15,5.15,0,0,1-6.94,0,5.54,5.54,0,0,1-1.21-3.82,5.44,5.44,0,0,1,1.22-3.8,4.52,4.52,0,0,1,3.48-1.32A4.4,4.4,0,0,1,532,5.58,5.47,5.47,0,0,1,533.25,9.38Zm-7.63,0a4.54,4.54,0,0,0,.74,2.8,3,3,0,0,0,4.41,0,4.53,4.53,0,0,0,.74-2.81,4.49,4.49,0,0,0-.74-2.79,2.57,2.57,0,0,0-2.19-1,2.61,2.61,0,0,0-2.21,1A4.42,4.42,0,0,0,525.62,9.38Z" transform="translate(-1.08 -4.24)" fill="#231f20"/><path d="M537,10.39v4h-1.64v-10h2.83a4.58,4.58,0,0,1,2.86.73A2.59,2.59,0,0,1,542,7.3,2.73,2.73,0,0,1,540.07,10l2.82,4.43H541l-2.39-4ZM537,9h1.13a2.65,2.65,0,0,0,1.66-.42,1.55,1.55,0,0,0,.51-1.26,1.36,1.36,0,0,0-.56-1.22,3,3,0,0,0-1.66-.37H537Z" transform="translate(-1.08 -4.24)" fill="#231f20"/><path d="M550,14.39h-5.65v-10H550V5.77h-4V8.49h3.77V9.86H546V13h4Z" transform="translate(-1.08 -4.24)" fill="#231f20"/></svg>