<svg id="Layer_1" data-name="Layer 1" xmlns="http://www.w3.org/2000/svg" width="672.46" height="277.44" viewBox="0 0 672.46 277.44"><title>PrepArticle1_2YearCollege_Overall</title><line x1="104.45" y1="217.98" x2="104.45" y2="247.88" fill="none" stroke="#231f20" stroke-miterlimit="10"/><circle cx="104.59" cy="248.04" r="2.72" fill="#fff" stroke="#231f20" stroke-miterlimit="10"/><line x1="104.64" y1="64.83" x2="104.64" y2="36.74" fill="none" stroke="#231f20" stroke-miterlimit="10"/><circle cx="104.5" cy="36.58" r="2.72" fill="#fff" stroke="#231f20" stroke-miterlimit="10"/><path d="M103.17,145,29.47,191A86.9,86.9,0,1,1,176.86,98.92c18.32,29.31,18,64.4-.81,93.38Z" transform="translate(-0.84 -3.21)" fill="#00aeef" fill-rule="evenodd"/><path d="M103.17,145l72.88,47.33A86.89,86.89,0,0,1,55.84,217.86,82.15,82.15,0,0,1,29.47,191Z" transform="translate(-0.84 -3.21)" fill="#262b69" fill-rule="evenodd"/><circle cx="102.17" cy="141.79" r="57.79" fill="#fff"/><path d="M.84,13.29Q.84,8.21,3,5.72C4.43,4.06,6.57,3.23,9.43,3.23a11.4,11.4,0,0,1,2.3.18V6.3a9.71,9.71,0,0,0-2.06-.23,7.15,7.15,0,0,0-3,.56A3.78,3.78,0,0,0,4.86,8.3a7.6,7.6,0,0,0-.69,3.13h.15A4,4,0,0,1,8,9.43a4.59,4.59,0,0,1,3.6,1.45,5.74,5.74,0,0,1,1.3,4,6,6,0,0,1-1.55,4.34A5.67,5.67,0,0,1,7.1,20.8a6.11,6.11,0,0,1-3.31-.88,5.69,5.69,0,0,1-2.18-2.56A9.82,9.82,0,0,1,.84,13.29ZM7,17.91a2.14,2.14,0,0,0,1.78-.78,3.45,3.45,0,0,0,.62-2.22,3.05,3.05,0,0,0-.58-2,2.1,2.1,0,0,0-1.75-.72,2.68,2.68,0,0,0-1.88.72,2.18,2.18,0,0,0-.78,1.66A3.85,3.85,0,0,0,5.17,17,2.25,2.25,0,0,0,7,17.91Z" transform="translate(-0.84 -3.21)" fill="#231f20"/><path d="M20.57,3.21a6.44,6.44,0,0,1,4,1.12,3.56,3.56,0,0,1,1.51,3,3.94,3.94,0,0,1-.73,2.34A6.16,6.16,0,0,1,23,11.52a8.32,8.32,0,0,1,2.76,2.15,4,4,0,0,1,.84,2.46,4.08,4.08,0,0,1-1.66,3.39,6.91,6.91,0,0,1-4.34,1.28,7.3,7.3,0,0,1-4.42-1.19,4,4,0,0,1-1.61-3.39,4.48,4.48,0,0,1,.78-2.6,6.54,6.54,0,0,1,2.5-2,6.35,6.35,0,0,1-2.11-2,4.41,4.41,0,0,1-.64-2.31,3.55,3.55,0,0,1,1.52-3A6.48,6.48,0,0,1,20.57,3.21ZM17.89,16a1.91,1.91,0,0,0,.71,1.57,3,3,0,0,0,1.92.56,3,3,0,0,0,2-.58A2,2,0,0,0,23.2,16a2.11,2.11,0,0,0-.66-1.47,8.56,8.56,0,0,0-2.15-1.46C18.73,13.87,17.89,14.84,17.89,16ZM20.54,5.86a2.29,2.29,0,0,0-1.49.47,1.58,1.58,0,0,0-.57,1.28,2,2,0,0,0,.45,1.26A5,5,0,0,0,20.57,10a4.63,4.63,0,0,0,1.6-1.1,2,2,0,0,0,.46-1.3A1.55,1.55,0,0,0,22,6.33,2.34,2.34,0,0,0,20.54,5.86Z" transform="translate(-0.84 -3.21)" fill="#231f20"/><path d="M32.18,13.55a4.32,4.32,0,0,1-.52,2.36,1.72,1.72,0,0,1-1.53.79,1.68,1.68,0,0,1-1.49-.81,4.31,4.31,0,0,1-.53-2.34,4.37,4.37,0,0,1,.51-2.34,1.68,1.68,0,0,1,1.51-.78,1.72,1.72,0,0,1,1.52.81A4.16,4.16,0,0,1,32.18,13.55Zm-3.13,0a4.56,4.56,0,0,0,.26,1.75.85.85,0,0,0,.82.58c.74,0,1.12-.78,1.12-2.33s-.38-2.31-1.12-2.31a.84.84,0,0,0-.82.58A4.45,4.45,0,0,0,29.05,13.55Zm7.39-3-5.54,10h-1l5.55-10Zm1.77,7a4.3,4.3,0,0,1-.53,2.35,1.72,1.72,0,0,1-1.53.79,1.68,1.68,0,0,1-1.5-.81,4.4,4.4,0,0,1-.52-2.33,4.32,4.32,0,0,1,.51-2.34,1.69,1.69,0,0,1,1.51-.79,1.71,1.71,0,0,1,1.51.81A4.14,4.14,0,0,1,38.21,17.56Zm-3.14,0a4.6,4.6,0,0,0,.25,1.75.86.86,0,0,0,.83.57.91.91,0,0,0,.85-.57,4.28,4.28,0,0,0,.27-1.75A4.18,4.18,0,0,0,37,15.83a.91.91,0,0,0-.85-.57.86.86,0,0,0-.83.57A4.41,4.41,0,0,0,35.07,17.56Z" transform="translate(-0.84 -3.21)" fill="#231f20"/><path d="M46.73,19.78h0a2.1,2.1,0,0,1-1.85.89,2.18,2.18,0,0,1-1.8-.79,3.44,3.44,0,0,1-.64-2.24A3.53,3.53,0,0,1,43,15.38a2.17,2.17,0,0,1,1.8-.81,2.12,2.12,0,0,1,1.83.87h.07l0-.42,0-.42V12.21h.89v8.36h-.73ZM45,19.93a1.61,1.61,0,0,0,1.32-.5,2.47,2.47,0,0,0,.42-1.6v-.19a2.94,2.94,0,0,0-.42-1.79,1.6,1.6,0,0,0-1.33-.53,1.36,1.36,0,0,0-1.2.61,3,3,0,0,0-.42,1.72,2.86,2.86,0,0,0,.42,1.7A1.38,1.38,0,0,0,45,19.93Z" transform="translate(-0.84 -3.21)" fill="#231f20"/><path d="M49.39,13.08a.57.57,0,0,1,.15-.44.52.52,0,0,1,.38-.15.51.51,0,0,1,.37.15.59.59,0,0,1,.15.44.6.6,0,0,1-.15.45.51.51,0,0,1-.37.15.52.52,0,0,1-.38-.15A.6.6,0,0,1,49.39,13.08Zm1,7.49h-.89V14.68h.89Z" transform="translate(-0.84 -3.21)" fill="#231f20"/><path d="M56.26,19.78h0a2.09,2.09,0,0,1-1.85.89,2.18,2.18,0,0,1-1.8-.79,3.49,3.49,0,0,1-.64-2.24,3.54,3.54,0,0,1,.65-2.26,2.38,2.38,0,0,1,3.63.06h.07l0-.42,0-.42V12.21h.89v8.36h-.73Zm-1.79.15a1.65,1.65,0,0,0,1.33-.5,2.54,2.54,0,0,0,.41-1.6v-.19a2.94,2.94,0,0,0-.42-1.79,1.6,1.6,0,0,0-1.33-.53,1.36,1.36,0,0,0-1.2.61,3,3,0,0,0-.41,1.72,2.86,2.86,0,0,0,.41,1.7A1.39,1.39,0,0,0,54.47,19.93Z" transform="translate(-0.84 -3.21)" fill="#231f20"/><path d="M63,20.57V16.76a1.55,1.55,0,0,0-.33-1.08,1.35,1.35,0,0,0-1-.35,1.72,1.72,0,0,0-1.36.5,2.49,2.49,0,0,0-.43,1.65v3.09H59V14.68h.73l.14.81h0a1.89,1.89,0,0,1,.77-.68,2.5,2.5,0,0,1,1.1-.24,2.23,2.23,0,0,1,1.6.51,2.2,2.2,0,0,1,.54,1.65v3.84Z" transform="translate(-0.84 -3.21)" fill="#231f20"/><path d="M66.46,12.71l.08.12c-.1.36-.23.78-.41,1.25a13.89,13.89,0,0,1-.54,1.32h-.66c.25-1,.43-1.91.55-2.69Z" transform="translate(-0.84 -3.21)" fill="#231f20"/><path d="M69.51,19.94a2.32,2.32,0,0,0,.46,0,1.94,1.94,0,0,0,.35-.07v.68a1.51,1.51,0,0,1-.43.12,3.25,3.25,0,0,1-.51,0c-1.14,0-1.7-.6-1.7-1.8v-3.5h-.85v-.43l.85-.37.37-1.25h.52v1.36h1.7v.69h-1.7v3.47a1.17,1.17,0,0,0,.25.81A.88.88,0,0,0,69.51,19.94Z" transform="translate(-0.84 -3.21)" fill="#231f20"/><path d="M78,20.57l-.18-.84h0a2.37,2.37,0,0,1-.88.75,2.66,2.66,0,0,1-1.09.19,2,2,0,0,1-1.37-.45,1.65,1.65,0,0,1-.5-1.28c0-1.19,1-1.81,2.85-1.87l1,0v-.37a1.48,1.48,0,0,0-.3-1,1.2,1.2,0,0,0-.95-.33,3.88,3.88,0,0,0-1.66.45l-.28-.68a4.45,4.45,0,0,1,2-.51,2.27,2.27,0,0,1,1.57.47,2,2,0,0,1,.5,1.5v4Zm-2-.63a1.81,1.81,0,0,0,1.31-.46,1.71,1.71,0,0,0,.47-1.28v-.53l-.89,0a3.1,3.1,0,0,0-1.53.33,1,1,0,0,0-.47.91.92.92,0,0,0,.29.74A1.25,1.25,0,0,0,76,19.94Z" transform="translate(-0.84 -3.21)" fill="#231f20"/><path d="M83.21,20.67a2.59,2.59,0,0,1-1-.21,2,2,0,0,1-.8-.65H81.3a8.44,8.44,0,0,1,.06,1v2.42h-.89V14.68h.72l.13.81h0a2,2,0,0,1,.8-.7,2.35,2.35,0,0,1,1-.22,2.2,2.2,0,0,1,1.81.8,3.56,3.56,0,0,1,.63,2.25A3.5,3.5,0,0,1,85,19.87,2.19,2.19,0,0,1,83.21,20.67Zm-.13-5.34a1.6,1.6,0,0,0-1.31.5,2.64,2.64,0,0,0-.41,1.59v.2a3,3,0,0,0,.41,1.77,1.58,1.58,0,0,0,1.33.54,1.39,1.39,0,0,0,1.2-.62,3,3,0,0,0,.43-1.7,2.86,2.86,0,0,0-.43-1.69A1.44,1.44,0,0,0,83.08,15.33Z" transform="translate(-0.84 -3.21)" fill="#231f20"/><path d="M90,20.67a2.59,2.59,0,0,1-1-.21,2,2,0,0,1-.8-.65H88a8.44,8.44,0,0,1,.06,1v2.42h-.89V14.68h.73l.12.81h0a2,2,0,0,1,.8-.7,2.38,2.38,0,0,1,1-.22,2.2,2.2,0,0,1,1.81.8,3.56,3.56,0,0,1,.63,2.25,3.5,3.5,0,0,1-.64,2.25A2.18,2.18,0,0,1,90,20.67Zm-.13-5.34a1.57,1.57,0,0,0-1.3.5,2.56,2.56,0,0,0-.42,1.59v.2a2.89,2.89,0,0,0,.42,1.77,1.54,1.54,0,0,0,1.32.54,1.39,1.39,0,0,0,1.2-.62,2.91,2.91,0,0,0,.43-1.7A2.79,2.79,0,0,0,91,15.92,1.44,1.44,0,0,0,89.82,15.33Z" transform="translate(-0.84 -3.21)" fill="#231f20"/><path d="M94.84,20.57H94V12.21h.89Z" transform="translate(-0.84 -3.21)" fill="#231f20"/><path d="M95.8,14.68h1L98,18a11.89,11.89,0,0,1,.53,1.66h0c0-.19.15-.5.3-.94s.63-1.8,1.45-4.08h1l-2.53,6.7a3.2,3.2,0,0,1-.88,1.41,1.84,1.84,0,0,1-1.23.42,3.72,3.72,0,0,1-.81-.09V22.4a2.73,2.73,0,0,0,.66.07,1.36,1.36,0,0,0,1.31-1l.33-.84Z" transform="translate(-0.84 -3.21)" fill="#231f20"/><path d="M107,19.94a2.32,2.32,0,0,0,.46,0,1.94,1.94,0,0,0,.35-.07v.68a1.51,1.51,0,0,1-.43.12,3,3,0,0,1-.5,0q-1.71,0-1.71-1.8v-3.5h-.85v-.43l.85-.37.37-1.25h.52v1.36h1.71v.69h-1.71v3.47a1.17,1.17,0,0,0,.25.81A.88.88,0,0,0,107,19.94Z" transform="translate(-0.84 -3.21)" fill="#231f20"/><path d="M114.1,17.62a3.22,3.22,0,0,1-.73,2.25,2.57,2.57,0,0,1-2,.8,2.62,2.62,0,0,1-1.4-.37,2.4,2.4,0,0,1-1-1.06,3.72,3.72,0,0,1-.33-1.62,3.23,3.23,0,0,1,.72-2.24,2.81,2.81,0,0,1,4,0A3.27,3.27,0,0,1,114.1,17.62Zm-4.49,0a2.82,2.82,0,0,0,.45,1.72,1.79,1.79,0,0,0,2.66,0,2.8,2.8,0,0,0,.45-1.72,2.77,2.77,0,0,0-.45-1.71,1.83,1.83,0,0,0-2.66,0A2.78,2.78,0,0,0,109.61,17.62Z" transform="translate(-0.84 -3.21)" fill="#231f20"/><path d="M122.14,20.57l-.18-.84h0a2.53,2.53,0,0,1-.88.75,2.7,2.7,0,0,1-1.09.19,2,2,0,0,1-1.38-.45,1.64,1.64,0,0,1-.49-1.28c0-1.19,1-1.81,2.85-1.87l1,0v-.37a1.48,1.48,0,0,0-.3-1,1.23,1.23,0,0,0-.95-.33,3.92,3.92,0,0,0-1.67.45l-.27-.68a4.36,4.36,0,0,1,2-.51,2.26,2.26,0,0,1,1.56.47,1.94,1.94,0,0,1,.51,1.5v4Zm-2-.63a1.79,1.79,0,0,0,1.31-.46,1.67,1.67,0,0,0,.48-1.28v-.53l-.89,0a3.17,3.17,0,0,0-1.54.33A1,1,0,0,0,119,19a.92.92,0,0,0,.3.74A1.22,1.22,0,0,0,120.12,19.94Z" transform="translate(-0.84 -3.21)" fill="#231f20"/><path d="M129.39,19.94a2.32,2.32,0,0,0,.46,0,1.94,1.94,0,0,0,.35-.07v.68a1.51,1.51,0,0,1-.43.12,3.13,3.13,0,0,1-.5,0q-1.71,0-1.71-1.8v-3.5h-.85v-.43l.85-.37.37-1.25h.52v1.36h1.71v.69h-1.71v3.47a1.17,1.17,0,0,0,.25.81A.88.88,0,0,0,129.39,19.94Z" transform="translate(-0.84 -3.21)" fill="#231f20"/><path d="M136.18,20.57l-1.08-3.46c-.06-.21-.19-.69-.38-1.44h0c-.14.63-.27,1.11-.38,1.45l-1.11,3.45h-1l-1.61-5.89h.94l.87,3.38a13.4,13.4,0,0,1,.34,1.56h0c0-.2.1-.47.19-.79s.17-.58.23-.77l1.08-3.38h1l1,3.38a11,11,0,0,1,.41,1.55h0a3.85,3.85,0,0,1,.12-.6c.06-.26.43-1.71,1.12-4.33h.92l-1.63,5.89Z" transform="translate(-0.84 -3.21)" fill="#231f20"/><path d="M145,17.62a3.27,3.27,0,0,1-.72,2.25,2.57,2.57,0,0,1-2,.8,2.65,2.65,0,0,1-1.41-.37,2.44,2.44,0,0,1-.94-1.06,3.72,3.72,0,0,1-.34-1.62,3.18,3.18,0,0,1,.73-2.24,2.81,2.81,0,0,1,4,0A3.27,3.27,0,0,1,145,17.62Zm-4.48,0a2.82,2.82,0,0,0,.45,1.72,1.57,1.57,0,0,0,1.33.59,1.6,1.6,0,0,0,1.33-.59,2.8,2.8,0,0,0,.45-1.72,2.77,2.77,0,0,0-.45-1.71,1.84,1.84,0,0,0-2.67,0A2.85,2.85,0,0,0,140.53,17.62Z" transform="translate(-0.84 -3.21)" fill="#231f20"/><path d="M146.08,18v-.82h2.64V18Z" transform="translate(-0.84 -3.21)" fill="#231f20"/><path d="M149.18,14.68h1L151.43,18A13,13,0,0,1,152,19.7H152a9.84,9.84,0,0,1,.29-.94c.15-.44.63-1.8,1.46-4.08h.95l-2.53,6.7a3.2,3.2,0,0,1-.88,1.41,1.84,1.84,0,0,1-1.23.42,3.57,3.57,0,0,1-.8-.09V22.4a2.62,2.62,0,0,0,.66.07,1.37,1.37,0,0,0,1.31-1l.33-.84Z" transform="translate(-0.84 -3.21)" fill="#231f20"/><path d="M158.15,20.67a2.7,2.7,0,0,1-2.06-.79,3.06,3.06,0,0,1-.76-2.21,3.45,3.45,0,0,1,.7-2.26,2.34,2.34,0,0,1,1.89-.84,2.22,2.22,0,0,1,1.75.73,2.8,2.8,0,0,1,.64,1.92v.56h-4.06a2.36,2.36,0,0,0,.53,1.58,1.81,1.81,0,0,0,1.4.54,4.85,4.85,0,0,0,1.88-.4v.79a3.9,3.9,0,0,1-.9.29A4.91,4.91,0,0,1,158.15,20.67Zm-.25-5.35a1.45,1.45,0,0,0-1.13.46,2.13,2.13,0,0,0-.49,1.28h3.07a2,2,0,0,0-.37-1.29A1.33,1.33,0,0,0,157.9,15.32Z" transform="translate(-0.84 -3.21)" fill="#231f20"/><path d="M165.45,20.57l-.18-.84h0a2.45,2.45,0,0,1-.88.75,2.66,2.66,0,0,1-1.09.19,2,2,0,0,1-1.37-.45,1.65,1.65,0,0,1-.5-1.28c0-1.19,1-1.81,2.85-1.87l1,0v-.37a1.48,1.48,0,0,0-.3-1,1.22,1.22,0,0,0-.95-.33,3.92,3.92,0,0,0-1.67.45l-.27-.68a4.36,4.36,0,0,1,2-.51,2.24,2.24,0,0,1,1.56.47,1.94,1.94,0,0,1,.51,1.5v4Zm-2-.63a1.77,1.77,0,0,0,1.3-.46,1.67,1.67,0,0,0,.48-1.28v-.53l-.89,0a3.17,3.17,0,0,0-1.54.33,1,1,0,0,0-.47.91.92.92,0,0,0,.3.74A1.24,1.24,0,0,0,163.44,19.94Z" transform="translate(-0.84 -3.21)" fill="#231f20"/><path d="M170.63,14.57a3,3,0,0,1,.71.07l-.13.82a3.19,3.19,0,0,0-.64-.08,1.58,1.58,0,0,0-1.22.58,2.12,2.12,0,0,0-.51,1.45v3.16H168V14.68h.73l.11,1.09h0a2.65,2.65,0,0,1,.79-.89A1.82,1.82,0,0,1,170.63,14.57Z" transform="translate(-0.84 -3.21)" fill="#231f20"/><path d="M177.65,20.67a2.53,2.53,0,0,1-2-.78,3.24,3.24,0,0,1-.7-2.23,3.36,3.36,0,0,1,.71-2.28,2.55,2.55,0,0,1,2-.81,4.17,4.17,0,0,1,.85.09,2.81,2.81,0,0,1,.66.22l-.27.76a3.82,3.82,0,0,0-.65-.2,2.92,2.92,0,0,0-.61-.08c-1.2,0-1.8.76-1.8,2.29a2.71,2.71,0,0,0,.44,1.66,1.52,1.52,0,0,0,1.3.59,4,4,0,0,0,1.51-.32v.79A3.29,3.29,0,0,1,177.65,20.67Z" transform="translate(-0.84 -3.21)" fill="#231f20"/><path d="M185.61,17.62a3.27,3.27,0,0,1-.72,2.25,2.57,2.57,0,0,1-2,.8,2.65,2.65,0,0,1-1.41-.37,2.44,2.44,0,0,1-.94-1.06,3.72,3.72,0,0,1-.33-1.62,3.23,3.23,0,0,1,.72-2.24,2.81,2.81,0,0,1,4,0A3.27,3.27,0,0,1,185.61,17.62Zm-4.48,0a2.82,2.82,0,0,0,.45,1.72,1.57,1.57,0,0,0,1.33.59,1.6,1.6,0,0,0,1.33-.59,2.8,2.8,0,0,0,.45-1.72,2.77,2.77,0,0,0-.45-1.71,1.6,1.6,0,0,0-1.34-.58,1.56,1.56,0,0,0-1.32.57A2.78,2.78,0,0,0,181.13,17.62Z" transform="translate(-0.84 -3.21)" fill="#231f20"/><path d="M188.07,20.57h-.89V12.21h.89Z" transform="translate(-0.84 -3.21)" fill="#231f20"/><path d="M190.85,20.57H190V12.21h.89Z" transform="translate(-0.84 -3.21)" fill="#231f20"/><path d="M195.23,20.67a2.7,2.7,0,0,1-2.06-.79,3.1,3.1,0,0,1-.76-2.21,3.45,3.45,0,0,1,.7-2.26,2.34,2.34,0,0,1,1.89-.84,2.22,2.22,0,0,1,1.75.73,2.8,2.8,0,0,1,.64,1.92v.56h-4a2.35,2.35,0,0,0,.52,1.58,1.81,1.81,0,0,0,1.4.54,4.85,4.85,0,0,0,1.88-.4v.79a3.84,3.84,0,0,1-.89.29A5,5,0,0,1,195.23,20.67ZM195,15.32a1.43,1.43,0,0,0-1.13.46,2.07,2.07,0,0,0-.5,1.28h3.08a2,2,0,0,0-.38-1.29A1.32,1.32,0,0,0,195,15.32Z" transform="translate(-0.84 -3.21)" fill="#231f20"/><path d="M203.73,14.68v.56l-1.09.13a2,2,0,0,1,.27.49,1.88,1.88,0,0,1,.12.69,1.74,1.74,0,0,1-.59,1.38,2.43,2.43,0,0,1-1.63.51,2.56,2.56,0,0,1-.49,0,.87.87,0,0,0-.57.76.4.4,0,0,0,.2.36,1.55,1.55,0,0,0,.68.11h1a2.38,2.38,0,0,1,1.47.4,1.41,1.41,0,0,1,.51,1.18,1.68,1.68,0,0,1-.78,1.49,4.22,4.22,0,0,1-2.29.51,3.1,3.1,0,0,1-1.78-.43,1.38,1.38,0,0,1-.62-1.21,1.35,1.35,0,0,1,.34-.93,1.81,1.81,0,0,1,1-.54.86.86,0,0,1-.53-.81.94.94,0,0,1,.17-.57,1.7,1.7,0,0,1,.54-.46,1.63,1.63,0,0,1-.74-.64,1.82,1.82,0,0,1-.29-1,1.89,1.89,0,0,1,.58-1.49,2.36,2.36,0,0,1,1.64-.53,3,3,0,0,1,.83.11ZM199,21.55a.8.8,0,0,0,.4.73,2.26,2.26,0,0,0,1.15.25,3.18,3.18,0,0,0,1.67-.34,1,1,0,0,0,.53-.91.7.7,0,0,0-.29-.66,2.22,2.22,0,0,0-1.11-.19h-1.07a1.46,1.46,0,0,0-.95.29A1.06,1.06,0,0,0,199,21.55Zm.48-5a1.21,1.21,0,0,0,.35.94,1.38,1.38,0,0,0,1,.32,1.14,1.14,0,0,0,1.31-1.27,1.17,1.17,0,0,0-1.33-1.33,1.28,1.28,0,0,0-1,.34A1.35,1.35,0,0,0,199.52,16.56Z" transform="translate(-0.84 -3.21)" fill="#231f20"/><path d="M207.43,20.67a2.7,2.7,0,0,1-2.06-.79,3.06,3.06,0,0,1-.76-2.21,3.45,3.45,0,0,1,.7-2.26,2.34,2.34,0,0,1,1.89-.84,2.22,2.22,0,0,1,1.75.73,2.8,2.8,0,0,1,.64,1.92v.56h-4.05a2.3,2.3,0,0,0,.52,1.58,1.81,1.81,0,0,0,1.4.54,4.85,4.85,0,0,0,1.88-.4v.79a3.9,3.9,0,0,1-.9.29A4.91,4.91,0,0,1,207.43,20.67Zm-.25-5.35a1.45,1.45,0,0,0-1.13.46,2.13,2.13,0,0,0-.49,1.28h3.07a2,2,0,0,0-.37-1.29A1.33,1.33,0,0,0,207.18,15.32Z" transform="translate(-0.84 -3.21)" fill="#231f20"/><path d="M21.91,264.71a4,4,0,0,1-1,2.73A5,5,0,0,1,18.21,269v.07a5.43,5.43,0,0,1,3.14,1.26,3.54,3.54,0,0,1,1.07,2.7,4.57,4.57,0,0,1-1.8,3.85,8.23,8.23,0,0,1-5.12,1.38,12.33,12.33,0,0,1-4.94-.93v-3.08a11.31,11.31,0,0,0,2.19.82,9.18,9.18,0,0,0,2.36.32,4.65,4.65,0,0,0,2.65-.61,2.25,2.25,0,0,0,.86-2,1.75,1.75,0,0,0-1-1.71,7.18,7.18,0,0,0-3.14-.51h-1.3v-2.77h1.33a6.12,6.12,0,0,0,2.91-.53,1.87,1.87,0,0,0,.92-1.78c0-1.3-.81-1.95-2.44-1.95a5.89,5.89,0,0,0-1.72.28,8.82,8.82,0,0,0-1.94,1l-1.67-2.5a9.33,9.33,0,0,1,5.59-1.69,7.22,7.22,0,0,1,4.2,1.08A3.45,3.45,0,0,1,21.91,264.71Z" transform="translate(-0.84 -3.21)" fill="#231f20"/><path d="M36.28,278h-12v-2.52l4.3-4.35a36,36,0,0,0,2.5-2.71,5.81,5.81,0,0,0,.84-1.4,3.58,3.58,0,0,0,.26-1.33,2,2,0,0,0-.57-1.54,2.18,2.18,0,0,0-1.52-.5,4.43,4.43,0,0,0-1.93.45,10.52,10.52,0,0,0-2,1.3l-2-2.33a13.39,13.39,0,0,1,2.1-1.52,7.62,7.62,0,0,1,1.82-.69,9.33,9.33,0,0,1,2.2-.24,6.55,6.55,0,0,1,2.84.59,4.52,4.52,0,0,1,1.91,1.64,4.38,4.38,0,0,1,.68,2.41,5.85,5.85,0,0,1-.42,2.22,8.59,8.59,0,0,1-1.29,2.13A31.14,31.14,0,0,1,31,272.73l-2.21,2.07V275h7.47Z" transform="translate(-0.84 -3.21)" fill="#231f20"/><path d="M41.83,271a4.28,4.28,0,0,1-.53,2.35,1.72,1.72,0,0,1-1.53.8,1.68,1.68,0,0,1-1.49-.81,5.53,5.53,0,0,1,0-4.68,1.83,1.83,0,0,1,3,0A4.15,4.15,0,0,1,41.83,271Zm-3.14,0a4.54,4.54,0,0,0,.26,1.74.85.85,0,0,0,.82.58c.75,0,1.12-.77,1.12-2.32s-.37-2.31-1.12-2.31a.85.85,0,0,0-.82.57A4.47,4.47,0,0,0,38.69,271Zm7.39-3-5.54,10h-1l5.54-10Zm1.77,7a4.28,4.28,0,0,1-.53,2.35,1.71,1.71,0,0,1-1.53.8,1.66,1.66,0,0,1-1.49-.82,5.48,5.48,0,0,1,0-4.66,1.67,1.67,0,0,1,1.51-.79,1.72,1.72,0,0,1,1.51.8A4.08,4.08,0,0,1,47.85,275Zm-3.14,0a4.56,4.56,0,0,0,.25,1.75.86.86,0,0,0,.83.58.9.9,0,0,0,.85-.57,4.34,4.34,0,0,0,.27-1.76,4.21,4.21,0,0,0-.27-1.73.89.89,0,0,0-.85-.56.85.85,0,0,0-.83.56A4.45,4.45,0,0,0,44.71,275Z" transform="translate(-0.84 -3.21)" fill="#231f20"/><path d="M56.77,278l-.18-.84h0a2.53,2.53,0,0,1-.88.75,2.69,2.69,0,0,1-1.09.2,2,2,0,0,1-1.38-.45,1.65,1.65,0,0,1-.49-1.29c0-1.18.95-1.81,2.85-1.87l1,0v-.36a1.51,1.51,0,0,0-.3-1,1.23,1.23,0,0,0-.95-.33,3.92,3.92,0,0,0-1.67.45l-.27-.68a4.69,4.69,0,0,1,1-.37,4.12,4.12,0,0,1,1-.13,2.21,2.21,0,0,1,1.56.47,1.93,1.93,0,0,1,.51,1.49v4Zm-2-.63a1.83,1.83,0,0,0,1.31-.45,1.69,1.69,0,0,0,.48-1.28v-.53l-.89,0a3.39,3.39,0,0,0-1.54.33,1,1,0,0,0-.47.91.93.93,0,0,0,.29.74A1.22,1.22,0,0,0,54.75,277.38Z" transform="translate(-0.84 -3.21)" fill="#231f20"/><path d="M62,278.12a2.59,2.59,0,0,1-1-.21,1.92,1.92,0,0,1-.79-.66h-.07a6.84,6.84,0,0,1,.07,1v2.42h-.89v-8.52H60l.12.8h0a2.12,2.12,0,0,1,.8-.7,2.44,2.44,0,0,1,1-.21,2.15,2.15,0,0,1,1.81.8,3.47,3.47,0,0,1,.64,2.24,3.54,3.54,0,0,1-.65,2.26A2.19,2.19,0,0,1,62,278.12Zm-.12-5.35a1.59,1.59,0,0,0-1.31.5,2.54,2.54,0,0,0-.41,1.59v.2a2.94,2.94,0,0,0,.41,1.78,1.6,1.6,0,0,0,1.33.53,1.35,1.35,0,0,0,1.19-.62,2.89,2.89,0,0,0,.43-1.7,2.81,2.81,0,0,0-.43-1.69A1.42,1.42,0,0,0,61.88,272.77Z" transform="translate(-0.84 -3.21)" fill="#231f20"/><path d="M68.75,278.12a2.52,2.52,0,0,1-1-.21,1.89,1.89,0,0,1-.8-.66h-.07a6.84,6.84,0,0,1,.07,1v2.42H66v-8.52h.72l.12.8h.05a2.12,2.12,0,0,1,.8-.7,2.46,2.46,0,0,1,1-.21,2.14,2.14,0,0,1,1.8.8,3.47,3.47,0,0,1,.64,2.24,3.54,3.54,0,0,1-.65,2.26A2.19,2.19,0,0,1,68.75,278.12Zm-.13-5.35a1.59,1.59,0,0,0-1.31.5,2.54,2.54,0,0,0-.41,1.59v.2a3,3,0,0,0,.41,1.78,1.6,1.6,0,0,0,1.33.53,1.35,1.35,0,0,0,1.19-.62,2.89,2.89,0,0,0,.44-1.7,2.81,2.81,0,0,0-.44-1.69A1.42,1.42,0,0,0,68.62,272.77Z" transform="translate(-0.84 -3.21)" fill="#231f20"/><path d="M73.64,278h-.89v-8.36h.89Z" transform="translate(-0.84 -3.21)" fill="#231f20"/><path d="M75.45,270.53a.61.61,0,0,1,.15-.45.56.56,0,0,1,.38-.14.55.55,0,0,1,.37.14.71.71,0,0,1,0,.9.51.51,0,0,1-.37.15.52.52,0,0,1-.38-.15A.61.61,0,0,1,75.45,270.53Zm1,7.48h-.89v-5.88h.89Z" transform="translate(-0.84 -3.21)" fill="#231f20"/><path d="M80.8,278.12a2.7,2.7,0,0,1-2.06-.8,3,3,0,0,1-.76-2.2,3.43,3.43,0,0,1,.7-2.26,2.34,2.34,0,0,1,1.89-.84,2.22,2.22,0,0,1,1.75.73,2.77,2.77,0,0,1,.64,1.92v.56h-4a2.33,2.33,0,0,0,.52,1.57,1.81,1.81,0,0,0,1.4.54,4.68,4.68,0,0,0,1.88-.4v.8a5.1,5.1,0,0,1-.89.29A5,5,0,0,1,80.8,278.12Zm-.24-5.36a1.44,1.44,0,0,0-1.13.47,2,2,0,0,0-.5,1.27H82a2,2,0,0,0-.38-1.29A1.32,1.32,0,0,0,80.56,272.76Z" transform="translate(-0.84 -3.21)" fill="#231f20"/><path d="M88.49,277.22h0a2.09,2.09,0,0,1-1.85.9,2.15,2.15,0,0,1-1.79-.79,3.49,3.49,0,0,1-.65-2.25,3.54,3.54,0,0,1,.65-2.26,2.19,2.19,0,0,1,1.79-.8,2.15,2.15,0,0,1,1.84.87h.07l0-.43,0-.41v-2.4h.89V278h-.72Zm-1.78.15a1.62,1.62,0,0,0,1.32-.49,2.57,2.57,0,0,0,.41-1.61v-.19A2.91,2.91,0,0,0,88,273.3a1.56,1.56,0,0,0-1.32-.54,1.36,1.36,0,0,0-1.2.61,3,3,0,0,0-.42,1.72,3,3,0,0,0,.41,1.71A1.41,1.41,0,0,0,86.71,277.37Z" transform="translate(-0.84 -3.21)" fill="#231f20"/><path d="M96,277.38a3.44,3.44,0,0,0,.46,0l.35-.07V278a2,2,0,0,1-.43.11,3.36,3.36,0,0,1-.51.05c-1.14,0-1.7-.6-1.7-1.8v-3.5H93.3v-.43l.85-.37.37-1.26H95v1.37h1.7v.69H95v3.46a1.18,1.18,0,0,0,.25.82A.88.88,0,0,0,96,277.38Z" transform="translate(-0.84 -3.21)" fill="#231f20"/><path d="M103,275.06a3.27,3.27,0,0,1-.72,2.25,2.54,2.54,0,0,1-2,.81,2.65,2.65,0,0,1-1.41-.37,2.46,2.46,0,0,1-.94-1.07,3.72,3.72,0,0,1-.33-1.62,3.24,3.24,0,0,1,.72-2.24,2.55,2.55,0,0,1,2-.8,2.49,2.49,0,0,1,2,.82A3.26,3.26,0,0,1,103,275.06Zm-4.48,0a2.8,2.8,0,0,0,.45,1.72,1.55,1.55,0,0,0,1.33.59,1.57,1.57,0,0,0,1.33-.59,2.78,2.78,0,0,0,.45-1.72,2.74,2.74,0,0,0-.45-1.7,1.61,1.61,0,0,0-1.34-.59,1.56,1.56,0,0,0-1.32.58A2.73,2.73,0,0,0,98.56,275.06Z" transform="translate(-0.84 -3.21)" fill="#231f20"/><path d="M111.09,278l-.18-.84h0a2.53,2.53,0,0,1-.88.75,2.7,2.7,0,0,1-1.1.2,2,2,0,0,1-1.37-.45,1.66,1.66,0,0,1-.5-1.29c0-1.18,1-1.81,2.86-1.87l1,0v-.36a1.51,1.51,0,0,0-.3-1,1.24,1.24,0,0,0-1-.33,3.88,3.88,0,0,0-1.66.45l-.27-.68a4.47,4.47,0,0,1,1-.37,4.06,4.06,0,0,1,1-.13,2.21,2.21,0,0,1,1.56.47,1.93,1.93,0,0,1,.51,1.49v4Zm-2-.63a1.83,1.83,0,0,0,1.31-.45,1.68,1.68,0,0,0,.47-1.28v-.53l-.89,0a3.34,3.34,0,0,0-1.53.33,1,1,0,0,0-.47.91.93.93,0,0,0,.29.74A1.22,1.22,0,0,0,109.07,277.38Z" transform="translate(-0.84 -3.21)" fill="#231f20"/><path d="M118.34,277.38a3.44,3.44,0,0,0,.46,0l.35-.07V278a2,2,0,0,1-.43.11,3.36,3.36,0,0,1-.51.05q-1.71,0-1.71-1.8v-3.5h-.84v-.43l.84-.37.38-1.26h.52v1.37h1.7v.69h-1.7v3.46a1.18,1.18,0,0,0,.25.82A.88.88,0,0,0,118.34,277.38Z" transform="translate(-0.84 -3.21)" fill="#231f20"/><path d="M125.13,278l-1.08-3.45c-.07-.21-.19-.69-.38-1.44h0c-.15.63-.27,1.11-.38,1.45L122.14,278h-1l-1.61-5.88h.94c.38,1.47.66,2.6.86,3.37a14.73,14.73,0,0,1,.35,1.57h0c0-.21.1-.47.19-.8s.16-.58.23-.77l1.08-3.37h1l1.06,3.37a11.23,11.23,0,0,1,.4,1.56h0a5,5,0,0,1,.11-.6l1.12-4.33h.93L126.19,278Z" transform="translate(-0.84 -3.21)" fill="#231f20"/><path d="M134,275.06a3.27,3.27,0,0,1-.72,2.25,2.56,2.56,0,0,1-2,.81,2.64,2.64,0,0,1-1.4-.37,2.4,2.4,0,0,1-.94-1.07,3.58,3.58,0,0,1-.34-1.62,3.24,3.24,0,0,1,.72-2.24,2.57,2.57,0,0,1,2-.8,2.47,2.47,0,0,1,2,.82A3.21,3.21,0,0,1,134,275.06Zm-4.48,0a2.8,2.8,0,0,0,.45,1.72,1.78,1.78,0,0,0,2.65,0,2.71,2.71,0,0,0,.46-1.72,2.67,2.67,0,0,0-.46-1.7,1.8,1.8,0,0,0-2.66,0A2.8,2.8,0,0,0,129.48,275.06Z" transform="translate(-0.84 -3.21)" fill="#231f20"/><path d="M135,275.47v-.82h2.64v.82Z" transform="translate(-0.84 -3.21)" fill="#231f20"/><path d="M138.13,272.13h1l1.28,3.35a12.32,12.32,0,0,1,.53,1.66h0c.05-.18.15-.49.3-.94s.63-1.8,1.45-4.07h1l-2.53,6.7a3.32,3.32,0,0,1-.88,1.41,1.83,1.83,0,0,1-1.23.41,3.72,3.72,0,0,1-.81-.09v-.71a3.37,3.37,0,0,0,.66.06,1.37,1.37,0,0,0,1.32-1l.32-.84Z" transform="translate(-0.84 -3.21)" fill="#231f20"/><path d="M147.09,278.12a2.72,2.72,0,0,1-2.06-.8,3.07,3.07,0,0,1-.75-2.2,3.38,3.38,0,0,1,.7-2.26,2.32,2.32,0,0,1,1.88-.84,2.2,2.2,0,0,1,1.75.73,2.77,2.77,0,0,1,.65,1.92v.56H145.2a2.33,2.33,0,0,0,.53,1.57,1.79,1.79,0,0,0,1.4.54,4.68,4.68,0,0,0,1.88-.4v.8a5.48,5.48,0,0,1-.9.29A5,5,0,0,1,147.09,278.12Zm-.24-5.36a1.46,1.46,0,0,0-1.13.47,2.1,2.1,0,0,0-.5,1.27h3.08a2,2,0,0,0-.37-1.29A1.33,1.33,0,0,0,146.85,272.76Z" transform="translate(-0.84 -3.21)" fill="#231f20"/><path d="M154.4,278l-.18-.84h0a2.53,2.53,0,0,1-.88.75,2.69,2.69,0,0,1-1.09.2,2,2,0,0,1-1.38-.45,1.65,1.65,0,0,1-.49-1.29c0-1.18.95-1.81,2.85-1.87l1,0v-.36a1.51,1.51,0,0,0-.3-1,1.23,1.23,0,0,0-.95-.33,3.92,3.92,0,0,0-1.67.45l-.27-.68a4.69,4.69,0,0,1,.95-.37,4.12,4.12,0,0,1,1-.13,2.21,2.21,0,0,1,1.56.47,1.93,1.93,0,0,1,.51,1.49v4Zm-2-.63a1.83,1.83,0,0,0,1.31-.45,1.69,1.69,0,0,0,.48-1.28v-.53l-.89,0a3.42,3.42,0,0,0-1.54.33,1,1,0,0,0-.47.91.93.93,0,0,0,.29.74A1.22,1.22,0,0,0,152.38,277.38Z" transform="translate(-0.84 -3.21)" fill="#231f20"/><path d="M159.58,272a3.65,3.65,0,0,1,.7.06l-.12.83a3.28,3.28,0,0,0-.64-.08,1.54,1.54,0,0,0-1.22.58,2.1,2.1,0,0,0-.51,1.44V278h-.89v-5.88h.73l.1,1.08h.05a2.61,2.61,0,0,1,.79-.88A1.72,1.72,0,0,1,159.58,272Z" transform="translate(-0.84 -3.21)" fill="#231f20"/><path d="M166.6,278.12a2.48,2.48,0,0,1-2-.79,3.2,3.2,0,0,1-.7-2.22,3.32,3.32,0,0,1,.71-2.29,2.58,2.58,0,0,1,2-.8,4,4,0,0,1,.84.09,2.8,2.8,0,0,1,.67.21l-.27.76a5.52,5.52,0,0,0-.65-.2,2.94,2.94,0,0,0-.62-.07c-1.19,0-1.79.76-1.79,2.28a2.75,2.75,0,0,0,.44,1.67,1.5,1.5,0,0,0,1.29.58,4,4,0,0,0,1.51-.32v.79A3.12,3.12,0,0,1,166.6,278.12Z" transform="translate(-0.84 -3.21)" fill="#231f20"/><path d="M174.56,275.06a3.27,3.27,0,0,1-.72,2.25,2.56,2.56,0,0,1-2,.81,2.64,2.64,0,0,1-1.4-.37,2.4,2.4,0,0,1-.94-1.07,3.58,3.58,0,0,1-.34-1.62,3.24,3.24,0,0,1,.72-2.24,2.57,2.57,0,0,1,2-.8,2.47,2.47,0,0,1,2,.82A3.21,3.21,0,0,1,174.56,275.06Zm-4.48,0a2.8,2.8,0,0,0,.45,1.72,1.78,1.78,0,0,0,2.65,0,2.71,2.71,0,0,0,.46-1.72,2.67,2.67,0,0,0-.46-1.7,1.8,1.8,0,0,0-2.66,0A2.8,2.8,0,0,0,170.08,275.06Z" transform="translate(-0.84 -3.21)" fill="#231f20"/><path d="M177,278h-.9v-8.36h.9Z" transform="translate(-0.84 -3.21)" fill="#231f20"/><path d="M179.8,278h-.89v-8.36h.89Z" transform="translate(-0.84 -3.21)" fill="#231f20"/><path d="M184.18,278.12a2.7,2.7,0,0,1-2.06-.8,3,3,0,0,1-.76-2.2,3.43,3.43,0,0,1,.7-2.26,2.33,2.33,0,0,1,1.88-.84,2.22,2.22,0,0,1,1.76.73,2.77,2.77,0,0,1,.64,1.92v.56h-4.06a2.33,2.33,0,0,0,.53,1.57,1.81,1.81,0,0,0,1.4.54,4.68,4.68,0,0,0,1.88-.4v.8a5.19,5.19,0,0,1-.9.29A4.91,4.91,0,0,1,184.18,278.12Zm-.25-5.36a1.46,1.46,0,0,0-1.13.47,2.1,2.1,0,0,0-.49,1.27h3.07a2,2,0,0,0-.37-1.29A1.33,1.33,0,0,0,183.93,272.76Z" transform="translate(-0.84 -3.21)" fill="#231f20"/><path d="M192.68,272.13v.56l-1.09.13a1.86,1.86,0,0,1,.27.49,1.83,1.83,0,0,1,.11.68,1.71,1.71,0,0,1-.59,1.38,2.34,2.34,0,0,1-1.62.52,2.56,2.56,0,0,1-.49,0,.87.87,0,0,0-.57.75.37.37,0,0,0,.2.36,1.39,1.39,0,0,0,.68.12h1a2.32,2.32,0,0,1,1.47.4,1.41,1.41,0,0,1,.51,1.17,1.67,1.67,0,0,1-.78,1.49,4.22,4.22,0,0,1-2.29.51,3.1,3.1,0,0,1-1.78-.43,1.45,1.45,0,0,1-.28-2.14,1.74,1.74,0,0,1,1-.53.87.87,0,0,1-.37-.32.79.79,0,0,1-.16-.5,1,1,0,0,1,.17-.56,1.9,1.9,0,0,1,.55-.47,1.55,1.55,0,0,1-.75-.64,1.87,1.87,0,0,1-.28-1,1.9,1.9,0,0,1,.58-1.49,2.34,2.34,0,0,1,1.64-.52,2.65,2.65,0,0,1,.83.11ZM188,279a.79.79,0,0,0,.41.72,2.13,2.13,0,0,0,1.15.25,3.26,3.26,0,0,0,1.66-.33,1,1,0,0,0,.54-.91.73.73,0,0,0-.29-.67,2.36,2.36,0,0,0-1.11-.18h-1.07a1.39,1.39,0,0,0-1,.29A1,1,0,0,0,188,279Zm.49-5a1.16,1.16,0,0,0,.35.93,1.34,1.34,0,0,0,1,.32,1.13,1.13,0,0,0,1.3-1.27,1.17,1.17,0,0,0-1.32-1.32,1.26,1.26,0,0,0-1,.34A1.33,1.33,0,0,0,188.47,274Z" transform="translate(-0.84 -3.21)" fill="#231f20"/><path d="M196.37,278.12a2.72,2.72,0,0,1-2.06-.8,3.07,3.07,0,0,1-.75-2.2,3.38,3.38,0,0,1,.7-2.26,2.32,2.32,0,0,1,1.88-.84,2.2,2.2,0,0,1,1.75.73,2.77,2.77,0,0,1,.65,1.92v.56h-4.06a2.33,2.33,0,0,0,.53,1.57,1.79,1.79,0,0,0,1.4.54,4.59,4.59,0,0,0,1.87-.4v.8a5.1,5.1,0,0,1-.89.29A5,5,0,0,1,196.37,278.12Zm-.24-5.36a1.46,1.46,0,0,0-1.13.47,2.1,2.1,0,0,0-.5,1.27h3.08a2,2,0,0,0-.37-1.29A1.34,1.34,0,0,0,196.13,272.76Z" transform="translate(-0.84 -3.21)" fill="#231f20"/><line x1="320.57" y1="253.44" x2="333.64" y2="253.44" fill="none" stroke="#231f20" stroke-miterlimit="10" stroke-width="0.5"/><line x1="531.15" y1="253.44" x2="544.95" y2="253.44" fill="none" stroke="#231f20" stroke-miterlimit="10" stroke-width="0.5"/><line x1="337.1" y1="253.44" x2="527.75" y2="253.44" fill="none" stroke="#231f20" stroke-miterlimit="10" stroke-width="0.5"/><line x1="320.81" y1="253.31" x2="320.81" y2="255.71" fill="none" stroke="#231f20" stroke-miterlimit="10" stroke-width="0.5"/><line x1="544.81" y1="253.31" x2="544.81" y2="255.71" fill="none" stroke="#231f20" stroke-miterlimit="10" stroke-width="0.5"/><line x1="512.81" y1="253.31" x2="512.81" y2="255.71" fill="none" stroke="#231f20" stroke-miterlimit="10" stroke-width="0.5"/><line x1="480.81" y1="253.31" x2="480.81" y2="255.71" fill="none" stroke="#231f20" stroke-miterlimit="10" stroke-width="0.5"/><line x1="448.81" y1="253.31" x2="448.81" y2="255.71" fill="none" stroke="#231f20" stroke-miterlimit="10" stroke-width="0.5"/><line x1="416.81" y1="253.31" x2="416.81" y2="255.71" fill="none" stroke="#231f20" stroke-miterlimit="10" stroke-width="0.5"/><line x1="384.81" y1="253.31" x2="384.81" y2="255.71" fill="none" stroke="#231f20" stroke-miterlimit="10" stroke-width="0.5"/><line x1="352.81" y1="253.31" x2="352.81" y2="255.71" fill="none" stroke="#231f20" stroke-miterlimit="10" stroke-width="0.5"/><path d="M324,264.62a5.71,5.71,0,0,1-.64,3,2.36,2.36,0,0,1-3.89,0,7.39,7.39,0,0,1,0-6.06,2.36,2.36,0,0,1,3.89,0A5.61,5.61,0,0,1,324,264.62Zm-4.29,0a5.77,5.77,0,0,0,.41,2.5,1.33,1.33,0,0,0,1.28.78,1.36,1.36,0,0,0,1.29-.8,7.89,7.89,0,0,0,0-5,1.36,1.36,0,0,0-1.29-.79,1.33,1.33,0,0,0-1.28.78A5.69,5.69,0,0,0,319.69,264.62Z" transform="translate(-0.84 -3.21)" fill="#58595b"/><path d="M350.88,268.56h-5.16v-.77l2.07-2.08a15.64,15.64,0,0,0,1.24-1.36,3.89,3.89,0,0,0,.46-.8,2.5,2.5,0,0,0,.15-.83,1.32,1.32,0,0,0-.39-1,1.45,1.45,0,0,0-1.05-.36,2.6,2.6,0,0,0-.93.16,3.89,3.89,0,0,0-1,.58l-.47-.6a3.58,3.58,0,0,1,2.36-.91,2.5,2.5,0,0,1,1.74.57,1.94,1.94,0,0,1,.63,1.52,3,3,0,0,1-.42,1.48,9.35,9.35,0,0,1-1.57,1.85l-1.72,1.68v0h4Z" transform="translate(-0.84 -3.21)" fill="#58595b"/><path d="M354.46,263.76a2.91,2.91,0,0,1,2,.62,2.12,2.12,0,0,1,.71,1.68,2.42,2.42,0,0,1-.78,1.91,3.07,3.07,0,0,1-2.14.7,3.94,3.94,0,0,1-2-.43v-.86a3.06,3.06,0,0,0,.93.38,4.67,4.67,0,0,0,1.1.14,2.19,2.19,0,0,0,1.47-.45,1.58,1.58,0,0,0,.52-1.29c0-1.09-.67-1.64-2-1.64a7.47,7.47,0,0,0-1.36.16l-.46-.3.29-3.67h3.91v.82h-3.15l-.2,2.36A5.85,5.85,0,0,1,354.46,263.76Z" transform="translate(-0.84 -3.21)" fill="#58595b"/><path d="M363.5,264.62a5.71,5.71,0,0,1-.64,3,2.36,2.36,0,0,1-3.89,0,7.39,7.39,0,0,1,0-6.06,2.36,2.36,0,0,1,3.89,0A5.61,5.61,0,0,1,363.5,264.62Zm-4.29,0a5.74,5.74,0,0,0,.41,2.5,1.33,1.33,0,0,0,1.28.78,1.36,1.36,0,0,0,1.29-.79,7.92,7.92,0,0,0,0-5,1.36,1.36,0,0,0-1.29-.78,1.32,1.32,0,0,0-1.28.77A5.69,5.69,0,0,0,359.21,264.62Z" transform="translate(-0.84 -3.21)" fill="#58595b"/><path d="M382.62,268.56h-5.16v-.77l2.07-2.08a15.64,15.64,0,0,0,1.24-1.36,3.42,3.42,0,0,0,.45-.8,2.27,2.27,0,0,0,.16-.83,1.32,1.32,0,0,0-.39-1,1.45,1.45,0,0,0-1.05-.36,2.6,2.6,0,0,0-.93.16,3.89,3.89,0,0,0-1,.58l-.47-.6a3.58,3.58,0,0,1,2.36-.91,2.5,2.5,0,0,1,1.74.57,1.94,1.94,0,0,1,.63,1.52,3,3,0,0,1-.42,1.48A9.35,9.35,0,0,1,380.3,266l-1.72,1.68v0h4Z" transform="translate(-0.84 -3.21)" fill="#58595b"/><path d="M383.84,265.2a5.55,5.55,0,0,1,.9-3.46,3.19,3.19,0,0,1,2.66-1.15,3.51,3.51,0,0,1,1,.11v.76a3.07,3.07,0,0,0-.95-.13,2.38,2.38,0,0,0-1.93.79,4,4,0,0,0-.73,2.47h.07a2,2,0,0,1,1.87-.92,2.19,2.19,0,0,1,1.66.63A2.41,2.41,0,0,1,389,266a2.63,2.63,0,0,1-.67,1.92,2.57,2.57,0,0,1-3.74-.21A4.09,4.09,0,0,1,383.84,265.2Zm2.64,2.71a1.48,1.48,0,0,0,1.18-.48,2.06,2.06,0,0,0,.42-1.39,1.81,1.81,0,0,0-.39-1.23,1.49,1.49,0,0,0-1.17-.44,2,2,0,0,0-.89.2,1.63,1.63,0,0,0-.64.55,1.24,1.24,0,0,0-.24.72,2.38,2.38,0,0,0,.22,1,1.77,1.77,0,0,0,.61.76A1.48,1.48,0,0,0,386.48,267.91Z" transform="translate(-0.84 -3.21)" fill="#58595b"/><path d="M395.24,264.62a5.71,5.71,0,0,1-.64,3,2.36,2.36,0,0,1-3.89,0,7.39,7.39,0,0,1,0-6.06,2.13,2.13,0,0,1,1.95-1,2.16,2.16,0,0,1,1.94,1A5.61,5.61,0,0,1,395.24,264.62Zm-4.29,0a5.77,5.77,0,0,0,.4,2.5,1.45,1.45,0,0,0,2.58,0,7.92,7.92,0,0,0,0-5,1.46,1.46,0,0,0-2.58,0A5.72,5.72,0,0,0,391,264.62Z" transform="translate(-0.84 -3.21)" fill="#58595b"/><path d="M414.76,268.56H409.6v-.77l2.07-2.08a15.64,15.64,0,0,0,1.24-1.36,3.48,3.48,0,0,0,.46-.8,2.27,2.27,0,0,0,.15-.83,1.32,1.32,0,0,0-.39-1,1.45,1.45,0,0,0-1.05-.36,2.6,2.6,0,0,0-.93.16,3.89,3.89,0,0,0-1,.58l-.47-.6a3.59,3.59,0,0,1,2.36-.91,2.5,2.5,0,0,1,1.74.57,1.94,1.94,0,0,1,.63,1.52,3,3,0,0,1-.42,1.48,9.35,9.35,0,0,1-1.57,1.85l-1.72,1.68v0h4Z" transform="translate(-0.84 -3.21)" fill="#58595b"/><path d="M416.88,268.56l3.26-7h-4.28v-.82h5.22v.71l-3.21,7.14Z" transform="translate(-0.84 -3.21)" fill="#58595b"/><path d="M427.38,264.62a5.71,5.71,0,0,1-.64,3,2.36,2.36,0,0,1-3.89,0,7.39,7.39,0,0,1,0-6.06,2.13,2.13,0,0,1,1.95-1,2.16,2.16,0,0,1,1.94,1A5.61,5.61,0,0,1,427.38,264.62Zm-4.29,0a5.92,5.92,0,0,0,.4,2.5,1.45,1.45,0,0,0,2.58,0,7.92,7.92,0,0,0,0-5,1.46,1.46,0,0,0-2.58,0A5.87,5.87,0,0,0,423.09,264.62Z" transform="translate(-0.84 -3.21)" fill="#58595b"/><path d="M445.7,268.56h-5.16v-.77l2.07-2.08a18.35,18.35,0,0,0,1.25-1.36,3.42,3.42,0,0,0,.45-.8,2.27,2.27,0,0,0,.15-.83,1.35,1.35,0,0,0-.38-1,1.5,1.5,0,0,0-1.06-.36,2.6,2.6,0,0,0-.93.16,3.69,3.69,0,0,0-1,.58l-.48-.6a3.6,3.6,0,0,1,2.37-.91,2.49,2.49,0,0,1,1.73.57,1.94,1.94,0,0,1,.63,1.52,3,3,0,0,1-.42,1.48,9.35,9.35,0,0,1-1.57,1.85l-1.72,1.68v0h4Z" transform="translate(-0.84 -3.21)" fill="#58595b"/><path d="M449.43,260.59a2.67,2.67,0,0,1,1.7.5,1.68,1.68,0,0,1,.63,1.38,1.72,1.72,0,0,1-.36,1.06,3.12,3.12,0,0,1-1.15.87,4,4,0,0,1,1.36,1,1.8,1.8,0,0,1,.4,1.16,1.93,1.93,0,0,1-.68,1.56,2.78,2.78,0,0,1-1.87.59,3,3,0,0,1-1.93-.55,1.92,1.92,0,0,1-.68-1.57,2.33,2.33,0,0,1,1.65-2.09,3.11,3.11,0,0,1-1.07-.91,2,2,0,0,1-.32-1.09,1.66,1.66,0,0,1,.63-1.36A2.62,2.62,0,0,1,449.43,260.59Zm-1.7,6a1.2,1.2,0,0,0,.45,1,2,2,0,0,0,1.26.36,1.85,1.85,0,0,0,1.25-.38,1.29,1.29,0,0,0,.44-1,1.25,1.25,0,0,0-.42-.92,4.16,4.16,0,0,0-1.46-.79,3.19,3.19,0,0,0-1.16.76A1.48,1.48,0,0,0,447.73,266.58Zm1.69-5.26a1.59,1.59,0,0,0-1.05.32,1.06,1.06,0,0,0-.39.86,1.25,1.25,0,0,0,.32.85,3.44,3.44,0,0,0,1.17.71,3.1,3.1,0,0,0,1.09-.69,1.32,1.32,0,0,0,.32-.87,1.05,1.05,0,0,0-.39-.86A1.61,1.61,0,0,0,449.42,261.32Z" transform="translate(-0.84 -3.21)" fill="#58595b"/><path d="M458.32,264.62a5.71,5.71,0,0,1-.64,3,2.36,2.36,0,0,1-3.89,0,7.39,7.39,0,0,1,0-6.06,2.36,2.36,0,0,1,3.89,0A5.61,5.61,0,0,1,458.32,264.62Zm-4.29,0a5.74,5.74,0,0,0,.41,2.5,1.33,1.33,0,0,0,1.28.78,1.36,1.36,0,0,0,1.29-.79,7.92,7.92,0,0,0,0-5,1.36,1.36,0,0,0-1.29-.78,1.32,1.32,0,0,0-1.28.77A5.69,5.69,0,0,0,454,264.62Z" transform="translate(-0.84 -3.21)" fill="#58595b"/><path d="M478.64,268.56h-5.16v-.77l2.07-2.08a16.29,16.29,0,0,0,1.25-1.36,3.42,3.42,0,0,0,.45-.8,2.27,2.27,0,0,0,.15-.83,1.35,1.35,0,0,0-.38-1,1.5,1.5,0,0,0-1.06-.36,2.6,2.6,0,0,0-.93.16,3.86,3.86,0,0,0-1,.58l-.48-.6a3.62,3.62,0,0,1,2.37-.91,2.47,2.47,0,0,1,1.73.57,1.94,1.94,0,0,1,.63,1.52,3,3,0,0,1-.42,1.48,9.35,9.35,0,0,1-1.57,1.85l-1.71,1.68v0h4Z" transform="translate(-0.84 -3.21)" fill="#58595b"/><path d="M484.93,264.06q0,4.6-3.56,4.61a3.65,3.65,0,0,1-1-.11v-.77a3.26,3.26,0,0,0,1,.14,2.38,2.38,0,0,0,1.94-.8,4,4,0,0,0,.72-2.44H484a2,2,0,0,1-.79.68,2.57,2.57,0,0,1-1.1.23,2.22,2.22,0,0,1-1.65-.62,2.39,2.39,0,0,1-.62-1.74,2.68,2.68,0,0,1,.69-1.94,2.41,2.41,0,0,1,1.8-.71,2.45,2.45,0,0,1,1.4.41,2.62,2.62,0,0,1,.92,1.2A4.8,4.8,0,0,1,484.93,264.06Zm-2.64-2.7a1.48,1.48,0,0,0-1.19.49,2.06,2.06,0,0,0-.42,1.37,1.77,1.77,0,0,0,.39,1.22,1.47,1.47,0,0,0,1.18.44,2.11,2.11,0,0,0,.9-.19,1.65,1.65,0,0,0,.64-.55,1.24,1.24,0,0,0,.24-.72,2.43,2.43,0,0,0-.22-1,1.82,1.82,0,0,0-.61-.75A1.6,1.6,0,0,0,482.29,261.36Z" transform="translate(-0.84 -3.21)" fill="#58595b"/><path d="M491.27,264.62a5.7,5.7,0,0,1-.65,3,2.36,2.36,0,0,1-3.89,0,7.39,7.39,0,0,1,0-6.06,2.36,2.36,0,0,1,3.89,0A5.6,5.6,0,0,1,491.27,264.62Zm-4.3,0a5.74,5.74,0,0,0,.41,2.5,1.33,1.33,0,0,0,1.28.78,1.35,1.35,0,0,0,1.29-.79,7.92,7.92,0,0,0,0-5,1.35,1.35,0,0,0-1.29-.78,1.32,1.32,0,0,0-1.28.77A5.69,5.69,0,0,0,487,264.62Z" transform="translate(-0.84 -3.21)" fill="#58595b"/><path d="M510.13,262.55a1.84,1.84,0,0,1-.41,1.23,2,2,0,0,1-1.16.64v.05a2.11,2.11,0,0,1,1.36.6,1.77,1.77,0,0,1,.45,1.26,2.1,2.1,0,0,1-.76,1.73,3.38,3.38,0,0,1-2.15.61,6.36,6.36,0,0,1-1.11-.1,3.48,3.48,0,0,1-1-.33v-.85a4.72,4.72,0,0,0,1.05.39,4.57,4.57,0,0,0,1.06.13c1.32,0,2-.53,2-1.6s-.73-1.43-2.18-1.43h-.75v-.76h.76a2.21,2.21,0,0,0,1.41-.41,1.33,1.33,0,0,0,.52-1.12,1.12,1.12,0,0,0-.38-.91,1.52,1.52,0,0,0-1-.32,2.89,2.89,0,0,0-.94.14,3.83,3.83,0,0,0-1,.51l-.44-.6a3.77,3.77,0,0,1,1.08-.6,4,4,0,0,1,1.29-.22,2.59,2.59,0,0,1,1.73.53A1.78,1.78,0,0,1,510.13,262.55Z" transform="translate(-0.84 -3.21)" fill="#58595b"/><path d="M516.56,264.62a5.83,5.83,0,0,1-.62,3,2.26,2.26,0,0,1-3.78,0,7.6,7.6,0,0,1,0-6.06,2.26,2.26,0,0,1,3.78,0A5.72,5.72,0,0,1,516.56,264.62Zm-4.16,0a6,6,0,0,0,.39,2.5,1.39,1.39,0,0,0,2.5,0,8.11,8.11,0,0,0,0-5,1.4,1.4,0,0,0-2.5,0A5.9,5.9,0,0,0,512.4,264.62Z" transform="translate(-0.84 -3.21)" fill="#58595b"/><path d="M522.67,264.62a5.93,5.93,0,0,1-.62,3,2.26,2.26,0,0,1-3.78,0,5.75,5.75,0,0,1-.64-3,5.88,5.88,0,0,1,.62-3,2.06,2.06,0,0,1,1.89-1,2.09,2.09,0,0,1,1.89,1A5.72,5.72,0,0,1,522.67,264.62Zm-4.16,0a6,6,0,0,0,.39,2.5,1.3,1.3,0,0,0,1.24.78,1.32,1.32,0,0,0,1.26-.79,8.32,8.32,0,0,0,0-5,1.31,1.31,0,0,0-1.26-.78,1.29,1.29,0,0,0-1.24.77A5.9,5.9,0,0,0,518.51,264.62Z" transform="translate(-0.84 -3.21)" fill="#58595b"/><path d="M539.49,263.76a2.91,2.91,0,0,1,2,.62,2.12,2.12,0,0,1,.71,1.68,2.42,2.42,0,0,1-.78,1.91,3,3,0,0,1-2.14.7,3.94,3.94,0,0,1-2-.43v-.86a3.06,3.06,0,0,0,.93.38,4.74,4.74,0,0,0,1.1.14,2.19,2.19,0,0,0,1.47-.45,1.58,1.58,0,0,0,.53-1.29c0-1.09-.67-1.64-2-1.64a7.47,7.47,0,0,0-1.36.16l-.46-.3.29-3.67h3.91v.82h-3.14l-.2,2.36A5.71,5.71,0,0,1,539.49,263.76Z" transform="translate(-0.84 -3.21)" fill="#58595b"/><path d="M548.53,264.62a5.7,5.7,0,0,1-.65,3,2.36,2.36,0,0,1-3.89,0,7.39,7.39,0,0,1,0-6.06,2.36,2.36,0,0,1,3.89,0A5.6,5.6,0,0,1,548.53,264.62Zm-4.3,0a5.74,5.74,0,0,0,.41,2.5,1.44,1.44,0,0,0,2.57,0,7.92,7.92,0,0,0,0-5,1.45,1.45,0,0,0-2.57,0A5.69,5.69,0,0,0,544.23,264.62Z" transform="translate(-0.84 -3.21)" fill="#58595b"/><path d="M554.81,264.62a5.71,5.71,0,0,1-.64,3,2.36,2.36,0,0,1-3.89,0,7.39,7.39,0,0,1,0-6.06,2.36,2.36,0,0,1,3.89,0A5.61,5.61,0,0,1,554.81,264.62Zm-4.29,0a5.74,5.74,0,0,0,.41,2.5,1.33,1.33,0,0,0,1.28.78,1.36,1.36,0,0,0,1.29-.79,7.92,7.92,0,0,0,0-5,1.36,1.36,0,0,0-1.29-.78,1.32,1.32,0,0,0-1.28.77A5.69,5.69,0,0,0,550.52,264.62Z" transform="translate(-0.84 -3.21)" fill="#58595b"/><line x1="339.05" y1="255.33" x2="335.06" y2="251.41" fill="#231f20" stroke="#231f20" stroke-width="0.5"/><line x1="335.88" y1="255.33" x2="331.89" y2="251.41" fill="#231f20" stroke="#231f20" stroke-width="0.5"/><line x1="533.05" y1="255.33" x2="529.06" y2="251.41" fill="#231f20" stroke="#231f20" stroke-width="0.5"/><line x1="529.88" y1="255.33" x2="525.89" y2="251.41" fill="#231f20" stroke="#231f20" stroke-width="0.5"/><path d="M566.33,152.65h-3.62v-9.91l0-1.63.06-1.78c-.6.6-1,1-1.25,1.18l-2,1.58-1.75-2.18,5.52-4.39h3Z" transform="translate(-0.84 -3.21)" fill="#231f20"/><path d="M572.77,152.65l6.44-14.06h-8.45v-3.05h12.29v2.28l-6.48,14.83Z" transform="translate(-0.84 -3.21)" fill="#231f20"/><path d="M584.17,150.17V148.7h3.15v1.47Z" transform="translate(-0.84 -3.21)" fill="#231f20"/><path d="M592.21,152.77a2.17,2.17,0,0,1-1.81-.84h-.1c.07.55.1.86.1.95v2.66h-1.79V146.1h1.45l.26.85h.08a2.07,2.07,0,0,1,1.86-1,2.12,2.12,0,0,1,1.81.9,4.1,4.1,0,0,1,.66,2.49,4.85,4.85,0,0,1-.31,1.82,2.56,2.56,0,0,1-.88,1.18A2.27,2.27,0,0,1,592.21,152.77Zm-.53-5.36a1.12,1.12,0,0,0-1,.41,2.38,2.38,0,0,0-.31,1.34v.19a2.78,2.78,0,0,0,.31,1.52,1.12,1.12,0,0,0,1,.45c.81,0,1.21-.66,1.21-2a2.8,2.8,0,0,0-.3-1.45A1,1,0,0,0,591.68,147.41Z" transform="translate(-0.84 -3.21)" fill="#231f20"/><path d="M602.16,149.37a3.49,3.49,0,0,1-.85,2.5,3.05,3.05,0,0,1-2.35.9,3.35,3.35,0,0,1-1.66-.41,2.78,2.78,0,0,1-1.11-1.19,4.11,4.11,0,0,1-.38-1.8,3.52,3.52,0,0,1,.83-2.5A3.11,3.11,0,0,1,599,146a3.32,3.32,0,0,1,1.66.41,2.7,2.7,0,0,1,1.11,1.18A3.92,3.92,0,0,1,602.16,149.37Zm-4.53,0a2.72,2.72,0,0,0,.32,1.47,1.34,1.34,0,0,0,2.07,0,2.77,2.77,0,0,0,.31-1.47,2.7,2.7,0,0,0-.32-1.46,1.12,1.12,0,0,0-1-.49,1.17,1.17,0,0,0-1,.48A2.75,2.75,0,0,0,597.63,149.37Z" transform="translate(-0.84 -3.21)" fill="#231f20"/><path d="M603.56,144.41c0-.58.32-.87,1-.87s1,.29,1,.87a.87.87,0,0,1-.24.65,1,1,0,0,1-.73.23C603.88,145.29,603.56,145,603.56,144.41Zm1.86,8.24h-1.79V146.1h1.79Z" transform="translate(-0.84 -3.21)" fill="#231f20"/><path d="M613.34,152.65h-1.78v-3.82a1.83,1.83,0,0,0-.26-1.07.91.91,0,0,0-.8-.35,1.2,1.2,0,0,0-1.08.5,3,3,0,0,0-.34,1.66v3.08H607.3V146.1h1.36l.24.84h.1a1.91,1.91,0,0,1,.82-.72A2.86,2.86,0,0,1,611,146a2.25,2.25,0,0,1,1.73.62,2.44,2.44,0,0,1,.59,1.78Z" transform="translate(-0.84 -3.21)" fill="#231f20"/><path d="M617.94,151.35a3.79,3.79,0,0,0,1.13-.21v1.33a4,4,0,0,1-1.64.3,2,2,0,0,1-1.56-.54,2.35,2.35,0,0,1-.49-1.63v-3.16h-.86v-.75l1-.6.51-1.38h1.14v1.39H619v1.34h-1.84v3.16a.66.66,0,0,0,.22.56A.79.79,0,0,0,617.94,151.35Z" transform="translate(-0.84 -3.21)" fill="#231f20"/><path d="M627.62,150.87a1.66,1.66,0,0,1-.64,1.41,3.2,3.2,0,0,1-1.92.48,6,6,0,0,1-1.12-.09,3.91,3.91,0,0,1-.86-.26v-1.35a6.06,6.06,0,0,0,1,.36,4.58,4.58,0,0,0,1,.14c.6,0,.89-.17.89-.51a.48.48,0,0,0-.11-.32,1.8,1.8,0,0,0-.41-.27c-.2-.1-.45-.22-.78-.36a4.28,4.28,0,0,1-1-.54,1.49,1.49,0,0,1-.48-.56,1.89,1.89,0,0,1-.14-.79,1.42,1.42,0,0,1,.62-1.24,3,3,0,0,1,1.75-.43,5,5,0,0,1,2.12.47l-.5,1.18a8.28,8.28,0,0,0-.84-.32,2.72,2.72,0,0,0-.8-.12c-.48,0-.73.13-.73.39a.46.46,0,0,0,.24.38,5.56,5.56,0,0,0,1,.48,5,5,0,0,1,1,.53,1.59,1.59,0,0,1,.48.57A1.68,1.68,0,0,1,627.62,150.87Z" transform="translate(-0.84 -3.21)" fill="#231f20"/><path d="M631.23,152.76c-1.87,0-2.81-1-2.81-3.08a3.28,3.28,0,0,1,.77-2.34,2.83,2.83,0,0,1,2.18-.8,4.18,4.18,0,0,1,1.87.4l-.48,1.27c-.26-.1-.5-.19-.72-.25a2.22,2.22,0,0,0-.67-.1c-.85,0-1.28.6-1.28,1.81s.43,1.76,1.28,1.76a3.07,3.07,0,0,0,.88-.12,3.32,3.32,0,0,0,.8-.4v1.4a2.44,2.44,0,0,1-.8.35A4.18,4.18,0,0,1,631.23,152.76Z" transform="translate(-0.84 -3.21)" fill="#231f20"/><path d="M639.79,149.64a3.24,3.24,0,0,1-.77,2.29,2.83,2.83,0,0,1-2.16.83,3,3,0,0,1-1.52-.38,2.51,2.51,0,0,1-1-1.09,3.71,3.71,0,0,1-.35-1.65,3.24,3.24,0,0,1,.77-2.29,2.83,2.83,0,0,1,2.16-.81,3,3,0,0,1,1.52.37,2.54,2.54,0,0,1,1,1.08A3.71,3.71,0,0,1,639.79,149.64Zm-4.15,0a2.6,2.6,0,0,0,.29,1.35,1.07,1.07,0,0,0,1,.45,1,1,0,0,0,.94-.45,2.55,2.55,0,0,0,.29-1.35,2.52,2.52,0,0,0-.29-1.34,1.06,1.06,0,0,0-1-.44,1,1,0,0,0-1,.44A2.49,2.49,0,0,0,635.64,149.64Z" transform="translate(-0.84 -3.21)" fill="#231f20"/><path d="M644.39,146.54a2.88,2.88,0,0,1,.55,0l-.12,1.54a1.8,1.8,0,0,0-.49-.05,1.73,1.73,0,0,0-1.22.4,1.46,1.46,0,0,0-.44,1.13v3.05H641v-6h1.24l.24,1h.08a2.28,2.28,0,0,1,.75-.82A1.93,1.93,0,0,1,644.39,146.54Z" transform="translate(-0.84 -3.21)" fill="#231f20"/><path d="M648.64,152.76a3.13,3.13,0,0,1-2.27-.8,3,3,0,0,1-.81-2.27,3.35,3.35,0,0,1,.75-2.33,3.08,3.08,0,0,1,4.07-.1,2.74,2.74,0,0,1,.71,2v.8h-3.87a1.54,1.54,0,0,0,.41,1.09,1.46,1.46,0,0,0,1.08.39,4.85,4.85,0,0,0,1-.11,5.87,5.87,0,0,0,1-.36v1.27a4.54,4.54,0,0,1-.92.32A6.61,6.61,0,0,1,648.64,152.76Zm-.23-5.06a1,1,0,0,0-.82.33,1.51,1.51,0,0,0-.34.94h2.3a1.35,1.35,0,0,0-.32-.94A1.06,1.06,0,0,0,648.41,147.7Z" transform="translate(-0.84 -3.21)" fill="#231f20"/><path d="M660.28,146.65v.83l-.94.24a1.58,1.58,0,0,1,.26.9,1.82,1.82,0,0,1-.67,1.51,2.93,2.93,0,0,1-1.87.54l-.3,0-.24,0a.54.54,0,0,0-.25.43c0,.23.3.35.9.35h1a2.26,2.26,0,0,1,1.5.43,1.49,1.49,0,0,1,.52,1.24,1.84,1.84,0,0,1-.87,1.63,4.58,4.58,0,0,1-2.53.58,3.55,3.55,0,0,1-1.92-.43,1.39,1.39,0,0,1-.66-1.23,1.29,1.29,0,0,1,.34-.91,1.91,1.91,0,0,1,1-.52,1.12,1.12,0,0,1-.44-.35.88.88,0,0,1-.19-.52.84.84,0,0,1,.2-.57,2.66,2.66,0,0,1,.58-.45,1.58,1.58,0,0,1-.75-.65,2,2,0,0,1-.28-1.07,1.87,1.87,0,0,1,.64-1.52,2.75,2.75,0,0,1,1.83-.53,4.85,4.85,0,0,1,.6,0l.44.07Zm-4.63,6.85a.6.6,0,0,0,.32.53,1.78,1.78,0,0,0,.91.2,3.07,3.07,0,0,0,1.38-.25.72.72,0,0,0,.5-.66.46.46,0,0,0-.29-.46,2.33,2.33,0,0,0-.91-.13h-.85a1.29,1.29,0,0,0-.76.21A.66.66,0,0,0,655.65,153.5Zm.59-4.89a1.23,1.23,0,0,0,.23.78.8.8,0,0,0,.68.28.78.78,0,0,0,.67-.28,1.23,1.23,0,0,0,.22-.78c0-.72-.3-1.08-.89-1.08S656.24,147.89,656.24,148.61Z" transform="translate(-0.84 -3.21)" fill="#231f20"/><path d="M665,152.65l-.32-.81h0a2.43,2.43,0,0,1-.85.72,2.81,2.81,0,0,1-1.14.2,1.89,1.89,0,0,1-1.36-.49,1.91,1.91,0,0,1-.5-1.41,1.59,1.59,0,0,1,.67-1.41,3.9,3.9,0,0,1,2-.5l1,0v-.26a.81.81,0,0,0-.93-.91,4.28,4.28,0,0,0-1.7.43l-.54-1.1a4.91,4.91,0,0,1,2.3-.55,2.85,2.85,0,0,1,1.85.53,1.94,1.94,0,0,1,.65,1.6v4Zm-.49-2.78-.63,0a2.1,2.1,0,0,0-1.07.26.82.82,0,0,0-.35.72c0,.46.27.69.8.69a1.26,1.26,0,0,0,.91-.33,1.12,1.12,0,0,0,.34-.87Z" transform="translate(-0.84 -3.21)" fill="#231f20"/><path d="M671,152.76a2,2,0,0,1-1.66-.77h-.08c0,.5.08.79.08.87v2.43h-1.64v-8.64H669l.23.78h.07a1.89,1.89,0,0,1,1.71-.89,1.94,1.94,0,0,1,1.66.82,3.79,3.79,0,0,1,.6,2.28,4.46,4.46,0,0,1-.28,1.67,2.44,2.44,0,0,1-.8,1.08A2.06,2.06,0,0,1,671,152.76Zm-.48-4.91a1,1,0,0,0-.89.37,2.22,2.22,0,0,0-.29,1.23v.18a2.53,2.53,0,0,0,.29,1.38,1,1,0,0,0,.91.42c.74,0,1.1-.6,1.1-1.81a2.59,2.59,0,0,0-.27-1.33A.91.91,0,0,0,670.51,147.85Z" transform="translate(-0.84 -3.21)" fill="#231f20"/><line x1="525.28" y1="143.57" x2="545.37" y2="143.64" fill="none" stroke="#231f20" stroke-miterlimit="10" stroke-width="0.5"/><circle cx="546.64" cy="143.76" r="2.72" fill="#fff" stroke="#231f20" stroke-miterlimit="10"/><line x1="525.9" y1="83.98" x2="525.9" y2="200.18" fill="none" stroke="#231f20" stroke-miterlimit="10" stroke-width="0.5"/><line x1="438.84" y1="199.98" x2="525.9" y2="199.98" fill="none" stroke="#231f20" stroke-miterlimit="10" stroke-width="0.5"/><rect x="320.9" y="184.57" width="111.8" height="32.8" fill="#262b69"/><path d="M403.47,211.59H393v-2.21l3.76-3.8c1.12-1.14,1.84-1.94,2.19-2.38a5.29,5.29,0,0,0,.73-1.22,3.17,3.17,0,0,0,.23-1.17,1.7,1.7,0,0,0-.5-1.34,1.89,1.89,0,0,0-1.33-.44,3.9,3.9,0,0,0-1.69.39,8.75,8.75,0,0,0-1.71,1.14l-1.72-2a11.44,11.44,0,0,1,1.83-1.33,6.88,6.88,0,0,1,1.59-.6,8.21,8.21,0,0,1,1.93-.21,5.72,5.72,0,0,1,2.48.51,3.87,3.87,0,0,1,1.67,1.44,3.78,3.78,0,0,1,.6,2.11,5,5,0,0,1-.37,1.94,7.42,7.42,0,0,1-1.12,1.86,26.32,26.32,0,0,1-2.7,2.72l-1.92,1.82v.14h6.53Z" transform="translate(-0.84 -3.21)" fill="#fff"/><path d="M406.25,211.59l5.63-12.31h-7.39v-2.66h10.75v2l-5.67,13Z" transform="translate(-0.84 -3.21)" fill="#fff"/><path d="M422,202a4.84,4.84,0,0,1,3.46,1.22,4.41,4.41,0,0,1,1.28,3.34,4.86,4.86,0,0,1-1.54,3.87,6.55,6.55,0,0,1-4.43,1.35,8.66,8.66,0,0,1-4-.81v-2.74a8.77,8.77,0,0,0,1.88.71,8.42,8.42,0,0,0,2,.27c1.94,0,2.91-.8,2.91-2.38s-1-2.27-3-2.27a7.75,7.75,0,0,0-1.2.11,9.1,9.1,0,0,0-1.07.23l-1.26-.68.57-7.64h8.13v2.69h-5.35l-.28,2.94.36-.07A7.46,7.46,0,0,1,422,202Z" transform="translate(-0.84 -3.21)" fill="#fff"/><path d="M328.76,177.59l-1-2.5h-3.15l-1,2.5h-.92l3.1-7.89h.77l3.09,7.89Zm-1.26-3.32-.91-2.44c-.12-.3-.24-.68-.37-1.13a9.88,9.88,0,0,1-.34,1.13l-.92,2.44Z" transform="translate(-0.84 -3.21)" fill="#231f20"/><path d="M333.39,177.69a2.59,2.59,0,0,1-1.05-.21,2.08,2.08,0,0,1-.8-.65h-.06a8.44,8.44,0,0,1,.06,1v2.42h-.89V171.7h.73l.12.8h0a2,2,0,0,1,.81-.69,2.31,2.31,0,0,1,1-.22,2.19,2.19,0,0,1,1.81.8,3.56,3.56,0,0,1,.64,2.25,3.5,3.5,0,0,1-.65,2.25A2.16,2.16,0,0,1,333.39,177.69Zm-.13-5.34a1.58,1.58,0,0,0-1.3.5,2.56,2.56,0,0,0-.42,1.59v.2a2.89,2.89,0,0,0,.42,1.77,1.56,1.56,0,0,0,1.33.54,1.39,1.39,0,0,0,1.19-.62,2.91,2.91,0,0,0,.43-1.7,2.79,2.79,0,0,0-.43-1.69A1.4,1.4,0,0,0,333.26,172.35Z" transform="translate(-0.84 -3.21)" fill="#231f20"/><path d="M340.13,177.69a2.59,2.59,0,0,1-1.05-.21,2,2,0,0,1-.79-.65h-.07a8.52,8.52,0,0,1,.07,1v2.42h-.9V171.7h.73l.12.8h.05a1.94,1.94,0,0,1,.8-.69,2.31,2.31,0,0,1,1-.22,2.19,2.19,0,0,1,1.81.8,3.56,3.56,0,0,1,.64,2.25,3.5,3.5,0,0,1-.65,2.25A2.16,2.16,0,0,1,340.13,177.69Zm-.13-5.34a1.58,1.58,0,0,0-1.3.5,2.5,2.5,0,0,0-.41,1.59v.2a2.9,2.9,0,0,0,.41,1.77A1.58,1.58,0,0,0,340,177a1.39,1.39,0,0,0,1.19-.62,2.91,2.91,0,0,0,.43-1.7,2.79,2.79,0,0,0-.43-1.69A1.4,1.4,0,0,0,340,172.35Z" transform="translate(-0.84 -3.21)" fill="#231f20"/><path d="M345,177.59h-.9v-8.36h.9Z" transform="translate(-0.84 -3.21)" fill="#231f20"/><path d="M346.84,170.1a.57.57,0,0,1,.15-.44.52.52,0,0,1,.38-.15.53.53,0,0,1,.37.15.57.57,0,0,1,.15.44.61.61,0,0,1-.15.45.53.53,0,0,1-.37.15.52.52,0,0,1-.38-.15A.61.61,0,0,1,346.84,170.1Zm1,7.49h-.89V171.7h.89Z" transform="translate(-0.84 -3.21)" fill="#231f20"/><path d="M352.19,177.69a2.7,2.7,0,0,1-2.06-.79,3.06,3.06,0,0,1-.76-2.21,3.45,3.45,0,0,1,.7-2.26,2.34,2.34,0,0,1,1.89-.84,2.22,2.22,0,0,1,1.75.73,2.78,2.78,0,0,1,.64,1.92v.56H350.3a2.3,2.3,0,0,0,.52,1.58,1.81,1.81,0,0,0,1.4.54,4.85,4.85,0,0,0,1.88-.4v.79a4.06,4.06,0,0,1-.9.29A4.91,4.91,0,0,1,352.19,177.69Zm-.25-5.35a1.45,1.45,0,0,0-1.13.46,2.13,2.13,0,0,0-.49,1.28h3.07a2,2,0,0,0-.37-1.29A1.33,1.33,0,0,0,351.94,172.34Z" transform="translate(-0.84 -3.21)" fill="#231f20"/><path d="M359.88,176.8h-.05a2.11,2.11,0,0,1-1.85.89,2.15,2.15,0,0,1-1.79-.79,3.44,3.44,0,0,1-.65-2.24,3.52,3.52,0,0,1,.65-2.26,2.38,2.38,0,0,1,3.63.06h.07l0-.42,0-.42v-2.39h.89v8.36H360Zm-1.79.15a1.65,1.65,0,0,0,1.33-.5,2.54,2.54,0,0,0,.41-1.6v-.19a2.94,2.94,0,0,0-.42-1.79,1.59,1.59,0,0,0-1.33-.53,1.36,1.36,0,0,0-1.2.61,3.08,3.08,0,0,0-.41,1.72,2.86,2.86,0,0,0,.41,1.7A1.39,1.39,0,0,0,358.09,177Z" transform="translate(-0.84 -3.21)" fill="#231f20"/><path d="M367.37,177a2.32,2.32,0,0,0,.46,0,2.15,2.15,0,0,0,.35-.07v.68a1.51,1.51,0,0,1-.43.12,3.25,3.25,0,0,1-.51,0q-1.71,0-1.71-1.8v-3.5h-.84V172l.84-.37.38-1.26h.51v1.37h1.71v.69h-1.71v3.47a1.18,1.18,0,0,0,.26.81A.88.88,0,0,0,367.37,177Z" transform="translate(-0.84 -3.21)" fill="#231f20"/><path d="M374.43,174.64a3.23,3.23,0,0,1-.72,2.24,2.56,2.56,0,0,1-2,.81,2.64,2.64,0,0,1-1.4-.37,2.38,2.38,0,0,1-.94-1.06,3.58,3.58,0,0,1-.34-1.62,3.27,3.27,0,0,1,.72-2.25,2.57,2.57,0,0,1,2-.8,2.53,2.53,0,0,1,2,.82A3.27,3.27,0,0,1,374.43,174.64Zm-4.48,0a2.82,2.82,0,0,0,.45,1.72,1.78,1.78,0,0,0,2.65,0,2.73,2.73,0,0,0,.46-1.72,2.7,2.7,0,0,0-.46-1.71,1.83,1.83,0,0,0-2.66,0A2.85,2.85,0,0,0,370,174.64Z" transform="translate(-0.84 -3.21)" fill="#231f20"/><path d="M382.47,177.59l-.17-.84h-.05a2.43,2.43,0,0,1-.87.75,2.75,2.75,0,0,1-1.1.19,2,2,0,0,1-1.37-.45,1.65,1.65,0,0,1-.5-1.28c0-1.19.95-1.81,2.86-1.87l1,0v-.37a1.48,1.48,0,0,0-.29-1,1.24,1.24,0,0,0-1-.33,3.88,3.88,0,0,0-1.66.45l-.28-.68a4.45,4.45,0,0,1,2-.51,2.26,2.26,0,0,1,1.56.47,2,2,0,0,1,.5,1.5v4Zm-2-.63a1.81,1.81,0,0,0,1.31-.46,1.71,1.71,0,0,0,.47-1.28v-.53l-.89,0a3.1,3.1,0,0,0-1.53.33,1,1,0,0,0-.47.91,1,1,0,0,0,.29.74A1.27,1.27,0,0,0,380.46,177Z" transform="translate(-0.84 -3.21)" fill="#231f20"/><path d="M389.73,177a2.32,2.32,0,0,0,.46,0,2.15,2.15,0,0,0,.35-.07v.68a1.51,1.51,0,0,1-.43.12,3.25,3.25,0,0,1-.51,0q-1.71,0-1.71-1.8v-3.5h-.84V172l.84-.37.38-1.26h.51v1.37h1.71v.69h-1.71v3.47a1.18,1.18,0,0,0,.26.81A.88.88,0,0,0,389.73,177Z" transform="translate(-0.84 -3.21)" fill="#231f20"/><path d="M396.52,177.59l-1.08-3.46c-.07-.21-.2-.69-.38-1.44H395c-.14.63-.26,1.11-.37,1.45l-1.11,3.45h-1l-1.61-5.89h.94c.37,1.48.66,2.6.86,3.38a13.4,13.4,0,0,1,.34,1.56h.05c0-.2.1-.47.19-.79a7,7,0,0,1,.23-.77l1.08-3.38h1l1,3.38a11,11,0,0,1,.41,1.55h.05a5,5,0,0,1,.11-.6c.06-.26.44-1.71,1.12-4.33h.92l-1.62,5.89Z" transform="translate(-0.84 -3.21)" fill="#231f20"/><path d="M405.35,174.64a3.18,3.18,0,0,1-.73,2.24,2.54,2.54,0,0,1-2,.81,2.62,2.62,0,0,1-1.4-.37,2.46,2.46,0,0,1-1-1.06,3.72,3.72,0,0,1-.33-1.62,3.27,3.27,0,0,1,.72-2.25,2.57,2.57,0,0,1,2-.8,2.51,2.51,0,0,1,2,.82A3.22,3.22,0,0,1,405.35,174.64Zm-4.49,0a2.82,2.82,0,0,0,.45,1.72,1.6,1.6,0,0,0,1.33.59,1.57,1.57,0,0,0,1.33-.59,2.8,2.8,0,0,0,.45-1.72,2.77,2.77,0,0,0-.45-1.71,1.83,1.83,0,0,0-2.66,0A2.78,2.78,0,0,0,400.86,174.64Z" transform="translate(-0.84 -3.21)" fill="#231f20"/><path d="M406.42,175.05v-.82h2.63v.82Z" transform="translate(-0.84 -3.21)" fill="#231f20"/><path d="M409.52,171.7h1l1.29,3.36a13.45,13.45,0,0,1,.53,1.66h0c.05-.19.15-.5.29-.94s.64-1.8,1.46-4.08h1l-2.53,6.7a3.29,3.29,0,0,1-.88,1.41,1.87,1.87,0,0,1-1.23.42,3.72,3.72,0,0,1-.81-.09v-.72a2.73,2.73,0,0,0,.66.07,1.36,1.36,0,0,0,1.31-1l.33-.84Z" transform="translate(-0.84 -3.21)" fill="#231f20"/><path d="M418.48,177.69a2.7,2.7,0,0,1-2.06-.79,3.1,3.1,0,0,1-.75-2.21,3.4,3.4,0,0,1,.7-2.26,2.31,2.31,0,0,1,1.88-.84,2.2,2.2,0,0,1,1.75.73,2.79,2.79,0,0,1,.65,1.92v.56h-4.06a2.35,2.35,0,0,0,.52,1.58,1.82,1.82,0,0,0,1.4.54,4.81,4.81,0,0,0,1.88-.4v.79a3.84,3.84,0,0,1-.89.29A5,5,0,0,1,418.48,177.69Zm-.24-5.35a1.45,1.45,0,0,0-1.13.46,2.13,2.13,0,0,0-.5,1.28h3.08a2,2,0,0,0-.38-1.29A1.31,1.31,0,0,0,418.24,172.34Z" transform="translate(-0.84 -3.21)" fill="#231f20"/><path d="M425.79,177.59l-.18-.84h0a2.53,2.53,0,0,1-.88.75,2.71,2.71,0,0,1-1.1.19,2,2,0,0,1-1.37-.45,1.64,1.64,0,0,1-.49-1.28c0-1.19.95-1.81,2.85-1.87l1,0v-.37a1.48,1.48,0,0,0-.3-1,1.23,1.23,0,0,0-.95-.33,3.88,3.88,0,0,0-1.67.45l-.27-.68a4,4,0,0,1,.95-.37,4.13,4.13,0,0,1,1-.14,2.26,2.26,0,0,1,1.56.47,1.94,1.94,0,0,1,.51,1.5v4Zm-2-.63a1.79,1.79,0,0,0,1.31-.46,1.67,1.67,0,0,0,.47-1.28v-.53l-.89,0a3.13,3.13,0,0,0-1.53.33,1,1,0,0,0-.47.91,1,1,0,0,0,.29.74A1.27,1.27,0,0,0,423.77,177Z" transform="translate(-0.84 -3.21)" fill="#231f20"/><path d="M431,171.59a3,3,0,0,1,.7.07l-.12.82a3.28,3.28,0,0,0-.65-.08,1.6,1.6,0,0,0-1.22.58,2.12,2.12,0,0,0-.51,1.45v3.16h-.89V171.7H429l.1,1.09h0a2.76,2.76,0,0,1,.79-.89A1.85,1.85,0,0,1,431,171.59Z" transform="translate(-0.84 -3.21)" fill="#231f20"/><path d="M438,177.69a2.53,2.53,0,0,1-2-.78,3.29,3.29,0,0,1-.7-2.23,3.35,3.35,0,0,1,.71-2.28,2.58,2.58,0,0,1,2-.81,4,4,0,0,1,.85.09,2.91,2.91,0,0,1,.67.22l-.28.76a3.7,3.7,0,0,0-.64-.2,3,3,0,0,0-.62-.08c-1.19,0-1.79.76-1.79,2.29a2.65,2.65,0,0,0,.44,1.66,1.51,1.51,0,0,0,1.29.59,4,4,0,0,0,1.51-.32v.79A3.27,3.27,0,0,1,438,177.69Z" transform="translate(-0.84 -3.21)" fill="#231f20"/><path d="M446,174.64a3.18,3.18,0,0,1-.73,2.24,2.54,2.54,0,0,1-2,.81,2.62,2.62,0,0,1-1.4-.37,2.46,2.46,0,0,1-.95-1.06,3.72,3.72,0,0,1-.33-1.62,3.27,3.27,0,0,1,.72-2.25,2.57,2.57,0,0,1,2-.8,2.51,2.51,0,0,1,2,.82A3.22,3.22,0,0,1,446,174.64Zm-4.49,0a2.75,2.75,0,0,0,.46,1.72,1.78,1.78,0,0,0,2.65,0,2.8,2.8,0,0,0,.46-1.72,2.77,2.77,0,0,0-.46-1.71,1.83,1.83,0,0,0-2.66,0A2.78,2.78,0,0,0,441.46,174.64Z" transform="translate(-0.84 -3.21)" fill="#231f20"/><path d="M448.4,177.59h-.89v-8.36h.89Z" transform="translate(-0.84 -3.21)" fill="#231f20"/><path d="M451.19,177.59h-.9v-8.36h.9Z" transform="translate(-0.84 -3.21)" fill="#231f20"/><path d="M455.56,177.69a2.71,2.71,0,0,1-2.06-.79,3.1,3.1,0,0,1-.75-2.21,3.4,3.4,0,0,1,.7-2.26,2.32,2.32,0,0,1,1.88-.84,2.2,2.2,0,0,1,1.75.73,2.79,2.79,0,0,1,.65,1.92v.56h-4.06a2.36,2.36,0,0,0,.53,1.58,1.79,1.79,0,0,0,1.4.54,4.76,4.76,0,0,0,1.87-.4v.79a3.84,3.84,0,0,1-.89.29A5,5,0,0,1,455.56,177.69Zm-.24-5.35a1.45,1.45,0,0,0-1.13.46,2.13,2.13,0,0,0-.5,1.28h3.08a2,2,0,0,0-.37-1.29A1.34,1.34,0,0,0,455.32,172.34Z" transform="translate(-0.84 -3.21)" fill="#231f20"/><path d="M464.07,171.7v.56l-1.09.13a1.73,1.73,0,0,1,.26.49,1.88,1.88,0,0,1,.12.69,1.71,1.71,0,0,1-.59,1.38,2.38,2.38,0,0,1-1.62.51,2.49,2.49,0,0,1-.49,0,.89.89,0,0,0-.57.76.38.38,0,0,0,.2.36,1.52,1.52,0,0,0,.68.11h1a2.38,2.38,0,0,1,1.47.4,1.41,1.41,0,0,1,.51,1.18,1.68,1.68,0,0,1-.78,1.49,4.25,4.25,0,0,1-2.29.51,3.08,3.08,0,0,1-1.78-.43,1.39,1.39,0,0,1-.63-1.22,1.35,1.35,0,0,1,.35-.92,1.72,1.72,0,0,1,1-.54.93.93,0,0,1-.38-.31.87.87,0,0,1-.15-.5,1,1,0,0,1,.17-.57,1.88,1.88,0,0,1,.55-.46,1.6,1.6,0,0,1-.75-.64,2.11,2.11,0,0,1,.29-2.52,2.39,2.39,0,0,1,1.65-.53,3,3,0,0,1,.83.11Zm-4.7,6.87a.83.83,0,0,0,.4.73,2.3,2.3,0,0,0,1.16.25,3.24,3.24,0,0,0,1.66-.34,1,1,0,0,0,.54-.91.72.72,0,0,0-.29-.66,2.24,2.24,0,0,0-1.12-.19h-1.06a1.44,1.44,0,0,0-1,.29A1,1,0,0,0,459.37,178.57Zm.49-5a1.2,1.2,0,0,0,.34.94,1.43,1.43,0,0,0,1,.32,1.14,1.14,0,0,0,1.3-1.27,1.17,1.17,0,0,0-1.32-1.33,1.3,1.3,0,0,0-1,.34A1.39,1.39,0,0,0,459.86,173.58Z" transform="translate(-0.84 -3.21)" fill="#231f20"/><path d="M467.76,177.69a2.7,2.7,0,0,1-2.06-.79,3.1,3.1,0,0,1-.75-2.21,3.4,3.4,0,0,1,.7-2.26,2.32,2.32,0,0,1,1.88-.84,2.2,2.2,0,0,1,1.75.73,2.79,2.79,0,0,1,.65,1.92v.56h-4.06a2.35,2.35,0,0,0,.52,1.58,1.82,1.82,0,0,0,1.4.54,4.81,4.81,0,0,0,1.88-.4v.79a3.84,3.84,0,0,1-.89.29A5,5,0,0,1,467.76,177.69Zm-.24-5.35a1.45,1.45,0,0,0-1.13.46,2.13,2.13,0,0,0-.5,1.28H469a2,2,0,0,0-.38-1.29A1.31,1.31,0,0,0,467.52,172.34Z" transform="translate(-0.84 -3.21)" fill="#231f20"/><line x1="493.5" y1="83.98" x2="525.9" y2="83.98" fill="none" stroke="#231f20" stroke-miterlimit="10" stroke-width="0.5"/><rect x="320.84" y="68.57" width="166.53" height="32.8" fill="#00aeef"/><path d="M458.47,96.59H448V94.38l3.76-3.8c1.12-1.14,1.84-1.94,2.19-2.38a5.29,5.29,0,0,0,.73-1.22,3.17,3.17,0,0,0,.23-1.17,1.7,1.7,0,0,0-.5-1.34,1.89,1.89,0,0,0-1.33-.44,3.9,3.9,0,0,0-1.69.39,8.75,8.75,0,0,0-1.71,1.14l-1.72-2a11.44,11.44,0,0,1,1.83-1.33,6.88,6.88,0,0,1,1.59-.6,8.21,8.21,0,0,1,1.93-.21,5.72,5.72,0,0,1,2.48.51,3.87,3.87,0,0,1,1.67,1.44,3.78,3.78,0,0,1,.6,2.11,5,5,0,0,1-.37,1.94,7.42,7.42,0,0,1-1.12,1.86,26.32,26.32,0,0,1-2.7,2.72l-1.92,1.82v.14h6.53Z" transform="translate(-0.84 -3.21)" fill="#fff"/><path d="M470.18,88c0,3-.62,5.16-1.86,6.62a7.05,7.05,0,0,1-5.65,2.18,11.1,11.1,0,0,1-2-.14V94.1a7,7,0,0,0,1.8.22,6.4,6.4,0,0,0,2.62-.47,3.3,3.3,0,0,0,1.56-1.46,6.32,6.32,0,0,0,.63-2.76h-.12A3.51,3.51,0,0,1,465.76,91a4.34,4.34,0,0,1-1.95.39,3.92,3.92,0,0,1-3.08-1.26,5.05,5.05,0,0,1-1.13-3.49A5.22,5.22,0,0,1,461,82.82a5,5,0,0,1,3.73-1.4,5.36,5.36,0,0,1,2.9.78,5,5,0,0,1,1.92,2.26A8.65,8.65,0,0,1,470.18,88Zm-5.42-4a1.88,1.88,0,0,0-1.54.68,3,3,0,0,0-.55,2,2.67,2.67,0,0,0,.5,1.72,1.8,1.8,0,0,0,1.53.64,2.36,2.36,0,0,0,1.65-.63,1.91,1.91,0,0,0,.68-1.45,3.32,3.32,0,0,0-.64-2.07A2,2,0,0,0,464.76,84Z" transform="translate(-0.84 -3.21)" fill="#fff"/><path d="M482,96.59H471.54V94.38l3.76-3.8c1.12-1.14,1.85-1.94,2.19-2.38a5.37,5.37,0,0,0,.74-1.22,3.15,3.15,0,0,0,.22-1.17,1.69,1.69,0,0,0-.49-1.34,1.93,1.93,0,0,0-1.33-.44,3.87,3.87,0,0,0-1.69.39,9.11,9.11,0,0,0-1.72,1.14l-1.72-2a11,11,0,0,1,1.84-1.33,6.55,6.55,0,0,1,1.59-.6,8.06,8.06,0,0,1,1.92-.21,5.69,5.69,0,0,1,2.48.51A4,4,0,0,1,481,83.33a3.85,3.85,0,0,1,.59,2.11,5.19,5.19,0,0,1-.36,1.94,7.47,7.47,0,0,1-1.13,1.86A27,27,0,0,1,477.42,92l-1.93,1.82v.14H482Z" transform="translate(-0.84 -3.21)" fill="#fff"/><path d="M330.09,57.58a4,4,0,0,1-1,3,4.2,4.2,0,0,1-3,1h-2.17V53.73h2.4a3.52,3.52,0,0,1,3.86,3.85Zm-1,0a3.18,3.18,0,0,0-.77-2.32,3.1,3.1,0,0,0-2.29-.78h-1.33V60.8h1.11a3.38,3.38,0,0,0,2.46-.81A3.18,3.18,0,0,0,329.13,57.62Z" transform="translate(-0.84 -3.21)" fill="#231f20"/><path d="M331.64,54.1a.57.57,0,0,1,.15-.44.53.53,0,0,1,.74,0,.54.54,0,0,1,.16.44.58.58,0,0,1-.16.45.53.53,0,0,1-.74,0A.61.61,0,0,1,331.64,54.1Zm1,7.49h-.89V55.7h.89Z" transform="translate(-0.84 -3.21)" fill="#231f20"/><path d="M338.5,60.8h-.05a2.11,2.11,0,0,1-1.85.89,2.17,2.17,0,0,1-1.79-.79,3.44,3.44,0,0,1-.64-2.24,3.52,3.52,0,0,1,.64-2.26,2.16,2.16,0,0,1,1.79-.81,2.14,2.14,0,0,1,1.84.87h.07l0-.42,0-.42V53.23h.89v8.36h-.72Zm-1.78.15a1.61,1.61,0,0,0,1.32-.5,2.54,2.54,0,0,0,.41-1.6v-.19a3,3,0,0,0-.41-1.79,1.6,1.6,0,0,0-1.33-.53,1.34,1.34,0,0,0-1.2.61,3,3,0,0,0-.42,1.72,2.94,2.94,0,0,0,.41,1.7A1.4,1.4,0,0,0,336.72,61Z" transform="translate(-0.84 -3.21)" fill="#231f20"/><path d="M345.26,61.59V57.78a1.6,1.6,0,0,0-.32-1.08,1.38,1.38,0,0,0-1-.35,1.68,1.68,0,0,0-1.35.5,2.49,2.49,0,0,0-.43,1.65v3.09h-.9V55.7H342l.14.8h0a1.8,1.8,0,0,1,.77-.67,2.47,2.47,0,0,1,1.1-.24,2.24,2.24,0,0,1,1.6.51,2.2,2.2,0,0,1,.53,1.65v3.84Z" transform="translate(-0.84 -3.21)" fill="#231f20"/><path d="M348.7,53.73l.08.12c-.09.36-.23.78-.4,1.25s-.36.92-.55,1.32h-.66a25.3,25.3,0,0,0,.55-2.69Z" transform="translate(-0.84 -3.21)" fill="#231f20"/><path d="M351.76,61a2.22,2.22,0,0,0,.45,0,1.77,1.77,0,0,0,.35-.07v.68a1.43,1.43,0,0,1-.42.12,3.25,3.25,0,0,1-.51,0q-1.71,0-1.71-1.8v-3.5h-.84V56l.84-.37.38-1.26h.51V55.7h1.71v.69h-1.71v3.47a1.22,1.22,0,0,0,.25.81A.89.89,0,0,0,351.76,61Z" transform="translate(-0.84 -3.21)" fill="#231f20"/><path d="M360.22,61.59l-.18-.84h0a2.53,2.53,0,0,1-.88.75,2.71,2.71,0,0,1-1.1.19,2,2,0,0,1-1.37-.45,1.64,1.64,0,0,1-.49-1.28c0-1.19.95-1.81,2.85-1.87l1,0v-.37a1.48,1.48,0,0,0-.3-1,1.24,1.24,0,0,0-1-.33,3.88,3.88,0,0,0-1.66.45l-.27-.68a4,4,0,0,1,.95-.37,4.07,4.07,0,0,1,1-.14,2.26,2.26,0,0,1,1.56.47,1.94,1.94,0,0,1,.51,1.5v4Zm-2-.63a1.79,1.79,0,0,0,1.31-.46,1.67,1.67,0,0,0,.47-1.28v-.53l-.89,0a3.1,3.1,0,0,0-1.53.33,1,1,0,0,0-.47.91,1,1,0,0,0,.29.74A1.27,1.27,0,0,0,358.2,61Z" transform="translate(-0.84 -3.21)" fill="#231f20"/><path d="M365.45,61.69a2.59,2.59,0,0,1-1.05-.21,2.08,2.08,0,0,1-.8-.65h-.06a8.44,8.44,0,0,1,.06,1v2.42h-.89V55.7h.73l.12.8h0a2,2,0,0,1,.81-.69,2.31,2.31,0,0,1,1-.22,2.19,2.19,0,0,1,1.81.8,3.56,3.56,0,0,1,.64,2.25,3.52,3.52,0,0,1-.65,2.25A2.16,2.16,0,0,1,365.45,61.69Zm-.13-5.34a1.58,1.58,0,0,0-1.3.5,2.56,2.56,0,0,0-.42,1.59v.2a2.89,2.89,0,0,0,.42,1.77,1.56,1.56,0,0,0,1.33.54,1.39,1.39,0,0,0,1.19-.62,2.91,2.91,0,0,0,.43-1.7,2.79,2.79,0,0,0-.43-1.69A1.4,1.4,0,0,0,365.32,56.35Z" transform="translate(-0.84 -3.21)" fill="#231f20"/><path d="M372.19,61.69a2.59,2.59,0,0,1-1.05-.21,2,2,0,0,1-.79-.65h-.07a8.52,8.52,0,0,1,.07,1v2.42h-.9V55.7h.73l.12.8h.05a2,2,0,0,1,.8-.69,2.31,2.31,0,0,1,1-.22,2.19,2.19,0,0,1,1.81.8,3.56,3.56,0,0,1,.64,2.25,3.52,3.52,0,0,1-.65,2.25A2.16,2.16,0,0,1,372.19,61.69Zm-.13-5.34a1.58,1.58,0,0,0-1.3.5,2.5,2.5,0,0,0-.41,1.59v.2a2.9,2.9,0,0,0,.41,1.77,1.58,1.58,0,0,0,1.33.54,1.39,1.39,0,0,0,1.19-.62,2.91,2.91,0,0,0,.43-1.7,2.79,2.79,0,0,0-.43-1.69A1.4,1.4,0,0,0,372.06,56.35Z" transform="translate(-0.84 -3.21)" fill="#231f20"/><path d="M377.09,61.59h-.89V53.23h.89Z" transform="translate(-0.84 -3.21)" fill="#231f20"/><path d="M378,55.7h1l1.29,3.36a11.49,11.49,0,0,1,.52,1.66h.05a9.84,9.84,0,0,1,.29-.94c.15-.44.63-1.8,1.46-4.08h.95L381,62.4a3.42,3.42,0,0,1-.87,1.41,1.88,1.88,0,0,1-1.24.42,3.57,3.57,0,0,1-.8-.09v-.72a2.62,2.62,0,0,0,.66.07,1.37,1.37,0,0,0,1.31-1l.33-.84Z" transform="translate(-0.84 -3.21)" fill="#231f20"/><path d="M389.28,61a2.15,2.15,0,0,0,.45,0,1.77,1.77,0,0,0,.35-.07v.68a1.43,1.43,0,0,1-.42.12,3.25,3.25,0,0,1-.51,0q-1.71,0-1.71-1.8v-3.5h-.84V56l.84-.37.38-1.26h.51V55.7H390v.69h-1.71v3.47a1.18,1.18,0,0,0,.26.81A.85.85,0,0,0,389.28,61Z" transform="translate(-0.84 -3.21)" fill="#231f20"/><path d="M396.34,58.64a3.23,3.23,0,0,1-.72,2.24,2.56,2.56,0,0,1-2,.81,2.64,2.64,0,0,1-1.4-.37,2.38,2.38,0,0,1-.94-1.06,3.58,3.58,0,0,1-.34-1.62,3.27,3.27,0,0,1,.72-2.25,2.57,2.57,0,0,1,2-.8,2.51,2.51,0,0,1,2,.82A3.22,3.22,0,0,1,396.34,58.64Zm-4.48,0a2.82,2.82,0,0,0,.45,1.72,1.78,1.78,0,0,0,2.65,0,2.73,2.73,0,0,0,.46-1.72,2.7,2.7,0,0,0-.46-1.71,1.83,1.83,0,0,0-2.66,0A2.85,2.85,0,0,0,391.86,58.64Z" transform="translate(-0.84 -3.21)" fill="#231f20"/><path d="M404.38,61.59l-.17-.84h0a2.37,2.37,0,0,1-.88.75,2.66,2.66,0,0,1-1.09.19,2,2,0,0,1-1.37-.45,1.65,1.65,0,0,1-.5-1.28c0-1.19.95-1.81,2.85-1.87l1,0v-.37a1.48,1.48,0,0,0-.3-1,1.2,1.2,0,0,0-.95-.33,3.88,3.88,0,0,0-1.66.45l-.28-.68a4.45,4.45,0,0,1,2-.51,2.27,2.27,0,0,1,1.57.47,2,2,0,0,1,.5,1.5v4Zm-2-.63a1.81,1.81,0,0,0,1.31-.46,1.71,1.71,0,0,0,.47-1.28v-.53l-.89,0a3.1,3.1,0,0,0-1.53.33,1,1,0,0,0-.47.91.92.92,0,0,0,.29.74A1.25,1.25,0,0,0,402.37,61Z" transform="translate(-0.84 -3.21)" fill="#231f20"/><path d="M411.64,61a2.15,2.15,0,0,0,.45,0,1.77,1.77,0,0,0,.35-.07v.68a1.34,1.34,0,0,1-.42.12,3.25,3.25,0,0,1-.51,0q-1.71,0-1.71-1.8v-3.5H409V56l.84-.37.38-1.26h.51V55.7h1.71v.69h-1.71v3.47a1.18,1.18,0,0,0,.26.81A.85.85,0,0,0,411.64,61Z" transform="translate(-0.84 -3.21)" fill="#231f20"/><path d="M418.43,61.59l-1.08-3.46c-.07-.21-.2-.69-.38-1.44h-.05c-.14.63-.26,1.11-.37,1.45l-1.11,3.45h-1L412.8,55.7h.93l.87,3.38a13.4,13.4,0,0,1,.34,1.56H415a7.17,7.17,0,0,1,.19-.79c.08-.33.16-.58.22-.77l1.08-3.38h1l1.05,3.38a11,11,0,0,1,.41,1.55h0a5,5,0,0,1,.11-.6c.06-.26.44-1.71,1.12-4.33h.92l-1.62,5.89Z" transform="translate(-0.84 -3.21)" fill="#231f20"/><path d="M427.26,58.64a3.18,3.18,0,0,1-.73,2.24,2.54,2.54,0,0,1-2,.81,2.62,2.62,0,0,1-1.4-.37,2.4,2.4,0,0,1-.95-1.06,3.72,3.72,0,0,1-.33-1.62,3.27,3.27,0,0,1,.72-2.25,2.55,2.55,0,0,1,2-.8,2.52,2.52,0,0,1,2,.82A3.22,3.22,0,0,1,427.26,58.64Zm-4.49,0a2.82,2.82,0,0,0,.45,1.72,1.79,1.79,0,0,0,2.66,0,2.8,2.8,0,0,0,.45-1.72,2.77,2.77,0,0,0-.45-1.71,1.83,1.83,0,0,0-2.66,0A2.78,2.78,0,0,0,422.77,58.64Z" transform="translate(-0.84 -3.21)" fill="#231f20"/><path d="M428.33,59.05v-.82H431v.82Z" transform="translate(-0.84 -3.21)" fill="#231f20"/><path d="M431.43,55.7h.95l1.29,3.36a13.45,13.45,0,0,1,.53,1.66h0c.05-.19.14-.5.29-.94s.64-1.8,1.46-4.08h1l-2.53,6.7a3.42,3.42,0,0,1-.88,1.41,1.87,1.87,0,0,1-1.23.42,3.66,3.66,0,0,1-.81-.09v-.72a2.73,2.73,0,0,0,.66.07,1.37,1.37,0,0,0,1.31-1l.33-.84Z" transform="translate(-0.84 -3.21)" fill="#231f20"/><path d="M440.39,61.69a2.7,2.7,0,0,1-2.06-.79,3.1,3.1,0,0,1-.75-2.21,3.4,3.4,0,0,1,.7-2.26,2.31,2.31,0,0,1,1.88-.84,2.2,2.2,0,0,1,1.75.73,2.77,2.77,0,0,1,.64,1.92v.56H438.5a2.37,2.37,0,0,0,.52,1.58,1.8,1.8,0,0,0,1.4.53,4.8,4.8,0,0,0,1.88-.39v.79a3.84,3.84,0,0,1-.89.29A5,5,0,0,1,440.39,61.69Zm-.24-5.35a1.45,1.45,0,0,0-1.13.46,2.13,2.13,0,0,0-.5,1.28h3.08a2,2,0,0,0-.38-1.29A1.32,1.32,0,0,0,440.15,56.34Z" transform="translate(-0.84 -3.21)" fill="#231f20"/><path d="M447.69,61.59l-.17-.84h0a2.43,2.43,0,0,1-.87.75,2.75,2.75,0,0,1-1.1.19,2,2,0,0,1-1.37-.45,1.65,1.65,0,0,1-.5-1.28c0-1.19.95-1.81,2.86-1.87l1,0v-.37a1.48,1.48,0,0,0-.29-1,1.24,1.24,0,0,0-1-.33,3.88,3.88,0,0,0-1.66.45l-.28-.68a4.45,4.45,0,0,1,2-.51,2.26,2.26,0,0,1,1.56.47,1.94,1.94,0,0,1,.51,1.5v4Zm-2-.63A1.79,1.79,0,0,0,447,60.5a1.71,1.71,0,0,0,.47-1.28v-.53l-.89,0a3.1,3.1,0,0,0-1.53.33,1,1,0,0,0-.47.91,1,1,0,0,0,.29.74A1.27,1.27,0,0,0,445.68,61Z" transform="translate(-0.84 -3.21)" fill="#231f20"/><path d="M452.88,55.59a3,3,0,0,1,.7.07l-.12.82a3.37,3.37,0,0,0-.65-.08,1.6,1.6,0,0,0-1.22.58,2.12,2.12,0,0,0-.51,1.45v3.16h-.89V55.7h.74l.1,1.09h0a2.65,2.65,0,0,1,.79-.89A1.85,1.85,0,0,1,452.88,55.59Z" transform="translate(-0.84 -3.21)" fill="#231f20"/><path d="M459.89,61.69a2.53,2.53,0,0,1-2-.78,3.29,3.29,0,0,1-.7-2.23,3.35,3.35,0,0,1,.71-2.28,2.56,2.56,0,0,1,2-.81,4.09,4.09,0,0,1,.85.09,2.91,2.91,0,0,1,.67.22l-.28.76a3.7,3.7,0,0,0-.64-.2,3,3,0,0,0-.62-.08c-1.2,0-1.79.76-1.79,2.29a2.71,2.71,0,0,0,.43,1.66,1.53,1.53,0,0,0,1.3.58,4,4,0,0,0,1.51-.31v.79A3.27,3.27,0,0,1,459.89,61.69Z" transform="translate(-0.84 -3.21)" fill="#231f20"/><path d="M467.86,58.64a3.18,3.18,0,0,1-.73,2.24,2.54,2.54,0,0,1-2,.81,2.62,2.62,0,0,1-1.4-.37,2.4,2.4,0,0,1-1-1.06,3.72,3.72,0,0,1-.33-1.62,3.27,3.27,0,0,1,.72-2.25,2.57,2.57,0,0,1,2-.8,2.51,2.51,0,0,1,2,.82A3.22,3.22,0,0,1,467.86,58.64Zm-4.49,0a2.82,2.82,0,0,0,.45,1.72,1.6,1.6,0,0,0,1.33.59,1.57,1.57,0,0,0,1.33-.59,2.8,2.8,0,0,0,.45-1.72,2.77,2.77,0,0,0-.45-1.71,1.83,1.83,0,0,0-2.66,0A2.78,2.78,0,0,0,463.37,58.64Z" transform="translate(-0.84 -3.21)" fill="#231f20"/><path d="M470.31,61.59h-.89V53.23h.89Z" transform="translate(-0.84 -3.21)" fill="#231f20"/><path d="M473.09,61.59h-.89V53.23h.89Z" transform="translate(-0.84 -3.21)" fill="#231f20"/><path d="M477.47,61.69a2.71,2.71,0,0,1-2.06-.79,3.1,3.1,0,0,1-.75-2.21,3.4,3.4,0,0,1,.7-2.26,2.32,2.32,0,0,1,1.88-.84,2.2,2.2,0,0,1,1.75.73,2.77,2.77,0,0,1,.65,1.92v.56h-4.06a2.32,2.32,0,0,0,.53,1.58,1.78,1.78,0,0,0,1.39.53,4.8,4.8,0,0,0,1.88-.39v.79a3.84,3.84,0,0,1-.89.29A5,5,0,0,1,477.47,61.69Zm-.24-5.35a1.45,1.45,0,0,0-1.13.46,2.13,2.13,0,0,0-.5,1.28h3.08a1.91,1.91,0,0,0-.38-1.29A1.31,1.31,0,0,0,477.23,56.34Z" transform="translate(-0.84 -3.21)" fill="#231f20"/><path d="M486,55.7v.56l-1.09.13a2,2,0,0,1,.27.49,1.88,1.88,0,0,1,.12.69,1.76,1.76,0,0,1-.59,1.38,2.38,2.38,0,0,1-1.62.51,2.67,2.67,0,0,1-.5,0,.87.87,0,0,0-.57.76.4.4,0,0,0,.2.36,1.6,1.6,0,0,0,.69.11h1a2.42,2.42,0,0,1,1.47.4,1.41,1.41,0,0,1,.51,1.18,1.68,1.68,0,0,1-.78,1.49,4.25,4.25,0,0,1-2.29.51,3.08,3.08,0,0,1-1.78-.43,1.46,1.46,0,0,1-.29-2.14,1.78,1.78,0,0,1,1-.54.86.86,0,0,1-.53-.81,1,1,0,0,1,.17-.57,2,2,0,0,1,.54-.46,1.63,1.63,0,0,1-.74-.64,2.11,2.11,0,0,1,.29-2.52,2.39,2.39,0,0,1,1.65-.53,3.09,3.09,0,0,1,.83.11Zm-4.69,6.87a.81.81,0,0,0,.4.73,2.3,2.3,0,0,0,1.16.25,3.24,3.24,0,0,0,1.66-.34,1,1,0,0,0,.54-.91.71.71,0,0,0-.3-.66,2.17,2.17,0,0,0-1.11-.19h-1.07a1.41,1.41,0,0,0-.94.29A1,1,0,0,0,481.28,62.57Zm.48-5a1.21,1.21,0,0,0,.35.94,1.4,1.4,0,0,0,1,.32,1.14,1.14,0,0,0,1.31-1.27,1.17,1.17,0,0,0-1.32-1.33,1.3,1.3,0,0,0-1,.34A1.39,1.39,0,0,0,481.76,57.58Z" transform="translate(-0.84 -3.21)" fill="#231f20"/><path d="M489.67,61.69a2.7,2.7,0,0,1-2.06-.79,3.1,3.1,0,0,1-.75-2.21,3.4,3.4,0,0,1,.7-2.26,2.31,2.31,0,0,1,1.88-.84,2.2,2.2,0,0,1,1.75.73,2.77,2.77,0,0,1,.64,1.92v.56h-4.05a2.37,2.37,0,0,0,.52,1.58,1.8,1.8,0,0,0,1.4.53,4.8,4.8,0,0,0,1.88-.39v.79a3.84,3.84,0,0,1-.89.29A5,5,0,0,1,489.67,61.69Zm-.24-5.35a1.45,1.45,0,0,0-1.13.46,2.13,2.13,0,0,0-.5,1.28h3.08a2,2,0,0,0-.38-1.29A1.32,1.32,0,0,0,489.43,56.34Z" transform="translate(-0.84 -3.21)" fill="#231f20"/><path d="M330,20.39l-1-2.78h-3.82l-1,2.78h-1.72l3.74-10H328l3.74,10Zm-1.43-4.19-.94-2.72c-.06-.18-.16-.47-.28-.86s-.2-.68-.25-.86a14.54,14.54,0,0,1-.54,1.84l-.9,2.6Z" transform="translate(-0.84 -3.21)" fill="#231f20"/><path d="M338.76,10.39h1.69l-3.5,10h-1.72l-3.48-10h1.68l2.08,6.22a10.83,10.83,0,0,1,.35,1.14c.12.47.2.82.24,1q.09-.51.27-1.2c.13-.46.23-.79.3-1Z" transform="translate(-0.84 -3.21)" fill="#231f20"/><path d="M347.43,20.39h-5.66v-10h5.66v1.38h-4v2.72h3.76v1.37h-3.76V19h4Z" transform="translate(-0.84 -3.21)" fill="#231f20"/><path d="M351.22,16.39v4h-1.63v-10h2.82a4.58,4.58,0,0,1,2.86.73,2.56,2.56,0,0,1,.93,2.18A2.71,2.71,0,0,1,354.26,16l2.83,4.43h-1.86l-2.4-4Zm0-1.35h1.14a2.59,2.59,0,0,0,1.65-.42,1.55,1.55,0,0,0,.51-1.26,1.35,1.35,0,0,0-.55-1.22,3.11,3.11,0,0,0-1.67-.37h-1.08Z" transform="translate(-0.84 -3.21)" fill="#231f20"/><path d="M364.74,20.39l-1-2.78h-3.82l-1,2.78h-1.72l3.74-10h1.77l3.74,10Zm-1.43-4.19-.94-2.72c-.07-.18-.16-.47-.28-.86s-.21-.68-.25-.86a18.82,18.82,0,0,1-.54,1.84l-.9,2.6Z" transform="translate(-0.84 -3.21)" fill="#231f20"/><path d="M371.88,15h3.68v5a10,10,0,0,1-1.74.42,12.5,12.5,0,0,1-1.79.12,4.49,4.49,0,0,1-3.5-1.34,5.4,5.4,0,0,1-1.23-3.79,5,5,0,0,1,1.39-3.78,5.2,5.2,0,0,1,3.82-1.36,7.51,7.51,0,0,1,3,.6l-.58,1.36a5.81,5.81,0,0,0-2.43-.56,3.28,3.28,0,0,0-2.53,1A3.87,3.87,0,0,0,369,15.4a4.1,4.1,0,0,0,.84,2.79,3,3,0,0,0,2.41.95,7.46,7.46,0,0,0,1.69-.2V16.37h-2.07Z" transform="translate(-0.84 -3.21)" fill="#231f20"/><path d="M383.61,20.39H378v-10h5.65v1.38h-4v2.72h3.77v1.37h-3.77V19h4Z" transform="translate(-0.84 -3.21)" fill="#231f20"/><path d="M391,16.39v4h-1.63v-10h2.82a4.58,4.58,0,0,1,2.86.73A2.59,2.59,0,0,1,396,13.3,2.71,2.71,0,0,1,394.08,16l2.83,4.43h-1.86l-2.4-4ZM391,15h1.14a2.59,2.59,0,0,0,1.65-.42,1.55,1.55,0,0,0,.51-1.26,1.35,1.35,0,0,0-.55-1.22,3.11,3.11,0,0,0-1.67-.37H391Z" transform="translate(-0.84 -3.21)" fill="#231f20"/><path d="M404,20.39h-5.66v-10H404v1.38h-4v2.72h3.77v1.37H400V19h4Z" transform="translate(-0.84 -3.21)" fill="#231f20"/><path d="M412.37,20.39l-1-2.78h-3.82l-1,2.78h-1.72l3.74-10h1.78l3.73,10Zm-1.43-4.19L410,13.48c-.06-.18-.16-.47-.28-.86s-.2-.68-.25-.86a14.54,14.54,0,0,1-.54,1.84l-.9,2.6Z" transform="translate(-0.84 -3.21)" fill="#231f20"/><path d="M423.55,15.29a5,5,0,0,1-1.37,3.79,5.55,5.55,0,0,1-4,1.31h-2.8v-10h3.09a5.13,5.13,0,0,1,3.72,1.29A4.8,4.8,0,0,1,423.55,15.29Zm-1.72.06q0-3.58-3.36-3.59h-1.41V19h1.16Q421.84,19,421.83,15.35Z" transform="translate(-0.84 -3.21)" fill="#231f20"/><path d="M425.7,20.39v-10h1.63v10Z" transform="translate(-0.84 -3.21)" fill="#231f20"/><path d="M438.3,20.39h-2l-4.91-8h-.06l0,.45c.06.84.09,1.62.09,2.32v5.2H430v-10h2l4.9,7.93h0c0-.11,0-.49-.06-1.15s0-1.17,0-1.54V10.39h1.5Z" transform="translate(-0.84 -3.21)" fill="#231f20"/><path d="M445,15h3.68v5a10.09,10.09,0,0,1-1.73.42,12.54,12.54,0,0,1-1.8.12,4.49,4.49,0,0,1-3.5-1.34,5.4,5.4,0,0,1-1.23-3.79,5.08,5.08,0,0,1,1.39-3.78,5.22,5.22,0,0,1,3.82-1.36,7.44,7.44,0,0,1,3,.6l-.57,1.36a5.89,5.89,0,0,0-2.44-.56,3.29,3.29,0,0,0-2.53,1,3.87,3.87,0,0,0-.93,2.74,4.1,4.1,0,0,0,.84,2.79,3.05,3.05,0,0,0,2.41.95,7.54,7.54,0,0,0,1.7-.2V16.37H445Z" transform="translate(-0.84 -3.21)" fill="#231f20"/><path d="M460.5,17.67a2.51,2.51,0,0,1-1,2.09,4.19,4.19,0,0,1-2.66.76A6.39,6.39,0,0,1,454.1,20V18.45a7.63,7.63,0,0,0,1.46.51,6.22,6.22,0,0,0,1.43.18,2.26,2.26,0,0,0,1.43-.37,1.18,1.18,0,0,0,.46-1,1.25,1.25,0,0,0-.42-1,6.42,6.42,0,0,0-1.75-.92,4.58,4.58,0,0,1-1.93-1.27,2.62,2.62,0,0,1-.56-1.7,2.37,2.37,0,0,1,.89-2,3.65,3.65,0,0,1,2.38-.72,7,7,0,0,1,2.86.63l-.52,1.33a6.31,6.31,0,0,0-2.38-.56,1.81,1.81,0,0,0-1.2.35,1.14,1.14,0,0,0-.41.91,1.24,1.24,0,0,0,.16.66,1.71,1.71,0,0,0,.54.53,9.36,9.36,0,0,0,1.36.65,7.39,7.39,0,0,1,1.61.85,2.53,2.53,0,0,1,.75.9A2.66,2.66,0,0,1,460.5,17.67Z" transform="translate(-0.84 -3.21)" fill="#231f20"/><path d="M466.69,11.65a2.69,2.69,0,0,0-2.22,1,4.23,4.23,0,0,0-.8,2.75,4.3,4.3,0,0,0,.77,2.79,2.78,2.78,0,0,0,2.25.94,5.58,5.58,0,0,0,1.23-.13c.39-.08.81-.19,1.23-.32v1.4a7.39,7.39,0,0,1-2.66.44,4.25,4.25,0,0,1-3.37-1.33,5.51,5.51,0,0,1-1.18-3.8,6.16,6.16,0,0,1,.57-2.73,4.09,4.09,0,0,1,1.65-1.79,5.06,5.06,0,0,1,2.54-.62,6.29,6.29,0,0,1,2.83.64l-.59,1.36a7.94,7.94,0,0,0-1.07-.42A3.83,3.83,0,0,0,466.69,11.65Z" transform="translate(-0.84 -3.21)" fill="#231f20"/><path d="M480.18,15.38A5.48,5.48,0,0,1,479,19.17a5.14,5.14,0,0,1-6.93,0,5.49,5.49,0,0,1-1.21-3.82,5.39,5.39,0,0,1,1.22-3.8,4.49,4.49,0,0,1,3.48-1.32A4.39,4.39,0,0,1,479,11.58,5.43,5.43,0,0,1,480.18,15.38Zm-7.63,0a4.47,4.47,0,0,0,.75,2.8,3,3,0,0,0,4.4,0,4.47,4.47,0,0,0,.74-2.81,4.49,4.49,0,0,0-.73-2.79,2.58,2.58,0,0,0-2.19-.95,2.64,2.64,0,0,0-2.22.95A4.42,4.42,0,0,0,472.55,15.38Z" transform="translate(-0.84 -3.21)" fill="#231f20"/><path d="M484,16.39v4h-1.63v-10h2.82a4.61,4.61,0,0,1,2.87.73,2.58,2.58,0,0,1,.92,2.18A2.71,2.71,0,0,1,487,16l2.83,4.43H488l-2.4-4ZM484,15h1.14a2.59,2.59,0,0,0,1.65-.42,1.55,1.55,0,0,0,.51-1.26,1.35,1.35,0,0,0-.55-1.22,3.11,3.11,0,0,0-1.67-.37H484Z" transform="translate(-0.84 -3.21)" fill="#231f20"/><path d="M496.93,20.39h-5.65v-10h5.65v1.38h-4v2.72h3.77v1.37h-3.77V19h4Z" transform="translate(-0.84 -3.21)" fill="#231f20"/></svg>