<svg id="Layer_1" data-name="Layer 1" xmlns="http://www.w3.org/2000/svg" width="328.73" height="237.52" viewBox="0 0 328.73 237.52"><title>PrepArticle1_4YearCollege_Achieve</title><path d="M114.16,26.91a4.31,4.31,0,0,1-1,3A3.33,3.33,0,0,1,110.55,31a3.4,3.4,0,0,1-2.67-1.06,4.37,4.37,0,0,1-.95-3,4.29,4.29,0,0,1,.95-3,3.42,3.42,0,0,1,2.68-1.06A3.36,3.36,0,0,1,113.21,24,4.31,4.31,0,0,1,114.16,26.91Zm-6.26,0a3.73,3.73,0,0,0,.68,2.42,2.76,2.76,0,0,0,4,0,3.78,3.78,0,0,0,.66-2.42,3.75,3.75,0,0,0-.66-2.4,2.37,2.37,0,0,0-2-.82,2.41,2.41,0,0,0-2,.82A3.71,3.71,0,0,0,107.9,26.91Z" transform="translate(-0.53 -4.75)" fill="#231f20"/><path d="M118.43,25.66h-1.5v5.19H116V25.66H115v-.41l1.06-.32V24.6c0-1.44.63-2.17,1.89-2.17a4.1,4.1,0,0,1,1.1.19l-.23.71a3,3,0,0,0-.88-.16.87.87,0,0,0-.75.33,1.92,1.92,0,0,0-.24,1.08V25h1.5Z" transform="translate(-0.53 -4.75)" fill="#231f20"/><path d="M124.26,30.22a3.44,3.44,0,0,0,.46,0l.35-.08v.69a2,2,0,0,1-.43.11,3.36,3.36,0,0,1-.51.05q-1.71,0-1.71-1.8v-3.5h-.84v-.43l.84-.37.38-1.26h.52V25H125v.7h-1.7v3.46a1.2,1.2,0,0,0,.25.82A.88.88,0,0,0,124.26,30.22Z" transform="translate(-0.53 -4.75)" fill="#231f20"/><path d="M130.27,30.85V27a1.51,1.51,0,0,0-.33-1.07,1.3,1.3,0,0,0-1-.36,1.69,1.69,0,0,0-1.36.51,2.57,2.57,0,0,0-.43,1.65v3.08h-.89V22.49h.89V25a5.35,5.35,0,0,1,0,.76h.06a1.79,1.79,0,0,1,.74-.67,2.51,2.51,0,0,1,1.11-.24,2.28,2.28,0,0,1,1.62.51,2.15,2.15,0,0,1,.54,1.63v3.84Z" transform="translate(-0.53 -4.75)" fill="#231f20"/><path d="M135.48,31a2.7,2.7,0,0,1-2.06-.8,3.08,3.08,0,0,1-.75-2.21,3.41,3.41,0,0,1,.7-2.26,2.31,2.31,0,0,1,1.88-.83,2.23,2.23,0,0,1,1.75.72,2.81,2.81,0,0,1,.65,1.92v.57h-4.06a2.34,2.34,0,0,0,.52,1.57,1.82,1.82,0,0,0,1.4.54,4.64,4.64,0,0,0,1.88-.4v.8a5.1,5.1,0,0,1-.89.29A5,5,0,0,1,135.48,31Zm-.24-5.36a1.48,1.48,0,0,0-1.13.46,2.16,2.16,0,0,0-.5,1.28h3.08a2,2,0,0,0-.38-1.29A1.32,1.32,0,0,0,135.24,25.6Z" transform="translate(-0.53 -4.75)" fill="#231f20"/><path d="M142.34,19.93q0-7.62,3.23-11.35t9.66-3.73a17.09,17.09,0,0,1,3.44.27V9.46a13.69,13.69,0,0,0-3.09-.35A10.67,10.67,0,0,0,151,10a5.65,5.65,0,0,0-2.65,2.5,11.45,11.45,0,0,0-1,4.69h.22a6,6,0,0,1,5.58-3,6.9,6.9,0,0,1,5.39,2.16,8.61,8.61,0,0,1,1.95,6,9,9,0,0,1-2.32,6.51,8.52,8.52,0,0,1-6.43,2.4,9.22,9.22,0,0,1-5-1.32A8.59,8.59,0,0,1,143.49,26,14.76,14.76,0,0,1,142.34,19.93Zm9.28,6.93a3.23,3.23,0,0,0,2.68-1.17,5.24,5.24,0,0,0,.93-3.33,4.6,4.6,0,0,0-.87-3,3.18,3.18,0,0,0-2.63-1.08,4,4,0,0,0-2.82,1.07,3.29,3.29,0,0,0-1.17,2.49,5.68,5.68,0,0,0,1.1,3.54A3.36,3.36,0,0,0,151.62,26.86Z" transform="translate(-0.53 -4.75)" fill="#262b69"/><path d="M180.89,18q0,6.74-2.2,10t-6.8,3.23a7.55,7.55,0,0,1-6.7-3.34q-2.26-3.34-2.26-9.86,0-6.81,2.19-10t6.77-3.22a7.59,7.59,0,0,1,6.73,3.37Q180.89,11.5,180.89,18Zm-12.57,0a20.16,20.16,0,0,0,.82,6.78,2.86,2.86,0,0,0,5.49,0,19.21,19.21,0,0,0,.85-6.75,19.56,19.56,0,0,0-.85-6.79,2.87,2.87,0,0,0-2.74-2.07,2.83,2.83,0,0,0-2.74,2.07A19.91,19.91,0,0,0,168.32,18Z" transform="translate(-0.53 -4.75)" fill="#262b69"/><path d="M191.06,18.83a6.64,6.64,0,0,1-1,4.05A3.64,3.64,0,0,1,187,24.23a3.52,3.52,0,0,1-3-1.39,6.56,6.56,0,0,1-1.06-4q0-5.35,4.05-5.36a3.59,3.59,0,0,1,3,1.39A6.49,6.49,0,0,1,191.06,18.83Zm-5.19,0a6.9,6.9,0,0,0,.26,2.22c.18.49.46.73.85.73.75,0,1.13-1,1.13-2.95s-.38-2.93-1.13-2.93c-.39,0-.67.24-.85.72A6.79,6.79,0,0,0,185.87,18.85Zm13.25-5.13-9.5,17.13H186.8l9.51-17.13Zm3.94,12a6.61,6.61,0,0,1-1,4A3.64,3.64,0,0,1,199,31.06a3.52,3.52,0,0,1-3-1.39,6.53,6.53,0,0,1-1.06-4q0-5.35,4.05-5.36a3.62,3.62,0,0,1,3,1.39A6.49,6.49,0,0,1,203.06,25.67Zm-5.19,0a6.82,6.82,0,0,0,.26,2.22c.18.49.46.74.85.74.75,0,1.13-1,1.13-3s-.38-2.93-1.13-2.93c-.39,0-.67.24-.85.72A6.79,6.79,0,0,0,197.87,25.69Z" transform="translate(-0.53 -4.75)" fill="#262b69"/><path d="M95.78,41.9a3.22,3.22,0,0,1-.73,2.25,2.54,2.54,0,0,1-2,.81,2.71,2.71,0,0,1-1.4-.37,2.48,2.48,0,0,1-1-1.07,3.72,3.72,0,0,1-.33-1.62,3.23,3.23,0,0,1,.72-2.24,2.52,2.52,0,0,1,2-.8,2.47,2.47,0,0,1,2,.82A3.2,3.2,0,0,1,95.78,41.9Zm-4.49,0a2.8,2.8,0,0,0,.45,1.72,1.79,1.79,0,0,0,2.66,0,2.78,2.78,0,0,0,.45-1.72,2.72,2.72,0,0,0-.45-1.7,1.59,1.59,0,0,0-1.34-.59,1.56,1.56,0,0,0-1.32.58A2.73,2.73,0,0,0,91.29,41.9Z" transform="translate(-0.53 -4.75)" fill="#231f20"/><path d="M100,39.66H98.5v5.19h-.9V39.66h-1v-.41l1-.32V38.6c0-1.44.64-2.17,1.9-2.17a4.16,4.16,0,0,1,1.1.19l-.24.72a2.65,2.65,0,0,0-.88-.17.86.86,0,0,0-.74.33,1.92,1.92,0,0,0-.24,1.08V39H100Z" transform="translate(-0.53 -4.75)" fill="#231f20"/><path d="M108.74,39v.57l-1.09.13a1.86,1.86,0,0,1,.27.49,1.83,1.83,0,0,1,.12.68,1.74,1.74,0,0,1-.59,1.38,2.35,2.35,0,0,1-1.62.52,3.9,3.9,0,0,1-.5,0,.87.87,0,0,0-.57.75.4.4,0,0,0,.2.36,1.39,1.39,0,0,0,.68.12h1a2.36,2.36,0,0,1,1.47.4,1.41,1.41,0,0,1,.51,1.17,1.66,1.66,0,0,1-.79,1.49,4.19,4.19,0,0,1-2.28.51,3.08,3.08,0,0,1-1.78-.43,1.37,1.37,0,0,1-.63-1.21,1.35,1.35,0,0,1,.34-.93,1.77,1.77,0,0,1,1-.53,1,1,0,0,1-.38-.32.84.84,0,0,1-.15-.5,1,1,0,0,1,.17-.56,2,2,0,0,1,.54-.47,1.57,1.57,0,0,1-.74-.64,1.88,1.88,0,0,1-.29-1,1.92,1.92,0,0,1,.58-1.49,2.38,2.38,0,0,1,1.65-.52,3.1,3.1,0,0,1,.83.1Zm-4.69,6.88a.78.78,0,0,0,.4.72,2.2,2.2,0,0,0,1.16.25,3.14,3.14,0,0,0,1.66-.34,1,1,0,0,0,.54-.91.72.72,0,0,0-.3-.66,2.28,2.28,0,0,0-1.11-.19h-1.07a1.36,1.36,0,0,0-.94.3A1,1,0,0,0,104.05,45.84Zm.48-5a1.2,1.2,0,0,0,.35.93,1.4,1.4,0,0,0,1,.32,1.14,1.14,0,0,0,1.31-1.27,1.17,1.17,0,0,0-1.32-1.32,1.34,1.34,0,0,0-1,.33A1.4,1.4,0,0,0,104.53,40.85Z" transform="translate(-0.53 -4.75)" fill="#231f20"/><path d="M112.64,38.86a3.73,3.73,0,0,1,.7.06l-.12.83a2.73,2.73,0,0,0-.65-.08,1.57,1.57,0,0,0-1.22.58,2.1,2.1,0,0,0-.51,1.44v3.16H110V39h.74l.1,1.09h0a2.61,2.61,0,0,1,.79-.88A1.78,1.78,0,0,1,112.64,38.86Z" transform="translate(-0.53 -4.75)" fill="#231f20"/><path d="M118.06,44.85l-.17-.84h0a2.37,2.37,0,0,1-.88.75,2.65,2.65,0,0,1-1.09.2,2,2,0,0,1-1.37-.45,1.66,1.66,0,0,1-.5-1.29c0-1.19,1-1.81,2.85-1.87l1,0V41a1.49,1.49,0,0,0-.3-1,1.2,1.2,0,0,0-1-.33,3.88,3.88,0,0,0-1.66.45l-.28-.68a4.28,4.28,0,0,1,2-.5,2.25,2.25,0,0,1,1.56.46,2,2,0,0,1,.5,1.5v4Zm-2-.63a1.81,1.81,0,0,0,1.31-.46,1.7,1.7,0,0,0,.47-1.27V42l-.89,0a3.34,3.34,0,0,0-1.53.33,1,1,0,0,0-.47.91.92.92,0,0,0,.29.74A1.2,1.2,0,0,0,116.05,44.22Z" transform="translate(-0.53 -4.75)" fill="#231f20"/><path d="M124.57,44.06h0a2.09,2.09,0,0,1-1.85.9,2.21,2.21,0,0,1-1.8-.79,4.26,4.26,0,0,1,0-4.51,2.39,2.39,0,0,1,3.63.07h.07l0-.43,0-.41v-2.4h.89v8.36h-.72Zm-1.79.15a1.65,1.65,0,0,0,1.33-.5,2.52,2.52,0,0,0,.41-1.6v-.19a2.91,2.91,0,0,0-.42-1.78,1.58,1.58,0,0,0-1.33-.54,1.38,1.38,0,0,0-1.2.61,3.1,3.1,0,0,0-.41,1.72,2.9,2.9,0,0,0,.41,1.71A1.41,1.41,0,0,0,122.78,44.21Z" transform="translate(-0.53 -4.75)" fill="#231f20"/><path d="M129.79,45a2.7,2.7,0,0,1-2.06-.8A3,3,0,0,1,127,42a3.48,3.48,0,0,1,.7-2.27,2.33,2.33,0,0,1,1.89-.83,2.24,2.24,0,0,1,1.75.72A2.8,2.8,0,0,1,132,41.5v.57h-4a2.34,2.34,0,0,0,.52,1.57,1.81,1.81,0,0,0,1.4.54,4.68,4.68,0,0,0,1.88-.4v.8a5.39,5.39,0,0,1-.89.29A5,5,0,0,1,129.79,45Zm-.24-5.36a1.47,1.47,0,0,0-1.13.46,2.1,2.1,0,0,0-.5,1.28H131a2,2,0,0,0-.38-1.29A1.32,1.32,0,0,0,129.55,39.6Z" transform="translate(-0.53 -4.75)" fill="#231f20"/><path d="M139.22,44.85h-.87v-5.6c0-.46,0-.9.05-1.32l-.25.24-1.28,1-.48-.61,2.08-1.6h.75Z" transform="translate(-0.53 -4.75)" fill="#231f20"/><path d="M147.37,44.85h-5.16v-.77L144.28,42a16.49,16.49,0,0,0,1.25-1.36,3.42,3.42,0,0,0,.45-.8,2.23,2.23,0,0,0,.15-.83,1.35,1.35,0,0,0-.38-1,1.5,1.5,0,0,0-1.06-.36,2.6,2.6,0,0,0-.93.16,3.69,3.69,0,0,0-1,.58l-.48-.6a3.65,3.65,0,0,1,2.37-.91,2.49,2.49,0,0,1,1.73.57A2,2,0,0,1,147,39a3,3,0,0,1-.42,1.48,9.35,9.35,0,0,1-1.57,1.85L143.33,44v0h4Z" transform="translate(-0.53 -4.75)" fill="#231f20"/><path d="M155.56,43.24a1.47,1.47,0,0,1-.61,1.27,2.86,2.86,0,0,1-1.72.45,3.78,3.78,0,0,1-1.82-.37v-.83a4.28,4.28,0,0,0,.91.34,3.83,3.83,0,0,0,.93.12,2.12,2.12,0,0,0,1.08-.22.74.74,0,0,0,.37-.68.72.72,0,0,0-.29-.59,5.14,5.14,0,0,0-1.17-.58,6.84,6.84,0,0,1-1.17-.53,1.57,1.57,0,0,1-.51-.52,1.36,1.36,0,0,1-.17-.69,1.34,1.34,0,0,1,.59-1.14,2.69,2.69,0,0,1,1.6-.41,4.62,4.62,0,0,1,1.86.38l-.32.73a4.13,4.13,0,0,0-1.6-.37,1.88,1.88,0,0,0-1,.2.63.63,0,0,0-.32.55.65.65,0,0,0,.12.4,1.19,1.19,0,0,0,.39.32,8.94,8.94,0,0,0,1,.43,4,4,0,0,1,1.42.77A1.37,1.37,0,0,1,155.56,43.24Z" transform="translate(-0.53 -4.75)" fill="#231f20"/><path d="M158.92,44.22a3.4,3.4,0,0,0,.45,0l.35-.08v.69a2,2,0,0,1-.43.11,3.13,3.13,0,0,1-.5.05q-1.71,0-1.71-1.8v-3.5h-.85v-.43l.85-.37.37-1.26H158V39h1.71v.7H158v3.46a1.2,1.2,0,0,0,.25.82A.88.88,0,0,0,158.92,44.22Z" transform="translate(-0.53 -4.75)" fill="#231f20"/><path d="M161.73,39v3.82a1.55,1.55,0,0,0,.33,1.08,1.36,1.36,0,0,0,1,.35,1.71,1.71,0,0,0,1.35-.5,2.59,2.59,0,0,0,.43-1.65V39h.89v5.89H165l-.13-.79h0a1.78,1.78,0,0,1-.76.67A2.57,2.57,0,0,1,163,45a2.24,2.24,0,0,1-1.61-.51,2.17,2.17,0,0,1-.54-1.64V39Z" transform="translate(-0.53 -4.75)" fill="#231f20"/><path d="M171.66,44.06h0a2.09,2.09,0,0,1-1.85.9,2.21,2.21,0,0,1-1.8-.79,3.49,3.49,0,0,1-.64-2.25,3.54,3.54,0,0,1,.65-2.26,2.39,2.39,0,0,1,3.63.07h.07l0-.43,0-.41v-2.4h.89v8.36h-.73Zm-1.79.15a1.65,1.65,0,0,0,1.33-.5,2.52,2.52,0,0,0,.41-1.6v-.19a2.91,2.91,0,0,0-.42-1.78,1.58,1.58,0,0,0-1.33-.54,1.38,1.38,0,0,0-1.2.61,3,3,0,0,0-.42,1.72,2.89,2.89,0,0,0,.42,1.71A1.4,1.4,0,0,0,169.87,44.21Z" transform="translate(-0.53 -4.75)" fill="#231f20"/><path d="M176.88,45a2.7,2.7,0,0,1-2.06-.8,3,3,0,0,1-.76-2.2,3.48,3.48,0,0,1,.7-2.27,2.33,2.33,0,0,1,1.89-.83,2.24,2.24,0,0,1,1.75.72A2.8,2.8,0,0,1,179,41.5v.57h-4a2.29,2.29,0,0,0,.52,1.57,1.81,1.81,0,0,0,1.4.54,4.68,4.68,0,0,0,1.88-.4v.8a5.19,5.19,0,0,1-.9.29A4.91,4.91,0,0,1,176.88,45Zm-.25-5.36a1.48,1.48,0,0,0-1.13.46,2.15,2.15,0,0,0-.49,1.28h3.07a2,2,0,0,0-.37-1.29A1.33,1.33,0,0,0,176.63,39.6Z" transform="translate(-0.53 -4.75)" fill="#231f20"/><path d="M184.59,44.85V41a1.51,1.51,0,0,0-.33-1.07,1.33,1.33,0,0,0-1-.36,1.71,1.71,0,0,0-1.35.5,2.59,2.59,0,0,0-.43,1.65v3.09h-.89V39h.72l.15.81h0a1.89,1.89,0,0,1,.77-.68,2.64,2.64,0,0,1,1.1-.23,2.24,2.24,0,0,1,1.6.51,2.17,2.17,0,0,1,.54,1.64v3.84Z" transform="translate(-0.53 -4.75)" fill="#231f20"/><path d="M189.21,44.22a3.44,3.44,0,0,0,.46,0l.35-.08v.69a2,2,0,0,1-.43.11,3.36,3.36,0,0,1-.51.05c-1.13,0-1.7-.6-1.7-1.8v-3.5h-.85v-.43l.85-.37.37-1.26h.52V39H190v.7h-1.71v3.46a1.2,1.2,0,0,0,.25.82A.88.88,0,0,0,189.21,44.22Z" transform="translate(-0.53 -4.75)" fill="#231f20"/><path d="M195,43.24a1.47,1.47,0,0,1-.61,1.27,2.86,2.86,0,0,1-1.72.45,3.78,3.78,0,0,1-1.82-.37v-.83a4.28,4.28,0,0,0,.91.34,3.83,3.83,0,0,0,.93.12,2.12,2.12,0,0,0,1.08-.22.77.77,0,0,0,.07-1.27,4.8,4.8,0,0,0-1.16-.58,6.16,6.16,0,0,1-1.17-.53,1.57,1.57,0,0,1-.51-.52,1.36,1.36,0,0,1-.17-.69,1.33,1.33,0,0,1,.58-1.14,2.72,2.72,0,0,1,1.61-.41,4.69,4.69,0,0,1,1.86.38l-.32.73a4.13,4.13,0,0,0-1.6-.37,1.86,1.86,0,0,0-1,.2.63.63,0,0,0-.32.55.65.65,0,0,0,.12.4,1.19,1.19,0,0,0,.39.32,8.94,8.94,0,0,0,1,.43,3.81,3.81,0,0,1,1.41.77A1.34,1.34,0,0,1,195,43.24Z" transform="translate(-0.53 -4.75)" fill="#231f20"/><path d="M204.11,44.85,203,41.4c-.07-.22-.2-.69-.38-1.44h-.05c-.14.62-.26,1.11-.37,1.45l-1.11,3.44h-1L198.48,39h.93l.87,3.38a14.36,14.36,0,0,1,.34,1.56h0c0-.2.11-.46.2-.79s.16-.58.22-.77L202.16,39h1l1.05,3.38a11.38,11.38,0,0,1,.41,1.55h0c0-.13.06-.32.12-.59s.44-1.72,1.12-4.34h.92l-1.62,5.89Z" transform="translate(-0.53 -4.75)" fill="#231f20"/><path d="M211.89,44.85V41a1.51,1.51,0,0,0-.33-1.07,1.33,1.33,0,0,0-1-.36,1.65,1.65,0,0,0-1.35.51,2.51,2.51,0,0,0-.43,1.65v3.08h-.89V36.49h.89V39a7.42,7.42,0,0,1,0,.76h0a1.81,1.81,0,0,1,.75-.67,2.45,2.45,0,0,1,1.11-.24,2.28,2.28,0,0,1,1.62.51,2.15,2.15,0,0,1,.54,1.63v3.84Z" transform="translate(-0.53 -4.75)" fill="#231f20"/><path d="M219.69,41.9a3.22,3.22,0,0,1-.73,2.25,2.54,2.54,0,0,1-2,.81,2.71,2.71,0,0,1-1.4-.37,2.54,2.54,0,0,1-.95-1.07,3.72,3.72,0,0,1-.33-1.62,3.23,3.23,0,0,1,.72-2.24,2.54,2.54,0,0,1,2-.8,2.47,2.47,0,0,1,2,.82A3.2,3.2,0,0,1,219.69,41.9Zm-4.49,0a2.8,2.8,0,0,0,.45,1.72,1.6,1.6,0,0,0,1.33.59,1.57,1.57,0,0,0,1.33-.59,2.78,2.78,0,0,0,.46-1.72,2.71,2.71,0,0,0-.46-1.7,1.59,1.59,0,0,0-1.34-.59,1.56,1.56,0,0,0-1.32.58A2.73,2.73,0,0,0,215.2,41.9Z" transform="translate(-0.53 -4.75)" fill="#231f20"/><path d="M57.14,52.86a3.65,3.65,0,0,1,.7.06l-.12.83a2.66,2.66,0,0,0-.64-.08,1.54,1.54,0,0,0-1.22.58,2.1,2.1,0,0,0-.51,1.44v3.16h-.89V53h.73l.1,1.09h.05a2.51,2.51,0,0,1,.79-.88A1.72,1.72,0,0,1,57.14,52.86Z" transform="translate(-0.53 -4.75)" fill="#231f20"/><path d="M61.43,59a2.72,2.72,0,0,1-2.06-.8,3.07,3.07,0,0,1-.75-2.2,3.42,3.42,0,0,1,.7-2.27,2.31,2.31,0,0,1,1.88-.83,2.23,2.23,0,0,1,1.75.72,2.81,2.81,0,0,1,.65,1.92v.57H59.54a2.3,2.3,0,0,0,.53,1.57,1.79,1.79,0,0,0,1.39.54,4.61,4.61,0,0,0,1.88-.4v.8a5.1,5.1,0,0,1-.89.29A5,5,0,0,1,61.43,59Zm-.24-5.36a1.48,1.48,0,0,0-1.13.46,2.16,2.16,0,0,0-.5,1.28h3.08a2,2,0,0,0-.37-1.29A1.34,1.34,0,0,0,61.19,53.6Z" transform="translate(-0.53 -4.75)" fill="#231f20"/><path d="M67.86,59a2.52,2.52,0,0,1-1-.21,2,2,0,0,1-.8-.66h-.07a6.84,6.84,0,0,1,.07,1v2.42h-.89V53h.72l.13.81h0a2,2,0,0,1,.8-.7,2.46,2.46,0,0,1,1-.21,2.14,2.14,0,0,1,1.8.8,4.23,4.23,0,0,1,0,4.49A2.16,2.16,0,0,1,67.86,59Zm-.13-5.35a1.6,1.6,0,0,0-1.31.5A2.61,2.61,0,0,0,66,55.7v.2a3,3,0,0,0,.41,1.78,1.6,1.6,0,0,0,1.33.53,1.37,1.37,0,0,0,1.19-.62,2.91,2.91,0,0,0,.44-1.7,2.81,2.81,0,0,0-.44-1.69A1.41,1.41,0,0,0,67.73,53.61Z" transform="translate(-0.53 -4.75)" fill="#231f20"/><path d="M76.94,55.9a3.22,3.22,0,0,1-.73,2.25,2.54,2.54,0,0,1-2,.81,2.71,2.71,0,0,1-1.4-.37,2.54,2.54,0,0,1-1-1.07,3.72,3.72,0,0,1-.33-1.62,3.23,3.23,0,0,1,.72-2.24,2.54,2.54,0,0,1,2-.8,2.47,2.47,0,0,1,2,.82A3.2,3.2,0,0,1,76.94,55.9Zm-4.49,0a2.73,2.73,0,0,0,.46,1.72,1.78,1.78,0,0,0,2.65,0A2.78,2.78,0,0,0,76,55.9a2.71,2.71,0,0,0-.46-1.7,1.59,1.59,0,0,0-1.34-.59,1.56,1.56,0,0,0-1.32.58A2.73,2.73,0,0,0,72.45,55.9Z" transform="translate(-0.53 -4.75)" fill="#231f20"/><path d="M81.19,52.86a3.73,3.73,0,0,1,.7.06l-.12.83a2.73,2.73,0,0,0-.65-.08,1.57,1.57,0,0,0-1.22.58,2.1,2.1,0,0,0-.51,1.44v3.16H78.5V53h.74l.1,1.09h0a2.61,2.61,0,0,1,.79-.88A1.78,1.78,0,0,1,81.19,52.86Z" transform="translate(-0.53 -4.75)" fill="#231f20"/><path d="M84.89,58.22a3.44,3.44,0,0,0,.46,0l.35-.08v.69a2,2,0,0,1-.43.11,3.25,3.25,0,0,1-.51.05c-1.13,0-1.7-.6-1.7-1.8v-3.5h-.85v-.43l.85-.37.37-1.26H84V53h1.71v.7H84v3.46a1.2,1.2,0,0,0,.25.82A.88.88,0,0,0,84.89,58.22Z" transform="translate(-0.53 -4.75)" fill="#231f20"/><path d="M89.36,59a2.72,2.72,0,0,1-2.06-.8,3.07,3.07,0,0,1-.75-2.2,3.42,3.42,0,0,1,.7-2.27,2.31,2.31,0,0,1,1.88-.83,2.23,2.23,0,0,1,1.75.72,2.81,2.81,0,0,1,.65,1.92v.57H87.47A2.3,2.3,0,0,0,88,57.64a1.79,1.79,0,0,0,1.39.54,4.64,4.64,0,0,0,1.88-.4v.8a5.1,5.1,0,0,1-.89.29A5,5,0,0,1,89.36,59Zm-.24-5.36a1.48,1.48,0,0,0-1.13.46,2.16,2.16,0,0,0-.5,1.28h3.08a1.91,1.91,0,0,0-.38-1.29A1.31,1.31,0,0,0,89.12,53.6Z" transform="translate(-0.53 -4.75)" fill="#231f20"/><path d="M97.05,58.06h0a2.11,2.11,0,0,1-1.85.9,2.21,2.21,0,0,1-1.8-.79,3.49,3.49,0,0,1-.64-2.25,3.53,3.53,0,0,1,.64-2.26,2.16,2.16,0,0,1,1.8-.8,2.12,2.12,0,0,1,1.83.87h.07l0-.43,0-.41v-2.4h.89v8.36h-.73Zm-1.78.15a1.61,1.61,0,0,0,1.32-.5,2.45,2.45,0,0,0,.42-1.6v-.19a2.91,2.91,0,0,0-.42-1.78,1.58,1.58,0,0,0-1.33-.54,1.38,1.38,0,0,0-1.2.61,3,3,0,0,0-.42,1.72,2.89,2.89,0,0,0,.42,1.71A1.4,1.4,0,0,0,95.27,58.21Z" transform="translate(-0.53 -4.75)" fill="#231f20"/><path d="M106.27,58.85l-.18-.84h0a2.53,2.53,0,0,1-.88.75,2.7,2.7,0,0,1-1.1.2,2,2,0,0,1-1.37-.45,1.66,1.66,0,0,1-.5-1.29c0-1.19,1-1.81,2.86-1.87l1,0V55a1.49,1.49,0,0,0-.3-1,1.24,1.24,0,0,0-1-.33,3.88,3.88,0,0,0-1.66.45l-.27-.68a4,4,0,0,1,.95-.37,4.06,4.06,0,0,1,1-.13,2.25,2.25,0,0,1,1.56.46,1.94,1.94,0,0,1,.51,1.5v4Zm-2-.63a1.79,1.79,0,0,0,1.31-.46,1.66,1.66,0,0,0,.47-1.27V56l-.89,0a3.34,3.34,0,0,0-1.53.33,1,1,0,0,0-.47.91,1,1,0,0,0,.29.74A1.22,1.22,0,0,0,104.25,58.22Z" transform="translate(-0.53 -4.75)" fill="#231f20"/><path d="M111.5,59a2.59,2.59,0,0,1-1-.21,2,2,0,0,1-.8-.66h-.06a8.57,8.57,0,0,1,.06,1v2.42h-.89V53h.73l.12.81h0a2.1,2.1,0,0,1,.8-.7,2.52,2.52,0,0,1,1-.21,2.17,2.17,0,0,1,1.81.8A3.53,3.53,0,0,1,114,55.9a3.49,3.49,0,0,1-.65,2.25A2.17,2.17,0,0,1,111.5,59Zm-.13-5.35a1.58,1.58,0,0,0-1.3.5,2.61,2.61,0,0,0-.42,1.59v.2a2.93,2.93,0,0,0,.42,1.78,1.58,1.58,0,0,0,1.32.53,1.39,1.39,0,0,0,1.2-.62,2.91,2.91,0,0,0,.43-1.7,2.81,2.81,0,0,0-.43-1.69A1.43,1.43,0,0,0,111.37,53.61Z" transform="translate(-0.53 -4.75)" fill="#231f20"/><path d="M118.24,59a2.59,2.59,0,0,1-1-.21,2,2,0,0,1-.79-.66h-.07a8.68,8.68,0,0,1,.07,1v2.42h-.9V53h.73l.12.81h.05a2,2,0,0,1,.8-.7,2.44,2.44,0,0,1,1-.21,2.16,2.16,0,0,1,1.81.8,3.53,3.53,0,0,1,.64,2.24,3.49,3.49,0,0,1-.65,2.25A2.17,2.17,0,0,1,118.24,59Zm-.13-5.35a1.58,1.58,0,0,0-1.3.5,2.54,2.54,0,0,0-.41,1.59v.2a2.94,2.94,0,0,0,.41,1.78,1.59,1.59,0,0,0,1.33.53,1.39,1.39,0,0,0,1.19-.62,2.91,2.91,0,0,0,.43-1.7,2.81,2.81,0,0,0-.43-1.69A1.43,1.43,0,0,0,118.11,53.61Z" transform="translate(-0.53 -4.75)" fill="#231f20"/><path d="M123.14,58.85h-.9V50.49h.9Z" transform="translate(-0.53 -4.75)" fill="#231f20"/><path d="M124.09,53h1l1.29,3.36a11.89,11.89,0,0,1,.52,1.66h0c0-.18.14-.5.29-.94s.63-1.8,1.46-4.08h1l-2.53,6.71a3.42,3.42,0,0,1-.87,1.41,1.93,1.93,0,0,1-1.24.41,3.57,3.57,0,0,1-.8-.09v-.71a3.23,3.23,0,0,0,.66.06,1.36,1.36,0,0,0,1.31-1l.33-.84Z" transform="translate(-0.53 -4.75)" fill="#231f20"/><path d="M130.49,51.37a.58.58,0,0,1,.15-.45.51.51,0,0,1,.38-.14.55.55,0,0,1,.37.14.71.71,0,0,1,0,.9A.5.5,0,0,1,131,52a.51.51,0,0,1-.38-.14A.61.61,0,0,1,130.49,51.37Zm1,7.48h-.89V53h.89Z" transform="translate(-0.53 -4.75)" fill="#231f20"/><path d="M137.38,58.85V55a1.51,1.51,0,0,0-.33-1.07,1.32,1.32,0,0,0-1-.36,1.72,1.72,0,0,0-1.36.5,2.59,2.59,0,0,0-.43,1.65v3.09h-.89V53h.73l.14.81h0a1.89,1.89,0,0,1,.77-.68,2.64,2.64,0,0,1,1.1-.23,2.23,2.23,0,0,1,1.6.51,2.17,2.17,0,0,1,.54,1.64v3.84Z" transform="translate(-0.53 -4.75)" fill="#231f20"/><path d="M144.92,53v.57l-1.09.13a1.86,1.86,0,0,1,.27.49,1.83,1.83,0,0,1,.12.68,1.74,1.74,0,0,1-.59,1.38,2.38,2.38,0,0,1-1.63.52,3.74,3.74,0,0,1-.49,0,.87.87,0,0,0-.57.75.4.4,0,0,0,.2.36,1.39,1.39,0,0,0,.68.12h1a2.32,2.32,0,0,1,1.47.4,1.41,1.41,0,0,1,.52,1.17,1.68,1.68,0,0,1-.79,1.49,4.2,4.2,0,0,1-2.29.51,3.1,3.1,0,0,1-1.78-.43,1.39,1.39,0,0,1-.62-1.21,1.35,1.35,0,0,1,.34-.93,1.73,1.73,0,0,1,1-.53,1,1,0,0,1-.38-.32.84.84,0,0,1-.15-.5.91.91,0,0,1,.17-.56,1.72,1.72,0,0,1,.54-.47,1.57,1.57,0,0,1-.74-.64,1.8,1.8,0,0,1-.29-1,1.89,1.89,0,0,1,.58-1.49,2.36,2.36,0,0,1,1.64-.52,3.12,3.12,0,0,1,.84.1Zm-4.69,6.88a.78.78,0,0,0,.4.72,2.16,2.16,0,0,0,1.15.25,3.18,3.18,0,0,0,1.67-.34,1,1,0,0,0,.54-.91.72.72,0,0,0-.3-.66,2.34,2.34,0,0,0-1.11-.19h-1.07a1.36,1.36,0,0,0-.94.3A1,1,0,0,0,140.23,59.84Zm.48-5a1.2,1.2,0,0,0,.35.93,1.4,1.4,0,0,0,1,.32,1.14,1.14,0,0,0,1.31-1.27A1.17,1.17,0,0,0,142,53.51a1.33,1.33,0,0,0-1,.33A1.36,1.36,0,0,0,140.71,54.85Z" transform="translate(-0.53 -4.75)" fill="#231f20"/><path d="M150.89,58.22a3.19,3.19,0,0,0,.45,0,2.7,2.7,0,0,0,.35-.08v.69a1.9,1.9,0,0,1-.42.11,3.36,3.36,0,0,1-.51.05q-1.71,0-1.71-1.8v-3.5h-.84v-.43l.84-.37.38-1.26h.51V53h1.71v.7h-1.71v3.46a1.2,1.2,0,0,0,.26.82A.85.85,0,0,0,150.89,58.22Z" transform="translate(-0.53 -4.75)" fill="#231f20"/><path d="M158,55.9a3.27,3.27,0,0,1-.72,2.25,2.58,2.58,0,0,1-2,.81,2.73,2.73,0,0,1-1.4-.37,2.46,2.46,0,0,1-.94-1.07,3.58,3.58,0,0,1-.34-1.62,3.23,3.23,0,0,1,.72-2.24,2.54,2.54,0,0,1,2-.8,2.47,2.47,0,0,1,2,.82A3.2,3.2,0,0,1,158,55.9Zm-4.48,0a2.8,2.8,0,0,0,.45,1.72,1.78,1.78,0,0,0,2.65,0A2.71,2.71,0,0,0,157,55.9a2.65,2.65,0,0,0-.46-1.7,1.59,1.59,0,0,0-1.34-.59,1.56,1.56,0,0,0-1.32.58A2.73,2.73,0,0,0,153.47,55.9Z" transform="translate(-0.53 -4.75)" fill="#231f20"/><path d="M166,58.85l-.18-.84h0a2.37,2.37,0,0,1-.88.75,2.65,2.65,0,0,1-1.09.2,2,2,0,0,1-1.37-.45,1.66,1.66,0,0,1-.5-1.29c0-1.19.95-1.81,2.85-1.87l1,0V55a1.49,1.49,0,0,0-.3-1,1.2,1.2,0,0,0-.95-.33,3.88,3.88,0,0,0-1.66.45l-.28-.68a4.28,4.28,0,0,1,2-.5,2.27,2.27,0,0,1,1.57.46,2,2,0,0,1,.5,1.5v4Zm-2-.63a1.81,1.81,0,0,0,1.31-.46,1.7,1.7,0,0,0,.47-1.27V56l-.89,0a3.34,3.34,0,0,0-1.53.33,1,1,0,0,0-.47.91.92.92,0,0,0,.29.74A1.2,1.2,0,0,0,164,58.22Z" transform="translate(-0.53 -4.75)" fill="#231f20"/><path d="M174,53.66h-1.5v5.19h-.89V53.66h-1.05v-.41l1.05-.32V52.6c0-1.44.63-2.17,1.9-2.17a4.1,4.1,0,0,1,1.09.19l-.23.72a2.7,2.7,0,0,0-.88-.17.87.87,0,0,0-.75.33,1.92,1.92,0,0,0-.24,1.08V53H174Z" transform="translate(-0.53 -4.75)" fill="#231f20"/><path d="M180.16,55.9a3.27,3.27,0,0,1-.73,2.25,2.54,2.54,0,0,1-2,.81,2.68,2.68,0,0,1-1.4-.37,2.48,2.48,0,0,1-.95-1.07,3.72,3.72,0,0,1-.33-1.62,3.23,3.23,0,0,1,.72-2.24,2.82,2.82,0,0,1,4,0A3.24,3.24,0,0,1,180.16,55.9Zm-4.49,0a2.8,2.8,0,0,0,.45,1.72,1.57,1.57,0,0,0,1.33.59,1.6,1.6,0,0,0,1.33-.59,2.78,2.78,0,0,0,.45-1.72,2.72,2.72,0,0,0-.45-1.7,1.61,1.61,0,0,0-1.34-.59,1.54,1.54,0,0,0-1.32.58A2.73,2.73,0,0,0,175.67,55.9Z" transform="translate(-0.53 -4.75)" fill="#231f20"/><path d="M182.56,53v3.82a1.6,1.6,0,0,0,.32,1.08,1.36,1.36,0,0,0,1,.35,1.68,1.68,0,0,0,1.35-.5,2.53,2.53,0,0,0,.43-1.65V53h.89v5.89h-.74l-.13-.79h0a1.9,1.9,0,0,1-.76.67,2.65,2.65,0,0,1-1.11.23,2.24,2.24,0,0,1-1.61-.51,2.17,2.17,0,0,1-.54-1.64V53Z" transform="translate(-0.53 -4.75)" fill="#231f20"/><path d="M191.16,52.86a3.73,3.73,0,0,1,.7.06l-.12.83a2.73,2.73,0,0,0-.65-.08,1.55,1.55,0,0,0-1.22.58,2.1,2.1,0,0,0-.51,1.44v3.16h-.89V53h.74l.1,1.09h0a2.61,2.61,0,0,1,.79-.88A1.78,1.78,0,0,1,191.16,52.86Z" transform="translate(-0.53 -4.75)" fill="#231f20"/><path d="M192.47,56.31v-.82h2.63v.82Z" transform="translate(-0.53 -4.75)" fill="#231f20"/><path d="M195.57,53h1l1.29,3.36a14,14,0,0,1,.53,1.66h0c.05-.18.14-.5.29-.94s.64-1.8,1.46-4.08h1l-2.53,6.71a3.42,3.42,0,0,1-.88,1.41,1.92,1.92,0,0,1-1.23.41,3.59,3.59,0,0,1-.81-.09v-.71a3.37,3.37,0,0,0,.66.06,1.36,1.36,0,0,0,1.31-1l.33-.84Z" transform="translate(-0.53 -4.75)" fill="#231f20"/><path d="M204.53,59a2.7,2.7,0,0,1-2.06-.8,3.08,3.08,0,0,1-.76-2.2,3.43,3.43,0,0,1,.71-2.27,2.3,2.3,0,0,1,1.88-.83,2.23,2.23,0,0,1,1.75.72,2.8,2.8,0,0,1,.64,1.92v.57h-4.05a2.34,2.34,0,0,0,.52,1.57,1.81,1.81,0,0,0,1.4.54,4.68,4.68,0,0,0,1.88-.4v.8a5.1,5.1,0,0,1-.89.29A5,5,0,0,1,204.53,59Zm-.24-5.36a1.48,1.48,0,0,0-1.13.46,2.16,2.16,0,0,0-.5,1.28h3.08a2,2,0,0,0-.38-1.29A1.32,1.32,0,0,0,204.29,53.6Z" transform="translate(-0.53 -4.75)" fill="#231f20"/><path d="M211.83,58.85l-.17-.84h0a2.43,2.43,0,0,1-.87.75,2.74,2.74,0,0,1-1.1.2,2,2,0,0,1-1.37-.45,1.66,1.66,0,0,1-.5-1.29c0-1.19.95-1.81,2.86-1.87l1,0V55a1.49,1.49,0,0,0-.29-1,1.24,1.24,0,0,0-1-.33,3.88,3.88,0,0,0-1.66.45l-.27-.68a3.84,3.84,0,0,1,.95-.37,4.06,4.06,0,0,1,1-.13,2.25,2.25,0,0,1,1.56.46,1.94,1.94,0,0,1,.51,1.5v4Zm-2-.63a1.79,1.79,0,0,0,1.31-.46,1.7,1.7,0,0,0,.47-1.27V56l-.89,0a3.34,3.34,0,0,0-1.53.33,1,1,0,0,0-.47.91A1,1,0,0,0,209,58,1.22,1.22,0,0,0,209.82,58.22Z" transform="translate(-0.53 -4.75)" fill="#231f20"/><path d="M217,52.86a3.73,3.73,0,0,1,.7.06l-.12.83a2.73,2.73,0,0,0-.65-.08,1.57,1.57,0,0,0-1.22.58,2.1,2.1,0,0,0-.51,1.44v3.16h-.89V53h.74l.1,1.09h0a2.61,2.61,0,0,1,.79-.88A1.78,1.78,0,0,1,217,52.86Z" transform="translate(-0.53 -4.75)" fill="#231f20"/><path d="M224,59a2.54,2.54,0,0,1-2-.79,3.27,3.27,0,0,1-.7-2.23,3.36,3.36,0,0,1,.71-2.28,2.56,2.56,0,0,1,2-.8,4.09,4.09,0,0,1,.85.09,3.14,3.14,0,0,1,.67.21l-.28.76a4,4,0,0,0-.64-.2,3.1,3.1,0,0,0-.62-.08c-1.2,0-1.79.77-1.79,2.29a2.75,2.75,0,0,0,.43,1.67,1.56,1.56,0,0,0,1.3.58,4,4,0,0,0,1.51-.32v.79A3.14,3.14,0,0,1,224,59Z" transform="translate(-0.53 -4.75)" fill="#231f20"/><path d="M232,55.9a3.22,3.22,0,0,1-.73,2.25,2.54,2.54,0,0,1-2,.81,2.71,2.71,0,0,1-1.4-.37,2.48,2.48,0,0,1-1-1.07,3.72,3.72,0,0,1-.33-1.62,3.23,3.23,0,0,1,.72-2.24,2.52,2.52,0,0,1,2-.8,2.49,2.49,0,0,1,2,.82A3.24,3.24,0,0,1,232,55.9Zm-4.49,0a2.8,2.8,0,0,0,.45,1.72,1.79,1.79,0,0,0,2.66,0,2.78,2.78,0,0,0,.45-1.72,2.72,2.72,0,0,0-.45-1.7,1.59,1.59,0,0,0-1.34-.59,1.54,1.54,0,0,0-1.32.58A2.73,2.73,0,0,0,227.51,55.9Z" transform="translate(-0.53 -4.75)" fill="#231f20"/><path d="M234.45,58.85h-.89V50.49h.89Z" transform="translate(-0.53 -4.75)" fill="#231f20"/><path d="M237.23,58.85h-.89V50.49h.89Z" transform="translate(-0.53 -4.75)" fill="#231f20"/><path d="M241.61,59a2.7,2.7,0,0,1-2.06-.8,3.07,3.07,0,0,1-.75-2.2,3.42,3.42,0,0,1,.7-2.27,2.31,2.31,0,0,1,1.88-.83,2.23,2.23,0,0,1,1.75.72,2.81,2.81,0,0,1,.65,1.92v.57h-4.06a2.34,2.34,0,0,0,.52,1.57,1.82,1.82,0,0,0,1.4.54,4.64,4.64,0,0,0,1.88-.4v.8a5.1,5.1,0,0,1-.89.29A5,5,0,0,1,241.61,59Zm-.24-5.36a1.48,1.48,0,0,0-1.13.46,2.16,2.16,0,0,0-.5,1.28h3.08a2,2,0,0,0-.38-1.29A1.31,1.31,0,0,0,241.37,53.6Z" transform="translate(-0.53 -4.75)" fill="#231f20"/><path d="M250.11,53v.57l-1.09.13a1.86,1.86,0,0,1,.27.49,1.83,1.83,0,0,1,.12.68,1.74,1.74,0,0,1-.59,1.38,2.34,2.34,0,0,1-1.62.52,3.9,3.9,0,0,1-.5,0,.87.87,0,0,0-.57.75.4.4,0,0,0,.2.36,1.44,1.44,0,0,0,.69.12h1a2.36,2.36,0,0,1,1.47.4,1.41,1.41,0,0,1,.51,1.17,1.67,1.67,0,0,1-.78,1.49,4.25,4.25,0,0,1-2.29.51,3.08,3.08,0,0,1-1.78-.43,1.37,1.37,0,0,1-.63-1.21,1.4,1.4,0,0,1,.34-.93,1.77,1.77,0,0,1,1-.53,1,1,0,0,1-.38-.32.84.84,0,0,1-.15-.5,1,1,0,0,1,.17-.56,2,2,0,0,1,.54-.47,1.57,1.57,0,0,1-.74-.64,1.88,1.88,0,0,1-.29-1,1.92,1.92,0,0,1,.58-1.49,2.38,2.38,0,0,1,1.65-.52,3.1,3.1,0,0,1,.83.1Zm-4.69,6.88a.78.78,0,0,0,.4.72,2.2,2.2,0,0,0,1.16.25,3.14,3.14,0,0,0,1.66-.34,1,1,0,0,0,.54-.91.72.72,0,0,0-.3-.66,2.28,2.28,0,0,0-1.11-.19H246.7a1.36,1.36,0,0,0-.94.3A1,1,0,0,0,245.42,59.84Zm.48-5a1.2,1.2,0,0,0,.35.93,1.4,1.4,0,0,0,1,.32c.88,0,1.31-.42,1.31-1.27a1.17,1.17,0,0,0-1.32-1.32,1.34,1.34,0,0,0-1,.33A1.4,1.4,0,0,0,245.9,54.85Z" transform="translate(-0.53 -4.75)" fill="#231f20"/><path d="M253.81,59a2.7,2.7,0,0,1-2.06-.8A3.08,3.08,0,0,1,251,56a3.48,3.48,0,0,1,.7-2.27,2.33,2.33,0,0,1,1.89-.83,2.23,2.23,0,0,1,1.75.72A2.8,2.8,0,0,1,256,55.5v.57h-4.05a2.34,2.34,0,0,0,.52,1.57,1.81,1.81,0,0,0,1.4.54,4.68,4.68,0,0,0,1.88-.4v.8a5.1,5.1,0,0,1-.89.29A5,5,0,0,1,253.81,59Zm-.24-5.36a1.47,1.47,0,0,0-1.13.46,2.1,2.1,0,0,0-.5,1.28H255a2,2,0,0,0-.38-1.29A1.32,1.32,0,0,0,253.57,53.6Z" transform="translate(-0.53 -4.75)" fill="#231f20"/><path d="M8.89,218.89a4.3,4.3,0,0,1-1,3,3.34,3.34,0,0,1-2.65,1.08,3.39,3.39,0,0,1-2.68-1.06,5.19,5.19,0,0,1,0-6,3.41,3.41,0,0,1,2.68-1.05,3.35,3.35,0,0,1,2.64,1.07A4.31,4.31,0,0,1,8.89,218.89Zm-6.25,0a3.69,3.69,0,0,0,.68,2.42,2.4,2.4,0,0,0,2,.82,2.37,2.37,0,0,0,2-.82,4.69,4.69,0,0,0,0-4.83,2.38,2.38,0,0,0-2-.82,2.41,2.41,0,0,0-2,.83A3.65,3.65,0,0,0,2.64,218.89Z" transform="translate(-0.53 -4.75)" fill="#231f20"/><path d="M13.16,217.63H11.67v5.19h-.9v-5.19h-1v-.4l1-.32v-.33c0-1.45.64-2.17,1.9-2.17a3.79,3.79,0,0,1,1.1.19l-.24.71a2.94,2.94,0,0,0-.88-.17.86.86,0,0,0-.74.34,1.87,1.87,0,0,0-.24,1.08v.38h1.49Z" transform="translate(-0.53 -4.75)" fill="#231f20"/><path d="M19,222.2a3.14,3.14,0,0,0,.45,0l.35-.07v.68a1.43,1.43,0,0,1-.42.12,3.25,3.25,0,0,1-.51,0q-1.71,0-1.71-1.8v-3.5h-.84v-.43l.84-.37.38-1.26h.51v1.37h1.71v.69H18.05v3.46a1.19,1.19,0,0,0,.26.82A.85.85,0,0,0,19,222.2Z" transform="translate(-0.53 -4.75)" fill="#231f20"/><path d="M25,222.82V219a1.55,1.55,0,0,0-.33-1.08,1.36,1.36,0,0,0-1-.35,1.69,1.69,0,0,0-1.35.5,2.54,2.54,0,0,0-.43,1.66v3.07H21v-8.35h.89V217a5.28,5.28,0,0,1,0,.75h.05a2,2,0,0,1,.75-.67,2.51,2.51,0,0,1,1.11-.24,2.28,2.28,0,0,1,1.62.51A2.18,2.18,0,0,1,25.9,219v3.84Z" transform="translate(-0.53 -4.75)" fill="#231f20"/><path d="M30.22,222.93a2.7,2.7,0,0,1-2.06-.79,3.1,3.1,0,0,1-.76-2.21,3.45,3.45,0,0,1,.7-2.26,2.34,2.34,0,0,1,1.89-.84,2.22,2.22,0,0,1,1.75.73,2.77,2.77,0,0,1,.64,1.92V220H28.33a2.37,2.37,0,0,0,.52,1.58,1.84,1.84,0,0,0,1.4.53,4.84,4.84,0,0,0,1.88-.39v.79a4.38,4.38,0,0,1-.89.29A5,5,0,0,1,30.22,222.93ZM30,217.58a1.43,1.43,0,0,0-1.13.46,2.07,2.07,0,0,0-.5,1.28h3.08a1.93,1.93,0,0,0-.38-1.29A1.32,1.32,0,0,0,30,217.58Z" transform="translate(-0.53 -4.75)" fill="#231f20"/><path d="M36.31,218.58a6.61,6.61,0,0,1,1.25-4.42,4.73,4.73,0,0,1,3.76-1.45,6.64,6.64,0,0,1,1.34.11v1.68a5.6,5.6,0,0,0-1.21-.13,4.11,4.11,0,0,0-1.77.33,2.21,2.21,0,0,0-1,1,4.39,4.39,0,0,0-.4,1.82h.09a2.32,2.32,0,0,1,2.16-1.16,2.67,2.67,0,0,1,2.1.84,3.34,3.34,0,0,1,.76,2.33,3.49,3.49,0,0,1-.9,2.53A3.33,3.33,0,0,1,40,223a3.59,3.59,0,0,1-1.93-.51,3.33,3.33,0,0,1-1.28-1.5A5.86,5.86,0,0,1,36.31,218.58Zm3.61,2.69a1.27,1.27,0,0,0,1-.45,2.07,2.07,0,0,0,.36-1.3,1.77,1.77,0,0,0-.34-1.15,1.24,1.24,0,0,0-1-.42,1.56,1.56,0,0,0-1.1.42,1.29,1.29,0,0,0-.45,1,2.21,2.21,0,0,0,.42,1.37A1.31,1.31,0,0,0,39.92,221.27Z" transform="translate(-0.53 -4.75)" fill="#231f20"/><path d="M51.3,217.83a7,7,0,0,1-.86,3.87A3,3,0,0,1,47.8,223a2.94,2.94,0,0,1-2.61-1.3,6.8,6.8,0,0,1-.88-3.83,7,7,0,0,1,.86-3.9,3.31,3.31,0,0,1,5.24.06A6.85,6.85,0,0,1,51.3,217.83Zm-4.89,0a7.8,7.8,0,0,0,.32,2.63,1.11,1.11,0,0,0,2.13,0,10.65,10.65,0,0,0,0-5.26,1.11,1.11,0,0,0-2.13,0A7.83,7.83,0,0,0,46.41,217.83Z" transform="translate(-0.53 -4.75)" fill="#231f20"/><path d="M57,215.81a3.78,3.78,0,0,1-.61,2.36,2.11,2.11,0,0,1-1.78.79,2.06,2.06,0,0,1-1.75-.81,3.82,3.82,0,0,1-.61-2.34c0-2.08.78-3.12,2.36-3.12a2.09,2.09,0,0,1,1.77.81A3.76,3.76,0,0,1,57,215.81Zm-3,0a4.22,4.22,0,0,0,.15,1.3c.11.28.27.43.5.43.44,0,.66-.58.66-1.73s-.22-1.7-.66-1.7c-.23,0-.39.14-.5.42A4.08,4.08,0,0,0,54,215.82Zm7.73-3-5.54,10H54.5l5.54-10Zm2.3,7a3.8,3.8,0,0,1-.61,2.36,2.13,2.13,0,0,1-1.78.79,2.06,2.06,0,0,1-1.75-.81,3.82,3.82,0,0,1-.61-2.34c0-2.08.78-3.12,2.36-3.12a2.09,2.09,0,0,1,1.77.81A3.76,3.76,0,0,1,64,219.8Zm-3,0a4.11,4.11,0,0,0,.15,1.29c.11.29.27.43.5.43.44,0,.66-.58.66-1.72s-.22-1.71-.66-1.71c-.23,0-.39.14-.5.42A4.11,4.11,0,0,0,61,219.82Z" transform="translate(-0.53 -4.75)" fill="#231f20"/><path d="M73.28,222.82l-1.08-3.45c-.07-.21-.2-.69-.38-1.44h0c-.14.63-.26,1.11-.37,1.45l-1.11,3.44h-1l-1.61-5.88h.94c.37,1.48.66,2.6.86,3.38a13.4,13.4,0,0,1,.34,1.56h0c0-.21.1-.47.19-.79s.16-.58.22-.77l1.09-3.38h1l1,3.38a11,11,0,0,1,.41,1.55h0a5,5,0,0,1,.11-.6c.06-.27.44-1.71,1.12-4.33H76l-1.62,5.88Z" transform="translate(-0.53 -4.75)" fill="#231f20"/><path d="M81.06,222.82V219a1.55,1.55,0,0,0-.33-1.08,1.36,1.36,0,0,0-1-.35,1.68,1.68,0,0,0-1.35.5,2.54,2.54,0,0,0-.43,1.66v3.07H77v-8.35h.89V217a5.28,5.28,0,0,1,0,.75h.05a2,2,0,0,1,.75-.67,2.45,2.45,0,0,1,1.11-.24,2.28,2.28,0,0,1,1.62.51A2.18,2.18,0,0,1,82,219v3.84Z" transform="translate(-0.53 -4.75)" fill="#231f20"/><path d="M88.86,219.88a3.21,3.21,0,0,1-.73,2.24,2.54,2.54,0,0,1-2,.81,2.64,2.64,0,0,1-1.4-.37,2.43,2.43,0,0,1-.94-1.06,3.58,3.58,0,0,1-.34-1.62,3.27,3.27,0,0,1,.72-2.25,2.57,2.57,0,0,1,2-.8,2.47,2.47,0,0,1,2,.82A3.22,3.22,0,0,1,88.86,219.88Zm-4.48,0a2.77,2.77,0,0,0,.45,1.71,1.55,1.55,0,0,0,1.32.6,1.57,1.57,0,0,0,1.33-.59,2.73,2.73,0,0,0,.46-1.72,2.7,2.7,0,0,0-.46-1.71,1.83,1.83,0,0,0-2.66,0A2.76,2.76,0,0,0,84.38,219.88Z" transform="translate(-0.53 -4.75)" fill="#231f20"/><path d="M96,216.83a3.73,3.73,0,0,1,.7.06l-.12.83a3.37,3.37,0,0,0-.65-.08,1.55,1.55,0,0,0-1.22.58,2.12,2.12,0,0,0-.51,1.45v3.15h-.89v-5.88H94l.1,1.09h0a2.56,2.56,0,0,1,.79-.89A1.78,1.78,0,0,1,96,216.83Z" transform="translate(-0.53 -4.75)" fill="#231f20"/><path d="M100.26,222.93a2.7,2.7,0,0,1-2.06-.79,3.06,3.06,0,0,1-.76-2.21,3.45,3.45,0,0,1,.7-2.26,2.34,2.34,0,0,1,1.89-.84,2.22,2.22,0,0,1,1.75.73,2.77,2.77,0,0,1,.64,1.92V220h-4a2.32,2.32,0,0,0,.52,1.58,1.84,1.84,0,0,0,1.4.53,4.84,4.84,0,0,0,1.88-.39v.79a4.59,4.59,0,0,1-.89.29A5,5,0,0,1,100.26,222.93Zm-.24-5.35a1.47,1.47,0,0,0-1.14.46,2.13,2.13,0,0,0-.49,1.28h3.08a1.93,1.93,0,0,0-.38-1.29A1.32,1.32,0,0,0,100,217.58Z" transform="translate(-0.53 -4.75)" fill="#231f20"/><path d="M106.68,222.93a2.59,2.59,0,0,1-1.05-.21,2,2,0,0,1-.8-.65h-.06a8.4,8.4,0,0,1,.06,1v2.43h-.89v-8.53h.73l.12.8h0a2.19,2.19,0,0,1,.8-.7,2.52,2.52,0,0,1,1.05-.21,2.2,2.2,0,0,1,1.81.8,4.25,4.25,0,0,1,0,4.5A2.19,2.19,0,0,1,106.68,222.93Zm-.13-5.34a1.55,1.55,0,0,0-1.3.5,2.56,2.56,0,0,0-.42,1.59v.2a2.92,2.92,0,0,0,.42,1.77,1.56,1.56,0,0,0,1.32.54,1.39,1.39,0,0,0,1.2-.62,2.91,2.91,0,0,0,.43-1.7,2.79,2.79,0,0,0-.43-1.69A1.4,1.4,0,0,0,106.55,217.59Z" transform="translate(-0.53 -4.75)" fill="#231f20"/><path d="M115.76,219.88a3.26,3.26,0,0,1-.72,2.24,2.54,2.54,0,0,1-2,.81,2.65,2.65,0,0,1-1.41-.37,2.49,2.49,0,0,1-.94-1.06,3.72,3.72,0,0,1-.34-1.62,3.22,3.22,0,0,1,.73-2.25,2.53,2.53,0,0,1,2-.8,2.49,2.49,0,0,1,2,.82A3.27,3.27,0,0,1,115.76,219.88Zm-4.48,0a2.77,2.77,0,0,0,.45,1.71,1.55,1.55,0,0,0,1.33.6,1.6,1.6,0,0,0,1.33-.59,2.8,2.8,0,0,0,.45-1.72,2.77,2.77,0,0,0-.45-1.71,1.84,1.84,0,0,0-2.67,0A2.83,2.83,0,0,0,111.28,219.88Z" transform="translate(-0.53 -4.75)" fill="#231f20"/><path d="M120,216.83a3.84,3.84,0,0,1,.71.06l-.13.83a3.28,3.28,0,0,0-.64-.08,1.54,1.54,0,0,0-1.22.58,2.12,2.12,0,0,0-.51,1.45v3.15h-.89v-5.88h.73l.11,1.09h0a2.56,2.56,0,0,1,.79-.89A1.74,1.74,0,0,1,120,216.83Z" transform="translate(-0.53 -4.75)" fill="#231f20"/><path d="M123.72,222.2a3.14,3.14,0,0,0,.45,0l.35-.07v.68a1.34,1.34,0,0,1-.42.12,3.25,3.25,0,0,1-.51,0q-1.71,0-1.71-1.8v-3.5H121v-.43l.84-.37.38-1.26h.51v1.37h1.71v.69h-1.71v3.46a1.19,1.19,0,0,0,.26.82A.85.85,0,0,0,123.72,222.2Z" transform="translate(-0.53 -4.75)" fill="#231f20"/><path d="M128.19,222.93a2.7,2.7,0,0,1-2.06-.79,3.06,3.06,0,0,1-.76-2.21,3.45,3.45,0,0,1,.7-2.26,2.34,2.34,0,0,1,1.89-.84,2.22,2.22,0,0,1,1.75.73,2.77,2.77,0,0,1,.64,1.92V220h-4a2.32,2.32,0,0,0,.52,1.58,1.84,1.84,0,0,0,1.4.53,4.84,4.84,0,0,0,1.88-.39v.79a4.59,4.59,0,0,1-.89.29A5,5,0,0,1,128.19,222.93Zm-.24-5.35a1.47,1.47,0,0,0-1.14.46,2.13,2.13,0,0,0-.49,1.28h3.08A1.93,1.93,0,0,0,129,218,1.32,1.32,0,0,0,128,217.58Z" transform="translate(-0.53 -4.75)" fill="#231f20"/><path d="M135.88,222h0a2.11,2.11,0,0,1-1.85.89,2.15,2.15,0,0,1-1.79-.79,3.44,3.44,0,0,1-.65-2.24,3.52,3.52,0,0,1,.65-2.26,2.38,2.38,0,0,1,3.63.06h.07l0-.42,0-.42v-2.39h.89v8.35H136Zm-1.78.15a1.63,1.63,0,0,0,1.32-.5,2.55,2.55,0,0,0,.41-1.61v-.18a2.94,2.94,0,0,0-.42-1.79,1.55,1.55,0,0,0-1.32-.53,1.37,1.37,0,0,0-1.21.61,3.08,3.08,0,0,0-.41,1.72,2.94,2.94,0,0,0,.41,1.7A1.42,1.42,0,0,0,134.1,222.19Z" transform="translate(-0.53 -4.75)" fill="#231f20"/><path d="M145.09,222.82l-.18-.83h0a2.56,2.56,0,0,1-.88.75,2.66,2.66,0,0,1-1.09.19,2,2,0,0,1-1.37-.45,1.65,1.65,0,0,1-.5-1.28c0-1.19.95-1.82,2.85-1.87l1,0v-.36a1.48,1.48,0,0,0-.3-1,1.22,1.22,0,0,0-1-.33A3.92,3.92,0,0,0,142,218l-.27-.68a4.19,4.19,0,0,1,.95-.38,4.7,4.7,0,0,1,1-.13,2.26,2.26,0,0,1,1.56.47,1.94,1.94,0,0,1,.51,1.5v4Zm-2-.62a1.81,1.81,0,0,0,1.3-.46,1.69,1.69,0,0,0,.48-1.28v-.53l-.89,0a3.17,3.17,0,0,0-1.54.33,1,1,0,0,0-.47.91.89.89,0,0,0,.3.73A1.19,1.19,0,0,0,143.08,222.2Z" transform="translate(-0.53 -4.75)" fill="#231f20"/><path d="M150.33,222.93a2.52,2.52,0,0,1-1.05-.21,1.94,1.94,0,0,1-.8-.65h-.06a8.4,8.4,0,0,1,.06,1v2.43h-.89v-8.53h.72l.13.8h0a2.19,2.19,0,0,1,.8-.7,2.46,2.46,0,0,1,1.05-.21,2.17,2.17,0,0,1,1.8.8,4.25,4.25,0,0,1,0,4.5A2.19,2.19,0,0,1,150.33,222.93Zm-.13-5.34a1.57,1.57,0,0,0-1.31.5,2.64,2.64,0,0,0-.41,1.59v.2a3,3,0,0,0,.41,1.77,1.58,1.58,0,0,0,1.33.54,1.39,1.39,0,0,0,1.2-.62,3,3,0,0,0,.43-1.7,2.86,2.86,0,0,0-.43-1.69A1.42,1.42,0,0,0,150.2,217.59Z" transform="translate(-0.53 -4.75)" fill="#231f20"/><path d="M157.07,222.93a2.59,2.59,0,0,1-1-.21,2,2,0,0,1-.8-.65h-.06a8.4,8.4,0,0,1,.06,1v2.43h-.89v-8.53h.72l.13.8h0a2.19,2.19,0,0,1,.8-.7,2.49,2.49,0,0,1,1-.21,2.2,2.2,0,0,1,1.81.8,4.3,4.3,0,0,1,0,4.5A2.21,2.21,0,0,1,157.07,222.93Zm-.13-5.34a1.57,1.57,0,0,0-1.31.5,2.64,2.64,0,0,0-.41,1.59v.2a3,3,0,0,0,.41,1.77,1.58,1.58,0,0,0,1.33.54,1.39,1.39,0,0,0,1.2-.62,3,3,0,0,0,.43-1.7,2.86,2.86,0,0,0-.43-1.69A1.42,1.42,0,0,0,156.94,217.59Z" transform="translate(-0.53 -4.75)" fill="#231f20"/><path d="M162,222.82h-.89v-8.35H162Z" transform="translate(-0.53 -4.75)" fill="#231f20"/><path d="M162.92,216.94h1l1.29,3.35a12.32,12.32,0,0,1,.53,1.66h0c.05-.18.15-.49.29-.93s.64-1.81,1.46-4.08h1l-2.53,6.7a3.32,3.32,0,0,1-.88,1.41,1.84,1.84,0,0,1-1.23.42,3.72,3.72,0,0,1-.81-.09v-.72a3.34,3.34,0,0,0,.66.07,1.36,1.36,0,0,0,1.31-1l.33-.83Z" transform="translate(-0.53 -4.75)" fill="#231f20"/><path d="M169.32,215.34a.61.61,0,0,1,.15-.45.56.56,0,0,1,.38-.14.53.53,0,0,1,.37.15.57.57,0,0,1,.15.44.61.61,0,0,1-.15.45.53.53,0,0,1-.37.15.52.52,0,0,1-.38-.15A.61.61,0,0,1,169.32,215.34Zm1,7.48h-.9v-5.88h.9Z" transform="translate(-0.53 -4.75)" fill="#231f20"/><path d="M176.21,222.82V219a1.55,1.55,0,0,0-.33-1.08,1.36,1.36,0,0,0-1-.35,1.66,1.66,0,0,0-1.35.5,2.49,2.49,0,0,0-.43,1.65v3.08h-.89v-5.88h.72l.15.8h0a1.8,1.8,0,0,1,.77-.67,2.47,2.47,0,0,1,1.1-.24,2.24,2.24,0,0,1,1.6.51,2.17,2.17,0,0,1,.54,1.64v3.84Z" transform="translate(-0.53 -4.75)" fill="#231f20"/><path d="M183.75,216.94v.56l-1.09.13a1.73,1.73,0,0,1,.26.49,1.85,1.85,0,0,1,.12.69,1.74,1.74,0,0,1-.59,1.38,2.38,2.38,0,0,1-1.62.51,2.49,2.49,0,0,1-.49,0,.87.87,0,0,0-.57.76.36.36,0,0,0,.2.35,1.39,1.39,0,0,0,.68.12h1a2.32,2.32,0,0,1,1.47.4,1.41,1.41,0,0,1,.51,1.17,1.66,1.66,0,0,1-.78,1.49,4.15,4.15,0,0,1-2.29.52,3.18,3.18,0,0,1-1.78-.43,1.46,1.46,0,0,1-.28-2.15,1.8,1.8,0,0,1,1-.53.87.87,0,0,1-.37-.32.76.76,0,0,1-.16-.49,1,1,0,0,1,.17-.57,2.06,2.06,0,0,1,.55-.47,1.53,1.53,0,0,1-.75-.63,1.93,1.93,0,0,1-.28-1,1.9,1.9,0,0,1,.58-1.49,2.34,2.34,0,0,1,1.64-.52,3,3,0,0,1,.83.11Zm-4.7,6.87a.81.81,0,0,0,.41.73,2.23,2.23,0,0,0,1.15.25,3.24,3.24,0,0,0,1.66-.34,1,1,0,0,0,.54-.91.72.72,0,0,0-.29-.66,2.22,2.22,0,0,0-1.11-.19h-1.07a1.44,1.44,0,0,0-1,.29A1,1,0,0,0,179.05,223.81Zm.49-5a1.22,1.22,0,0,0,.34.94,1.42,1.42,0,0,0,1,.31,1.13,1.13,0,0,0,1.3-1.26,1.17,1.17,0,0,0-1.32-1.33,1.3,1.3,0,0,0-1,.34A1.37,1.37,0,0,0,179.54,218.82Z" transform="translate(-0.53 -4.75)" fill="#231f20"/><path d="M189.71,222.2a3.42,3.42,0,0,0,.46,0l.35-.07v.68a1.51,1.51,0,0,1-.43.12,3.25,3.25,0,0,1-.51,0c-1.13,0-1.7-.6-1.7-1.8v-3.5H187v-.43l.85-.37.37-1.26h.52v1.37h1.71v.69h-1.71v3.46a1.18,1.18,0,0,0,.25.82A.88.88,0,0,0,189.71,222.2Z" transform="translate(-0.53 -4.75)" fill="#231f20"/><path d="M196.78,219.88a3.21,3.21,0,0,1-.73,2.24,2.54,2.54,0,0,1-2,.81,2.59,2.59,0,0,1-1.4-.37,2.45,2.45,0,0,1-1-1.06,3.72,3.72,0,0,1-.33-1.62,3.27,3.27,0,0,1,.72-2.25,2.55,2.55,0,0,1,2-.8,2.49,2.49,0,0,1,2,.82A3.27,3.27,0,0,1,196.78,219.88Zm-4.49,0a2.77,2.77,0,0,0,.45,1.71,1.57,1.57,0,0,0,1.33.6,1.59,1.59,0,0,0,1.33-.59,2.8,2.8,0,0,0,.45-1.72,2.77,2.77,0,0,0-.45-1.71,1.59,1.59,0,0,0-1.34-.58,1.56,1.56,0,0,0-1.32.57A2.76,2.76,0,0,0,192.29,219.88Z" transform="translate(-0.53 -4.75)" fill="#231f20"/><path d="M204.82,222.82l-.18-.83h0a2.65,2.65,0,0,1-.88.75,2.7,2.7,0,0,1-1.09.19,2,2,0,0,1-1.38-.45,1.64,1.64,0,0,1-.49-1.28c0-1.19,1-1.82,2.85-1.87l1,0v-.36a1.48,1.48,0,0,0-.3-1,1.23,1.23,0,0,0-.95-.33,3.92,3.92,0,0,0-1.67.45l-.27-.68a4,4,0,0,1,1-.38,4.63,4.63,0,0,1,1-.13,2.26,2.26,0,0,1,1.56.47,1.94,1.94,0,0,1,.51,1.5v4Zm-2-.62a1.83,1.83,0,0,0,1.31-.46,1.69,1.69,0,0,0,.48-1.28v-.53l-.9,0a3.13,3.13,0,0,0-1.53.33,1,1,0,0,0-.47.91.91.91,0,0,0,.29.73A1.22,1.22,0,0,0,202.8,222.2Z" transform="translate(-0.53 -4.75)" fill="#231f20"/><path d="M212.83,217.63h-1.5v5.19h-.89v-5.19h-1.06v-.4l1.06-.32v-.33c0-1.45.63-2.17,1.89-2.17a3.79,3.79,0,0,1,1.1.19l-.23.71a3.05,3.05,0,0,0-.89-.17.86.86,0,0,0-.74.34,1.87,1.87,0,0,0-.24,1.08v.38h1.5Z" transform="translate(-0.53 -4.75)" fill="#231f20"/><path d="M218.87,219.88a3.21,3.21,0,0,1-.73,2.24,2.54,2.54,0,0,1-2,.81,2.64,2.64,0,0,1-1.4-.37,2.43,2.43,0,0,1-.94-1.06,3.58,3.58,0,0,1-.34-1.62,3.27,3.27,0,0,1,.72-2.25,2.57,2.57,0,0,1,2-.8,2.47,2.47,0,0,1,2,.82A3.22,3.22,0,0,1,218.87,219.88Zm-4.49,0a2.77,2.77,0,0,0,.46,1.71,1.55,1.55,0,0,0,1.32.6,1.57,1.57,0,0,0,1.33-.59,2.73,2.73,0,0,0,.46-1.72,2.7,2.7,0,0,0-.46-1.71,1.83,1.83,0,0,0-2.66,0A2.76,2.76,0,0,0,214.38,219.88Z" transform="translate(-0.53 -4.75)" fill="#231f20"/><path d="M221.16,216.94v3.82a1.52,1.52,0,0,0,.33,1.07,1.32,1.32,0,0,0,1,.36,1.69,1.69,0,0,0,1.36-.51,2.59,2.59,0,0,0,.42-1.65v-3.09h.89v5.88h-.73l-.13-.78h0a1.75,1.75,0,0,1-.76.66,2.59,2.59,0,0,1-1.11.23,2.27,2.27,0,0,1-1.61-.51,2.19,2.19,0,0,1-.53-1.63v-3.85Z" transform="translate(-0.53 -4.75)" fill="#231f20"/><path d="M229.65,216.83a3.65,3.65,0,0,1,.7.06l-.12.83a3.28,3.28,0,0,0-.64-.08,1.57,1.57,0,0,0-1.23.58,2.16,2.16,0,0,0-.5,1.45v3.15H227v-5.88h.74l.1,1.09h0a2.53,2.53,0,0,1,.78-.89A1.78,1.78,0,0,1,229.65,216.83Z" transform="translate(-0.53 -4.75)" fill="#231f20"/><path d="M230.85,220.28v-.81h2.64v.81Z" transform="translate(-0.53 -4.75)" fill="#231f20"/><path d="M233.84,216.94h1l1.29,3.35a13.47,13.47,0,0,1,.52,1.66h0q.07-.27.3-.93c.15-.45.63-1.81,1.46-4.08h1l-2.53,6.7a3.32,3.32,0,0,1-.88,1.41,1.84,1.84,0,0,1-1.23.42,3.57,3.57,0,0,1-.8-.09v-.72a3.18,3.18,0,0,0,.66.07,1.37,1.37,0,0,0,1.31-1l.32-.83Z" transform="translate(-0.53 -4.75)" fill="#231f20"/><path d="M242.69,222.93a2.73,2.73,0,0,1-2.06-.79,3.1,3.1,0,0,1-.75-2.21,3.4,3.4,0,0,1,.7-2.26,2.33,2.33,0,0,1,1.88-.84,2.19,2.19,0,0,1,1.75.73,2.77,2.77,0,0,1,.65,1.92V220H240.8a2.38,2.38,0,0,0,.53,1.58,1.84,1.84,0,0,0,1.4.53,4.84,4.84,0,0,0,1.88-.39v.79a4.67,4.67,0,0,1-.9.29A5,5,0,0,1,242.69,222.93Zm-.24-5.35a1.45,1.45,0,0,0-1.13.46,2.13,2.13,0,0,0-.49,1.28h3.07a1.93,1.93,0,0,0-.37-1.29A1.33,1.33,0,0,0,242.45,217.58Z" transform="translate(-0.53 -4.75)" fill="#231f20"/><path d="M249.89,222.82l-.18-.83h0a2.56,2.56,0,0,1-.88.75,2.7,2.7,0,0,1-1.09.19,2,2,0,0,1-1.37-.45,1.65,1.65,0,0,1-.5-1.28c0-1.19.95-1.82,2.85-1.87l1,0v-.36a1.48,1.48,0,0,0-.3-1,1.22,1.22,0,0,0-.95-.33,3.92,3.92,0,0,0-1.67.45l-.27-.68a4.19,4.19,0,0,1,.95-.38,4.63,4.63,0,0,1,1-.13,2.26,2.26,0,0,1,1.56.47,1.94,1.94,0,0,1,.51,1.5v4Zm-2-.62a1.81,1.81,0,0,0,1.3-.46,1.69,1.69,0,0,0,.48-1.28v-.53l-.89,0a3.17,3.17,0,0,0-1.54.33,1,1,0,0,0-.47.91.89.89,0,0,0,.3.73A1.19,1.19,0,0,0,247.88,222.2Z" transform="translate(-0.53 -4.75)" fill="#231f20"/><path d="M255,216.83a3.84,3.84,0,0,1,.71.06l-.13.83a3.28,3.28,0,0,0-.64-.08,1.54,1.54,0,0,0-1.22.58,2.12,2.12,0,0,0-.51,1.45v3.15h-.89v-5.88H253l.1,1.09h0a2.56,2.56,0,0,1,.79-.89A1.72,1.72,0,0,1,255,216.83Z" transform="translate(-0.53 -4.75)" fill="#231f20"/><path d="M261.76,222.93a2.49,2.49,0,0,1-2-.79,3.2,3.2,0,0,1-.7-2.22,3.28,3.28,0,0,1,.71-2.28,2.55,2.55,0,0,1,2-.81,4,4,0,0,1,.84.09,2.38,2.38,0,0,1,.67.22l-.27.75a4.11,4.11,0,0,0-.65-.19,3,3,0,0,0-.61-.08c-1.2,0-1.8.76-1.8,2.29a2.71,2.71,0,0,0,.44,1.66,1.51,1.51,0,0,0,1.3.58,3.91,3.91,0,0,0,1.5-.31v.79A3.25,3.25,0,0,1,261.76,222.93Z" transform="translate(-0.53 -4.75)" fill="#231f20"/><path d="M269.61,219.88a3.26,3.26,0,0,1-.72,2.24,2.56,2.56,0,0,1-2,.81,2.64,2.64,0,0,1-1.4-.37,2.43,2.43,0,0,1-.94-1.06,3.58,3.58,0,0,1-.34-1.62,3.27,3.27,0,0,1,.72-2.25,2.57,2.57,0,0,1,2-.8,2.46,2.46,0,0,1,2,.82A3.22,3.22,0,0,1,269.61,219.88Zm-4.48,0a2.77,2.77,0,0,0,.45,1.71,1.77,1.77,0,0,0,2.65,0,2.73,2.73,0,0,0,.46-1.72,2.7,2.7,0,0,0-.46-1.71,1.83,1.83,0,0,0-2.66,0A2.83,2.83,0,0,0,265.13,219.88Z" transform="translate(-0.53 -4.75)" fill="#231f20"/><path d="M272,222.82h-.89v-8.35H272Z" transform="translate(-0.53 -4.75)" fill="#231f20"/><path d="M274.63,222.82h-.89v-8.35h.89Z" transform="translate(-0.53 -4.75)" fill="#231f20"/><path d="M278.9,222.93a2.7,2.7,0,0,1-2.06-.79,3.06,3.06,0,0,1-.76-2.21,3.45,3.45,0,0,1,.7-2.26,2.34,2.34,0,0,1,1.89-.84,2.22,2.22,0,0,1,1.75.73,2.77,2.77,0,0,1,.64,1.92V220H277a2.32,2.32,0,0,0,.52,1.58,1.84,1.84,0,0,0,1.4.53,4.84,4.84,0,0,0,1.88-.39v.79a4.59,4.59,0,0,1-.89.29A5,5,0,0,1,278.9,222.93Zm-.24-5.35a1.47,1.47,0,0,0-1.14.46,2.13,2.13,0,0,0-.49,1.28h3.08a1.93,1.93,0,0,0-.38-1.29A1.32,1.32,0,0,0,278.66,217.58Z" transform="translate(-0.53 -4.75)" fill="#231f20"/><path d="M287.29,216.94v.56l-1.09.13a2,2,0,0,1,.27.49,1.85,1.85,0,0,1,.12.69,1.75,1.75,0,0,1-.6,1.38,2.38,2.38,0,0,1-1.62.51,2.56,2.56,0,0,1-.49,0,.87.87,0,0,0-.57.76.37.37,0,0,0,.2.35,1.39,1.39,0,0,0,.68.12h1a2.32,2.32,0,0,1,1.47.4,1.41,1.41,0,0,1,.51,1.17,1.66,1.66,0,0,1-.78,1.49,4.13,4.13,0,0,1-2.29.52,3.18,3.18,0,0,1-1.78-.43,1.46,1.46,0,0,1-.28-2.15,1.8,1.8,0,0,1,1-.53.84.84,0,0,1-.38-.32.76.76,0,0,1-.16-.49.92.92,0,0,1,.18-.57,1.85,1.85,0,0,1,.54-.47,1.57,1.57,0,0,1-.75-.63,1.93,1.93,0,0,1-.28-1,1.9,1.9,0,0,1,.58-1.49,2.34,2.34,0,0,1,1.64-.52,3,3,0,0,1,.83.11Zm-4.7,6.87a.81.81,0,0,0,.41.73,2.26,2.26,0,0,0,1.15.25,3.24,3.24,0,0,0,1.66-.34,1,1,0,0,0,.54-.91.7.7,0,0,0-.29-.66,2.22,2.22,0,0,0-1.11-.19h-1.07a1.44,1.44,0,0,0-.95.29A1,1,0,0,0,282.59,223.81Zm.49-5a1.19,1.19,0,0,0,.35.94,1.38,1.38,0,0,0,1,.31,1.13,1.13,0,0,0,1.3-1.26,1.17,1.17,0,0,0-1.32-1.33,1.26,1.26,0,0,0-1,.34A1.33,1.33,0,0,0,283.08,218.82Z" transform="translate(-0.53 -4.75)" fill="#231f20"/><path d="M290.87,222.93a2.71,2.71,0,0,1-2.06-.79,3.1,3.1,0,0,1-.75-2.21,3.4,3.4,0,0,1,.7-2.26,2.33,2.33,0,0,1,1.88-.84,2.2,2.2,0,0,1,1.75.73,2.77,2.77,0,0,1,.65,1.92V220H289a2.38,2.38,0,0,0,.53,1.58,1.84,1.84,0,0,0,1.4.53,4.84,4.84,0,0,0,1.88-.39v.79a4.67,4.67,0,0,1-.9.29A5,5,0,0,1,290.87,222.93Zm-.24-5.35a1.45,1.45,0,0,0-1.13.46,2.2,2.2,0,0,0-.5,1.28h3.08a1.93,1.93,0,0,0-.37-1.29A1.33,1.33,0,0,0,290.63,217.58Z" transform="translate(-0.53 -4.75)" fill="#231f20"/><path d="M295.38,221.55l.08.12a11.62,11.62,0,0,1-.4,1.25c-.17.47-.36.91-.55,1.32h-.67c.1-.37.21-.83.32-1.38s.2-1,.25-1.31Z" transform="translate(-0.53 -4.75)" fill="#231f20"/><path d="M5.2,233.24a3.21,3.21,0,0,1,2.3.81,2.9,2.9,0,0,1,.86,2.23,3.23,3.23,0,0,1-1,2.58,4.35,4.35,0,0,1-2.95.9,5.81,5.81,0,0,1-2.7-.54V237.4a5.62,5.62,0,0,0,1.26.46A5.6,5.6,0,0,0,4.3,238c1.29,0,1.94-.52,1.94-1.58s-.67-1.51-2-1.51a4.73,4.73,0,0,0-.8.07c-.29,0-.53.1-.71.15l-.84-.45.38-5.09H7.68v1.79H4.11l-.19,2,.24,0A5.09,5.09,0,0,1,5.2,233.24Z" transform="translate(-0.53 -4.75)" fill="#231f20"/><path d="M16.48,234.63a7,7,0,0,1-.85,3.87A3,3,0,0,1,13,239.76a2.92,2.92,0,0,1-2.6-1.3,6.8,6.8,0,0,1-.88-3.83,7,7,0,0,1,.85-3.9A3,3,0,0,1,13,229.47a3,3,0,0,1,2.62,1.32A6.86,6.86,0,0,1,16.48,234.63Zm-4.89,0a7.8,7.8,0,0,0,.32,2.63,1.11,1.11,0,0,0,2.14,0,10.65,10.65,0,0,0,0-5.26,1.13,1.13,0,0,0-1.07-.81,1.1,1.1,0,0,0-1.06.81A7.52,7.52,0,0,0,11.59,234.63Z" transform="translate(-0.53 -4.75)" fill="#231f20"/><path d="M21.42,233.61a3.28,3.28,0,0,1-.52,2,1.82,1.82,0,0,1-1.53.67,1.77,1.77,0,0,1-1.49-.69,3.28,3.28,0,0,1-.53-2c0-1.78.67-2.68,2-2.68a1.81,1.81,0,0,1,1.52.7A3.15,3.15,0,0,1,21.42,233.61Zm-2.59,0a3.41,3.41,0,0,0,.13,1.11c.09.25.23.37.42.37.38,0,.57-.49.57-1.48s-.19-1.46-.57-1.46q-.28,0-.42.36A3.38,3.38,0,0,0,18.83,233.62Zm6.62-2.56-4.75,8.56H19.3l4.75-8.56Zm2,6a3.25,3.25,0,0,1-.52,2,1.82,1.82,0,0,1-1.53.68,1.77,1.77,0,0,1-1.49-.69,3.3,3.3,0,0,1-.53-2c0-1.78.67-2.67,2-2.67a1.8,1.8,0,0,1,1.52.69A3.15,3.15,0,0,1,27.42,237Zm-2.59,0a3.49,3.49,0,0,0,.13,1.11q.13.36.42.36.57,0,.57-1.47t-.57-1.47q-.28,0-.42.36A3.41,3.41,0,0,0,24.83,237.05Z" transform="translate(-0.53 -4.75)" fill="#231f20"/><path d="M34.59,239.73a2.59,2.59,0,0,1-1.05-.21,2,2,0,0,1-.79-.65h-.07a8.51,8.51,0,0,1,.07,1v2.43h-.9v-8.53h.73l.12.8h0a2.12,2.12,0,0,1,.8-.7,2.44,2.44,0,0,1,1-.21,2.19,2.19,0,0,1,1.81.8,3.47,3.47,0,0,1,.64,2.24,3.54,3.54,0,0,1-.65,2.26A2.19,2.19,0,0,1,34.59,239.73Zm-.13-5.34a1.55,1.55,0,0,0-1.3.5,2.5,2.5,0,0,0-.41,1.59v.19a2.94,2.94,0,0,0,.41,1.78,1.58,1.58,0,0,0,1.33.54,1.38,1.38,0,0,0,1.19-.62,2.91,2.91,0,0,0,.43-1.7,2.79,2.79,0,0,0-.43-1.69A1.4,1.4,0,0,0,34.46,234.39Z" transform="translate(-0.53 -4.75)" fill="#231f20"/><path d="M41,239.73a2.71,2.71,0,0,1-2.06-.79,3.1,3.1,0,0,1-.75-2.21,3.4,3.4,0,0,1,.7-2.26,2.32,2.32,0,0,1,1.88-.84,2.2,2.2,0,0,1,1.75.73,2.77,2.77,0,0,1,.65,1.92v.56H39.08a2.32,2.32,0,0,0,.53,1.58A1.82,1.82,0,0,0,41,239a4.8,4.8,0,0,0,1.88-.39v.79a4.38,4.38,0,0,1-.89.29A5,5,0,0,1,41,239.73Zm-.24-5.35a1.45,1.45,0,0,0-1.13.46,2.13,2.13,0,0,0-.5,1.28h3.08a1.88,1.88,0,0,0-.38-1.29A1.31,1.31,0,0,0,40.73,234.38Z" transform="translate(-0.53 -4.75)" fill="#231f20"/><path d="M47.23,233.63a3.84,3.84,0,0,1,.71.06l-.13.83a3.28,3.28,0,0,0-.64-.08A1.54,1.54,0,0,0,46,235a2.12,2.12,0,0,0-.51,1.45v3.15h-.89v-5.88h.73l.1,1.09h0a2.56,2.56,0,0,1,.79-.89A1.74,1.74,0,0,1,47.23,233.63Z" transform="translate(-0.53 -4.75)" fill="#231f20"/><path d="M51.58,234.43h-1.5v5.19h-.89v-5.19h-1V234l1-.32v-.33c0-1.45.63-2.17,1.9-2.17a3.73,3.73,0,0,1,1.09.19l-.23.71a3,3,0,0,0-.88-.17.87.87,0,0,0-.75.34,1.87,1.87,0,0,0-.24,1.08v.38h1.5Z" transform="translate(-0.53 -4.75)" fill="#231f20"/><path d="M57.63,236.67a3.27,3.27,0,0,1-.73,2.25,2.54,2.54,0,0,1-2,.81,2.59,2.59,0,0,1-1.4-.37,2.45,2.45,0,0,1-1-1.06,3.8,3.8,0,0,1-.33-1.63,3.26,3.26,0,0,1,.72-2.24,2.55,2.55,0,0,1,2-.8,2.49,2.49,0,0,1,2,.82A3.26,3.26,0,0,1,57.63,236.67Zm-4.49,0a2.78,2.78,0,0,0,.45,1.72,1.55,1.55,0,0,0,1.33.6,1.6,1.6,0,0,0,1.33-.59,2.83,2.83,0,0,0,.45-1.73,2.75,2.75,0,0,0-.45-1.7,1.6,1.6,0,0,0-1.34-.58,1.56,1.56,0,0,0-1.32.57A2.75,2.75,0,0,0,53.14,236.67Z" transform="translate(-0.53 -4.75)" fill="#231f20"/><path d="M61.76,233.63a3.76,3.76,0,0,1,.71.06l-.13.83a3.19,3.19,0,0,0-.64-.08,1.55,1.55,0,0,0-1.22.58,2.12,2.12,0,0,0-.51,1.45v3.15h-.89v-5.88h.73l.11,1.09h0a2.56,2.56,0,0,1,.79-.89A1.74,1.74,0,0,1,61.76,233.63Z" transform="translate(-0.53 -4.75)" fill="#231f20"/><path d="M71,239.62v-3.83a1.58,1.58,0,0,0-.3-1,1.14,1.14,0,0,0-.93-.35,1.49,1.49,0,0,0-1.23.48,2.21,2.21,0,0,0-.4,1.47v3.28h-.89v-3.83a1.58,1.58,0,0,0-.3-1,1.16,1.16,0,0,0-.94-.35,1.44,1.44,0,0,0-1.23.5,2.7,2.7,0,0,0-.39,1.65v3.08h-.89v-5.88h.72l.15.8h0a1.83,1.83,0,0,1,.71-.67,2.2,2.2,0,0,1,1-.24,1.76,1.76,0,0,1,1.81,1h0a1.91,1.91,0,0,1,.76-.73,2.4,2.4,0,0,1,1.14-.27,2,2,0,0,1,1.5.51,2.3,2.3,0,0,1,.49,1.64v3.84Z" transform="translate(-0.53 -4.75)" fill="#231f20"/><path d="M76.07,239.73a2.7,2.7,0,0,1-2.06-.79,3.06,3.06,0,0,1-.76-2.21,3.45,3.45,0,0,1,.7-2.26,2.34,2.34,0,0,1,1.89-.84,2.22,2.22,0,0,1,1.75.73,2.77,2.77,0,0,1,.64,1.92v.56h-4a2.37,2.37,0,0,0,.52,1.58,1.84,1.84,0,0,0,1.4.53,4.84,4.84,0,0,0,1.88-.39v.79a4.38,4.38,0,0,1-.89.29A5,5,0,0,1,76.07,239.73Zm-.24-5.35a1.43,1.43,0,0,0-1.13.46,2.07,2.07,0,0,0-.5,1.28h3.08a1.93,1.93,0,0,0-.38-1.29A1.32,1.32,0,0,0,75.83,234.38Z" transform="translate(-0.53 -4.75)" fill="#231f20"/><path d="M83.65,238.83H83.6a2.09,2.09,0,0,1-1.85.9,2.15,2.15,0,0,1-1.79-.79,3.44,3.44,0,0,1-.65-2.24,3.52,3.52,0,0,1,.65-2.26,2.38,2.38,0,0,1,3.63.06h.07l0-.42,0-.42v-2.39h.89v8.35h-.72Zm-1.78.16a1.63,1.63,0,0,0,1.32-.5,2.55,2.55,0,0,0,.41-1.61v-.18a2.94,2.94,0,0,0-.42-1.79,1.56,1.56,0,0,0-1.33-.53,1.36,1.36,0,0,0-1.2.61,3.08,3.08,0,0,0-.41,1.72,2.94,2.94,0,0,0,.41,1.7A1.42,1.42,0,0,0,81.87,239Z" transform="translate(-0.53 -4.75)" fill="#231f20"/><path d="M92.64,239.62l-.18-.83h0a2.56,2.56,0,0,1-.88.75,2.66,2.66,0,0,1-1.09.19,2,2,0,0,1-1.37-.45,1.65,1.65,0,0,1-.5-1.28c0-1.19,1-1.82,2.85-1.87l1,0v-.36a1.48,1.48,0,0,0-.3-1,1.22,1.22,0,0,0-.95-.33,3.92,3.92,0,0,0-1.67.45l-.27-.68a4.19,4.19,0,0,1,1-.38,4.7,4.7,0,0,1,1-.13,2.22,2.22,0,0,1,1.56.47,1.94,1.94,0,0,1,.51,1.5v4Zm-2-.62a1.81,1.81,0,0,0,1.3-.46,1.69,1.69,0,0,0,.48-1.28v-.53l-.89,0a3.17,3.17,0,0,0-1.54.33,1,1,0,0,0-.47.91.89.89,0,0,0,.3.73A1.2,1.2,0,0,0,90.63,239Z" transform="translate(-0.53 -4.75)" fill="#231f20"/><path d="M96.93,239a3.14,3.14,0,0,0,.45,0l.35-.07v.68a1.34,1.34,0,0,1-.42.12,3.25,3.25,0,0,1-.51,0q-1.71,0-1.71-1.8v-3.5h-.84V234l.84-.37.38-1.26H96v1.37h1.71v.69H96v3.46a1.19,1.19,0,0,0,.26.82A.85.85,0,0,0,96.93,239Z" transform="translate(-0.53 -4.75)" fill="#231f20"/><path d="M106.63,236.67a3.22,3.22,0,0,1-.73,2.25,2.54,2.54,0,0,1-2,.81,2.64,2.64,0,0,1-1.4-.37,2.51,2.51,0,0,1-1-1.06,3.8,3.8,0,0,1-.33-1.63,3.26,3.26,0,0,1,.72-2.24,2.57,2.57,0,0,1,2-.8,2.47,2.47,0,0,1,2,.82A3.21,3.21,0,0,1,106.63,236.67Zm-4.49,0a2.78,2.78,0,0,0,.46,1.72,1.55,1.55,0,0,0,1.32.6,1.57,1.57,0,0,0,1.33-.59,2.83,2.83,0,0,0,.46-1.73,2.75,2.75,0,0,0-.46-1.7,1.83,1.83,0,0,0-2.66,0A2.75,2.75,0,0,0,102.14,236.67Z" transform="translate(-0.53 -4.75)" fill="#231f20"/><path d="M110.77,233.63a3.73,3.73,0,0,1,.7.06l-.12.83a3.28,3.28,0,0,0-.65-.08,1.57,1.57,0,0,0-1.22.58,2.12,2.12,0,0,0-.51,1.45v3.15h-.89v-5.88h.74l.1,1.09h0a2.66,2.66,0,0,1,.79-.89A1.78,1.78,0,0,1,110.77,233.63Z" transform="translate(-0.53 -4.75)" fill="#231f20"/><path d="M118.83,239.62l-.18-.83h0a2.56,2.56,0,0,1-.88.75,2.66,2.66,0,0,1-1.09.19,2,2,0,0,1-1.37-.45,1.65,1.65,0,0,1-.5-1.28c0-1.19,1-1.82,2.85-1.87l1,0v-.36a1.48,1.48,0,0,0-.3-1,1.22,1.22,0,0,0-.95-.33,3.92,3.92,0,0,0-1.67.45l-.27-.68a4.19,4.19,0,0,1,.95-.38,4.7,4.7,0,0,1,1-.13,2.24,2.24,0,0,1,1.56.47,1.94,1.94,0,0,1,.51,1.5v4Zm-2-.62a1.81,1.81,0,0,0,1.3-.46,1.69,1.69,0,0,0,.48-1.28v-.53l-.89,0a3.17,3.17,0,0,0-1.54.33,1,1,0,0,0-.47.91.89.89,0,0,0,.3.73A1.19,1.19,0,0,0,116.82,239Z" transform="translate(-0.53 -4.75)" fill="#231f20"/><path d="M124,233.64a2.18,2.18,0,0,1,1.8.79,4.25,4.25,0,0,1,0,4.5,2.19,2.19,0,0,1-1.79.8,2.52,2.52,0,0,1-1-.21,1.94,1.94,0,0,1-.8-.65h-.06l-.19.75h-.64v-8.35h.89v2c0,.45,0,.86,0,1.22h0A2.1,2.1,0,0,1,124,233.64Zm-.13.75a1.56,1.56,0,0,0-1.32.52,3,3,0,0,0-.4,1.76,3,3,0,0,0,.41,1.78,1.58,1.58,0,0,0,1.33.54,1.35,1.35,0,0,0,1.22-.6,3.08,3.08,0,0,0,.41-1.72,3,3,0,0,0-.41-1.72A1.42,1.42,0,0,0,123.83,234.39Z" transform="translate(-0.53 -4.75)" fill="#231f20"/><path d="M132.93,236.67a3.22,3.22,0,0,1-.73,2.25,2.54,2.54,0,0,1-2,.81,2.62,2.62,0,0,1-1.4-.37,2.51,2.51,0,0,1-1-1.06,3.8,3.8,0,0,1-.33-1.63,3.26,3.26,0,0,1,.72-2.24,2.57,2.57,0,0,1,2-.8,2.47,2.47,0,0,1,2,.82A3.21,3.21,0,0,1,132.93,236.67Zm-4.49,0a2.71,2.71,0,0,0,.46,1.72,1.55,1.55,0,0,0,1.32.6,1.57,1.57,0,0,0,1.33-.59,2.83,2.83,0,0,0,.46-1.73,2.75,2.75,0,0,0-.46-1.7,1.83,1.83,0,0,0-2.66,0A2.75,2.75,0,0,0,128.44,236.67Z" transform="translate(-0.53 -4.75)" fill="#231f20"/><path d="M135.67,239.62l-2.23-5.88h.95l1.27,3.49a15.78,15.78,0,0,1,.51,1.59h0a12,12,0,0,1,.37-1.18q.31-.9,1.41-3.9h1l-2.24,5.88Z" transform="translate(-0.53 -4.75)" fill="#231f20"/><path d="M142.27,239.73a2.7,2.7,0,0,1-2.06-.79,3.1,3.1,0,0,1-.75-2.21,3.4,3.4,0,0,1,.7-2.26,2.31,2.31,0,0,1,1.88-.84,2.2,2.2,0,0,1,1.75.73,2.77,2.77,0,0,1,.64,1.92v.56h-4.05a2.37,2.37,0,0,0,.52,1.58,1.84,1.84,0,0,0,1.4.53,4.8,4.8,0,0,0,1.88-.39v.79a4.38,4.38,0,0,1-.89.29A5,5,0,0,1,142.27,239.73Zm-.24-5.35a1.45,1.45,0,0,0-1.13.46,2.13,2.13,0,0,0-.5,1.28h3.08a1.93,1.93,0,0,0-.38-1.29A1.32,1.32,0,0,0,142,234.38Z" transform="translate(-0.53 -4.75)" fill="#231f20"/><path d="M150.49,239a3.42,3.42,0,0,0,.46,0l.35-.07v.68a1.51,1.51,0,0,1-.43.12,3.25,3.25,0,0,1-.51,0c-1.13,0-1.7-.6-1.7-1.8v-3.5h-.85V234l.85-.37.37-1.26h.52v1.37h1.71v.69h-1.71v3.46a1.18,1.18,0,0,0,.25.82A.88.88,0,0,0,150.49,239Z" transform="translate(-0.53 -4.75)" fill="#231f20"/><path d="M156.39,239.62v-3.8a1.6,1.6,0,0,0-.32-1.08,1.33,1.33,0,0,0-1-.35,1.72,1.72,0,0,0-1.36.5,2.61,2.61,0,0,0-.42,1.66v3.07h-.89v-8.35h.89v2.53a5.11,5.11,0,0,1,0,.75h.06a1.82,1.82,0,0,1,.75-.67,2.45,2.45,0,0,1,1.11-.24,2.28,2.28,0,0,1,1.62.51,2.18,2.18,0,0,1,.54,1.63v3.84Z" transform="translate(-0.53 -4.75)" fill="#231f20"/><path d="M161.49,239.73a2.71,2.71,0,0,1-2.06-.79,3.1,3.1,0,0,1-.75-2.21,3.4,3.4,0,0,1,.7-2.26,2.32,2.32,0,0,1,1.88-.84,2.2,2.2,0,0,1,1.75.73,2.77,2.77,0,0,1,.65,1.92v.56H159.6a2.38,2.38,0,0,0,.53,1.58,1.82,1.82,0,0,0,1.4.53,4.84,4.84,0,0,0,1.88-.39v.79a4.67,4.67,0,0,1-.9.29A5,5,0,0,1,161.49,239.73Zm-.24-5.35a1.45,1.45,0,0,0-1.13.46,2.13,2.13,0,0,0-.5,1.28h3.08a1.93,1.93,0,0,0-.37-1.29A1.33,1.33,0,0,0,161.25,234.38Z" transform="translate(-0.53 -4.75)" fill="#231f20"/><path d="M173,239.62h-1l-2.47-6.56h0c-.11.79-.24,1.53-.39,2.24l-.93,4.32h-.87l1.66-7.85h1l2.46,6.55h0a21.5,21.5,0,0,1,.38-2.17l.94-4.38h.88Z" transform="translate(-0.53 -4.75)" fill="#231f20"/><path d="M178.85,237.13h-2.66l-1.32,2.49h-1l4.29-7.85h.93l1,7.85h-.91Zm-.1-.84-.18-1.61a17.45,17.45,0,0,1-.16-1.88c-.13.32-.28.63-.43.94s-.6,1.16-1.34,2.55Z" transform="translate(-0.53 -4.75)" fill="#231f20"/><path d="M184.89,239.62h-3.95l1.66-7.85h4l-.17.82h-3l-.53,2.52h2.83l-.15.82h-2.84l-.62,2.88h3Z" transform="translate(-0.53 -4.75)" fill="#231f20"/><path d="M192.22,233.8a2.44,2.44,0,0,1-.88,2,4.08,4.08,0,0,1-2.59.71H188l-.66,3.08h-.91l1.66-7.85h1.77a2.62,2.62,0,0,1,1.74.51A1.9,1.9,0,0,1,192.22,233.8Zm-4,1.95h.71a2.71,2.71,0,0,0,1.76-.49,1.73,1.73,0,0,0,.6-1.43,1.16,1.16,0,0,0-.37-1,1.82,1.82,0,0,0-1.15-.3h-.87Z" transform="translate(-0.53 -4.75)" fill="#231f20"/><path d="M201.08,233.8a2.44,2.44,0,0,1-.88,2,4.07,4.07,0,0,1-2.58.71h-.73l-.66,3.08h-.91l1.66-7.85h1.77a2.58,2.58,0,0,1,1.74.51A1.87,1.87,0,0,1,201.08,233.8Zm-4,1.95h.71a2.75,2.75,0,0,0,1.77-.49,1.73,1.73,0,0,0,.6-1.43,1.17,1.17,0,0,0-.38-1,1.81,1.81,0,0,0-1.14-.3h-.88Z" transform="translate(-0.53 -4.75)" fill="#231f20"/><path d="M205,233.63a2.51,2.51,0,0,1,.65.08l-.2.8a2.15,2.15,0,0,0-.56-.07,1.53,1.53,0,0,0-.92.32,2.93,2.93,0,0,0-.74.9,4.28,4.28,0,0,0-.47,1.27l-.58,2.69h-.9l1.26-5.88h.74l-.12,1.09h.06a5.55,5.55,0,0,1,.64-.74,2.17,2.17,0,0,1,.53-.34A1.51,1.51,0,0,1,205,233.63Z" transform="translate(-0.53 -4.75)" fill="#231f20"/><path d="M208.67,233.66a2.12,2.12,0,0,1,1.61.61,2.23,2.23,0,0,1,.59,1.66,4.67,4.67,0,0,1-.38,1.9,3.29,3.29,0,0,1-1.05,1.39,2.42,2.42,0,0,1-1.49.49,2.13,2.13,0,0,1-1.62-.61,2.27,2.27,0,0,1-.59-1.66,4.78,4.78,0,0,1,.4-1.92,3.26,3.26,0,0,1,1.05-1.38A2.49,2.49,0,0,1,208.67,233.66Zm1.27,2.15a1.45,1.45,0,0,0-.34-1,1.15,1.15,0,0,0-.91-.38,1.55,1.55,0,0,0-1.05.4,2.52,2.52,0,0,0-.72,1.1,4.62,4.62,0,0,0-.25,1.57,1.58,1.58,0,0,0,.34,1.09,1.26,1.26,0,0,0,1,.38,1.47,1.47,0,0,0,1-.39,2.56,2.56,0,0,0,.7-1.11A5,5,0,0,0,209.94,235.81Z" transform="translate(-0.53 -4.75)" fill="#231f20"/><path d="M210.72,242.27a1.78,1.78,0,0,1-.67-.12v-.75a1.83,1.83,0,0,0,.6.11.72.72,0,0,0,.63-.33,2.79,2.79,0,0,0,.35-1l1.22-5.81h-1l.07-.36,1.1-.35.13-.54a3.17,3.17,0,0,1,.68-1.52,1.78,1.78,0,0,1,1.3-.44,3,3,0,0,1,.53.06,2.58,2.58,0,0,1,.48.14l-.23.69a2.25,2.25,0,0,0-.74-.16,1,1,0,0,0-.72.26,2.18,2.18,0,0,0-.4,1l-.14.58h1.28l-.13.68h-1.27l-1.25,5.9a3.19,3.19,0,0,1-.64,1.48A1.53,1.53,0,0,1,210.72,242.27Zm5.23-2.65h-.9l1.26-5.88h.9Zm.61-7.39a.73.73,0,0,1,.17-.49.6.6,0,0,1,.45-.19.42.42,0,0,1,.47.48.71.71,0,0,1-.18.5.54.54,0,0,1-.42.21.47.47,0,0,1-.49-.51Z" transform="translate(-0.53 -4.75)" fill="#231f20"/><path d="M220.14,239.73a2,2,0,0,1-2.19-2.2,5,5,0,0,1,.4-2,3.41,3.41,0,0,1,1.1-1.41,2.62,2.62,0,0,1,1.58-.51,3.9,3.9,0,0,1,1.43.27l-.25.76a3.07,3.07,0,0,0-1.17-.27,1.64,1.64,0,0,0-1.1.41,2.69,2.69,0,0,0-.78,1.14,4.36,4.36,0,0,0-.28,1.59,1.53,1.53,0,0,0,.35,1.07,1.28,1.28,0,0,0,1,.39,2.48,2.48,0,0,0,.73-.11c.23-.07.46-.16.68-.25v.76A3.2,3.2,0,0,1,220.14,239.73Z" transform="translate(-0.53 -4.75)" fill="#231f20"/><path d="M223.49,239.62h-.9l1.25-5.88h.91Zm.6-7.39a.69.69,0,0,1,.18-.49.58.58,0,0,1,.44-.19.42.42,0,0,1,.47.48.67.67,0,0,1-.18.5.52.52,0,0,1-.41.21.57.57,0,0,1-.36-.13A.52.52,0,0,1,224.09,232.23Z" transform="translate(-0.53 -4.75)" fill="#231f20"/><path d="M227.59,239.73a2.07,2.07,0,0,1-1.55-.58,2.29,2.29,0,0,1-.56-1.63,4.77,4.77,0,0,1,.4-1.93,3.57,3.57,0,0,1,1.06-1.44,2.29,2.29,0,0,1,1.46-.52,1.84,1.84,0,0,1,1.23.36,1.23,1.23,0,0,1,.41,1,1.69,1.69,0,0,1-.89,1.52,4.83,4.83,0,0,1-2.55.55h-.18l0,.43a1.66,1.66,0,0,0,.33,1.1,1.27,1.27,0,0,0,1,.39,2.84,2.84,0,0,0,.69-.09,5.91,5.91,0,0,0,.89-.36v.79a5.28,5.28,0,0,1-.89.33A3.79,3.79,0,0,1,227.59,239.73Zm.75-5.33a1.46,1.46,0,0,0-1,.5,3.38,3.38,0,0,0-.74,1.4h.06a4.47,4.47,0,0,0,1.88-.31,1,1,0,0,0,.65-.93.61.61,0,0,0-.19-.47A.85.85,0,0,0,228.34,234.4Z" transform="translate(-0.53 -4.75)" fill="#231f20"/><path d="M234.18,239.62l.8-3.71a5.12,5.12,0,0,0,.11-.78.77.77,0,0,0-.2-.54.81.81,0,0,0-.61-.2,1.66,1.66,0,0,0-.93.32,2.81,2.81,0,0,0-.8.92,5,5,0,0,0-.52,1.44l-.54,2.55h-.91l1.26-5.88h.75l-.12,1.09h.05a3.65,3.65,0,0,1,1-.93,2,2,0,0,1,1-.27,1.49,1.49,0,0,1,1.08.37,1.36,1.36,0,0,1,.4,1.05,4,4,0,0,1-.13,1l-.77,3.61Z" transform="translate(-0.53 -4.75)" fill="#231f20"/><path d="M238.63,239a3.08,3.08,0,0,0,.77-.14v.69a2.77,2.77,0,0,1-.45.13,2.83,2.83,0,0,1-.43,0,1.46,1.46,0,0,1-1-.32,1.2,1.2,0,0,1-.36-.95,4.25,4.25,0,0,1,.1-.81l.68-3.23H237l.07-.39,1-.42.67-1.23h.53l-.3,1.36h1.47l-.14.68h-1.46l-.7,3.24a4.21,4.21,0,0,0-.09.71.64.64,0,0,0,.15.46A.59.59,0,0,0,238.63,239Z" transform="translate(-0.53 -4.75)" fill="#231f20"/><path d="M244.55,239.62h-.9v-8.35h.9Z" transform="translate(-0.53 -4.75)" fill="#231f20"/><path d="M248.81,239.73a2.71,2.71,0,0,1-2.06-.79,3.1,3.1,0,0,1-.75-2.21,3.4,3.4,0,0,1,.7-2.26,2.33,2.33,0,0,1,1.88-.84,2.2,2.2,0,0,1,1.75.73,2.77,2.77,0,0,1,.65,1.92v.56h-4.06a2.38,2.38,0,0,0,.53,1.58,1.84,1.84,0,0,0,1.4.53,4.84,4.84,0,0,0,1.88-.39v.79a4.67,4.67,0,0,1-.9.29A5,5,0,0,1,248.81,239.73Zm-.24-5.35a1.45,1.45,0,0,0-1.13.46,2.2,2.2,0,0,0-.5,1.28H250a1.93,1.93,0,0,0-.37-1.29A1.33,1.33,0,0,0,248.57,234.38Z" transform="translate(-0.53 -4.75)" fill="#231f20"/><path d="M253.68,239.62l-2.24-5.88h1l1.27,3.49c.28.81.45,1.35.5,1.59h0c0-.19.17-.58.38-1.18s.68-1.9,1.41-3.9H257l-2.23,5.88Z" transform="translate(-0.53 -4.75)" fill="#231f20"/><path d="M260.28,239.73a2.7,2.7,0,0,1-2.06-.79,3.06,3.06,0,0,1-.76-2.21,3.45,3.45,0,0,1,.7-2.26,2.34,2.34,0,0,1,1.89-.84,2.22,2.22,0,0,1,1.75.73,2.77,2.77,0,0,1,.64,1.92v.56h-4.06a2.38,2.38,0,0,0,.53,1.58,1.84,1.84,0,0,0,1.4.53,4.84,4.84,0,0,0,1.88-.39v.79a4.46,4.46,0,0,1-.9.29A4.91,4.91,0,0,1,260.28,239.73Zm-.25-5.35a1.45,1.45,0,0,0-1.13.46,2.13,2.13,0,0,0-.49,1.28h3.07a1.93,1.93,0,0,0-.37-1.29A1.33,1.33,0,0,0,260,234.38Z" transform="translate(-0.53 -4.75)" fill="#231f20"/><path d="M264.74,239.62h-.89v-8.35h.89Z" transform="translate(-0.53 -4.75)" fill="#231f20"/><path d="M266.39,239.05a.78.78,0,0,1,.17-.54.6.6,0,0,1,.47-.19.62.62,0,0,1,.48.19.9.9,0,0,1,0,1.08.62.62,0,0,1-.48.19.65.65,0,0,1-.46-.17A.74.74,0,0,1,266.39,239.05Z" transform="translate(-0.53 -4.75)" fill="#231f20"/><path d="M292.15,108.72h-3.62V98.81l0-1.63.05-1.78c-.6.6-1,1-1.25,1.18l-2,1.59L283.66,96l5.51-4.4h3Z" transform="translate(-0.53 -4.75)" fill="#231f20"/><path d="M308.78,100.16c0,3-.49,5.21-1.47,6.64a5.1,5.1,0,0,1-4.53,2.16,5,5,0,0,1-4.47-2.23c-1-1.48-1.51-3.67-1.51-6.57s.49-5.25,1.47-6.69a5.69,5.69,0,0,1,9,.1Q308.77,95.82,308.78,100.16Zm-8.38,0a13.15,13.15,0,0,0,.55,4.52,1.87,1.87,0,0,0,1.83,1.36,1.92,1.92,0,0,0,1.83-1.38,13.08,13.08,0,0,0,.56-4.5,12.91,12.91,0,0,0-.57-4.53,1.9,1.9,0,0,0-3.65,0A13.52,13.52,0,0,0,300.4,100.16Z" transform="translate(-0.53 -4.75)" fill="#231f20"/><path d="M314.42,101.71a4.32,4.32,0,0,1-.52,2.36,1.72,1.72,0,0,1-1.54.79,1.67,1.67,0,0,1-1.48-.81,4.22,4.22,0,0,1-.53-2.34,4.37,4.37,0,0,1,.51-2.34,1.67,1.67,0,0,1,1.5-.78,1.73,1.73,0,0,1,1.53.81A4.24,4.24,0,0,1,314.42,101.71Zm-3.13,0a4.5,4.5,0,0,0,.25,1.74.86.86,0,0,0,.82.59c.75,0,1.12-.78,1.12-2.33s-.37-2.31-1.12-2.31a.85.85,0,0,0-.82.57A4.57,4.57,0,0,0,311.29,101.71Zm7.39-3-5.54,10h-1l5.54-10Zm1.76,7a4.33,4.33,0,0,1-.52,2.35,1.72,1.72,0,0,1-1.53.79,1.68,1.68,0,0,1-1.5-.81,5.55,5.55,0,0,1,0-4.67,1.69,1.69,0,0,1,1.51-.79,1.72,1.72,0,0,1,1.51.81A4.14,4.14,0,0,1,320.44,105.72Zm-3.13,0a4.5,4.5,0,0,0,.25,1.74.85.85,0,0,0,.83.58.88.88,0,0,0,.84-.57,5.58,5.58,0,0,0,0-3.49.89.89,0,0,0-.84-.56.86.86,0,0,0-.83.56A4.5,4.5,0,0,0,317.31,105.72Z" transform="translate(-0.53 -4.75)" fill="#231f20"/><path d="M286.8,119.72l-.17-.83h-.05a2.47,2.47,0,0,1-.88.75,2.66,2.66,0,0,1-1.09.19,2,2,0,0,1-1.37-.45,1.65,1.65,0,0,1-.5-1.28c0-1.19.95-1.81,2.85-1.87l1,0v-.37a1.53,1.53,0,0,0-.29-1,1.24,1.24,0,0,0-1-.33,3.88,3.88,0,0,0-1.66.45l-.28-.68a3.68,3.68,0,0,1,1-.37,4.07,4.07,0,0,1,1-.14,2.26,2.26,0,0,1,1.56.47,2,2,0,0,1,.5,1.5v4Zm-2-.62a1.85,1.85,0,0,0,1.31-.46,1.72,1.72,0,0,0,.47-1.28v-.53l-.89,0a3.1,3.1,0,0,0-1.53.33,1,1,0,0,0-.47.91.88.88,0,0,0,.29.73A1.2,1.2,0,0,0,284.79,119.1Z" transform="translate(-0.53 -4.75)" fill="#231f20"/><path d="M291.2,119.1a3.42,3.42,0,0,0,.46,0A3.56,3.56,0,0,0,292,119v.68a1.51,1.51,0,0,1-.43.12,3.25,3.25,0,0,1-.51,0q-1.71,0-1.71-1.8v-3.5h-.84v-.43l.84-.37.38-1.26h.52v1.37H292v.69h-1.7V118a1.17,1.17,0,0,0,.25.81A.88.88,0,0,0,291.2,119.1Z" transform="translate(-0.53 -4.75)" fill="#231f20"/><path d="M301.21,119.72h-1l-2.47-6.56h0c-.12.79-.25,1.54-.4,2.24l-.92,4.32h-.87l1.66-7.85h1l2.47,6.55h0c.11-.8.24-1.52.39-2.17l.93-4.38h.88Z" transform="translate(-0.53 -4.75)" fill="#231f20"/><path d="M307.19,117.23h-2.67l-1.31,2.49h-1l4.29-7.85h.94l1,7.85h-.91Zm-.1-.84-.19-1.61c-.08-.64-.14-1.26-.16-1.88-.13.32-.27.63-.43.94s-.6,1.16-1.34,2.55Z" transform="translate(-0.53 -4.75)" fill="#231f20"/><path d="M313.34,119.72h-3.95l1.66-7.85H315l-.18.82h-3l-.52,2.52h2.83l-.16.82h-2.84l-.61,2.88h3Z" transform="translate(-0.53 -4.75)" fill="#231f20"/><path d="M320.77,113.9a2.43,2.43,0,0,1-.88,2,4,4,0,0,1-2.58.71h-.73l-.66,3.08H315l1.66-7.85h1.77a2.58,2.58,0,0,1,1.74.51A1.87,1.87,0,0,1,320.77,113.9Zm-4,1.95h.72a2.71,2.71,0,0,0,1.76-.49,1.73,1.73,0,0,0,.6-1.43,1.19,1.19,0,0,0-.37-1,1.84,1.84,0,0,0-1.15-.3h-.88Z" transform="translate(-0.53 -4.75)" fill="#231f20"/><path d="M286.6,128.23h-2.66l-1.32,2.49h-1l4.29-7.85h.94l1,7.85h-.91Zm-.09-.84-.19-1.61a17.45,17.45,0,0,1-.16-1.88c-.13.32-.27.63-.43.94s-.6,1.16-1.34,2.55Z" transform="translate(-0.53 -4.75)" fill="#231f20"/><path d="M291.78,124.74a1.58,1.58,0,0,1,1.51,1h0a12.54,12.54,0,0,1,.24-1.47l.42-1.92h.89l-1.77,8.35h-.75l.12-1.12h0a3.79,3.79,0,0,1-1,1,1.84,1.84,0,0,1-1,.28,1.41,1.41,0,0,1-1.17-.52,2.3,2.3,0,0,1-.42-1.47,5.53,5.53,0,0,1,.39-2.1,3.52,3.52,0,0,1,1-1.48A2.36,2.36,0,0,1,291.78,124.74Zm-1,5.35a1.57,1.57,0,0,0,1-.51,3.46,3.46,0,0,0,.85-1.28,4.21,4.21,0,0,0,.31-1.59,1.26,1.26,0,0,0-.29-.91,1.07,1.07,0,0,0-.84-.31,1.47,1.47,0,0,0-1,.44,3,3,0,0,0-.74,1.25,5,5,0,0,0-.29,1.69C289.79,129.68,290.11,130.09,290.76,130.09Z" transform="translate(-0.53 -4.75)" fill="#231f20"/><path d="M295.89,130.72l-.67-5.88h.9l.35,3.29c.08.92.12,1.57.12,1.94h0c.45-1,.77-1.64,1-2l1.74-3.24h1l-3.17,5.88Z" transform="translate(-0.53 -4.75)" fill="#231f20"/><path d="M303.21,124.73a1.5,1.5,0,0,1,.88.27,1.72,1.72,0,0,1,.6.76h.06l.36-.92h.68l-1.25,5.88h-.72l.14-1.12h0a2.65,2.65,0,0,1-2,1.23,1.45,1.45,0,0,1-1.18-.53,2.29,2.29,0,0,1-.42-1.46,5.64,5.64,0,0,1,.38-2.07,3.68,3.68,0,0,1,1.05-1.5A2.31,2.31,0,0,1,303.21,124.73Zm-1,5.36a1.52,1.52,0,0,0,1-.5,3.48,3.48,0,0,0,.84-1.3,4.1,4.1,0,0,0,.32-1.59,1.24,1.24,0,0,0-.3-.88,1,1,0,0,0-.79-.33,1.47,1.47,0,0,0-1,.46,3.07,3.07,0,0,0-.75,1.25,5.13,5.13,0,0,0-.28,1.67,1.39,1.39,0,0,0,.26.91A.88.88,0,0,0,302.19,130.09Z" transform="translate(-0.53 -4.75)" fill="#231f20"/><path d="M309.9,130.72l.8-3.71a5.12,5.12,0,0,0,.11-.78.81.81,0,0,0-.19-.54.83.83,0,0,0-.61-.2,1.66,1.66,0,0,0-.94.32,3.05,3.05,0,0,0-.8.92,5,5,0,0,0-.52,1.44l-.54,2.55h-.9l1.25-5.88h.75l-.12,1.09h.05a3.65,3.65,0,0,1,1-.93,2,2,0,0,1,1-.27,1.48,1.48,0,0,1,1.07.37,1.36,1.36,0,0,1,.4,1.05,4.65,4.65,0,0,1-.12,1l-.77,3.6Z" transform="translate(-0.53 -4.75)" fill="#231f20"/><path d="M315.05,130.83a2,2,0,0,1-2.19-2.2,5,5,0,0,1,.4-2,3.41,3.41,0,0,1,1.1-1.41,2.62,2.62,0,0,1,1.58-.51,3.9,3.9,0,0,1,1.43.27l-.25.76a3.07,3.07,0,0,0-1.17-.27,1.69,1.69,0,0,0-1.1.41,2.69,2.69,0,0,0-.78,1.14,4.36,4.36,0,0,0-.28,1.59,1.53,1.53,0,0,0,.35,1.07,1.28,1.28,0,0,0,1,.39,2.48,2.48,0,0,0,.73-.11c.23-.07.46-.16.68-.25v.76A3.2,3.2,0,0,1,315.05,130.83Z" transform="translate(-0.53 -4.75)" fill="#231f20"/><path d="M319.93,130.83a2.05,2.05,0,0,1-1.55-.58,2.22,2.22,0,0,1-.56-1.62,4.78,4.78,0,0,1,.4-1.94,3.48,3.48,0,0,1,1.06-1.44,2.27,2.27,0,0,1,1.45-.52,1.85,1.85,0,0,1,1.24.36,1.26,1.26,0,0,1,.41,1,1.71,1.71,0,0,1-.89,1.52,4.83,4.83,0,0,1-2.55.55h-.18l0,.43a1.66,1.66,0,0,0,.33,1.1,1.26,1.26,0,0,0,1,.39,2.86,2.86,0,0,0,.7-.09,6.36,6.36,0,0,0,.89-.36v.79a4.78,4.78,0,0,1-.89.33A3.85,3.85,0,0,1,319.93,130.83Zm.75-5.33a1.45,1.45,0,0,0-1,.5,3.36,3.36,0,0,0-.74,1.41H319a4.45,4.45,0,0,0,1.88-.32,1,1,0,0,0,.65-.93.62.62,0,0,0-.2-.47A.83.83,0,0,0,320.68,125.5Z" transform="translate(-0.53 -4.75)" fill="#231f20"/><path d="M326.15,124.74a1.56,1.56,0,0,1,1.5,1h.06a12.54,12.54,0,0,1,.24-1.47l.42-1.92h.89l-1.77,8.35h-.75l.12-1.12h0a3.79,3.79,0,0,1-1,1,1.85,1.85,0,0,1-1,.28,1.4,1.4,0,0,1-1.16-.52,2.3,2.3,0,0,1-.42-1.47,5.53,5.53,0,0,1,.39-2.1,3.44,3.44,0,0,1,1-1.48A2.36,2.36,0,0,1,326.15,124.74Zm-1,5.35a1.57,1.57,0,0,0,1-.51,3.46,3.46,0,0,0,.85-1.28,4.21,4.21,0,0,0,.31-1.59,1.26,1.26,0,0,0-.29-.91,1.07,1.07,0,0,0-.84-.31,1.47,1.47,0,0,0-1,.44,3,3,0,0,0-.74,1.25,5,5,0,0,0-.29,1.69C324.16,129.68,324.48,130.09,325.13,130.09Z" transform="translate(-0.53 -4.75)" fill="#231f20"/><line x1="305.28" y1="172.41" x2="305.28" y2="133.75" fill="none" stroke="#231f20" stroke-miterlimit="10"/><circle cx="305.15" cy="133.75" r="2.72" fill="#fff" stroke="#231f20" stroke-miterlimit="10"/><rect x="288.9" y="149.61" width="31.8" height="32.8" fill="#dbe2e9"/><path d="M215.69,105h-2.06v3.55h-3.54V105h-7.31v-2.52l7.51-11.06h3.34v10.77h2.06Zm-5.6-2.81v-2.9c0-.49,0-1.19.06-2.11s.07-1.46.1-1.61h-.1a13.91,13.91,0,0,1-1,1.88L206,102.22Z" transform="translate(-0.53 -4.75)" fill="#231f20"/><path d="M228.91,100c0,3-.49,5.21-1.47,6.64a5.1,5.1,0,0,1-4.53,2.16,5,5,0,0,1-4.47-2.23q-1.5-2.22-1.5-6.57c0-3,.48-5.25,1.46-6.69a5.7,5.7,0,0,1,9,.1Q228.92,95.68,228.91,100Zm-8.38,0a13.41,13.41,0,0,0,.55,4.52,1.87,1.87,0,0,0,1.83,1.36,1.9,1.9,0,0,0,1.83-1.38,12.84,12.84,0,0,0,.56-4.5,12.91,12.91,0,0,0-.57-4.53,1.89,1.89,0,0,0-3.64,0A13.2,13.2,0,0,0,220.53,100Z" transform="translate(-0.53 -4.75)" fill="#231f20"/><path d="M234.55,101.57a4.32,4.32,0,0,1-.52,2.36,1.72,1.72,0,0,1-1.53.79,1.68,1.68,0,0,1-1.49-.81,4.31,4.31,0,0,1-.53-2.34,4.37,4.37,0,0,1,.51-2.34,1.68,1.68,0,0,1,1.51-.78,1.72,1.72,0,0,1,1.52.81A4.16,4.16,0,0,1,234.55,101.57Zm-3.13,0a4.47,4.47,0,0,0,.26,1.74.85.85,0,0,0,.82.59c.74,0,1.12-.78,1.12-2.33s-.38-2.31-1.12-2.31a.84.84,0,0,0-.82.57A4.54,4.54,0,0,0,231.42,101.57Zm7.39-3-5.54,10h-1l5.55-10Zm1.77,7a4.33,4.33,0,0,1-.53,2.35,1.72,1.72,0,0,1-1.53.79,1.68,1.68,0,0,1-1.5-.81,4.4,4.4,0,0,1-.52-2.33,4.32,4.32,0,0,1,.51-2.34,1.69,1.69,0,0,1,1.51-.79,1.71,1.71,0,0,1,1.51.81A4.06,4.06,0,0,1,240.58,105.58Zm-3.14,0a4.5,4.5,0,0,0,.25,1.74.86.86,0,0,0,.83.58.91.91,0,0,0,.85-.57,5.77,5.77,0,0,0,0-3.49.91.91,0,0,0-.85-.56.87.87,0,0,0-.83.56A4.5,4.5,0,0,0,237.44,105.58Z" transform="translate(-0.53 -4.75)" fill="#231f20"/><path d="M206.94,119.58l-.18-.83h0a2.53,2.53,0,0,1-.88.75,2.71,2.71,0,0,1-1.1.19,2,2,0,0,1-1.37-.45,1.64,1.64,0,0,1-.49-1.28c0-1.19,1-1.81,2.85-1.87l1,0v-.37a1.48,1.48,0,0,0-.3-1,1.24,1.24,0,0,0-1-.33,3.88,3.88,0,0,0-1.66.45l-.27-.68a4,4,0,0,1,1-.37,4.07,4.07,0,0,1,1-.14,2.26,2.26,0,0,1,1.56.47,1.94,1.94,0,0,1,.51,1.5v4Zm-2-.62a1.83,1.83,0,0,0,1.31-.46,1.67,1.67,0,0,0,.47-1.28v-.53l-.89,0a3.1,3.1,0,0,0-1.53.33,1,1,0,0,0-.47.91.91.91,0,0,0,.29.73A1.22,1.22,0,0,0,204.92,119Z" transform="translate(-0.53 -4.75)" fill="#231f20"/><path d="M211.33,119a2.32,2.32,0,0,0,.46,0,3.56,3.56,0,0,0,.35-.07v.68a1.51,1.51,0,0,1-.43.12,3,3,0,0,1-.5,0q-1.71,0-1.71-1.8v-3.5h-.85V114l.85-.37.37-1.26h.52v1.37h1.71v.69h-1.71v3.47a1.17,1.17,0,0,0,.25.81A.88.88,0,0,0,211.33,119Z" transform="translate(-0.53 -4.75)" fill="#231f20"/><path d="M221.35,119.58h-1L217.9,113h0c-.11.79-.25,1.54-.4,2.24l-.92,4.32h-.87l1.66-7.85h1l2.46,6.56h0c.11-.81.24-1.53.39-2.18l.94-4.38H223Z" transform="translate(-0.53 -4.75)" fill="#231f20"/><path d="M227.32,117.09h-2.67l-1.31,2.49h-1l4.3-7.85h.93l1,7.85h-.91Zm-.1-.84-.19-1.61c-.08-.64-.13-1.26-.15-1.88-.13.32-.28.63-.43.94l-1.34,2.55Z" transform="translate(-0.53 -4.75)" fill="#231f20"/><path d="M233.47,119.58h-3.95l1.66-7.85h3.95l-.17.82h-3l-.53,2.52h2.83l-.15.82h-2.85l-.61,2.88h3Z" transform="translate(-0.53 -4.75)" fill="#231f20"/><path d="M240.91,113.76a2.46,2.46,0,0,1-.88,2,4.08,4.08,0,0,1-2.59.71h-.72l-.66,3.08h-.92l1.66-7.85h1.78a2.62,2.62,0,0,1,1.74.51A1.9,1.9,0,0,1,240.91,113.76Zm-4,1.95h.72a2.71,2.71,0,0,0,1.76-.49,1.73,1.73,0,0,0,.6-1.43,1.16,1.16,0,0,0-.37-1,1.82,1.82,0,0,0-1.15-.3h-.87Z" transform="translate(-0.53 -4.75)" fill="#231f20"/><path d="M208.6,124.76a2.44,2.44,0,0,1-.89,2,4,4,0,0,1-2.58.71h-.72l-.66,3.08h-.92l1.66-7.85h1.77a2.58,2.58,0,0,1,1.74.51A1.87,1.87,0,0,1,208.6,124.76Zm-4,1.95h.72a2.71,2.71,0,0,0,1.76-.49,1.73,1.73,0,0,0,.6-1.43,1.16,1.16,0,0,0-.37-1,1.82,1.82,0,0,0-1.15-.3h-.88Z" transform="translate(-0.53 -4.75)" fill="#231f20"/><path d="M212.63,124.59a2.46,2.46,0,0,1,.65.08l-.19.8a2.22,2.22,0,0,0-.57-.07,1.51,1.51,0,0,0-.91.32,2.82,2.82,0,0,0-.75.9,4.57,4.57,0,0,0-.47,1.27l-.58,2.69h-.9l1.26-5.88h.75l-.12,1.09h0a4.78,4.78,0,0,1,.64-.73,2.11,2.11,0,0,1,.53-.35A1.51,1.51,0,0,1,212.63,124.59Z" transform="translate(-0.53 -4.75)" fill="#231f20"/><path d="M216.4,124.62a2.14,2.14,0,0,1,1.62.61,2.27,2.27,0,0,1,.59,1.66,4.76,4.76,0,0,1-.39,1.91,3.32,3.32,0,0,1-1.05,1.38,2.42,2.42,0,0,1-1.49.49,2.13,2.13,0,0,1-1.62-.61,2.27,2.27,0,0,1-.58-1.66,4.78,4.78,0,0,1,.39-1.92,3.2,3.2,0,0,1,1.06-1.38A2.44,2.44,0,0,1,216.4,124.62Zm1.27,2.15a1.5,1.5,0,0,0-.33-1,1.18,1.18,0,0,0-.91-.38,1.55,1.55,0,0,0-1.05.4,2.52,2.52,0,0,0-.72,1.1,4.62,4.62,0,0,0-.26,1.57,1.63,1.63,0,0,0,.34,1.09,1.24,1.24,0,0,0,1,.38,1.49,1.49,0,0,0,1-.39,2.54,2.54,0,0,0,.69-1.11A4.93,4.93,0,0,0,217.67,126.77Z" transform="translate(-0.53 -4.75)" fill="#231f20"/><path d="M218.56,133.23a1.81,1.81,0,0,1-.67-.12v-.75a1.87,1.87,0,0,0,.6.12.71.71,0,0,0,.63-.34,2.77,2.77,0,0,0,.36-.95l1.22-5.81h-1l.07-.36,1.11-.35.12-.54a3.17,3.17,0,0,1,.68-1.52,1.79,1.79,0,0,1,1.3-.44,3,3,0,0,1,.53.06,2.18,2.18,0,0,1,.48.14l-.23.69a2.2,2.2,0,0,0-.74-.16.91.91,0,0,0-.71.27,2.07,2.07,0,0,0-.41,1l-.13.58H223l-.14.68H221.6l-1.25,5.9a3.09,3.09,0,0,1-.64,1.48A1.5,1.5,0,0,1,218.56,133.23Zm5.24-2.65h-.91l1.26-5.88h.9Zm.6-7.39a.73.73,0,0,1,.17-.49.62.62,0,0,1,.45-.19c.32,0,.47.16.47.49a.75.75,0,0,1-.18.5.56.56,0,0,1-.41.2.5.5,0,0,1-.36-.13A.51.51,0,0,1,224.4,123.19Z" transform="translate(-0.53 -4.75)" fill="#231f20"/><path d="M228.1,130.69a2.19,2.19,0,0,1-1.62-.57,2.22,2.22,0,0,1-.57-1.62,5,5,0,0,1,.39-2,3.41,3.41,0,0,1,1.1-1.41,2.62,2.62,0,0,1,1.58-.51,4,4,0,0,1,1.44.27l-.26.76a3.07,3.07,0,0,0-1.17-.27,1.71,1.71,0,0,0-1.1.41,2.69,2.69,0,0,0-.78,1.14,4.37,4.37,0,0,0-.28,1.6,1.48,1.48,0,0,0,.36,1.06,1.26,1.26,0,0,0,1,.39,2.48,2.48,0,0,0,.73-.11c.23-.07.46-.16.68-.25v.76A3.16,3.16,0,0,1,228.1,130.69Z" transform="translate(-0.53 -4.75)" fill="#231f20"/><path d="M231.55,130.58h-.9l1.26-5.88h.9Zm.61-7.39a.73.73,0,0,1,.17-.49.59.59,0,0,1,.45-.19c.31,0,.47.16.47.49a.75.75,0,0,1-.18.5.56.56,0,0,1-.42.2.48.48,0,0,1-.35-.13A.51.51,0,0,1,232.16,123.19Z" transform="translate(-0.53 -4.75)" fill="#231f20"/><path d="M235.77,130.69a2,2,0,0,1-1.55-.58,2.22,2.22,0,0,1-.57-1.62,5,5,0,0,1,.4-1.94,3.57,3.57,0,0,1,1.06-1.44,2.29,2.29,0,0,1,1.46-.52,1.81,1.81,0,0,1,1.23.36,1.23,1.23,0,0,1,.42,1,1.71,1.71,0,0,1-.89,1.52,4.89,4.89,0,0,1-2.56.55h-.17l0,.43a1.66,1.66,0,0,0,.33,1.1,1.26,1.26,0,0,0,1,.39,2.78,2.78,0,0,0,.69-.09,5,5,0,0,0,.89-.36v.79a4.31,4.31,0,0,1-.89.33A3.76,3.76,0,0,1,235.77,130.69Zm.74-5.33a1.44,1.44,0,0,0-1,.5,3.26,3.26,0,0,0-.75,1.41h.07a4.4,4.4,0,0,0,1.87-.32,1,1,0,0,0,.66-.93.62.62,0,0,0-.2-.47A.85.85,0,0,0,236.51,125.36Z" transform="translate(-0.53 -4.75)" fill="#231f20"/><path d="M242.47,130.58l.79-3.71a5.12,5.12,0,0,0,.11-.78.81.81,0,0,0-.19-.54.83.83,0,0,0-.61-.2,1.61,1.61,0,0,0-.93.32,2.94,2.94,0,0,0-.81.92,5,5,0,0,0-.52,1.44l-.54,2.55h-.9l1.25-5.88h.75l-.12,1.09h.06a3.49,3.49,0,0,1,1-.93,2,2,0,0,1,1-.27,1.48,1.48,0,0,1,1.07.37,1.36,1.36,0,0,1,.4,1.05,4.65,4.65,0,0,1-.12,1l-.77,3.6Z" transform="translate(-0.53 -4.75)" fill="#231f20"/><path d="M247,130a2.94,2.94,0,0,0,.77-.14v.69a2.77,2.77,0,0,1-.45.13,2.83,2.83,0,0,1-.43.05,1.48,1.48,0,0,1-1-.32,1.23,1.23,0,0,1-.35-1,4.25,4.25,0,0,1,.09-.81l.69-3.23h-.93l.08-.39,1-.42.67-1.23h.53l-.3,1.36h1.47l-.13.68h-1.47l-.69,3.24a3.54,3.54,0,0,0-.1.71.64.64,0,0,0,.16.47A.58.58,0,0,0,247,130Z" transform="translate(-0.53 -4.75)" fill="#231f20"/><line x1="225.32" y1="172.34" x2="225.32" y2="133.69" fill="none" stroke="#231f20" stroke-miterlimit="10"/><circle cx="225.18" cy="133.69" r="2.72" fill="#fff" stroke="#231f20" stroke-miterlimit="10"/><rect x="160.87" y="149.54" width="128.07" height="32.8" fill="#bbc6d6"/><line x1="110.65" y1="172.21" x2="110.65" y2="133.55" fill="none" stroke="#231f20" stroke-miterlimit="10"/><circle cx="110.51" cy="133.55" r="2.72" fill="#fff" stroke="#231f20" stroke-miterlimit="10"/><path d="M103.9,95.4a4.07,4.07,0,0,1-1,2.73,5,5,0,0,1-2.73,1.54v.07a5.5,5.5,0,0,1,3.14,1.26,3.53,3.53,0,0,1,1.06,2.7,4.55,4.55,0,0,1-1.79,3.85,8.25,8.25,0,0,1-5.12,1.38,12.42,12.42,0,0,1-4.95-.93v-3.08a11.15,11.15,0,0,0,2.19.82,9.32,9.32,0,0,0,2.37.32,4.57,4.57,0,0,0,2.65-.61,2.25,2.25,0,0,0,.86-2,1.77,1.77,0,0,0-1-1.71,7.36,7.36,0,0,0-3.14-.5h-1.3V98.5H96.5A6.18,6.18,0,0,0,99.42,98a1.89,1.89,0,0,0,.92-1.79c0-1.29-.82-1.94-2.44-1.94a5.52,5.52,0,0,0-1.72.28,8.53,8.53,0,0,0-1.94,1L92.57,93a9.32,9.32,0,0,1,5.59-1.68,7.22,7.22,0,0,1,4.2,1.08A3.43,3.43,0,0,1,103.9,95.4Z" transform="translate(-0.53 -4.75)" fill="#231f20"/><path d="M115.24,108.7h-3.62V98.78l0-1.63.06-1.78c-.61.6-1,1-1.26,1.19l-2,1.58L106.75,96l5.52-4.4h3Z" transform="translate(-0.53 -4.75)" fill="#231f20"/><path d="M123.81,101.68a4.32,4.32,0,0,1-.52,2.36,1.72,1.72,0,0,1-1.54.79,1.67,1.67,0,0,1-1.48-.81,4.22,4.22,0,0,1-.53-2.34,4.37,4.37,0,0,1,.51-2.34,1.68,1.68,0,0,1,1.5-.78,1.72,1.72,0,0,1,1.53.81A4.24,4.24,0,0,1,123.81,101.68Zm-3.13,0a4.8,4.8,0,0,0,.25,1.75.87.87,0,0,0,.82.58c.75,0,1.13-.78,1.13-2.33s-.38-2.31-1.13-2.31a.86.86,0,0,0-.82.58A4.68,4.68,0,0,0,120.68,101.68Zm7.39-3-5.54,10h-1l5.55-10Zm1.76,7a4.31,4.31,0,0,1-.52,2.35,1.72,1.72,0,0,1-1.53.79,1.68,1.68,0,0,1-1.5-.81,4.4,4.4,0,0,1-.52-2.33,4.32,4.32,0,0,1,.51-2.34,1.69,1.69,0,0,1,1.51-.79,1.72,1.72,0,0,1,1.51.81A4.14,4.14,0,0,1,129.83,105.69Zm-3.13,0a4.5,4.5,0,0,0,.25,1.74.85.85,0,0,0,.83.58.88.88,0,0,0,.84-.57,4.09,4.09,0,0,0,.28-1.75,4,4,0,0,0-.28-1.73.88.88,0,0,0-.84-.57.85.85,0,0,0-.83.57A4.41,4.41,0,0,0,126.7,105.69Z" transform="translate(-0.53 -4.75)" fill="#231f20"/><path d="M96.19,119.7l-.17-.84h0a2.43,2.43,0,0,1-.87.75,2.75,2.75,0,0,1-1.1.19,2,2,0,0,1-1.37-.45,1.65,1.65,0,0,1-.5-1.28c0-1.19,1-1.81,2.86-1.87l1,0v-.37a1.48,1.48,0,0,0-.29-1,1.24,1.24,0,0,0-1-.33,3.88,3.88,0,0,0-1.66.45l-.28-.68a4.45,4.45,0,0,1,2-.51,2.26,2.26,0,0,1,1.56.47,1.94,1.94,0,0,1,.51,1.5v4Zm-2-.63a1.79,1.79,0,0,0,1.31-.46,1.67,1.67,0,0,0,.47-1.28v-.53l-.89,0a3.1,3.1,0,0,0-1.53.33,1,1,0,0,0-.47.91,1,1,0,0,0,.29.74A1.27,1.27,0,0,0,94.18,119.07Z" transform="translate(-0.53 -4.75)" fill="#231f20"/><path d="M100.59,119.07a2.32,2.32,0,0,0,.46,0,1.94,1.94,0,0,0,.35-.07v.68a1.51,1.51,0,0,1-.43.12,3.25,3.25,0,0,1-.51,0c-1.13,0-1.7-.6-1.7-1.8v-3.5h-.85v-.43l.85-.37.37-1.25h.52v1.36h1.71v.69H99.65V118a1.17,1.17,0,0,0,.25.81A.88.88,0,0,0,100.59,119.07Z" transform="translate(-0.53 -4.75)" fill="#231f20"/><path d="M110.61,119.7h-1l-2.47-6.57h0c-.11.79-.25,1.54-.4,2.24l-.92,4.33h-.87l1.66-7.86h1L110,118.4h0c.11-.81.24-1.53.39-2.18l.93-4.38h.89Z" transform="translate(-0.53 -4.75)" fill="#231f20"/><path d="M116.58,117.2h-2.67l-1.31,2.5h-1l4.29-7.86h.94l1,7.86h-.92Zm-.1-.84-.19-1.61c-.08-.64-.13-1.26-.15-1.87-.13.31-.28.62-.44.94s-.6,1.16-1.34,2.54Z" transform="translate(-0.53 -4.75)" fill="#231f20"/><path d="M122.73,119.7h-4l1.66-7.86h4l-.17.83h-3l-.53,2.51h2.83l-.16.82h-2.84l-.61,2.88h3Z" transform="translate(-0.53 -4.75)" fill="#231f20"/><path d="M130.17,113.87a2.42,2.42,0,0,1-.89,2,4,4,0,0,1-2.58.71H126l-.66,3.09h-.92l1.66-7.86h1.78a2.62,2.62,0,0,1,1.74.51A1.92,1.92,0,0,1,130.17,113.87Zm-4,1.95h.72a2.71,2.71,0,0,0,1.76-.49,1.73,1.73,0,0,0,.6-1.43,1.16,1.16,0,0,0-.37-1,1.82,1.82,0,0,0-1.15-.3h-.87Z" transform="translate(-0.53 -4.75)" fill="#231f20"/><path d="M95.77,122.84c1.54,0,2.32.61,2.32,1.81a1.87,1.87,0,0,1-.47,1.28,2.26,2.26,0,0,1-1.32.67v.06a1.75,1.75,0,0,1,1,.59,1.59,1.59,0,0,1,.33,1,2.15,2.15,0,0,1-.82,1.79,3.41,3.41,0,0,1-2.18.65H92.09l1.66-7.86Zm-2.6,7.08H94.6a2.3,2.3,0,0,0,1.49-.43,1.5,1.5,0,0,0,.52-1.23,1.16,1.16,0,0,0-.4-.95,1.75,1.75,0,0,0-1.15-.33H93.79Zm.79-3.71h1.33a2.06,2.06,0,0,0,1.34-.4,1.28,1.28,0,0,0,.5-1.06,1,1,0,0,0-.36-.84,1.86,1.86,0,0,0-1.12-.28H94.51Z" transform="translate(-0.53 -4.75)" fill="#231f20"/><path d="M101.64,124.7a1.5,1.5,0,0,1,.88.27,1.7,1.7,0,0,1,.6.76h.06l.36-.92h.68L103,130.7h-.71l.14-1.13h0a2.67,2.67,0,0,1-2,1.23,1.39,1.39,0,0,1-1.17-.53,2.28,2.28,0,0,1-.43-1.45,5.46,5.46,0,0,1,.39-2.08,3.53,3.53,0,0,1,1-1.49A2.26,2.26,0,0,1,101.64,124.7Zm-1,5.36a1.54,1.54,0,0,0,1-.5,3.64,3.64,0,0,0,.83-1.29,4.21,4.21,0,0,0,.33-1.6,1.25,1.25,0,0,0-.3-.88,1,1,0,0,0-.79-.33,1.46,1.46,0,0,0-1,.46,3.27,3.27,0,0,0-.76,1.25,5.13,5.13,0,0,0-.27,1.67,1.37,1.37,0,0,0,.25.91A.86.86,0,0,0,100.62,130.06Z" transform="translate(-0.53 -4.75)" fill="#231f20"/><path d="M108.37,129a1.58,1.58,0,0,1-.59,1.3,2.62,2.62,0,0,1-1.68.47,3.49,3.49,0,0,1-1.63-.37v-.85a2.92,2.92,0,0,0,.81.35,2.72,2.72,0,0,0,.8.13,1.63,1.63,0,0,0,1-.27.84.84,0,0,0,.35-.69.81.81,0,0,0-.19-.52,4.38,4.38,0,0,0-.81-.57,3.17,3.17,0,0,1-1-.77,1.44,1.44,0,0,1-.29-.89,1.48,1.48,0,0,1,.54-1.19,2.12,2.12,0,0,1,1.43-.46,4.08,4.08,0,0,1,1.77.4l-.29.73-.3-.13a3,3,0,0,0-1.18-.23,1.23,1.23,0,0,0-.78.23.78.78,0,0,0-.1,1.12,3.31,3.31,0,0,0,.79.56,4.36,4.36,0,0,1,.82.55,1.62,1.62,0,0,1,.38.5A1.4,1.4,0,0,1,108.37,129Z" transform="translate(-0.53 -4.75)" fill="#231f20"/><path d="M110.35,130.7h-.9l1.26-5.89h.9Zm.61-7.39a.76.76,0,0,1,.17-.5.62.62,0,0,1,.45-.19c.31,0,.47.16.47.49a.75.75,0,0,1-.18.5.56.56,0,0,1-.42.2.48.48,0,0,1-.35-.13A.5.5,0,0,1,111,123.31Z" transform="translate(-0.53 -4.75)" fill="#231f20"/><path d="M114.64,130.8a2.18,2.18,0,0,1-1.61-.57,2.16,2.16,0,0,1-.58-1.62,4.93,4.93,0,0,1,.4-2,3.3,3.3,0,0,1,1.1-1.42,2.62,2.62,0,0,1,1.58-.51A3.72,3.72,0,0,1,117,125l-.25.75a3.07,3.07,0,0,0-1.17-.27,1.69,1.69,0,0,0-1.1.41,2.75,2.75,0,0,0-.78,1.14,4.37,4.37,0,0,0-.28,1.6,1.55,1.55,0,0,0,.35,1.07,1.31,1.31,0,0,0,1,.38,2.48,2.48,0,0,0,.73-.11c.23-.07.45-.16.68-.25v.77A3.33,3.33,0,0,1,114.64,130.8Z" transform="translate(-0.53 -4.75)" fill="#231f20"/><rect x="61.2" y="149.41" width="99.53" height="32.8" fill="#8d9ebc"/><line x1="30.98" y1="172.21" x2="30.98" y2="133.55" fill="none" stroke="#231f20" stroke-miterlimit="10"/><circle cx="30.85" cy="133.55" r="2.72" fill="#fff" stroke="#231f20" stroke-miterlimit="10"/><path d="M14.42,108.48H10.8V98.57l0-1.63.06-1.78c-.6.6-1,1-1.25,1.18l-2,1.58L5.92,95.74l5.52-4.39h3Z" transform="translate(-0.53 -4.75)" fill="#231f20"/><path d="M31.07,98.66q0,5.07-2.13,7.56c-1.42,1.66-3.58,2.5-6.46,2.5a12.08,12.08,0,0,1-2.31-.17v-2.9a8.73,8.73,0,0,0,2.06.24,7.31,7.31,0,0,0,3-.53,3.81,3.81,0,0,0,1.8-1.68,7.39,7.39,0,0,0,.71-3.14h-.14A4,4,0,0,1,26,102.08a4.92,4.92,0,0,1-2.23.45,4.48,4.48,0,0,1-3.52-1.44,5.73,5.73,0,0,1-1.29-4,6,6,0,0,1,1.56-4.35,5.66,5.66,0,0,1,4.26-1.6,6.15,6.15,0,0,1,3.32.89,5.73,5.73,0,0,1,2.19,2.59A9.69,9.69,0,0,1,31.07,98.66Zm-6.2-4.6a2.15,2.15,0,0,0-1.76.77,3.46,3.46,0,0,0-.63,2.23,3.08,3.08,0,0,0,.58,2,2.08,2.08,0,0,0,1.74.72A2.7,2.7,0,0,0,26.69,99a2.2,2.2,0,0,0,.78-1.66A3.74,3.74,0,0,0,26.74,95,2.26,2.26,0,0,0,24.87,94.06Z" transform="translate(-0.53 -4.75)" fill="#231f20"/><path d="M36.69,101.47a4.28,4.28,0,0,1-.53,2.35,1.82,1.82,0,0,1-3,0,5.53,5.53,0,0,1,0-4.68,1.83,1.83,0,0,1,3,0A4.15,4.15,0,0,1,36.69,101.47Zm-3.13,0a4.57,4.57,0,0,0,.25,1.74.85.85,0,0,0,.82.58c.75,0,1.12-.77,1.12-2.32s-.37-2.31-1.12-2.31a.85.85,0,0,0-.82.57A4.54,4.54,0,0,0,33.56,101.47Zm7.39-3-5.55,10h-1l5.54-10Zm1.76,7a4.29,4.29,0,0,1-.52,2.35,1.73,1.73,0,0,1-1.54.8,1.68,1.68,0,0,1-1.49-.81,5.55,5.55,0,0,1,0-4.67,1.65,1.65,0,0,1,1.5-.79,1.74,1.74,0,0,1,1.52.8A4.17,4.17,0,0,1,42.71,105.47Zm-3.14,0a4.53,4.53,0,0,0,.26,1.75.84.84,0,0,0,.82.58.89.89,0,0,0,.85-.57,4.34,4.34,0,0,0,.27-1.76,4.24,4.24,0,0,0-.27-1.73.89.89,0,0,0-.85-.56.85.85,0,0,0-.82.56A4.45,4.45,0,0,0,39.57,105.47Z" transform="translate(-0.53 -4.75)" fill="#231f20"/><path d="M8.19,113.5a2.18,2.18,0,0,1,1.8.79,3.47,3.47,0,0,1,.64,2.24,3.53,3.53,0,0,1-.64,2.26,2.21,2.21,0,0,1-1.8.8,2.59,2.59,0,0,1-1-.21,2,2,0,0,1-.8-.66H6.28l-.19.76H5.45v-8.35h.89v2c0,.45,0,.86,0,1.22h0A2.11,2.11,0,0,1,8.19,113.5Zm-.13.75a1.56,1.56,0,0,0-1.32.52,3,3,0,0,0-.4,1.76,2.93,2.93,0,0,0,.42,1.78,1.54,1.54,0,0,0,1.32.53,1.38,1.38,0,0,0,1.23-.6,3.15,3.15,0,0,0,.4-1.72,3,3,0,0,0-.4-1.71A1.43,1.43,0,0,0,8.06,114.25Z" transform="translate(-0.53 -4.75)" fill="#231f20"/><path d="M14.68,119.59a2.67,2.67,0,0,1-2.06-.8,3,3,0,0,1-.76-2.2,3.43,3.43,0,0,1,.7-2.26,2.34,2.34,0,0,1,1.89-.84,2.22,2.22,0,0,1,1.75.73,2.77,2.77,0,0,1,.64,1.92v.56H12.79a2.33,2.33,0,0,0,.52,1.57,1.81,1.81,0,0,0,1.4.54,4.68,4.68,0,0,0,1.88-.4v.8a5.1,5.1,0,0,1-.89.29A5.09,5.09,0,0,1,14.68,119.59Zm-.24-5.36a1.44,1.44,0,0,0-1.13.47,2,2,0,0,0-.5,1.27h3.08a2,2,0,0,0-.38-1.29A1.32,1.32,0,0,0,14.44,114.23Z" transform="translate(-0.53 -4.75)" fill="#231f20"/><path d="M19.25,119.48h-.89v-8.35h.89Z" transform="translate(-0.53 -4.75)" fill="#231f20"/><path d="M26.23,116.53a3.27,3.27,0,0,1-.73,2.25,2.54,2.54,0,0,1-2,.81,2.59,2.59,0,0,1-1.4-.37,2.45,2.45,0,0,1-1-1.06,3.8,3.8,0,0,1-.33-1.63,3.24,3.24,0,0,1,.72-2.24,2.55,2.55,0,0,1,2-.8,2.49,2.49,0,0,1,2,.82A3.26,3.26,0,0,1,26.23,116.53Zm-4.49,0a2.78,2.78,0,0,0,.45,1.72,1.79,1.79,0,0,0,2.66,0,3.47,3.47,0,0,0,0-3.42,1.59,1.59,0,0,0-1.34-.58,1.56,1.56,0,0,0-1.32.57A2.73,2.73,0,0,0,21.74,116.53Z" transform="translate(-0.53 -4.75)" fill="#231f20"/><path d="M32.6,119.48,31.52,116q-.11-.32-.39-1.44h0c-.14.63-.27,1.11-.37,1.45l-1.12,3.44h-1L27,113.6h.93l.87,3.37a13.87,13.87,0,0,1,.34,1.57h0c0-.21.11-.47.19-.79s.17-.59.23-.78l1.08-3.37h1L32.67,117a11.47,11.47,0,0,1,.41,1.56h0q0-.19.12-.6c.06-.27.43-1.71,1.12-4.33h.92l-1.63,5.88Z" transform="translate(-0.53 -4.75)" fill="#231f20"/><path d="M10.62,130.48h-1l-2.47-6.57h0c-.12.8-.25,1.54-.4,2.25l-.92,4.32H5l1.66-7.85h1l2.47,6.55h0c.11-.8.24-1.52.39-2.17l.93-4.38h.88Z" transform="translate(-0.53 -4.75)" fill="#231f20"/><path d="M16.6,128H13.93l-1.32,2.5h-1l4.29-7.85h.94l1,7.85H16.9Zm-.1-.83-.19-1.61a17.67,17.67,0,0,1-.16-1.88c-.13.32-.27.63-.43.94s-.6,1.16-1.34,2.55Z" transform="translate(-0.53 -4.75)" fill="#231f20"/><path d="M22.74,130.48H18.8l1.66-7.85H24.4l-.17.82h-3L20.67,126H23.5l-.16.82H20.5l-.61,2.88h3Z" transform="translate(-0.53 -4.75)" fill="#231f20"/><path d="M30.18,124.65a2.45,2.45,0,0,1-.88,2,4,4,0,0,1-2.58.7H26l-.66,3.09h-.91l1.66-7.85h1.77a2.58,2.58,0,0,1,1.74.51A1.86,1.86,0,0,1,30.18,124.65Zm-4,2h.72a2.71,2.71,0,0,0,1.76-.49,1.74,1.74,0,0,0,.6-1.43,1.19,1.19,0,0,0-.37-1,1.84,1.84,0,0,0-1.15-.3h-.88Z" transform="translate(-0.53 -4.75)" fill="#231f20"/><path d="M37.18,122.63c1.54,0,2.32.6,2.32,1.8a1.84,1.84,0,0,1-.47,1.28,2.21,2.21,0,0,1-1.32.68v0a1.78,1.78,0,0,1,.95.6,1.59,1.59,0,0,1,.33,1,2.15,2.15,0,0,1-.81,1.78,3.4,3.4,0,0,1-2.19.65H33.5l1.66-7.85Zm-2.6,7.07H36a2.24,2.24,0,0,0,1.49-.43,1.49,1.49,0,0,0,.53-1.22,1.17,1.17,0,0,0-.4-1,1.78,1.78,0,0,0-1.16-.33H35.21Zm.79-3.71H36.7A2.11,2.11,0,0,0,38,125.6a1.27,1.27,0,0,0,.5-1.07,1,1,0,0,0-.36-.83,1.77,1.77,0,0,0-1.12-.28H35.93Z" transform="translate(-0.53 -4.75)" fill="#231f20"/><path d="M43.05,124.49a1.55,1.55,0,0,1,.88.26,1.82,1.82,0,0,1,.61.77h.06l.36-.92h.68l-1.25,5.88h-.72l.14-1.12h0a2.65,2.65,0,0,1-2,1.23,1.44,1.44,0,0,1-1.17-.53,2.3,2.3,0,0,1-.42-1.46,5.64,5.64,0,0,1,.38-2.07,3.5,3.5,0,0,1,1-1.5A2.3,2.3,0,0,1,43.05,124.49Zm-1,5.35a1.5,1.5,0,0,0,1-.49,3.84,3.84,0,0,0,.84-1.3,4.31,4.31,0,0,0,.32-1.6,1.25,1.25,0,0,0-.3-.88,1,1,0,0,0-.79-.32,1.47,1.47,0,0,0-1,.46,3.07,3.07,0,0,0-.75,1.25,4.86,4.86,0,0,0-.28,1.66,1.46,1.46,0,0,0,.25.92A.89.89,0,0,0,42,129.84Z" transform="translate(-0.53 -4.75)" fill="#231f20"/><path d="M49.78,128.81a1.56,1.56,0,0,1-.59,1.31,2.65,2.65,0,0,1-1.67.47,3.53,3.53,0,0,1-1.64-.37v-.85a3.25,3.25,0,0,0,.81.35,3.06,3.06,0,0,0,.81.12,1.63,1.63,0,0,0,1-.27.83.83,0,0,0,.34-.68.73.73,0,0,0-.19-.52,3.43,3.43,0,0,0-.81-.57,3.43,3.43,0,0,1-1-.77,1.44,1.44,0,0,1-.29-.89,1.5,1.5,0,0,1,.54-1.2,2.19,2.19,0,0,1,1.43-.45,4.09,4.09,0,0,1,1.78.4l-.29.73-.31-.13a2.86,2.86,0,0,0-1.18-.23,1.17,1.17,0,0,0-.78.23.77.77,0,0,0-.09,1.12,3,3,0,0,0,.78.55,4.45,4.45,0,0,1,.83.56,1.67,1.67,0,0,1,.37.49A1.46,1.46,0,0,1,49.78,128.81Z" transform="translate(-0.53 -4.75)" fill="#231f20"/><path d="M51.76,130.48h-.9l1.26-5.88H53Zm.61-7.39a.73.73,0,0,1,.17-.49.58.58,0,0,1,.45-.19.42.42,0,0,1,.47.48.71.71,0,0,1-.18.5.54.54,0,0,1-.41.21.49.49,0,0,1-.36-.14A.48.48,0,0,1,52.37,123.09Z" transform="translate(-0.53 -4.75)" fill="#231f20"/><path d="M56.06,130.59a2.19,2.19,0,0,1-1.62-.57,2.24,2.24,0,0,1-.58-1.63,5,5,0,0,1,.4-2,3.35,3.35,0,0,1,1.1-1.41,2.62,2.62,0,0,1,1.58-.51,4,4,0,0,1,1.44.27l-.26.76a3.07,3.07,0,0,0-1.17-.27,1.65,1.65,0,0,0-1.1.41,2.69,2.69,0,0,0-.78,1.14,4.36,4.36,0,0,0-.28,1.59,1.49,1.49,0,0,0,.36,1.07,1.24,1.24,0,0,0,1,.38,2.48,2.48,0,0,0,.73-.1c.23-.08.46-.16.68-.26v.77A3.19,3.19,0,0,1,56.06,130.59Z" transform="translate(-0.53 -4.75)" fill="#231f20"/><rect y="149.41" width="61.13" height="32.8" fill="#262b69"/><line x1="241.07" y1="188.21" x2="241.07" y2="201.44" fill="none" stroke="#231f20" stroke-miterlimit="10"/><circle cx="240.93" cy="202.96" r="2.72" fill="#fff" stroke="#231f20" stroke-miterlimit="10"/><line x1="160.93" y1="188.54" x2="321.2" y2="188.54" fill="none" stroke="#231f20" stroke-miterlimit="10"/><line x1="160.77" y1="182.94" x2="160.77" y2="188.77" fill="none" stroke="#231f20" stroke-miterlimit="10" stroke-width="0.85"/><line x1="320.77" y1="182.94" x2="320.77" y2="188.77" fill="none" stroke="#231f20" stroke-miterlimit="10" stroke-width="0.85"/><line x1="1.05" y1="39.11" x2="71.58" y2="39.11" fill="none" stroke="#231f20" stroke-miterlimit="10"/><line x1="253.18" y1="39.11" x2="318.05" y2="39.11" fill="none" stroke="#231f20" stroke-miterlimit="10"/><line x1="0.89" y1="38.51" x2="0.89" y2="44.33" fill="none" stroke="#231f20" stroke-miterlimit="10" stroke-width="0.85"/><line x1="317.89" y1="38.51" x2="317.89" y2="44.33" fill="none" stroke="#231f20" stroke-miterlimit="10" stroke-width="0.85"/></svg>