<svg id="Layer_1" data-name="Layer 1" xmlns="http://www.w3.org/2000/svg" width="645.69" height="280.93" viewBox="0 0 645.69 280.93"><title>PrepArticle1_TakenSATorACT_Overall</title><line x1="91.38" y1="220.01" x2="91.38" y2="249.91" fill="none" stroke="#231f20" stroke-miterlimit="10"/><circle cx="91.52" cy="250.07" r="2.72" fill="#fff" stroke="#231f20" stroke-miterlimit="10"/><line x1="91.57" y1="66.86" x2="91.57" y2="38.76" fill="none" stroke="#231f20" stroke-miterlimit="10"/><circle cx="91.43" cy="38.6" r="2.72" fill="#fff" stroke="#231f20" stroke-miterlimit="10"/><path d="M90.22,146.74,15,103.29A86.91,86.91,0,0,1,133.67,71.48,83.25,83.25,0,0,1,169.6,111.4Z" transform="translate(-0.84 -3.19)" fill="#00aeef" fill-rule="evenodd"/><path d="M90.22,146.74,169.6,111.4A86.9,86.9,0,0,1,10.83,182.09C-.89,155.78.56,128.23,15,103.29Z" transform="translate(-0.84 -3.19)" fill="#262b69" fill-rule="evenodd"/><circle cx="89.32" cy="143.7" r="57.79" fill="#fff"/><path d="M17.39,7.27a4.07,4.07,0,0,1-1,2.73,5,5,0,0,1-2.74,1.54v.07a5.6,5.6,0,0,1,3.15,1.26,3.53,3.53,0,0,1,1.06,2.7,4.58,4.58,0,0,1-1.79,3.85A8.25,8.25,0,0,1,11,20.8,12.59,12.59,0,0,1,6,19.88V16.79a11.15,11.15,0,0,0,2.19.82,9.32,9.32,0,0,0,2.37.32,4.57,4.57,0,0,0,2.65-.61,2.24,2.24,0,0,0,.85-2,1.77,1.77,0,0,0-1-1.71,7.39,7.39,0,0,0-3.14-.5H8.67V10.37H10a6.18,6.18,0,0,0,2.92-.52,1.89,1.89,0,0,0,.92-1.79c0-1.29-.82-1.94-2.44-1.94a5.52,5.52,0,0,0-1.72.28,8.53,8.53,0,0,0-1.94,1L6.06,4.88a9.26,9.26,0,0,1,5.59-1.69,7.22,7.22,0,0,1,4.2,1.08A3.45,3.45,0,0,1,17.39,7.27Z" transform="translate(-0.84 -3.19)" fill="#231f20"/><path d="M26,9.62A5.52,5.52,0,0,1,30,11a5,5,0,0,1,1.47,3.82,5.54,5.54,0,0,1-1.77,4.41,7.42,7.42,0,0,1-5.06,1.55A10,10,0,0,1,20,19.88V16.75a10.25,10.25,0,0,0,2.16.8,9.35,9.35,0,0,0,2.33.31q3.32,0,3.31-2.72t-3.43-2.59a8.76,8.76,0,0,0-1.37.12,10.13,10.13,0,0,0-1.22.27l-1.44-.78L21,3.43h9.3V6.5H24.15l-.32,3.37.41-.08A8,8,0,0,1,26,9.62Z" transform="translate(-0.84 -3.19)" fill="#231f20"/><path d="M37.3,13.55a4.32,4.32,0,0,1-.52,2.36,1.72,1.72,0,0,1-1.54.79,1.67,1.67,0,0,1-1.48-.81,4.22,4.22,0,0,1-.53-2.34,4.37,4.37,0,0,1,.51-2.34,1.68,1.68,0,0,1,1.5-.78,1.73,1.73,0,0,1,1.53.81A4.24,4.24,0,0,1,37.3,13.55Zm-3.13,0a4.8,4.8,0,0,0,.25,1.75.87.87,0,0,0,.82.58c.75,0,1.13-.78,1.13-2.33s-.38-2.31-1.13-2.31a.86.86,0,0,0-.82.58A4.68,4.68,0,0,0,34.17,13.55Zm7.39-3L36,20.57H35l5.55-10Zm1.76,7a4.31,4.31,0,0,1-.52,2.35,1.72,1.72,0,0,1-1.53.79,1.68,1.68,0,0,1-1.5-.81,4.3,4.3,0,0,1-.52-2.33,4.32,4.32,0,0,1,.51-2.34,1.69,1.69,0,0,1,1.51-.79,1.72,1.72,0,0,1,1.51.81A4.14,4.14,0,0,1,43.32,17.56Zm-3.13,0a4.6,4.6,0,0,0,.25,1.75.85.85,0,0,0,.83.57.88.88,0,0,0,.84-.57,4.09,4.09,0,0,0,.28-1.75,4,4,0,0,0-.28-1.73.88.88,0,0,0-.84-.57.85.85,0,0,0-.83.57A4.41,4.41,0,0,0,40.19,17.56Z" transform="translate(-0.84 -3.19)" fill="#231f20"/><path d="M51.85,19.78H51.8a2.07,2.07,0,0,1-1.84.89,2.18,2.18,0,0,1-1.8-.79,3.44,3.44,0,0,1-.64-2.24,3.53,3.53,0,0,1,.64-2.26,2.17,2.17,0,0,1,1.8-.81,2.13,2.13,0,0,1,1.83.87h.07l0-.42,0-.42V12.21h.89v8.36H52Zm-1.78.15a1.61,1.61,0,0,0,1.32-.5,2.48,2.48,0,0,0,.41-1.6v-.19a3,3,0,0,0-.41-1.79,1.6,1.6,0,0,0-1.33-.53,1.34,1.34,0,0,0-1.2.61,3,3,0,0,0-.42,1.72,2.94,2.94,0,0,0,.41,1.7A1.4,1.4,0,0,0,50.07,19.93Z" transform="translate(-0.84 -3.19)" fill="#231f20"/><path d="M54.51,13.08a.57.57,0,0,1,.15-.44.52.52,0,0,1,.38-.15.53.53,0,0,1,.37.15.59.59,0,0,1,.15.44.6.6,0,0,1-.15.45.53.53,0,0,1-.37.15.52.52,0,0,1-.38-.15A.6.6,0,0,1,54.51,13.08Zm1,7.49h-.89V14.68h.89Z" transform="translate(-0.84 -3.19)" fill="#231f20"/><path d="M61.37,19.78h0a2.1,2.1,0,0,1-1.85.89,2.18,2.18,0,0,1-1.8-.79A3.44,3.44,0,0,1,57,17.64a3.53,3.53,0,0,1,.64-2.26,2.17,2.17,0,0,1,1.8-.81,2.15,2.15,0,0,1,1.84.87h.07l0-.42,0-.42V12.21h.89v8.36h-.73Zm-1.78.15a1.65,1.65,0,0,0,1.33-.5,2.54,2.54,0,0,0,.41-1.6v-.19a2.94,2.94,0,0,0-.42-1.79,1.6,1.6,0,0,0-1.33-.53,1.36,1.36,0,0,0-1.2.61A3,3,0,0,0,58,17.65a2.86,2.86,0,0,0,.42,1.7A1.38,1.38,0,0,0,59.59,19.93Z" transform="translate(-0.84 -3.19)" fill="#231f20"/><path d="M68.14,20.57V16.76a1.55,1.55,0,0,0-.33-1.08,1.36,1.36,0,0,0-1-.35,1.71,1.71,0,0,0-1.35.5A2.49,2.49,0,0,0,65,17.48v3.09h-.89V14.68h.72l.15.81h0a1.82,1.82,0,0,1,.77-.68,2.5,2.5,0,0,1,1.1-.24,2.24,2.24,0,0,1,1.6.51A2.2,2.2,0,0,1,69,16.73v3.84Z" transform="translate(-0.84 -3.19)" fill="#231f20"/><path d="M71.57,12.71l.08.12a11,11,0,0,1-.4,1.25,13.84,13.84,0,0,1-.55,1.32h-.65c.25-1,.43-1.91.55-2.69Z" transform="translate(-0.84 -3.19)" fill="#231f20"/><path d="M74.63,19.94a2.32,2.32,0,0,0,.46,0,2.15,2.15,0,0,0,.35-.07v.68a1.51,1.51,0,0,1-.43.12,3.25,3.25,0,0,1-.51,0q-1.71,0-1.71-1.8v-3.5H72v-.43l.84-.37.38-1.25h.52v1.36h1.7v.69h-1.7v3.47a1.17,1.17,0,0,0,.25.81A.88.88,0,0,0,74.63,19.94Z" transform="translate(-0.84 -3.19)" fill="#231f20"/><path d="M81.37,19.94a2.32,2.32,0,0,0,.46,0,2.15,2.15,0,0,0,.35-.07v.68a1.51,1.51,0,0,1-.43.12,3.25,3.25,0,0,1-.51,0q-1.71,0-1.71-1.8v-3.5h-.84v-.43l.84-.37.38-1.25h.52v1.36h1.7v.69h-1.7v3.47a1.17,1.17,0,0,0,.25.81A.88.88,0,0,0,81.37,19.94Z" transform="translate(-0.84 -3.19)" fill="#231f20"/><path d="M87,20.57l-.17-.84h0a2.37,2.37,0,0,1-.88.75,2.66,2.66,0,0,1-1.09.19,2,2,0,0,1-1.37-.45,1.65,1.65,0,0,1-.5-1.28c0-1.19,1-1.81,2.85-1.87l1,0v-.37a1.53,1.53,0,0,0-.29-1,1.24,1.24,0,0,0-1-.33,3.88,3.88,0,0,0-1.66.45l-.28-.68a4.45,4.45,0,0,1,2-.51,2.26,2.26,0,0,1,1.56.47,2,2,0,0,1,.5,1.5v4Zm-2-.63a1.81,1.81,0,0,0,1.31-.46,1.71,1.71,0,0,0,.47-1.28v-.53l-.89,0a3.1,3.1,0,0,0-1.53.33,1,1,0,0,0-.47.91.92.92,0,0,0,.29.74A1.25,1.25,0,0,0,85,19.94Z" transform="translate(-0.84 -3.19)" fill="#231f20"/><path d="M90.35,17.55c.16-.22.39-.5.71-.86l1.9-2H94l-2.38,2.51,2.55,3.38H93.1L91,17.78l-.67.58v2.21h-.88V12.21h.88v4.43c0,.2,0,.5,0,.91Z" transform="translate(-0.84 -3.19)" fill="#231f20"/><path d="M97.73,20.67a2.7,2.7,0,0,1-2.06-.79,3.1,3.1,0,0,1-.75-2.21,3.4,3.4,0,0,1,.7-2.26,2.32,2.32,0,0,1,1.88-.84,2.2,2.2,0,0,1,1.75.73,2.81,2.81,0,0,1,.65,1.92v.56H95.84a2.35,2.35,0,0,0,.52,1.58,1.82,1.82,0,0,0,1.4.54,4.81,4.81,0,0,0,1.88-.4v.79a3.84,3.84,0,0,1-.89.29A5,5,0,0,1,97.73,20.67Zm-.24-5.35a1.45,1.45,0,0,0-1.13.46,2.13,2.13,0,0,0-.5,1.28h3.08a2,2,0,0,0-.38-1.29A1.31,1.31,0,0,0,97.49,15.32Z" transform="translate(-0.84 -3.19)" fill="#231f20"/><path d="M106.17,19.94a2.32,2.32,0,0,0,.46,0,1.94,1.94,0,0,0,.35-.07v.68a1.51,1.51,0,0,1-.43.12,3,3,0,0,1-.5,0q-1.71,0-1.71-1.8v-3.5h-.85v-.43l.85-.37.37-1.25h.52v1.36h1.71v.69h-1.71v3.47a1.17,1.17,0,0,0,.25.81A.88.88,0,0,0,106.17,19.94Z" transform="translate(-0.84 -3.19)" fill="#231f20"/><path d="M112.19,20.57V16.76a1.55,1.55,0,0,0-.33-1.08,1.36,1.36,0,0,0-1-.35,1.68,1.68,0,0,0-1.35.5,2.54,2.54,0,0,0-.43,1.66v3.08h-.89V12.21h.89v2.53a7.59,7.59,0,0,1,0,.76h0a1.69,1.69,0,0,1,.75-.67,2.33,2.33,0,0,1,1.11-.25,2.24,2.24,0,0,1,1.62.52,2.15,2.15,0,0,1,.54,1.63v3.84Z" transform="translate(-0.84 -3.19)" fill="#231f20"/><path d="M117.39,20.67a2.73,2.73,0,0,1-2.06-.79,3.1,3.1,0,0,1-.75-2.21,3.4,3.4,0,0,1,.7-2.26,2.33,2.33,0,0,1,1.88-.84,2.22,2.22,0,0,1,1.76.73,2.85,2.85,0,0,1,.64,1.92v.56H115.5a2.36,2.36,0,0,0,.53,1.58,1.81,1.81,0,0,0,1.4.54,4.85,4.85,0,0,0,1.88-.4v.79a4.06,4.06,0,0,1-.9.29A5,5,0,0,1,117.39,20.67Zm-.24-5.35a1.45,1.45,0,0,0-1.13.46,2.13,2.13,0,0,0-.49,1.28h3.07a2,2,0,0,0-.37-1.29A1.33,1.33,0,0,0,117.15,15.32Z" transform="translate(-0.84 -3.19)" fill="#231f20"/><path d="M128.5,18.48a1.91,1.91,0,0,1-.75,1.61,3.23,3.23,0,0,1-2,.58,5.12,5.12,0,0,1-2.15-.36v-.88a5.38,5.38,0,0,0,1,.33,6.27,6.27,0,0,0,1.13.11,2.3,2.3,0,0,0,1.38-.34,1.17,1.17,0,0,0,.46-1,1.35,1.35,0,0,0-.16-.67,1.66,1.66,0,0,0-.55-.48,9.39,9.39,0,0,0-1.17-.5,3.76,3.76,0,0,1-1.57-.93,2,2,0,0,1-.47-1.4,1.74,1.74,0,0,1,.69-1.44,2.8,2.8,0,0,1,1.8-.54,5.23,5.23,0,0,1,2.15.43l-.28.8a4.74,4.74,0,0,0-1.89-.41,1.81,1.81,0,0,0-1.13.31,1,1,0,0,0-.41.86,1.3,1.3,0,0,0,.15.67,1.32,1.32,0,0,0,.51.48,5.35,5.35,0,0,0,1.09.48,4.27,4.27,0,0,1,1.7,1A1.84,1.84,0,0,1,128.5,18.48Z" transform="translate(-0.84 -3.19)" fill="#231f20"/><path d="M135,20.57l-1-2.5h-3.15l-1,2.5H129l3.1-7.89h.77L136,20.57Zm-1.26-3.32-.91-2.44c-.12-.3-.24-.68-.37-1.13a9.69,9.69,0,0,1-.33,1.13l-.93,2.44Z" transform="translate(-0.84 -3.19)" fill="#231f20"/><path d="M139.49,20.57h-.92v-7h-2.48v-.81H142v.81h-2.48Z" transform="translate(-0.84 -3.19)" fill="#231f20"/><path d="M151,17.62a3.22,3.22,0,0,1-.73,2.25,2.57,2.57,0,0,1-2,.8,2.62,2.62,0,0,1-1.4-.37,2.46,2.46,0,0,1-1-1.06,3.72,3.72,0,0,1-.33-1.62,3.23,3.23,0,0,1,.72-2.24,2.54,2.54,0,0,1,2-.81,2.51,2.51,0,0,1,2,.82A3.22,3.22,0,0,1,151,17.62Zm-4.49,0a2.82,2.82,0,0,0,.45,1.72,1.6,1.6,0,0,0,1.33.59,1.57,1.57,0,0,0,1.33-.59,2.8,2.8,0,0,0,.46-1.72,2.77,2.77,0,0,0-.46-1.71,1.83,1.83,0,0,0-2.66,0A2.78,2.78,0,0,0,146.47,17.62Z" transform="translate(-0.84 -3.19)" fill="#231f20"/><path d="M155.21,14.57a3,3,0,0,1,.7.07l-.12.82a3.37,3.37,0,0,0-.65-.08,1.6,1.6,0,0,0-1.22.58,2.12,2.12,0,0,0-.51,1.45v3.16h-.89V14.68h.74l.1,1.09h0a2.65,2.65,0,0,1,.79-.89A1.85,1.85,0,0,1,155.21,14.57Z" transform="translate(-0.84 -3.19)" fill="#231f20"/><path d="M164.94,20.57l-1-2.5h-3.15l-1,2.5h-.93L162,12.68h.77l3.08,7.89Zm-1.26-3.32-.92-2.44c-.11-.3-.24-.68-.36-1.13a9.88,9.88,0,0,1-.34,1.13l-.92,2.44Z" transform="translate(-0.84 -3.19)" fill="#231f20"/><path d="M170.33,13.42a2.59,2.59,0,0,0-2.05.86,3.46,3.46,0,0,0-.75,2.36,3.49,3.49,0,0,0,.73,2.38,2.56,2.56,0,0,0,2.06.84,7.3,7.3,0,0,0,1.87-.29v.8a5.87,5.87,0,0,1-2,.3,3.41,3.41,0,0,1-2.68-1.05,4.32,4.32,0,0,1-.94-3A4.77,4.77,0,0,1,167,14.5a3.17,3.17,0,0,1,1.31-1.4,4,4,0,0,1,2-.5,4.9,4.9,0,0,1,2.16.45l-.39.79A4.14,4.14,0,0,0,170.33,13.42Z" transform="translate(-0.84 -3.19)" fill="#231f20"/><path d="M176.32,20.57h-.91v-7h-2.49v-.81h5.89v.81h-2.49Z" transform="translate(-0.84 -3.19)" fill="#231f20"/><path d="M35,34.67a2.5,2.5,0,0,1-2-.78,3.24,3.24,0,0,1-.71-2.23A3.32,3.32,0,0,1,33,29.38a2.54,2.54,0,0,1,2-.81,4,4,0,0,1,.85.09,2.75,2.75,0,0,1,.67.22l-.28.76a3.7,3.7,0,0,0-.64-.2,3,3,0,0,0-.62-.08c-1.19,0-1.79.77-1.79,2.29a2.65,2.65,0,0,0,.44,1.66,1.5,1.5,0,0,0,1.29.58,4,4,0,0,0,1.51-.31v.79A3.27,3.27,0,0,1,35,34.67Z" transform="translate(-0.84 -3.19)" fill="#231f20"/><path d="M43,31.62a3.22,3.22,0,0,1-.73,2.25,2.57,2.57,0,0,1-2,.8,2.64,2.64,0,0,1-1.4-.37,2.46,2.46,0,0,1-.95-1.06,3.72,3.72,0,0,1-.33-1.62,3.23,3.23,0,0,1,.72-2.24,2.54,2.54,0,0,1,2-.81,2.51,2.51,0,0,1,2,.82A3.22,3.22,0,0,1,43,31.62Zm-4.48,0a2.82,2.82,0,0,0,.45,1.72,1.78,1.78,0,0,0,2.65,0A2.8,2.8,0,0,0,42,31.62a2.77,2.77,0,0,0-.46-1.71,1.83,1.83,0,0,0-2.66,0A2.78,2.78,0,0,0,38.48,31.62Z" transform="translate(-0.84 -3.19)" fill="#231f20"/><path d="M45.41,34.57h-.89V26.21h.89Z" transform="translate(-0.84 -3.19)" fill="#231f20"/><path d="M48.2,34.57h-.89V26.21h.89Z" transform="translate(-0.84 -3.19)" fill="#231f20"/><path d="M52.57,34.67a2.71,2.71,0,0,1-2.06-.79,3.1,3.1,0,0,1-.75-2.21,3.4,3.4,0,0,1,.7-2.26,2.33,2.33,0,0,1,1.88-.84,2.2,2.2,0,0,1,1.75.73,2.81,2.81,0,0,1,.65,1.92v.56H50.68a2.36,2.36,0,0,0,.53,1.58,1.79,1.79,0,0,0,1.4.53,4.84,4.84,0,0,0,1.88-.39v.79a4.06,4.06,0,0,1-.9.29A5,5,0,0,1,52.57,34.67Zm-.24-5.35a1.45,1.45,0,0,0-1.13.46,2.13,2.13,0,0,0-.49,1.28h3.07a2,2,0,0,0-.37-1.29A1.33,1.33,0,0,0,52.33,29.32Z" transform="translate(-0.84 -3.19)" fill="#231f20"/><path d="M61.08,28.68v.56L60,29.37a1.73,1.73,0,0,1,.26.49,1.88,1.88,0,0,1,.12.69,1.71,1.71,0,0,1-.59,1.38,2.39,2.39,0,0,1-1.62.52,2.46,2.46,0,0,1-.49-.05.87.87,0,0,0-.57.76.38.38,0,0,0,.2.36,1.55,1.55,0,0,0,.68.11h1a2.32,2.32,0,0,1,1.47.41A1.38,1.38,0,0,1,61,35.21a1.68,1.68,0,0,1-.78,1.49,4.25,4.25,0,0,1-2.29.51,3.1,3.1,0,0,1-1.78-.43,1.39,1.39,0,0,1-.63-1.21,1.36,1.36,0,0,1,.35-.93,1.81,1.81,0,0,1,1-.54.85.85,0,0,1-.37-.31.81.81,0,0,1-.16-.5,1,1,0,0,1,.17-.57,1.88,1.88,0,0,1,.55-.46,1.6,1.6,0,0,1-.75-.64,2.11,2.11,0,0,1,.29-2.52,2.39,2.39,0,0,1,1.65-.53,3,3,0,0,1,.83.11Zm-4.7,6.87a.8.8,0,0,0,.41.73,2.23,2.23,0,0,0,1.15.25,3.14,3.14,0,0,0,1.66-.34,1,1,0,0,0,.54-.91.72.72,0,0,0-.29-.66,2.24,2.24,0,0,0-1.12-.19H57.67a1.44,1.44,0,0,0-1,.29A1.06,1.06,0,0,0,56.38,35.55Zm.49-5a1.2,1.2,0,0,0,.34.94,1.43,1.43,0,0,0,1,.32,1.14,1.14,0,0,0,1.3-1.27,1.17,1.17,0,0,0-1.32-1.33,1.3,1.3,0,0,0-1,.34A1.39,1.39,0,0,0,56.87,30.56Z" transform="translate(-0.84 -3.19)" fill="#231f20"/><path d="M64.77,34.67a2.71,2.71,0,0,1-2.06-.79A3.1,3.1,0,0,1,62,31.67a3.4,3.4,0,0,1,.7-2.26,2.32,2.32,0,0,1,1.88-.84,2.2,2.2,0,0,1,1.75.73,2.81,2.81,0,0,1,.65,1.92v.56H62.88a2.31,2.31,0,0,0,.53,1.58,1.78,1.78,0,0,0,1.39.53,4.8,4.8,0,0,0,1.88-.39v.79a3.84,3.84,0,0,1-.89.29A5,5,0,0,1,64.77,34.67Zm-.24-5.35a1.45,1.45,0,0,0-1.13.46,2.13,2.13,0,0,0-.5,1.28H66a2,2,0,0,0-.38-1.29A1.31,1.31,0,0,0,64.53,29.32Z" transform="translate(-0.84 -3.19)" fill="#231f20"/><path d="M73.8,34.67a2.7,2.7,0,0,1-2.06-.79A3.1,3.1,0,0,1,71,31.67a3.4,3.4,0,0,1,.7-2.26,2.31,2.31,0,0,1,1.88-.84,2.2,2.2,0,0,1,1.75.73A2.81,2.81,0,0,1,76,31.22v.56H71.91a2.35,2.35,0,0,0,.52,1.58,1.82,1.82,0,0,0,1.4.53,4.8,4.8,0,0,0,1.88-.39v.79a3.84,3.84,0,0,1-.89.29A5,5,0,0,1,73.8,34.67Zm-.24-5.35a1.45,1.45,0,0,0-1.13.46,2.13,2.13,0,0,0-.5,1.28H75a2,2,0,0,0-.38-1.29A1.32,1.32,0,0,0,73.56,29.32Z" transform="translate(-0.84 -3.19)" fill="#231f20"/><path d="M81.51,34.57V30.76a1.6,1.6,0,0,0-.32-1.08,1.36,1.36,0,0,0-1-.35,1.68,1.68,0,0,0-1.35.5,2.49,2.49,0,0,0-.43,1.65v3.09h-.89V28.68h.72l.15.81h0a1.82,1.82,0,0,1,.77-.68,2.47,2.47,0,0,1,1.1-.24,2.24,2.24,0,0,1,1.6.51,2.2,2.2,0,0,1,.54,1.65v3.84Z" transform="translate(-0.84 -3.19)" fill="#231f20"/><path d="M86.14,33.94a2.15,2.15,0,0,0,.45,0,1.77,1.77,0,0,0,.35-.07v.68a1.43,1.43,0,0,1-.42.12,3.25,3.25,0,0,1-.51,0c-1.14,0-1.71-.6-1.71-1.79V29.37h-.84v-.43l.84-.37.38-1.25h.51v1.36H86.9v.69H85.19v3.47a1.18,1.18,0,0,0,.26.81A.85.85,0,0,0,86.14,33.94Z" transform="translate(-0.84 -3.19)" fill="#231f20"/><path d="M90.81,28.57a3,3,0,0,1,.7.07l-.12.82a3.37,3.37,0,0,0-.65-.08,1.6,1.6,0,0,0-1.22.58A2.12,2.12,0,0,0,89,31.41v3.16h-.89V28.68h.74l.1,1.09h0a2.65,2.65,0,0,1,.79-.89A1.85,1.85,0,0,1,90.81,28.57Z" transform="translate(-0.84 -3.19)" fill="#231f20"/><path d="M96.23,34.57l-.18-.84h0a2.45,2.45,0,0,1-.88.75,2.66,2.66,0,0,1-1.09.19,2,2,0,0,1-1.37-.45,1.65,1.65,0,0,1-.5-1.28c0-1.19,1-1.81,2.85-1.87l1,0v-.37a1.48,1.48,0,0,0-.3-1,1.22,1.22,0,0,0-1-.33,3.92,3.92,0,0,0-1.67.45l-.27-.68a4.36,4.36,0,0,1,2-.51,2.26,2.26,0,0,1,1.56.47,1.94,1.94,0,0,1,.51,1.5v4Zm-2-.63a1.77,1.77,0,0,0,1.3-.46A1.67,1.67,0,0,0,96,32.2v-.53l-.89,0a3.17,3.17,0,0,0-1.54.33,1,1,0,0,0-.47.91.92.92,0,0,0,.3.74A1.25,1.25,0,0,0,94.22,33.94Z" transform="translate(-0.84 -3.19)" fill="#231f20"/><path d="M102.76,34.57V30.76a1.55,1.55,0,0,0-.33-1.08,1.36,1.36,0,0,0-1-.35,1.71,1.71,0,0,0-1.35.5,2.49,2.49,0,0,0-.43,1.65v3.09h-.89V28.68h.72l.15.81h0a1.82,1.82,0,0,1,.77-.68,2.5,2.5,0,0,1,1.1-.24,2.24,2.24,0,0,1,1.6.51,2.2,2.2,0,0,1,.54,1.65v3.84Z" transform="translate(-0.84 -3.19)" fill="#231f20"/><path d="M107.83,34.67a2.53,2.53,0,0,1-2-.78,3.29,3.29,0,0,1-.7-2.23,3.36,3.36,0,0,1,.71-2.28,2.56,2.56,0,0,1,2-.81,4.09,4.09,0,0,1,.85.09,3.09,3.09,0,0,1,.67.22l-.28.76a3.7,3.7,0,0,0-.64-.2,3.1,3.1,0,0,0-.62-.08c-1.2,0-1.79.77-1.79,2.29a2.71,2.71,0,0,0,.43,1.66,1.53,1.53,0,0,0,1.3.58,4,4,0,0,0,1.51-.31v.79A3.27,3.27,0,0,1,107.83,34.67Z" transform="translate(-0.84 -3.19)" fill="#231f20"/><path d="M113.2,34.67a2.71,2.71,0,0,1-2.06-.79,3.1,3.1,0,0,1-.75-2.21,3.4,3.4,0,0,1,.7-2.26,2.32,2.32,0,0,1,1.88-.84,2.2,2.2,0,0,1,1.75.73,2.81,2.81,0,0,1,.65,1.92v.56h-4.06a2.31,2.31,0,0,0,.53,1.58,1.79,1.79,0,0,0,1.4.53,4.84,4.84,0,0,0,1.88-.39v.79a4.06,4.06,0,0,1-.9.29A5,5,0,0,1,113.2,34.67ZM113,29.32a1.45,1.45,0,0,0-1.13.46,2.13,2.13,0,0,0-.5,1.28h3.08a2,2,0,0,0-.37-1.29A1.33,1.33,0,0,0,113,29.32Z" transform="translate(-0.84 -3.19)" fill="#231f20"/><path d="M122.23,34.67a2.7,2.7,0,0,1-2.06-.79,3.1,3.1,0,0,1-.75-2.21,3.4,3.4,0,0,1,.7-2.26,2.32,2.32,0,0,1,1.88-.84,2.2,2.2,0,0,1,1.75.73,2.81,2.81,0,0,1,.65,1.92v.56h-4.06a2.31,2.31,0,0,0,.53,1.58,1.78,1.78,0,0,0,1.39.53,4.8,4.8,0,0,0,1.88-.39v.79a3.84,3.84,0,0,1-.89.29A5,5,0,0,1,122.23,34.67ZM122,29.32a1.45,1.45,0,0,0-1.13.46,2.13,2.13,0,0,0-.5,1.28h3.08a1.91,1.91,0,0,0-.38-1.29A1.31,1.31,0,0,0,122,29.32Z" transform="translate(-0.84 -3.19)" fill="#231f20"/><path d="M127.33,31.55l-2-2.87h1l1.56,2.26,1.54-2.26h1l-2,2.87,2.15,3h-1l-1.64-2.39-1.67,2.39h-1Z" transform="translate(-0.84 -3.19)" fill="#231f20"/><path d="M135.3,34.57l-.18-.84h0a2.45,2.45,0,0,1-.88.75,2.7,2.7,0,0,1-1.09.19,2,2,0,0,1-1.37-.45,1.65,1.65,0,0,1-.5-1.28c0-1.19.95-1.81,2.85-1.87l1,0v-.37a1.48,1.48,0,0,0-.3-1,1.22,1.22,0,0,0-.95-.33,3.92,3.92,0,0,0-1.67.45l-.27-.68a4.36,4.36,0,0,1,2-.51,2.26,2.26,0,0,1,1.56.47,1.94,1.94,0,0,1,.51,1.5v4Zm-2-.63a1.77,1.77,0,0,0,1.3-.46,1.67,1.67,0,0,0,.48-1.28v-.53l-.89,0a3.17,3.17,0,0,0-1.54.33,1,1,0,0,0-.47.91.92.92,0,0,0,.3.74A1.24,1.24,0,0,0,133.29,33.94Z" transform="translate(-0.84 -3.19)" fill="#231f20"/><path d="M145.3,34.57V30.74a1.61,1.61,0,0,0-.3-1.06,1.18,1.18,0,0,0-.94-.35,1.52,1.52,0,0,0-1.23.48,2.31,2.31,0,0,0-.39,1.47v3.29h-.89V30.74a1.61,1.61,0,0,0-.3-1.06,1.22,1.22,0,0,0-.95-.35,1.46,1.46,0,0,0-1.22.5,2.72,2.72,0,0,0-.39,1.65v3.09h-.89V28.68h.72l.15.81h0a1.79,1.79,0,0,1,.71-.68,2.2,2.2,0,0,1,1-.24,1.75,1.75,0,0,1,1.8,1h.05a1.85,1.85,0,0,1,.76-.73,2.34,2.34,0,0,1,1.14-.27,2,2,0,0,1,1.5.51,2.33,2.33,0,0,1,.49,1.65v3.84Z" transform="translate(-0.84 -3.19)" fill="#231f20"/><path d="M151.83,33a1.48,1.48,0,0,1-.62,1.27,2.83,2.83,0,0,1-1.71.44,3.7,3.7,0,0,1-1.83-.37v-.82a4.47,4.47,0,0,0,.91.33,3.49,3.49,0,0,0,.94.13,2.1,2.1,0,0,0,1.07-.23A.72.72,0,0,0,151,33a.73.73,0,0,0-.3-.59,4.47,4.47,0,0,0-1.16-.58,6.16,6.16,0,0,1-1.17-.53,1.83,1.83,0,0,1-.52-.52,1.41,1.41,0,0,1-.17-.69,1.32,1.32,0,0,1,.59-1.14,2.69,2.69,0,0,1,1.6-.42,4.63,4.63,0,0,1,1.86.39l-.31.72a4.37,4.37,0,0,0-1.61-.36,1.81,1.81,0,0,0-1,.2.61.61,0,0,0-.32.55.68.68,0,0,0,.12.4,1.33,1.33,0,0,0,.39.32,9.82,9.82,0,0,0,1,.43,3.81,3.81,0,0,1,1.42.77A1.38,1.38,0,0,1,151.83,33Z" transform="translate(-0.84 -3.19)" fill="#231f20"/><path d="M.84,262.73q0-5.09,2.15-7.57c1.44-1.65,3.58-2.48,6.44-2.48a11.4,11.4,0,0,1,2.3.18v2.89a9.1,9.1,0,0,0-2.06-.23,7,7,0,0,0-3,.56,3.76,3.76,0,0,0-1.77,1.66,7.68,7.68,0,0,0-.69,3.13h.15a4,4,0,0,1,3.72-2,4.61,4.61,0,0,1,3.6,1.44,5.76,5.76,0,0,1,1.3,4,6,6,0,0,1-1.55,4.35,5.71,5.71,0,0,1-4.29,1.6,6.2,6.2,0,0,1-3.31-.88,5.71,5.71,0,0,1-2.18-2.57A9.79,9.79,0,0,1,.84,262.73ZM7,267.35a2.14,2.14,0,0,0,1.78-.78,3.45,3.45,0,0,0,.62-2.22,3,3,0,0,0-.58-2,2.1,2.1,0,0,0-1.75-.72,2.67,2.67,0,0,0-1.88.71A2.2,2.2,0,0,0,4.44,264a3.82,3.82,0,0,0,.73,2.35A2.25,2.25,0,0,0,7,267.35Z" transform="translate(-0.84 -3.19)" fill="#231f20"/><path d="M20.89,259.07a5.51,5.51,0,0,1,4,1.39,5,5,0,0,1,1.47,3.82,5.55,5.55,0,0,1-1.77,4.42,7.47,7.47,0,0,1-5.06,1.55,9.87,9.87,0,0,1-4.62-.93v-3.13A9.26,9.26,0,0,0,17,267a9.41,9.41,0,0,0,2.33.31q3.32,0,3.32-2.71T19.24,262a8.76,8.76,0,0,0-1.37.12,10.38,10.38,0,0,0-1.22.26l-1.44-.77.65-8.73h9.29V256H19l-.32,3.36.42-.08A7.94,7.94,0,0,1,20.89,259.07Z" transform="translate(-0.84 -3.19)" fill="#231f20"/><path d="M32.18,263a4.29,4.29,0,0,1-.52,2.35,1.72,1.72,0,0,1-1.53.8,1.68,1.68,0,0,1-1.49-.81,5.53,5.53,0,0,1,0-4.68,1.83,1.83,0,0,1,3,0A4.16,4.16,0,0,1,32.18,263Zm-3.13,0a4.54,4.54,0,0,0,.26,1.74.84.84,0,0,0,.82.58c.74,0,1.12-.77,1.12-2.32s-.38-2.31-1.12-2.31a.84.84,0,0,0-.82.57A4.47,4.47,0,0,0,29.05,263Zm7.39-3L30.9,270h-1l5.55-10Zm1.77,7a4.28,4.28,0,0,1-.53,2.35,1.72,1.72,0,0,1-1.53.8,1.67,1.67,0,0,1-1.5-.82,4.37,4.37,0,0,1-.52-2.33,4.31,4.31,0,0,1,.51-2.33,1.67,1.67,0,0,1,1.51-.79,1.72,1.72,0,0,1,1.51.8A4.16,4.16,0,0,1,38.21,267Zm-3.14,0a4.56,4.56,0,0,0,.25,1.75.86.86,0,0,0,.83.58.91.91,0,0,0,.85-.57,4.34,4.34,0,0,0,.27-1.76,4.21,4.21,0,0,0-.27-1.73.9.9,0,0,0-.85-.56.85.85,0,0,0-.83.56A4.45,4.45,0,0,0,35.07,267Z" transform="translate(-0.84 -3.19)" fill="#231f20"/><path d="M45.41,269.38a3.29,3.29,0,0,0,.45,0l.35-.07V270a1.9,1.9,0,0,1-.42.11,3.36,3.36,0,0,1-.51.05q-1.71,0-1.71-1.8v-3.5h-.84v-.43l.84-.37.38-1.26h.51v1.37h1.71v.69H44.46v3.46a1.24,1.24,0,0,0,.25.82A.88.88,0,0,0,45.41,269.38Z" transform="translate(-0.84 -3.19)" fill="#231f20"/><path d="M52.47,267.06a3.27,3.27,0,0,1-.72,2.25,2.58,2.58,0,0,1-2,.81,2.64,2.64,0,0,1-1.4-.37,2.48,2.48,0,0,1-1-1.07,3.72,3.72,0,0,1-.33-1.62,3.24,3.24,0,0,1,.72-2.24,2.57,2.57,0,0,1,2-.8,2.47,2.47,0,0,1,2,.82A3.21,3.21,0,0,1,52.47,267.06Zm-4.48,0a2.8,2.8,0,0,0,.45,1.72,1.78,1.78,0,0,0,2.65,0,2.71,2.71,0,0,0,.46-1.72,2.67,2.67,0,0,0-.46-1.7,1.8,1.8,0,0,0-2.66,0A2.73,2.73,0,0,0,48,267.06Z" transform="translate(-0.84 -3.19)" fill="#231f20"/><path d="M59.11,267.06a3.27,3.27,0,0,1-.72,2.25,2.54,2.54,0,0,1-2,.81,2.65,2.65,0,0,1-1.41-.37,2.46,2.46,0,0,1-.94-1.07,3.72,3.72,0,0,1-.33-1.62,3.24,3.24,0,0,1,.72-2.24,2.55,2.55,0,0,1,2-.8,2.49,2.49,0,0,1,2,.82A3.26,3.26,0,0,1,59.11,267.06Zm-4.48,0a2.8,2.8,0,0,0,.45,1.72,1.55,1.55,0,0,0,1.33.59,1.57,1.57,0,0,0,1.33-.59,2.78,2.78,0,0,0,.45-1.72,2.74,2.74,0,0,0-.45-1.7,1.61,1.61,0,0,0-1.34-.59,1.56,1.56,0,0,0-1.32.58A2.73,2.73,0,0,0,54.63,267.06Z" transform="translate(-0.84 -3.19)" fill="#231f20"/><path d="M61.56,267a9.58,9.58,0,0,1,.7-.86l1.9-2h1.06l-2.38,2.5L65.39,270H64.31l-2.08-2.78-.67.58V270h-.88v-8.36h.88v4.43c0,.2,0,.51,0,.92Z" transform="translate(-0.84 -3.19)" fill="#231f20"/><path d="M71.21,269.38a3.44,3.44,0,0,0,.46,0l.35-.07V270a2,2,0,0,1-.43.11,3.36,3.36,0,0,1-.51.05q-1.71,0-1.71-1.8v-3.5h-.84v-.43l.84-.37.38-1.26h.51v1.37H72v.69H70.26v3.46a1.19,1.19,0,0,0,.26.82A.88.88,0,0,0,71.21,269.38Z" transform="translate(-0.84 -3.19)" fill="#231f20"/><path d="M77.22,270V266.2a1.52,1.52,0,0,0-.33-1.07,1.32,1.32,0,0,0-1-.36,1.69,1.69,0,0,0-1.36.51,2.59,2.59,0,0,0-.43,1.65V270h-.89v-8.36h.89v2.53a5.35,5.35,0,0,1,0,.76h0a2,2,0,0,1,.75-.67A2.51,2.51,0,0,1,76,264a2.28,2.28,0,0,1,1.62.51,2.16,2.16,0,0,1,.54,1.63V270Z" transform="translate(-0.84 -3.19)" fill="#231f20"/><path d="M82.43,270.12a2.7,2.7,0,0,1-2.06-.8,3.07,3.07,0,0,1-.75-2.2,3.38,3.38,0,0,1,.7-2.26A2.31,2.31,0,0,1,82.2,264a2.2,2.2,0,0,1,1.75.73,2.77,2.77,0,0,1,.64,1.92v.56h-4a2.33,2.33,0,0,0,.52,1.57,1.81,1.81,0,0,0,1.4.54,4.64,4.64,0,0,0,1.88-.4v.8a5.1,5.1,0,0,1-.89.29A5,5,0,0,1,82.43,270.12Zm-.24-5.36a1.46,1.46,0,0,0-1.13.47,2.1,2.1,0,0,0-.5,1.27h3.08a2,2,0,0,0-.38-1.29A1.32,1.32,0,0,0,82.19,264.76Z" transform="translate(-0.84 -3.19)" fill="#231f20"/><path d="M93.54,267.92a1.94,1.94,0,0,1-.75,1.62,3.28,3.28,0,0,1-2.05.58,5.07,5.07,0,0,1-2.14-.36v-.88a6.16,6.16,0,0,0,1.05.32,5.43,5.43,0,0,0,1.13.12,2.27,2.27,0,0,0,1.37-.35,1.12,1.12,0,0,0,.46-1,1.23,1.23,0,0,0-.16-.67,1.57,1.57,0,0,0-.55-.48,6.4,6.4,0,0,0-1.17-.5,3.65,3.65,0,0,1-1.56-.93,2,2,0,0,1-.47-1.4,1.76,1.76,0,0,1,.68-1.45,2.89,2.89,0,0,1,1.81-.53,5.26,5.26,0,0,1,2.15.43l-.29.79a4.85,4.85,0,0,0-1.89-.41,1.87,1.87,0,0,0-1.13.31,1,1,0,0,0-.41.87,1.36,1.36,0,0,0,.15.67,1.49,1.49,0,0,0,.51.48,7.21,7.21,0,0,0,1.09.48,4.32,4.32,0,0,1,1.7.94A1.86,1.86,0,0,1,93.54,267.92Z" transform="translate(-0.84 -3.19)" fill="#231f20"/><path d="M100.08,270l-1-2.5H96L95,270h-.93l3.11-7.88h.77L101,270Zm-1.26-3.32-.92-2.43c-.11-.31-.24-.69-.36-1.13a9.88,9.88,0,0,1-.34,1.13l-.92,2.43Z" transform="translate(-0.84 -3.19)" fill="#231f20"/><path d="M104.52,270h-.91v-7h-2.49v-.81H107V263h-2.49Z" transform="translate(-0.84 -3.19)" fill="#231f20"/><path d="M116,267.06a3.27,3.27,0,0,1-.72,2.25,2.54,2.54,0,0,1-2,.81,2.65,2.65,0,0,1-1.41-.37,2.46,2.46,0,0,1-.94-1.07,3.72,3.72,0,0,1-.33-1.62,3.24,3.24,0,0,1,.72-2.24,2.55,2.55,0,0,1,2-.8,2.49,2.49,0,0,1,2,.82A3.26,3.26,0,0,1,116,267.06Zm-4.48,0a2.8,2.8,0,0,0,.45,1.72,1.55,1.55,0,0,0,1.33.59,1.57,1.57,0,0,0,1.33-.59,2.78,2.78,0,0,0,.45-1.72,2.74,2.74,0,0,0-.45-1.7,1.61,1.61,0,0,0-1.34-.59,1.56,1.56,0,0,0-1.32.58A2.73,2.73,0,0,0,111.51,267.06Z" transform="translate(-0.84 -3.19)" fill="#231f20"/><path d="M120.24,264a3.84,3.84,0,0,1,.71.06l-.13.83a3.28,3.28,0,0,0-.64-.08,1.54,1.54,0,0,0-1.22.58,2.1,2.1,0,0,0-.51,1.44V270h-.89v-5.88h.73l.11,1.08h0a2.61,2.61,0,0,1,.79-.88A1.74,1.74,0,0,1,120.24,264Z" transform="translate(-0.84 -3.19)" fill="#231f20"/><path d="M130,270l-1-2.5h-3.15l-1,2.5H124l3.1-7.88h.77l3.09,7.88Zm-1.27-3.32-.91-2.43c-.12-.31-.24-.69-.37-1.13a9.69,9.69,0,0,1-.33,1.13l-.93,2.43Z" transform="translate(-0.84 -3.19)" fill="#231f20"/><path d="M135.36,262.86a2.58,2.58,0,0,0-2,.86,3.5,3.5,0,0,0-.75,2.36,3.57,3.57,0,0,0,.72,2.39,2.57,2.57,0,0,0,2.06.84,7,7,0,0,0,1.88-.3v.8a5.68,5.68,0,0,1-2,.31,3.43,3.43,0,0,1-2.68-1.05,4.4,4.4,0,0,1-.94-3,4.63,4.63,0,0,1,.46-2.12,3.19,3.19,0,0,1,1.31-1.41,3.94,3.94,0,0,1,2-.49,4.84,4.84,0,0,1,2.16.45l-.38.78A4.18,4.18,0,0,0,135.36,262.86Z" transform="translate(-0.84 -3.19)" fill="#231f20"/><path d="M141.36,270h-.92v-7H138v-.81h5.88V263h-2.48Z" transform="translate(-0.84 -3.19)" fill="#231f20"/><path d="M150.1,270.12a2.5,2.5,0,0,1-2-.79,3.2,3.2,0,0,1-.7-2.22,3.37,3.37,0,0,1,.71-2.29,2.59,2.59,0,0,1,2-.8,4.09,4.09,0,0,1,.85.09,2.86,2.86,0,0,1,.66.21l-.27.76a5.35,5.35,0,0,0-.64-.2,3,3,0,0,0-.62-.07q-1.8,0-1.8,2.28a2.75,2.75,0,0,0,.44,1.67,1.52,1.52,0,0,0,1.3.58,4,4,0,0,0,1.51-.32v.79A3.16,3.16,0,0,1,150.1,270.12Z" transform="translate(-0.84 -3.19)" fill="#231f20"/><path d="M158.07,267.06a3.27,3.27,0,0,1-.73,2.25,2.54,2.54,0,0,1-2,.81,2.59,2.59,0,0,1-1.4-.37,2.42,2.42,0,0,1-.95-1.07,3.72,3.72,0,0,1-.33-1.62,3.24,3.24,0,0,1,.72-2.24,2.55,2.55,0,0,1,2-.8,2.49,2.49,0,0,1,2,.82A3.26,3.26,0,0,1,158.07,267.06Zm-4.49,0a2.8,2.8,0,0,0,.45,1.72,1.79,1.79,0,0,0,2.66,0,2.78,2.78,0,0,0,.45-1.72,2.74,2.74,0,0,0-.45-1.7,1.59,1.59,0,0,0-1.34-.59,1.56,1.56,0,0,0-1.32.58A2.73,2.73,0,0,0,153.58,267.06Z" transform="translate(-0.84 -3.19)" fill="#231f20"/><path d="M160.52,270h-.89v-8.36h.89Z" transform="translate(-0.84 -3.19)" fill="#231f20"/><path d="M163.3,270h-.89v-8.36h.89Z" transform="translate(-0.84 -3.19)" fill="#231f20"/><path d="M167.68,270.12a2.7,2.7,0,0,1-2.06-.8,3.08,3.08,0,0,1-.76-2.2,3.38,3.38,0,0,1,.71-2.26,2.31,2.31,0,0,1,1.88-.84,2.2,2.2,0,0,1,1.75.73,2.77,2.77,0,0,1,.64,1.92v.56h-4.05a2.33,2.33,0,0,0,.52,1.57,1.81,1.81,0,0,0,1.4.54,4.64,4.64,0,0,0,1.88-.4v.8a5.1,5.1,0,0,1-.89.29A5,5,0,0,1,167.68,270.12Zm-.24-5.36a1.46,1.46,0,0,0-1.13.47,2.1,2.1,0,0,0-.5,1.27h3.08a2,2,0,0,0-.38-1.29A1.32,1.32,0,0,0,167.44,264.76Z" transform="translate(-0.84 -3.19)" fill="#231f20"/><path d="M176.18,264.13v.56l-1.09.13a1.86,1.86,0,0,1,.27.49,1.83,1.83,0,0,1,.12.68,1.74,1.74,0,0,1-.59,1.38,2.37,2.37,0,0,1-1.62.52,2.67,2.67,0,0,1-.5,0,.87.87,0,0,0-.57.75.39.39,0,0,0,.2.36,1.39,1.39,0,0,0,.68.12h1a2.31,2.31,0,0,1,1.46.4,1.39,1.39,0,0,1,.52,1.17,1.66,1.66,0,0,1-.79,1.49,4.2,4.2,0,0,1-2.29.51,3.12,3.12,0,0,1-1.78-.43,1.39,1.39,0,0,1-.62-1.21,1.35,1.35,0,0,1,.34-.93,1.73,1.73,0,0,1,1-.53.9.9,0,0,1-.38-.32.84.84,0,0,1-.15-.5,1,1,0,0,1,.17-.56,1.72,1.72,0,0,1,.54-.47,1.57,1.57,0,0,1-.74-.64,1.88,1.88,0,0,1-.29-1,1.9,1.9,0,0,1,.58-1.49,2.36,2.36,0,0,1,1.64-.52,2.76,2.76,0,0,1,.84.11ZM171.49,271a.78.78,0,0,0,.4.72,2.17,2.17,0,0,0,1.16.25,3.28,3.28,0,0,0,1.66-.33,1,1,0,0,0,.54-.91.73.73,0,0,0-.3-.67,2.31,2.31,0,0,0-1.11-.18h-1.07a1.36,1.36,0,0,0-.94.29A1,1,0,0,0,171.49,271Zm.48-5a1.2,1.2,0,0,0,.35.93,1.35,1.35,0,0,0,1,.32A1.14,1.14,0,0,0,174.6,266a1.17,1.17,0,0,0-1.32-1.32,1.3,1.3,0,0,0-1,.34A1.33,1.33,0,0,0,172,266Z" transform="translate(-0.84 -3.19)" fill="#231f20"/><path d="M179.88,270.12a2.7,2.7,0,0,1-2.06-.8,3,3,0,0,1-.76-2.2,3.43,3.43,0,0,1,.7-2.26,2.34,2.34,0,0,1,1.89-.84,2.22,2.22,0,0,1,1.75.73,2.77,2.77,0,0,1,.64,1.92v.56h-4a2.33,2.33,0,0,0,.52,1.57,1.81,1.81,0,0,0,1.4.54,4.68,4.68,0,0,0,1.88-.4v.8a5.1,5.1,0,0,1-.89.29A5,5,0,0,1,179.88,270.12Zm-.24-5.36a1.44,1.44,0,0,0-1.13.47,2,2,0,0,0-.5,1.27h3.08a2,2,0,0,0-.38-1.29A1.32,1.32,0,0,0,179.64,264.76Z" transform="translate(-0.84 -3.19)" fill="#231f20"/><path d="M53.76,284.12a2.7,2.7,0,0,1-2.06-.8,3.08,3.08,0,0,1-.76-2.2,3.38,3.38,0,0,1,.71-2.26,2.31,2.31,0,0,1,1.88-.84,2.2,2.2,0,0,1,1.75.73,2.77,2.77,0,0,1,.64,1.92v.56H51.87a2.33,2.33,0,0,0,.52,1.57,1.81,1.81,0,0,0,1.4.54,4.64,4.64,0,0,0,1.88-.4v.8a5.1,5.1,0,0,1-.89.29A5,5,0,0,1,53.76,284.12Zm-.24-5.36a1.44,1.44,0,0,0-1.13.47,2.1,2.1,0,0,0-.5,1.27H55a2,2,0,0,0-.38-1.29A1.32,1.32,0,0,0,53.52,278.76Z" transform="translate(-0.84 -3.19)" fill="#231f20"/><path d="M61.47,284V280.2a1.52,1.52,0,0,0-.33-1.07,1.3,1.3,0,0,0-1-.35,1.68,1.68,0,0,0-1.35.49,2.53,2.53,0,0,0-.43,1.65V284h-.9v-5.88h.73l.14.8h0a1.8,1.8,0,0,1,.77-.67,2.44,2.44,0,0,1,1.1-.24,2.24,2.24,0,0,1,1.6.51,2.21,2.21,0,0,1,.53,1.64V284Z" transform="translate(-0.84 -3.19)" fill="#231f20"/><path d="M66.1,283.38a3.29,3.29,0,0,0,.45,0l.35-.07V284a1.9,1.9,0,0,1-.42.11,3.36,3.36,0,0,1-.51.05q-1.71,0-1.71-1.8v-3.5h-.84v-.43l.84-.37.38-1.26h.51v1.37h1.71v.69H65.15v3.46a1.24,1.24,0,0,0,.25.82A.88.88,0,0,0,66.1,283.38Z" transform="translate(-0.84 -3.19)" fill="#231f20"/><path d="M70.76,278a3.76,3.76,0,0,1,.71.06l-.13.83a3.19,3.19,0,0,0-.64-.08,1.55,1.55,0,0,0-1.22.58,2.1,2.1,0,0,0-.51,1.44V284h-.89v-5.88h.73l.11,1.08h0a2.61,2.61,0,0,1,.79-.88A1.77,1.77,0,0,1,70.76,278Z" transform="translate(-0.84 -3.19)" fill="#231f20"/><path d="M76.19,284l-.18-.84h0a2.45,2.45,0,0,1-.88.75,2.69,2.69,0,0,1-1.09.2,2,2,0,0,1-1.37-.45,1.62,1.62,0,0,1-.5-1.29c0-1.18,1-1.81,2.85-1.86l1,0v-.36a1.51,1.51,0,0,0-.3-1,1.22,1.22,0,0,0-1-.33,3.92,3.92,0,0,0-1.67.45l-.27-.68a4.69,4.69,0,0,1,.95-.37,4.12,4.12,0,0,1,1-.13,2.21,2.21,0,0,1,1.56.47,1.93,1.93,0,0,1,.51,1.49v4Zm-2-.63a1.81,1.81,0,0,0,1.31-.45,1.69,1.69,0,0,0,.48-1.28v-.53l-.89,0a3.42,3.42,0,0,0-1.54.33,1,1,0,0,0-.47.91.91.91,0,0,0,.3.74A1.17,1.17,0,0,0,74.17,283.38Z" transform="translate(-0.84 -3.19)" fill="#231f20"/><path d="M82.71,284V280.2a1.52,1.52,0,0,0-.32-1.07,1.33,1.33,0,0,0-1-.35,1.69,1.69,0,0,0-1.35.49,2.53,2.53,0,0,0-.43,1.65V284h-.89v-5.88h.72l.15.8h0a1.8,1.8,0,0,1,.77-.67,2.47,2.47,0,0,1,1.1-.24,2.24,2.24,0,0,1,1.6.51,2.17,2.17,0,0,1,.54,1.64V284Z" transform="translate(-0.84 -3.19)" fill="#231f20"/><path d="M87.79,284.12a2.5,2.5,0,0,1-2-.79,3.2,3.2,0,0,1-.7-2.22,3.37,3.37,0,0,1,.71-2.29,2.59,2.59,0,0,1,2-.8,4.09,4.09,0,0,1,.85.09,2.86,2.86,0,0,1,.66.21l-.27.76a5.35,5.35,0,0,0-.64-.2,3,3,0,0,0-.62-.07c-1.2,0-1.8.76-1.8,2.29a2.73,2.73,0,0,0,.44,1.66,1.52,1.52,0,0,0,1.3.58,4,4,0,0,0,1.51-.32v.79A3.16,3.16,0,0,1,87.79,284.12Z" transform="translate(-0.84 -3.19)" fill="#231f20"/><path d="M93.16,284.12a2.7,2.7,0,0,1-2.06-.8,3.07,3.07,0,0,1-.75-2.2,3.38,3.38,0,0,1,.7-2.26,2.32,2.32,0,0,1,1.88-.84,2.2,2.2,0,0,1,1.75.73,2.77,2.77,0,0,1,.65,1.92v.56H91.27a2.33,2.33,0,0,0,.52,1.57,1.82,1.82,0,0,0,1.4.54,4.64,4.64,0,0,0,1.88-.4v.8a5.1,5.1,0,0,1-.89.29A5,5,0,0,1,93.16,284.12Zm-.24-5.36a1.46,1.46,0,0,0-1.13.47,2.1,2.1,0,0,0-.5,1.27h3.08a2,2,0,0,0-.38-1.29A1.31,1.31,0,0,0,92.92,278.76Z" transform="translate(-0.84 -3.19)" fill="#231f20"/><path d="M102.19,284.12a2.7,2.7,0,0,1-2.06-.8,3.07,3.07,0,0,1-.75-2.2,3.38,3.38,0,0,1,.7-2.26A2.31,2.31,0,0,1,102,278a2.2,2.2,0,0,1,1.75.73,2.77,2.77,0,0,1,.64,1.92v.56h-4a2.33,2.33,0,0,0,.52,1.57,1.81,1.81,0,0,0,1.4.54,4.64,4.64,0,0,0,1.88-.4v.8a5.1,5.1,0,0,1-.89.29A5,5,0,0,1,102.19,284.12Zm-.24-5.36a1.46,1.46,0,0,0-1.13.47,2.1,2.1,0,0,0-.5,1.27h3.08a2,2,0,0,0-.38-1.29A1.32,1.32,0,0,0,102,278.76Z" transform="translate(-0.84 -3.19)" fill="#231f20"/><path d="M107.29,281l-2-2.87h1l1.55,2.25,1.55-2.25h1L108.32,281l2.15,3h-1l-1.65-2.38L106.15,284h-1Z" transform="translate(-0.84 -3.19)" fill="#231f20"/><path d="M115.26,284l-.18-.84h0a2.53,2.53,0,0,1-.88.75,2.69,2.69,0,0,1-1.09.2,2,2,0,0,1-1.38-.45,1.65,1.65,0,0,1-.49-1.29c0-1.18,1-1.81,2.85-1.86l1,0v-.36a1.51,1.51,0,0,0-.3-1,1.23,1.23,0,0,0-1-.33,3.92,3.92,0,0,0-1.67.45l-.27-.68a4.69,4.69,0,0,1,1-.37,4.12,4.12,0,0,1,1-.13,2.21,2.21,0,0,1,1.56.47,1.93,1.93,0,0,1,.51,1.49v4Zm-2-.63a1.83,1.83,0,0,0,1.31-.45,1.69,1.69,0,0,0,.48-1.28v-.53l-.89,0a3.42,3.42,0,0,0-1.54.33,1,1,0,0,0-.47.91.91.91,0,0,0,.3.74A1.17,1.17,0,0,0,113.24,283.38Z" transform="translate(-0.84 -3.19)" fill="#231f20"/><path d="M125.26,284v-3.83a1.57,1.57,0,0,0-.3-1.05,1.15,1.15,0,0,0-.94-.35,1.51,1.51,0,0,0-1.23.47,2.31,2.31,0,0,0-.39,1.47V284h-.9v-3.83a1.57,1.57,0,0,0-.3-1.05,1.15,1.15,0,0,0-.94-.35,1.42,1.42,0,0,0-1.22.5,2.69,2.69,0,0,0-.39,1.64V284h-.89v-5.88h.72l.15.8h0a1.7,1.7,0,0,1,.71-.67,2.2,2.2,0,0,1,1-.24,1.74,1.74,0,0,1,1.8,1h.05a1.79,1.79,0,0,1,.76-.73,2.34,2.34,0,0,1,1.14-.27,2,2,0,0,1,1.49.51,2.3,2.3,0,0,1,.5,1.64V284Z" transform="translate(-0.84 -3.19)" fill="#231f20"/><path d="M131.78,282.41a1.46,1.46,0,0,1-.61,1.26,2.84,2.84,0,0,1-1.72.45,3.66,3.66,0,0,1-1.82-.37v-.83a4.28,4.28,0,0,0,.91.34,3.91,3.91,0,0,0,.94.12,2.11,2.11,0,0,0,1.07-.22.74.74,0,0,0,.38-.68.75.75,0,0,0-.3-.59,4.82,4.82,0,0,0-1.17-.57,6.92,6.92,0,0,1-1.16-.54,1.52,1.52,0,0,1-.52-.52,1.36,1.36,0,0,1-.17-.69,1.34,1.34,0,0,1,.59-1.14,2.76,2.76,0,0,1,1.6-.41,4.8,4.8,0,0,1,1.86.38l-.31.73a4.41,4.41,0,0,0-1.61-.37,1.91,1.91,0,0,0-1,.2.64.64,0,0,0-.32.55.65.65,0,0,0,.12.4,1.19,1.19,0,0,0,.39.32,8.47,8.47,0,0,0,1,.44,4,4,0,0,1,1.42.76A1.39,1.39,0,0,1,131.78,282.41Z" transform="translate(-0.84 -3.19)" fill="#231f20"/><line x1="307.5" y1="255.47" x2="320.57" y2="255.47" fill="none" stroke="#231f20" stroke-miterlimit="10" stroke-width="0.5"/><line x1="518.08" y1="255.47" x2="531.88" y2="255.47" fill="none" stroke="#231f20" stroke-miterlimit="10" stroke-width="0.5"/><line x1="324.03" y1="255.47" x2="514.68" y2="255.47" fill="none" stroke="#231f20" stroke-miterlimit="10" stroke-width="0.5"/><line x1="307.74" y1="255.33" x2="307.74" y2="257.73" fill="none" stroke="#231f20" stroke-miterlimit="10" stroke-width="0.5"/><line x1="531.74" y1="255.33" x2="531.74" y2="257.73" fill="none" stroke="#231f20" stroke-miterlimit="10" stroke-width="0.5"/><line x1="499.74" y1="255.33" x2="499.74" y2="257.73" fill="none" stroke="#231f20" stroke-miterlimit="10" stroke-width="0.5"/><line x1="467.74" y1="255.33" x2="467.74" y2="257.73" fill="none" stroke="#231f20" stroke-miterlimit="10" stroke-width="0.5"/><line x1="435.74" y1="255.33" x2="435.74" y2="257.73" fill="none" stroke="#231f20" stroke-miterlimit="10" stroke-width="0.5"/><line x1="403.74" y1="255.33" x2="403.74" y2="257.73" fill="none" stroke="#231f20" stroke-miterlimit="10" stroke-width="0.5"/><line x1="371.74" y1="255.33" x2="371.74" y2="257.73" fill="none" stroke="#231f20" stroke-miterlimit="10" stroke-width="0.5"/><line x1="339.74" y1="255.33" x2="339.74" y2="257.73" fill="none" stroke="#231f20" stroke-miterlimit="10" stroke-width="0.5"/><path d="M310.92,266.62a5.7,5.7,0,0,1-.65,3,2.36,2.36,0,0,1-3.89,0,5.64,5.64,0,0,1-.66-3,5.76,5.76,0,0,1,.64-3,2.36,2.36,0,0,1,3.89,0A5.6,5.6,0,0,1,310.92,266.62Zm-4.3,0a5.77,5.77,0,0,0,.41,2.5,1.44,1.44,0,0,0,2.57,0,7.89,7.89,0,0,0,0-5,1.44,1.44,0,0,0-2.57,0A5.69,5.69,0,0,0,306.62,266.62Z" transform="translate(-0.84 -3.19)" fill="#58595b"/><path d="M337.81,270.56h-5.16v-.77l2.07-2.08a18.35,18.35,0,0,0,1.25-1.36,3.42,3.42,0,0,0,.45-.8,2.27,2.27,0,0,0,.15-.83,1.35,1.35,0,0,0-.38-1,1.5,1.5,0,0,0-1.06-.36,2.6,2.6,0,0,0-.93.16,3.69,3.69,0,0,0-1,.58l-.48-.6a3.6,3.6,0,0,1,2.37-.91,2.49,2.49,0,0,1,1.73.57,1.94,1.94,0,0,1,.63,1.52,3,3,0,0,1-.42,1.48,9.35,9.35,0,0,1-1.57,1.85l-1.72,1.68v0h4Z" transform="translate(-0.84 -3.19)" fill="#58595b"/><path d="M341.4,265.76a2.91,2.91,0,0,1,2,.62,2.12,2.12,0,0,1,.71,1.68,2.42,2.42,0,0,1-.78,1.91,3,3,0,0,1-2.14.7,3.94,3.94,0,0,1-2-.43v-.86a3.06,3.06,0,0,0,.93.38,4.74,4.74,0,0,0,1.1.14,2.19,2.19,0,0,0,1.47-.45,1.58,1.58,0,0,0,.53-1.29c0-1.09-.67-1.64-2-1.64a7.47,7.47,0,0,0-1.36.16l-.46-.3.29-3.67h3.91v.82h-3.14l-.2,2.36A5.71,5.71,0,0,1,341.4,265.76Z" transform="translate(-0.84 -3.19)" fill="#58595b"/><path d="M350.44,266.62a5.7,5.7,0,0,1-.65,3,2.36,2.36,0,0,1-3.89,0,7.39,7.39,0,0,1,0-6.06,2.36,2.36,0,0,1,3.89,0A5.6,5.6,0,0,1,350.44,266.62Zm-4.3,0a5.74,5.74,0,0,0,.41,2.5,1.33,1.33,0,0,0,1.28.78,1.35,1.35,0,0,0,1.29-.79,7.92,7.92,0,0,0,0-5,1.35,1.35,0,0,0-1.29-.78,1.32,1.32,0,0,0-1.28.77A5.69,5.69,0,0,0,346.14,266.62Z" transform="translate(-0.84 -3.19)" fill="#58595b"/><path d="M369.55,270.56h-5.16v-.77l2.07-2.08a18.35,18.35,0,0,0,1.25-1.36,3.42,3.42,0,0,0,.45-.8,2.27,2.27,0,0,0,.15-.83,1.32,1.32,0,0,0-.39-1,1.45,1.45,0,0,0-1.05-.36,2.6,2.6,0,0,0-.93.16,3.89,3.89,0,0,0-1,.58l-.47-.6a3.6,3.6,0,0,1,2.37-.91,2.49,2.49,0,0,1,1.73.57,1.94,1.94,0,0,1,.63,1.52,3,3,0,0,1-.42,1.48,9.35,9.35,0,0,1-1.57,1.85l-1.72,1.68v0h4Z" transform="translate(-0.84 -3.19)" fill="#58595b"/><path d="M370.77,267.2a5.55,5.55,0,0,1,.9-3.46,3.19,3.19,0,0,1,2.66-1.15,3.41,3.41,0,0,1,1,.11v.76a3.07,3.07,0,0,0-1-.13,2.38,2.38,0,0,0-1.93.79,4.07,4.07,0,0,0-.73,2.47h.07a2,2,0,0,1,1.87-.92,2.23,2.23,0,0,1,1.67.63,2.45,2.45,0,0,1,.6,1.74,2.66,2.66,0,0,1-.66,1.92,2.39,2.39,0,0,1-1.81.71,2.32,2.32,0,0,1-1.93-.92A4,4,0,0,1,370.77,267.2Zm2.64,2.71a1.48,1.48,0,0,0,1.18-.48A2.06,2.06,0,0,0,375,268a1.81,1.81,0,0,0-.39-1.23,1.49,1.49,0,0,0-1.17-.44,2,2,0,0,0-.89.2,1.63,1.63,0,0,0-.64.55,1.24,1.24,0,0,0-.24.72,2.54,2.54,0,0,0,.22,1,1.84,1.84,0,0,0,.61.76A1.48,1.48,0,0,0,373.41,269.91Z" transform="translate(-0.84 -3.19)" fill="#58595b"/><path d="M382.17,266.62a5.71,5.71,0,0,1-.64,3,2.36,2.36,0,0,1-3.89,0,7.39,7.39,0,0,1,0-6.06,2.13,2.13,0,0,1,1.95-1,2.16,2.16,0,0,1,1.94,1A5.61,5.61,0,0,1,382.17,266.62Zm-4.29,0a5.74,5.74,0,0,0,.41,2.5,1.33,1.33,0,0,0,1.28.78,1.36,1.36,0,0,0,1.29-.79,7.92,7.92,0,0,0,0-5,1.36,1.36,0,0,0-1.29-.78,1.32,1.32,0,0,0-1.28.77A5.69,5.69,0,0,0,377.88,266.62Z" transform="translate(-0.84 -3.19)" fill="#58595b"/><path d="M401.69,270.56h-5.16v-.77l2.07-2.08a16.29,16.29,0,0,0,1.25-1.36,3.42,3.42,0,0,0,.45-.8,2.27,2.27,0,0,0,.15-.83,1.35,1.35,0,0,0-.38-1,1.5,1.5,0,0,0-1.06-.36,2.6,2.6,0,0,0-.93.16,3.69,3.69,0,0,0-1,.58l-.48-.6a3.62,3.62,0,0,1,2.37-.91,2.49,2.49,0,0,1,1.73.57,1.94,1.94,0,0,1,.63,1.52,3,3,0,0,1-.42,1.48,9.35,9.35,0,0,1-1.57,1.85l-1.72,1.68v0h4Z" transform="translate(-0.84 -3.19)" fill="#58595b"/><path d="M403.81,270.56l3.26-7h-4.28v-.82H408v.71l-3.21,7.14Z" transform="translate(-0.84 -3.19)" fill="#58595b"/><path d="M414.31,266.62a5.71,5.71,0,0,1-.64,3,2.36,2.36,0,0,1-3.89,0,7.39,7.39,0,0,1,0-6.06,2.36,2.36,0,0,1,3.89,0A5.61,5.61,0,0,1,414.31,266.62Zm-4.29,0a5.74,5.74,0,0,0,.41,2.5,1.33,1.33,0,0,0,1.28.78,1.36,1.36,0,0,0,1.29-.79,7.92,7.92,0,0,0,0-5,1.36,1.36,0,0,0-1.29-.78,1.32,1.32,0,0,0-1.28.77A5.69,5.69,0,0,0,410,266.62Z" transform="translate(-0.84 -3.19)" fill="#58595b"/><path d="M432.64,270.56h-5.17v-.77l2.07-2.08a16.29,16.29,0,0,0,1.25-1.36,3.42,3.42,0,0,0,.45-.8,2.27,2.27,0,0,0,.15-.83,1.35,1.35,0,0,0-.38-1,1.5,1.5,0,0,0-1.06-.36,2.6,2.6,0,0,0-.93.16,3.86,3.86,0,0,0-1,.58l-.48-.6a3.62,3.62,0,0,1,2.37-.91,2.47,2.47,0,0,1,1.73.57,1.94,1.94,0,0,1,.63,1.52,3,3,0,0,1-.42,1.48,9.35,9.35,0,0,1-1.57,1.85l-1.71,1.68v0h4Z" transform="translate(-0.84 -3.19)" fill="#58595b"/><path d="M436.36,262.59a2.65,2.65,0,0,1,1.7.5,1.68,1.68,0,0,1,.63,1.38,1.72,1.72,0,0,1-.36,1.06,3.12,3.12,0,0,1-1.15.87,4,4,0,0,1,1.36,1,1.81,1.81,0,0,1,.41,1.16,1.94,1.94,0,0,1-.69,1.56,2.76,2.76,0,0,1-1.87.59,3,3,0,0,1-1.93-.55,1.92,1.92,0,0,1-.68-1.57,2.33,2.33,0,0,1,1.65-2.09,3.11,3.11,0,0,1-1.07-.91,2,2,0,0,1-.32-1.09,1.66,1.66,0,0,1,.63-1.36A2.62,2.62,0,0,1,436.36,262.59Zm-1.7,6a1.2,1.2,0,0,0,.45,1,2,2,0,0,0,1.26.36,1.83,1.83,0,0,0,1.25-.38,1.26,1.26,0,0,0,.44-1,1.28,1.28,0,0,0-.41-.92,4.22,4.22,0,0,0-1.47-.79,3.19,3.19,0,0,0-1.16.76A1.48,1.48,0,0,0,434.66,268.58Zm1.69-5.26a1.59,1.59,0,0,0-1.05.32,1.06,1.06,0,0,0-.38.86,1.24,1.24,0,0,0,.31.85,3.54,3.54,0,0,0,1.17.71,3,3,0,0,0,1.09-.69,1.27,1.27,0,0,0,.32-.87,1.05,1.05,0,0,0-.39-.86A1.59,1.59,0,0,0,436.35,263.32Z" transform="translate(-0.84 -3.19)" fill="#58595b"/><path d="M445.26,266.62a5.7,5.7,0,0,1-.65,3,2.36,2.36,0,0,1-3.89,0,7.39,7.39,0,0,1,0-6.06,2.36,2.36,0,0,1,3.89,0A5.6,5.6,0,0,1,445.26,266.62Zm-4.3,0a5.74,5.74,0,0,0,.41,2.5,1.44,1.44,0,0,0,2.57,0,7.92,7.92,0,0,0,0-5,1.45,1.45,0,0,0-2.57,0A5.69,5.69,0,0,0,441,266.62Z" transform="translate(-0.84 -3.19)" fill="#58595b"/><path d="M465.58,270.56h-5.17v-.77l2.07-2.08a16.29,16.29,0,0,0,1.25-1.36,3.42,3.42,0,0,0,.45-.8,2.27,2.27,0,0,0,.15-.83,1.35,1.35,0,0,0-.38-1,1.5,1.5,0,0,0-1.06-.36,2.64,2.64,0,0,0-.93.16,3.86,3.86,0,0,0-1,.58l-.47-.6a3.58,3.58,0,0,1,2.36-.91,2.46,2.46,0,0,1,1.73.57,1.94,1.94,0,0,1,.63,1.52,3,3,0,0,1-.42,1.48,9.59,9.59,0,0,1-1.56,1.85l-1.72,1.68v0h4Z" transform="translate(-0.84 -3.19)" fill="#58595b"/><path d="M471.87,266.06q0,4.6-3.57,4.61a3.65,3.65,0,0,1-1-.11v-.77a3.26,3.26,0,0,0,1,.14,2.36,2.36,0,0,0,1.94-.8,4,4,0,0,0,.72-2.44h-.06a2,2,0,0,1-.79.68,2.57,2.57,0,0,1-1.1.23,2.23,2.23,0,0,1-1.65-.62,2.38,2.38,0,0,1-.61-1.74,2.67,2.67,0,0,1,.68-1.94,2.62,2.62,0,0,1,3.2-.3,2.62,2.62,0,0,1,.92,1.2A4.79,4.79,0,0,1,471.87,266.06Zm-2.65-2.7a1.44,1.44,0,0,0-1.18.49,2.06,2.06,0,0,0-.42,1.37,1.82,1.82,0,0,0,.38,1.22,1.47,1.47,0,0,0,1.18.44,2.11,2.11,0,0,0,.9-.19,1.75,1.75,0,0,0,.65-.55,1.31,1.31,0,0,0,.23-.72,2.43,2.43,0,0,0-.22-1,1.75,1.75,0,0,0-.61-.75A1.6,1.6,0,0,0,469.22,263.36Z" transform="translate(-0.84 -3.19)" fill="#58595b"/><path d="M478.2,266.62a5.7,5.7,0,0,1-.65,3,2.36,2.36,0,0,1-3.89,0,5.64,5.64,0,0,1-.66-3,5.76,5.76,0,0,1,.64-3,2.36,2.36,0,0,1,3.89,0A5.51,5.51,0,0,1,478.2,266.62Zm-4.29,0a5.77,5.77,0,0,0,.4,2.5,1.44,1.44,0,0,0,2.57,0,7.92,7.92,0,0,0,0-5,1.45,1.45,0,0,0-2.57,0A5.72,5.72,0,0,0,473.91,266.62Z" transform="translate(-0.84 -3.19)" fill="#58595b"/><path d="M497.06,264.55a1.79,1.79,0,0,1-.41,1.23,2,2,0,0,1-1.16.64v.05a2.11,2.11,0,0,1,1.36.6,1.77,1.77,0,0,1,.45,1.26,2.07,2.07,0,0,1-.76,1.73,3.38,3.38,0,0,1-2.15.61,6.15,6.15,0,0,1-1.1-.1,3.44,3.44,0,0,1-1-.33v-.85a4.72,4.72,0,0,0,1.05.39,4.59,4.59,0,0,0,1.07.13c1.31,0,2-.53,2-1.6s-.73-1.43-2.18-1.43h-.75v-.76h.76a2.26,2.26,0,0,0,1.42-.41,1.35,1.35,0,0,0,.52-1.12,1.12,1.12,0,0,0-.39-.91,1.52,1.52,0,0,0-1-.32,2.89,2.89,0,0,0-.94.14,4,4,0,0,0-1,.51l-.44-.6a3.77,3.77,0,0,1,1.08-.6,4,4,0,0,1,1.29-.22,2.59,2.59,0,0,1,1.73.53A1.78,1.78,0,0,1,497.06,264.55Z" transform="translate(-0.84 -3.19)" fill="#58595b"/><path d="M503.5,266.62a5.82,5.82,0,0,1-.63,3,2.25,2.25,0,0,1-3.77,0,7.6,7.6,0,0,1,0-6.06,2.06,2.06,0,0,1,1.89-1,2.08,2.08,0,0,1,1.88,1A5.71,5.71,0,0,1,503.5,266.62Zm-4.17,0a6,6,0,0,0,.39,2.5,1.39,1.39,0,0,0,2.5,0,8.11,8.11,0,0,0,0-5,1.4,1.4,0,0,0-2.5,0A5.9,5.9,0,0,0,499.33,266.62Z" transform="translate(-0.84 -3.19)" fill="#58595b"/><path d="M509.6,266.62a5.83,5.83,0,0,1-.62,3,2.26,2.26,0,0,1-3.78,0,5.75,5.75,0,0,1-.64-3,5.88,5.88,0,0,1,.62-3,2.07,2.07,0,0,1,1.89-1,2.09,2.09,0,0,1,1.89,1A5.72,5.72,0,0,1,509.6,266.62Zm-4.16,0a6,6,0,0,0,.39,2.5,1.3,1.3,0,0,0,1.24.78,1.32,1.32,0,0,0,1.26-.79,8.11,8.11,0,0,0,0-5,1.31,1.31,0,0,0-1.26-.78,1.29,1.29,0,0,0-1.24.77A5.9,5.9,0,0,0,505.44,266.62Z" transform="translate(-0.84 -3.19)" fill="#58595b"/><path d="M526.42,265.76a2.89,2.89,0,0,1,2,.62,2.09,2.09,0,0,1,.71,1.68,2.45,2.45,0,0,1-.77,1.91,3.08,3.08,0,0,1-2.14.7,4,4,0,0,1-2-.43v-.86a3.06,3.06,0,0,0,.93.38,4.75,4.75,0,0,0,1.11.14,2.19,2.19,0,0,0,1.47-.45,1.61,1.61,0,0,0,.52-1.29c0-1.09-.67-1.64-2-1.64a7.47,7.47,0,0,0-1.36.16l-.46-.3.29-3.67h3.91v.82h-3.14l-.2,2.36A5.71,5.71,0,0,1,526.42,265.76Z" transform="translate(-0.84 -3.19)" fill="#58595b"/><path d="M535.46,266.62a5.7,5.7,0,0,1-.65,3,2.36,2.36,0,0,1-3.89,0,5.64,5.64,0,0,1-.66-3,5.76,5.76,0,0,1,.64-3,2.36,2.36,0,0,1,3.89,0A5.51,5.51,0,0,1,535.46,266.62Zm-4.29,0a5.77,5.77,0,0,0,.4,2.5,1.44,1.44,0,0,0,2.57,0,7.92,7.92,0,0,0,0-5,1.45,1.45,0,0,0-2.57,0A5.72,5.72,0,0,0,531.17,266.62Z" transform="translate(-0.84 -3.19)" fill="#58595b"/><path d="M541.75,266.62a5.7,5.7,0,0,1-.65,3,2.36,2.36,0,0,1-3.89,0,5.64,5.64,0,0,1-.66-3,5.76,5.76,0,0,1,.64-3,2.36,2.36,0,0,1,3.89,0A5.6,5.6,0,0,1,541.75,266.62Zm-4.3,0a5.74,5.74,0,0,0,.41,2.5,1.44,1.44,0,0,0,2.57,0,7.92,7.92,0,0,0,0-5,1.45,1.45,0,0,0-2.57,0A5.69,5.69,0,0,0,537.45,266.62Z" transform="translate(-0.84 -3.19)" fill="#58595b"/><line x1="325.98" y1="257.35" x2="321.99" y2="253.43" fill="#231f20" stroke="#231f20" stroke-width="0.5"/><line x1="322.81" y1="257.35" x2="318.83" y2="253.43" fill="#231f20" stroke="#231f20" stroke-width="0.5"/><line x1="519.98" y1="257.35" x2="515.99" y2="253.43" fill="#231f20" stroke="#231f20" stroke-width="0.5"/><line x1="516.81" y1="257.35" x2="512.83" y2="253.43" fill="#231f20" stroke="#231f20" stroke-width="0.5"/><path d="M550.54,144.71a5.53,5.53,0,0,1,4,1.39,5,5,0,0,1,1.47,3.82,5.55,5.55,0,0,1-1.77,4.42,7.48,7.48,0,0,1-5.07,1.55,9.86,9.86,0,0,1-4.61-.93v-3.13a9,9,0,0,0,2.15.8A9.44,9.44,0,0,0,549,153c2.22,0,3.32-.91,3.32-2.72s-1.14-2.59-3.43-2.59a8.66,8.66,0,0,0-1.37.12,10.38,10.38,0,0,0-1.22.26l-1.44-.77.64-8.73h9.29v3.07h-6.11l-.32,3.36.41-.08A8.1,8.1,0,0,1,550.54,144.71Z" transform="translate(-0.84 -3.19)" fill="#231f20"/><path d="M557.4,153.17V151.7h3.15v1.47Z" transform="translate(-0.84 -3.19)" fill="#231f20"/><path d="M565.44,155.77a2.17,2.17,0,0,1-1.81-.84h-.09c.06.55.09.86.09.95v2.66h-1.79V149.1h1.46l.25.85h.08a2.07,2.07,0,0,1,1.86-1,2.11,2.11,0,0,1,1.81.9,4.1,4.1,0,0,1,.66,2.49,4.85,4.85,0,0,1-.31,1.82,2.54,2.54,0,0,1-.87,1.18A2.33,2.33,0,0,1,565.44,155.77Zm-.53-5.36a1.09,1.09,0,0,0-1,.41,2.29,2.29,0,0,0-.32,1.34v.19a2.78,2.78,0,0,0,.31,1.52,1.13,1.13,0,0,0,1,.45q1.2,0,1.2-2a2.8,2.8,0,0,0-.3-1.45A1,1,0,0,0,564.91,150.41Z" transform="translate(-0.84 -3.19)" fill="#231f20"/><path d="M575.39,152.37a3.53,3.53,0,0,1-.84,2.5,3.08,3.08,0,0,1-2.35.9,3.36,3.36,0,0,1-1.67-.41,2.78,2.78,0,0,1-1.11-1.19,4.11,4.11,0,0,1-.38-1.8,3.48,3.48,0,0,1,.84-2.5,3.07,3.07,0,0,1,2.35-.89,3.36,3.36,0,0,1,1.67.41,2.62,2.62,0,0,1,1.1,1.18A3.92,3.92,0,0,1,575.39,152.37Zm-4.53,0a2.81,2.81,0,0,0,.32,1.47,1.14,1.14,0,0,0,1,.49,1.12,1.12,0,0,0,1-.49,2.77,2.77,0,0,0,.31-1.47,2.71,2.71,0,0,0-.31-1.46,1.15,1.15,0,0,0-1-.49,1.14,1.14,0,0,0-1,.48A2.74,2.74,0,0,0,570.86,152.37Z" transform="translate(-0.84 -3.19)" fill="#231f20"/><path d="M576.79,147.41c0-.58.32-.87,1-.87s1,.29,1,.87a.87.87,0,0,1-.25.65,1,1,0,0,1-.73.23C577.11,148.29,576.79,148,576.79,147.41Zm1.86,8.24h-1.78V149.1h1.78Z" transform="translate(-0.84 -3.19)" fill="#231f20"/><path d="M586.58,155.65h-1.79v-3.82a1.92,1.92,0,0,0-.25-1.07.94.94,0,0,0-.81-.35,1.2,1.2,0,0,0-1.08.5,3.13,3.13,0,0,0-.33,1.66v3.08h-1.79V149.1h1.36l.24.84h.1a1.88,1.88,0,0,1,.83-.72,2.81,2.81,0,0,1,1.19-.24,2.25,2.25,0,0,1,1.73.62,2.44,2.44,0,0,1,.6,1.78Z" transform="translate(-0.84 -3.19)" fill="#231f20"/><path d="M591.18,154.35a3.79,3.79,0,0,0,1.12-.21v1.33a4,4,0,0,1-1.64.3,2,2,0,0,1-1.56-.54,2.35,2.35,0,0,1-.49-1.63v-3.16h-.86v-.75l1-.6.51-1.38h1.15v1.39h1.83v1.34H590.4v3.16a.69.69,0,0,0,.21.56A.8.8,0,0,0,591.18,154.35Z" transform="translate(-0.84 -3.19)" fill="#231f20"/><path d="M600.85,153.87a1.66,1.66,0,0,1-.64,1.41,3.2,3.2,0,0,1-1.92.48,6,6,0,0,1-1.12-.09,4.08,4.08,0,0,1-.86-.26v-1.35a6.19,6.19,0,0,0,1,.36,4.43,4.43,0,0,0,1,.14c.59,0,.89-.17.89-.51a.44.44,0,0,0-.12-.32,1.8,1.8,0,0,0-.41-.27c-.19-.1-.45-.22-.77-.36a4.39,4.39,0,0,1-1-.54,1.37,1.37,0,0,1-.47-.56,1.89,1.89,0,0,1-.15-.79,1.44,1.44,0,0,1,.62-1.24,3,3,0,0,1,1.76-.43,4.94,4.94,0,0,1,2.11.47l-.5,1.18a8.28,8.28,0,0,0-.84-.32,2.72,2.72,0,0,0-.8-.12q-.72,0-.72.39a.44.44,0,0,0,.23.38,5.93,5.93,0,0,0,1,.48,4.74,4.74,0,0,1,1,.53,1.74,1.74,0,0,1,.49.57A1.82,1.82,0,0,1,600.85,153.87Z" transform="translate(-0.84 -3.19)" fill="#231f20"/><path d="M604.46,155.76c-1.87,0-2.8-1-2.8-3.08a3.28,3.28,0,0,1,.76-2.34,2.85,2.85,0,0,1,2.18-.8,4.18,4.18,0,0,1,1.87.4l-.48,1.27c-.26-.1-.5-.19-.72-.25a2.18,2.18,0,0,0-.67-.1c-.85,0-1.27.6-1.27,1.81s.42,1.76,1.27,1.76a3.07,3.07,0,0,0,.88-.12,3.38,3.38,0,0,0,.81-.4v1.4a2.59,2.59,0,0,1-.81.35A4.18,4.18,0,0,1,604.46,155.76Z" transform="translate(-0.84 -3.19)" fill="#231f20"/><path d="M613,152.64a3.19,3.19,0,0,1-.77,2.29,2.81,2.81,0,0,1-2.15.83,3,3,0,0,1-1.53-.38,2.43,2.43,0,0,1-1-1.09,3.58,3.58,0,0,1-.36-1.65,3.24,3.24,0,0,1,.77-2.29,2.83,2.83,0,0,1,2.16-.81,3,3,0,0,1,1.52.37,2.54,2.54,0,0,1,1,1.08A3.58,3.58,0,0,1,613,152.64Zm-4.15,0a2.6,2.6,0,0,0,.29,1.35,1.07,1.07,0,0,0,1,.45,1,1,0,0,0,.94-.45,2.55,2.55,0,0,0,.29-1.35,2.52,2.52,0,0,0-.29-1.34,1.25,1.25,0,0,0-1.9,0A2.49,2.49,0,0,0,608.87,152.64Z" transform="translate(-0.84 -3.19)" fill="#231f20"/><path d="M617.62,149.54a2.81,2.81,0,0,1,.55,0l-.12,1.54a1.68,1.68,0,0,0-.48-.05,1.75,1.75,0,0,0-1.23.4,1.46,1.46,0,0,0-.43,1.13v3.05h-1.64v-6h1.24l.24,1h.08a2.3,2.3,0,0,1,.76-.82A1.88,1.88,0,0,1,617.62,149.54Z" transform="translate(-0.84 -3.19)" fill="#231f20"/><path d="M621.87,155.76a3.13,3.13,0,0,1-2.27-.8,3,3,0,0,1-.81-2.27,3.35,3.35,0,0,1,.75-2.33,2.7,2.7,0,0,1,2.09-.82,2.64,2.64,0,0,1,2,.72,2.74,2.74,0,0,1,.71,2v.8h-3.87a1.58,1.58,0,0,0,.41,1.09,1.47,1.47,0,0,0,1.09.39,4.76,4.76,0,0,0,1-.11,5.87,5.87,0,0,0,1-.36v1.27a4.54,4.54,0,0,1-.92.32A6.53,6.53,0,0,1,621.87,155.76Zm-.23-5.06a1,1,0,0,0-.82.33,1.58,1.58,0,0,0-.34.94h2.3a1.35,1.35,0,0,0-.31-.94A1.08,1.08,0,0,0,621.64,150.7Z" transform="translate(-0.84 -3.19)" fill="#231f20"/><path d="M633.52,149.65v.83l-.94.24a1.65,1.65,0,0,1,.25.9,1.82,1.82,0,0,1-.67,1.51,2.91,2.91,0,0,1-1.87.54l-.3,0-.24,0a.54.54,0,0,0-.25.43c0,.23.3.35.9.35h1a2.3,2.3,0,0,1,1.51.43,1.51,1.51,0,0,1,.52,1.24,1.85,1.85,0,0,1-.88,1.63,4.56,4.56,0,0,1-2.52.58,3.5,3.5,0,0,1-1.92-.43,1.38,1.38,0,0,1-.67-1.23,1.29,1.29,0,0,1,.34-.91,2,2,0,0,1,1-.52,1.2,1.2,0,0,1-.44-.35.86.86,0,0,1-.18-.52.84.84,0,0,1,.19-.57,2.66,2.66,0,0,1,.58-.45,1.58,1.58,0,0,1-.75-.65,2.08,2.08,0,0,1-.28-1.07,1.9,1.9,0,0,1,.64-1.52,2.77,2.77,0,0,1,1.83-.53,4.62,4.62,0,0,1,.6,0,3.61,3.61,0,0,1,.44.07Zm-4.64,6.85a.59.59,0,0,0,.33.53,1.75,1.75,0,0,0,.91.2,3.12,3.12,0,0,0,1.38-.25.74.74,0,0,0,.5-.66.46.46,0,0,0-.3-.46,2.33,2.33,0,0,0-.91-.13h-.85a1.33,1.33,0,0,0-.76.21A.66.66,0,0,0,628.88,156.5Zm.6-4.89a1.23,1.23,0,0,0,.22.78,1,1,0,0,0,1.36,0,1.29,1.29,0,0,0,.21-.78c0-.72-.3-1.08-.89-1.08S629.48,150.89,629.48,151.61Z" transform="translate(-0.84 -3.19)" fill="#231f20"/><path d="M638.21,155.65l-.32-.81h0a2.61,2.61,0,0,1-.85.72,2.89,2.89,0,0,1-1.15.2,1.71,1.71,0,0,1-1.85-1.9,1.57,1.57,0,0,1,.67-1.41,3.83,3.83,0,0,1,2-.5l1,0v-.26a.81.81,0,0,0-.93-.91,4.24,4.24,0,0,0-1.69.43l-.54-1.1a4.87,4.87,0,0,1,2.29-.55,2.88,2.88,0,0,1,1.86.53,1.93,1.93,0,0,1,.64,1.6v4Zm-.49-2.78-.63,0a2,2,0,0,0-1.06.26.8.8,0,0,0-.35.72c0,.46.26.69.79.69a1.24,1.24,0,0,0,.91-.33,1.12,1.12,0,0,0,.34-.87Z" transform="translate(-0.84 -3.19)" fill="#231f20"/><path d="M644.23,155.76a2,2,0,0,1-1.66-.77h-.09q.09.75.09.87v2.43h-1.64v-8.64h1.33l.23.78h.08a1.88,1.88,0,0,1,1.7-.89,1.93,1.93,0,0,1,1.66.82,3.79,3.79,0,0,1,.6,2.28,4.46,4.46,0,0,1-.28,1.67,2.36,2.36,0,0,1-.8,1.08A2,2,0,0,1,644.23,155.76Zm-.49-4.91a1,1,0,0,0-.89.37,2.14,2.14,0,0,0-.28,1.23v.18a2.54,2.54,0,0,0,.28,1.38,1,1,0,0,0,.91.42c.74,0,1.1-.6,1.1-1.81a2.59,2.59,0,0,0-.27-1.33A.91.91,0,0,0,643.74,150.85Z" transform="translate(-0.84 -3.19)" fill="#231f20"/><line x1="512.21" y1="145.59" x2="532.3" y2="145.67" fill="none" stroke="#231f20" stroke-miterlimit="10" stroke-width="0.5"/><circle cx="533.57" cy="145.78" r="2.72" fill="#fff" stroke="#231f20" stroke-miterlimit="10"/><line x1="512.83" y1="86" x2="512.83" y2="202.2" fill="none" stroke="#231f20" stroke-miterlimit="10" stroke-width="0.5"/><line x1="464.83" y1="202" x2="512.83" y2="202" fill="none" stroke="#231f20" stroke-miterlimit="10" stroke-width="0.5"/><rect x="307.83" y="186.6" width="153.8" height="32.8" fill="#262b69"/><path d="M433.4,213.59H422.92v-2.21l3.76-3.8c1.12-1.14,1.84-1.94,2.19-2.38a5.29,5.29,0,0,0,.73-1.22,3,3,0,0,0,.23-1.17,1.7,1.7,0,0,0-.5-1.34A1.88,1.88,0,0,0,428,201a3.91,3.91,0,0,0-1.7.39,9.39,9.39,0,0,0-1.71,1.14l-1.72-2a11.44,11.44,0,0,1,1.83-1.33,6.88,6.88,0,0,1,1.59-.6,8.21,8.21,0,0,1,1.93-.21,5.72,5.72,0,0,1,2.48.51,3.87,3.87,0,0,1,1.67,1.44,3.78,3.78,0,0,1,.6,2.11,5,5,0,0,1-.37,1.94,7.13,7.13,0,0,1-1.12,1.86,26.32,26.32,0,0,1-2.7,2.72l-1.92,1.82v.14h6.53Z" transform="translate(-0.84 -3.19)" fill="#fff"/><path d="M439.86,198.4a5.67,5.67,0,0,1,3.47,1,3.11,3.11,0,0,1,1.32,2.64,3.48,3.48,0,0,1-.63,2,5.55,5.55,0,0,1-2,1.6,7.28,7.28,0,0,1,2.41,1.88,3.49,3.49,0,0,1,.73,2.15,3.58,3.58,0,0,1-1.44,3,6,6,0,0,1-3.81,1.12,6.39,6.39,0,0,1-3.86-1,3.49,3.49,0,0,1-1.41-3,3.88,3.88,0,0,1,.69-2.27,5.61,5.61,0,0,1,2.18-1.76,5.73,5.73,0,0,1-1.84-1.73,3.78,3.78,0,0,1-.56-2,3.12,3.12,0,0,1,1.33-2.61A5.69,5.69,0,0,1,439.86,198.4Zm-2.33,11.2a1.65,1.65,0,0,0,.61,1.37,2.61,2.61,0,0,0,1.68.49,2.69,2.69,0,0,0,1.77-.5,1.69,1.69,0,0,0,.58-1.34,1.82,1.82,0,0,0-.58-1.29,7.51,7.51,0,0,0-1.88-1.28C438.25,207.72,437.53,208.57,437.53,209.6Zm2.31-8.88a2,2,0,0,0-1.3.41,1.36,1.36,0,0,0-.5,1.12,1.72,1.72,0,0,0,.39,1.1,4.46,4.46,0,0,0,1.43,1,4.12,4.12,0,0,0,1.41-1,1.72,1.72,0,0,0,.4-1.13,1.35,1.35,0,0,0-.51-1.12A2,2,0,0,0,439.84,200.72Z" transform="translate(-0.84 -3.19)" fill="#fff"/><path d="M451.64,198.4a5.69,5.69,0,0,1,3.47,1,3.11,3.11,0,0,1,1.32,2.64,3.42,3.42,0,0,1-.64,2,5.39,5.39,0,0,1-2.05,1.6,7.33,7.33,0,0,1,2.42,1.88,3.49,3.49,0,0,1,.73,2.15,3.58,3.58,0,0,1-1.44,3,6.05,6.05,0,0,1-3.81,1.12,6.37,6.37,0,0,1-3.86-1,3.49,3.49,0,0,1-1.41-3,3.94,3.94,0,0,1,.68-2.27,5.73,5.73,0,0,1,2.19-1.76A5.63,5.63,0,0,1,447.4,204a3.79,3.79,0,0,1-.57-2,3.13,3.13,0,0,1,1.34-2.61A5.65,5.65,0,0,1,451.64,198.4Zm-2.34,11.2a1.66,1.66,0,0,0,.62,1.37,2.61,2.61,0,0,0,1.68.49,2.66,2.66,0,0,0,1.76-.5,1.7,1.7,0,0,0,.59-1.34,1.86,1.86,0,0,0-.58-1.29,7.7,7.7,0,0,0-1.88-1.28Q449.3,208.06,449.3,209.6Zm2.32-8.88a2,2,0,0,0-1.31.41,1.39,1.39,0,0,0-.49,1.12,1.72,1.72,0,0,0,.39,1.1,4.35,4.35,0,0,0,1.43,1,4.12,4.12,0,0,0,1.41-1,1.77,1.77,0,0,0,.4-1.13,1.35,1.35,0,0,0-.52-1.12A2,2,0,0,0,451.62,200.72Z" transform="translate(-0.84 -3.19)" fill="#fff"/><path d="M313.18,169.59h-.92v-7.05h-2.48v-.81h5.88v.81h-2.48Z" transform="translate(-0.84 -3.19)" fill="#231f20"/><path d="M321.79,166.64a3.23,3.23,0,0,1-.72,2.24,2.58,2.58,0,0,1-2,.81,2.64,2.64,0,0,1-1.4-.37,2.46,2.46,0,0,1-1-1.06,3.72,3.72,0,0,1-.33-1.62,3.27,3.27,0,0,1,.72-2.25,2.57,2.57,0,0,1,2-.8,2.51,2.51,0,0,1,2,.82A3.22,3.22,0,0,1,321.79,166.64Zm-4.48,0a2.82,2.82,0,0,0,.45,1.72,1.78,1.78,0,0,0,2.65,0,2.73,2.73,0,0,0,.46-1.72,2.7,2.7,0,0,0-.46-1.71,1.83,1.83,0,0,0-2.66,0A2.78,2.78,0,0,0,317.31,166.64Z" transform="translate(-0.84 -3.19)" fill="#231f20"/><path d="M328.43,166.64a3.23,3.23,0,0,1-.72,2.24,2.54,2.54,0,0,1-2,.81,2.65,2.65,0,0,1-1.41-.37,2.44,2.44,0,0,1-.94-1.06,3.72,3.72,0,0,1-.33-1.62,3.27,3.27,0,0,1,.72-2.25,2.82,2.82,0,0,1,4,0A3.27,3.27,0,0,1,328.43,166.64Zm-4.48,0a2.82,2.82,0,0,0,.45,1.72,1.57,1.57,0,0,0,1.33.59,1.6,1.6,0,0,0,1.33-.59,2.8,2.8,0,0,0,.45-1.72,2.77,2.77,0,0,0-.45-1.71,1.6,1.6,0,0,0-1.34-.58,1.56,1.56,0,0,0-1.32.57A2.78,2.78,0,0,0,324,166.64Z" transform="translate(-0.84 -3.19)" fill="#231f20"/><path d="M330.88,166.57c.15-.22.39-.5.7-.86l1.9-2h1.06l-2.38,2.51,2.55,3.38h-1.08l-2.08-2.79-.67.58v2.21H330v-8.36h.88v4.43c0,.2,0,.5,0,.91Z" transform="translate(-0.84 -3.19)" fill="#231f20"/><path d="M340.53,169a2.32,2.32,0,0,0,.46,0,2.15,2.15,0,0,0,.35-.07v.68a1.51,1.51,0,0,1-.43.12,3.25,3.25,0,0,1-.51,0q-1.71,0-1.71-1.8v-3.5h-.84V164l.84-.37.38-1.26h.51v1.37h1.71v.69h-1.71v3.47a1.18,1.18,0,0,0,.26.81A.88.88,0,0,0,340.53,169Z" transform="translate(-0.84 -3.19)" fill="#231f20"/><path d="M346.54,169.59v-3.81a1.55,1.55,0,0,0-.33-1.08,1.35,1.35,0,0,0-1-.35,1.72,1.72,0,0,0-1.36.5,2.6,2.6,0,0,0-.43,1.66v3.08h-.89v-8.36h.89v2.53a5.44,5.44,0,0,1,0,.76h.05a1.81,1.81,0,0,1,.75-.67,2.39,2.39,0,0,1,1.11-.25,2.24,2.24,0,0,1,1.62.52,2.15,2.15,0,0,1,.54,1.63v3.84Z" transform="translate(-0.84 -3.19)" fill="#231f20"/><path d="M351.75,169.69a2.7,2.7,0,0,1-2.06-.79,3.1,3.1,0,0,1-.75-2.21,3.4,3.4,0,0,1,.7-2.26,2.31,2.31,0,0,1,1.88-.84,2.2,2.2,0,0,1,1.75.73,2.79,2.79,0,0,1,.65,1.92v.56h-4.06a2.35,2.35,0,0,0,.52,1.58,1.81,1.81,0,0,0,1.4.54,4.81,4.81,0,0,0,1.88-.4v.79a3.84,3.84,0,0,1-.89.29A5,5,0,0,1,351.75,169.69Zm-.24-5.35a1.45,1.45,0,0,0-1.13.46,2.13,2.13,0,0,0-.5,1.28H353a2,2,0,0,0-.38-1.29A1.32,1.32,0,0,0,351.51,164.34Z" transform="translate(-0.84 -3.19)" fill="#231f20"/><path d="M362.86,167.5a1.91,1.91,0,0,1-.75,1.61,3.25,3.25,0,0,1-2,.58,5.09,5.09,0,0,1-2.15-.36v-.88a5.38,5.38,0,0,0,1.05.33,6.27,6.27,0,0,0,1.13.11,2.25,2.25,0,0,0,1.37-.34,1.14,1.14,0,0,0,.46-1,1.26,1.26,0,0,0-.16-.67,1.57,1.57,0,0,0-.55-.48,8.21,8.21,0,0,0-1.17-.5,3.65,3.65,0,0,1-1.56-.93,2,2,0,0,1-.47-1.4,1.75,1.75,0,0,1,.68-1.44,2.85,2.85,0,0,1,1.81-.54,5.26,5.26,0,0,1,2.15.43l-.28.8a4.75,4.75,0,0,0-1.9-.41,1.81,1.81,0,0,0-1.13.31,1,1,0,0,0-.41.86,1.3,1.3,0,0,0,.15.67,1.32,1.32,0,0,0,.51.48,5.62,5.62,0,0,0,1.09.48,4.19,4.19,0,0,1,1.7.95A1.84,1.84,0,0,1,362.86,167.5Z" transform="translate(-0.84 -3.19)" fill="#231f20"/><path d="M369.4,169.59l-1-2.5h-3.14l-1,2.5h-.93l3.11-7.89h.77l3.09,7.89Zm-1.26-3.32-.92-2.44c-.11-.3-.23-.68-.36-1.13a9.88,9.88,0,0,1-.34,1.13l-.92,2.44Z" transform="translate(-0.84 -3.19)" fill="#231f20"/><path d="M373.84,169.59h-.91v-7.05h-2.49v-.81h5.89v.81h-2.49Z" transform="translate(-0.84 -3.19)" fill="#231f20"/><path d="M385.31,166.64a3.23,3.23,0,0,1-.72,2.24,2.54,2.54,0,0,1-2,.81,2.65,2.65,0,0,1-1.41-.37,2.44,2.44,0,0,1-.94-1.06,3.72,3.72,0,0,1-.33-1.62,3.27,3.27,0,0,1,.72-2.25,2.82,2.82,0,0,1,4,0A3.27,3.27,0,0,1,385.31,166.64Zm-4.48,0a2.82,2.82,0,0,0,.45,1.72,1.57,1.57,0,0,0,1.33.59,1.6,1.6,0,0,0,1.33-.59,2.8,2.8,0,0,0,.45-1.72,2.77,2.77,0,0,0-.45-1.71,1.6,1.6,0,0,0-1.34-.58,1.56,1.56,0,0,0-1.32.57A2.78,2.78,0,0,0,380.83,166.64Z" transform="translate(-0.84 -3.19)" fill="#231f20"/><path d="M389.56,163.59a3.11,3.11,0,0,1,.71.07l-.13.82a3.28,3.28,0,0,0-.64-.08,1.57,1.57,0,0,0-1.22.58,2.12,2.12,0,0,0-.51,1.45v3.16h-.89V163.7h.73l.1,1.09h.05a2.65,2.65,0,0,1,.79-.89A1.82,1.82,0,0,1,389.56,163.59Z" transform="translate(-0.84 -3.19)" fill="#231f20"/><path d="M399.29,169.59l-1-2.5h-3.15l-1,2.5h-.92l3.1-7.89h.77l3.09,7.89ZM398,166.27l-.91-2.44c-.12-.3-.24-.68-.37-1.13a9.69,9.69,0,0,1-.33,1.13l-.93,2.44Z" transform="translate(-0.84 -3.19)" fill="#231f20"/><path d="M404.68,162.44a2.55,2.55,0,0,0-2,.86,3.46,3.46,0,0,0-.75,2.36,3.54,3.54,0,0,0,.72,2.38,2.57,2.57,0,0,0,2.06.84,7.37,7.37,0,0,0,1.88-.29v.8a5.93,5.93,0,0,1-2,.3,3.43,3.43,0,0,1-2.68-1.05,4.37,4.37,0,0,1-.94-3,4.64,4.64,0,0,1,.46-2.13,3.12,3.12,0,0,1,1.31-1.4,3.94,3.94,0,0,1,2-.5,4.84,4.84,0,0,1,2.16.45l-.39.79A4.11,4.11,0,0,0,404.68,162.44Z" transform="translate(-0.84 -3.19)" fill="#231f20"/><path d="M410.68,169.59h-.92v-7.05h-2.48v-.81h5.88v.81h-2.48Z" transform="translate(-0.84 -3.19)" fill="#231f20"/><path d="M419.42,169.69a2.53,2.53,0,0,1-2-.78,3.24,3.24,0,0,1-.7-2.23,3.35,3.35,0,0,1,.71-2.28,2.56,2.56,0,0,1,2-.81,4.09,4.09,0,0,1,.85.09,2.81,2.81,0,0,1,.66.22l-.27.76a4,4,0,0,0-.64-.2,3.1,3.1,0,0,0-.62-.08c-1.2,0-1.8.76-1.8,2.29a2.71,2.71,0,0,0,.44,1.66,1.53,1.53,0,0,0,1.3.59,4,4,0,0,0,1.51-.32v.79A3.29,3.29,0,0,1,419.42,169.69Z" transform="translate(-0.84 -3.19)" fill="#231f20"/><path d="M427.39,166.64a3.23,3.23,0,0,1-.73,2.24,2.54,2.54,0,0,1-2,.81,2.59,2.59,0,0,1-1.4-.37,2.4,2.4,0,0,1-.95-1.06,3.72,3.72,0,0,1-.33-1.62,3.27,3.27,0,0,1,.72-2.25,2.55,2.55,0,0,1,2-.8,2.52,2.52,0,0,1,2,.82A3.27,3.27,0,0,1,427.39,166.64Zm-4.49,0a2.82,2.82,0,0,0,.45,1.72,1.79,1.79,0,0,0,2.66,0,2.8,2.8,0,0,0,.45-1.72,2.77,2.77,0,0,0-.45-1.71,1.59,1.59,0,0,0-1.34-.58,1.56,1.56,0,0,0-1.32.57A2.78,2.78,0,0,0,422.9,166.64Z" transform="translate(-0.84 -3.19)" fill="#231f20"/><path d="M429.84,169.59H429v-8.36h.89Z" transform="translate(-0.84 -3.19)" fill="#231f20"/><path d="M432.62,169.59h-.89v-8.36h.89Z" transform="translate(-0.84 -3.19)" fill="#231f20"/><path d="M437,169.69a2.7,2.7,0,0,1-2.06-.79,3.1,3.1,0,0,1-.75-2.21,3.4,3.4,0,0,1,.7-2.26,2.31,2.31,0,0,1,1.88-.84,2.2,2.2,0,0,1,1.75.73,2.79,2.79,0,0,1,.65,1.92v.56h-4.06a2.35,2.35,0,0,0,.52,1.58,1.81,1.81,0,0,0,1.4.54,4.81,4.81,0,0,0,1.88-.4v.79a3.84,3.84,0,0,1-.89.29A5,5,0,0,1,437,169.69Zm-.24-5.35a1.45,1.45,0,0,0-1.13.46,2.13,2.13,0,0,0-.5,1.28h3.08a2,2,0,0,0-.38-1.29A1.32,1.32,0,0,0,436.76,164.34Z" transform="translate(-0.84 -3.19)" fill="#231f20"/><path d="M445.5,163.7v.56l-1.09.13a2,2,0,0,1,.27.49,1.88,1.88,0,0,1,.12.69,1.74,1.74,0,0,1-.59,1.38,2.4,2.4,0,0,1-1.62.51,2.67,2.67,0,0,1-.5,0,.89.89,0,0,0-.57.76.4.4,0,0,0,.2.36,1.55,1.55,0,0,0,.68.11h1.05a2.42,2.42,0,0,1,1.47.4,1.41,1.41,0,0,1,.51,1.18,1.67,1.67,0,0,1-.79,1.49,4.19,4.19,0,0,1-2.28.51,3.08,3.08,0,0,1-1.78-.43,1.39,1.39,0,0,1-.63-1.22,1.34,1.34,0,0,1,.34-.92,1.75,1.75,0,0,1,1-.54.86.86,0,0,1-.53-.81,1,1,0,0,1,.17-.57,1.83,1.83,0,0,1,.54-.46,1.63,1.63,0,0,1-.74-.64,2.11,2.11,0,0,1,.29-2.52,2.38,2.38,0,0,1,1.64-.53,3.11,3.11,0,0,1,.84.11Zm-4.69,6.87a.81.81,0,0,0,.4.73,2.3,2.3,0,0,0,1.16.25,3.24,3.24,0,0,0,1.66-.34,1,1,0,0,0,.54-.91.71.71,0,0,0-.3-.66,2.17,2.17,0,0,0-1.11-.19h-1.07a1.41,1.41,0,0,0-.94.29A1,1,0,0,0,440.81,170.57Zm.48-5a1.21,1.21,0,0,0,.35.94,1.4,1.4,0,0,0,1,.32,1.14,1.14,0,0,0,1.31-1.27,1.17,1.17,0,0,0-1.32-1.33,1.3,1.3,0,0,0-1,.34A1.39,1.39,0,0,0,441.29,165.58Z" transform="translate(-0.84 -3.19)" fill="#231f20"/><path d="M449.2,169.69a2.7,2.7,0,0,1-2.06-.79,3.06,3.06,0,0,1-.76-2.21,3.45,3.45,0,0,1,.7-2.26,2.34,2.34,0,0,1,1.89-.84,2.22,2.22,0,0,1,1.75.73,2.78,2.78,0,0,1,.64,1.92v.56h-4.05a2.35,2.35,0,0,0,.52,1.58,1.81,1.81,0,0,0,1.4.54,4.85,4.85,0,0,0,1.88-.4v.79a4,4,0,0,1-.89.29A5,5,0,0,1,449.2,169.69Zm-.24-5.35a1.43,1.43,0,0,0-1.13.46,2.07,2.07,0,0,0-.5,1.28h3.08a2,2,0,0,0-.38-1.29A1.32,1.32,0,0,0,449,164.34Z" transform="translate(-0.84 -3.19)" fill="#231f20"/><path d="M313.11,183.69a2.7,2.7,0,0,1-2.06-.79,3.1,3.1,0,0,1-.75-2.21,3.4,3.4,0,0,1,.7-2.26,2.31,2.31,0,0,1,1.88-.84,2.2,2.2,0,0,1,1.75.73,2.79,2.79,0,0,1,.65,1.92v.56h-4.06a2.35,2.35,0,0,0,.52,1.58,1.82,1.82,0,0,0,1.4.54,4.81,4.81,0,0,0,1.88-.4v.79a3.84,3.84,0,0,1-.89.29A5,5,0,0,1,313.11,183.69Zm-.24-5.35a1.45,1.45,0,0,0-1.13.46,2.13,2.13,0,0,0-.5,1.28h3.08a2,2,0,0,0-.38-1.29A1.32,1.32,0,0,0,312.87,178.34Z" transform="translate(-0.84 -3.19)" fill="#231f20"/><path d="M320.82,183.59v-3.81a1.6,1.6,0,0,0-.32-1.08,1.36,1.36,0,0,0-1-.35,1.68,1.68,0,0,0-1.35.5,2.49,2.49,0,0,0-.43,1.65v3.09h-.89V177.7h.72l.15.8h0a1.8,1.8,0,0,1,.77-.67,2.47,2.47,0,0,1,1.1-.24,2.24,2.24,0,0,1,1.6.51,2.2,2.2,0,0,1,.54,1.65v3.84Z" transform="translate(-0.84 -3.19)" fill="#231f20"/><path d="M325.45,183a2.15,2.15,0,0,0,.45,0,1.77,1.77,0,0,0,.35-.07v.68a1.43,1.43,0,0,1-.42.12,3.25,3.25,0,0,1-.51,0q-1.71,0-1.71-1.8v-3.5h-.84V178l.84-.37.38-1.26h.51v1.37h1.71v.69H324.5v3.47a1.18,1.18,0,0,0,.26.81A.85.85,0,0,0,325.45,183Z" transform="translate(-0.84 -3.19)" fill="#231f20"/><path d="M330.12,177.59a3,3,0,0,1,.7.07l-.12.82a3.37,3.37,0,0,0-.65-.08,1.6,1.6,0,0,0-1.22.58,2.12,2.12,0,0,0-.51,1.45v3.16h-.89V177.7h.74l.1,1.09h0a2.65,2.65,0,0,1,.79-.89A1.85,1.85,0,0,1,330.12,177.59Z" transform="translate(-0.84 -3.19)" fill="#231f20"/><path d="M335.54,183.59l-.18-.84h0a2.45,2.45,0,0,1-.88.75,2.66,2.66,0,0,1-1.09.19,2,2,0,0,1-1.37-.45,1.65,1.65,0,0,1-.5-1.28c0-1.19.95-1.81,2.85-1.87l1,0v-.37a1.48,1.48,0,0,0-.3-1,1.22,1.22,0,0,0-.95-.33,3.92,3.92,0,0,0-1.67.45l-.27-.68a4.36,4.36,0,0,1,2-.51,2.26,2.26,0,0,1,1.56.47,1.94,1.94,0,0,1,.51,1.5v4Zm-2-.63a1.77,1.77,0,0,0,1.3-.46,1.67,1.67,0,0,0,.48-1.28v-.53l-.89,0a3.17,3.17,0,0,0-1.54.33,1,1,0,0,0-.47.91.92.92,0,0,0,.3.74A1.25,1.25,0,0,0,333.53,183Z" transform="translate(-0.84 -3.19)" fill="#231f20"/><path d="M342.07,183.59v-3.81a1.55,1.55,0,0,0-.33-1.08,1.36,1.36,0,0,0-1-.35,1.71,1.71,0,0,0-1.35.5,2.49,2.49,0,0,0-.43,1.65v3.09H338V177.7h.72l.15.8h0a1.8,1.8,0,0,1,.77-.67,2.5,2.5,0,0,1,1.1-.24,2.24,2.24,0,0,1,1.6.51,2.2,2.2,0,0,1,.54,1.65v3.84Z" transform="translate(-0.84 -3.19)" fill="#231f20"/><path d="M347.14,183.69a2.53,2.53,0,0,1-2-.78,3.29,3.29,0,0,1-.7-2.23,3.35,3.35,0,0,1,.71-2.28,2.56,2.56,0,0,1,2-.81,4.09,4.09,0,0,1,.85.09,3.09,3.09,0,0,1,.67.22l-.28.76a3.7,3.7,0,0,0-.64-.2,3.1,3.1,0,0,0-.62-.08c-1.2,0-1.79.76-1.79,2.29a2.71,2.71,0,0,0,.43,1.66,1.54,1.54,0,0,0,1.3.59,4,4,0,0,0,1.51-.32v.79A3.27,3.27,0,0,1,347.14,183.69Z" transform="translate(-0.84 -3.19)" fill="#231f20"/><path d="M352.51,183.69a2.71,2.71,0,0,1-2.06-.79,3.1,3.1,0,0,1-.75-2.21,3.4,3.4,0,0,1,.7-2.26,2.32,2.32,0,0,1,1.88-.84,2.2,2.2,0,0,1,1.75.73,2.79,2.79,0,0,1,.65,1.92v.56h-4.06a2.31,2.31,0,0,0,.53,1.58,1.79,1.79,0,0,0,1.4.54,4.85,4.85,0,0,0,1.88-.4v.79a4.06,4.06,0,0,1-.9.29A5,5,0,0,1,352.51,183.69Zm-.24-5.35a1.45,1.45,0,0,0-1.13.46,2.13,2.13,0,0,0-.5,1.28h3.08a2,2,0,0,0-.37-1.29A1.33,1.33,0,0,0,352.27,178.34Z" transform="translate(-0.84 -3.19)" fill="#231f20"/><path d="M361.54,183.69a2.7,2.7,0,0,1-2.06-.79,3.1,3.1,0,0,1-.75-2.21,3.4,3.4,0,0,1,.7-2.26,2.32,2.32,0,0,1,1.88-.84,2.2,2.2,0,0,1,1.75.73,2.79,2.79,0,0,1,.65,1.92v.56h-4.06a2.35,2.35,0,0,0,.52,1.58,1.82,1.82,0,0,0,1.4.54,4.81,4.81,0,0,0,1.88-.4v.79a3.84,3.84,0,0,1-.89.29A5,5,0,0,1,361.54,183.69Zm-.24-5.35a1.45,1.45,0,0,0-1.13.46,2.13,2.13,0,0,0-.5,1.28h3.08a1.91,1.91,0,0,0-.38-1.29A1.31,1.31,0,0,0,361.3,178.34Z" transform="translate(-0.84 -3.19)" fill="#231f20"/><path d="M366.64,180.57l-2-2.87h1l1.56,2.26,1.54-2.26h1l-2.05,2.87,2.15,3h-1l-1.64-2.39-1.67,2.39h-1Z" transform="translate(-0.84 -3.19)" fill="#231f20"/><path d="M374.61,183.59l-.18-.84h0a2.45,2.45,0,0,1-.88.75,2.66,2.66,0,0,1-1.09.19,2,2,0,0,1-1.37-.45,1.65,1.65,0,0,1-.5-1.28c0-1.19.95-1.81,2.85-1.87l1,0v-.37a1.48,1.48,0,0,0-.3-1,1.22,1.22,0,0,0-1-.33,3.92,3.92,0,0,0-1.67.45l-.27-.68a4.36,4.36,0,0,1,2-.51,2.24,2.24,0,0,1,1.56.47,1.94,1.94,0,0,1,.51,1.5v4Zm-2-.63a1.77,1.77,0,0,0,1.3-.46,1.67,1.67,0,0,0,.48-1.28v-.53l-.89,0a3.17,3.17,0,0,0-1.54.33,1,1,0,0,0-.47.91.92.92,0,0,0,.3.74A1.25,1.25,0,0,0,372.6,183Z" transform="translate(-0.84 -3.19)" fill="#231f20"/><path d="M384.61,183.59v-3.83a1.61,1.61,0,0,0-.3-1.06,1.17,1.17,0,0,0-.93-.35,1.49,1.49,0,0,0-1.23.48,2.24,2.24,0,0,0-.4,1.47v3.29h-.89v-3.83a1.61,1.61,0,0,0-.3-1.06,1.19,1.19,0,0,0-.94-.35,1.47,1.47,0,0,0-1.23.5,2.74,2.74,0,0,0-.39,1.65v3.09h-.89V177.7h.72l.15.8h0a1.91,1.91,0,0,1,.71-.67,2.2,2.2,0,0,1,1-.24,1.76,1.76,0,0,1,1.81,1h0a1.85,1.85,0,0,1,.76-.73,2.34,2.34,0,0,1,1.14-.27,2,2,0,0,1,1.5.51,2.33,2.33,0,0,1,.49,1.65v3.84Z" transform="translate(-0.84 -3.19)" fill="#231f20"/><line x1="452.43" y1="86" x2="512.83" y2="86" fill="none" stroke="#231f20" stroke-miterlimit="10" stroke-width="0.5"/><rect x="307.77" y="70.6" width="140.67" height="32.8" fill="#00aeef"/><path d="M420.4,98.59H409.92V96.38l3.76-3.8c1.12-1.14,1.84-1.94,2.19-2.38A5.29,5.29,0,0,0,416.6,89a3,3,0,0,0,.23-1.17,1.7,1.7,0,0,0-.5-1.34A1.88,1.88,0,0,0,415,86a3.91,3.91,0,0,0-1.7.39,9.39,9.39,0,0,0-1.71,1.14l-1.72-2a11.44,11.44,0,0,1,1.83-1.33,6.88,6.88,0,0,1,1.59-.6,8.21,8.21,0,0,1,1.93-.21,5.72,5.72,0,0,1,2.48.51,3.87,3.87,0,0,1,1.67,1.44,3.78,3.78,0,0,1,.6,2.11,5,5,0,0,1-.37,1.94,7.13,7.13,0,0,1-1.12,1.86,26.32,26.32,0,0,1-2.7,2.72l-1.92,1.82v.14h6.53Z" transform="translate(-0.84 -3.19)" fill="#fff"/><path d="M426.86,83.4a5.67,5.67,0,0,1,3.47,1A3.11,3.11,0,0,1,431.65,87a3.48,3.48,0,0,1-.63,2,5.55,5.55,0,0,1-2,1.6,7.28,7.28,0,0,1,2.41,1.88,3.49,3.49,0,0,1,.73,2.15,3.58,3.58,0,0,1-1.44,3,6,6,0,0,1-3.81,1.12,6.39,6.39,0,0,1-3.86-1,3.49,3.49,0,0,1-1.41-3,3.88,3.88,0,0,1,.69-2.27,5.61,5.61,0,0,1,2.18-1.76A5.73,5.73,0,0,1,422.62,89a3.78,3.78,0,0,1-.56-2,3.12,3.12,0,0,1,1.33-2.61A5.69,5.69,0,0,1,426.86,83.4Zm-2.33,11.2a1.65,1.65,0,0,0,.61,1.37,2.61,2.61,0,0,0,1.68.49,2.69,2.69,0,0,0,1.77-.5,1.69,1.69,0,0,0,.58-1.34,1.82,1.82,0,0,0-.58-1.29,7.51,7.51,0,0,0-1.88-1.28C425.25,92.72,424.53,93.57,424.53,94.6Zm2.31-8.88a2,2,0,0,0-1.3.41,1.36,1.36,0,0,0-.5,1.12,1.72,1.72,0,0,0,.39,1.1,4.46,4.46,0,0,0,1.43,1,4.12,4.12,0,0,0,1.41-1,1.72,1.72,0,0,0,.4-1.13,1.35,1.35,0,0,0-.51-1.12A2,2,0,0,0,426.84,85.72Z" transform="translate(-0.84 -3.19)" fill="#fff"/><path d="M444.29,95.48h-1.8v3.11h-3.1V95.48H433V93.27l6.57-9.68h2.93V93h1.8ZM439.39,93V90.47c0-.42,0-1,.05-1.84s.06-1.28.08-1.41h-.08a11.62,11.62,0,0,1-.91,1.65L435.78,93Z" transform="translate(-0.84 -3.19)" fill="#fff"/><path d="M317,49.58a4,4,0,0,1-1.06,3,4.2,4.2,0,0,1-3,1h-2.17V45.73h2.4A3.54,3.54,0,0,1,317,49.58Zm-1,0a3.18,3.18,0,0,0-.77-2.32,3.1,3.1,0,0,0-2.29-.78h-1.33V52.8h1.11a3.38,3.38,0,0,0,2.46-.81A3.14,3.14,0,0,0,316.06,49.62Z" transform="translate(-0.84 -3.19)" fill="#231f20"/><path d="M318.57,46.1a.57.57,0,0,1,.15-.44.53.53,0,0,1,.74,0,.54.54,0,0,1,.16.44.58.58,0,0,1-.16.45.53.53,0,0,1-.74,0A.61.61,0,0,1,318.57,46.1Zm1,7.49h-.89V47.7h.89Z" transform="translate(-0.84 -3.19)" fill="#231f20"/><path d="M325.43,52.8h-.05a2.09,2.09,0,0,1-1.84.89,2.18,2.18,0,0,1-1.8-.79,3.44,3.44,0,0,1-.64-2.24,3.52,3.52,0,0,1,.64-2.26,2.17,2.17,0,0,1,1.8-.81,2.13,2.13,0,0,1,1.83.87h.07l0-.42,0-.42V45.23h.9v8.36h-.73Zm-1.78.15a1.61,1.61,0,0,0,1.32-.5,2.48,2.48,0,0,0,.41-1.6v-.19a3,3,0,0,0-.41-1.79,1.6,1.6,0,0,0-1.33-.53,1.36,1.36,0,0,0-1.2.61,3,3,0,0,0-.42,1.72,2.86,2.86,0,0,0,.42,1.7A1.38,1.38,0,0,0,323.65,53Z" transform="translate(-0.84 -3.19)" fill="#231f20"/><path d="M332.19,53.59V49.78a1.6,1.6,0,0,0-.32-1.08,1.36,1.36,0,0,0-1-.35,1.69,1.69,0,0,0-1.35.5,2.49,2.49,0,0,0-.43,1.65v3.09h-.89V47.7h.72l.15.8h0a1.8,1.8,0,0,1,.77-.67,2.47,2.47,0,0,1,1.1-.24,2.24,2.24,0,0,1,1.6.51,2.2,2.2,0,0,1,.54,1.65v3.84Z" transform="translate(-0.84 -3.19)" fill="#231f20"/><path d="M335.63,45.73l.08.12c-.09.36-.23.78-.4,1.25s-.36.92-.55,1.32h-.65c.25-1,.43-1.91.54-2.69Z" transform="translate(-0.84 -3.19)" fill="#231f20"/><path d="M338.69,53a2.15,2.15,0,0,0,.45,0,1.77,1.77,0,0,0,.35-.07v.68a1.43,1.43,0,0,1-.42.12,3.25,3.25,0,0,1-.51,0q-1.71,0-1.71-1.8v-3.5H336V48l.84-.37.38-1.26h.51V47.7h1.71v.69h-1.71v3.47a1.18,1.18,0,0,0,.26.81A.85.85,0,0,0,338.69,53Z" transform="translate(-0.84 -3.19)" fill="#231f20"/><path d="M345.43,53a2.32,2.32,0,0,0,.46,0,1.81,1.81,0,0,0,.34-.07v.68a1.34,1.34,0,0,1-.42.12,3.25,3.25,0,0,1-.51,0q-1.71,0-1.71-1.8v-3.5h-.84V48l.84-.37.38-1.26h.51V47.7h1.71v.69h-1.71v3.47a1.18,1.18,0,0,0,.26.81A.87.87,0,0,0,345.43,53Z" transform="translate(-0.84 -3.19)" fill="#231f20"/><path d="M351,53.59l-.18-.84h0a2.45,2.45,0,0,1-.88.75,2.66,2.66,0,0,1-1.09.19,2,2,0,0,1-1.37-.45A1.65,1.65,0,0,1,347,52c0-1.19.95-1.81,2.85-1.87l1,0v-.37a1.48,1.48,0,0,0-.3-1,1.22,1.22,0,0,0-.95-.33,3.92,3.92,0,0,0-1.67.45l-.27-.68a4.36,4.36,0,0,1,2-.51,2.22,2.22,0,0,1,1.56.47,1.94,1.94,0,0,1,.51,1.5v4ZM349,53a1.77,1.77,0,0,0,1.3-.46,1.67,1.67,0,0,0,.48-1.28v-.53l-.89,0a3.17,3.17,0,0,0-1.54.33,1,1,0,0,0-.47.91.92.92,0,0,0,.3.74A1.25,1.25,0,0,0,349,53Z" transform="translate(-0.84 -3.19)" fill="#231f20"/><path d="M354.41,50.57c.15-.22.39-.5.7-.86l1.9-2h1.06l-2.38,2.51,2.55,3.38h-1.08l-2.08-2.79-.67.58v2.21h-.88V45.23h.88v4.43c0,.2,0,.5,0,.91Z" transform="translate(-0.84 -3.19)" fill="#231f20"/><path d="M361.79,53.69a2.7,2.7,0,0,1-2.06-.79,3.1,3.1,0,0,1-.76-2.21,3.4,3.4,0,0,1,.71-2.26,2.31,2.31,0,0,1,1.88-.84,2.2,2.2,0,0,1,1.75.73,2.77,2.77,0,0,1,.64,1.92v.56H359.9a2.37,2.37,0,0,0,.52,1.58,1.8,1.8,0,0,0,1.4.53,4.8,4.8,0,0,0,1.88-.39v.79a3.84,3.84,0,0,1-.89.29A5,5,0,0,1,361.79,53.69Zm-.24-5.35a1.45,1.45,0,0,0-1.13.46,2.13,2.13,0,0,0-.5,1.28H363a2,2,0,0,0-.38-1.29A1.32,1.32,0,0,0,361.55,48.34Z" transform="translate(-0.84 -3.19)" fill="#231f20"/><path d="M370.23,53a2.32,2.32,0,0,0,.46,0,1.94,1.94,0,0,0,.35-.07v.68a1.51,1.51,0,0,1-.43.12,3.25,3.25,0,0,1-.51,0c-1.14,0-1.7-.6-1.7-1.8v-3.5h-.85V48l.85-.37.37-1.26h.52V47.7H371v.69h-1.71v3.47a1.17,1.17,0,0,0,.25.81A.88.88,0,0,0,370.23,53Z" transform="translate(-0.84 -3.19)" fill="#231f20"/><path d="M376.24,53.59V49.78a1.6,1.6,0,0,0-.32-1.08,1.36,1.36,0,0,0-1-.35,1.72,1.72,0,0,0-1.36.5,2.61,2.61,0,0,0-.42,1.66v3.08h-.9V45.23h.9v2.53a5.36,5.36,0,0,1-.05.76h.06a1.69,1.69,0,0,1,.75-.67A2.33,2.33,0,0,1,375,47.6a2.2,2.2,0,0,1,1.61.52,2.11,2.11,0,0,1,.54,1.63v3.84Z" transform="translate(-0.84 -3.19)" fill="#231f20"/><path d="M381.45,53.69a2.71,2.71,0,0,1-2.06-.79,3.1,3.1,0,0,1-.75-2.21,3.4,3.4,0,0,1,.7-2.26,2.32,2.32,0,0,1,1.88-.84,2.2,2.2,0,0,1,1.75.73,2.77,2.77,0,0,1,.65,1.92v.56h-4.06a2.32,2.32,0,0,0,.53,1.58,1.79,1.79,0,0,0,1.4.53,4.75,4.75,0,0,0,1.87-.39v.79a3.84,3.84,0,0,1-.89.29A5,5,0,0,1,381.45,53.69Zm-.24-5.35a1.45,1.45,0,0,0-1.13.46,2.13,2.13,0,0,0-.5,1.28h3.08a2,2,0,0,0-.37-1.29A1.34,1.34,0,0,0,381.21,48.34Z" transform="translate(-0.84 -3.19)" fill="#231f20"/><path d="M392.56,51.5a1.91,1.91,0,0,1-.75,1.61,3.23,3.23,0,0,1-2,.58,5.12,5.12,0,0,1-2.15-.36v-.88a4.77,4.77,0,0,0,1.05.32,5.5,5.5,0,0,0,1.13.12,2.25,2.25,0,0,0,1.37-.34,1.15,1.15,0,0,0,.47-1,1.26,1.26,0,0,0-.17-.67,1.57,1.57,0,0,0-.55-.48,8.52,8.52,0,0,0-1.16-.5,3.7,3.7,0,0,1-1.57-.93,2,2,0,0,1-.47-1.4,1.75,1.75,0,0,1,.68-1.44,2.85,2.85,0,0,1,1.81-.54,5.23,5.23,0,0,1,2.15.43l-.28.8a4.74,4.74,0,0,0-1.89-.41,1.82,1.82,0,0,0-1.14.31,1,1,0,0,0-.41.86,1.3,1.3,0,0,0,.15.67,1.32,1.32,0,0,0,.51.48,5.62,5.62,0,0,0,1.09.48,4.12,4.12,0,0,1,1.7.95A1.84,1.84,0,0,1,392.56,51.5Z" transform="translate(-0.84 -3.19)" fill="#231f20"/><path d="M399.1,53.59l-1-2.5H395l-1,2.5h-.92l3.1-7.89H397l3.09,7.89Zm-1.26-3.32-.91-2.44c-.12-.3-.24-.68-.37-1.13a9.88,9.88,0,0,1-.34,1.13l-.92,2.44Z" transform="translate(-0.84 -3.19)" fill="#231f20"/><path d="M403.54,53.59h-.91V46.54h-2.49v-.81H406v.81h-2.49Z" transform="translate(-0.84 -3.19)" fill="#231f20"/><path d="M415,50.64a3.18,3.18,0,0,1-.73,2.24,2.54,2.54,0,0,1-2,.81,2.59,2.59,0,0,1-1.4-.37,2.4,2.4,0,0,1-.95-1.06,3.72,3.72,0,0,1-.33-1.62,3.27,3.27,0,0,1,.72-2.25,2.55,2.55,0,0,1,2-.8,2.52,2.52,0,0,1,2,.82A3.27,3.27,0,0,1,415,50.64Zm-4.49,0a2.82,2.82,0,0,0,.45,1.72,1.79,1.79,0,0,0,2.66,0,2.8,2.8,0,0,0,.45-1.72,2.77,2.77,0,0,0-.45-1.71,1.59,1.59,0,0,0-1.34-.58,1.56,1.56,0,0,0-1.32.57A2.78,2.78,0,0,0,410.53,50.64Z" transform="translate(-0.84 -3.19)" fill="#231f20"/><path d="M419.27,47.59a3,3,0,0,1,.7.07l-.12.82a3.37,3.37,0,0,0-.65-.08A1.58,1.58,0,0,0,418,49a2.12,2.12,0,0,0-.51,1.45v3.16h-.89V47.7h.74l.1,1.09h0a2.65,2.65,0,0,1,.79-.89A1.85,1.85,0,0,1,419.27,47.59Z" transform="translate(-0.84 -3.19)" fill="#231f20"/><path d="M429,53.59l-1-2.5h-3.15l-1,2.5H423l3.11-7.89h.77l3.08,7.89Zm-1.26-3.32-.92-2.44c-.11-.3-.24-.68-.36-1.13a9.88,9.88,0,0,1-.34,1.13l-.92,2.44Z" transform="translate(-0.84 -3.19)" fill="#231f20"/><path d="M434.38,46.44a2.55,2.55,0,0,0-2,.86,3.46,3.46,0,0,0-.75,2.36,3.54,3.54,0,0,0,.72,2.38,2.59,2.59,0,0,0,2.07.84,7.3,7.3,0,0,0,1.87-.29v.8a5.89,5.89,0,0,1-2,.3,3.41,3.41,0,0,1-2.67-1,4.32,4.32,0,0,1-.94-3,4.77,4.77,0,0,1,.45-2.13,3.25,3.25,0,0,1,1.31-1.41,4.05,4.05,0,0,1,2-.49,4.83,4.83,0,0,1,2.15.45l-.38.79A4.18,4.18,0,0,0,434.38,46.44Z" transform="translate(-0.84 -3.19)" fill="#231f20"/><path d="M440.38,53.59h-.91V46.54H437v-.81h5.89v.81h-2.49Z" transform="translate(-0.84 -3.19)" fill="#231f20"/><path d="M449.12,53.69a2.53,2.53,0,0,1-2-.78,3.29,3.29,0,0,1-.7-2.23,3.35,3.35,0,0,1,.71-2.28,2.56,2.56,0,0,1,2-.81,4.09,4.09,0,0,1,.85.09,2.91,2.91,0,0,1,.67.22l-.28.76a3.7,3.7,0,0,0-.64-.2,3,3,0,0,0-.62-.08c-1.2,0-1.79.76-1.79,2.29a2.71,2.71,0,0,0,.43,1.66,1.53,1.53,0,0,0,1.3.58,4,4,0,0,0,1.51-.31v.79A3.27,3.27,0,0,1,449.12,53.69Z" transform="translate(-0.84 -3.19)" fill="#231f20"/><path d="M457.09,50.64a3.18,3.18,0,0,1-.73,2.24,2.54,2.54,0,0,1-2,.81,2.62,2.62,0,0,1-1.4-.37,2.46,2.46,0,0,1-.95-1.06,3.72,3.72,0,0,1-.33-1.62,3.27,3.27,0,0,1,.72-2.25,2.57,2.57,0,0,1,2-.8,2.51,2.51,0,0,1,2,.82A3.22,3.22,0,0,1,457.09,50.64Zm-4.49,0a2.82,2.82,0,0,0,.45,1.72,1.6,1.6,0,0,0,1.33.59,1.57,1.57,0,0,0,1.33-.59,2.8,2.8,0,0,0,.46-1.72,2.77,2.77,0,0,0-.46-1.71,1.83,1.83,0,0,0-2.66,0A2.78,2.78,0,0,0,452.6,50.64Z" transform="translate(-0.84 -3.19)" fill="#231f20"/><path d="M459.54,53.59h-.89V45.23h.89Z" transform="translate(-0.84 -3.19)" fill="#231f20"/><path d="M462.33,53.59h-.9V45.23h.9Z" transform="translate(-0.84 -3.19)" fill="#231f20"/><path d="M466.7,53.69a2.71,2.71,0,0,1-2.06-.79,3.1,3.1,0,0,1-.75-2.21,3.4,3.4,0,0,1,.7-2.26,2.32,2.32,0,0,1,1.88-.84,2.2,2.2,0,0,1,1.75.73,2.77,2.77,0,0,1,.65,1.92v.56h-4.06a2.32,2.32,0,0,0,.53,1.58,1.79,1.79,0,0,0,1.4.53,4.75,4.75,0,0,0,1.87-.39v.79a3.84,3.84,0,0,1-.89.29A5,5,0,0,1,466.7,53.69Zm-.24-5.35a1.45,1.45,0,0,0-1.13.46,2.13,2.13,0,0,0-.5,1.28h3.08a2,2,0,0,0-.37-1.29A1.34,1.34,0,0,0,466.46,48.34Z" transform="translate(-0.84 -3.19)" fill="#231f20"/><path d="M475.21,47.7v.56l-1.1.13a2,2,0,0,1,.27.49,1.88,1.88,0,0,1,.12.69,1.76,1.76,0,0,1-.59,1.38,2.38,2.38,0,0,1-1.62.51,2.67,2.67,0,0,1-.5,0,.87.87,0,0,0-.57.76.4.4,0,0,0,.2.36,1.6,1.6,0,0,0,.69.11h1a2.4,2.4,0,0,1,1.47.4,1.41,1.41,0,0,1,.51,1.18,1.68,1.68,0,0,1-.78,1.49,4.25,4.25,0,0,1-2.29.51,3.08,3.08,0,0,1-1.78-.43,1.46,1.46,0,0,1-.29-2.14,1.78,1.78,0,0,1,1-.54.86.86,0,0,1-.53-.81,1,1,0,0,1,.17-.57,2,2,0,0,1,.54-.46,1.63,1.63,0,0,1-.74-.64,2.11,2.11,0,0,1,.29-2.52,2.39,2.39,0,0,1,1.65-.53,3.09,3.09,0,0,1,.83.11Zm-4.7,6.87a.81.81,0,0,0,.4.73,2.3,2.3,0,0,0,1.16.25,3.24,3.24,0,0,0,1.66-.34,1,1,0,0,0,.54-.91.71.71,0,0,0-.3-.66,2.17,2.17,0,0,0-1.11-.19h-1.07a1.41,1.41,0,0,0-.94.29A1,1,0,0,0,470.51,54.57Zm.48-5a1.21,1.21,0,0,0,.35.94,1.42,1.42,0,0,0,1,.32,1.14,1.14,0,0,0,1.31-1.27,1.17,1.17,0,0,0-1.32-1.33,1.3,1.3,0,0,0-1,.34A1.39,1.39,0,0,0,471,49.58Z" transform="translate(-0.84 -3.19)" fill="#231f20"/><path d="M478.9,53.69a2.7,2.7,0,0,1-2.06-.79,3.1,3.1,0,0,1-.75-2.21,3.4,3.4,0,0,1,.7-2.26,2.31,2.31,0,0,1,1.88-.84,2.2,2.2,0,0,1,1.75.73,2.77,2.77,0,0,1,.65,1.92v.56H477a2.37,2.37,0,0,0,.52,1.58,1.82,1.82,0,0,0,1.4.53,4.8,4.8,0,0,0,1.88-.39v.79a3.84,3.84,0,0,1-.89.29A5,5,0,0,1,478.9,53.69Zm-.24-5.35a1.45,1.45,0,0,0-1.13.46,2.13,2.13,0,0,0-.5,1.28h3.08a2,2,0,0,0-.38-1.29A1.31,1.31,0,0,0,478.66,48.34Z" transform="translate(-0.84 -3.19)" fill="#231f20"/><path d="M313.11,67.69a2.7,2.7,0,0,1-2.06-.79,3.1,3.1,0,0,1-.75-2.21,3.4,3.4,0,0,1,.7-2.26,2.31,2.31,0,0,1,1.88-.84,2.2,2.2,0,0,1,1.75.73,2.77,2.77,0,0,1,.65,1.92v.56h-4.06a2.37,2.37,0,0,0,.52,1.58,1.82,1.82,0,0,0,1.4.53,4.8,4.8,0,0,0,1.88-.39v.79a3.84,3.84,0,0,1-.89.29A5,5,0,0,1,313.11,67.69Zm-.24-5.35a1.45,1.45,0,0,0-1.13.46,2.13,2.13,0,0,0-.5,1.28h3.08a2,2,0,0,0-.38-1.29A1.32,1.32,0,0,0,312.87,62.34Z" transform="translate(-0.84 -3.19)" fill="#231f20"/><path d="M320.82,67.59V63.78a1.6,1.6,0,0,0-.32-1.08,1.36,1.36,0,0,0-1-.35,1.68,1.68,0,0,0-1.35.5,2.49,2.49,0,0,0-.43,1.65v3.09h-.89V61.7h.72l.15.8h0a1.8,1.8,0,0,1,.77-.67,2.47,2.47,0,0,1,1.1-.24,2.24,2.24,0,0,1,1.6.51,2.2,2.2,0,0,1,.54,1.65v3.84Z" transform="translate(-0.84 -3.19)" fill="#231f20"/><path d="M325.45,67a2.15,2.15,0,0,0,.45,0,1.77,1.77,0,0,0,.35-.07v.68a1.43,1.43,0,0,1-.42.12,3.25,3.25,0,0,1-.51,0q-1.71,0-1.71-1.8v-3.5h-.84V62l.84-.37.38-1.26h.51V61.7h1.71v.69H324.5v3.47a1.18,1.18,0,0,0,.26.81A.85.85,0,0,0,325.45,67Z" transform="translate(-0.84 -3.19)" fill="#231f20"/><path d="M330.12,61.59a3,3,0,0,1,.7.07l-.12.82a3.37,3.37,0,0,0-.65-.08,1.6,1.6,0,0,0-1.22.58,2.12,2.12,0,0,0-.51,1.45v3.16h-.89V61.7h.74l.1,1.09h0a2.65,2.65,0,0,1,.79-.89A1.85,1.85,0,0,1,330.12,61.59Z" transform="translate(-0.84 -3.19)" fill="#231f20"/><path d="M335.54,67.59l-.18-.84h0a2.45,2.45,0,0,1-.88.75,2.66,2.66,0,0,1-1.09.19,2,2,0,0,1-1.37-.45,1.65,1.65,0,0,1-.5-1.28c0-1.19.95-1.81,2.85-1.87l1,0v-.37a1.48,1.48,0,0,0-.3-1,1.22,1.22,0,0,0-.95-.33,3.92,3.92,0,0,0-1.67.45l-.27-.68a4.36,4.36,0,0,1,2-.51,2.26,2.26,0,0,1,1.56.47,1.94,1.94,0,0,1,.51,1.5v4Zm-2-.63a1.77,1.77,0,0,0,1.3-.46,1.67,1.67,0,0,0,.48-1.28v-.53l-.89,0a3.17,3.17,0,0,0-1.54.33,1,1,0,0,0-.47.91.92.92,0,0,0,.3.74A1.25,1.25,0,0,0,333.53,67Z" transform="translate(-0.84 -3.19)" fill="#231f20"/><path d="M342.07,67.59V63.78a1.55,1.55,0,0,0-.33-1.08,1.36,1.36,0,0,0-1-.35,1.71,1.71,0,0,0-1.35.5,2.49,2.49,0,0,0-.43,1.65v3.09H338V61.7h.72l.15.8h0a1.8,1.8,0,0,1,.77-.67,2.5,2.5,0,0,1,1.1-.24,2.24,2.24,0,0,1,1.6.51,2.2,2.2,0,0,1,.54,1.65v3.84Z" transform="translate(-0.84 -3.19)" fill="#231f20"/><path d="M347.14,67.69a2.53,2.53,0,0,1-2-.78,3.29,3.29,0,0,1-.7-2.23,3.35,3.35,0,0,1,.71-2.28,2.56,2.56,0,0,1,2-.81,4.09,4.09,0,0,1,.85.09,3.09,3.09,0,0,1,.67.22l-.28.76a3.7,3.7,0,0,0-.64-.2,3.1,3.1,0,0,0-.62-.08c-1.2,0-1.79.76-1.79,2.29a2.71,2.71,0,0,0,.43,1.66,1.53,1.53,0,0,0,1.3.58,4,4,0,0,0,1.51-.31v.79A3.27,3.27,0,0,1,347.14,67.69Z" transform="translate(-0.84 -3.19)" fill="#231f20"/><path d="M352.51,67.69a2.71,2.71,0,0,1-2.06-.79,3.1,3.1,0,0,1-.75-2.21,3.4,3.4,0,0,1,.7-2.26,2.32,2.32,0,0,1,1.88-.84,2.2,2.2,0,0,1,1.75.73,2.77,2.77,0,0,1,.65,1.92v.56h-4.06a2.32,2.32,0,0,0,.53,1.58,1.79,1.79,0,0,0,1.4.53,4.84,4.84,0,0,0,1.88-.39v.79a4.06,4.06,0,0,1-.9.29A5,5,0,0,1,352.51,67.69Zm-.24-5.35a1.45,1.45,0,0,0-1.13.46,2.13,2.13,0,0,0-.5,1.28h3.08a2,2,0,0,0-.37-1.29A1.33,1.33,0,0,0,352.27,62.34Z" transform="translate(-0.84 -3.19)" fill="#231f20"/><path d="M361.54,67.69a2.7,2.7,0,0,1-2.06-.79,3.1,3.1,0,0,1-.75-2.21,3.4,3.4,0,0,1,.7-2.26,2.32,2.32,0,0,1,1.88-.84,2.2,2.2,0,0,1,1.75.73,2.77,2.77,0,0,1,.65,1.92v.56h-4.06a2.37,2.37,0,0,0,.52,1.58,1.82,1.82,0,0,0,1.4.53,4.8,4.8,0,0,0,1.88-.39v.79a3.84,3.84,0,0,1-.89.29A5,5,0,0,1,361.54,67.69Zm-.24-5.35a1.45,1.45,0,0,0-1.13.46,2.13,2.13,0,0,0-.5,1.28h3.08a1.91,1.91,0,0,0-.38-1.29A1.31,1.31,0,0,0,361.3,62.34Z" transform="translate(-0.84 -3.19)" fill="#231f20"/><path d="M366.64,64.57l-2-2.87h1L367.17,64l1.54-2.26h1l-2.05,2.87,2.15,3h-1l-1.64-2.39-1.67,2.39h-1Z" transform="translate(-0.84 -3.19)" fill="#231f20"/><path d="M374.61,67.59l-.18-.84h0a2.45,2.45,0,0,1-.88.75,2.66,2.66,0,0,1-1.09.19,2,2,0,0,1-1.37-.45,1.65,1.65,0,0,1-.5-1.28c0-1.19.95-1.81,2.85-1.87l1,0v-.37a1.48,1.48,0,0,0-.3-1,1.22,1.22,0,0,0-1-.33,3.92,3.92,0,0,0-1.67.45l-.27-.68a4.36,4.36,0,0,1,2-.51,2.24,2.24,0,0,1,1.56.47,1.94,1.94,0,0,1,.51,1.5v4Zm-2-.63a1.77,1.77,0,0,0,1.3-.46,1.67,1.67,0,0,0,.48-1.28v-.53l-.89,0a3.17,3.17,0,0,0-1.54.33,1,1,0,0,0-.47.91.92.92,0,0,0,.3.74A1.25,1.25,0,0,0,372.6,67Z" transform="translate(-0.84 -3.19)" fill="#231f20"/><path d="M384.61,67.59V63.76a1.61,1.61,0,0,0-.3-1.06,1.17,1.17,0,0,0-.93-.35,1.49,1.49,0,0,0-1.23.48,2.24,2.24,0,0,0-.4,1.47v3.29h-.89V63.76a1.61,1.61,0,0,0-.3-1.06,1.19,1.19,0,0,0-.94-.35,1.47,1.47,0,0,0-1.23.5A2.72,2.72,0,0,0,378,64.5v3.09h-.89V61.7h.72l.15.8h0a1.83,1.83,0,0,1,.71-.67,2.2,2.2,0,0,1,1-.24,1.76,1.76,0,0,1,1.81,1h0a1.85,1.85,0,0,1,.76-.73,2.34,2.34,0,0,1,1.14-.27,2,2,0,0,1,1.5.51,2.33,2.33,0,0,1,.49,1.65v3.84Z" transform="translate(-0.84 -3.19)" fill="#231f20"/><path d="M391.14,66a1.5,1.5,0,0,1-.61,1.27,3,3,0,0,1-1.72.44,3.73,3.73,0,0,1-1.83-.37V66.5a4.47,4.47,0,0,0,.91.33,3.49,3.49,0,0,0,.94.13,2.1,2.1,0,0,0,1.07-.23.72.72,0,0,0,.38-.67.73.73,0,0,0-.3-.59,4.47,4.47,0,0,0-1.16-.58,6.16,6.16,0,0,1-1.17-.53,1.83,1.83,0,0,1-.52-.52,1.42,1.42,0,0,1-.17-.7,1.32,1.32,0,0,1,.59-1.13,2.7,2.7,0,0,1,1.61-.42A4.62,4.62,0,0,1,391,62l-.31.72a4.33,4.33,0,0,0-1.61-.36,1.81,1.81,0,0,0-1,.2.61.61,0,0,0-.32.54.69.69,0,0,0,.12.41,1.18,1.18,0,0,0,.39.31,9.27,9.27,0,0,0,1,.44,3.81,3.81,0,0,1,1.42.77A1.38,1.38,0,0,1,391.14,66Z" transform="translate(-0.84 -3.19)" fill="#231f20"/><path d="M316.94,22.39l-1-2.78h-3.82l-1,2.78h-1.72l3.74-10h1.78l3.74,10Zm-1.43-4.19-.93-2.72c-.07-.18-.17-.47-.29-.86s-.2-.68-.25-.86a14.54,14.54,0,0,1-.54,1.84l-.9,2.6Z" transform="translate(-0.84 -3.19)" fill="#231f20"/><path d="M325.69,12.39h1.7l-3.5,10h-1.73l-3.48-10h1.68l2.08,6.22a10.83,10.83,0,0,1,.35,1.14,8.9,8.9,0,0,1,.24,1,12.3,12.3,0,0,1,.28-1.2c.12-.46.22-.79.3-1Z" transform="translate(-0.84 -3.19)" fill="#231f20"/><path d="M334.36,22.39h-5.65v-10h5.65v1.38h-4v2.72h3.77v1.37h-3.77V21h4Z" transform="translate(-0.84 -3.19)" fill="#231f20"/><path d="M338.15,18.39v4h-1.63v-10h2.82a4.61,4.61,0,0,1,2.87.73,2.59,2.59,0,0,1,.93,2.18A2.72,2.72,0,0,1,341.19,18L344,22.39h-1.86l-2.39-4Zm0-1.35h1.14a2.59,2.59,0,0,0,1.65-.42,1.55,1.55,0,0,0,.51-1.26,1.35,1.35,0,0,0-.55-1.22,3.08,3.08,0,0,0-1.67-.37h-1.08Z" transform="translate(-0.84 -3.19)" fill="#231f20"/><path d="M351.67,22.39l-1-2.78h-3.82l-1,2.78h-1.72l3.74-10h1.77l3.74,10Zm-1.43-4.19-.94-2.72c-.07-.18-.16-.47-.28-.86s-.21-.68-.25-.86a14.54,14.54,0,0,1-.54,1.84l-.9,2.6Z" transform="translate(-0.84 -3.19)" fill="#231f20"/><path d="M358.81,17h3.68v5a10.09,10.09,0,0,1-1.73.42,12.74,12.74,0,0,1-1.8.12,4.49,4.49,0,0,1-3.5-1.34,5.4,5.4,0,0,1-1.23-3.79,5,5,0,0,1,1.39-3.78,5.2,5.2,0,0,1,3.82-1.36,7.51,7.51,0,0,1,3,.6l-.58,1.36a5.81,5.81,0,0,0-2.43-.56,3.28,3.28,0,0,0-2.53,1,3.87,3.87,0,0,0-.93,2.74,4.1,4.1,0,0,0,.84,2.79,3.05,3.05,0,0,0,2.41.95,7.39,7.39,0,0,0,1.69-.2V18.37h-2.07Z" transform="translate(-0.84 -3.19)" fill="#231f20"/><path d="M370.54,22.39h-5.65v-10h5.65v1.38h-4v2.72h3.77v1.37h-3.77V21h4Z" transform="translate(-0.84 -3.19)" fill="#231f20"/><path d="M378,18.39v4h-1.63v-10h2.82a4.61,4.61,0,0,1,2.87.73A2.59,2.59,0,0,1,383,15.3,2.72,2.72,0,0,1,381,18l2.83,4.43H382l-2.39-4ZM378,17h1.14a2.59,2.59,0,0,0,1.65-.42,1.55,1.55,0,0,0,.51-1.26,1.35,1.35,0,0,0-.55-1.22,3.08,3.08,0,0,0-1.67-.37H378Z" transform="translate(-0.84 -3.19)" fill="#231f20"/><path d="M390.94,22.39h-5.65v-10h5.65v1.38h-4v2.72h3.77v1.37h-3.77V21h4Z" transform="translate(-0.84 -3.19)" fill="#231f20"/><path d="M399.3,22.39l-1-2.78h-3.82l-1,2.78h-1.72l3.74-10h1.78l3.74,10Zm-1.43-4.19-.93-2.72c-.07-.18-.17-.47-.29-.86s-.2-.68-.25-.86a14.54,14.54,0,0,1-.54,1.84l-.9,2.6Z" transform="translate(-0.84 -3.19)" fill="#231f20"/><path d="M410.48,17.29a5,5,0,0,1-1.37,3.79,5.55,5.55,0,0,1-4,1.31h-2.79v-10h3.09a5.11,5.11,0,0,1,3.71,1.29A4.8,4.8,0,0,1,410.48,17.29Zm-1.72.06q0-3.59-3.36-3.59H404V21h1.16Q408.77,21,408.76,17.35Z" transform="translate(-0.84 -3.19)" fill="#231f20"/><path d="M412.63,22.39v-10h1.63v10Z" transform="translate(-0.84 -3.19)" fill="#231f20"/><path d="M425.23,22.39h-2l-4.92-8h-.05l0,.45c.06.84.1,1.62.1,2.32v5.2H416.9v-10h2l4.9,7.93h0c0-.11,0-.49-.06-1.15s0-1.17,0-1.54V12.39h1.5Z" transform="translate(-0.84 -3.19)" fill="#231f20"/><path d="M432,17h3.67v5a10.09,10.09,0,0,1-1.73.42,12.5,12.5,0,0,1-1.79.12,4.48,4.48,0,0,1-3.5-1.34,5.4,5.4,0,0,1-1.23-3.79,5.08,5.08,0,0,1,1.38-3.78,5.22,5.22,0,0,1,3.82-1.36,7.44,7.44,0,0,1,3,.6L435,14.21a5.86,5.86,0,0,0-2.44-.56,3.29,3.29,0,0,0-2.53,1,3.87,3.87,0,0,0-.93,2.74,4.1,4.1,0,0,0,.84,2.79,3.05,3.05,0,0,0,2.41.95,7.48,7.48,0,0,0,1.7-.2V18.37H432Z" transform="translate(-0.84 -3.19)" fill="#231f20"/><path d="M447.43,19.67a2.51,2.51,0,0,1-1,2.09,4.17,4.17,0,0,1-2.66.76A6.39,6.39,0,0,1,441,22V20.45a7.63,7.63,0,0,0,1.46.51,6.29,6.29,0,0,0,1.43.18,2.25,2.25,0,0,0,1.43-.37,1.18,1.18,0,0,0,.46-1,1.25,1.25,0,0,0-.42-1,6.26,6.26,0,0,0-1.75-.92,4.58,4.58,0,0,1-1.93-1.27,2.67,2.67,0,0,1-.56-1.7,2.4,2.4,0,0,1,.89-2,3.67,3.67,0,0,1,2.38-.72,7,7,0,0,1,2.86.63l-.52,1.33a6.31,6.31,0,0,0-2.38-.56,1.81,1.81,0,0,0-1.2.35,1.14,1.14,0,0,0-.41.91,1.24,1.24,0,0,0,.16.66,1.71,1.71,0,0,0,.54.53,10.57,10.57,0,0,0,1.36.65,7.39,7.39,0,0,1,1.61.85,2.53,2.53,0,0,1,.75.9A2.66,2.66,0,0,1,447.43,19.67Z" transform="translate(-0.84 -3.19)" fill="#231f20"/><path d="M453.62,13.65a2.69,2.69,0,0,0-2.22,1,4.29,4.29,0,0,0-.8,2.75,4.36,4.36,0,0,0,.77,2.79,2.78,2.78,0,0,0,2.25.94,5.58,5.58,0,0,0,1.23-.13c.4-.08.81-.19,1.24-.32v1.4a7.48,7.48,0,0,1-2.67.44,4.25,4.25,0,0,1-3.37-1.33,5.56,5.56,0,0,1-1.18-3.8,6,6,0,0,1,.58-2.73,4.09,4.09,0,0,1,1.65-1.79,5,5,0,0,1,2.53-.62,6.26,6.26,0,0,1,2.83.64l-.59,1.36a8.35,8.35,0,0,0-1.06-.42A3.94,3.94,0,0,0,453.62,13.65Z" transform="translate(-0.84 -3.19)" fill="#231f20"/><path d="M467.11,17.38a5.43,5.43,0,0,1-1.22,3.79,5.14,5.14,0,0,1-6.93,0,5.49,5.49,0,0,1-1.21-3.82,5.39,5.39,0,0,1,1.22-3.8,4.49,4.49,0,0,1,3.48-1.32,4.41,4.41,0,0,1,3.45,1.34A5.47,5.47,0,0,1,467.11,17.38Zm-7.63,0a4.47,4.47,0,0,0,.75,2.8,3,3,0,0,0,4.41,0,4.53,4.53,0,0,0,.74-2.81,4.49,4.49,0,0,0-.74-2.79,2.58,2.58,0,0,0-2.19-.95,2.64,2.64,0,0,0-2.22.95A4.42,4.42,0,0,0,459.48,17.38Z" transform="translate(-0.84 -3.19)" fill="#231f20"/><path d="M470.89,18.39v4h-1.63v-10h2.82a4.61,4.61,0,0,1,2.87.73,2.59,2.59,0,0,1,.93,2.18A2.73,2.73,0,0,1,473.94,18l2.82,4.43H474.9l-2.39-4Zm0-1.35H472a2.59,2.59,0,0,0,1.65-.42,1.55,1.55,0,0,0,.51-1.26,1.35,1.35,0,0,0-.55-1.22,3.08,3.08,0,0,0-1.67-.37h-1.08Z" transform="translate(-0.84 -3.19)" fill="#231f20"/><path d="M483.86,22.39h-5.65v-10h5.65v1.38h-4v2.72h3.77v1.37h-3.77V21h4Z" transform="translate(-0.84 -3.19)" fill="#231f20"/></svg>