<svg id="Layer_1" data-name="Layer 1" xmlns="http://www.w3.org/2000/svg" width="661.16" height="277.22" viewBox="0 0 661.16 277.22"><title>PrepArticle1_MilitaryRecruiter_Overall</title><line x1="106.85" y1="217.76" x2="106.85" y2="247.66" fill="none" stroke="#231f20" stroke-miterlimit="10"/><circle cx="106.98" cy="247.82" r="2.72" fill="#fff" stroke="#231f20" stroke-miterlimit="10"/><line x1="107.04" y1="64.61" x2="107.04" y2="36.51" fill="none" stroke="#231f20" stroke-miterlimit="10"/><circle cx="106.9" cy="36.35" r="2.72" fill="#fff" stroke="#231f20" stroke-miterlimit="10"/><path d="M105.49,144.77,43,205.13A86.9,86.9,0,1,1,169.05,204Z" transform="translate(-0.64 -3.43)" fill="#00aeef" fill-rule="evenodd"/><path d="M105.49,144.77,169.05,204a86.88,86.88,0,0,1-122.82,4.29c-1.41-1.31-1.91-1.8-3.25-3.19Z" transform="translate(-0.64 -3.43)" fill="#262b69" fill-rule="evenodd"/><circle cx="104.7" cy="141.34" r="57.79" fill="#fff"/><path d="M2.66,20.57,9.09,6.5H.64v-3h12.3V5.73L6.46,20.57Z" transform="translate(-0.64 -3.43)" fill="#231f20"/><path d="M27,17H25v3.55H21.42V17H14.11V14.5L21.62,3.43H25V14.2H27Zm-5.6-2.82V11.3c0-.49,0-1.19.06-2.11s.07-1.46.09-1.61h-.09a13.91,13.91,0,0,1-1,1.88L17.3,14.2Z" transform="translate(-0.64 -3.43)" fill="#231f20"/><path d="M32.18,13.55a4.32,4.32,0,0,1-.52,2.36,1.72,1.72,0,0,1-1.53.79,1.68,1.68,0,0,1-1.49-.81,4.31,4.31,0,0,1-.53-2.34,4.37,4.37,0,0,1,.51-2.34,1.68,1.68,0,0,1,1.51-.78,1.72,1.72,0,0,1,1.52.81A4.16,4.16,0,0,1,32.18,13.55Zm-3.13,0a4.56,4.56,0,0,0,.26,1.75.85.85,0,0,0,.82.58c.74,0,1.12-.78,1.12-2.33s-.38-2.31-1.12-2.31a.84.84,0,0,0-.82.58A4.45,4.45,0,0,0,29.05,13.55Zm7.39-3-5.54,10h-1l5.55-10Zm1.77,7a4.3,4.3,0,0,1-.53,2.35,1.72,1.72,0,0,1-1.53.79,1.68,1.68,0,0,1-1.5-.81,4.4,4.4,0,0,1-.52-2.33,4.32,4.32,0,0,1,.51-2.34,1.69,1.69,0,0,1,1.51-.79,1.71,1.71,0,0,1,1.51.81A4.14,4.14,0,0,1,38.21,17.56Zm-3.14,0a4.6,4.6,0,0,0,.25,1.75.86.86,0,0,0,.83.57.91.91,0,0,0,.85-.57,4.28,4.28,0,0,0,.27-1.75A4.18,4.18,0,0,0,37,15.83a.91.91,0,0,0-.85-.57.86.86,0,0,0-.83.57A4.41,4.41,0,0,0,35.07,17.56Z" transform="translate(-0.64 -3.43)" fill="#231f20"/><path d="M46.73,19.78h0a2.1,2.1,0,0,1-1.85.89,2.18,2.18,0,0,1-1.8-.79,3.44,3.44,0,0,1-.64-2.24A3.53,3.53,0,0,1,43,15.38a2.17,2.17,0,0,1,1.8-.81,2.12,2.12,0,0,1,1.83.87h.07l0-.42,0-.42V12.21h.89v8.36h-.73ZM45,19.93a1.61,1.61,0,0,0,1.32-.5,2.47,2.47,0,0,0,.42-1.6v-.19a2.94,2.94,0,0,0-.42-1.79,1.6,1.6,0,0,0-1.33-.53,1.36,1.36,0,0,0-1.2.61,3,3,0,0,0-.42,1.72,2.86,2.86,0,0,0,.42,1.7A1.38,1.38,0,0,0,45,19.93Z" transform="translate(-0.64 -3.43)" fill="#231f20"/><path d="M49.39,13.08a.57.57,0,0,1,.15-.44.52.52,0,0,1,.38-.15.51.51,0,0,1,.37.15.59.59,0,0,1,.15.44.6.6,0,0,1-.15.45.51.51,0,0,1-.37.15.52.52,0,0,1-.38-.15A.6.6,0,0,1,49.39,13.08Zm1,7.49h-.89V14.68h.89Z" transform="translate(-0.64 -3.43)" fill="#231f20"/><path d="M56.26,19.78h0a2.09,2.09,0,0,1-1.85.89,2.18,2.18,0,0,1-1.8-.79,3.49,3.49,0,0,1-.64-2.24,3.54,3.54,0,0,1,.65-2.26,2.38,2.38,0,0,1,3.63.06h.07l0-.42,0-.42V12.21h.89v8.36h-.73Zm-1.79.15a1.65,1.65,0,0,0,1.33-.5,2.54,2.54,0,0,0,.41-1.6v-.19a2.94,2.94,0,0,0-.42-1.79,1.6,1.6,0,0,0-1.33-.53,1.36,1.36,0,0,0-1.2.61,3,3,0,0,0-.41,1.72,2.86,2.86,0,0,0,.41,1.7A1.39,1.39,0,0,0,54.47,19.93Z" transform="translate(-0.64 -3.43)" fill="#231f20"/><path d="M63,20.57V16.76a1.55,1.55,0,0,0-.33-1.08,1.35,1.35,0,0,0-1-.35,1.72,1.72,0,0,0-1.36.5,2.49,2.49,0,0,0-.43,1.65v3.09H59V14.68h.73l.14.81h0a1.89,1.89,0,0,1,.77-.68,2.5,2.5,0,0,1,1.1-.24,2.23,2.23,0,0,1,1.6.51,2.2,2.2,0,0,1,.54,1.65v3.84Z" transform="translate(-0.64 -3.43)" fill="#231f20"/><path d="M66.46,12.71l.08.12c-.1.36-.23.78-.41,1.25a13.89,13.89,0,0,1-.54,1.32h-.66c.25-1,.43-1.91.55-2.69Z" transform="translate(-0.64 -3.43)" fill="#231f20"/><path d="M69.51,19.94a2.32,2.32,0,0,0,.46,0,1.94,1.94,0,0,0,.35-.07v.68a1.51,1.51,0,0,1-.43.12,3.25,3.25,0,0,1-.51,0c-1.14,0-1.7-.6-1.7-1.8v-3.5h-.85v-.43l.85-.37.37-1.25h.52v1.36h1.7v.69h-1.7v3.47a1.17,1.17,0,0,0,.25.81A.88.88,0,0,0,69.51,19.94Z" transform="translate(-0.64 -3.43)" fill="#231f20"/><path d="M76.25,19.94a2.32,2.32,0,0,0,.46,0,1.94,1.94,0,0,0,.35-.07v.68a1.51,1.51,0,0,1-.43.12,3.25,3.25,0,0,1-.51,0c-1.13,0-1.7-.6-1.7-1.8v-3.5h-.85v-.43l.85-.37.37-1.25h.52v1.36H77v.69H75.31v3.47a1.17,1.17,0,0,0,.25.81A.88.88,0,0,0,76.25,19.94Z" transform="translate(-0.64 -3.43)" fill="#231f20"/><path d="M81.85,20.57l-.17-.84h-.05a2.43,2.43,0,0,1-.87.75,2.75,2.75,0,0,1-1.1.19,2,2,0,0,1-1.37-.45,1.65,1.65,0,0,1-.5-1.28c0-1.19,1-1.81,2.86-1.87l1,0v-.37a1.48,1.48,0,0,0-.3-1,1.24,1.24,0,0,0-1-.33,3.88,3.88,0,0,0-1.66.45l-.27-.68a4,4,0,0,1,1-.37,4.07,4.07,0,0,1,1-.14,2.26,2.26,0,0,1,1.56.47,1.94,1.94,0,0,1,.51,1.5v4Zm-2-.63a1.79,1.79,0,0,0,1.31-.46,1.67,1.67,0,0,0,.47-1.28v-.53l-.89,0A3.1,3.1,0,0,0,79.2,18a1,1,0,0,0-.47.91,1,1,0,0,0,.29.74A1.27,1.27,0,0,0,79.84,19.94Z" transform="translate(-0.64 -3.43)" fill="#231f20"/><path d="M85.24,20.57h-.89V12.21h.89Z" transform="translate(-0.64 -3.43)" fill="#231f20"/><path d="M88,17.55a9.24,9.24,0,0,1,.7-.86l1.9-2h1.06l-2.39,2.51,2.56,3.38H90.77l-2.08-2.79-.67.58v2.21h-.89V12.21H88v4.43c0,.2,0,.5,0,.91Z" transform="translate(-0.64 -3.43)" fill="#231f20"/><path d="M100.57,20.57l-1.08-3.46c-.06-.21-.19-.69-.38-1.44h0c-.14.63-.27,1.11-.38,1.45l-1.11,3.45h-1l-1.61-5.89h.94l.87,3.38c.19.77.31,1.29.34,1.56h0c0-.2.1-.47.19-.79s.16-.58.23-.77l1.08-3.38h1l1.05,3.38a12.59,12.59,0,0,1,.41,1.55h0a3.85,3.85,0,0,1,.12-.6c.06-.26.43-1.71,1.11-4.33h.93l-1.63,5.89Z" transform="translate(-0.64 -3.43)" fill="#231f20"/><path d="M104.25,13.08a.57.57,0,0,1,.15-.44.53.53,0,0,1,.74,0,.55.55,0,0,1,.16.44.56.56,0,0,1-.16.45.53.53,0,0,1-.74,0A.6.6,0,0,1,104.25,13.08Zm1,7.49h-.89V14.68h.89Z" transform="translate(-0.64 -3.43)" fill="#231f20"/><path d="M109,19.94a2.22,2.22,0,0,0,.45,0,1.77,1.77,0,0,0,.35-.07v.68a1.51,1.51,0,0,1-.43.12,3,3,0,0,1-.5,0q-1.71,0-1.71-1.8v-3.5h-.84v-.43l.84-.37.37-1.25h.52v1.36h1.71v.69h-1.71v3.47a1.17,1.17,0,0,0,.25.81A.89.89,0,0,0,109,19.94Z" transform="translate(-0.64 -3.43)" fill="#231f20"/><path d="M115,20.57V16.76a1.55,1.55,0,0,0-.33-1.08,1.36,1.36,0,0,0-1-.35,1.68,1.68,0,0,0-1.35.5,2.54,2.54,0,0,0-.43,1.66v3.08H111V12.21h.89v2.53a5.44,5.44,0,0,1,0,.76h0a1.81,1.81,0,0,1,.75-.67,2.33,2.33,0,0,1,1.11-.25,2.24,2.24,0,0,1,1.62.52,2.15,2.15,0,0,1,.54,1.63v3.84Z" transform="translate(-0.64 -3.43)" fill="#231f20"/><path d="M124.22,20.57l-.18-.84h0a2.53,2.53,0,0,1-.88.75,2.7,2.7,0,0,1-1.09.19,2,2,0,0,1-1.38-.45,1.64,1.64,0,0,1-.49-1.28c0-1.19,1-1.81,2.85-1.87l1,0v-.37a1.48,1.48,0,0,0-.3-1,1.23,1.23,0,0,0-.95-.33,3.92,3.92,0,0,0-1.67.45l-.27-.68a4,4,0,0,1,1-.37,4.13,4.13,0,0,1,1-.14,2.26,2.26,0,0,1,1.56.47,1.94,1.94,0,0,1,.51,1.5v4Zm-2-.63a1.79,1.79,0,0,0,1.31-.46A1.67,1.67,0,0,0,124,18.2v-.53l-.9,0a3.13,3.13,0,0,0-1.53.33,1,1,0,0,0-.47.91,1,1,0,0,0,.29.74A1.27,1.27,0,0,0,122.2,19.94Z" transform="translate(-0.64 -3.43)" fill="#231f20"/><path d="M137.08,20.57V16.74a1.61,1.61,0,0,0-.3-1.06,1.21,1.21,0,0,0-.94-.35,1.52,1.52,0,0,0-1.23.48,2.3,2.3,0,0,0-.4,1.47v3.29h-.89V16.74a1.61,1.61,0,0,0-.3-1.06,1.18,1.18,0,0,0-.94-.35,1.47,1.47,0,0,0-1.23.5,2.74,2.74,0,0,0-.39,1.65v3.09h-.89V14.68h.73l.14.81h.05a1.73,1.73,0,0,1,.71-.68,2.17,2.17,0,0,1,1-.24,1.75,1.75,0,0,1,1.8,1h0a1.87,1.87,0,0,1,.77-.73,2.33,2.33,0,0,1,1.13-.27,2,2,0,0,1,1.5.51,2.33,2.33,0,0,1,.5,1.65v3.84Z" transform="translate(-0.64 -3.43)" fill="#231f20"/><path d="M139.73,13.08a.57.57,0,0,1,.15-.44.5.5,0,0,1,.37-.15.54.54,0,0,1,.38.15.59.59,0,0,1,.15.44.6.6,0,0,1-.15.45.54.54,0,0,1-.38.15.5.5,0,0,1-.37-.15A.6.6,0,0,1,139.73,13.08Zm1,7.49h-.9V14.68h.9Z" transform="translate(-0.64 -3.43)" fill="#231f20"/><path d="M143.48,20.57h-.89V12.21h.89Z" transform="translate(-0.64 -3.43)" fill="#231f20"/><path d="M145.29,13.08a.57.57,0,0,1,.15-.44.52.52,0,0,1,.38-.15.51.51,0,0,1,.37.15.59.59,0,0,1,.16.44.6.6,0,0,1-.16.45.51.51,0,0,1-.37.15.52.52,0,0,1-.38-.15A.6.6,0,0,1,145.29,13.08Zm1,7.49h-.89V14.68h.89Z" transform="translate(-0.64 -3.43)" fill="#231f20"/><path d="M150.05,19.94a2.32,2.32,0,0,0,.46,0,1.94,1.94,0,0,0,.35-.07v.68a1.51,1.51,0,0,1-.43.12,3.25,3.25,0,0,1-.51,0q-1.71,0-1.71-1.8v-3.5h-.84v-.43l.84-.37.38-1.25h.52v1.36h1.7v.69h-1.7v3.47a1.17,1.17,0,0,0,.25.81A.88.88,0,0,0,150.05,19.94Z" transform="translate(-0.64 -3.43)" fill="#231f20"/><path d="M155.65,20.57l-.17-.84h0a2.37,2.37,0,0,1-.88.75,2.66,2.66,0,0,1-1.09.19,2,2,0,0,1-1.37-.45,1.65,1.65,0,0,1-.5-1.28c0-1.19.95-1.81,2.86-1.87l1,0v-.37a1.53,1.53,0,0,0-.29-1,1.24,1.24,0,0,0-1-.33,3.88,3.88,0,0,0-1.66.45l-.28-.68a4.45,4.45,0,0,1,2-.51,2.26,2.26,0,0,1,1.56.47,2,2,0,0,1,.5,1.5v4Zm-2-.63a1.81,1.81,0,0,0,1.31-.46,1.71,1.71,0,0,0,.47-1.28v-.53l-.89,0A3.1,3.1,0,0,0,153,18a1,1,0,0,0-.47.91,1,1,0,0,0,.29.74A1.27,1.27,0,0,0,153.64,19.94Z" transform="translate(-0.64 -3.43)" fill="#231f20"/><path d="M160.84,14.57a3,3,0,0,1,.7.07l-.12.82a3.37,3.37,0,0,0-.65-.08,1.6,1.6,0,0,0-1.22.58,2.12,2.12,0,0,0-.51,1.45v3.16h-.89V14.68h.74l.1,1.09h0a2.65,2.65,0,0,1,.79-.89A1.85,1.85,0,0,1,160.84,14.57Z" transform="translate(-0.64 -3.43)" fill="#231f20"/><path d="M161.71,14.68h.95L164,18a11.89,11.89,0,0,1,.53,1.66h0c0-.19.15-.5.29-.94s.64-1.8,1.46-4.08h1l-2.53,6.7a3.2,3.2,0,0,1-.88,1.41,1.84,1.84,0,0,1-1.23.42,3.72,3.72,0,0,1-.81-.09V22.4a2.73,2.73,0,0,0,.66.07,1.36,1.36,0,0,0,1.31-1l.33-.84Z" transform="translate(-0.64 -3.43)" fill="#231f20"/><path d="M173.73,14.57a3,3,0,0,1,.7.07l-.12.82a3.37,3.37,0,0,0-.65-.08,1.6,1.6,0,0,0-1.22.58,2.12,2.12,0,0,0-.51,1.45v3.16H171V14.68h.74l.1,1.09h0a2.65,2.65,0,0,1,.79-.89A1.85,1.85,0,0,1,173.73,14.57Z" transform="translate(-0.64 -3.43)" fill="#231f20"/><path d="M178,20.67a2.7,2.7,0,0,1-2.06-.79,3.1,3.1,0,0,1-.76-2.21,3.4,3.4,0,0,1,.71-2.26,2.31,2.31,0,0,1,1.88-.84,2.2,2.2,0,0,1,1.75.73,2.8,2.8,0,0,1,.64,1.92v.56h-4.05a2.35,2.35,0,0,0,.52,1.58,1.81,1.81,0,0,0,1.4.54,4.85,4.85,0,0,0,1.88-.4v.79a3.84,3.84,0,0,1-.89.29A5,5,0,0,1,178,20.67Zm-.24-5.35a1.43,1.43,0,0,0-1.13.46,2.13,2.13,0,0,0-.5,1.28h3.08a2,2,0,0,0-.38-1.29A1.32,1.32,0,0,0,177.78,15.32Z" transform="translate(-0.64 -3.43)" fill="#231f20"/><path d="M184.06,20.67a2.5,2.5,0,0,1-2-.78,3.24,3.24,0,0,1-.7-2.23,3.31,3.31,0,0,1,.71-2.28,2.55,2.55,0,0,1,2-.81,4,4,0,0,1,.84.09,2.75,2.75,0,0,1,.67.22l-.27.76a4.12,4.12,0,0,0-.65-.2,3,3,0,0,0-.62-.08c-1.19,0-1.79.76-1.79,2.29a2.71,2.71,0,0,0,.44,1.66,1.51,1.51,0,0,0,1.29.59,4,4,0,0,0,1.51-.32v.79A3.25,3.25,0,0,1,184.06,20.67Z" transform="translate(-0.64 -3.43)" fill="#231f20"/><path d="M189.63,14.57a3,3,0,0,1,.7.07l-.12.82a3.37,3.37,0,0,0-.65-.08,1.58,1.58,0,0,0-1.22.58,2.12,2.12,0,0,0-.51,1.45v3.16h-.89V14.68h.74l.1,1.09h0a2.65,2.65,0,0,1,.79-.89A1.85,1.85,0,0,1,189.63,14.57Z" transform="translate(-0.64 -3.43)" fill="#231f20"/><path d="M192.27,14.68V18.5a1.51,1.51,0,0,0,.33,1.07,1.3,1.3,0,0,0,1,.36,1.65,1.65,0,0,0,1.35-.51,2.49,2.49,0,0,0,.43-1.65V14.68h.89v5.89h-.73l-.13-.79h-.05a1.75,1.75,0,0,1-.76.66,2.51,2.51,0,0,1-1.11.23,2.25,2.25,0,0,1-1.61-.51,2.15,2.15,0,0,1-.53-1.63V14.68Z" transform="translate(-0.64 -3.43)" fill="#231f20"/><path d="M198.11,13.08a.57.57,0,0,1,.15-.44.53.53,0,0,1,.74,0,.55.55,0,0,1,.16.44.56.56,0,0,1-.16.45.53.53,0,0,1-.74,0A.6.6,0,0,1,198.11,13.08Zm1,7.49h-.89V14.68h.89Z" transform="translate(-0.64 -3.43)" fill="#231f20"/><path d="M202.87,19.94a2.22,2.22,0,0,0,.45,0,1.77,1.77,0,0,0,.35-.07v.68a1.43,1.43,0,0,1-.42.12,3.25,3.25,0,0,1-.51,0q-1.71,0-1.71-1.8v-3.5h-.84v-.43l.84-.37.38-1.25h.51v1.36h1.71v.69h-1.71v3.47a1.17,1.17,0,0,0,.25.81A.89.89,0,0,0,202.87,19.94Z" transform="translate(-0.64 -3.43)" fill="#231f20"/><path d="M207.33,20.67a2.71,2.71,0,0,1-2.06-.79,3.1,3.1,0,0,1-.75-2.21,3.4,3.4,0,0,1,.7-2.26,2.33,2.33,0,0,1,1.88-.84,2.2,2.2,0,0,1,1.75.73,2.81,2.81,0,0,1,.65,1.92v.56h-4.06a2.36,2.36,0,0,0,.53,1.58,1.81,1.81,0,0,0,1.4.54,4.85,4.85,0,0,0,1.88-.4v.79a4.06,4.06,0,0,1-.9.29A5,5,0,0,1,207.33,20.67Zm-.24-5.35a1.45,1.45,0,0,0-1.13.46,2.2,2.2,0,0,0-.5,1.28h3.08a2,2,0,0,0-.37-1.29A1.33,1.33,0,0,0,207.09,15.32Z" transform="translate(-0.64 -3.43)" fill="#231f20"/><path d="M213.71,14.57a3,3,0,0,1,.7.07l-.12.82a3.37,3.37,0,0,0-.65-.08,1.58,1.58,0,0,0-1.22.58,2.12,2.12,0,0,0-.51,1.45v3.16H211V14.68h.74l.1,1.09h0a2.65,2.65,0,0,1,.79-.89A1.85,1.85,0,0,1,213.71,14.57Z" transform="translate(-0.64 -3.43)" fill="#231f20"/><path d="M21.2,278h-12v-2.52l4.3-4.35a36,36,0,0,0,2.5-2.71,5.81,5.81,0,0,0,.84-1.4,3.58,3.58,0,0,0,.26-1.33,2,2,0,0,0-.57-1.54,2.18,2.18,0,0,0-1.52-.5,4.43,4.43,0,0,0-1.93.45,10.52,10.52,0,0,0-2,1.3l-2-2.33a12.94,12.94,0,0,1,2.09-1.52,7.62,7.62,0,0,1,1.82-.69,9.33,9.33,0,0,1,2.2-.24,6.55,6.55,0,0,1,2.84.59A4.52,4.52,0,0,1,20,262.86a4.38,4.38,0,0,1,.68,2.41,5.85,5.85,0,0,1-.42,2.22A8.3,8.3,0,0,1,19,269.62a31.14,31.14,0,0,1-3.07,3.11l-2.21,2.07V275H21.2Z" transform="translate(-0.64 -3.43)" fill="#231f20"/><path d="M22.8,270.73q0-5.09,2.15-7.57c1.44-1.65,3.58-2.48,6.44-2.48a11.4,11.4,0,0,1,2.3.18v2.89a9.1,9.1,0,0,0-2.06-.23,7,7,0,0,0-3,.56,3.76,3.76,0,0,0-1.77,1.66,7.68,7.68,0,0,0-.69,3.13h.15a4,4,0,0,1,3.72-2,4.61,4.61,0,0,1,3.6,1.44,5.76,5.76,0,0,1,1.3,4,6,6,0,0,1-1.55,4.35,5.71,5.71,0,0,1-4.29,1.6,6.2,6.2,0,0,1-3.31-.88,5.71,5.71,0,0,1-2.18-2.57A9.79,9.79,0,0,1,22.8,270.73ZM29,275.35a2.13,2.13,0,0,0,1.78-.78,3.45,3.45,0,0,0,.62-2.22,3,3,0,0,0-.58-2,2.1,2.1,0,0,0-1.75-.72,2.67,2.67,0,0,0-1.88.71A2.2,2.2,0,0,0,26.4,272a3.82,3.82,0,0,0,.73,2.35A2.25,2.25,0,0,0,29,275.35Z" transform="translate(-0.64 -3.43)" fill="#231f20"/><path d="M40.44,271a4.29,4.29,0,0,1-.52,2.35,1.72,1.72,0,0,1-1.53.8,1.68,1.68,0,0,1-1.49-.81,5.53,5.53,0,0,1,0-4.68,1.83,1.83,0,0,1,3,0A4.16,4.16,0,0,1,40.44,271Zm-3.13,0a4.54,4.54,0,0,0,.26,1.74.85.85,0,0,0,.82.58c.74,0,1.12-.77,1.12-2.32s-.38-2.31-1.12-2.31a.85.85,0,0,0-.82.57A4.47,4.47,0,0,0,37.31,271Zm7.39-3-5.54,10h-1l5.55-10Zm1.77,7a4.28,4.28,0,0,1-.53,2.35,1.71,1.71,0,0,1-1.53.8,1.65,1.65,0,0,1-1.49-.82,5.48,5.48,0,0,1,0-4.66,1.67,1.67,0,0,1,1.51-.79,1.72,1.72,0,0,1,1.51.8A4.08,4.08,0,0,1,46.47,275Zm-3.14,0a4.56,4.56,0,0,0,.25,1.75.86.86,0,0,0,.83.58.9.9,0,0,0,.85-.57,4.34,4.34,0,0,0,.27-1.76,4.21,4.21,0,0,0-.27-1.73.89.89,0,0,0-.85-.56.85.85,0,0,0-.83.56A4.45,4.45,0,0,0,43.33,275Z" transform="translate(-0.64 -3.43)" fill="#231f20"/><path d="M53.67,277.38a3.44,3.44,0,0,0,.46,0l.34-.07V278a1.9,1.9,0,0,1-.42.11,3.36,3.36,0,0,1-.51.05q-1.71,0-1.71-1.8v-3.5H51v-.43l.84-.37.38-1.26h.51v1.37h1.71v.69H52.72v3.46a1.19,1.19,0,0,0,.26.82A.86.86,0,0,0,53.67,277.38Z" transform="translate(-0.64 -3.43)" fill="#231f20"/><path d="M59.27,278l-.18-.84h0a2.45,2.45,0,0,1-.88.75,2.65,2.65,0,0,1-1.09.2,2,2,0,0,1-1.37-.45,1.66,1.66,0,0,1-.5-1.29c0-1.18.95-1.81,2.85-1.87l1,0v-.36a1.51,1.51,0,0,0-.3-1,1.22,1.22,0,0,0-.95-.33,3.92,3.92,0,0,0-1.67.45l-.27-.68a4.69,4.69,0,0,1,1-.37,4.17,4.17,0,0,1,1-.13,2.21,2.21,0,0,1,1.56.47,1.93,1.93,0,0,1,.51,1.49v4Zm-2-.63a1.8,1.8,0,0,0,1.3-.45,1.69,1.69,0,0,0,.48-1.28v-.53l-.89,0a3.42,3.42,0,0,0-1.54.33,1,1,0,0,0-.47.91.91.91,0,0,0,.3.74A1.2,1.2,0,0,0,57.26,277.38Z" transform="translate(-0.64 -3.43)" fill="#231f20"/><path d="M62.66,278h-.89v-8.36h.89Z" transform="translate(-0.64 -3.43)" fill="#231f20"/><path d="M65.43,275a9.58,9.58,0,0,1,.7-.86l1.91-2h1l-2.38,2.5L69.26,278H68.18l-2.08-2.78-.67.58V278h-.88v-8.36h.88v4.43c0,.2,0,.51,0,.92Z" transform="translate(-0.64 -3.43)" fill="#231f20"/><path d="M72.81,278.12a2.7,2.7,0,0,1-2.06-.8,3.07,3.07,0,0,1-.75-2.2,3.38,3.38,0,0,1,.7-2.26,2.32,2.32,0,0,1,1.88-.84,2.2,2.2,0,0,1,1.75.73,2.77,2.77,0,0,1,.65,1.92v.56H70.92a2.33,2.33,0,0,0,.52,1.57,1.82,1.82,0,0,0,1.4.54,4.64,4.64,0,0,0,1.88-.4v.8a5.1,5.1,0,0,1-.89.29A5,5,0,0,1,72.81,278.12Zm-.24-5.36a1.46,1.46,0,0,0-1.13.47,2.1,2.1,0,0,0-.5,1.27H74a2,2,0,0,0-.38-1.29A1.32,1.32,0,0,0,72.57,272.76Z" transform="translate(-0.64 -3.43)" fill="#231f20"/><path d="M80.5,277.22h0a2.08,2.08,0,0,1-1.84.9,2.18,2.18,0,0,1-1.8-.79,3.49,3.49,0,0,1-.64-2.25,3.53,3.53,0,0,1,.64-2.26,2.19,2.19,0,0,1,1.8-.8,2.13,2.13,0,0,1,1.83.87h.07l0-.43,0-.41v-2.4h.9V278h-.73Zm-1.78.15a1.61,1.61,0,0,0,1.32-.49,2.51,2.51,0,0,0,.41-1.61v-.19A2.92,2.92,0,0,0,80,273.3a1.58,1.58,0,0,0-1.33-.54,1.38,1.38,0,0,0-1.2.61,3,3,0,0,0-.42,1.72,2.89,2.89,0,0,0,.42,1.71A1.4,1.4,0,0,0,78.72,277.37Z" transform="translate(-0.64 -3.43)" fill="#231f20"/><path d="M90.9,278l-1.08-3.45c-.07-.21-.19-.69-.38-1.44h0c-.15.63-.27,1.11-.38,1.45L87.91,278h-1l-1.61-5.88h.94c.38,1.47.67,2.6.86,3.37a14.73,14.73,0,0,1,.35,1.57h0c0-.21.1-.47.19-.8s.16-.58.23-.77L89,272.13h1L91,275.5a11.23,11.23,0,0,1,.4,1.56h.05a5,5,0,0,1,.11-.6l1.12-4.33h.93L92,278Z" transform="translate(-0.64 -3.43)" fill="#231f20"/><path d="M94.57,270.53a.61.61,0,0,1,.16-.45.53.53,0,0,1,.37-.14.55.55,0,0,1,.37.14.71.71,0,0,1,0,.9.51.51,0,0,1-.37.15.5.5,0,0,1-.37-.15A.61.61,0,0,1,94.57,270.53Zm1,7.48h-.89v-5.88h.89Z" transform="translate(-0.64 -3.43)" fill="#231f20"/><path d="M99.33,277.38a3.44,3.44,0,0,0,.46,0l.35-.07V278a2,2,0,0,1-.43.11,3.36,3.36,0,0,1-.51.05c-1.13,0-1.7-.6-1.7-1.8v-3.5h-.85v-.43l.85-.37.37-1.26h.52v1.37h1.71v.69H98.39v3.46a1.18,1.18,0,0,0,.25.82A.88.88,0,0,0,99.33,277.38Z" transform="translate(-0.64 -3.43)" fill="#231f20"/><path d="M105.34,278V274.2a1.57,1.57,0,0,0-.32-1.07,1.33,1.33,0,0,0-1-.36,1.69,1.69,0,0,0-1.36.51,2.59,2.59,0,0,0-.42,1.65V278h-.89v-8.36h.89v2.53a5.15,5.15,0,0,1,0,.76h.06a1.82,1.82,0,0,1,.75-.67,2.45,2.45,0,0,1,1.11-.24,2.28,2.28,0,0,1,1.62.51,2.16,2.16,0,0,1,.54,1.63V278Z" transform="translate(-0.64 -3.43)" fill="#231f20"/><path d="M114.54,278l-.17-.84h-.05a2.43,2.43,0,0,1-.87.75,2.74,2.74,0,0,1-1.1.2,2,2,0,0,1-1.37-.45,1.66,1.66,0,0,1-.5-1.29c0-1.18,1-1.81,2.86-1.87l1,0v-.36a1.51,1.51,0,0,0-.29-1,1.24,1.24,0,0,0-1-.33,3.88,3.88,0,0,0-1.66.45l-.28-.68a4.56,4.56,0,0,1,1-.37,4.06,4.06,0,0,1,1-.13,2.21,2.21,0,0,1,1.56.47,1.93,1.93,0,0,1,.51,1.49v4Zm-2-.63a1.83,1.83,0,0,0,1.31-.45,1.72,1.72,0,0,0,.47-1.28v-.53l-.89,0a3.34,3.34,0,0,0-1.53.33,1,1,0,0,0-.47.91.93.93,0,0,0,.29.74A1.22,1.22,0,0,0,112.53,277.38Z" transform="translate(-0.64 -3.43)" fill="#231f20"/><path d="M127.4,278v-3.83a1.57,1.57,0,0,0-.3-1.05,1.14,1.14,0,0,0-.93-.36,1.49,1.49,0,0,0-1.23.48,2.24,2.24,0,0,0-.4,1.47V278h-.89v-3.83a1.57,1.57,0,0,0-.3-1.05,1.16,1.16,0,0,0-.94-.36,1.45,1.45,0,0,0-1.23.51,2.69,2.69,0,0,0-.39,1.64V278h-.89v-5.88h.72l.15.8h0a1.76,1.76,0,0,1,.71-.67,2.2,2.2,0,0,1,1-.24,1.76,1.76,0,0,1,1.81,1h0a1.85,1.85,0,0,1,.76-.73,2.4,2.4,0,0,1,1.14-.27,2,2,0,0,1,1.5.51,2.3,2.3,0,0,1,.49,1.64V278Z" transform="translate(-0.64 -3.43)" fill="#231f20"/><path d="M130.06,270.53a.61.61,0,0,1,.15-.45.56.56,0,0,1,.74,0,.71.71,0,0,1,0,.9.53.53,0,0,1-.74,0A.61.61,0,0,1,130.06,270.53Zm1,7.48h-.89v-5.88H131Z" transform="translate(-0.64 -3.43)" fill="#231f20"/><path d="M133.81,278h-.9v-8.36h.9Z" transform="translate(-0.64 -3.43)" fill="#231f20"/><path d="M135.62,270.53a.61.61,0,0,1,.15-.45.56.56,0,0,1,.38-.14.57.57,0,0,1,.37.14.75.75,0,0,1,0,.9.53.53,0,0,1-.37.15.52.52,0,0,1-.38-.15A.61.61,0,0,1,135.62,270.53Zm1,7.48h-.89v-5.88h.89Z" transform="translate(-0.64 -3.43)" fill="#231f20"/><path d="M140.38,277.38a3.44,3.44,0,0,0,.46,0l.35-.07V278a2,2,0,0,1-.43.11,3.36,3.36,0,0,1-.51.05q-1.71,0-1.71-1.8v-3.5h-.84v-.43l.84-.37.38-1.26h.51v1.37h1.71v.69h-1.71v3.46a1.19,1.19,0,0,0,.26.82A.86.86,0,0,0,140.38,277.38Z" transform="translate(-0.64 -3.43)" fill="#231f20"/><path d="M146,278l-.18-.84h0a2.45,2.45,0,0,1-.88.75,2.65,2.65,0,0,1-1.09.2,2,2,0,0,1-1.37-.45,1.66,1.66,0,0,1-.5-1.29c0-1.18,1-1.81,2.85-1.87l1,0v-.36a1.51,1.51,0,0,0-.3-1,1.22,1.22,0,0,0-.95-.33,3.92,3.92,0,0,0-1.67.45l-.27-.68a4.69,4.69,0,0,1,.95-.37,4.17,4.17,0,0,1,1-.13,2.17,2.17,0,0,1,1.56.47,1.93,1.93,0,0,1,.51,1.49v4Zm-2-.63a1.8,1.8,0,0,0,1.3-.45,1.69,1.69,0,0,0,.48-1.28v-.53l-.89,0a3.42,3.42,0,0,0-1.54.33,1,1,0,0,0-.47.91.91.91,0,0,0,.3.74A1.2,1.2,0,0,0,144,277.38Z" transform="translate(-0.64 -3.43)" fill="#231f20"/><path d="M151.16,272a3.76,3.76,0,0,1,.71.06l-.13.83a3.19,3.19,0,0,0-.64-.08,1.55,1.55,0,0,0-1.22.58,2.1,2.1,0,0,0-.51,1.44V278h-.89v-5.88h.74l.1,1.08h0a2.61,2.61,0,0,1,.79-.88A1.77,1.77,0,0,1,151.16,272Z" transform="translate(-0.64 -3.43)" fill="#231f20"/><path d="M152,272.13h1l1.29,3.35a14,14,0,0,1,.53,1.66h0c.05-.18.14-.49.29-.94s.64-1.8,1.46-4.07h1l-2.53,6.7a3.42,3.42,0,0,1-.88,1.41,1.87,1.87,0,0,1-1.23.41,3.59,3.59,0,0,1-.81-.09v-.71a3.37,3.37,0,0,0,.66.06,1.36,1.36,0,0,0,1.31-1l.33-.84Z" transform="translate(-0.64 -3.43)" fill="#231f20"/><path d="M164.06,272a3.73,3.73,0,0,1,.7.06l-.12.83a3.37,3.37,0,0,0-.65-.08,1.55,1.55,0,0,0-1.22.58,2.1,2.1,0,0,0-.51,1.44V278h-.89v-5.88h.74l.1,1.08h0a2.61,2.61,0,0,1,.79-.88A1.78,1.78,0,0,1,164.06,272Z" transform="translate(-0.64 -3.43)" fill="#231f20"/><path d="M168.35,278.12a2.7,2.7,0,0,1-2.06-.8,3,3,0,0,1-.76-2.2,3.43,3.43,0,0,1,.7-2.26,2.34,2.34,0,0,1,1.89-.84,2.22,2.22,0,0,1,1.75.73,2.77,2.77,0,0,1,.64,1.92v.56h-4a2.28,2.28,0,0,0,.52,1.57,1.81,1.81,0,0,0,1.4.54,4.68,4.68,0,0,0,1.88-.4v.8a5.19,5.19,0,0,1-.9.29A4.91,4.91,0,0,1,168.35,278.12Zm-.25-5.36a1.47,1.47,0,0,0-1.13.47,2.1,2.1,0,0,0-.49,1.27h3.08a2,2,0,0,0-.38-1.29A1.33,1.33,0,0,0,168.1,272.76Z" transform="translate(-0.64 -3.43)" fill="#231f20"/><path d="M174.38,278.12a2.5,2.5,0,0,1-2-.79,3.25,3.25,0,0,1-.7-2.22,3.37,3.37,0,0,1,.71-2.29,2.59,2.59,0,0,1,2-.8,4,4,0,0,1,.85.09,3,3,0,0,1,.67.21l-.28.76a4.83,4.83,0,0,0-.64-.2,2.94,2.94,0,0,0-.62-.07c-1.19,0-1.79.76-1.79,2.28a2.75,2.75,0,0,0,.43,1.67,1.53,1.53,0,0,0,1.3.58,4,4,0,0,0,1.51-.32v.79A3.14,3.14,0,0,1,174.38,278.12Z" transform="translate(-0.64 -3.43)" fill="#231f20"/><path d="M180,272a3.76,3.76,0,0,1,.71.06l-.13.83a3.19,3.19,0,0,0-.64-.08,1.55,1.55,0,0,0-1.22.58,2.1,2.1,0,0,0-.51,1.44V278h-.89v-5.88H178l.11,1.08h0a2.61,2.61,0,0,1,.79-.88A1.74,1.74,0,0,1,180,272Z" transform="translate(-0.64 -3.43)" fill="#231f20"/><path d="M182.6,272.13v3.81a1.6,1.6,0,0,0,.32,1.08,1.36,1.36,0,0,0,1,.35,1.68,1.68,0,0,0,1.35-.5,2.53,2.53,0,0,0,.43-1.65v-3.09h.89V278h-.74l-.13-.79h0a1.9,1.9,0,0,1-.76.67,2.65,2.65,0,0,1-1.11.23,2.24,2.24,0,0,1-1.61-.51,2.16,2.16,0,0,1-.54-1.63v-3.85Z" transform="translate(-0.64 -3.43)" fill="#231f20"/><path d="M188.43,270.53a.61.61,0,0,1,.15-.45.57.57,0,0,1,.38-.14.55.55,0,0,1,.37.14.71.71,0,0,1,0,.9.51.51,0,0,1-.37.15.54.54,0,0,1-.38-.15A.61.61,0,0,1,188.43,270.53Zm1,7.48h-.89v-5.88h.89Z" transform="translate(-0.64 -3.43)" fill="#231f20"/><path d="M193.19,277.38a3.44,3.44,0,0,0,.46,0l.35-.07V278a2,2,0,0,1-.43.11,3.25,3.25,0,0,1-.51.05c-1.13,0-1.7-.6-1.7-1.8v-3.5h-.85v-.43l.85-.37.37-1.26h.52v1.37H194v.69h-1.71v3.46a1.18,1.18,0,0,0,.25.82A.88.88,0,0,0,193.19,277.38Z" transform="translate(-0.64 -3.43)" fill="#231f20"/><path d="M197.66,278.12a2.7,2.7,0,0,1-2.06-.8,3.07,3.07,0,0,1-.75-2.2,3.38,3.38,0,0,1,.7-2.26,2.32,2.32,0,0,1,1.88-.84,2.2,2.2,0,0,1,1.75.73,2.77,2.77,0,0,1,.65,1.92v.56h-4.06a2.28,2.28,0,0,0,.53,1.57,1.79,1.79,0,0,0,1.39.54,4.64,4.64,0,0,0,1.88-.4v.8a5.1,5.1,0,0,1-.89.29A5,5,0,0,1,197.66,278.12Zm-.24-5.36a1.46,1.46,0,0,0-1.13.47,2.1,2.1,0,0,0-.5,1.27h3.08a1.91,1.91,0,0,0-.38-1.29A1.31,1.31,0,0,0,197.42,272.76Z" transform="translate(-0.64 -3.43)" fill="#231f20"/><path d="M204,272a3.84,3.84,0,0,1,.71.06l-.13.83a3.28,3.28,0,0,0-.64-.08,1.54,1.54,0,0,0-1.22.58,2.1,2.1,0,0,0-.51,1.44V278h-.89v-5.88h.73l.11,1.08h0a2.61,2.61,0,0,1,.79-.88A1.74,1.74,0,0,1,204,272Z" transform="translate(-0.64 -3.43)" fill="#231f20"/><line x1="322.97" y1="253.22" x2="336.03" y2="253.22" fill="none" stroke="#231f20" stroke-miterlimit="10" stroke-width="0.5"/><line x1="533.55" y1="253.22" x2="547.35" y2="253.22" fill="none" stroke="#231f20" stroke-miterlimit="10" stroke-width="0.5"/><line x1="339.5" y1="253.22" x2="530.15" y2="253.22" fill="none" stroke="#231f20" stroke-miterlimit="10" stroke-width="0.5"/><line x1="323.21" y1="253.09" x2="323.21" y2="255.49" fill="none" stroke="#231f20" stroke-miterlimit="10" stroke-width="0.5"/><line x1="547.21" y1="253.09" x2="547.21" y2="255.49" fill="none" stroke="#231f20" stroke-miterlimit="10" stroke-width="0.5"/><line x1="515.21" y1="253.09" x2="515.21" y2="255.49" fill="none" stroke="#231f20" stroke-miterlimit="10" stroke-width="0.5"/><line x1="483.21" y1="253.09" x2="483.21" y2="255.49" fill="none" stroke="#231f20" stroke-miterlimit="10" stroke-width="0.5"/><line x1="451.21" y1="253.09" x2="451.21" y2="255.49" fill="none" stroke="#231f20" stroke-miterlimit="10" stroke-width="0.5"/><line x1="419.21" y1="253.09" x2="419.21" y2="255.49" fill="none" stroke="#231f20" stroke-miterlimit="10" stroke-width="0.5"/><line x1="387.21" y1="253.09" x2="387.21" y2="255.49" fill="none" stroke="#231f20" stroke-miterlimit="10" stroke-width="0.5"/><line x1="355.21" y1="253.09" x2="355.21" y2="255.49" fill="none" stroke="#231f20" stroke-miterlimit="10" stroke-width="0.5"/><path d="M326.18,264.62a5.71,5.71,0,0,1-.64,3,2.36,2.36,0,0,1-3.89,0,7.39,7.39,0,0,1,0-6.06,2.36,2.36,0,0,1,3.89,0A5.61,5.61,0,0,1,326.18,264.62Zm-4.29,0a5.77,5.77,0,0,0,.41,2.5,1.33,1.33,0,0,0,1.28.78,1.36,1.36,0,0,0,1.29-.8,7.89,7.89,0,0,0,0-5,1.36,1.36,0,0,0-1.29-.79,1.33,1.33,0,0,0-1.28.78A5.69,5.69,0,0,0,321.89,264.62Z" transform="translate(-0.64 -3.43)" fill="#58595b"/><path d="M353.08,268.56h-5.16v-.77l2.07-2.08a15.64,15.64,0,0,0,1.24-1.36,3.42,3.42,0,0,0,.45-.8,2.27,2.27,0,0,0,.15-.83,1.31,1.31,0,0,0-.38-1,1.45,1.45,0,0,0-1.05-.36,2.6,2.6,0,0,0-.93.16,3.89,3.89,0,0,0-1,.58l-.47-.6a3.58,3.58,0,0,1,2.36-.91,2.5,2.5,0,0,1,1.74.57,1.94,1.94,0,0,1,.63,1.52,3,3,0,0,1-.42,1.48,9.35,9.35,0,0,1-1.57,1.85L349,267.69v0h4Z" transform="translate(-0.64 -3.43)" fill="#58595b"/><path d="M356.66,263.76a2.91,2.91,0,0,1,2,.62,2.12,2.12,0,0,1,.71,1.68,2.42,2.42,0,0,1-.78,1.91,3.07,3.07,0,0,1-2.14.7,3.94,3.94,0,0,1-2-.43v-.86a3.06,3.06,0,0,0,.93.38,4.67,4.67,0,0,0,1.1.14,2.19,2.19,0,0,0,1.47-.45,1.58,1.58,0,0,0,.52-1.29c0-1.09-.67-1.64-2-1.64a7.47,7.47,0,0,0-1.36.16l-.47-.3.3-3.67h3.9v.82h-3.14l-.2,2.36A5.85,5.85,0,0,1,356.66,263.76Z" transform="translate(-0.64 -3.43)" fill="#58595b"/><path d="M365.7,264.62a5.71,5.71,0,0,1-.64,3,2.36,2.36,0,0,1-3.89,0,7.39,7.39,0,0,1,0-6.06,2.13,2.13,0,0,1,2-1,2.16,2.16,0,0,1,1.94,1A5.61,5.61,0,0,1,365.7,264.62Zm-4.29,0a5.77,5.77,0,0,0,.4,2.5,1.45,1.45,0,0,0,2.58,0,7.92,7.92,0,0,0,0-5,1.46,1.46,0,0,0-2.58,0A5.72,5.72,0,0,0,361.41,264.62Z" transform="translate(-0.64 -3.43)" fill="#58595b"/><path d="M384.82,268.56h-5.16v-.77l2.07-2.08a15.64,15.64,0,0,0,1.24-1.36,3.42,3.42,0,0,0,.45-.8,2.27,2.27,0,0,0,.15-.83,1.31,1.31,0,0,0-.38-1,1.46,1.46,0,0,0-1.06-.36,2.58,2.58,0,0,0-.92.16,3.89,3.89,0,0,0-1,.58l-.47-.6a3.58,3.58,0,0,1,2.36-.91,2.5,2.5,0,0,1,1.74.57,1.94,1.94,0,0,1,.63,1.52,3,3,0,0,1-.42,1.48A9.35,9.35,0,0,1,382.5,266l-1.72,1.68v0h4Z" transform="translate(-0.64 -3.43)" fill="#58595b"/><path d="M386,265.2a5.55,5.55,0,0,1,.9-3.46,3.18,3.18,0,0,1,2.66-1.15,3.51,3.51,0,0,1,1,.11v.76a3.12,3.12,0,0,0-.95-.13,2.38,2.38,0,0,0-1.93.79,4,4,0,0,0-.73,2.47H387a2,2,0,0,1,1.86-.92,2.2,2.2,0,0,1,1.67.63,2.41,2.41,0,0,1,.61,1.74,2.63,2.63,0,0,1-.67,1.92,2.57,2.57,0,0,1-3.74-.21A4.09,4.09,0,0,1,386,265.2Zm2.64,2.71a1.49,1.49,0,0,0,1.18-.48,2.06,2.06,0,0,0,.42-1.39,1.81,1.81,0,0,0-.39-1.23,1.49,1.49,0,0,0-1.17-.44,2,2,0,0,0-.89.2,1.56,1.56,0,0,0-.64.55,1.24,1.24,0,0,0-.24.72,2.38,2.38,0,0,0,.22,1,1.77,1.77,0,0,0,.61.76A1.48,1.48,0,0,0,388.68,267.91Z" transform="translate(-0.64 -3.43)" fill="#58595b"/><path d="M397.44,264.62a5.71,5.71,0,0,1-.64,3,2.36,2.36,0,0,1-3.89,0,7.39,7.39,0,0,1,0-6.06,2.13,2.13,0,0,1,1.95-1,2.18,2.18,0,0,1,1.94,1A5.61,5.61,0,0,1,397.44,264.62Zm-4.29,0a5.77,5.77,0,0,0,.4,2.5,1.45,1.45,0,0,0,2.58,0,7.92,7.92,0,0,0,0-5,1.46,1.46,0,0,0-2.58,0A5.72,5.72,0,0,0,393.15,264.62Z" transform="translate(-0.64 -3.43)" fill="#58595b"/><path d="M417,268.56H411.8v-.77l2.07-2.08a15.64,15.64,0,0,0,1.24-1.36,3.42,3.42,0,0,0,.45-.8,2.27,2.27,0,0,0,.16-.83,1.32,1.32,0,0,0-.39-1,1.45,1.45,0,0,0-1.05-.36,2.6,2.6,0,0,0-.93.16,3.89,3.89,0,0,0-1,.58l-.47-.6a3.58,3.58,0,0,1,2.36-.91,2.5,2.5,0,0,1,1.74.57,1.94,1.94,0,0,1,.63,1.52,3,3,0,0,1-.42,1.48,9.35,9.35,0,0,1-1.57,1.85l-1.72,1.68v0h4Z" transform="translate(-0.64 -3.43)" fill="#58595b"/><path d="M419.08,268.56l3.26-7h-4.28v-.82h5.22v.71l-3.21,7.14Z" transform="translate(-0.64 -3.43)" fill="#58595b"/><path d="M429.58,264.62a5.71,5.71,0,0,1-.64,3,2.36,2.36,0,0,1-3.89,0,7.39,7.39,0,0,1,0-6.06,2.13,2.13,0,0,1,2-1,2.16,2.16,0,0,1,1.94,1A5.61,5.61,0,0,1,429.58,264.62Zm-4.29,0a5.77,5.77,0,0,0,.4,2.5,1.45,1.45,0,0,0,2.58,0,7.92,7.92,0,0,0,0-5,1.46,1.46,0,0,0-2.58,0A5.72,5.72,0,0,0,425.29,264.62Z" transform="translate(-0.64 -3.43)" fill="#58595b"/><path d="M447.9,268.56h-5.16v-.77l2.07-2.08a18.35,18.35,0,0,0,1.25-1.36,3.42,3.42,0,0,0,.45-.8,2.27,2.27,0,0,0,.15-.83,1.32,1.32,0,0,0-.39-1,1.45,1.45,0,0,0-1-.36,2.6,2.6,0,0,0-.93.16,3.89,3.89,0,0,0-1,.58l-.47-.6a3.6,3.6,0,0,1,2.37-.91,2.49,2.49,0,0,1,1.73.57,1.94,1.94,0,0,1,.63,1.52,3,3,0,0,1-.42,1.48,9.35,9.35,0,0,1-1.57,1.85l-1.72,1.68v0h4Z" transform="translate(-0.64 -3.43)" fill="#58595b"/><path d="M451.63,260.59a2.67,2.67,0,0,1,1.7.5,1.68,1.68,0,0,1,.63,1.38,1.72,1.72,0,0,1-.36,1.06,3.12,3.12,0,0,1-1.15.87,4,4,0,0,1,1.36,1,1.8,1.8,0,0,1,.4,1.16,1.93,1.93,0,0,1-.68,1.56,2.78,2.78,0,0,1-1.87.59,3,3,0,0,1-1.93-.55,1.92,1.92,0,0,1-.68-1.57,2.33,2.33,0,0,1,1.64-2.09,3.16,3.16,0,0,1-1.06-.91,2,2,0,0,1-.32-1.09,1.66,1.66,0,0,1,.63-1.36A2.6,2.6,0,0,1,451.63,260.59Zm-1.7,6a1.2,1.2,0,0,0,.45,1,2,2,0,0,0,1.26.36,1.85,1.85,0,0,0,1.25-.38,1.29,1.29,0,0,0,.44-1,1.25,1.25,0,0,0-.42-.92,4.16,4.16,0,0,0-1.46-.79,3.19,3.19,0,0,0-1.16.76A1.48,1.48,0,0,0,449.93,266.58Zm1.69-5.26a1.59,1.59,0,0,0-1.05.32,1.06,1.06,0,0,0-.39.86,1.25,1.25,0,0,0,.32.85,3.44,3.44,0,0,0,1.17.71,3.1,3.1,0,0,0,1.09-.69,1.32,1.32,0,0,0,.32-.87,1.05,1.05,0,0,0-.39-.86A1.61,1.61,0,0,0,451.62,261.32Z" transform="translate(-0.64 -3.43)" fill="#58595b"/><path d="M460.52,264.62a5.71,5.71,0,0,1-.64,3,2.36,2.36,0,0,1-3.89,0,7.39,7.39,0,0,1,0-6.06,2.36,2.36,0,0,1,3.89,0A5.61,5.61,0,0,1,460.52,264.62Zm-4.29,0a5.74,5.74,0,0,0,.41,2.5,1.33,1.33,0,0,0,1.28.78,1.36,1.36,0,0,0,1.29-.79,7.92,7.92,0,0,0,0-5,1.36,1.36,0,0,0-1.29-.78,1.32,1.32,0,0,0-1.28.77A5.69,5.69,0,0,0,456.23,264.62Z" transform="translate(-0.64 -3.43)" fill="#58595b"/><path d="M480.84,268.56h-5.16v-.77l2.07-2.08a18.35,18.35,0,0,0,1.25-1.36,3.42,3.42,0,0,0,.45-.8,2.27,2.27,0,0,0,.15-.83,1.35,1.35,0,0,0-.38-1,1.5,1.5,0,0,0-1.06-.36,2.6,2.6,0,0,0-.93.16,3.69,3.69,0,0,0-1,.58l-.48-.6a3.6,3.6,0,0,1,2.37-.91,2.49,2.49,0,0,1,1.73.57,1.94,1.94,0,0,1,.63,1.52,3,3,0,0,1-.42,1.48,9.35,9.35,0,0,1-1.57,1.85l-1.72,1.68v0h4Z" transform="translate(-0.64 -3.43)" fill="#58595b"/><path d="M487.13,264.06q0,4.6-3.56,4.61a3.65,3.65,0,0,1-1-.11v-.77a3.2,3.2,0,0,0,1,.14,2.39,2.39,0,0,0,1.95-.8,4,4,0,0,0,.72-2.44h-.07a1.91,1.91,0,0,1-.78.68,2.61,2.61,0,0,1-1.1.23,2.22,2.22,0,0,1-1.65-.62,2.39,2.39,0,0,1-.62-1.74,2.68,2.68,0,0,1,.69-1.94,2.39,2.39,0,0,1,1.8-.71,2.45,2.45,0,0,1,1.4.41,2.62,2.62,0,0,1,.92,1.2A4.8,4.8,0,0,1,487.13,264.06Zm-2.64-2.7a1.48,1.48,0,0,0-1.19.49,2.06,2.06,0,0,0-.42,1.37,1.77,1.77,0,0,0,.39,1.22,1.47,1.47,0,0,0,1.18.44,2.11,2.11,0,0,0,.9-.19,1.65,1.65,0,0,0,.64-.55,1.24,1.24,0,0,0,.24-.72,2.43,2.43,0,0,0-.22-1,1.77,1.77,0,0,0-.62-.75A1.54,1.54,0,0,0,484.49,261.36Z" transform="translate(-0.64 -3.43)" fill="#58595b"/><path d="M493.46,264.62a5.71,5.71,0,0,1-.64,3,2.36,2.36,0,0,1-3.89,0,7.39,7.39,0,0,1,0-6.06,2.36,2.36,0,0,1,3.89,0A5.61,5.61,0,0,1,493.46,264.62Zm-4.29,0a5.74,5.74,0,0,0,.41,2.5,1.33,1.33,0,0,0,1.28.78,1.36,1.36,0,0,0,1.29-.79,7.92,7.92,0,0,0,0-5,1.36,1.36,0,0,0-1.29-.78,1.32,1.32,0,0,0-1.28.77A5.69,5.69,0,0,0,489.17,264.62Z" transform="translate(-0.64 -3.43)" fill="#58595b"/><path d="M512.33,262.55a1.84,1.84,0,0,1-.41,1.23,2,2,0,0,1-1.16.64v.05a2.11,2.11,0,0,1,1.36.6,1.76,1.76,0,0,1,.44,1.26,2.09,2.09,0,0,1-.75,1.73,3.38,3.38,0,0,1-2.15.61,6.36,6.36,0,0,1-1.11-.1,3.48,3.48,0,0,1-1-.33v-.85a4.72,4.72,0,0,0,1.05.39,4.57,4.57,0,0,0,1.06.13c1.32,0,2-.53,2-1.6s-.73-1.43-2.18-1.43h-.75v-.76h.76a2.25,2.25,0,0,0,1.41-.41,1.33,1.33,0,0,0,.52-1.12,1.12,1.12,0,0,0-.38-.91,1.52,1.52,0,0,0-1-.32,2.89,2.89,0,0,0-.94.14,3.83,3.83,0,0,0-1,.51l-.44-.6a3.77,3.77,0,0,1,1.08-.6,4,4,0,0,1,1.29-.22,2.59,2.59,0,0,1,1.73.53A1.78,1.78,0,0,1,512.33,262.55Z" transform="translate(-0.64 -3.43)" fill="#58595b"/><path d="M518.76,264.62a5.83,5.83,0,0,1-.62,3,2.26,2.26,0,0,1-3.78,0,7.6,7.6,0,0,1,0-6.06,2.26,2.26,0,0,1,3.78,0A5.72,5.72,0,0,1,518.76,264.62Zm-4.16,0a6,6,0,0,0,.39,2.5,1.39,1.39,0,0,0,2.5,0,8.11,8.11,0,0,0,0-5,1.4,1.4,0,0,0-2.5,0A5.9,5.9,0,0,0,514.6,264.62Z" transform="translate(-0.64 -3.43)" fill="#58595b"/><path d="M524.87,264.62a5.93,5.93,0,0,1-.62,3,2.26,2.26,0,0,1-3.78,0,7.6,7.6,0,0,1,0-6.06,2.06,2.06,0,0,1,1.89-1,2.09,2.09,0,0,1,1.89,1A5.72,5.72,0,0,1,524.87,264.62Zm-4.17,0a5.77,5.77,0,0,0,.4,2.5,1.3,1.3,0,0,0,1.24.78,1.32,1.32,0,0,0,1.26-.79,8.32,8.32,0,0,0,0-5,1.31,1.31,0,0,0-1.26-.78,1.29,1.29,0,0,0-1.24.77A5.72,5.72,0,0,0,520.7,264.62Z" transform="translate(-0.64 -3.43)" fill="#58595b"/><path d="M541.69,263.76a2.91,2.91,0,0,1,1.95.62,2.12,2.12,0,0,1,.71,1.68,2.42,2.42,0,0,1-.78,1.91,3,3,0,0,1-2.14.7,3.94,3.94,0,0,1-2-.43v-.86a3.06,3.06,0,0,0,.93.38,4.74,4.74,0,0,0,1.1.14,2.19,2.19,0,0,0,1.47-.45,1.58,1.58,0,0,0,.53-1.29c0-1.09-.67-1.64-2-1.64a7.47,7.47,0,0,0-1.36.16l-.46-.3.29-3.67h3.91v.82h-3.15l-.19,2.36A5.71,5.71,0,0,1,541.69,263.76Z" transform="translate(-0.64 -3.43)" fill="#58595b"/><path d="M550.73,264.62a5.7,5.7,0,0,1-.65,3,2.36,2.36,0,0,1-3.89,0,7.39,7.39,0,0,1,0-6.06,2.36,2.36,0,0,1,3.89,0A5.6,5.6,0,0,1,550.73,264.62Zm-4.3,0a5.74,5.74,0,0,0,.41,2.5,1.33,1.33,0,0,0,1.28.78,1.35,1.35,0,0,0,1.29-.79,7.92,7.92,0,0,0,0-5,1.35,1.35,0,0,0-1.29-.78,1.32,1.32,0,0,0-1.28.77A5.69,5.69,0,0,0,546.43,264.62Z" transform="translate(-0.64 -3.43)" fill="#58595b"/><path d="M557,264.62a5.71,5.71,0,0,1-.64,3,2.36,2.36,0,0,1-3.89,0,7.39,7.39,0,0,1,0-6.06,2.36,2.36,0,0,1,3.89,0A5.61,5.61,0,0,1,557,264.62Zm-4.29,0a5.74,5.74,0,0,0,.41,2.5,1.33,1.33,0,0,0,1.28.78,1.36,1.36,0,0,0,1.29-.79,7.92,7.92,0,0,0,0-5,1.36,1.36,0,0,0-1.29-.78,1.32,1.32,0,0,0-1.28.77A5.69,5.69,0,0,0,552.72,264.62Z" transform="translate(-0.64 -3.43)" fill="#58595b"/><line x1="341.45" y1="255.11" x2="337.46" y2="251.18" fill="#231f20" stroke="#231f20" stroke-width="0.5"/><line x1="338.28" y1="255.11" x2="334.29" y2="251.18" fill="#231f20" stroke="#231f20" stroke-width="0.5"/><line x1="535.45" y1="255.11" x2="531.46" y2="251.18" fill="#231f20" stroke="#231f20" stroke-width="0.5"/><line x1="532.28" y1="255.11" x2="528.29" y2="251.18" fill="#231f20" stroke="#231f20" stroke-width="0.5"/><path d="M571.48,143.83q0,5.07-2.13,7.56c-1.43,1.66-3.58,2.5-6.46,2.5a11.94,11.94,0,0,1-2.31-.17v-2.9a8.67,8.67,0,0,0,2.06.24,7.35,7.35,0,0,0,3-.53,3.74,3.74,0,0,0,1.79-1.68,7.24,7.24,0,0,0,.72-3.14H568a4,4,0,0,1-1.57,1.54,5,5,0,0,1-2.23.45,4.5,4.5,0,0,1-3.53-1.44,5.78,5.78,0,0,1-1.28-4,6,6,0,0,1,1.56-4.35,5.66,5.66,0,0,1,4.26-1.6,6.15,6.15,0,0,1,3.32.89,5.75,5.75,0,0,1,2.19,2.58A9.78,9.78,0,0,1,571.48,143.83Zm-6.2-4.6a2.13,2.13,0,0,0-1.76.77,3.46,3.46,0,0,0-.63,2.23,3.14,3.14,0,0,0,.57,2,2.12,2.12,0,0,0,1.75.72,2.72,2.72,0,0,0,1.89-.72,2.2,2.2,0,0,0,.78-1.66,3.74,3.74,0,0,0-.73-2.35A2.26,2.26,0,0,0,565.28,139.23Z" transform="translate(-0.64 -3.43)" fill="#231f20"/><path d="M572.67,151.17V149.7h3.15v1.47Z" transform="translate(-0.64 -3.43)" fill="#231f20"/><path d="M580.71,153.77a2.16,2.16,0,0,1-1.81-.84h-.1c.07.55.1.86.1.95v2.66h-1.79V147.1h1.45l.26.85h.08a2.05,2.05,0,0,1,1.85-1,2.12,2.12,0,0,1,1.82.9,4.1,4.1,0,0,1,.66,2.49,4.85,4.85,0,0,1-.31,1.82,2.63,2.63,0,0,1-.88,1.18A2.27,2.27,0,0,1,580.71,153.77Zm-.53-5.36a1.12,1.12,0,0,0-1,.41,2.38,2.38,0,0,0-.31,1.34v.19a2.78,2.78,0,0,0,.31,1.52,1.12,1.12,0,0,0,1,.45c.8,0,1.21-.66,1.21-2a2.8,2.8,0,0,0-.3-1.45A1,1,0,0,0,580.18,148.41Z" transform="translate(-0.64 -3.43)" fill="#231f20"/><path d="M590.66,150.37a3.49,3.49,0,0,1-.85,2.5,3.05,3.05,0,0,1-2.35.9,3.32,3.32,0,0,1-1.66-.41,2.78,2.78,0,0,1-1.11-1.19,4,4,0,0,1-.38-1.8,3.48,3.48,0,0,1,.83-2.5,3.11,3.11,0,0,1,2.36-.89,3.32,3.32,0,0,1,1.66.41,2.7,2.7,0,0,1,1.11,1.18A3.92,3.92,0,0,1,590.66,150.37Zm-4.53,0a2.72,2.72,0,0,0,.32,1.47,1.34,1.34,0,0,0,2.07,0,2.87,2.87,0,0,0,.31-1.47,2.7,2.7,0,0,0-.32-1.46,1.12,1.12,0,0,0-1-.49,1.17,1.17,0,0,0-1,.48A2.75,2.75,0,0,0,586.13,150.37Z" transform="translate(-0.64 -3.43)" fill="#231f20"/><path d="M592.06,145.41c0-.58.32-.87,1-.87s1,.29,1,.87a.87.87,0,0,1-.24.65,1,1,0,0,1-.73.23C592.38,146.29,592.06,146,592.06,145.41Zm1.86,8.24h-1.79V147.1h1.79Z" transform="translate(-0.64 -3.43)" fill="#231f20"/><path d="M601.84,153.65h-1.78v-3.82a1.83,1.83,0,0,0-.26-1.07.91.91,0,0,0-.8-.35,1.2,1.2,0,0,0-1.08.5,3,3,0,0,0-.34,1.66v3.08H595.8V147.1h1.36l.24.84h.1a1.91,1.91,0,0,1,.82-.72,2.86,2.86,0,0,1,1.2-.24,2.25,2.25,0,0,1,1.73.62,2.44,2.44,0,0,1,.59,1.78Z" transform="translate(-0.64 -3.43)" fill="#231f20"/><path d="M606.44,152.35a3.79,3.79,0,0,0,1.13-.21v1.33a4,4,0,0,1-1.64.3,2,2,0,0,1-1.56-.54,2.35,2.35,0,0,1-.49-1.63v-3.16H603v-.75l1-.6.51-1.38h1.14v1.39h1.84v1.34h-1.84v3.16a.66.66,0,0,0,.22.56A.79.79,0,0,0,606.44,152.35Z" transform="translate(-0.64 -3.43)" fill="#231f20"/><path d="M616.12,151.87a1.66,1.66,0,0,1-.64,1.41,3.2,3.2,0,0,1-1.92.48,6,6,0,0,1-1.12-.09,3.91,3.91,0,0,1-.86-.26v-1.35a6.06,6.06,0,0,0,1,.36,4.58,4.58,0,0,0,1,.14c.6,0,.89-.17.89-.51a.48.48,0,0,0-.11-.32,1.8,1.8,0,0,0-.41-.27c-.2-.1-.45-.22-.78-.36a4.28,4.28,0,0,1-1-.54,1.49,1.49,0,0,1-.48-.56,1.89,1.89,0,0,1-.14-.79,1.42,1.42,0,0,1,.62-1.24,3,3,0,0,1,1.75-.43,5,5,0,0,1,2.12.47l-.5,1.18a8.28,8.28,0,0,0-.84-.32,2.72,2.72,0,0,0-.8-.12c-.48,0-.73.13-.73.39a.46.46,0,0,0,.24.38,5.56,5.56,0,0,0,1,.48,5,5,0,0,1,1,.53,1.59,1.59,0,0,1,.48.57A1.68,1.68,0,0,1,616.12,151.87Z" transform="translate(-0.64 -3.43)" fill="#231f20"/><path d="M619.73,153.76c-1.87,0-2.81-1-2.81-3.08a3.28,3.28,0,0,1,.77-2.34,2.83,2.83,0,0,1,2.18-.8,4.18,4.18,0,0,1,1.87.4l-.48,1.27c-.26-.1-.5-.19-.72-.25a2.22,2.22,0,0,0-.67-.1c-.85,0-1.28.6-1.28,1.81s.43,1.76,1.28,1.76a3.07,3.07,0,0,0,.88-.12,3.32,3.32,0,0,0,.8-.4v1.4a2.44,2.44,0,0,1-.8.35A4.18,4.18,0,0,1,619.73,153.76Z" transform="translate(-0.64 -3.43)" fill="#231f20"/><path d="M628.29,150.64a3.24,3.24,0,0,1-.77,2.29,2.83,2.83,0,0,1-2.16.83,3,3,0,0,1-1.52-.38,2.51,2.51,0,0,1-1-1.09,3.71,3.71,0,0,1-.35-1.65,3.24,3.24,0,0,1,.77-2.29,2.83,2.83,0,0,1,2.16-.81,3,3,0,0,1,1.52.37,2.54,2.54,0,0,1,1,1.08A3.71,3.71,0,0,1,628.29,150.64Zm-4.15,0a2.6,2.6,0,0,0,.29,1.35,1.07,1.07,0,0,0,1,.45,1,1,0,0,0,.94-.45,2.55,2.55,0,0,0,.29-1.35,2.52,2.52,0,0,0-.29-1.34,1.06,1.06,0,0,0-1-.44,1,1,0,0,0-1,.44A2.49,2.49,0,0,0,624.14,150.64Z" transform="translate(-0.64 -3.43)" fill="#231f20"/><path d="M632.89,147.54a2.88,2.88,0,0,1,.55,0l-.12,1.54a1.8,1.8,0,0,0-.49-.05,1.73,1.73,0,0,0-1.22.4,1.46,1.46,0,0,0-.44,1.13v3.05h-1.63v-6h1.24l.24,1h.08a2.28,2.28,0,0,1,.75-.82A1.93,1.93,0,0,1,632.89,147.54Z" transform="translate(-0.64 -3.43)" fill="#231f20"/><path d="M637.14,153.76a3.13,3.13,0,0,1-2.27-.8,3,3,0,0,1-.81-2.27,3.35,3.35,0,0,1,.75-2.33,3.08,3.08,0,0,1,4.07-.1,2.74,2.74,0,0,1,.71,2v.8h-3.87a1.54,1.54,0,0,0,.41,1.09,1.46,1.46,0,0,0,1.08.39,4.85,4.85,0,0,0,1-.11,5.87,5.87,0,0,0,1-.36v1.27a4.54,4.54,0,0,1-.92.32A6.61,6.61,0,0,1,637.14,153.76Zm-.23-5.06a1,1,0,0,0-.82.33,1.51,1.51,0,0,0-.34.94h2.3a1.35,1.35,0,0,0-.32-.94A1.06,1.06,0,0,0,636.91,148.7Z" transform="translate(-0.64 -3.43)" fill="#231f20"/><path d="M648.78,147.65v.83l-.94.24a1.58,1.58,0,0,1,.26.9,1.82,1.82,0,0,1-.67,1.51,2.93,2.93,0,0,1-1.87.54l-.3,0-.24,0a.54.54,0,0,0-.25.43c0,.23.3.35.9.35h1a2.26,2.26,0,0,1,1.5.43,1.49,1.49,0,0,1,.52,1.24,1.84,1.84,0,0,1-.87,1.63,4.58,4.58,0,0,1-2.53.58,3.55,3.55,0,0,1-1.92-.43,1.39,1.39,0,0,1-.66-1.23,1.29,1.29,0,0,1,.34-.91,1.91,1.91,0,0,1,1-.52,1.12,1.12,0,0,1-.44-.35.88.88,0,0,1-.19-.52.84.84,0,0,1,.2-.57,2.66,2.66,0,0,1,.58-.45,1.58,1.58,0,0,1-.75-.65,2,2,0,0,1-.28-1.07,1.87,1.87,0,0,1,.64-1.52,2.75,2.75,0,0,1,1.83-.53,4.85,4.85,0,0,1,.6,0l.44.07Zm-4.63,6.85a.6.6,0,0,0,.32.53,1.78,1.78,0,0,0,.91.2,3.07,3.07,0,0,0,1.38-.25.72.72,0,0,0,.5-.66.46.46,0,0,0-.29-.46,2.33,2.33,0,0,0-.91-.13h-.85a1.29,1.29,0,0,0-.76.21A.66.66,0,0,0,644.15,154.5Zm.59-4.89a1.23,1.23,0,0,0,.23.78.8.8,0,0,0,.68.28.78.78,0,0,0,.67-.28,1.23,1.23,0,0,0,.22-.78c0-.72-.3-1.08-.89-1.08S644.74,148.89,644.74,149.61Z" transform="translate(-0.64 -3.43)" fill="#231f20"/><path d="M653.48,153.65l-.32-.81h0a2.43,2.43,0,0,1-.85.72,2.81,2.81,0,0,1-1.14.2,1.89,1.89,0,0,1-1.36-.49,1.91,1.91,0,0,1-.5-1.41,1.59,1.59,0,0,1,.67-1.41,3.9,3.9,0,0,1,2-.5l1,0v-.26a.81.81,0,0,0-.93-.91,4.28,4.28,0,0,0-1.7.43l-.54-1.1a4.91,4.91,0,0,1,2.3-.55,2.85,2.85,0,0,1,1.85.53,1.94,1.94,0,0,1,.65,1.6v4Zm-.49-2.78-.63,0a2.1,2.1,0,0,0-1.07.26.82.82,0,0,0-.35.72c0,.46.27.69.8.69a1.26,1.26,0,0,0,.91-.33,1.12,1.12,0,0,0,.34-.87Z" transform="translate(-0.64 -3.43)" fill="#231f20"/><path d="M659.49,153.76a2,2,0,0,1-1.66-.77h-.08c0,.5.08.79.08.87v2.43h-1.64v-8.64h1.34l.23.78h.07a1.89,1.89,0,0,1,1.71-.89,1.94,1.94,0,0,1,1.66.82,3.79,3.79,0,0,1,.6,2.28,4.46,4.46,0,0,1-.28,1.67,2.44,2.44,0,0,1-.8,1.08A2.06,2.06,0,0,1,659.49,153.76Zm-.48-4.91a1,1,0,0,0-.89.37,2.22,2.22,0,0,0-.29,1.23v.18a2.53,2.53,0,0,0,.29,1.38,1,1,0,0,0,.91.42c.74,0,1.1-.6,1.1-1.81a2.59,2.59,0,0,0-.27-1.33A.91.91,0,0,0,659,148.85Z" transform="translate(-0.64 -3.43)" fill="#231f20"/><line x1="527.68" y1="143.34" x2="547.77" y2="143.42" fill="none" stroke="#231f20" stroke-miterlimit="10" stroke-width="0.5"/><circle cx="549.03" cy="143.54" r="2.72" fill="#fff" stroke="#231f20" stroke-miterlimit="10"/><line x1="528.3" y1="83.75" x2="528.3" y2="199.95" fill="none" stroke="#231f20" stroke-miterlimit="10" stroke-width="0.5"/><line x1="457.5" y1="199.75" x2="528.3" y2="199.75" fill="none" stroke="#231f20" stroke-miterlimit="10" stroke-width="0.5"/><rect x="323.3" y="184.35" width="127.8" height="32.8" fill="#262b69"/><path d="M422.67,211.59H412.19v-2.21l3.76-3.8c1.11-1.14,1.84-1.94,2.18-2.38a5,5,0,0,0,.74-1.22,3.17,3.17,0,0,0,.23-1.17,1.7,1.7,0,0,0-.5-1.34,1.89,1.89,0,0,0-1.33-.44,3.9,3.9,0,0,0-1.69.39,8.75,8.75,0,0,0-1.71,1.14l-1.72-2a11,11,0,0,1,1.83-1.33,6.88,6.88,0,0,1,1.59-.6,8.21,8.21,0,0,1,1.93-.21,5.72,5.72,0,0,1,2.48.51,3.93,3.93,0,0,1,1.67,1.44,3.78,3.78,0,0,1,.6,2.11,5.19,5.19,0,0,1-.37,1.94,7.19,7.19,0,0,1-1.13,1.86,26,26,0,0,1-2.69,2.72l-1.93,1.82v.14h6.54Z" transform="translate(-0.64 -3.43)" fill="#fff"/><path d="M429.13,196.4a5.69,5.69,0,0,1,3.47,1,3.11,3.11,0,0,1,1.32,2.64,3.42,3.42,0,0,1-.64,2,5.39,5.39,0,0,1-2,1.6,7.33,7.33,0,0,1,2.42,1.88,3.49,3.49,0,0,1,.73,2.15,3.58,3.58,0,0,1-1.44,3,6.05,6.05,0,0,1-3.81,1.12,6.37,6.37,0,0,1-3.86-1,3.49,3.49,0,0,1-1.41-3,3.94,3.94,0,0,1,.68-2.27,5.73,5.73,0,0,1,2.19-1.76,5.63,5.63,0,0,1-1.84-1.73,3.79,3.79,0,0,1-.57-2,3.13,3.13,0,0,1,1.34-2.61A5.65,5.65,0,0,1,429.13,196.4Zm-2.34,11.2a1.66,1.66,0,0,0,.62,1.37,2.61,2.61,0,0,0,1.68.49,2.66,2.66,0,0,0,1.76-.5,1.7,1.7,0,0,0,.59-1.34,1.82,1.82,0,0,0-.58-1.29,7.7,7.7,0,0,0-1.88-1.28Q426.79,206.06,426.79,207.6Zm2.32-8.88a2,2,0,0,0-1.31.41,1.39,1.39,0,0,0-.49,1.12,1.72,1.72,0,0,0,.39,1.1,4.35,4.35,0,0,0,1.43,1,4.12,4.12,0,0,0,1.41-1,1.77,1.77,0,0,0,.4-1.13,1.33,1.33,0,0,0-.52-1.12A2,2,0,0,0,429.11,198.72Z" transform="translate(-0.64 -3.43)" fill="#fff"/><path d="M446.14,204.09q0,3.93-1.29,5.81a4.46,4.46,0,0,1-4,1.89,4.4,4.4,0,0,1-3.91-1.95,10.27,10.27,0,0,1-1.32-5.75q0-4,1.28-5.85a5,5,0,0,1,7.87.09A10.26,10.26,0,0,1,446.14,204.09Zm-7.33,0a11.86,11.86,0,0,0,.47,3.95,1.67,1.67,0,0,0,3.21,0,16,16,0,0,0,0-7.9,1.66,1.66,0,0,0-3.19,0A11.65,11.65,0,0,0,438.81,204.09Z" transform="translate(-0.64 -3.43)" fill="#fff"/><path d="M328.44,177.59h-.91v-7.05H325v-.81h5.89v.81h-2.49Z" transform="translate(-0.64 -3.43)" fill="#231f20"/><path d="M335.6,177.59l-.18-.84h0a2.53,2.53,0,0,1-.88.75,2.7,2.7,0,0,1-1.09.19,2,2,0,0,1-1.38-.45,1.64,1.64,0,0,1-.49-1.28c0-1.19.95-1.81,2.85-1.87l1,0v-.37a1.48,1.48,0,0,0-.3-1,1.23,1.23,0,0,0-.95-.33,3.92,3.92,0,0,0-1.67.45l-.27-.68a4.36,4.36,0,0,1,2-.51,2.26,2.26,0,0,1,1.56.47,1.94,1.94,0,0,1,.51,1.5v4Zm-2-.63a1.79,1.79,0,0,0,1.31-.46,1.67,1.67,0,0,0,.48-1.28v-.53l-.9,0a3.13,3.13,0,0,0-1.53.33,1,1,0,0,0-.47.91,1,1,0,0,0,.29.74A1.27,1.27,0,0,0,333.58,177Z" transform="translate(-0.64 -3.43)" fill="#231f20"/><path d="M339,177.59h-.9v-8.36h.9Z" transform="translate(-0.64 -3.43)" fill="#231f20"/><path d="M341.76,174.57c.15-.22.39-.5.7-.86l1.9-2h1.06L343,174.21l2.55,3.38h-1.08l-2.08-2.79-.67.58v2.21h-.88v-8.36h.88v4.43c0,.2,0,.5-.05.91Z" transform="translate(-0.64 -3.43)" fill="#231f20"/><path d="M349.14,177.69a2.7,2.7,0,0,1-2.06-.79,3.06,3.06,0,0,1-.76-2.21,3.45,3.45,0,0,1,.7-2.26,2.34,2.34,0,0,1,1.89-.84,2.22,2.22,0,0,1,1.75.73,2.78,2.78,0,0,1,.64,1.92v.56h-4.05a2.35,2.35,0,0,0,.52,1.58,1.81,1.81,0,0,0,1.4.54,4.85,4.85,0,0,0,1.88-.4v.79a4,4,0,0,1-.89.29A5,5,0,0,1,349.14,177.69Zm-.24-5.35a1.43,1.43,0,0,0-1.13.46,2.07,2.07,0,0,0-.5,1.28h3.08a2,2,0,0,0-.38-1.29A1.32,1.32,0,0,0,348.9,172.34Z" transform="translate(-0.64 -3.43)" fill="#231f20"/><path d="M356.83,176.8h-.05a2.11,2.11,0,0,1-1.85.89,2.15,2.15,0,0,1-1.79-.79,3.44,3.44,0,0,1-.65-2.24,3.52,3.52,0,0,1,.65-2.26,2.38,2.38,0,0,1,3.63.06h.07l0-.42,0-.42v-2.39h.89v8.36H357Zm-1.78.15a1.63,1.63,0,0,0,1.32-.5,2.54,2.54,0,0,0,.41-1.6v-.19a2.94,2.94,0,0,0-.42-1.79,1.58,1.58,0,0,0-1.32-.53,1.37,1.37,0,0,0-1.21.61,3.08,3.08,0,0,0-.41,1.72,2.94,2.94,0,0,0,.41,1.7A1.4,1.4,0,0,0,355.05,177Z" transform="translate(-0.64 -3.43)" fill="#231f20"/><path d="M367.23,177.59l-1.08-3.46c-.07-.21-.2-.69-.38-1.44h0c-.14.63-.26,1.11-.37,1.45l-1.11,3.45h-1l-1.6-5.89h.93l.87,3.38a13.4,13.4,0,0,1,.34,1.56h0c0-.2.11-.47.2-.79s.16-.58.22-.77l1.08-3.38h1l1.05,3.38a11,11,0,0,1,.41,1.55h0q0-.19.12-.6c.06-.26.44-1.71,1.12-4.33h.92l-1.62,5.89Z" transform="translate(-0.64 -3.43)" fill="#231f20"/><path d="M370.9,170.1a.57.57,0,0,1,.15-.44.52.52,0,0,1,.38-.15.53.53,0,0,1,.37.15.57.57,0,0,1,.15.44.61.61,0,0,1-.15.45.53.53,0,0,1-.37.15.52.52,0,0,1-.38-.15A.61.61,0,0,1,370.9,170.1Zm1,7.49H371V171.7h.89Z" transform="translate(-0.64 -3.43)" fill="#231f20"/><path d="M375.66,177a2.32,2.32,0,0,0,.46,0,2.15,2.15,0,0,0,.35-.07v.68a1.51,1.51,0,0,1-.43.12,3.25,3.25,0,0,1-.51,0q-1.71,0-1.71-1.8v-3.5H373V172l.84-.37.38-1.26h.51v1.37h1.71v.69h-1.71v3.47a1.18,1.18,0,0,0,.26.81A.88.88,0,0,0,375.66,177Z" transform="translate(-0.64 -3.43)" fill="#231f20"/><path d="M381.67,177.59v-3.81a1.55,1.55,0,0,0-.33-1.08,1.34,1.34,0,0,0-1-.35,1.72,1.72,0,0,0-1.36.5,2.6,2.6,0,0,0-.43,1.66v3.08h-.89v-8.36h.89v2.53a5.44,5.44,0,0,1,0,.76h.05a1.81,1.81,0,0,1,.75-.67,2.39,2.39,0,0,1,1.11-.25,2.24,2.24,0,0,1,1.62.52,2.15,2.15,0,0,1,.54,1.63v3.84Z" transform="translate(-0.64 -3.43)" fill="#231f20"/><path d="M390.87,177.59l-.18-.84h0a2.45,2.45,0,0,1-.88.75,2.66,2.66,0,0,1-1.09.19,2,2,0,0,1-1.37-.45,1.65,1.65,0,0,1-.5-1.28c0-1.19.95-1.81,2.85-1.87l1,0v-.37a1.48,1.48,0,0,0-.3-1,1.2,1.2,0,0,0-.95-.33,3.84,3.84,0,0,0-1.66.45l-.28-.68a4.36,4.36,0,0,1,2-.51,2.22,2.22,0,0,1,1.56.47,1.94,1.94,0,0,1,.51,1.5v4Zm-2-.63a1.81,1.81,0,0,0,1.31-.46,1.71,1.71,0,0,0,.47-1.28v-.53l-.89,0a3.17,3.17,0,0,0-1.54.33,1,1,0,0,0-.46.91.92.92,0,0,0,.29.74A1.25,1.25,0,0,0,388.86,177Z" transform="translate(-0.64 -3.43)" fill="#231f20"/><path d="M403.73,177.59v-3.83a1.61,1.61,0,0,0-.3-1.06,1.18,1.18,0,0,0-.94-.35,1.52,1.52,0,0,0-1.23.48,2.31,2.31,0,0,0-.39,1.47v3.29H400v-3.83a1.56,1.56,0,0,0-.31-1.06,1.18,1.18,0,0,0-.94-.35,1.46,1.46,0,0,0-1.22.5,2.74,2.74,0,0,0-.39,1.65v3.09h-.89V171.7H397l.15.8h0a1.84,1.84,0,0,1,.71-.67,2.2,2.2,0,0,1,1-.24,1.74,1.74,0,0,1,1.8,1h.05a1.85,1.85,0,0,1,.76-.73,2.34,2.34,0,0,1,1.14-.27,2,2,0,0,1,1.5.51,2.33,2.33,0,0,1,.49,1.65v3.84Z" transform="translate(-0.64 -3.43)" fill="#231f20"/><path d="M406.38,170.1a.57.57,0,0,1,.15-.44.52.52,0,0,1,.38-.15.51.51,0,0,1,.37.15.57.57,0,0,1,.16.44.61.61,0,0,1-.16.45.51.51,0,0,1-.37.15.52.52,0,0,1-.38-.15A.61.61,0,0,1,406.38,170.1Zm1,7.49h-.89V171.7h.89Z" transform="translate(-0.64 -3.43)" fill="#231f20"/><path d="M410.13,177.59h-.89v-8.36h.89Z" transform="translate(-0.64 -3.43)" fill="#231f20"/><path d="M412,170.1a.57.57,0,0,1,.15-.44.53.53,0,0,1,.74,0,.54.54,0,0,1,.16.44.58.58,0,0,1-.16.45.53.53,0,0,1-.74,0A.61.61,0,0,1,412,170.1Zm1,7.49H412V171.7h.89Z" transform="translate(-0.64 -3.43)" fill="#231f20"/><path d="M416.71,177a2.22,2.22,0,0,0,.45,0,1.77,1.77,0,0,0,.35-.07v.68a1.42,1.42,0,0,1-.43.12,3,3,0,0,1-.5,0q-1.71,0-1.71-1.8v-3.5H414V172l.84-.37.38-1.26h.51v1.37h1.71v.69h-1.71v3.47a1.17,1.17,0,0,0,.25.81A.89.89,0,0,0,416.71,177Z" transform="translate(-0.64 -3.43)" fill="#231f20"/><path d="M422.31,177.59l-.18-.84h0a2.53,2.53,0,0,1-.88.75,2.7,2.7,0,0,1-1.09.19,2,2,0,0,1-1.38-.45,1.64,1.64,0,0,1-.49-1.28c0-1.19.95-1.81,2.85-1.87l1,0v-.37a1.48,1.48,0,0,0-.3-1,1.23,1.23,0,0,0-.95-.33,3.92,3.92,0,0,0-1.67.45l-.27-.68a4.36,4.36,0,0,1,2-.51,2.26,2.26,0,0,1,1.56.47,1.94,1.94,0,0,1,.51,1.5v4Zm-2-.63a1.79,1.79,0,0,0,1.31-.46,1.67,1.67,0,0,0,.48-1.28v-.53l-.89,0a3.14,3.14,0,0,0-1.54.33,1,1,0,0,0-.47.91,1,1,0,0,0,.29.74A1.27,1.27,0,0,0,420.29,177Z" transform="translate(-0.64 -3.43)" fill="#231f20"/><path d="M427.49,171.59a3,3,0,0,1,.7.07l-.12.82a3.28,3.28,0,0,0-.64-.08,1.57,1.57,0,0,0-1.22.58,2.12,2.12,0,0,0-.51,1.45v3.16h-.89V171.7h.73l.1,1.09h.05a2.65,2.65,0,0,1,.79-.89A1.8,1.8,0,0,1,427.49,171.59Z" transform="translate(-0.64 -3.43)" fill="#231f20"/><path d="M428.36,171.7h1l1.29,3.36a13,13,0,0,1,.52,1.66h.05a9.84,9.84,0,0,1,.29-.94c.15-.44.63-1.8,1.46-4.08h.95l-2.53,6.7a3.2,3.2,0,0,1-.88,1.41,1.84,1.84,0,0,1-1.23.42,3.57,3.57,0,0,1-.8-.09v-.72a2.62,2.62,0,0,0,.66.07,1.37,1.37,0,0,0,1.31-1l.33-.84Z" transform="translate(-0.64 -3.43)" fill="#231f20"/><path d="M440.38,171.59a3,3,0,0,1,.7.07l-.12.82a3.28,3.28,0,0,0-.64-.08,1.57,1.57,0,0,0-1.22.58,2.12,2.12,0,0,0-.51,1.45v3.16h-.89V171.7h.73l.1,1.09h.05a2.65,2.65,0,0,1,.79-.89A1.8,1.8,0,0,1,440.38,171.59Z" transform="translate(-0.64 -3.43)" fill="#231f20"/><path d="M444.67,177.69a2.71,2.71,0,0,1-2.06-.79,3.1,3.1,0,0,1-.75-2.21,3.4,3.4,0,0,1,.7-2.26,2.32,2.32,0,0,1,1.88-.84,2.2,2.2,0,0,1,1.75.73,2.79,2.79,0,0,1,.65,1.92v.56h-4.06a2.36,2.36,0,0,0,.53,1.58,1.79,1.79,0,0,0,1.4.54,4.76,4.76,0,0,0,1.87-.4v.79a3.84,3.84,0,0,1-.89.29A5,5,0,0,1,444.67,177.69Zm-.24-5.35a1.45,1.45,0,0,0-1.13.46,2.13,2.13,0,0,0-.5,1.28h3.08a2,2,0,0,0-.37-1.29A1.34,1.34,0,0,0,444.43,172.34Z" transform="translate(-0.64 -3.43)" fill="#231f20"/><path d="M450.71,177.69a2.53,2.53,0,0,1-2-.78,3.24,3.24,0,0,1-.7-2.23,3.35,3.35,0,0,1,.71-2.28,2.56,2.56,0,0,1,2-.81,4.17,4.17,0,0,1,.85.09,2.81,2.81,0,0,1,.66.22l-.27.76a4,4,0,0,0-.64-.2,3.1,3.1,0,0,0-.62-.08c-1.2,0-1.8.76-1.8,2.29a2.71,2.71,0,0,0,.44,1.66,1.53,1.53,0,0,0,1.3.59,4,4,0,0,0,1.51-.32v.79A3.29,3.29,0,0,1,450.71,177.69Z" transform="translate(-0.64 -3.43)" fill="#231f20"/><path d="M456.28,171.59a3,3,0,0,1,.7.07l-.12.82a3.28,3.28,0,0,0-.64-.08A1.6,1.6,0,0,0,455,173a2.16,2.16,0,0,0-.5,1.45v3.16h-.9V171.7h.74l.1,1.09h.05a2.63,2.63,0,0,1,.78-.89A1.85,1.85,0,0,1,456.28,171.59Z" transform="translate(-0.64 -3.43)" fill="#231f20"/><path d="M458.92,171.7v3.82a1.51,1.51,0,0,0,.33,1.07,1.33,1.33,0,0,0,1,.36,1.68,1.68,0,0,0,1.35-.51,2.56,2.56,0,0,0,.42-1.65V171.7h.9v5.89h-.74l-.13-.79H462a1.69,1.69,0,0,1-.76.66,2.45,2.45,0,0,1-1.11.23,2.27,2.27,0,0,1-1.61-.51,2.19,2.19,0,0,1-.53-1.63V171.7Z" transform="translate(-0.64 -3.43)" fill="#231f20"/><path d="M464.76,170.1a.57.57,0,0,1,.15-.44.52.52,0,0,1,.38-.15.53.53,0,0,1,.37.15.57.57,0,0,1,.15.44.61.61,0,0,1-.15.45.53.53,0,0,1-.37.15.52.52,0,0,1-.38-.15A.61.61,0,0,1,464.76,170.1Zm1,7.49h-.89V171.7h.89Z" transform="translate(-0.64 -3.43)" fill="#231f20"/><path d="M469.52,177a2.32,2.32,0,0,0,.46,0,2.15,2.15,0,0,0,.35-.07v.68a1.51,1.51,0,0,1-.43.12,3.25,3.25,0,0,1-.51,0q-1.71,0-1.71-1.8v-3.5h-.84V172l.84-.37.38-1.26h.52v1.37h1.7v.69h-1.7v3.47a1.17,1.17,0,0,0,.25.81A.88.88,0,0,0,469.52,177Z" transform="translate(-0.64 -3.43)" fill="#231f20"/><path d="M474,177.69a2.7,2.7,0,0,1-2.06-.79,3.1,3.1,0,0,1-.76-2.21,3.4,3.4,0,0,1,.71-2.26,2.31,2.31,0,0,1,1.88-.84,2.2,2.2,0,0,1,1.75.73,2.78,2.78,0,0,1,.64,1.92v.56h-4a2.35,2.35,0,0,0,.52,1.58,1.81,1.81,0,0,0,1.4.54,4.85,4.85,0,0,0,1.88-.4v.79a3.84,3.84,0,0,1-.89.29A5,5,0,0,1,474,177.69Zm-.24-5.35a1.43,1.43,0,0,0-1.13.46,2.07,2.07,0,0,0-.5,1.28h3.08a2,2,0,0,0-.38-1.29A1.32,1.32,0,0,0,473.75,172.34Z" transform="translate(-0.64 -3.43)" fill="#231f20"/><path d="M480.36,171.59a3,3,0,0,1,.7.07l-.12.82a3.28,3.28,0,0,0-.65-.08,1.6,1.6,0,0,0-1.22.58,2.12,2.12,0,0,0-.5,1.45v3.16h-.9V171.7h.74l.1,1.09h0a2.76,2.76,0,0,1,.79-.89A1.85,1.85,0,0,1,480.36,171.59Z" transform="translate(-0.64 -3.43)" fill="#231f20"/><line x1="486.7" y1="83.75" x2="528.3" y2="83.75" fill="none" stroke="#231f20" stroke-miterlimit="10" stroke-width="0.5"/><rect x="323.23" y="68.35" width="157.07" height="32.8" fill="#00aeef"/><path d="M450.67,96.59H440.19V94.38l3.76-3.8c1.11-1.14,1.84-1.94,2.18-2.38a5,5,0,0,0,.74-1.22,3.17,3.17,0,0,0,.23-1.17,1.7,1.7,0,0,0-.5-1.34,1.89,1.89,0,0,0-1.33-.44,3.9,3.9,0,0,0-1.69.39,8.75,8.75,0,0,0-1.71,1.14l-1.72-2A11,11,0,0,1,442,82.19a6.88,6.88,0,0,1,1.59-.6,8.21,8.21,0,0,1,1.93-.21,5.72,5.72,0,0,1,2.48.51,3.93,3.93,0,0,1,1.67,1.44,3.78,3.78,0,0,1,.6,2.11,5.19,5.19,0,0,1-.37,1.94,7.19,7.19,0,0,1-1.13,1.86A26,26,0,0,1,446.06,92l-1.93,1.82v.14h6.54Z" transform="translate(-0.64 -3.43)" fill="#fff"/><path d="M457.13,81.4a5.69,5.69,0,0,1,3.47,1A3.11,3.11,0,0,1,461.92,85a3.42,3.42,0,0,1-.64,2,5.39,5.39,0,0,1-2,1.6,7.33,7.33,0,0,1,2.42,1.88,3.49,3.49,0,0,1,.73,2.15,3.58,3.58,0,0,1-1.44,3,6.05,6.05,0,0,1-3.81,1.12,6.37,6.37,0,0,1-3.86-1,3.49,3.49,0,0,1-1.41-3,3.94,3.94,0,0,1,.68-2.27,5.73,5.73,0,0,1,2.19-1.76A5.63,5.63,0,0,1,452.89,87a3.79,3.79,0,0,1-.57-2,3.13,3.13,0,0,1,1.34-2.61A5.65,5.65,0,0,1,457.13,81.4Zm-2.34,11.2a1.66,1.66,0,0,0,.62,1.37,2.61,2.61,0,0,0,1.68.49,2.66,2.66,0,0,0,1.76-.5,1.7,1.7,0,0,0,.59-1.34,1.82,1.82,0,0,0-.58-1.29A7.7,7.7,0,0,0,457,90.05Q454.79,91.06,454.79,92.6Zm2.32-8.88a2,2,0,0,0-1.31.41,1.39,1.39,0,0,0-.49,1.12,1.72,1.72,0,0,0,.39,1.1,4.35,4.35,0,0,0,1.43,1,4.12,4.12,0,0,0,1.41-1,1.77,1.77,0,0,0,.4-1.13,1.33,1.33,0,0,0-.52-1.12A2,2,0,0,0,457.11,83.72Z" transform="translate(-0.64 -3.43)" fill="#fff"/><path d="M474.16,88c0,3-.62,5.16-1.87,6.62s-3.12,2.18-5.65,2.18a11.18,11.18,0,0,1-2-.14V94.1a7.18,7.18,0,0,0,1.81.22,6.31,6.31,0,0,0,2.61-.47,3.28,3.28,0,0,0,1.57-1.46,6.61,6.61,0,0,0,.63-2.76h-.13A3.42,3.42,0,0,1,469.74,91a4.34,4.34,0,0,1-1.95.39,4,4,0,0,1-3.09-1.26,5,5,0,0,1-1.12-3.49A5.17,5.17,0,0,1,465,82.82a5,5,0,0,1,3.72-1.4,5.37,5.37,0,0,1,2.91.78,5,5,0,0,1,1.91,2.26A8.49,8.49,0,0,1,474.16,88Zm-5.43-4a1.88,1.88,0,0,0-1.53.68,3,3,0,0,0-.56,2,2.67,2.67,0,0,0,.51,1.72,1.8,1.8,0,0,0,1.52.64,2.33,2.33,0,0,0,1.65-.63,1.93,1.93,0,0,0,.69-1.45,3.32,3.32,0,0,0-.64-2.07A2,2,0,0,0,468.73,84Z" transform="translate(-0.64 -3.43)" fill="#fff"/><path d="M332.29,57.58a4,4,0,0,1-1.05,3,4.2,4.2,0,0,1-3,1H326V53.73h2.4a3.52,3.52,0,0,1,3.86,3.85Zm-1,0a3.18,3.18,0,0,0-.77-2.32,3.1,3.1,0,0,0-2.29-.78h-1.33V60.8h1.11a3.38,3.38,0,0,0,2.46-.81A3.18,3.18,0,0,0,331.33,57.62Z" transform="translate(-0.64 -3.43)" fill="#231f20"/><path d="M333.84,54.1a.57.57,0,0,1,.15-.44.5.5,0,0,1,.37-.15.51.51,0,0,1,.37.15.54.54,0,0,1,.16.44.58.58,0,0,1-.16.45.51.51,0,0,1-.37.15.5.5,0,0,1-.37-.15A.61.61,0,0,1,333.84,54.1Zm1,7.49h-.89V55.7h.89Z" transform="translate(-0.64 -3.43)" fill="#231f20"/><path d="M340.7,60.8h-.05a2.11,2.11,0,0,1-1.85.89A2.17,2.17,0,0,1,337,60.9a3.44,3.44,0,0,1-.64-2.24A3.52,3.52,0,0,1,337,56.4a2.38,2.38,0,0,1,3.63.06h.07l0-.42,0-.42V53.23h.89v8.36h-.72Zm-1.78.15a1.61,1.61,0,0,0,1.32-.5,2.54,2.54,0,0,0,.41-1.6v-.19a2.94,2.94,0,0,0-.42-1.79,1.58,1.58,0,0,0-1.32-.53,1.34,1.34,0,0,0-1.2.61,3,3,0,0,0-.42,1.72,2.94,2.94,0,0,0,.41,1.7A1.4,1.4,0,0,0,338.92,61Z" transform="translate(-0.64 -3.43)" fill="#231f20"/><path d="M347.46,61.59V57.78a1.55,1.55,0,0,0-.33-1.08,1.34,1.34,0,0,0-1-.35,1.72,1.72,0,0,0-1.36.5,2.56,2.56,0,0,0-.42,1.65v3.09h-.9V55.7h.73l.14.8h.05a1.84,1.84,0,0,1,.76-.67,2.51,2.51,0,0,1,1.11-.24,1.86,1.86,0,0,1,2.13,2.16v3.84Z" transform="translate(-0.64 -3.43)" fill="#231f20"/><path d="M350.9,53.73l.08.12c-.09.36-.23.78-.4,1.25s-.36.92-.55,1.32h-.66c.25-1,.44-1.91.55-2.69Z" transform="translate(-0.64 -3.43)" fill="#231f20"/><path d="M354,61a2.22,2.22,0,0,0,.45,0,1.77,1.77,0,0,0,.35-.07v.68a1.51,1.51,0,0,1-.43.12,3,3,0,0,1-.5,0q-1.71,0-1.71-1.8v-3.5h-.84V56l.84-.37.37-1.26H353V55.7h1.71v.69H353v3.47a1.17,1.17,0,0,0,.25.81A.89.89,0,0,0,354,61Z" transform="translate(-0.64 -3.43)" fill="#231f20"/><path d="M360.7,61a2.22,2.22,0,0,0,.45,0,1.77,1.77,0,0,0,.35-.07v.68a1.43,1.43,0,0,1-.42.12,3.25,3.25,0,0,1-.51,0q-1.71,0-1.71-1.8v-3.5H358V56l.84-.37.38-1.26h.51V55.7h1.71v.69h-1.71v3.47a1.17,1.17,0,0,0,.25.81A.89.89,0,0,0,360.7,61Z" transform="translate(-0.64 -3.43)" fill="#231f20"/><path d="M366.3,61.59l-.18-.84h0a2.53,2.53,0,0,1-.88.75,2.7,2.7,0,0,1-1.09.19,2,2,0,0,1-1.38-.45,1.64,1.64,0,0,1-.49-1.28c0-1.19.95-1.81,2.85-1.87l1,0v-.37a1.48,1.48,0,0,0-.3-1,1.23,1.23,0,0,0-1-.33,3.92,3.92,0,0,0-1.67.45l-.27-.68a4.36,4.36,0,0,1,2-.51,2.26,2.26,0,0,1,1.56.47,1.94,1.94,0,0,1,.51,1.5v4Zm-2-.63a1.79,1.79,0,0,0,1.31-.46,1.67,1.67,0,0,0,.48-1.28v-.53l-.89,0a3.17,3.17,0,0,0-1.54.33,1,1,0,0,0-.47.91.92.92,0,0,0,.3.74A1.22,1.22,0,0,0,364.28,61Z" transform="translate(-0.64 -3.43)" fill="#231f20"/><path d="M369.69,61.59h-.89V53.23h.89Z" transform="translate(-0.64 -3.43)" fill="#231f20"/><path d="M372.46,58.57c.15-.22.39-.5.7-.86l1.9-2h1.06l-2.38,2.51,2.55,3.38h-1.08l-2.08-2.79-.67.58v2.21h-.88V53.23h.88v4.43c0,.2,0,.5,0,.91Z" transform="translate(-0.64 -3.43)" fill="#231f20"/><path d="M385,61.59l-1.08-3.46q-.1-.32-.39-1.44h0c-.14.63-.27,1.11-.37,1.45L382,61.59h-1l-1.6-5.89h.93l.87,3.38a13.4,13.4,0,0,1,.34,1.56h0c0-.2.11-.47.19-.79s.17-.58.23-.77l1.08-3.38h1l1,3.38a11,11,0,0,1,.41,1.55h0q0-.2.12-.6c.06-.26.43-1.71,1.12-4.33h.92l-1.63,5.89Z" transform="translate(-0.64 -3.43)" fill="#231f20"/><path d="M388.69,54.1a.57.57,0,0,1,.15-.44.52.52,0,0,1,.38-.15.53.53,0,0,1,.37.15.57.57,0,0,1,.15.44.61.61,0,0,1-.15.45.53.53,0,0,1-.37.15.52.52,0,0,1-.38-.15A.61.61,0,0,1,388.69,54.1Zm1,7.49h-.89V55.7h.89Z" transform="translate(-0.64 -3.43)" fill="#231f20"/><path d="M393.45,61a2.32,2.32,0,0,0,.46,0,1.81,1.81,0,0,0,.34-.07v.68a1.34,1.34,0,0,1-.42.12,3.25,3.25,0,0,1-.51,0q-1.71,0-1.71-1.8v-3.5h-.84V56l.84-.37.38-1.26h.51V55.7h1.71v.69H392.5v3.47a1.18,1.18,0,0,0,.26.81A.87.87,0,0,0,393.45,61Z" transform="translate(-0.64 -3.43)" fill="#231f20"/><path d="M399.46,61.59V57.78a1.55,1.55,0,0,0-.33-1.08,1.35,1.35,0,0,0-1-.35,1.72,1.72,0,0,0-1.36.5,2.6,2.6,0,0,0-.43,1.66v3.08h-.89V53.23h.89v2.53a5.53,5.53,0,0,1,0,.76h.05a1.81,1.81,0,0,1,.75-.67,2.39,2.39,0,0,1,1.11-.25,2.24,2.24,0,0,1,1.62.52,2.15,2.15,0,0,1,.54,1.63v3.84Z" transform="translate(-0.64 -3.43)" fill="#231f20"/><path d="M408.66,61.59l-.18-.84h0a2.45,2.45,0,0,1-.88.75,2.66,2.66,0,0,1-1.09.19,2,2,0,0,1-1.37-.45,1.65,1.65,0,0,1-.5-1.28c0-1.19.95-1.81,2.85-1.87l1,0v-.37a1.48,1.48,0,0,0-.3-1,1.22,1.22,0,0,0-.95-.33,3.92,3.92,0,0,0-1.67.45l-.27-.68a4.36,4.36,0,0,1,2-.51,2.24,2.24,0,0,1,1.56.47,1.94,1.94,0,0,1,.51,1.5v4Zm-2-.63a1.77,1.77,0,0,0,1.3-.46,1.67,1.67,0,0,0,.48-1.28v-.53l-.89,0a3.17,3.17,0,0,0-1.54.33,1,1,0,0,0-.47.91.92.92,0,0,0,.3.74A1.24,1.24,0,0,0,406.65,61Z" transform="translate(-0.64 -3.43)" fill="#231f20"/><path d="M421.52,61.59V57.76a1.61,1.61,0,0,0-.3-1.06,1.18,1.18,0,0,0-.94-.35,1.52,1.52,0,0,0-1.23.48,2.31,2.31,0,0,0-.39,1.47v3.29h-.9V57.76a1.61,1.61,0,0,0-.3-1.06,1.18,1.18,0,0,0-.94-.35,1.45,1.45,0,0,0-1.22.5,2.72,2.72,0,0,0-.39,1.65v3.09H414V55.7h.72l.15.8h0a1.77,1.77,0,0,1,.71-.67,2.2,2.2,0,0,1,1-.24,1.74,1.74,0,0,1,1.8,1h0a1.85,1.85,0,0,1,.76-.73,2.34,2.34,0,0,1,1.14-.27,2,2,0,0,1,1.49.51,2.28,2.28,0,0,1,.5,1.65v3.84Z" transform="translate(-0.64 -3.43)" fill="#231f20"/><path d="M424.17,54.1a.57.57,0,0,1,.15-.44.52.52,0,0,1,.38-.15.53.53,0,0,1,.37.15.57.57,0,0,1,.15.44.61.61,0,0,1-.15.45.53.53,0,0,1-.37.15.52.52,0,0,1-.38-.15A.61.61,0,0,1,424.17,54.1Zm1,7.49h-.89V55.7h.89Z" transform="translate(-0.64 -3.43)" fill="#231f20"/><path d="M427.92,61.59H427V53.23h.89Z" transform="translate(-0.64 -3.43)" fill="#231f20"/><path d="M429.74,54.1a.57.57,0,0,1,.15-.44.53.53,0,0,1,.74,0,.54.54,0,0,1,.16.44.58.58,0,0,1-.16.45.53.53,0,0,1-.74,0A.61.61,0,0,1,429.74,54.1Zm1,7.49h-.89V55.7h.89Z" transform="translate(-0.64 -3.43)" fill="#231f20"/><path d="M434.5,61a2.28,2.28,0,0,0,.45,0,1.94,1.94,0,0,0,.35-.07v.68a1.51,1.51,0,0,1-.43.12,3,3,0,0,1-.5,0q-1.71,0-1.71-1.8v-3.5h-.85V56l.85-.37.37-1.26h.52V55.7h1.71v.69h-1.71v3.47a1.17,1.17,0,0,0,.25.81A.89.89,0,0,0,434.5,61Z" transform="translate(-0.64 -3.43)" fill="#231f20"/><path d="M440.1,61.59l-.18-.84h0a2.53,2.53,0,0,1-.88.75,2.7,2.7,0,0,1-1.09.19,2,2,0,0,1-1.38-.45A1.64,1.64,0,0,1,436,60c0-1.19.95-1.81,2.85-1.87l1,0v-.37a1.48,1.48,0,0,0-.3-1,1.23,1.23,0,0,0-.95-.33,3.92,3.92,0,0,0-1.67.45l-.27-.68a4,4,0,0,1,.95-.37,4.13,4.13,0,0,1,1-.14,2.26,2.26,0,0,1,1.56.47,1.94,1.94,0,0,1,.51,1.5v4Zm-2-.63a1.79,1.79,0,0,0,1.31-.46,1.67,1.67,0,0,0,.48-1.28v-.53l-.9,0a3.13,3.13,0,0,0-1.53.33A1,1,0,0,0,437,60a1,1,0,0,0,.29.74A1.27,1.27,0,0,0,438.08,61Z" transform="translate(-0.64 -3.43)" fill="#231f20"/><path d="M445.28,55.59a3,3,0,0,1,.7.07l-.12.82a3.28,3.28,0,0,0-.64-.08A1.6,1.6,0,0,0,444,57a2.16,2.16,0,0,0-.5,1.45v3.16h-.9V55.7h.74l.1,1.09h.05a2.63,2.63,0,0,1,.78-.89A1.85,1.85,0,0,1,445.28,55.59Z" transform="translate(-0.64 -3.43)" fill="#231f20"/><path d="M446.15,55.7h1l1.29,3.36a13,13,0,0,1,.52,1.66h0c.05-.19.15-.5.3-.94s.63-1.8,1.46-4.08h.95l-2.53,6.7a3.32,3.32,0,0,1-.88,1.41,1.84,1.84,0,0,1-1.23.42,3.57,3.57,0,0,1-.8-.09v-.72a2.62,2.62,0,0,0,.66.07,1.37,1.37,0,0,0,1.31-1l.32-.84Z" transform="translate(-0.64 -3.43)" fill="#231f20"/><path d="M458.17,55.59a3,3,0,0,1,.7.07l-.12.82a3.28,3.28,0,0,0-.64-.08,1.6,1.6,0,0,0-1.23.58,2.16,2.16,0,0,0-.5,1.45v3.16h-.89V55.7h.73l.1,1.09h.05a2.55,2.55,0,0,1,.79-.89A1.8,1.8,0,0,1,458.17,55.59Z" transform="translate(-0.64 -3.43)" fill="#231f20"/><path d="M462.46,61.69a2.71,2.71,0,0,1-2.06-.79,3.1,3.1,0,0,1-.75-2.21,3.4,3.4,0,0,1,.7-2.26,2.32,2.32,0,0,1,1.88-.84,2.2,2.2,0,0,1,1.75.73,2.77,2.77,0,0,1,.65,1.92v.56h-4.06a2.32,2.32,0,0,0,.53,1.58,1.79,1.79,0,0,0,1.4.53,4.79,4.79,0,0,0,1.87-.39v.79a3.84,3.84,0,0,1-.89.29A5,5,0,0,1,462.46,61.69Zm-.24-5.35a1.45,1.45,0,0,0-1.13.46,2.13,2.13,0,0,0-.5,1.28h3.08a1.91,1.91,0,0,0-.38-1.29A1.31,1.31,0,0,0,462.22,56.34Z" transform="translate(-0.64 -3.43)" fill="#231f20"/><path d="M468.5,61.69a2.53,2.53,0,0,1-2-.78,3.24,3.24,0,0,1-.7-2.23,3.35,3.35,0,0,1,.71-2.28,2.55,2.55,0,0,1,2-.81,4.17,4.17,0,0,1,.85.09,2.81,2.81,0,0,1,.66.22l-.27.76a3.82,3.82,0,0,0-.65-.2,2.92,2.92,0,0,0-.61-.08c-1.2,0-1.8.76-1.8,2.29a2.71,2.71,0,0,0,.44,1.66,1.51,1.51,0,0,0,1.3.58A4,4,0,0,0,470,60.6v.79A3.29,3.29,0,0,1,468.5,61.69Z" transform="translate(-0.64 -3.43)" fill="#231f20"/><path d="M474.07,55.59a3,3,0,0,1,.7.07l-.12.82a3.28,3.28,0,0,0-.65-.08,1.6,1.6,0,0,0-1.22.58,2.12,2.12,0,0,0-.5,1.45v3.16h-.9V55.7h.74l.1,1.09h0a2.76,2.76,0,0,1,.79-.89A1.85,1.85,0,0,1,474.07,55.59Z" transform="translate(-0.64 -3.43)" fill="#231f20"/><path d="M476.71,55.7v3.82a1.51,1.51,0,0,0,.33,1.07,1.33,1.33,0,0,0,1,.36,1.68,1.68,0,0,0,1.35-.51,2.56,2.56,0,0,0,.42-1.65V55.7h.9v5.89H480l-.13-.79h-.05a1.69,1.69,0,0,1-.76.66,2.45,2.45,0,0,1-1.11.23,2.27,2.27,0,0,1-1.61-.51,2.19,2.19,0,0,1-.53-1.63V55.7Z" transform="translate(-0.64 -3.43)" fill="#231f20"/><path d="M482.55,54.1a.57.57,0,0,1,.15-.44.52.52,0,0,1,.38-.15.53.53,0,0,1,.37.15.57.57,0,0,1,.15.44.61.61,0,0,1-.15.45.53.53,0,0,1-.37.15.52.52,0,0,1-.38-.15A.61.61,0,0,1,482.55,54.1Zm1,7.49h-.89V55.7h.89Z" transform="translate(-0.64 -3.43)" fill="#231f20"/><path d="M487.31,61a2.32,2.32,0,0,0,.46,0,2.15,2.15,0,0,0,.35-.07v.68a1.51,1.51,0,0,1-.43.12,3.25,3.25,0,0,1-.51,0q-1.71,0-1.71-1.8v-3.5h-.84V56l.84-.37.38-1.26h.51V55.7h1.71v.69h-1.71v3.47a1.18,1.18,0,0,0,.26.81A.88.88,0,0,0,487.31,61Z" transform="translate(-0.64 -3.43)" fill="#231f20"/><path d="M491.78,61.69a2.7,2.7,0,0,1-2.06-.79,3.06,3.06,0,0,1-.76-2.21,3.45,3.45,0,0,1,.7-2.26,2.34,2.34,0,0,1,1.89-.84,2.22,2.22,0,0,1,1.75.73,2.77,2.77,0,0,1,.64,1.92v.56h-4.05a2.37,2.37,0,0,0,.52,1.58,1.8,1.8,0,0,0,1.4.53,4.84,4.84,0,0,0,1.88-.39v.79a3.84,3.84,0,0,1-.89.29A5,5,0,0,1,491.78,61.69Zm-.24-5.35a1.43,1.43,0,0,0-1.13.46,2.07,2.07,0,0,0-.5,1.28H493a2,2,0,0,0-.38-1.29A1.32,1.32,0,0,0,491.54,56.34Z" transform="translate(-0.64 -3.43)" fill="#231f20"/><path d="M498.15,55.59a3,3,0,0,1,.7.07l-.12.82a3.28,3.28,0,0,0-.65-.08,1.6,1.6,0,0,0-1.22.58,2.12,2.12,0,0,0-.51,1.45v3.16h-.89V55.7h.74l.1,1.09h0a2.76,2.76,0,0,1,.79-.89A1.85,1.85,0,0,1,498.15,55.59Z" transform="translate(-0.64 -3.43)" fill="#231f20"/><path d="M332.21,20.39l-1-2.78h-3.82l-1,2.78h-1.72l3.74-10h1.78l3.73,10Zm-1.43-4.19-.94-2.72c-.07-.18-.16-.47-.28-.86s-.2-.68-.25-.86a14.54,14.54,0,0,1-.54,1.84l-.9,2.6Z" transform="translate(-0.64 -3.43)" fill="#231f20"/><path d="M341,10.39h1.69l-3.5,10h-1.72l-3.49-10h1.69l2.08,6.22a10.83,10.83,0,0,1,.35,1.14c.12.47.2.82.24,1q.09-.51.27-1.2c.13-.46.23-.79.3-1Z" transform="translate(-0.64 -3.43)" fill="#231f20"/><path d="M349.63,20.39H344v-10h5.66v1.38h-4v2.72h3.76v1.37h-3.76V19h4Z" transform="translate(-0.64 -3.43)" fill="#231f20"/><path d="M353.42,16.39v4h-1.63v-10h2.82a4.58,4.58,0,0,1,2.86.73,2.59,2.59,0,0,1,.93,2.18A2.71,2.71,0,0,1,356.46,16l2.83,4.43h-1.86l-2.4-4Zm0-1.35h1.14a2.59,2.59,0,0,0,1.65-.42,1.55,1.55,0,0,0,.51-1.26,1.35,1.35,0,0,0-.55-1.22,3.11,3.11,0,0,0-1.67-.37h-1.08Z" transform="translate(-0.64 -3.43)" fill="#231f20"/><path d="M366.94,20.39l-1-2.78h-3.82l-1,2.78h-1.72l3.73-10h1.78l3.74,10Zm-1.43-4.19-.94-2.72c-.07-.18-.16-.47-.28-.86s-.21-.68-.25-.86a18.82,18.82,0,0,1-.54,1.84l-.91,2.6Z" transform="translate(-0.64 -3.43)" fill="#231f20"/><path d="M374.08,15h3.68v5a10.19,10.19,0,0,1-1.74.42,12.5,12.5,0,0,1-1.79.12,4.49,4.49,0,0,1-3.5-1.34,5.4,5.4,0,0,1-1.23-3.79,5,5,0,0,1,1.39-3.78,5.2,5.2,0,0,1,3.82-1.36,7.42,7.42,0,0,1,3,.6l-.57,1.36a5.81,5.81,0,0,0-2.43-.56,3.28,3.28,0,0,0-2.53,1,3.87,3.87,0,0,0-.93,2.74,4.15,4.15,0,0,0,.83,2.79,3.07,3.07,0,0,0,2.41.95,7.48,7.48,0,0,0,1.7-.2V16.37h-2.07Z" transform="translate(-0.64 -3.43)" fill="#231f20"/><path d="M385.81,20.39h-5.65v-10h5.65v1.38h-4v2.72h3.77v1.37h-3.77V19h4Z" transform="translate(-0.64 -3.43)" fill="#231f20"/><path d="M393.24,16.39v4h-1.63v-10h2.82a4.58,4.58,0,0,1,2.86.73,2.59,2.59,0,0,1,.93,2.18A2.71,2.71,0,0,1,396.28,16l2.82,4.43h-1.85l-2.4-4Zm0-1.35h1.13a2.61,2.61,0,0,0,1.66-.42,1.55,1.55,0,0,0,.51-1.26,1.35,1.35,0,0,0-.55-1.22,3.11,3.11,0,0,0-1.67-.37h-1.08Z" transform="translate(-0.64 -3.43)" fill="#231f20"/><path d="M406.21,20.39h-5.66v-10h5.66v1.38h-4v2.72H406v1.37h-3.76V19h4Z" transform="translate(-0.64 -3.43)" fill="#231f20"/><path d="M414.57,20.39l-1-2.78h-3.82l-1,2.78h-1.72l3.74-10h1.77l3.74,10Zm-1.43-4.19-.94-2.72c-.07-.18-.16-.47-.28-.86s-.2-.68-.25-.86a14.54,14.54,0,0,1-.54,1.84l-.9,2.6Z" transform="translate(-0.64 -3.43)" fill="#231f20"/><path d="M425.75,15.29a5,5,0,0,1-1.37,3.79,5.55,5.55,0,0,1-4,1.31h-2.8v-10h3.09a5.13,5.13,0,0,1,3.72,1.29A4.8,4.8,0,0,1,425.75,15.29Zm-1.72.06q0-3.58-3.36-3.59h-1.41V19h1.16Q424,19,424,15.35Z" transform="translate(-0.64 -3.43)" fill="#231f20"/><path d="M427.9,20.39v-10h1.63v10Z" transform="translate(-0.64 -3.43)" fill="#231f20"/><path d="M440.5,20.39h-2l-4.91-8h-.06l0,.45c.06.84.09,1.62.09,2.32v5.2h-1.48v-10h2l4.9,7.93h.05c0-.11,0-.49-.06-1.15s0-1.17,0-1.54V10.39h1.5Z" transform="translate(-0.64 -3.43)" fill="#231f20"/><path d="M447.22,15h3.68v5a10.09,10.09,0,0,1-1.73.42,12.64,12.64,0,0,1-1.8.12,4.49,4.49,0,0,1-3.5-1.34,5.4,5.4,0,0,1-1.23-3.79A5.08,5.08,0,0,1,444,11.61a5.22,5.22,0,0,1,3.82-1.36,7.47,7.47,0,0,1,3,.6l-.58,1.36a5.81,5.81,0,0,0-2.43-.56,3.28,3.28,0,0,0-2.53,1,3.87,3.87,0,0,0-.93,2.74,4.1,4.1,0,0,0,.84,2.79,3.05,3.05,0,0,0,2.41.95,7.39,7.39,0,0,0,1.69-.2V16.37h-2.07Z" transform="translate(-0.64 -3.43)" fill="#231f20"/><path d="M462.7,17.67a2.51,2.51,0,0,1-1,2.09,4.19,4.19,0,0,1-2.66.76A6.39,6.39,0,0,1,456.3,20V18.45a7.78,7.78,0,0,0,1.45.51,6.37,6.37,0,0,0,1.44.18,2.26,2.26,0,0,0,1.43-.37,1.18,1.18,0,0,0,.46-1,1.25,1.25,0,0,0-.42-1,6.42,6.42,0,0,0-1.75-.92A4.51,4.51,0,0,1,457,14.64a2.62,2.62,0,0,1-.56-1.7,2.37,2.37,0,0,1,.89-2,3.65,3.65,0,0,1,2.38-.72,7,7,0,0,1,2.86.63L462,12.21a6.31,6.31,0,0,0-2.38-.56,1.81,1.81,0,0,0-1.2.35,1.11,1.11,0,0,0-.41.91,1.24,1.24,0,0,0,.16.66,1.71,1.71,0,0,0,.54.53,9.36,9.36,0,0,0,1.36.65,7.39,7.39,0,0,1,1.61.85,2.53,2.53,0,0,1,.75.9A2.66,2.66,0,0,1,462.7,17.67Z" transform="translate(-0.64 -3.43)" fill="#231f20"/><path d="M468.89,11.65a2.69,2.69,0,0,0-2.22,1,4.23,4.23,0,0,0-.81,2.75,4.3,4.3,0,0,0,.78,2.79,2.78,2.78,0,0,0,2.25.94,5.58,5.58,0,0,0,1.23-.13c.39-.08.81-.19,1.23-.32v1.4a7.39,7.39,0,0,1-2.66.44,4.25,4.25,0,0,1-3.37-1.33,5.51,5.51,0,0,1-1.18-3.8,6.16,6.16,0,0,1,.57-2.73,4.09,4.09,0,0,1,1.65-1.79,5.06,5.06,0,0,1,2.54-.62,6.29,6.29,0,0,1,2.83.64l-.59,1.36a7.94,7.94,0,0,0-1.07-.42A3.83,3.83,0,0,0,468.89,11.65Z" transform="translate(-0.64 -3.43)" fill="#231f20"/><path d="M482.38,15.38a5.48,5.48,0,0,1-1.22,3.79,5.14,5.14,0,0,1-6.93,0A5.49,5.49,0,0,1,473,15.36a5.44,5.44,0,0,1,1.21-3.8,4.53,4.53,0,0,1,3.49-1.32,4.39,4.39,0,0,1,3.44,1.34A5.43,5.43,0,0,1,482.38,15.38Zm-7.63,0a4.47,4.47,0,0,0,.75,2.8,3,3,0,0,0,4.4,0,4.47,4.47,0,0,0,.74-2.81,4.49,4.49,0,0,0-.73-2.79,2.58,2.58,0,0,0-2.19-.95,2.64,2.64,0,0,0-2.22.95A4.42,4.42,0,0,0,474.75,15.38Z" transform="translate(-0.64 -3.43)" fill="#231f20"/><path d="M486.16,16.39v4h-1.63v-10h2.82a4.58,4.58,0,0,1,2.86.73,2.59,2.59,0,0,1,.93,2.18A2.71,2.71,0,0,1,489.2,16L492,20.39h-1.86l-2.4-4Zm0-1.35h1.14a2.59,2.59,0,0,0,1.65-.42,1.55,1.55,0,0,0,.51-1.26,1.35,1.35,0,0,0-.55-1.22,3.11,3.11,0,0,0-1.67-.37h-1.08Z" transform="translate(-0.64 -3.43)" fill="#231f20"/><path d="M499.13,20.39h-5.65v-10h5.65v1.38h-4v2.72h3.77v1.37h-3.77V19h4Z" transform="translate(-0.64 -3.43)" fill="#231f20"/></svg>