<svg id="Layer_1" data-name="Layer 1" xmlns="http://www.w3.org/2000/svg" width="328.73" height="236.85" viewBox="0 0 328.73 236.85"><title>PrepArticle1_DaysAbsent_Achieve</title><path d="M114.16,26.91a4.31,4.31,0,0,1-1,3A3.33,3.33,0,0,1,110.55,31a3.4,3.4,0,0,1-2.67-1.06,4.37,4.37,0,0,1-.95-3,4.29,4.29,0,0,1,.95-3,3.42,3.42,0,0,1,2.68-1.06A3.36,3.36,0,0,1,113.21,24,4.31,4.31,0,0,1,114.16,26.91Zm-6.26,0a3.73,3.73,0,0,0,.68,2.42,2.76,2.76,0,0,0,4,0,3.78,3.78,0,0,0,.66-2.42,3.75,3.75,0,0,0-.66-2.4,2.37,2.37,0,0,0-2-.82,2.41,2.41,0,0,0-2,.82A3.71,3.71,0,0,0,107.9,26.91Z" transform="translate(-0.45 -4.78)" fill="#231f20"/><path d="M118.43,25.66h-1.5v5.19H116V25.66H115v-.41l1.06-.32V24.6c0-1.44.63-2.17,1.89-2.17a4.1,4.1,0,0,1,1.1.19l-.23.71a3,3,0,0,0-.88-.16.87.87,0,0,0-.75.33,1.92,1.92,0,0,0-.24,1.08V25h1.5Z" transform="translate(-0.45 -4.78)" fill="#231f20"/><path d="M124.26,30.22a3.44,3.44,0,0,0,.46,0l.35-.08v.69a2,2,0,0,1-.43.11,3.36,3.36,0,0,1-.51.05q-1.71,0-1.71-1.8v-3.5h-.84v-.43l.84-.37.38-1.26h.52V25H125v.7h-1.7v3.46a1.2,1.2,0,0,0,.25.82A.88.88,0,0,0,124.26,30.22Z" transform="translate(-0.45 -4.78)" fill="#231f20"/><path d="M130.27,30.85V27a1.51,1.51,0,0,0-.33-1.07,1.3,1.3,0,0,0-1-.36,1.69,1.69,0,0,0-1.36.51,2.57,2.57,0,0,0-.43,1.65v3.08h-.89V22.49h.89V25a5.35,5.35,0,0,1,0,.76h.06a1.79,1.79,0,0,1,.74-.67,2.51,2.51,0,0,1,1.11-.24,2.28,2.28,0,0,1,1.62.51,2.15,2.15,0,0,1,.54,1.63v3.84Z" transform="translate(-0.45 -4.78)" fill="#231f20"/><path d="M135.48,31a2.7,2.7,0,0,1-2.06-.8,3.08,3.08,0,0,1-.75-2.21,3.41,3.41,0,0,1,.7-2.26,2.31,2.31,0,0,1,1.88-.83,2.23,2.23,0,0,1,1.75.72,2.81,2.81,0,0,1,.65,1.92v.57h-4.06a2.34,2.34,0,0,0,.52,1.57,1.82,1.82,0,0,0,1.4.54,4.64,4.64,0,0,0,1.88-.4v.8a5.1,5.1,0,0,1-.89.29A5,5,0,0,1,135.48,31Zm-.24-5.36a1.48,1.48,0,0,0-1.13.46,2.16,2.16,0,0,0-.5,1.28h3.08a2,2,0,0,0-.38-1.29A1.32,1.32,0,0,0,135.24,25.6Z" transform="translate(-0.45 -4.78)" fill="#231f20"/><path d="M159.48,10.9A6,6,0,0,1,158,15a7.49,7.49,0,0,1-4.09,2.32v.11a8.23,8.23,0,0,1,4.71,1.89,5.31,5.31,0,0,1,1.6,4.05,6.89,6.89,0,0,1-2.69,5.78c-1.79,1.37-4.36,2.06-7.68,2.06a18.6,18.6,0,0,1-7.42-1.39V25.19a17,17,0,0,0,3.29,1.23,13.59,13.59,0,0,0,3.55.47,6.91,6.91,0,0,0,4-.91A3.37,3.37,0,0,0,154.54,23a2.65,2.65,0,0,0-1.47-2.56,10.85,10.85,0,0,0-4.71-.76h-2V15.56h2a9.13,9.13,0,0,0,4.37-.79,2.82,2.82,0,0,0,1.38-2.68q0-2.91-3.66-2.91a8.37,8.37,0,0,0-2.57.42A12.34,12.34,0,0,0,145,11.06l-2.52-3.75a14,14,0,0,1,8.39-2.53,10.8,10.8,0,0,1,6.3,1.62A5.19,5.19,0,0,1,159.48,10.9Z" transform="translate(-0.45 -4.78)" fill="#262b69"/><path d="M181.61,25.52h-3.09v5.33h-5.31V25.52h-11V21.74L173.51,5.15h5V21.3h3.09Zm-8.4-4.22V17c0-.73,0-1.79.09-3.17s.1-2.18.14-2.41h-.14a20.7,20.7,0,0,1-1.57,2.82L167,21.3Z" transform="translate(-0.45 -4.78)" fill="#262b69"/><path d="M191.06,18.83a6.64,6.64,0,0,1-1,4.05A3.64,3.64,0,0,1,187,24.23a3.52,3.52,0,0,1-3-1.39,6.56,6.56,0,0,1-1.06-4q0-5.35,4.05-5.36a3.59,3.59,0,0,1,3,1.39A6.49,6.49,0,0,1,191.06,18.83Zm-5.19,0a6.9,6.9,0,0,0,.26,2.22c.18.49.46.73.85.73.75,0,1.13-1,1.13-2.95s-.38-2.93-1.13-2.93c-.39,0-.67.24-.85.72A6.79,6.79,0,0,0,185.87,18.85Zm13.25-5.13-9.5,17.13H186.8l9.51-17.13Zm3.94,12a6.61,6.61,0,0,1-1,4A3.64,3.64,0,0,1,199,31.06a3.52,3.52,0,0,1-3-1.39,6.53,6.53,0,0,1-1.06-4q0-5.35,4.05-5.36a3.62,3.62,0,0,1,3,1.39A6.49,6.49,0,0,1,203.06,25.67Zm-5.19,0a6.82,6.82,0,0,0,.26,2.22c.18.49.46.74.85.74.75,0,1.13-1,1.13-3s-.38-2.93-1.13-2.93c-.39,0-.67.24-.85.72A6.79,6.79,0,0,0,197.87,25.69Z" transform="translate(-0.45 -4.78)" fill="#262b69"/><path d="M95.78,41.9a3.22,3.22,0,0,1-.73,2.25,2.54,2.54,0,0,1-2,.81,2.71,2.71,0,0,1-1.4-.37,2.48,2.48,0,0,1-1-1.07,3.72,3.72,0,0,1-.33-1.62,3.23,3.23,0,0,1,.72-2.24,2.52,2.52,0,0,1,2-.8,2.47,2.47,0,0,1,2,.82A3.2,3.2,0,0,1,95.78,41.9Zm-4.49,0a2.8,2.8,0,0,0,.45,1.72,1.79,1.79,0,0,0,2.66,0,2.78,2.78,0,0,0,.45-1.72,2.72,2.72,0,0,0-.45-1.7,1.59,1.59,0,0,0-1.34-.59,1.56,1.56,0,0,0-1.32.58A2.73,2.73,0,0,0,91.29,41.9Z" transform="translate(-0.45 -4.78)" fill="#231f20"/><path d="M100,39.66H98.5v5.19h-.9V39.66h-1v-.41l1-.32V38.6c0-1.44.64-2.17,1.9-2.17a4.16,4.16,0,0,1,1.1.19l-.24.72a2.65,2.65,0,0,0-.88-.17.86.86,0,0,0-.74.33,1.92,1.92,0,0,0-.24,1.08V39H100Z" transform="translate(-0.45 -4.78)" fill="#231f20"/><path d="M108.74,39v.57l-1.09.13a1.86,1.86,0,0,1,.27.49,1.83,1.83,0,0,1,.12.68,1.74,1.74,0,0,1-.59,1.38,2.35,2.35,0,0,1-1.62.52,3.9,3.9,0,0,1-.5,0,.87.87,0,0,0-.57.75.4.4,0,0,0,.2.36,1.39,1.39,0,0,0,.68.12h1a2.36,2.36,0,0,1,1.47.4,1.41,1.41,0,0,1,.51,1.17,1.66,1.66,0,0,1-.79,1.49,4.19,4.19,0,0,1-2.28.51,3.08,3.08,0,0,1-1.78-.43,1.37,1.37,0,0,1-.63-1.21,1.35,1.35,0,0,1,.34-.93,1.77,1.77,0,0,1,1-.53,1,1,0,0,1-.38-.32.84.84,0,0,1-.15-.5,1,1,0,0,1,.17-.56,2,2,0,0,1,.54-.47,1.57,1.57,0,0,1-.74-.64,1.88,1.88,0,0,1-.29-1,1.92,1.92,0,0,1,.58-1.49,2.38,2.38,0,0,1,1.65-.52,3.1,3.1,0,0,1,.83.1Zm-4.69,6.88a.78.78,0,0,0,.4.72,2.2,2.2,0,0,0,1.16.25,3.14,3.14,0,0,0,1.66-.34,1,1,0,0,0,.54-.91.72.72,0,0,0-.3-.66,2.28,2.28,0,0,0-1.11-.19h-1.07a1.36,1.36,0,0,0-.94.3A1,1,0,0,0,104.05,45.84Zm.48-5a1.2,1.2,0,0,0,.35.93,1.4,1.4,0,0,0,1,.32,1.14,1.14,0,0,0,1.31-1.27,1.17,1.17,0,0,0-1.32-1.32,1.34,1.34,0,0,0-1,.33A1.4,1.4,0,0,0,104.53,40.85Z" transform="translate(-0.45 -4.78)" fill="#231f20"/><path d="M112.64,38.86a3.73,3.73,0,0,1,.7.06l-.12.83a2.73,2.73,0,0,0-.65-.08,1.57,1.57,0,0,0-1.22.58,2.1,2.1,0,0,0-.51,1.44v3.16H110V39h.74l.1,1.09h0a2.61,2.61,0,0,1,.79-.88A1.78,1.78,0,0,1,112.64,38.86Z" transform="translate(-0.45 -4.78)" fill="#231f20"/><path d="M118.06,44.85l-.17-.84h0a2.37,2.37,0,0,1-.88.75,2.65,2.65,0,0,1-1.09.2,2,2,0,0,1-1.37-.45,1.66,1.66,0,0,1-.5-1.29c0-1.19,1-1.81,2.85-1.87l1,0V41a1.49,1.49,0,0,0-.3-1,1.2,1.2,0,0,0-1-.33,3.88,3.88,0,0,0-1.66.45l-.28-.68a4.28,4.28,0,0,1,2-.5,2.25,2.25,0,0,1,1.56.46,2,2,0,0,1,.5,1.5v4Zm-2-.63a1.81,1.81,0,0,0,1.31-.46,1.7,1.7,0,0,0,.47-1.27V42l-.89,0a3.34,3.34,0,0,0-1.53.33,1,1,0,0,0-.47.91.92.92,0,0,0,.29.74A1.2,1.2,0,0,0,116.05,44.22Z" transform="translate(-0.45 -4.78)" fill="#231f20"/><path d="M124.57,44.06h0a2.09,2.09,0,0,1-1.85.9,2.21,2.21,0,0,1-1.8-.79,4.26,4.26,0,0,1,0-4.51,2.39,2.39,0,0,1,3.63.07h.07l0-.43,0-.41v-2.4h.89v8.36h-.72Zm-1.79.15a1.65,1.65,0,0,0,1.33-.5,2.52,2.52,0,0,0,.41-1.6v-.19a2.91,2.91,0,0,0-.42-1.78,1.58,1.58,0,0,0-1.33-.54,1.38,1.38,0,0,0-1.2.61,3.1,3.1,0,0,0-.41,1.72,2.9,2.9,0,0,0,.41,1.71A1.41,1.41,0,0,0,122.78,44.21Z" transform="translate(-0.45 -4.78)" fill="#231f20"/><path d="M129.79,45a2.7,2.7,0,0,1-2.06-.8A3,3,0,0,1,127,42a3.48,3.48,0,0,1,.7-2.27,2.33,2.33,0,0,1,1.89-.83,2.24,2.24,0,0,1,1.75.72A2.8,2.8,0,0,1,132,41.5v.57h-4a2.34,2.34,0,0,0,.52,1.57,1.81,1.81,0,0,0,1.4.54,4.68,4.68,0,0,0,1.88-.4v.8a5.39,5.39,0,0,1-.89.29A5,5,0,0,1,129.79,45Zm-.24-5.36a1.47,1.47,0,0,0-1.13.46,2.1,2.1,0,0,0-.5,1.28H131a2,2,0,0,0-.38-1.29A1.32,1.32,0,0,0,129.55,39.6Z" transform="translate(-0.45 -4.78)" fill="#231f20"/><path d="M139.22,44.85h-.87v-5.6c0-.46,0-.9.05-1.32l-.25.24-1.28,1-.48-.61,2.08-1.6h.75Z" transform="translate(-0.45 -4.78)" fill="#231f20"/><path d="M147.37,44.85h-5.16v-.77L144.28,42a16.49,16.49,0,0,0,1.25-1.36,3.42,3.42,0,0,0,.45-.8,2.23,2.23,0,0,0,.15-.83,1.35,1.35,0,0,0-.38-1,1.5,1.5,0,0,0-1.06-.36,2.6,2.6,0,0,0-.93.16,3.69,3.69,0,0,0-1,.58l-.48-.6a3.65,3.65,0,0,1,2.37-.91,2.49,2.49,0,0,1,1.73.57A2,2,0,0,1,147,39a3,3,0,0,1-.42,1.48,9.35,9.35,0,0,1-1.57,1.85L143.33,44v0h4Z" transform="translate(-0.45 -4.78)" fill="#231f20"/><path d="M155.56,43.24a1.47,1.47,0,0,1-.61,1.27,2.86,2.86,0,0,1-1.72.45,3.78,3.78,0,0,1-1.82-.37v-.83a4.28,4.28,0,0,0,.91.34,3.83,3.83,0,0,0,.93.12,2.12,2.12,0,0,0,1.08-.22.74.74,0,0,0,.37-.68.72.72,0,0,0-.29-.59,5.14,5.14,0,0,0-1.17-.58,6.84,6.84,0,0,1-1.17-.53,1.57,1.57,0,0,1-.51-.52,1.36,1.36,0,0,1-.17-.69,1.34,1.34,0,0,1,.59-1.14,2.69,2.69,0,0,1,1.6-.41,4.62,4.62,0,0,1,1.86.38l-.32.73a4.13,4.13,0,0,0-1.6-.37,1.88,1.88,0,0,0-1,.2.63.63,0,0,0-.32.55.65.65,0,0,0,.12.4,1.19,1.19,0,0,0,.39.32,8.94,8.94,0,0,0,1,.43,4,4,0,0,1,1.42.77A1.37,1.37,0,0,1,155.56,43.24Z" transform="translate(-0.45 -4.78)" fill="#231f20"/><path d="M158.92,44.22a3.4,3.4,0,0,0,.45,0l.35-.08v.69a2,2,0,0,1-.43.11,3.13,3.13,0,0,1-.5.05q-1.71,0-1.71-1.8v-3.5h-.85v-.43l.85-.37.37-1.26H158V39h1.71v.7H158v3.46a1.2,1.2,0,0,0,.25.82A.88.88,0,0,0,158.92,44.22Z" transform="translate(-0.45 -4.78)" fill="#231f20"/><path d="M161.73,39v3.82a1.55,1.55,0,0,0,.33,1.08,1.36,1.36,0,0,0,1,.35,1.71,1.71,0,0,0,1.35-.5,2.59,2.59,0,0,0,.43-1.65V39h.89v5.89H165l-.13-.79h0a1.78,1.78,0,0,1-.76.67A2.57,2.57,0,0,1,163,45a2.24,2.24,0,0,1-1.61-.51,2.17,2.17,0,0,1-.54-1.64V39Z" transform="translate(-0.45 -4.78)" fill="#231f20"/><path d="M171.66,44.06h0a2.09,2.09,0,0,1-1.85.9,2.21,2.21,0,0,1-1.8-.79,3.49,3.49,0,0,1-.64-2.25,3.54,3.54,0,0,1,.65-2.26,2.39,2.39,0,0,1,3.63.07h.07l0-.43,0-.41v-2.4h.89v8.36h-.73Zm-1.79.15a1.65,1.65,0,0,0,1.33-.5,2.52,2.52,0,0,0,.41-1.6v-.19a2.91,2.91,0,0,0-.42-1.78,1.58,1.58,0,0,0-1.33-.54,1.38,1.38,0,0,0-1.2.61,3,3,0,0,0-.42,1.72,2.89,2.89,0,0,0,.42,1.71A1.4,1.4,0,0,0,169.87,44.21Z" transform="translate(-0.45 -4.78)" fill="#231f20"/><path d="M176.88,45a2.7,2.7,0,0,1-2.06-.8,3,3,0,0,1-.76-2.2,3.48,3.48,0,0,1,.7-2.27,2.33,2.33,0,0,1,1.89-.83,2.24,2.24,0,0,1,1.75.72A2.8,2.8,0,0,1,179,41.5v.57h-4a2.29,2.29,0,0,0,.52,1.57,1.81,1.81,0,0,0,1.4.54,4.68,4.68,0,0,0,1.88-.4v.8a5.19,5.19,0,0,1-.9.29A4.91,4.91,0,0,1,176.88,45Zm-.25-5.36a1.48,1.48,0,0,0-1.13.46,2.15,2.15,0,0,0-.49,1.28h3.07a2,2,0,0,0-.37-1.29A1.33,1.33,0,0,0,176.63,39.6Z" transform="translate(-0.45 -4.78)" fill="#231f20"/><path d="M184.59,44.85V41a1.51,1.51,0,0,0-.33-1.07,1.33,1.33,0,0,0-1-.36,1.71,1.71,0,0,0-1.35.5,2.59,2.59,0,0,0-.43,1.65v3.09h-.89V39h.72l.15.81h0a1.89,1.89,0,0,1,.77-.68,2.64,2.64,0,0,1,1.1-.23,2.24,2.24,0,0,1,1.6.51,2.17,2.17,0,0,1,.54,1.64v3.84Z" transform="translate(-0.45 -4.78)" fill="#231f20"/><path d="M189.21,44.22a3.44,3.44,0,0,0,.46,0l.35-.08v.69a2,2,0,0,1-.43.11,3.36,3.36,0,0,1-.51.05c-1.13,0-1.7-.6-1.7-1.8v-3.5h-.85v-.43l.85-.37.37-1.26h.52V39H190v.7h-1.71v3.46a1.2,1.2,0,0,0,.25.82A.88.88,0,0,0,189.21,44.22Z" transform="translate(-0.45 -4.78)" fill="#231f20"/><path d="M195,43.24a1.47,1.47,0,0,1-.61,1.27,2.86,2.86,0,0,1-1.72.45,3.78,3.78,0,0,1-1.82-.37v-.83a4.28,4.28,0,0,0,.91.34,3.83,3.83,0,0,0,.93.12,2.12,2.12,0,0,0,1.08-.22.77.77,0,0,0,.07-1.27,4.8,4.8,0,0,0-1.16-.58,6.16,6.16,0,0,1-1.17-.53,1.57,1.57,0,0,1-.51-.52,1.36,1.36,0,0,1-.17-.69,1.33,1.33,0,0,1,.58-1.14,2.72,2.72,0,0,1,1.61-.41,4.69,4.69,0,0,1,1.86.38l-.32.73a4.13,4.13,0,0,0-1.6-.37,1.86,1.86,0,0,0-1,.2.63.63,0,0,0-.32.55.65.65,0,0,0,.12.4,1.19,1.19,0,0,0,.39.32,8.94,8.94,0,0,0,1,.43,3.81,3.81,0,0,1,1.41.77A1.34,1.34,0,0,1,195,43.24Z" transform="translate(-0.45 -4.78)" fill="#231f20"/><path d="M204.11,44.85,203,41.4c-.07-.22-.2-.69-.38-1.44h-.05c-.14.62-.26,1.11-.37,1.45l-1.11,3.44h-1L198.48,39h.93l.87,3.38a14.36,14.36,0,0,1,.34,1.56h0c0-.2.11-.46.2-.79s.16-.58.22-.77L202.16,39h1l1.05,3.38a11.38,11.38,0,0,1,.41,1.55h0c0-.13.06-.32.12-.59s.44-1.72,1.12-4.34h.92l-1.62,5.89Z" transform="translate(-0.45 -4.78)" fill="#231f20"/><path d="M211.89,44.85V41a1.51,1.51,0,0,0-.33-1.07,1.33,1.33,0,0,0-1-.36,1.65,1.65,0,0,0-1.35.51,2.51,2.51,0,0,0-.43,1.65v3.08h-.89V36.49h.89V39a7.42,7.42,0,0,1,0,.76h0a1.81,1.81,0,0,1,.75-.67,2.45,2.45,0,0,1,1.11-.24,2.28,2.28,0,0,1,1.62.51,2.15,2.15,0,0,1,.54,1.63v3.84Z" transform="translate(-0.45 -4.78)" fill="#231f20"/><path d="M219.69,41.9a3.22,3.22,0,0,1-.73,2.25,2.54,2.54,0,0,1-2,.81,2.71,2.71,0,0,1-1.4-.37,2.54,2.54,0,0,1-.95-1.07,3.72,3.72,0,0,1-.33-1.62,3.23,3.23,0,0,1,.72-2.24,2.54,2.54,0,0,1,2-.8,2.47,2.47,0,0,1,2,.82A3.2,3.2,0,0,1,219.69,41.9Zm-4.49,0a2.8,2.8,0,0,0,.45,1.72,1.6,1.6,0,0,0,1.33.59,1.57,1.57,0,0,0,1.33-.59,2.78,2.78,0,0,0,.46-1.72,2.71,2.71,0,0,0-.46-1.7,1.59,1.59,0,0,0-1.34-.59,1.56,1.56,0,0,0-1.32.58A2.73,2.73,0,0,0,215.2,41.9Z" transform="translate(-0.45 -4.78)" fill="#231f20"/><path d="M39.15,52.86a3.73,3.73,0,0,1,.7.06l-.12.83a2.73,2.73,0,0,0-.65-.08,1.57,1.57,0,0,0-1.22.58,2.1,2.1,0,0,0-.51,1.44v3.16h-.89V53h.74l.1,1.09h0a2.61,2.61,0,0,1,.79-.88A1.78,1.78,0,0,1,39.15,52.86Z" transform="translate(-0.45 -4.78)" fill="#231f20"/><path d="M43.44,59a2.7,2.7,0,0,1-2.06-.8,3.07,3.07,0,0,1-.75-2.2,3.42,3.42,0,0,1,.7-2.27,2.3,2.3,0,0,1,1.88-.83,2.23,2.23,0,0,1,1.75.72,2.8,2.8,0,0,1,.64,1.92v.57H41.55a2.34,2.34,0,0,0,.52,1.57,1.81,1.81,0,0,0,1.4.54,4.64,4.64,0,0,0,1.88-.4v.8a5.1,5.1,0,0,1-.89.29A5,5,0,0,1,43.44,59ZM43.2,53.6a1.48,1.48,0,0,0-1.13.46,2.16,2.16,0,0,0-.5,1.28h3.08a2,2,0,0,0-.38-1.29A1.32,1.32,0,0,0,43.2,53.6Z" transform="translate(-0.45 -4.78)" fill="#231f20"/><path d="M49.86,59a2.59,2.59,0,0,1-1-.21,2,2,0,0,1-.79-.66H48a8.68,8.68,0,0,1,.07,1v2.42h-.9V53h.73l.12.81H48a2,2,0,0,1,.8-.7,2.44,2.44,0,0,1,1-.21,2.16,2.16,0,0,1,1.81.8,3.53,3.53,0,0,1,.64,2.24,3.49,3.49,0,0,1-.65,2.25A2.17,2.17,0,0,1,49.86,59Zm-.13-5.35a1.58,1.58,0,0,0-1.3.5A2.54,2.54,0,0,0,48,55.7v.2a2.94,2.94,0,0,0,.41,1.78,1.6,1.6,0,0,0,1.33.53A1.39,1.39,0,0,0,51,57.59a2.91,2.91,0,0,0,.43-1.7A2.81,2.81,0,0,0,51,54.2,1.43,1.43,0,0,0,49.73,53.61Z" transform="translate(-0.45 -4.78)" fill="#231f20"/><path d="M59,55.9a3.27,3.27,0,0,1-.73,2.25,2.54,2.54,0,0,1-2,.81,2.68,2.68,0,0,1-1.4-.37,2.48,2.48,0,0,1-1-1.07,3.72,3.72,0,0,1-.33-1.62,3.23,3.23,0,0,1,.72-2.24,2.82,2.82,0,0,1,4,0A3.24,3.24,0,0,1,59,55.9Zm-4.49,0a2.8,2.8,0,0,0,.45,1.72,1.79,1.79,0,0,0,2.66,0A2.78,2.78,0,0,0,58,55.9a2.72,2.72,0,0,0-.45-1.7,1.59,1.59,0,0,0-1.34-.59,1.54,1.54,0,0,0-1.32.58A2.73,2.73,0,0,0,54.46,55.9Z" transform="translate(-0.45 -4.78)" fill="#231f20"/><path d="M63.19,52.86a3.76,3.76,0,0,1,.71.06l-.13.83a2.6,2.6,0,0,0-.64-.08,1.55,1.55,0,0,0-1.22.58,2.1,2.1,0,0,0-.51,1.44v3.16h-.89V53h.73l.11,1.09h0a2.61,2.61,0,0,1,.79-.88A1.77,1.77,0,0,1,63.19,52.86Z" transform="translate(-0.45 -4.78)" fill="#231f20"/><path d="M66.9,58.22a3.44,3.44,0,0,0,.46,0l.35-.08v.69a2,2,0,0,1-.43.11,3.36,3.36,0,0,1-.51.05q-1.71,0-1.71-1.8v-3.5h-.84v-.43l.84-.37.38-1.26H66V53h1.7v.7H66v3.46a1.2,1.2,0,0,0,.25.82A.88.88,0,0,0,66.9,58.22Z" transform="translate(-0.45 -4.78)" fill="#231f20"/><path d="M71.37,59a2.7,2.7,0,0,1-2.06-.8,3.08,3.08,0,0,1-.76-2.2,3.43,3.43,0,0,1,.71-2.27,2.3,2.3,0,0,1,1.88-.83,2.23,2.23,0,0,1,1.75.72,2.8,2.8,0,0,1,.64,1.92v.57h-4A2.34,2.34,0,0,0,70,57.64a1.81,1.81,0,0,0,1.4.54,4.64,4.64,0,0,0,1.88-.4v.8a5.1,5.1,0,0,1-.89.29A5,5,0,0,1,71.37,59Zm-.24-5.36a1.47,1.47,0,0,0-1.13.46,2.16,2.16,0,0,0-.5,1.28h3.08a2,2,0,0,0-.38-1.29A1.32,1.32,0,0,0,71.13,53.6Z" transform="translate(-0.45 -4.78)" fill="#231f20"/><path d="M79.06,58.06h0a2.09,2.09,0,0,1-1.85.9,2.19,2.19,0,0,1-1.79-.79,3.49,3.49,0,0,1-.64-2.25,3.53,3.53,0,0,1,.64-2.26,2.39,2.39,0,0,1,3.63.07h.07l0-.43,0-.41v-2.4h.89v8.36h-.72Zm-1.78.15a1.61,1.61,0,0,0,1.32-.5,2.46,2.46,0,0,0,.41-1.6v-.19a3,3,0,0,0-.41-1.78,1.58,1.58,0,0,0-1.33-.54,1.36,1.36,0,0,0-1.2.61,3,3,0,0,0-.42,1.72,3,3,0,0,0,.41,1.71A1.41,1.41,0,0,0,77.28,58.21Z" transform="translate(-0.45 -4.78)" fill="#231f20"/><path d="M87.39,52.87a2.17,2.17,0,0,1,1.8.79,4.2,4.2,0,0,1,0,4.49,2.17,2.17,0,0,1-1.8.81,2.59,2.59,0,0,1-1-.21,2,2,0,0,1-.8-.66h-.06l-.19.76h-.64V50.49h.89v2c0,.46,0,.87,0,1.23h0A2.11,2.11,0,0,1,87.39,52.87Zm-.13.74a1.53,1.53,0,0,0-1.31.53,4,4,0,0,0,0,3.54,1.57,1.57,0,0,0,1.32.53,1.38,1.38,0,0,0,1.23-.6,3.06,3.06,0,0,0,.4-1.72,2.92,2.92,0,0,0-.4-1.71A1.43,1.43,0,0,0,87.26,53.61Z" transform="translate(-0.45 -4.78)" fill="#231f20"/><path d="M93.88,59a2.7,2.7,0,0,1-2.06-.8,3.07,3.07,0,0,1-.75-2.2,3.42,3.42,0,0,1,.7-2.27,2.3,2.3,0,0,1,1.88-.83,2.23,2.23,0,0,1,1.75.72A2.8,2.8,0,0,1,96,55.5v.57H92a2.34,2.34,0,0,0,.52,1.57,1.81,1.81,0,0,0,1.4.54,4.64,4.64,0,0,0,1.88-.4v.8a5.1,5.1,0,0,1-.89.29A5,5,0,0,1,93.88,59Zm-.24-5.36a1.48,1.48,0,0,0-1.13.46,2.16,2.16,0,0,0-.5,1.28h3.08a2,2,0,0,0-.38-1.29A1.32,1.32,0,0,0,93.64,53.6Z" transform="translate(-0.45 -4.78)" fill="#231f20"/><path d="M97.49,51.37a.58.58,0,0,1,.15-.45.5.5,0,0,1,.38-.14.57.57,0,0,1,.37.14.75.75,0,0,1,0,.9A.52.52,0,0,1,98,52a.5.5,0,0,1-.38-.14A.61.61,0,0,1,97.49,51.37Zm1,7.48h-.9V53h.9Z" transform="translate(-0.45 -4.78)" fill="#231f20"/><path d="M104.37,58.85V55a1.51,1.51,0,0,0-.32-1.07,1.33,1.33,0,0,0-1-.36,1.69,1.69,0,0,0-1.35.5,2.53,2.53,0,0,0-.43,1.65v3.09h-.89V53h.72l.15.81h0a1.82,1.82,0,0,1,.77-.68,2.61,2.61,0,0,1,1.1-.23,2.24,2.24,0,0,1,1.6.51,2.17,2.17,0,0,1,.54,1.64v3.84Z" transform="translate(-0.45 -4.78)" fill="#231f20"/><path d="M111.92,53v.57l-1.09.13a1.61,1.61,0,0,1,.26.49,1.83,1.83,0,0,1,.12.68,1.71,1.71,0,0,1-.59,1.38,2.34,2.34,0,0,1-1.62.52,3.9,3.9,0,0,1-.5,0,.88.88,0,0,0-.56.75.39.39,0,0,0,.19.36,1.44,1.44,0,0,0,.69.12h1a2.32,2.32,0,0,1,1.47.4,1.41,1.41,0,0,1,.51,1.17,1.67,1.67,0,0,1-.78,1.49,4.25,4.25,0,0,1-2.29.51,3.08,3.08,0,0,1-1.78-.43,1.45,1.45,0,0,1-.28-2.14,1.71,1.71,0,0,1,1-.53,1.05,1.05,0,0,1-.38-.32.84.84,0,0,1-.15-.5,1,1,0,0,1,.17-.56,1.9,1.9,0,0,1,.55-.47,1.55,1.55,0,0,1-.75-.64,1.88,1.88,0,0,1-.29-1,1.92,1.92,0,0,1,.58-1.49,2.38,2.38,0,0,1,1.65-.52,3,3,0,0,1,.83.1Zm-4.7,6.88a.8.8,0,0,0,.4.72,2.2,2.2,0,0,0,1.16.25,3.14,3.14,0,0,0,1.66-.34,1,1,0,0,0,.54-.91.73.73,0,0,0-.29-.66,2.36,2.36,0,0,0-1.12-.19H108.5a1.38,1.38,0,0,0-.94.3A1,1,0,0,0,107.22,59.84Zm.48-5a1.2,1.2,0,0,0,.35.93,1.43,1.43,0,0,0,1,.32,1.13,1.13,0,0,0,1.3-1.27A1.17,1.17,0,0,0,109,53.51a1.34,1.34,0,0,0-1,.33A1.4,1.4,0,0,0,107.7,54.85Z" transform="translate(-0.45 -4.78)" fill="#231f20"/><path d="M119.6,58.85l-.18-.84h0a2.37,2.37,0,0,1-.88.75,2.65,2.65,0,0,1-1.09.2,2,2,0,0,1-1.37-.45,1.66,1.66,0,0,1-.5-1.29c0-1.19.95-1.81,2.85-1.87l1,0V55a1.49,1.49,0,0,0-.3-1,1.2,1.2,0,0,0-1-.33,3.88,3.88,0,0,0-1.66.45l-.28-.68a4.28,4.28,0,0,1,2-.5,2.22,2.22,0,0,1,1.56.46,1.94,1.94,0,0,1,.51,1.5v4Zm-2-.63a1.81,1.81,0,0,0,1.31-.46,1.7,1.7,0,0,0,.47-1.27V56l-.89,0a3.34,3.34,0,0,0-1.53.33,1,1,0,0,0-.47.91.92.92,0,0,0,.29.74A1.2,1.2,0,0,0,117.59,58.22Z" transform="translate(-0.45 -4.78)" fill="#231f20"/><path d="M124.84,52.87a2.18,2.18,0,0,1,1.8.79,4.26,4.26,0,0,1,0,4.49,2.2,2.2,0,0,1-1.8.81,2.59,2.59,0,0,1-1-.21,2,2,0,0,1-.8-.66h-.06l-.19.76h-.64V50.49H123v2c0,.46,0,.87,0,1.23h0A2.11,2.11,0,0,1,124.84,52.87Zm-.13.74a1.57,1.57,0,0,0-1.32.53,4.07,4.07,0,0,0,0,3.54,1.6,1.6,0,0,0,1.33.53,1.38,1.38,0,0,0,1.23-.6,3.15,3.15,0,0,0,.4-1.72,3,3,0,0,0-.4-1.71A1.43,1.43,0,0,0,124.71,53.61Z" transform="translate(-0.45 -4.78)" fill="#231f20"/><path d="M132.64,57.24a1.5,1.5,0,0,1-.61,1.27,2.88,2.88,0,0,1-1.72.45,3.85,3.85,0,0,1-1.83-.37v-.83a4.49,4.49,0,0,0,.91.34,3.91,3.91,0,0,0,.94.12A2.11,2.11,0,0,0,131.4,58a.75.75,0,0,0,.38-.68.73.73,0,0,0-.3-.59,5.23,5.23,0,0,0-1.16-.58,6.16,6.16,0,0,1-1.17-.53,1.72,1.72,0,0,1-.52-.52,1.36,1.36,0,0,1-.17-.69,1.34,1.34,0,0,1,.59-1.14,2.72,2.72,0,0,1,1.61-.41,4.61,4.61,0,0,1,1.85.38l-.31.73a4.17,4.17,0,0,0-1.61-.37,1.91,1.91,0,0,0-1,.2.63.63,0,0,0-.32.55.65.65,0,0,0,.12.4,1.19,1.19,0,0,0,.39.32,9.82,9.82,0,0,0,1,.43,4,4,0,0,1,1.42.77A1.38,1.38,0,0,1,132.64,57.24Z" transform="translate(-0.45 -4.78)" fill="#231f20"/><path d="M136.57,59a2.72,2.72,0,0,1-2.06-.8,3.07,3.07,0,0,1-.75-2.2,3.42,3.42,0,0,1,.7-2.27,2.33,2.33,0,0,1,1.88-.83,2.23,2.23,0,0,1,1.75.72,2.81,2.81,0,0,1,.65,1.92v.57h-4.06a2.35,2.35,0,0,0,.53,1.57,1.79,1.79,0,0,0,1.4.54,4.68,4.68,0,0,0,1.88-.4v.8a5.48,5.48,0,0,1-.9.29A5,5,0,0,1,136.57,59Zm-.24-5.36a1.48,1.48,0,0,0-1.13.46,2.15,2.15,0,0,0-.49,1.28h3.07a2,2,0,0,0-.37-1.29A1.33,1.33,0,0,0,136.33,53.6Z" transform="translate(-0.45 -4.78)" fill="#231f20"/><path d="M144.29,58.85V55A1.51,1.51,0,0,0,144,54a1.33,1.33,0,0,0-1-.36,1.71,1.71,0,0,0-1.35.5,2.53,2.53,0,0,0-.43,1.65v3.09h-.89V53H141l.15.81h0a1.82,1.82,0,0,1,.77-.68,2.64,2.64,0,0,1,1.1-.23,2.24,2.24,0,0,1,1.6.51,2.17,2.17,0,0,1,.54,1.64v3.84Z" transform="translate(-0.45 -4.78)" fill="#231f20"/><path d="M148.91,58.22a3.44,3.44,0,0,0,.46,0l.35-.08v.69a2,2,0,0,1-.43.11,3.36,3.36,0,0,1-.51.05q-1.71,0-1.71-1.8v-3.5h-.84v-.43l.84-.37.38-1.26H148V53h1.7v.7H148v3.46a1.2,1.2,0,0,0,.25.82A.88.88,0,0,0,148.91,58.22Z" transform="translate(-0.45 -4.78)" fill="#231f20"/><path d="M156.4,53.66h-1.49v5.19H154V53.66h-1v-.41l1-.32V52.6c0-1.44.64-2.17,1.9-2.17a4.16,4.16,0,0,1,1.1.19l-.23.72a2.75,2.75,0,0,0-.89-.17.86.86,0,0,0-.74.33,1.92,1.92,0,0,0-.24,1.08V53h1.49Z" transform="translate(-0.45 -4.78)" fill="#231f20"/><path d="M160.16,52.86a3.76,3.76,0,0,1,.71.06l-.13.83a2.6,2.6,0,0,0-.64-.08,1.55,1.55,0,0,0-1.22.58,2.1,2.1,0,0,0-.51,1.44v3.16h-.89V53h.73l.11,1.09h0a2.61,2.61,0,0,1,.79-.88A1.77,1.77,0,0,1,160.16,52.86Z" transform="translate(-0.45 -4.78)" fill="#231f20"/><path d="M167.05,55.9a3.22,3.22,0,0,1-.73,2.25,2.54,2.54,0,0,1-2,.81,2.73,2.73,0,0,1-1.4-.37,2.54,2.54,0,0,1-.95-1.07,3.72,3.72,0,0,1-.33-1.62,3.23,3.23,0,0,1,.72-2.24,2.54,2.54,0,0,1,2-.8,2.47,2.47,0,0,1,2,.82A3.2,3.2,0,0,1,167.05,55.9Zm-4.48,0a2.8,2.8,0,0,0,.45,1.72,1.78,1.78,0,0,0,2.65,0,2.78,2.78,0,0,0,.46-1.72,2.71,2.71,0,0,0-.46-1.7,1.59,1.59,0,0,0-1.34-.59,1.56,1.56,0,0,0-1.32.58A2.73,2.73,0,0,0,162.57,55.9Z" transform="translate(-0.45 -4.78)" fill="#231f20"/><path d="M176.12,58.85V55a1.61,1.61,0,0,0-.3-1.06,1.21,1.21,0,0,0-.94-.35,1.52,1.52,0,0,0-1.23.48,2.3,2.3,0,0,0-.4,1.47v3.29h-.89V55a1.61,1.61,0,0,0-.3-1.06,1.18,1.18,0,0,0-.94-.35,1.45,1.45,0,0,0-1.23.51,2.69,2.69,0,0,0-.39,1.64v3.09h-.89V53h.73l.14.81h.05a1.65,1.65,0,0,1,.71-.67,2.17,2.17,0,0,1,1-.24,1.74,1.74,0,0,1,1.8,1h0a1.94,1.94,0,0,1,.77-.73,2.46,2.46,0,0,1,1.14-.26,2,2,0,0,1,1.49.51A2.3,2.3,0,0,1,177,55v3.84Z" transform="translate(-0.45 -4.78)" fill="#231f20"/><path d="M185.5,57.24a1.47,1.47,0,0,1-.61,1.27,2.86,2.86,0,0,1-1.72.45,3.85,3.85,0,0,1-1.83-.37v-.83a4.73,4.73,0,0,0,.91.34,4,4,0,0,0,.94.12,2.15,2.15,0,0,0,1.08-.22.77.77,0,0,0,.07-1.27,5,5,0,0,0-1.16-.58,6.16,6.16,0,0,1-1.17-.53,1.57,1.57,0,0,1-.51-.52,1.26,1.26,0,0,1-.17-.69,1.33,1.33,0,0,1,.58-1.14,2.72,2.72,0,0,1,1.61-.41,4.69,4.69,0,0,1,1.86.38l-.32.73a4.17,4.17,0,0,0-1.61-.37,1.84,1.84,0,0,0-.95.2.61.61,0,0,0-.32.55.65.65,0,0,0,.12.4,1.19,1.19,0,0,0,.39.32,8.2,8.2,0,0,0,1,.43,3.81,3.81,0,0,1,1.41.77A1.34,1.34,0,0,1,185.5,57.24Z" transform="translate(-0.45 -4.78)" fill="#231f20"/><path d="M189.3,59a2.54,2.54,0,0,1-2-.79,3.27,3.27,0,0,1-.7-2.23,3.36,3.36,0,0,1,.71-2.28,2.56,2.56,0,0,1,2-.8,4.09,4.09,0,0,1,.85.09,3,3,0,0,1,.67.21l-.28.76a4,4,0,0,0-.64-.2,3,3,0,0,0-.62-.08c-1.2,0-1.79.77-1.79,2.29A2.75,2.75,0,0,0,188,57.6a1.56,1.56,0,0,0,1.3.58,4,4,0,0,0,1.51-.32v.79A3.14,3.14,0,0,1,189.3,59Z" transform="translate(-0.45 -4.78)" fill="#231f20"/><path d="M196.22,58.85V55a1.51,1.51,0,0,0-.33-1.07,1.33,1.33,0,0,0-1-.36,1.65,1.65,0,0,0-1.35.51,2.51,2.51,0,0,0-.43,1.65v3.08h-.89V50.49h.89V53a7.42,7.42,0,0,1,0,.76h.05a1.81,1.81,0,0,1,.75-.67,2.45,2.45,0,0,1,1.11-.24,2.28,2.28,0,0,1,1.62.51,2.15,2.15,0,0,1,.54,1.63v3.84Z" transform="translate(-0.45 -4.78)" fill="#231f20"/><path d="M204,55.9a3.22,3.22,0,0,1-.73,2.25,2.54,2.54,0,0,1-2,.81,2.71,2.71,0,0,1-1.4-.37,2.54,2.54,0,0,1-.95-1.07,3.72,3.72,0,0,1-.33-1.62,3.23,3.23,0,0,1,.72-2.24,2.54,2.54,0,0,1,2-.8,2.47,2.47,0,0,1,2,.82A3.2,3.2,0,0,1,204,55.9Zm-4.49,0a2.8,2.8,0,0,0,.45,1.72,1.6,1.6,0,0,0,1.33.59,1.57,1.57,0,0,0,1.33-.59,2.78,2.78,0,0,0,.46-1.72,2.71,2.71,0,0,0-.46-1.7,1.59,1.59,0,0,0-1.34-.59,1.56,1.56,0,0,0-1.32.58A2.73,2.73,0,0,0,199.53,55.9Z" transform="translate(-0.45 -4.78)" fill="#231f20"/><path d="M210.66,55.9a3.27,3.27,0,0,1-.72,2.25,2.56,2.56,0,0,1-2,.81,2.73,2.73,0,0,1-1.4-.37,2.46,2.46,0,0,1-.94-1.07,3.58,3.58,0,0,1-.34-1.62,3.23,3.23,0,0,1,.72-2.24,2.54,2.54,0,0,1,2-.8,2.49,2.49,0,0,1,2,.82A3.24,3.24,0,0,1,210.66,55.9Zm-4.48,0a2.8,2.8,0,0,0,.45,1.72,1.78,1.78,0,0,0,2.65,0,2.71,2.71,0,0,0,.46-1.72,2.65,2.65,0,0,0-.46-1.7,1.58,1.58,0,0,0-1.34-.59,1.56,1.56,0,0,0-1.32.58A2.8,2.8,0,0,0,206.18,55.9Z" transform="translate(-0.45 -4.78)" fill="#231f20"/><path d="M213.12,58.85h-.89V50.49h.89Z" transform="translate(-0.45 -4.78)" fill="#231f20"/><path d="M220.52,53.66H219v5.19h-.89V53.66h-1v-.41l1-.32V52.6c0-1.44.63-2.17,1.9-2.17a4.1,4.1,0,0,1,1.09.19l-.23.72a2.7,2.7,0,0,0-.88-.17.87.87,0,0,0-.75.33,1.92,1.92,0,0,0-.24,1.08V53h1.5Z" transform="translate(-0.45 -4.78)" fill="#231f20"/><path d="M226.67,55.9a3.27,3.27,0,0,1-.72,2.25,2.54,2.54,0,0,1-2,.81,2.74,2.74,0,0,1-1.41-.37,2.52,2.52,0,0,1-.94-1.07,3.72,3.72,0,0,1-.33-1.62,3.23,3.23,0,0,1,.72-2.24,2.82,2.82,0,0,1,4,0A3.24,3.24,0,0,1,226.67,55.9Zm-4.48,0a2.8,2.8,0,0,0,.45,1.72,1.57,1.57,0,0,0,1.33.59,1.6,1.6,0,0,0,1.33-.59,2.78,2.78,0,0,0,.45-1.72,2.72,2.72,0,0,0-.45-1.7,1.61,1.61,0,0,0-1.34-.59,1.54,1.54,0,0,0-1.32.58A2.73,2.73,0,0,0,222.19,55.9Z" transform="translate(-0.45 -4.78)" fill="#231f20"/><path d="M230.92,52.86a3.76,3.76,0,0,1,.71.06l-.13.83a2.6,2.6,0,0,0-.64-.08,1.55,1.55,0,0,0-1.22.58,2.1,2.1,0,0,0-.51,1.44v3.16h-.89V53H229l.11,1.09h0a2.61,2.61,0,0,1,.79-.88A1.74,1.74,0,0,1,230.92,52.86Z" transform="translate(-0.45 -4.78)" fill="#231f20"/><path d="M239.61,58.85V55a1.55,1.55,0,0,0-.32-1.07,1.33,1.33,0,0,0-1-.36,1.68,1.68,0,0,0-1.35.5,2.53,2.53,0,0,0-.43,1.65v3.09h-.89V53h.72l.15.81h0a1.82,1.82,0,0,1,.77-.68,2.61,2.61,0,0,1,1.1-.23,2.24,2.24,0,0,1,1.6.51,2.17,2.17,0,0,1,.54,1.64v3.84Z" transform="translate(-0.45 -4.78)" fill="#231f20"/><path d="M247.42,55.9a3.22,3.22,0,0,1-.73,2.25,2.54,2.54,0,0,1-2,.81,2.71,2.71,0,0,1-1.4-.37,2.48,2.48,0,0,1-.95-1.07A3.72,3.72,0,0,1,242,55.9a3.23,3.23,0,0,1,.72-2.24,2.52,2.52,0,0,1,2-.8,2.49,2.49,0,0,1,2,.82A3.2,3.2,0,0,1,247.42,55.9Zm-4.49,0a2.8,2.8,0,0,0,.45,1.72,1.79,1.79,0,0,0,2.66,0,2.78,2.78,0,0,0,.45-1.72,2.72,2.72,0,0,0-.45-1.7,1.59,1.59,0,0,0-1.34-.59,1.56,1.56,0,0,0-1.32.58A2.73,2.73,0,0,0,242.93,55.9Z" transform="translate(-0.45 -4.78)" fill="#231f20"/><path d="M255.84,58.06h0A2.11,2.11,0,0,1,254,59a2.21,2.21,0,0,1-1.8-.79,3.49,3.49,0,0,1-.64-2.25,3.53,3.53,0,0,1,.64-2.26,2.16,2.16,0,0,1,1.8-.8,2.12,2.12,0,0,1,1.83.87h.08l0-.43,0-.41v-2.4h.89v8.36H256Zm-1.78.15a1.65,1.65,0,0,0,1.33-.5,2.52,2.52,0,0,0,.41-1.6v-.19a2.91,2.91,0,0,0-.42-1.78,1.58,1.58,0,0,0-1.33-.54,1.38,1.38,0,0,0-1.2.61,3,3,0,0,0-.42,1.72,2.89,2.89,0,0,0,.42,1.71A1.4,1.4,0,0,0,254.06,58.21Z" transform="translate(-0.45 -4.78)" fill="#231f20"/><path d="M262.2,58.85,262,58h0a2.45,2.45,0,0,1-.88.75A2.69,2.69,0,0,1,260,59a2,2,0,0,1-1.37-.45,1.62,1.62,0,0,1-.5-1.29c0-1.19.95-1.81,2.85-1.87l1,0V55a1.49,1.49,0,0,0-.3-1,1.23,1.23,0,0,0-.95-.33,3.92,3.92,0,0,0-1.67.45l-.27-.68a4.17,4.17,0,0,1,.95-.37,4.12,4.12,0,0,1,1-.13,2.25,2.25,0,0,1,1.56.46,1.94,1.94,0,0,1,.51,1.5v4Zm-2-.63a1.77,1.77,0,0,0,1.31-.46,1.67,1.67,0,0,0,.48-1.27V56l-.89,0a3.42,3.42,0,0,0-1.54.33,1,1,0,0,0-.47.91.92.92,0,0,0,.3.74A1.17,1.17,0,0,0,260.18,58.22Z" transform="translate(-0.45 -4.78)" fill="#231f20"/><path d="M263.76,53h1L266,56.32a11.89,11.89,0,0,1,.52,1.66h.05c0-.18.14-.5.29-.94s.63-1.8,1.46-4.08h.95l-2.53,6.71a3.42,3.42,0,0,1-.87,1.41,1.93,1.93,0,0,1-1.24.41,3.57,3.57,0,0,1-.8-.09v-.71a3.23,3.23,0,0,0,.66.06,1.36,1.36,0,0,0,1.31-1l.33-.84Z" transform="translate(-0.45 -4.78)" fill="#231f20"/><path d="M274,57.24a1.5,1.5,0,0,1-.61,1.27,2.88,2.88,0,0,1-1.72.45,3.85,3.85,0,0,1-1.83-.37v-.83a4.49,4.49,0,0,0,.91.34,3.91,3.91,0,0,0,.94.12A2.11,2.11,0,0,0,272.8,58a.75.75,0,0,0,.38-.68.73.73,0,0,0-.3-.59,5.23,5.23,0,0,0-1.16-.58,6.16,6.16,0,0,1-1.17-.53,1.72,1.72,0,0,1-.52-.52,1.36,1.36,0,0,1-.17-.69,1.34,1.34,0,0,1,.59-1.14,2.7,2.7,0,0,1,1.61-.41,4.61,4.61,0,0,1,1.85.38l-.31.73A4.17,4.17,0,0,0,272,53.6a1.91,1.91,0,0,0-1,.2.63.63,0,0,0-.32.55.65.65,0,0,0,.12.4,1.19,1.19,0,0,0,.39.32,9.82,9.82,0,0,0,1,.43,4,4,0,0,1,1.42.77A1.38,1.38,0,0,1,274,57.24Z" transform="translate(-0.45 -4.78)" fill="#231f20"/><path d="M8.81,218.25a4.33,4.33,0,0,1-1,3,3.36,3.36,0,0,1-2.65,1.08,3.39,3.39,0,0,1-2.68-1.06,5.21,5.21,0,0,1,0-6,3.44,3.44,0,0,1,2.69-1,3.38,3.38,0,0,1,2.64,1.07A4.36,4.36,0,0,1,8.81,218.25Zm-6.26,0a3.75,3.75,0,0,0,.68,2.42,2.41,2.41,0,0,0,2,.82,2.39,2.39,0,0,0,2-.82,4.75,4.75,0,0,0,0-4.83,2.39,2.39,0,0,0-2-.81,2.43,2.43,0,0,0-2,.82A3.71,3.71,0,0,0,2.55,218.25Z" transform="translate(-0.45 -4.78)" fill="#231f20"/><path d="M13.08,217h-1.5v5.2h-.89V217h-1v-.4l1-.32v-.33c0-1.45.63-2.17,1.9-2.17a3.73,3.73,0,0,1,1.09.19l-.23.71a3,3,0,0,0-.88-.17.87.87,0,0,0-.75.34,1.87,1.87,0,0,0-.24,1.08v.38h1.5Z" transform="translate(-0.45 -4.78)" fill="#231f20"/><path d="M18.91,221.56a2.32,2.32,0,0,0,.46,0l.35-.07v.68a1.51,1.51,0,0,1-.43.12,3.25,3.25,0,0,1-.51,0c-1.13,0-1.7-.6-1.7-1.8V217h-.85v-.43l.85-.37.37-1.26H18v1.37h1.71V217H18v3.47a1.17,1.17,0,0,0,.25.81A.88.88,0,0,0,18.91,221.56Z" transform="translate(-0.45 -4.78)" fill="#231f20"/><path d="M24.92,222.19v-3.81a1.6,1.6,0,0,0-.32-1.08,1.36,1.36,0,0,0-1-.35,1.72,1.72,0,0,0-1.36.5,2.61,2.61,0,0,0-.42,1.66v3.08h-.9v-8.36h.9v2.53a5.26,5.26,0,0,1-.05.76h.06a1.69,1.69,0,0,1,.75-.67,2.33,2.33,0,0,1,1.11-.25,2.24,2.24,0,0,1,1.61.51,2.19,2.19,0,0,1,.54,1.64v3.84Z" transform="translate(-0.45 -4.78)" fill="#231f20"/><path d="M30.13,222.29a2.71,2.71,0,0,1-2.06-.79,3.1,3.1,0,0,1-.75-2.21A3.4,3.4,0,0,1,28,217a2.32,2.32,0,0,1,1.88-.84,2.2,2.2,0,0,1,1.75.73,2.77,2.77,0,0,1,.65,1.92v.56H28.24a2.38,2.38,0,0,0,.53,1.58,1.82,1.82,0,0,0,1.4.53,4.84,4.84,0,0,0,1.88-.39v.79a4.06,4.06,0,0,1-.9.29A5,5,0,0,1,30.13,222.29Zm-.24-5.35a1.45,1.45,0,0,0-1.13.46,2.13,2.13,0,0,0-.5,1.28h3.08a2,2,0,0,0-.37-1.29A1.34,1.34,0,0,0,29.89,216.94Z" transform="translate(-0.45 -4.78)" fill="#231f20"/><path d="M42.89,214.43a2.35,2.35,0,0,1-.57,1.59,2.91,2.91,0,0,1-1.59.9v0a3.21,3.21,0,0,1,1.83.74,2.06,2.06,0,0,1,.62,1.57,2.67,2.67,0,0,1-1,2.25,4.83,4.83,0,0,1-3,.8,7.27,7.27,0,0,1-2.89-.54V220a6.28,6.28,0,0,0,1.28.48,5.15,5.15,0,0,0,1.38.19,2.69,2.69,0,0,0,1.55-.36,1.32,1.32,0,0,0,.5-1.14,1,1,0,0,0-.58-1,4.33,4.33,0,0,0-1.83-.29H37.8v-1.62h.77a3.49,3.49,0,0,0,1.7-.31,1.09,1.09,0,0,0,.54-1c0-.76-.47-1.13-1.42-1.13a3.17,3.17,0,0,0-1,.16,5,5,0,0,0-1.14.57l-1-1.46a5.45,5.45,0,0,1,3.26-1,4.21,4.21,0,0,1,2.45.63A2,2,0,0,1,42.89,214.43Z" transform="translate(-0.45 -4.78)" fill="#231f20"/><path d="M51.49,220.11h-1.2v2.08H48.23v-2.08H44v-1.47l4.38-6.45h1.95v6.28h1.2Zm-3.26-1.64v-1.69q0-.42,0-1.23c0-.54,0-.85.05-.94h-.05a7.45,7.45,0,0,1-.61,1.1l-1.83,2.76Z" transform="translate(-0.45 -4.78)" fill="#231f20"/><path d="M56.89,215.17a3.85,3.85,0,0,1-.6,2.36,2.11,2.11,0,0,1-1.79.79,2.06,2.06,0,0,1-1.74-.81,3.81,3.81,0,0,1-.62-2.34c0-2.08.79-3.12,2.36-3.12a2.09,2.09,0,0,1,1.77.81A3.69,3.69,0,0,1,56.89,215.17Zm-3,0a4.15,4.15,0,0,0,.15,1.29c.1.29.27.43.49.43.44,0,.66-.58.66-1.72s-.22-1.71-.66-1.71c-.22,0-.39.14-.49.42A4.11,4.11,0,0,0,53.87,215.19Zm7.73-3-5.55,10H54.41l5.55-10Zm2.29,7a3.87,3.87,0,0,1-.6,2.36,2.14,2.14,0,0,1-1.79.79,2.06,2.06,0,0,1-1.74-.81,3.81,3.81,0,0,1-.62-2.34c0-2.08.79-3.12,2.36-3.12a2.09,2.09,0,0,1,1.77.81A3.69,3.69,0,0,1,63.89,219.16Zm-3,0a4.11,4.11,0,0,0,.15,1.29c.1.29.27.43.49.43.44,0,.66-.57.66-1.72s-.22-1.71-.66-1.71c-.22,0-.39.14-.49.42A4.11,4.11,0,0,0,60.87,219.18Z" transform="translate(-0.45 -4.78)" fill="#231f20"/><path d="M73.19,222.19l-1.08-3.46c-.06-.21-.19-.69-.38-1.44h0c-.14.63-.27,1.11-.38,1.45l-1.11,3.45h-1l-1.61-5.89h.94l.87,3.38a13.4,13.4,0,0,1,.34,1.56h0c0-.2.1-.47.19-.79s.17-.58.23-.77l1.08-3.38h1l1,3.38a11,11,0,0,1,.41,1.55h0a3.85,3.85,0,0,1,.12-.6c.06-.26.43-1.71,1.12-4.33h.92l-1.63,5.89Z" transform="translate(-0.45 -4.78)" fill="#231f20"/><path d="M80.86,222.19v-3.81a1.55,1.55,0,0,0-.33-1.08,1.34,1.34,0,0,0-1-.35,1.72,1.72,0,0,0-1.36.5,2.6,2.6,0,0,0-.43,1.66v3.08h-.89v-8.36h.89v2.53a5.44,5.44,0,0,1,0,.76h.06a1.72,1.72,0,0,1,.74-.67,2.39,2.39,0,0,1,1.11-.25,2.28,2.28,0,0,1,1.62.51,2.19,2.19,0,0,1,.54,1.64v3.84Z" transform="translate(-0.45 -4.78)" fill="#231f20"/><path d="M88.56,219.24a3.23,3.23,0,0,1-.73,2.24,2.54,2.54,0,0,1-2,.81,2.59,2.59,0,0,1-1.4-.37,2.4,2.4,0,0,1-1-1.06,3.72,3.72,0,0,1-.33-1.62,3.27,3.27,0,0,1,.72-2.25,2.55,2.55,0,0,1,2-.8,2.49,2.49,0,0,1,2,.82A3.27,3.27,0,0,1,88.56,219.24Zm-4.49,0a2.82,2.82,0,0,0,.45,1.72,1.79,1.79,0,0,0,2.66,0,2.8,2.8,0,0,0,.45-1.72,2.77,2.77,0,0,0-.45-1.71,1.59,1.59,0,0,0-1.34-.58,1.56,1.56,0,0,0-1.32.57A2.78,2.78,0,0,0,84.07,219.24Z" transform="translate(-0.45 -4.78)" fill="#231f20"/><path d="M95.44,216.19a3,3,0,0,1,.7.07l-.12.82a3.28,3.28,0,0,0-.64-.08,1.57,1.57,0,0,0-1.22.58,2.12,2.12,0,0,0-.51,1.45v3.16h-.89V216.3h.73l.1,1.09h0a2.65,2.65,0,0,1,.79-.89A1.72,1.72,0,0,1,95.44,216.19Z" transform="translate(-0.45 -4.78)" fill="#231f20"/><path d="M99.62,222.29a2.71,2.71,0,0,1-2.06-.79,3.1,3.1,0,0,1-.75-2.21,3.4,3.4,0,0,1,.7-2.26,2.32,2.32,0,0,1,1.88-.84,2.2,2.2,0,0,1,1.75.73,2.77,2.77,0,0,1,.65,1.92v.56H97.73a2.32,2.32,0,0,0,.53,1.58,1.82,1.82,0,0,0,1.4.53,4.75,4.75,0,0,0,1.87-.39v.79a3.84,3.84,0,0,1-.89.29A5,5,0,0,1,99.62,222.29Zm-.24-5.35a1.45,1.45,0,0,0-1.13.46,2.13,2.13,0,0,0-.5,1.28h3.08a2,2,0,0,0-.37-1.29A1.34,1.34,0,0,0,99.38,216.94Z" transform="translate(-0.45 -4.78)" fill="#231f20"/><path d="M105.94,222.29a2.52,2.52,0,0,1-1-.21,1.94,1.94,0,0,1-.8-.65H104a6.75,6.75,0,0,1,.07,1v2.42h-.89V216.3h.72l.13.8h0a2.07,2.07,0,0,1,.8-.69,2.32,2.32,0,0,1,1-.22,2.17,2.17,0,0,1,1.8.8,3.5,3.5,0,0,1,.64,2.25,3.45,3.45,0,0,1-.65,2.25A2.16,2.16,0,0,1,105.94,222.29Zm-.13-5.34a1.6,1.6,0,0,0-1.31.5,2.57,2.57,0,0,0-.41,1.59v.2a3,3,0,0,0,.41,1.77,1.58,1.58,0,0,0,1.33.54,1.37,1.37,0,0,0,1.19-.62,2.91,2.91,0,0,0,.44-1.7,2.79,2.79,0,0,0-.44-1.69A1.39,1.39,0,0,0,105.81,217Z" transform="translate(-0.45 -4.78)" fill="#231f20"/><path d="M114.91,219.24a3.18,3.18,0,0,1-.73,2.24,2.54,2.54,0,0,1-2,.81,2.62,2.62,0,0,1-1.4-.37,2.46,2.46,0,0,1-1-1.06,3.72,3.72,0,0,1-.33-1.62,3.27,3.27,0,0,1,.72-2.25,2.57,2.57,0,0,1,2-.8,2.47,2.47,0,0,1,2,.82A3.22,3.22,0,0,1,114.91,219.24Zm-4.49,0a2.75,2.75,0,0,0,.46,1.72,1.78,1.78,0,0,0,2.65,0,2.8,2.8,0,0,0,.46-1.72,2.77,2.77,0,0,0-.46-1.71,1.83,1.83,0,0,0-2.66,0A2.78,2.78,0,0,0,110.42,219.24Z" transform="translate(-0.45 -4.78)" fill="#231f20"/><path d="M119.05,216.19a3,3,0,0,1,.7.07l-.12.82A3.37,3.37,0,0,0,119,217a1.6,1.6,0,0,0-1.22.58,2.12,2.12,0,0,0-.51,1.45v3.16h-.89V216.3h.74l.1,1.09h0a2.65,2.65,0,0,1,.79-.89A1.78,1.78,0,0,1,119.05,216.19Z" transform="translate(-0.45 -4.78)" fill="#231f20"/><path d="M122.64,221.56a2.32,2.32,0,0,0,.46,0l.35-.07v.68a1.51,1.51,0,0,1-.43.12,3.16,3.16,0,0,1-.51,0c-1.13,0-1.7-.6-1.7-1.8V217H120v-.43l.85-.37.37-1.26h.52v1.37h1.71V217H121.7v3.47a1.17,1.17,0,0,0,.25.81A.88.88,0,0,0,122.64,221.56Z" transform="translate(-0.45 -4.78)" fill="#231f20"/><path d="M127,222.29a2.71,2.71,0,0,1-2.06-.79,3.1,3.1,0,0,1-.75-2.21,3.4,3.4,0,0,1,.7-2.26,2.32,2.32,0,0,1,1.88-.84,2.2,2.2,0,0,1,1.75.73,2.77,2.77,0,0,1,.65,1.92v.56h-4.06a2.32,2.32,0,0,0,.53,1.58,1.82,1.82,0,0,0,1.4.53,4.75,4.75,0,0,0,1.87-.39v.79a3.84,3.84,0,0,1-.89.29A5,5,0,0,1,127,222.29Zm-.24-5.35a1.45,1.45,0,0,0-1.13.46,2.13,2.13,0,0,0-.5,1.28h3.08a2,2,0,0,0-.37-1.29A1.34,1.34,0,0,0,126.76,216.94Z" transform="translate(-0.45 -4.78)" fill="#231f20"/><path d="M134.58,221.4h0a2.12,2.12,0,0,1-1.85.89,2.18,2.18,0,0,1-1.8-.79,3.44,3.44,0,0,1-.64-2.24,3.52,3.52,0,0,1,.64-2.26,2.17,2.17,0,0,1,1.8-.81,2.12,2.12,0,0,1,1.83.87h.07l0-.42,0-.42v-2.39h.89v8.36h-.73Zm-1.78.15a1.65,1.65,0,0,0,1.33-.5,2.54,2.54,0,0,0,.41-1.6v-.19a2.94,2.94,0,0,0-.42-1.79,1.6,1.6,0,0,0-1.33-.53,1.36,1.36,0,0,0-1.2.61,3,3,0,0,0-.42,1.72,2.86,2.86,0,0,0,.42,1.7A1.4,1.4,0,0,0,132.8,221.55Z" transform="translate(-0.45 -4.78)" fill="#231f20"/><path d="M142.69,216.2a2.22,2.22,0,0,1,1.81.79,3.54,3.54,0,0,1,.64,2.25,3.5,3.5,0,0,1-.65,2.25,2.16,2.16,0,0,1-1.8.8,2.59,2.59,0,0,1-1.05-.21,2,2,0,0,1-.79-.65h-.07l-.19.76H140v-8.36h.89v2c0,.45,0,.86,0,1.22h0A2.12,2.12,0,0,1,142.69,216.2Zm-.12.75a1.56,1.56,0,0,0-1.32.52,3,3,0,0,0-.4,1.77,2.9,2.9,0,0,0,.41,1.77,1.58,1.58,0,0,0,1.33.54,1.38,1.38,0,0,0,1.22-.6,3.08,3.08,0,0,0,.4-1.72,3,3,0,0,0-.4-1.72A1.43,1.43,0,0,0,142.57,217Z" transform="translate(-0.45 -4.78)" fill="#231f20"/><path d="M149.07,222.29a2.71,2.71,0,0,1-2.06-.79,3.1,3.1,0,0,1-.75-2.21A3.4,3.4,0,0,1,147,217a2.32,2.32,0,0,1,1.88-.84,2.2,2.2,0,0,1,1.75.73,2.77,2.77,0,0,1,.65,1.92v.56h-4.06a2.38,2.38,0,0,0,.53,1.58,1.82,1.82,0,0,0,1.4.53,4.75,4.75,0,0,0,1.87-.39v.79a3.84,3.84,0,0,1-.89.29A5,5,0,0,1,149.07,222.29Zm-.24-5.35a1.45,1.45,0,0,0-1.13.46,2.13,2.13,0,0,0-.5,1.28h3.08a2,2,0,0,0-.37-1.29A1.34,1.34,0,0,0,148.83,216.94Z" transform="translate(-0.45 -4.78)" fill="#231f20"/><path d="M152.57,214.7a.61.61,0,0,1,.15-.45.56.56,0,0,1,.38-.14.51.51,0,0,1,.37.15.57.57,0,0,1,.16.44.61.61,0,0,1-.16.45.51.51,0,0,1-.37.15.52.52,0,0,1-.38-.15A.61.61,0,0,1,152.57,214.7Zm1,7.49h-.89V216.3h.89Z" transform="translate(-0.45 -4.78)" fill="#231f20"/><path d="M159.35,222.19v-3.81a1.55,1.55,0,0,0-.33-1.08,1.36,1.36,0,0,0-1-.35,1.71,1.71,0,0,0-1.35.5,2.49,2.49,0,0,0-.43,1.65v3.09h-.89V216.3H156l.15.8h0a1.86,1.86,0,0,1,.77-.67,2.5,2.5,0,0,1,1.1-.24,2.24,2.24,0,0,1,1.6.51,2.2,2.2,0,0,1,.54,1.65v3.84Z" transform="translate(-0.45 -4.78)" fill="#231f20"/><path d="M166.78,216.3v.56l-1.09.13a2,2,0,0,1,.27.49,1.88,1.88,0,0,1,.12.69,1.73,1.73,0,0,1-.6,1.38,2.38,2.38,0,0,1-1.62.51,2.56,2.56,0,0,1-.49,0,.87.87,0,0,0-.57.76.4.4,0,0,0,.2.36,1.55,1.55,0,0,0,.68.11h1a2.32,2.32,0,0,1,1.47.4,1.41,1.41,0,0,1,.51,1.17,1.69,1.69,0,0,1-.78,1.5,4.22,4.22,0,0,1-2.29.51,3.18,3.18,0,0,1-1.78-.43,1.39,1.39,0,0,1-.63-1.22,1.35,1.35,0,0,1,.35-.92,1.75,1.75,0,0,1,1-.54.82.82,0,0,1-.38-.31.81.81,0,0,1-.16-.5.92.92,0,0,1,.18-.57,1.7,1.7,0,0,1,.54-.46,1.65,1.65,0,0,1-.75-.64,2.15,2.15,0,0,1,.3-2.53,2.39,2.39,0,0,1,1.64-.52,3,3,0,0,1,.83.11Zm-4.7,6.87a.81.81,0,0,0,.41.73,2.26,2.26,0,0,0,1.15.25,3.24,3.24,0,0,0,1.66-.34,1,1,0,0,0,.54-.91.7.7,0,0,0-.29-.66,2.22,2.22,0,0,0-1.11-.19h-1.07a1.44,1.44,0,0,0-1,.29A1.06,1.06,0,0,0,162.08,223.17Zm.49-5a1.17,1.17,0,0,0,.35.94,1.38,1.38,0,0,0,1,.32,1.14,1.14,0,0,0,1.3-1.27,1.17,1.17,0,0,0-1.32-1.33,1.26,1.26,0,0,0-1,.34A1.35,1.35,0,0,0,162.57,218.18Z" transform="translate(-0.45 -4.78)" fill="#231f20"/><path d="M174.25,222.19l-.18-.84h0a2.53,2.53,0,0,1-.88.75,2.75,2.75,0,0,1-1.1.19,2,2,0,0,1-1.37-.45,1.65,1.65,0,0,1-.5-1.28c0-1.19.95-1.81,2.86-1.87l1,0v-.37a1.48,1.48,0,0,0-.3-1,1.24,1.24,0,0,0-1-.33,3.88,3.88,0,0,0-1.66.45l-.27-.68a3.84,3.84,0,0,1,1-.37,4.07,4.07,0,0,1,1-.14,2.26,2.26,0,0,1,1.56.47,1.94,1.94,0,0,1,.51,1.5v4Zm-2-.63a1.79,1.79,0,0,0,1.31-.46,1.67,1.67,0,0,0,.47-1.28v-.53l-.89,0a3.1,3.1,0,0,0-1.53.33,1,1,0,0,0-.47.91.91.91,0,0,0,.29.73A1.22,1.22,0,0,0,172.23,221.56Z" transform="translate(-0.45 -4.78)" fill="#231f20"/><path d="M179.37,216.2a2.19,2.19,0,0,1,1.8.79,4.22,4.22,0,0,1,0,4.5,2.16,2.16,0,0,1-1.8.8,2.59,2.59,0,0,1-1.05-.21,2,2,0,0,1-.8-.65h-.06l-.19.76h-.64v-8.36h.89v2c0,.45,0,.86,0,1.22h0A2.15,2.15,0,0,1,179.37,216.2Zm-.13.75a1.54,1.54,0,0,0-1.31.52,3,3,0,0,0-.41,1.77,2.89,2.89,0,0,0,.42,1.77,1.56,1.56,0,0,0,1.32.54,1.38,1.38,0,0,0,1.23-.6,3.08,3.08,0,0,0,.4-1.72,3,3,0,0,0-.4-1.72A1.44,1.44,0,0,0,179.24,217Z" transform="translate(-0.45 -4.78)" fill="#231f20"/><path d="M187.06,220.58a1.47,1.47,0,0,1-.61,1.27,2.93,2.93,0,0,1-1.72.44,3.73,3.73,0,0,1-1.83-.37v-.82a4.7,4.7,0,0,0,.91.33,3.54,3.54,0,0,0,.94.13,2.12,2.12,0,0,0,1.08-.23.72.72,0,0,0,.37-.68.73.73,0,0,0-.3-.58,4.15,4.15,0,0,0-1.16-.58,6.16,6.16,0,0,1-1.17-.53,1.67,1.67,0,0,1-.51-.52,1.32,1.32,0,0,1-.17-.7,1.3,1.3,0,0,1,.58-1.13,2.72,2.72,0,0,1,1.61-.42,4.7,4.7,0,0,1,1.86.39l-.32.72a4.33,4.33,0,0,0-1.61-.36,1.75,1.75,0,0,0-.95.2.59.59,0,0,0-.32.54.69.69,0,0,0,.12.41,1.18,1.18,0,0,0,.39.31,8.47,8.47,0,0,0,1,.44,3.67,3.67,0,0,1,1.41.77A1.34,1.34,0,0,1,187.06,220.58Z" transform="translate(-0.45 -4.78)" fill="#231f20"/><path d="M190.89,222.29a2.7,2.7,0,0,1-2.06-.79,3.06,3.06,0,0,1-.76-2.21,3.45,3.45,0,0,1,.7-2.26,2.34,2.34,0,0,1,1.89-.84,2.22,2.22,0,0,1,1.75.73,2.77,2.77,0,0,1,.64,1.92v.56H189a2.32,2.32,0,0,0,.52,1.58,1.84,1.84,0,0,0,1.4.53,4.84,4.84,0,0,0,1.88-.39v.79a4,4,0,0,1-.89.29A5,5,0,0,1,190.89,222.29Zm-.24-5.35a1.47,1.47,0,0,0-1.14.46,2.13,2.13,0,0,0-.49,1.28h3.08a2,2,0,0,0-.38-1.29A1.32,1.32,0,0,0,190.65,216.94Z" transform="translate(-0.45 -4.78)" fill="#231f20"/><path d="M198.49,222.19v-3.81a1.55,1.55,0,0,0-.33-1.08,1.35,1.35,0,0,0-1-.35,1.72,1.72,0,0,0-1.36.5,2.55,2.55,0,0,0-.43,1.65v3.09h-.89V216.3h.73l.14.8h0a1.78,1.78,0,0,1,.76-.67,2.5,2.5,0,0,1,1.1-.24,2.23,2.23,0,0,1,1.6.51,2.2,2.2,0,0,1,.54,1.65v3.84Z" transform="translate(-0.45 -4.78)" fill="#231f20"/><path d="M203,221.56a2.32,2.32,0,0,0,.46,0l.35-.07v.68a1.51,1.51,0,0,1-.43.12,3,3,0,0,1-.5,0q-1.71,0-1.71-1.8V217h-.85v-.43l.85-.37.37-1.26h.52v1.37h1.71V217h-1.71v3.47a1.17,1.17,0,0,0,.25.81A.88.88,0,0,0,203,221.56Z" transform="translate(-0.45 -4.78)" fill="#231f20"/><path d="M210.28,217h-1.5v5.2h-.89V217h-1v-.4l1-.32v-.33c0-1.45.63-2.17,1.89-2.17a3.79,3.79,0,0,1,1.1.19l-.23.71a3.05,3.05,0,0,0-.88-.17.87.87,0,0,0-.75.34,1.87,1.87,0,0,0-.24,1.08v.38h1.5Z" transform="translate(-0.45 -4.78)" fill="#231f20"/><path d="M213.93,216.19a3,3,0,0,1,.7.07l-.12.82a3.37,3.37,0,0,0-.65-.08,1.6,1.6,0,0,0-1.22.58,2.12,2.12,0,0,0-.51,1.45v3.16h-.89V216.3H212l.1,1.09h0a2.65,2.65,0,0,1,.79-.89A1.78,1.78,0,0,1,213.93,216.19Z" transform="translate(-0.45 -4.78)" fill="#231f20"/><path d="M220.7,219.24a3.23,3.23,0,0,1-.72,2.24,2.55,2.55,0,0,1-2,.81,2.64,2.64,0,0,1-1.4-.37,2.44,2.44,0,0,1-.94-1.06,3.72,3.72,0,0,1-.34-1.62A3.27,3.27,0,0,1,216,217a2.57,2.57,0,0,1,2-.8,2.49,2.49,0,0,1,2,.82A3.27,3.27,0,0,1,220.7,219.24Zm-4.48,0a2.82,2.82,0,0,0,.45,1.72,1.57,1.57,0,0,0,1.33.59,1.6,1.6,0,0,0,1.33-.59,2.8,2.8,0,0,0,.45-1.72,2.77,2.77,0,0,0-.45-1.71,1.84,1.84,0,0,0-2.67,0A2.85,2.85,0,0,0,216.22,219.24Z" transform="translate(-0.45 -4.78)" fill="#231f20"/><path d="M229.66,222.19v-3.83a1.61,1.61,0,0,0-.3-1.06,1.18,1.18,0,0,0-.94-.35,1.52,1.52,0,0,0-1.23.48,2.31,2.31,0,0,0-.39,1.47v3.29h-.89v-3.83a1.61,1.61,0,0,0-.31-1.06,1.18,1.18,0,0,0-.94-.35,1.46,1.46,0,0,0-1.22.5,2.72,2.72,0,0,0-.39,1.65v3.09h-.89V216.3h.72l.15.8h0a1.77,1.77,0,0,1,.71-.67,2.2,2.2,0,0,1,1-.24,1.74,1.74,0,0,1,1.8,1h0a1.85,1.85,0,0,1,.76-.73,2.34,2.34,0,0,1,1.14-.27,2,2,0,0,1,1.49.51,2.28,2.28,0,0,1,.5,1.65v3.84Z" transform="translate(-0.45 -4.78)" fill="#231f20"/><path d="M238.82,220.58a1.47,1.47,0,0,1-.61,1.27,2.93,2.93,0,0,1-1.72.44,3.66,3.66,0,0,1-1.82-.37v-.82a4.26,4.26,0,0,0,.91.33,3.42,3.42,0,0,0,.93.13,2.12,2.12,0,0,0,1.08-.23.72.72,0,0,0,.37-.68.75.75,0,0,0-.29-.58,4.41,4.41,0,0,0-1.17-.58,6.84,6.84,0,0,1-1.17-.53,1.67,1.67,0,0,1-.51-.52,1.42,1.42,0,0,1-.17-.7,1.3,1.3,0,0,1,.58-1.13,2.74,2.74,0,0,1,1.61-.42,4.7,4.7,0,0,1,1.86.39l-.32.72a4.29,4.29,0,0,0-1.6-.36,1.78,1.78,0,0,0-1,.2.61.61,0,0,0-.32.54.69.69,0,0,0,.12.41,1.18,1.18,0,0,0,.39.31,8.47,8.47,0,0,0,1,.44,3.81,3.81,0,0,1,1.42.77A1.37,1.37,0,0,1,238.82,220.58Z" transform="translate(-0.45 -4.78)" fill="#231f20"/><path d="M242.52,222.29a2.5,2.5,0,0,1-2-.78,3.24,3.24,0,0,1-.7-2.23,3.28,3.28,0,0,1,.71-2.28,2.55,2.55,0,0,1,2-.81,4,4,0,0,1,.84.09,2.75,2.75,0,0,1,.67.22l-.27.75a5.54,5.54,0,0,0-.65-.19,3,3,0,0,0-.62-.08c-1.19,0-1.79.76-1.79,2.29a2.71,2.71,0,0,0,.44,1.66,1.5,1.5,0,0,0,1.29.58,4,4,0,0,0,1.51-.31V222A3.25,3.25,0,0,1,242.52,222.29Z" transform="translate(-0.45 -4.78)" fill="#231f20"/><path d="M249.32,222.19v-3.81a1.55,1.55,0,0,0-.33-1.08,1.36,1.36,0,0,0-1-.35,1.69,1.69,0,0,0-1.35.5,2.54,2.54,0,0,0-.43,1.66v3.08h-.89v-8.36h.89v2.53a5.44,5.44,0,0,1,0,.76h.05a1.81,1.81,0,0,1,.75-.67,2.39,2.39,0,0,1,1.11-.25,2.28,2.28,0,0,1,1.62.51,2.19,2.19,0,0,1,.54,1.64v3.84Z" transform="translate(-0.45 -4.78)" fill="#231f20"/><path d="M257,219.24a3.23,3.23,0,0,1-.72,2.24,2.56,2.56,0,0,1-2,.81,2.64,2.64,0,0,1-1.4-.37,2.38,2.38,0,0,1-.94-1.06,3.58,3.58,0,0,1-.34-1.62,3.27,3.27,0,0,1,.72-2.25,2.57,2.57,0,0,1,2-.8,2.49,2.49,0,0,1,2,.82A3.27,3.27,0,0,1,257,219.24Zm-4.48,0A2.82,2.82,0,0,0,253,221a1.78,1.78,0,0,0,2.65,0,2.73,2.73,0,0,0,.46-1.72,2.7,2.7,0,0,0-.46-1.71,1.57,1.57,0,0,0-1.33-.58,1.59,1.59,0,0,0-1.33.57A2.85,2.85,0,0,0,252.53,219.24Z" transform="translate(-0.45 -4.78)" fill="#231f20"/><path d="M263.55,219.24a3.18,3.18,0,0,1-.73,2.24,2.54,2.54,0,0,1-2,.81,2.62,2.62,0,0,1-1.4-.37,2.4,2.4,0,0,1-.95-1.06,3.72,3.72,0,0,1-.33-1.62,3.27,3.27,0,0,1,.72-2.25,2.55,2.55,0,0,1,2-.8,2.49,2.49,0,0,1,2,.82A3.27,3.27,0,0,1,263.55,219.24Zm-4.49,0a2.82,2.82,0,0,0,.45,1.72,1.79,1.79,0,0,0,2.66,0,2.8,2.8,0,0,0,.45-1.72,2.77,2.77,0,0,0-.45-1.71,1.59,1.59,0,0,0-1.34-.58,1.57,1.57,0,0,0-1.32.57A2.78,2.78,0,0,0,259.06,219.24Z" transform="translate(-0.45 -4.78)" fill="#231f20"/><path d="M265.89,222.19H265v-8.36h.89Z" transform="translate(-0.45 -4.78)" fill="#231f20"/><path d="M273.07,217h-1.5v5.2h-.89V217h-1.05v-.4l1.05-.32v-.33c0-1.45.63-2.17,1.9-2.17a3.73,3.73,0,0,1,1.09.19l-.23.71a2.94,2.94,0,0,0-.88-.17.86.86,0,0,0-.74.34,1.79,1.79,0,0,0-.25,1.08v.38h1.5Z" transform="translate(-0.45 -4.78)" fill="#231f20"/><path d="M279.12,219.24a3.18,3.18,0,0,1-.73,2.24,2.54,2.54,0,0,1-2,.81,2.62,2.62,0,0,1-1.4-.37,2.4,2.4,0,0,1-.95-1.06,3.72,3.72,0,0,1-.33-1.62,3.27,3.27,0,0,1,.72-2.25,2.57,2.57,0,0,1,2-.8,2.47,2.47,0,0,1,2,.82A3.22,3.22,0,0,1,279.12,219.24Zm-4.49,0a2.82,2.82,0,0,0,.45,1.72,1.79,1.79,0,0,0,2.66,0,2.8,2.8,0,0,0,.45-1.72,2.77,2.77,0,0,0-.45-1.71,1.83,1.83,0,0,0-2.66,0A2.78,2.78,0,0,0,274.63,219.24Z" transform="translate(-0.45 -4.78)" fill="#231f20"/><path d="M283.26,216.19a3,3,0,0,1,.7.07l-.12.82a3.37,3.37,0,0,0-.65-.08,1.58,1.58,0,0,0-1.22.58,2.12,2.12,0,0,0-.51,1.45v3.16h-.89V216.3h.74l.1,1.09h0a2.65,2.65,0,0,1,.79-.89A1.78,1.78,0,0,1,283.26,216.19Z" transform="translate(-0.45 -4.78)" fill="#231f20"/><path d="M291.73,222.19v-3.81a1.55,1.55,0,0,0-.33-1.08,1.36,1.36,0,0,0-1-.35,1.71,1.71,0,0,0-1.35.5,2.49,2.49,0,0,0-.43,1.65v3.09h-.89V216.3h.72l.15.8h0a1.8,1.8,0,0,1,.77-.67,2.5,2.5,0,0,1,1.1-.24,2.24,2.24,0,0,1,1.6.51,2.2,2.2,0,0,1,.54,1.65v3.84Z" transform="translate(-0.45 -4.78)" fill="#231f20"/><path d="M299.42,219.24a3.23,3.23,0,0,1-.72,2.24,2.56,2.56,0,0,1-2,.81,2.64,2.64,0,0,1-1.4-.37,2.38,2.38,0,0,1-.94-1.06,3.58,3.58,0,0,1-.34-1.62,3.27,3.27,0,0,1,.72-2.25,2.57,2.57,0,0,1,2-.8,2.47,2.47,0,0,1,2,.82A3.22,3.22,0,0,1,299.42,219.24Zm-4.48,0a2.82,2.82,0,0,0,.45,1.72,1.78,1.78,0,0,0,2.65,0,2.73,2.73,0,0,0,.46-1.72,2.7,2.7,0,0,0-.46-1.71,1.83,1.83,0,0,0-2.66,0A2.85,2.85,0,0,0,294.94,219.24Z" transform="translate(-0.45 -4.78)" fill="#231f20"/><path d="M307.63,221.4h-.05a2.11,2.11,0,0,1-1.85.89,2.15,2.15,0,0,1-1.79-.79,3.44,3.44,0,0,1-.65-2.24,3.52,3.52,0,0,1,.65-2.26,2.38,2.38,0,0,1,3.63.06h.07l0-.42,0-.42v-2.39h.89v8.36h-.72Zm-1.79.15a1.65,1.65,0,0,0,1.33-.5,2.54,2.54,0,0,0,.41-1.6v-.19a2.94,2.94,0,0,0-.42-1.79,1.59,1.59,0,0,0-1.33-.53,1.36,1.36,0,0,0-1.2.61,3.08,3.08,0,0,0-.41,1.72,2.94,2.94,0,0,0,.41,1.7A1.41,1.41,0,0,0,305.84,221.55Z" transform="translate(-0.45 -4.78)" fill="#231f20"/><path d="M313.87,222.19l-.17-.84h-.05a2.37,2.37,0,0,1-.88.75,2.66,2.66,0,0,1-1.09.19,2,2,0,0,1-1.37-.45,1.65,1.65,0,0,1-.5-1.28c0-1.19.95-1.81,2.85-1.87l1,0v-.37a1.48,1.48,0,0,0-.3-1,1.2,1.2,0,0,0-.95-.33,3.88,3.88,0,0,0-1.66.45l-.28-.68a4.45,4.45,0,0,1,2-.51,2.27,2.27,0,0,1,1.57.47,2,2,0,0,1,.5,1.5v4Zm-2-.63a1.81,1.81,0,0,0,1.31-.46,1.71,1.71,0,0,0,.47-1.28v-.53l-.89,0a3.1,3.1,0,0,0-1.53.33,1,1,0,0,0-.47.91.88.88,0,0,0,.29.73A1.2,1.2,0,0,0,311.86,221.56Z" transform="translate(-0.45 -4.78)" fill="#231f20"/><path d="M315.33,216.3h.95l1.29,3.36a13.45,13.45,0,0,1,.53,1.66h0c.05-.19.14-.5.29-.94s.64-1.8,1.46-4.08h1l-2.53,6.7a3.42,3.42,0,0,1-.88,1.41,1.87,1.87,0,0,1-1.23.42,3.66,3.66,0,0,1-.81-.09V224a2.73,2.73,0,0,0,.66.07,1.37,1.37,0,0,0,1.31-1l.33-.84Z" transform="translate(-0.45 -4.78)" fill="#231f20"/><path d="M325.49,220.58a1.47,1.47,0,0,1-.61,1.27,2.93,2.93,0,0,1-1.72.44,3.73,3.73,0,0,1-1.83-.37v-.82a4.7,4.7,0,0,0,.91.33,3.54,3.54,0,0,0,.94.13,2.07,2.07,0,0,0,1.07-.23.76.76,0,0,0,.08-1.26,4.31,4.31,0,0,0-1.16-.58A6.16,6.16,0,0,1,322,219a1.67,1.67,0,0,1-.51-.52,1.32,1.32,0,0,1-.17-.7,1.3,1.3,0,0,1,.58-1.13,2.72,2.72,0,0,1,1.61-.42,4.7,4.7,0,0,1,1.86.39l-.32.72a4.33,4.33,0,0,0-1.61-.36,1.75,1.75,0,0,0-.95.2.59.59,0,0,0-.32.54.69.69,0,0,0,.12.41,1.24,1.24,0,0,0,.38.31,8.84,8.84,0,0,0,1,.44,3.67,3.67,0,0,1,1.41.77A1.34,1.34,0,0,1,325.49,220.58Z" transform="translate(-0.45 -4.78)" fill="#231f20"/><path d="M327.76,220.91l.09.12c-.1.36-.23.77-.41,1.25s-.36.92-.55,1.32h-.67c.1-.37.21-.83.32-1.38s.2-1,.25-1.31Z" transform="translate(-0.45 -4.78)" fill="#231f20"/><path d="M8.69,236.91H7.48V239H5.42v-2.08H1.15v-1.47L5.54,229H7.48v6.28H8.69Zm-3.27-1.64v-1.69q0-.42,0-1.23c0-.54,0-.85.06-.94H5.45a6.88,6.88,0,0,1-.61,1.09L3,235.27Z" transform="translate(-0.45 -4.78)" fill="#231f20"/><path d="M14.69,239H12.58V233.2l0-.95,0-1c-.35.35-.59.58-.73.69l-1.15.93-1-1.28L13,229h1.74Z" transform="translate(-0.45 -4.78)" fill="#231f20"/><path d="M21.34,233a3.35,3.35,0,0,1-.52,2,1.82,1.82,0,0,1-1.53.67,1.77,1.77,0,0,1-1.5-.69,3.28,3.28,0,0,1-.52-2c0-1.78.67-2.67,2-2.67a1.81,1.81,0,0,1,1.52.69A3.22,3.22,0,0,1,21.34,233Zm-2.6,0a3.81,3.81,0,0,0,.13,1.11c.09.24.23.36.43.36.37,0,.56-.49.56-1.47s-.19-1.47-.56-1.47c-.2,0-.34.12-.43.36A3.71,3.71,0,0,0,18.74,233Zm6.63-2.57L20.62,239H19.21L24,230.42Zm2,6a3.31,3.31,0,0,1-.52,2,1.8,1.8,0,0,1-1.53.68,1.77,1.77,0,0,1-1.5-.69,3.29,3.29,0,0,1-.52-2c0-1.79.67-2.68,2-2.68a1.81,1.81,0,0,1,1.52.69A3.27,3.27,0,0,1,27.34,236.4Zm-2.6,0a3.81,3.81,0,0,0,.13,1.11c.09.24.23.36.43.36.37,0,.56-.49.56-1.47s-.19-1.47-.56-1.47c-.2,0-.34.12-.43.36A3.71,3.71,0,0,0,24.74,236.41Z" transform="translate(-0.45 -4.78)" fill="#231f20"/><path d="M34.51,239.09a2.59,2.59,0,0,1-1-.21,2,2,0,0,1-.8-.65H32.6a8.44,8.44,0,0,1,.06,1v2.42h-.89V233.1h.72l.13.8h0a2.07,2.07,0,0,1,.8-.69,2.38,2.38,0,0,1,1-.22,2.2,2.2,0,0,1,1.81.8A3.56,3.56,0,0,1,37,236a3.52,3.52,0,0,1-.64,2.25A2.18,2.18,0,0,1,34.51,239.09Zm-.13-5.34a1.6,1.6,0,0,0-1.31.5,2.64,2.64,0,0,0-.41,1.59v.2a3,3,0,0,0,.41,1.77,1.58,1.58,0,0,0,1.33.54,1.39,1.39,0,0,0,1.2-.62A3,3,0,0,0,36,236a2.86,2.86,0,0,0-.43-1.69A1.42,1.42,0,0,0,34.38,233.75Z" transform="translate(-0.45 -4.78)" fill="#231f20"/><path d="M40.89,239.09a2.7,2.7,0,0,1-2.06-.79,3.06,3.06,0,0,1-.76-2.21,3.45,3.45,0,0,1,.7-2.26,2.34,2.34,0,0,1,1.89-.84,2.22,2.22,0,0,1,1.75.73,2.77,2.77,0,0,1,.64,1.92v.56H39a2.32,2.32,0,0,0,.52,1.58,1.84,1.84,0,0,0,1.4.53,4.84,4.84,0,0,0,1.88-.39v.79a4,4,0,0,1-.89.29A5,5,0,0,1,40.89,239.09Zm-.24-5.35a1.47,1.47,0,0,0-1.14.46,2.13,2.13,0,0,0-.49,1.28H42.1a2,2,0,0,0-.38-1.29A1.32,1.32,0,0,0,40.65,233.74Z" transform="translate(-0.45 -4.78)" fill="#231f20"/><path d="M47.15,233a3,3,0,0,1,.7.07l-.12.82a3.37,3.37,0,0,0-.65-.08,1.6,1.6,0,0,0-1.22.58,2.12,2.12,0,0,0-.51,1.45V239h-.89V233.1h.74l.1,1.09h0a2.65,2.65,0,0,1,.79-.89A1.78,1.78,0,0,1,47.15,233Z" transform="translate(-0.45 -4.78)" fill="#231f20"/><path d="M51.5,233.79H50V239h-.89v-5.2H48.05v-.4l1.06-.32v-.33c0-1.45.63-2.17,1.89-2.17a3.79,3.79,0,0,1,1.1.19l-.23.71a3.05,3.05,0,0,0-.89-.17.86.86,0,0,0-.74.34,1.87,1.87,0,0,0-.24,1.08v.38h1.5Z" transform="translate(-0.45 -4.78)" fill="#231f20"/><path d="M57.54,236a3.18,3.18,0,0,1-.73,2.24,2.54,2.54,0,0,1-2,.81,2.64,2.64,0,0,1-1.4-.37,2.46,2.46,0,0,1-.95-1.06,3.72,3.72,0,0,1-.33-1.62,3.27,3.27,0,0,1,.72-2.25,2.57,2.57,0,0,1,2-.8,2.47,2.47,0,0,1,2,.82A3.22,3.22,0,0,1,57.54,236Zm-4.49,0a2.77,2.77,0,0,0,.46,1.71,1.55,1.55,0,0,0,1.32.6,1.57,1.57,0,0,0,1.33-.59,2.8,2.8,0,0,0,.46-1.72,2.77,2.77,0,0,0-.46-1.71,1.83,1.83,0,0,0-2.66,0A2.78,2.78,0,0,0,53.05,236Z" transform="translate(-0.45 -4.78)" fill="#231f20"/><path d="M61.68,233a3,3,0,0,1,.7.07l-.12.82a3.28,3.28,0,0,0-.65-.08,1.6,1.6,0,0,0-1.22.58,2.12,2.12,0,0,0-.51,1.45V239H59V233.1h.74l.1,1.09h0a2.76,2.76,0,0,1,.79-.89A1.78,1.78,0,0,1,61.68,233Z" transform="translate(-0.45 -4.78)" fill="#231f20"/><path d="M70.88,239v-3.83a1.6,1.6,0,0,0-.3-1.06,1.19,1.19,0,0,0-.94-.35,1.52,1.52,0,0,0-1.23.48,2.28,2.28,0,0,0-.4,1.47V239h-.89v-3.83a1.6,1.6,0,0,0-.3-1.06,1.18,1.18,0,0,0-.94-.35,1.45,1.45,0,0,0-1.22.5,2.72,2.72,0,0,0-.39,1.65V239h-.9V233.1h.73l.14.8h.05a1.77,1.77,0,0,1,.71-.67,2.17,2.17,0,0,1,1-.24,1.74,1.74,0,0,1,1.8,1h0a1.79,1.79,0,0,1,.76-.73,2.34,2.34,0,0,1,1.14-.27,2,2,0,0,1,1.49.51,2.33,2.33,0,0,1,.5,1.65V239Z" transform="translate(-0.45 -4.78)" fill="#231f20"/><path d="M76,239.09a2.71,2.71,0,0,1-2.06-.79,3.1,3.1,0,0,1-.75-2.21,3.4,3.4,0,0,1,.7-2.26,2.32,2.32,0,0,1,1.88-.84,2.2,2.2,0,0,1,1.75.73,2.77,2.77,0,0,1,.65,1.92v.56H74.09a2.38,2.38,0,0,0,.53,1.58,1.82,1.82,0,0,0,1.4.53,4.75,4.75,0,0,0,1.87-.39v.79A3.84,3.84,0,0,1,77,239,5,5,0,0,1,76,239.09Zm-.24-5.35a1.45,1.45,0,0,0-1.13.46,2.13,2.13,0,0,0-.5,1.28h3.08a2,2,0,0,0-.37-1.29A1.34,1.34,0,0,0,75.74,233.74Z" transform="translate(-0.45 -4.78)" fill="#231f20"/><path d="M83.56,238.2h0a2.12,2.12,0,0,1-1.85.89,2.18,2.18,0,0,1-1.8-.79,3.44,3.44,0,0,1-.64-2.24,3.52,3.52,0,0,1,.64-2.26,2.17,2.17,0,0,1,1.8-.81,2.12,2.12,0,0,1,1.83.87h.07l0-.42,0-.42v-2.39h.89V239h-.73Zm-1.78.15a1.61,1.61,0,0,0,1.32-.5,2.47,2.47,0,0,0,.42-1.6v-.19a2.94,2.94,0,0,0-.42-1.79,1.6,1.6,0,0,0-1.33-.53,1.36,1.36,0,0,0-1.2.61,3,3,0,0,0-.42,1.72,2.86,2.86,0,0,0,.42,1.7A1.4,1.4,0,0,0,81.78,238.35Z" transform="translate(-0.45 -4.78)" fill="#231f20"/><path d="M92.56,239l-.18-.84h0a2.53,2.53,0,0,1-.88.75,2.71,2.71,0,0,1-1.1.19,2,2,0,0,1-1.37-.45,1.64,1.64,0,0,1-.49-1.28c0-1.19,1-1.81,2.85-1.87l1,0v-.37a1.48,1.48,0,0,0-.3-1,1.24,1.24,0,0,0-1-.33,3.88,3.88,0,0,0-1.66.45l-.27-.68a4,4,0,0,1,1-.37,4.13,4.13,0,0,1,1-.14,2.26,2.26,0,0,1,1.56.47,1.94,1.94,0,0,1,.51,1.5v4Zm-2-.63a1.79,1.79,0,0,0,1.31-.46,1.67,1.67,0,0,0,.47-1.28v-.53l-.89,0a3.1,3.1,0,0,0-1.53.33,1,1,0,0,0-.47.91.91.91,0,0,0,.29.73A1.22,1.22,0,0,0,90.54,238.36Z" transform="translate(-0.45 -4.78)" fill="#231f20"/><path d="M96.84,238.36a2.32,2.32,0,0,0,.46,0,3.56,3.56,0,0,0,.35-.07v.68a1.51,1.51,0,0,1-.43.12,3.16,3.16,0,0,1-.51,0c-1.13,0-1.7-.6-1.7-1.8v-3.5h-.85v-.43L95,233l.37-1.26h.52v1.37h1.71v.69H95.9v3.47a1.17,1.17,0,0,0,.25.81A.88.88,0,0,0,96.84,238.36Z" transform="translate(-0.45 -4.78)" fill="#231f20"/><path d="M106.55,236a3.23,3.23,0,0,1-.73,2.24,2.54,2.54,0,0,1-2,.81,2.59,2.59,0,0,1-1.4-.37,2.4,2.4,0,0,1-1-1.06,3.72,3.72,0,0,1-.33-1.62,3.27,3.27,0,0,1,.72-2.25,2.55,2.55,0,0,1,2-.8,2.49,2.49,0,0,1,2,.82A3.27,3.27,0,0,1,106.55,236Zm-4.49,0a2.77,2.77,0,0,0,.45,1.71,1.55,1.55,0,0,0,1.33.6,1.6,1.6,0,0,0,1.33-.59,2.8,2.8,0,0,0,.45-1.72,2.77,2.77,0,0,0-.45-1.71,1.6,1.6,0,0,0-1.34-.58,1.56,1.56,0,0,0-1.32.57A2.78,2.78,0,0,0,102.06,236Z" transform="translate(-0.45 -4.78)" fill="#231f20"/><path d="M110.68,233a3,3,0,0,1,.71.07l-.13.82a3.19,3.19,0,0,0-.64-.08,1.58,1.58,0,0,0-1.22.58,2.12,2.12,0,0,0-.51,1.45V239H108V233.1h.73l.11,1.09h0a2.65,2.65,0,0,1,.79-.89A1.74,1.74,0,0,1,110.68,233Z" transform="translate(-0.45 -4.78)" fill="#231f20"/><path d="M118.75,239l-.18-.84h0a2.53,2.53,0,0,1-.88.75,2.75,2.75,0,0,1-1.1.19,2,2,0,0,1-1.37-.45,1.65,1.65,0,0,1-.5-1.28c0-1.19.95-1.81,2.86-1.87l1,0v-.37a1.48,1.48,0,0,0-.3-1,1.24,1.24,0,0,0-1-.33,3.88,3.88,0,0,0-1.66.45l-.27-.68a3.84,3.84,0,0,1,1-.37,4.07,4.07,0,0,1,1-.14,2.26,2.26,0,0,1,1.56.47,1.94,1.94,0,0,1,.51,1.5v4Zm-2-.63a1.79,1.79,0,0,0,1.31-.46,1.67,1.67,0,0,0,.47-1.28v-.53l-.89,0a3.1,3.1,0,0,0-1.53.33,1,1,0,0,0-.47.91.91.91,0,0,0,.29.73A1.22,1.22,0,0,0,116.73,238.36Z" transform="translate(-0.45 -4.78)" fill="#231f20"/><path d="M123.87,233a2.19,2.19,0,0,1,1.8.79,3.49,3.49,0,0,1,.65,2.25,3.52,3.52,0,0,1-.65,2.25,2.16,2.16,0,0,1-1.8.8,2.59,2.59,0,0,1-1.05-.21,2,2,0,0,1-.8-.65H122l-.19.76h-.64v-8.36H122v2c0,.45,0,.86,0,1.22h0A2.15,2.15,0,0,1,123.87,233Zm-.13.75a1.54,1.54,0,0,0-1.31.52A3,3,0,0,0,122,236a2.89,2.89,0,0,0,.42,1.77,1.56,1.56,0,0,0,1.32.54,1.38,1.38,0,0,0,1.23-.6,3.08,3.08,0,0,0,.4-1.72,3,3,0,0,0-.4-1.72A1.44,1.44,0,0,0,123.74,233.75Z" transform="translate(-0.45 -4.78)" fill="#231f20"/><path d="M132.84,236a3.23,3.23,0,0,1-.72,2.24,2.54,2.54,0,0,1-2,.81,2.65,2.65,0,0,1-1.41-.37,2.44,2.44,0,0,1-.94-1.06,3.72,3.72,0,0,1-.33-1.62,3.27,3.27,0,0,1,.72-2.25,2.55,2.55,0,0,1,2-.8,2.49,2.49,0,0,1,2,.82A3.27,3.27,0,0,1,132.84,236Zm-4.48,0a2.77,2.77,0,0,0,.45,1.71,1.55,1.55,0,0,0,1.33.6,1.6,1.6,0,0,0,1.33-.59,2.8,2.8,0,0,0,.45-1.72,2.77,2.77,0,0,0-.45-1.71,1.6,1.6,0,0,0-1.34-.58,1.56,1.56,0,0,0-1.32.57A2.78,2.78,0,0,0,128.36,236Z" transform="translate(-0.45 -4.78)" fill="#231f20"/><path d="M135.59,239l-2.24-5.89h1l1.27,3.49c.28.82.45,1.35.5,1.59h0c0-.19.17-.58.38-1.18s.68-1.9,1.41-3.9h1L136.63,239Z" transform="translate(-0.45 -4.78)" fill="#231f20"/><path d="M142.18,239.09a2.69,2.69,0,0,1-2.05-.79,3.06,3.06,0,0,1-.76-2.21,3.4,3.4,0,0,1,.7-2.26A2.33,2.33,0,0,1,142,233a2.22,2.22,0,0,1,1.76.73,2.82,2.82,0,0,1,.64,1.92v.56h-4.06a2.38,2.38,0,0,0,.53,1.58,1.84,1.84,0,0,0,1.4.53,4.84,4.84,0,0,0,1.88-.39v.79a4.06,4.06,0,0,1-.9.29A5,5,0,0,1,142.18,239.09Zm-.24-5.35a1.45,1.45,0,0,0-1.13.46,2.13,2.13,0,0,0-.49,1.28h3.07a2,2,0,0,0-.37-1.29A1.33,1.33,0,0,0,141.94,233.74Z" transform="translate(-0.45 -4.78)" fill="#231f20"/><path d="M150.41,238.36a2.15,2.15,0,0,0,.45,0,3,3,0,0,0,.35-.07v.68a1.43,1.43,0,0,1-.42.12,3.25,3.25,0,0,1-.51,0q-1.71,0-1.71-1.8v-3.5h-.84v-.43l.84-.37.38-1.26h.51v1.37h1.71v.69h-1.71v3.47a1.18,1.18,0,0,0,.26.81A.85.85,0,0,0,150.41,238.36Z" transform="translate(-0.45 -4.78)" fill="#231f20"/><path d="M156.31,239v-3.81a1.55,1.55,0,0,0-.33-1.08,1.35,1.35,0,0,0-1-.35,1.7,1.7,0,0,0-1.36.5,2.54,2.54,0,0,0-.43,1.66V239h-.89v-8.36h.89v2.53a5.53,5.53,0,0,1,0,.76h.05a1.81,1.81,0,0,1,.75-.67A2.39,2.39,0,0,1,155,233a2.28,2.28,0,0,1,1.62.51,2.19,2.19,0,0,1,.54,1.64V239Z" transform="translate(-0.45 -4.78)" fill="#231f20"/><path d="M161.41,239.09a2.7,2.7,0,0,1-2.06-.79,3.1,3.1,0,0,1-.76-2.21,3.4,3.4,0,0,1,.71-2.26,2.31,2.31,0,0,1,1.88-.84,2.2,2.2,0,0,1,1.75.73,2.77,2.77,0,0,1,.64,1.92v.56h-4a2.37,2.37,0,0,0,.52,1.58,1.84,1.84,0,0,0,1.4.53,4.84,4.84,0,0,0,1.88-.39v.79a3.84,3.84,0,0,1-.89.29A5,5,0,0,1,161.41,239.09Zm-.24-5.35a1.43,1.43,0,0,0-1.13.46,2.07,2.07,0,0,0-.5,1.28h3.08a2,2,0,0,0-.38-1.29A1.32,1.32,0,0,0,161.17,233.74Z" transform="translate(-0.45 -4.78)" fill="#231f20"/><path d="M172.9,239h-1l-2.47-6.57h0c-.12.79-.25,1.54-.4,2.24l-.92,4.33h-.87l1.66-7.86h1l2.47,6.56h0c.11-.81.24-1.53.39-2.18l.93-4.38h.88Z" transform="translate(-0.45 -4.78)" fill="#231f20"/><path d="M178.77,236.49H176.1l-1.31,2.5h-1l4.29-7.86H179l1,7.86h-.92Zm-.1-.84-.19-1.61a17.4,17.4,0,0,1-.15-1.88c-.14.32-.28.63-.44.94s-.6,1.16-1.34,2.55Z" transform="translate(-0.45 -4.78)" fill="#231f20"/><path d="M184.81,239h-3.95l1.66-7.86h3.95l-.18.82h-3l-.52,2.52h2.83l-.16.82h-2.84l-.61,2.88h3Z" transform="translate(-0.45 -4.78)" fill="#231f20"/><path d="M192.13,233.16a2.43,2.43,0,0,1-.88,2,4,4,0,0,1-2.58.71h-.73l-.66,3.09h-.91l1.66-7.86h1.77a2.58,2.58,0,0,1,1.74.51A1.87,1.87,0,0,1,192.13,233.16Zm-4,2h.72a2.71,2.71,0,0,0,1.76-.49,1.73,1.73,0,0,0,.6-1.43,1.19,1.19,0,0,0-.37-1,1.84,1.84,0,0,0-1.15-.3h-.88Z" transform="translate(-0.45 -4.78)" fill="#231f20"/><path d="M201,233.16a2.46,2.46,0,0,1-.88,2,4.08,4.08,0,0,1-2.59.71h-.72l-.66,3.09h-.92l1.66-7.86h1.78a2.62,2.62,0,0,1,1.74.51A1.9,1.9,0,0,1,201,233.16Zm-4,2h.72a2.71,2.71,0,0,0,1.76-.49,1.73,1.73,0,0,0,.6-1.43,1.16,1.16,0,0,0-.37-1,1.82,1.82,0,0,0-1.15-.3h-.87Z" transform="translate(-0.45 -4.78)" fill="#231f20"/><path d="M204.93,233a2.43,2.43,0,0,1,.64.08l-.19.8a2.78,2.78,0,0,0-.57-.07,1.51,1.51,0,0,0-.91.32,2.82,2.82,0,0,0-.75.9,4.57,4.57,0,0,0-.47,1.27l-.57,2.7h-.91l1.26-5.89h.75l-.12,1.09h0a4.78,4.78,0,0,1,.64-.73,2.11,2.11,0,0,1,.53-.35A1.56,1.56,0,0,1,204.93,233Z" transform="translate(-0.45 -4.78)" fill="#231f20"/><path d="M208.59,233a2.13,2.13,0,0,1,1.61.61,2.27,2.27,0,0,1,.59,1.66,4.76,4.76,0,0,1-.39,1.91,3.24,3.24,0,0,1-1.05,1.38,2.4,2.4,0,0,1-1.49.49,2.13,2.13,0,0,1-1.62-.61,2.27,2.27,0,0,1-.58-1.66,4.78,4.78,0,0,1,.39-1.92,3.34,3.34,0,0,1,1.06-1.38A2.47,2.47,0,0,1,208.59,233Zm1.26,2.15a1.45,1.45,0,0,0-.33-1,1.14,1.14,0,0,0-.91-.39,1.55,1.55,0,0,0-1.05.4,2.52,2.52,0,0,0-.72,1.1,4.62,4.62,0,0,0-.26,1.57,1.63,1.63,0,0,0,.34,1.09,1.24,1.24,0,0,0,1,.39,1.5,1.5,0,0,0,1-.4,2.46,2.46,0,0,0,.69-1.11A4.93,4.93,0,0,0,209.85,235.17Z" transform="translate(-0.45 -4.78)" fill="#231f20"/><path d="M210.64,241.63a1.87,1.87,0,0,1-.68-.12v-.75a1.87,1.87,0,0,0,.61.12.7.7,0,0,0,.62-.34,2.77,2.77,0,0,0,.36-.95l1.22-5.81h-1l.07-.36,1.11-.35.12-.54a3.17,3.17,0,0,1,.69-1.52,1.75,1.75,0,0,1,1.29-.44,2.86,2.86,0,0,1,.53.06,2.18,2.18,0,0,1,.48.14l-.23.69a2.2,2.2,0,0,0-.73-.16.94.94,0,0,0-.72.27,2.07,2.07,0,0,0-.41,1l-.13.58h1.28l-.14.68h-1.27l-1.25,5.9a3.09,3.09,0,0,1-.64,1.48A1.49,1.49,0,0,1,210.64,241.63Zm5.23-2.64H215l1.26-5.89h.9Zm.6-7.4a.69.69,0,0,1,.18-.49.58.58,0,0,1,.44-.19c.32,0,.47.16.47.49a.75.75,0,0,1-.18.5.54.54,0,0,1-.41.2.52.52,0,0,1-.36-.13A.51.51,0,0,1,216.47,231.59Z" transform="translate(-0.45 -4.78)" fill="#231f20"/><path d="M220.06,239.09a2,2,0,0,1-2.19-2.19,4.85,4.85,0,0,1,.4-2,3.39,3.39,0,0,1,1.09-1.41,2.64,2.64,0,0,1,1.58-.51,4,4,0,0,1,1.44.27l-.25.76a3.07,3.07,0,0,0-1.18-.27,1.71,1.71,0,0,0-1.1.41,2.69,2.69,0,0,0-.78,1.14,4.59,4.59,0,0,0-.28,1.6,1.48,1.48,0,0,0,.36,1.06,1.27,1.27,0,0,0,1,.39,2.55,2.55,0,0,0,.74-.11c.22-.07.45-.16.67-.25v.76A3.16,3.16,0,0,1,220.06,239.09Z" transform="translate(-0.45 -4.78)" fill="#231f20"/><path d="M223.4,239h-.9l1.26-5.89h.9Zm.61-7.4a.73.73,0,0,1,.17-.49.62.62,0,0,1,.45-.19c.31,0,.47.16.47.49a.75.75,0,0,1-.18.5.56.56,0,0,1-.42.2.48.48,0,0,1-.35-.13A.51.51,0,0,1,224,231.59Z" transform="translate(-0.45 -4.78)" fill="#231f20"/><path d="M227.51,239.09a2,2,0,0,1-1.55-.58,2.22,2.22,0,0,1-.57-1.62,5,5,0,0,1,.4-1.94,3.57,3.57,0,0,1,1.06-1.44,2.31,2.31,0,0,1,1.46-.52,1.85,1.85,0,0,1,1.24.36,1.26,1.26,0,0,1,.41,1,1.7,1.7,0,0,1-.89,1.52,4.88,4.88,0,0,1-2.55.55h-.18l0,.43a1.66,1.66,0,0,0,.33,1.1,1.26,1.26,0,0,0,1,.39,2.86,2.86,0,0,0,.7-.09,5.69,5.69,0,0,0,.89-.36v.79a4.6,4.6,0,0,1-.9.33A3.7,3.7,0,0,1,227.51,239.09Zm.75-5.33a1.45,1.45,0,0,0-1,.5,3.26,3.26,0,0,0-.75,1.41h.07a4.48,4.48,0,0,0,1.88-.32,1,1,0,0,0,.65-.93.62.62,0,0,0-.2-.47A.83.83,0,0,0,228.26,233.76Z" transform="translate(-0.45 -4.78)" fill="#231f20"/><path d="M234.1,239l.79-3.72a5.2,5.2,0,0,0,.11-.77.77.77,0,0,0-.19-.55.83.83,0,0,0-.61-.2,1.61,1.61,0,0,0-.93.32,2.8,2.8,0,0,0-.8.92,5,5,0,0,0-.53,1.44L231.4,239h-.9l1.26-5.89h.74l-.12,1.09h.06a3.49,3.49,0,0,1,1-.93,2,2,0,0,1,1-.27,1.57,1.57,0,0,1,1.08.37,1.39,1.39,0,0,1,.39,1,4.65,4.65,0,0,1-.12,1L235,239Z" transform="translate(-0.45 -4.78)" fill="#231f20"/><path d="M238.54,238.36a3.07,3.07,0,0,0,.78-.14v.69a3.27,3.27,0,0,1-.46.13,1.89,1.89,0,0,1-.43.05,1.44,1.44,0,0,1-1-.32,1.2,1.2,0,0,1-.36-1,3.64,3.64,0,0,1,.1-.81l.68-3.23h-.93l.08-.39,1-.42.67-1.22h.53l-.29,1.35h1.47l-.14.68h-1.47l-.69,3.24a3.54,3.54,0,0,0-.1.71.64.64,0,0,0,.16.47A.6.6,0,0,0,238.54,238.36Z" transform="translate(-0.45 -4.78)" fill="#231f20"/><path d="M244.46,239h-.89v-8.36h.89Z" transform="translate(-0.45 -4.78)" fill="#231f20"/><path d="M248.73,239.09a2.7,2.7,0,0,1-2.06-.79,3.1,3.1,0,0,1-.76-2.21,3.4,3.4,0,0,1,.71-2.26,2.31,2.31,0,0,1,1.88-.84,2.2,2.2,0,0,1,1.75.73,2.77,2.77,0,0,1,.64,1.92v.56h-4a2.37,2.37,0,0,0,.52,1.58,1.84,1.84,0,0,0,1.4.53,4.84,4.84,0,0,0,1.88-.39v.79a3.84,3.84,0,0,1-.89.29A5,5,0,0,1,248.73,239.09Zm-.24-5.35a1.43,1.43,0,0,0-1.13.46,2.13,2.13,0,0,0-.5,1.28h3.08a2,2,0,0,0-.38-1.29A1.32,1.32,0,0,0,248.49,233.74Z" transform="translate(-0.45 -4.78)" fill="#231f20"/><path d="M253.59,239l-2.23-5.89h.95l1.27,3.49a16.67,16.67,0,0,1,.51,1.59h0a12,12,0,0,1,.37-1.18q.31-.9,1.41-3.9h1L254.63,239Z" transform="translate(-0.45 -4.78)" fill="#231f20"/><path d="M260.19,239.09a2.7,2.7,0,0,1-2.06-.79,3.1,3.1,0,0,1-.75-2.21,3.4,3.4,0,0,1,.7-2.26A2.32,2.32,0,0,1,260,233a2.2,2.2,0,0,1,1.75.73,2.77,2.77,0,0,1,.65,1.92v.56H258.3a2.37,2.37,0,0,0,.52,1.58,1.85,1.85,0,0,0,1.4.53,4.8,4.8,0,0,0,1.88-.39v.79a3.84,3.84,0,0,1-.89.29A5,5,0,0,1,260.19,239.09Zm-.24-5.35a1.45,1.45,0,0,0-1.13.46,2.13,2.13,0,0,0-.5,1.28h3.08a2,2,0,0,0-.38-1.29A1.31,1.31,0,0,0,260,233.74Z" transform="translate(-0.45 -4.78)" fill="#231f20"/><path d="M264.66,239h-.89v-8.36h.89Z" transform="translate(-0.45 -4.78)" fill="#231f20"/><path d="M266.31,238.42a.8.8,0,0,1,.16-.55.61.61,0,0,1,.47-.18.66.66,0,0,1,.49.18.76.76,0,0,1,.17.55.77.77,0,0,1-.17.53.63.63,0,0,1-.49.19.64.64,0,0,1-.45-.17A.73.73,0,0,1,266.31,238.42Z" transform="translate(-0.45 -4.78)" fill="#231f20"/><path d="M289,90.73a6.49,6.49,0,0,1,4,1.12,3.57,3.57,0,0,1,1.5,3,4,4,0,0,1-.72,2.34A6.29,6.29,0,0,1,291.42,99a8.32,8.32,0,0,1,2.76,2.15,4,4,0,0,1,.84,2.46,4.1,4.1,0,0,1-1.65,3.39,6.92,6.92,0,0,1-4.35,1.28,7.3,7.3,0,0,1-4.42-1.19,4,4,0,0,1-1.6-3.39,4.48,4.48,0,0,1,.78-2.6,6.46,6.46,0,0,1,2.5-2,6.25,6.25,0,0,1-2.11-2,4.33,4.33,0,0,1-.65-2.31,3.54,3.54,0,0,1,1.53-3A6.45,6.45,0,0,1,289,90.73Zm-2.67,12.8a1.9,1.9,0,0,0,.7,1.57,3.69,3.69,0,0,0,3.94,0,2,2,0,0,0,.67-1.53,2.08,2.08,0,0,0-.67-1.47,8.37,8.37,0,0,0-2.15-1.46Q286.35,101.78,286.35,103.53ZM289,93.38a2.3,2.3,0,0,0-1.5.47,1.58,1.58,0,0,0-.57,1.28,2,2,0,0,0,.45,1.26A5.09,5.09,0,0,0,289,97.53a4.69,4.69,0,0,0,1.61-1.1,2,2,0,0,0,.45-1.3,1.55,1.55,0,0,0-.58-1.28A2.34,2.34,0,0,0,289,93.38Z" transform="translate(-0.45 -4.78)" fill="#231f20"/><path d="M300.64,101.07a4.32,4.32,0,0,1-.53,2.36,1.82,1.82,0,0,1-3,0,5.5,5.5,0,0,1,0-4.67,1.67,1.67,0,0,1,1.51-.79,1.71,1.71,0,0,1,1.52.81A4.2,4.2,0,0,1,300.64,101.07Zm-3.13,0a4.6,4.6,0,0,0,.25,1.75.86.86,0,0,0,.82.58c.75,0,1.12-.78,1.12-2.33s-.37-2.31-1.12-2.31a.85.85,0,0,0-.82.58A4.48,4.48,0,0,0,297.51,101.07Zm7.39-3-5.55,10h-1l5.54-10Zm1.76,7a4.4,4.4,0,0,1-.52,2.35,1.72,1.72,0,0,1-1.54.79,1.67,1.67,0,0,1-1.49-.81,4.3,4.3,0,0,1-.52-2.33,4.35,4.35,0,0,1,.5-2.34,1.84,1.84,0,0,1,3,0A4.06,4.06,0,0,1,306.66,105.08Zm-3.14,0a4.56,4.56,0,0,0,.26,1.75.84.84,0,0,0,.82.57.9.9,0,0,0,.85-.57,4.28,4.28,0,0,0,.27-1.75,4.18,4.18,0,0,0-.27-1.73.9.9,0,0,0-.85-.57.84.84,0,0,0-.82.57A4.38,4.38,0,0,0,303.52,105.08Z" transform="translate(-0.45 -4.78)" fill="#231f20"/><path d="M286.72,119.09l-.18-.84h0a2.53,2.53,0,0,1-.88.75,2.7,2.7,0,0,1-1.09.19,2,2,0,0,1-1.38-.45,1.64,1.64,0,0,1-.49-1.28c0-1.19.95-1.81,2.85-1.87l1,0v-.37a1.48,1.48,0,0,0-.3-1,1.23,1.23,0,0,0-.95-.33,3.92,3.92,0,0,0-1.67.45l-.27-.68a4.36,4.36,0,0,1,2-.51,2.26,2.26,0,0,1,1.56.47,1.94,1.94,0,0,1,.51,1.5v4Zm-2-.63A1.79,1.79,0,0,0,286,118a1.67,1.67,0,0,0,.48-1.28v-.53l-.89,0a3.17,3.17,0,0,0-1.54.33,1,1,0,0,0-.47.91,1,1,0,0,0,.29.74A1.27,1.27,0,0,0,284.7,118.46Z" transform="translate(-0.45 -4.78)" fill="#231f20"/><path d="M291.12,118.46a2.22,2.22,0,0,0,.45,0,1.77,1.77,0,0,0,.35-.07V119a1.43,1.43,0,0,1-.42.12,3.25,3.25,0,0,1-.51,0c-1.14,0-1.71-.6-1.71-1.79v-3.51h-.84v-.43l.84-.37.38-1.25h.51v1.36h1.71v.69h-1.71v3.47a1.22,1.22,0,0,0,.25.81A.89.89,0,0,0,291.12,118.46Z" transform="translate(-0.45 -4.78)" fill="#231f20"/><path d="M301.13,119.09h-1l-2.47-6.57h0c-.11.79-.24,1.54-.39,2.24l-.93,4.33h-.87l1.66-7.86h1l2.46,6.56h0a21.72,21.72,0,0,1,.38-2.18l.94-4.38h.88Z" transform="translate(-0.45 -4.78)" fill="#231f20"/><path d="M307.1,116.59h-2.66l-1.32,2.5h-1l4.29-7.86h.93l1,7.86h-.91Zm-.1-.84-.18-1.6a17.89,17.89,0,0,1-.16-1.88c-.13.31-.28.62-.43.94s-.6,1.16-1.34,2.54Z" transform="translate(-0.45 -4.78)" fill="#231f20"/><path d="M313.25,119.09H309.3l1.66-7.86h4l-.17.83h-3l-.53,2.52H314l-.15.81H311l-.62,2.88h3Z" transform="translate(-0.45 -4.78)" fill="#231f20"/><path d="M320.69,113.26a2.42,2.42,0,0,1-.88,2,4.07,4.07,0,0,1-2.58.71h-.73l-.66,3.09h-.91l1.66-7.86h1.77a2.62,2.62,0,0,1,1.74.51A1.92,1.92,0,0,1,320.69,113.26Zm-4,1.95h.71a2.78,2.78,0,0,0,1.76-.48,1.76,1.76,0,0,0,.6-1.44,1.16,1.16,0,0,0-.37-1,1.82,1.82,0,0,0-1.15-.3h-.87Z" transform="translate(-0.45 -4.78)" fill="#231f20"/><path d="M286.52,127.59h-2.66l-1.32,2.5h-1l4.3-7.86h.93l1,7.86h-.91Zm-.1-.84-.19-1.6c-.08-.65-.13-1.27-.15-1.88-.13.31-.28.62-.43.94l-1.34,2.54Z" transform="translate(-0.45 -4.78)" fill="#231f20"/><path d="M291.69,124.1a1.56,1.56,0,0,1,1.51,1h.05a14.87,14.87,0,0,1,.25-1.47l.42-1.92h.89L293,130.09h-.74l.12-1.13h-.05a4.18,4.18,0,0,1-1,1,2,2,0,0,1-1,.27,1.41,1.41,0,0,1-1.17-.52,2.35,2.35,0,0,1-.41-1.46,5.54,5.54,0,0,1,.38-2.11,3.54,3.54,0,0,1,1.05-1.48A2.36,2.36,0,0,1,291.69,124.1Zm-1,5.35a1.56,1.56,0,0,0,1-.5,3.46,3.46,0,0,0,.85-1.29,4.22,4.22,0,0,0,.32-1.59,1.31,1.31,0,0,0-.29-.91,1.09,1.09,0,0,0-.84-.31,1.45,1.45,0,0,0-1,.44,3.15,3.15,0,0,0-.75,1.25,5,5,0,0,0-.28,1.69C289.71,129,290,129.45,290.67,129.45Z" transform="translate(-0.45 -4.78)" fill="#231f20"/><path d="M295.81,130.09l-.68-5.89H296l.34,3.29c.09.93.13,1.57.13,2h0c.46-1,.78-1.65,1-2l1.75-3.24h.95L297,130.09Z" transform="translate(-0.45 -4.78)" fill="#231f20"/><path d="M303.12,124.09a1.5,1.5,0,0,1,.88.27,1.7,1.7,0,0,1,.6.76h.06l.36-.92h.68l-1.25,5.89h-.71l.14-1.13h0a2.67,2.67,0,0,1-2,1.23,1.39,1.39,0,0,1-1.17-.53,2.27,2.27,0,0,1-.42-1.45,5.46,5.46,0,0,1,.38-2.08,3.53,3.53,0,0,1,1-1.49A2.26,2.26,0,0,1,303.12,124.09Zm-1,5.36a1.54,1.54,0,0,0,1-.5,3.8,3.8,0,0,0,.84-1.29,4.35,4.35,0,0,0,.32-1.6,1.25,1.25,0,0,0-.3-.88,1,1,0,0,0-.79-.33,1.46,1.46,0,0,0-1,.46,3.27,3.27,0,0,0-.76,1.25,5.13,5.13,0,0,0-.27,1.67,1.37,1.37,0,0,0,.25.91A.86.86,0,0,0,302.1,129.45Z" transform="translate(-0.45 -4.78)" fill="#231f20"/><path d="M309.82,130.09l.79-3.72a4.1,4.1,0,0,0,.11-.77.77.77,0,0,0-.19-.55.83.83,0,0,0-.61-.2,1.61,1.61,0,0,0-.93.32,2.92,2.92,0,0,0-.8.92,4.66,4.66,0,0,0-.52,1.45l-.55,2.55h-.9l1.26-5.89h.74l-.11,1.09h.05a3.51,3.51,0,0,1,1-.93,2,2,0,0,1,1-.27,1.5,1.5,0,0,1,1.08.38,1.35,1.35,0,0,1,.39,1,4.57,4.57,0,0,1-.12,1l-.77,3.61Z" transform="translate(-0.45 -4.78)" fill="#231f20"/><path d="M315,130.19a2.22,2.22,0,0,1-1.62-.57,2.19,2.19,0,0,1-.57-1.62,4.77,4.77,0,0,1,.4-2,3.36,3.36,0,0,1,1.09-1.42,2.64,2.64,0,0,1,1.58-.51,3.8,3.8,0,0,1,1.44.28l-.25.75a3.07,3.07,0,0,0-1.18-.27,1.71,1.71,0,0,0-1.1.41,2.79,2.79,0,0,0-.78,1.15,4.5,4.5,0,0,0-.28,1.59,1.51,1.51,0,0,0,.36,1.07,1.3,1.3,0,0,0,1,.38,2.55,2.55,0,0,0,.74-.11c.22-.07.45-.16.67-.25v.77A3.28,3.28,0,0,1,315,130.19Z" transform="translate(-0.45 -4.78)" fill="#231f20"/><path d="M319.85,130.19a2.07,2.07,0,0,1-1.56-.58,2.26,2.26,0,0,1-.56-1.62,4.78,4.78,0,0,1,.4-1.94,3.57,3.57,0,0,1,1.06-1.44,2.29,2.29,0,0,1,1.46-.52,1.82,1.82,0,0,1,1.23.36,1.24,1.24,0,0,1,.42,1,1.69,1.69,0,0,1-.9,1.51,4.83,4.83,0,0,1-2.55.55h-.17l0,.43A1.72,1.72,0,0,0,319,129a1.27,1.27,0,0,0,1,.4,2.4,2.4,0,0,0,.69-.1,4.86,4.86,0,0,0,.89-.35v.78a4.31,4.31,0,0,1-.89.33A3.76,3.76,0,0,1,319.85,130.19Zm.74-5.33a1.46,1.46,0,0,0-1,.51,3.26,3.26,0,0,0-.74,1.4h.06a4.42,4.42,0,0,0,1.88-.32,1,1,0,0,0,.65-.93.61.61,0,0,0-.19-.47A.85.85,0,0,0,320.59,124.86Z" transform="translate(-0.45 -4.78)" fill="#231f20"/><path d="M326.06,124.1a1.56,1.56,0,0,1,1.51,1h.05c.06-.55.15-1,.24-1.47l.42-1.92h.9l-1.78,8.36h-.74l.12-1.13h0a4.18,4.18,0,0,1-1,1,2,2,0,0,1-1,.27,1.41,1.41,0,0,1-1.17-.52,2.29,2.29,0,0,1-.42-1.46,5.54,5.54,0,0,1,.39-2.11,3.54,3.54,0,0,1,1-1.48A2.36,2.36,0,0,1,326.06,124.1Zm-1,5.35a1.58,1.58,0,0,0,1-.5,3.59,3.59,0,0,0,.85-1.29,4.22,4.22,0,0,0,.32-1.59,1.31,1.31,0,0,0-.29-.91,1.11,1.11,0,0,0-.85-.31,1.44,1.44,0,0,0-1,.44,3.15,3.15,0,0,0-.75,1.25,5,5,0,0,0-.28,1.69C324.08,129,324.4,129.45,325,129.45Z" transform="translate(-0.45 -4.78)" fill="#231f20"/><line x1="308.28" y1="171.74" x2="308.28" y2="133.08" fill="none" stroke="#231f20" stroke-miterlimit="10"/><circle cx="308.15" cy="133.08" r="2.72" fill="#fff" stroke="#231f20" stroke-miterlimit="10"/><rect x="294.8" y="148.94" width="25.9" height="32.8" fill="#dbe2e9"/><path d="M231.55,94.65a4,4,0,0,1-1,2.73,5,5,0,0,1-2.73,1.54V99a5.57,5.57,0,0,1,3.14,1.26,3.55,3.55,0,0,1,1.07,2.71,4.57,4.57,0,0,1-1.79,3.84,8.29,8.29,0,0,1-5.13,1.38,12.58,12.58,0,0,1-4.94-.92v-3.09a10.69,10.69,0,0,0,2.19.82,8.89,8.89,0,0,0,2.37.32,4.59,4.59,0,0,0,2.65-.61,2.24,2.24,0,0,0,.85-2,1.78,1.78,0,0,0-1-1.71,7.42,7.42,0,0,0-3.14-.5h-1.3V97.75h1.32a6.11,6.11,0,0,0,2.91-.52,1.87,1.87,0,0,0,.92-1.79c0-1.29-.81-1.94-2.44-1.94a5.46,5.46,0,0,0-1.71.28,8.53,8.53,0,0,0-1.94,1l-1.68-2.49a9.3,9.3,0,0,1,5.59-1.69,7.17,7.17,0,0,1,4.2,1.08A3.45,3.45,0,0,1,231.55,94.65Z" transform="translate(-0.45 -4.78)" fill="#231f20"/><path d="M245.25,94.65a4,4,0,0,1-1,2.73,5,5,0,0,1-2.73,1.54V99a5.57,5.57,0,0,1,3.14,1.26,3.55,3.55,0,0,1,1.07,2.71,4.55,4.55,0,0,1-1.8,3.84,8.23,8.23,0,0,1-5.12,1.38,12.54,12.54,0,0,1-4.94-.92v-3.09a10.69,10.69,0,0,0,2.19.82,8.89,8.89,0,0,0,2.37.32,4.59,4.59,0,0,0,2.65-.61,2.24,2.24,0,0,0,.85-2,1.78,1.78,0,0,0-1-1.71,7.42,7.42,0,0,0-3.14-.5h-1.3V97.75h1.32a6.11,6.11,0,0,0,2.91-.52,1.89,1.89,0,0,0,.92-1.79c0-1.29-.81-1.94-2.44-1.94a5.46,5.46,0,0,0-1.71.28,8.53,8.53,0,0,0-1.94,1l-1.68-2.49a9.28,9.28,0,0,1,5.59-1.69,7.2,7.2,0,0,1,4.2,1.08A3.45,3.45,0,0,1,245.25,94.65Z" transform="translate(-0.45 -4.78)" fill="#231f20"/><path d="M251.47,100.93a4.32,4.32,0,0,1-.53,2.36,1.82,1.82,0,0,1-3,0,5.5,5.5,0,0,1,0-4.67,1.68,1.68,0,0,1,1.51-.79,1.73,1.73,0,0,1,1.53.81A4.29,4.29,0,0,1,251.47,100.93Zm-3.13,0a4.6,4.6,0,0,0,.25,1.75.86.86,0,0,0,.82.58c.75,0,1.12-.78,1.12-2.33s-.37-2.31-1.12-2.31a.85.85,0,0,0-.82.58A4.48,4.48,0,0,0,248.34,100.93Zm7.39-3-5.55,10h-1l5.54-10Zm1.76,7a4.31,4.31,0,0,1-.52,2.35,1.72,1.72,0,0,1-1.54.79,1.68,1.68,0,0,1-1.49-.81,4.3,4.3,0,0,1-.52-2.33,4.37,4.37,0,0,1,.51-2.34,1.68,1.68,0,0,1,1.5-.78,1.72,1.72,0,0,1,1.52.8A4.14,4.14,0,0,1,257.49,104.94Zm-3.14,0a4.56,4.56,0,0,0,.26,1.75.85.85,0,0,0,.82.57.89.89,0,0,0,.85-.57,4.28,4.28,0,0,0,.27-1.75,4.18,4.18,0,0,0-.27-1.73.89.89,0,0,0-.85-.57.85.85,0,0,0-.82.57A4.38,4.38,0,0,0,254.35,104.94Z" transform="translate(-0.45 -4.78)" fill="#231f20"/><path d="M223.85,119l-.18-.84h0a2.45,2.45,0,0,1-.88.75,2.66,2.66,0,0,1-1.09.19,2,2,0,0,1-1.37-.45,1.63,1.63,0,0,1-.5-1.28c0-1.19,1-1.81,2.85-1.87l1,0v-.37a1.48,1.48,0,0,0-.3-1,1.22,1.22,0,0,0-1-.33,3.92,3.92,0,0,0-1.67.45l-.27-.68a4.36,4.36,0,0,1,2-.51,2.22,2.22,0,0,1,1.56.47,1.94,1.94,0,0,1,.51,1.5v4Zm-2-.63a1.77,1.77,0,0,0,1.3-.46,1.67,1.67,0,0,0,.48-1.28v-.53l-.89,0a3.29,3.29,0,0,0-1.54.33,1,1,0,0,0-.47.91.92.92,0,0,0,.3.74A1.25,1.25,0,0,0,221.84,118.32Z" transform="translate(-0.45 -4.78)" fill="#231f20"/><path d="M228.25,118.32a2.32,2.32,0,0,0,.46,0,2.15,2.15,0,0,0,.35-.07v.68a1.51,1.51,0,0,1-.43.12,3.25,3.25,0,0,1-.51,0c-1.14,0-1.71-.59-1.71-1.79v-3.51h-.84v-.43l.84-.37.38-1.25h.51v1.36H229v.69H227.3v3.47a1.18,1.18,0,0,0,.26.81A.88.88,0,0,0,228.25,118.32Z" transform="translate(-0.45 -4.78)" fill="#231f20"/><path d="M238.26,119h-1l-2.47-6.57h0c-.12.79-.25,1.54-.4,2.24l-.93,4.33h-.87l1.66-7.86h1l2.47,6.56h0c.11-.8.24-1.53.39-2.18l.93-4.38h.88Z" transform="translate(-0.45 -4.78)" fill="#231f20"/><path d="M244.23,116.45h-2.66l-1.32,2.5h-1l4.29-7.86h.93l1,7.86h-.91Zm-.09-.84L244,114a17.67,17.67,0,0,1-.16-1.88c-.13.31-.27.62-.43.94s-.6,1.16-1.34,2.54Z" transform="translate(-0.45 -4.78)" fill="#231f20"/><path d="M250.38,119h-3.94l1.66-7.86H252l-.17.83h-3l-.52,2.52h2.83l-.16.81h-2.84l-.61,2.88h3Z" transform="translate(-0.45 -4.78)" fill="#231f20"/><path d="M257.82,113.12a2.45,2.45,0,0,1-.88,2,4.13,4.13,0,0,1-2.58.7h-.73L253,119h-.91l1.66-7.86h1.77a2.58,2.58,0,0,1,1.74.51A1.88,1.88,0,0,1,257.82,113.12Zm-4,1.95h.71a2.81,2.81,0,0,0,1.77-.48,1.76,1.76,0,0,0,.6-1.44,1.17,1.17,0,0,0-.38-1,1.81,1.81,0,0,0-1.14-.3h-.88Z" transform="translate(-0.45 -4.78)" fill="#231f20"/><path d="M225.51,124.12a2.45,2.45,0,0,1-.88,2,4.13,4.13,0,0,1-2.58.7h-.73l-.66,3.09h-.91l1.66-7.86h1.77a2.58,2.58,0,0,1,1.74.51A1.92,1.92,0,0,1,225.51,124.12Zm-4,1.95h.71a2.76,2.76,0,0,0,1.76-.48,1.77,1.77,0,0,0,.61-1.44,1.17,1.17,0,0,0-.38-1,1.81,1.81,0,0,0-1.14-.3h-.88Z" transform="translate(-0.45 -4.78)" fill="#231f20"/><path d="M229.55,124a2.38,2.38,0,0,1,.64.08l-.19.8a2.77,2.77,0,0,0-.56-.07,1.48,1.48,0,0,0-.92.33,2.92,2.92,0,0,0-.75.89,4.69,4.69,0,0,0-.47,1.27l-.57,2.7h-.9l1.25-5.89h.75l-.12,1.09h.06a4.73,4.73,0,0,1,.64-.73,1.9,1.9,0,0,1,.52-.35A1.56,1.56,0,0,1,229.55,124Z" transform="translate(-0.45 -4.78)" fill="#231f20"/><path d="M233.32,124a2.15,2.15,0,0,1,1.61.6,2.25,2.25,0,0,1,.59,1.66,4.93,4.93,0,0,1-.38,1.91,3.26,3.26,0,0,1-1,1.38,2.43,2.43,0,0,1-1.5.49,2.15,2.15,0,0,1-1.61-.6,2.31,2.31,0,0,1-.59-1.66,4.78,4.78,0,0,1,.39-1.92,3.35,3.35,0,0,1,1.06-1.38A2.49,2.49,0,0,1,233.32,124Zm1.27,2.14a1.43,1.43,0,0,0-.34-1,1.14,1.14,0,0,0-.91-.39,1.6,1.6,0,0,0-1.05.4,2.58,2.58,0,0,0-.72,1.1,4.62,4.62,0,0,0-.25,1.57,1.57,1.57,0,0,0,.34,1.09,1.22,1.22,0,0,0,1,.39,1.45,1.45,0,0,0,1-.4,2.56,2.56,0,0,0,.7-1.11A5.2,5.2,0,0,0,234.59,126.13Z" transform="translate(-0.45 -4.78)" fill="#231f20"/><path d="M235.48,132.59a2,2,0,0,1-.67-.11v-.76a1.87,1.87,0,0,0,.6.12.71.71,0,0,0,.63-.34,2.92,2.92,0,0,0,.35-.95l1.22-5.81h-1l.07-.36,1.11-.35.12-.54a3.32,3.32,0,0,1,.69-1.52,1.76,1.76,0,0,1,1.3-.44,2.76,2.76,0,0,1,.52.06,2.49,2.49,0,0,1,.49.14l-.23.69a2.21,2.21,0,0,0-.74-.15.94.94,0,0,0-.72.26,2.08,2.08,0,0,0-.4,1l-.14.58h1.28l-.13.68h-1.28l-1.24,5.9a3,3,0,0,1-.65,1.48A1.49,1.49,0,0,1,235.48,132.59Zm5.23-2.64h-.9l1.26-5.89h.9Zm.61-7.39a.67.67,0,0,1,.17-.49.55.55,0,0,1,.45-.19.42.42,0,0,1,.47.48.75.75,0,0,1-.18.5.56.56,0,0,1-.42.2.48.48,0,0,1-.35-.13A.46.46,0,0,1,241.32,122.56Z" transform="translate(-0.45 -4.78)" fill="#231f20"/><path d="M245,130.05a2.18,2.18,0,0,1-1.61-.57,2.16,2.16,0,0,1-.58-1.62,4.77,4.77,0,0,1,.4-2,3.3,3.3,0,0,1,1.1-1.42,2.59,2.59,0,0,1,1.57-.51,3.8,3.8,0,0,1,1.44.28l-.25.75a3.07,3.07,0,0,0-1.18-.27,1.68,1.68,0,0,0-1.09.41,2.61,2.61,0,0,0-.78,1.15,4.32,4.32,0,0,0-.29,1.59,1.51,1.51,0,0,0,.36,1.07,1.31,1.31,0,0,0,1,.38,2.48,2.48,0,0,0,.73-.11c.23-.07.45-.16.67-.25v.77A3.25,3.25,0,0,1,245,130.05Z" transform="translate(-0.45 -4.78)" fill="#231f20"/><path d="M248.47,130h-.91l1.26-5.89h.9Zm.6-7.39a.67.67,0,0,1,.18-.49.55.55,0,0,1,.44-.19.42.42,0,0,1,.47.48.75.75,0,0,1-.18.5.54.54,0,0,1-.41.2.47.47,0,0,1-.5-.5Z" transform="translate(-0.45 -4.78)" fill="#231f20"/><path d="M252.68,130.05a2.05,2.05,0,0,1-1.55-.58,2.26,2.26,0,0,1-.56-1.62,4.78,4.78,0,0,1,.4-1.94,3.48,3.48,0,0,1,1.06-1.44,2.32,2.32,0,0,1,1.45-.52,1.85,1.85,0,0,1,1.24.36,1.27,1.27,0,0,1,.41,1,1.68,1.68,0,0,1-.89,1.51,4.82,4.82,0,0,1-2.55.56h-.18l0,.42a1.66,1.66,0,0,0,.33,1.1,1.24,1.24,0,0,0,1,.4,2.47,2.47,0,0,0,.7-.1,5.15,5.15,0,0,0,.89-.35v.78a4.78,4.78,0,0,1-.89.33A3.85,3.85,0,0,1,252.68,130.05Zm.75-5.33a1.42,1.42,0,0,0-1,.51,3.26,3.26,0,0,0-.74,1.4h.06a4.45,4.45,0,0,0,1.88-.32,1,1,0,0,0,.65-.93.59.59,0,0,0-.2-.47A.83.83,0,0,0,253.43,124.72Z" transform="translate(-0.45 -4.78)" fill="#231f20"/><path d="M259.38,130l.8-3.72a4.79,4.79,0,0,0,.1-.77.77.77,0,0,0-.19-.55.83.83,0,0,0-.61-.2,1.61,1.61,0,0,0-.93.32,2.92,2.92,0,0,0-.8.92,4.66,4.66,0,0,0-.52,1.45l-.55,2.55h-.9l1.26-5.89h.74l-.11,1.09h.05a3.66,3.66,0,0,1,1-.93,2,2,0,0,1,1-.27,1.5,1.5,0,0,1,1.08.38,1.37,1.37,0,0,1,.4,1,4.64,4.64,0,0,1-.13,1l-.77,3.61Z" transform="translate(-0.45 -4.78)" fill="#231f20"/><path d="M263.94,129.32a3.08,3.08,0,0,0,.77-.14v.69a2.77,2.77,0,0,1-.45.13,2,2,0,0,1-.43.05,1.51,1.51,0,0,1-1-.31,1.24,1.24,0,0,1-.36-1,3.49,3.49,0,0,1,.1-.8l.68-3.24h-.92l.07-.39,1-.42.67-1.22h.52l-.29,1.35h1.47l-.14.68h-1.47l-.69,3.25a4.09,4.09,0,0,0-.09.71.65.65,0,0,0,.15.46A.57.57,0,0,0,263.94,129.32Z" transform="translate(-0.45 -4.78)" fill="#231f20"/><line x1="242.32" y1="171.67" x2="242.32" y2="133.01" fill="none" stroke="#231f20" stroke-miterlimit="10"/><circle cx="242.18" cy="133.01" r="2.72" fill="#fff" stroke="#231f20" stroke-miterlimit="10"/><rect x="188.13" y="148.87" width="106.93" height="32.8" fill="#bbc6d6"/><line x1="134.65" y1="171.54" x2="134.65" y2="132.88" fill="none" stroke="#231f20" stroke-miterlimit="10"/><circle cx="134.51" cy="132.88" r="2.72" fill="#fff" stroke="#231f20" stroke-miterlimit="10"/><path d="M127.81,94.76a4,4,0,0,1-1,2.73A5.11,5.11,0,0,1,124.11,99v.07a5.43,5.43,0,0,1,3.14,1.26,3.51,3.51,0,0,1,1.07,2.7,4.58,4.58,0,0,1-1.8,3.85,8.3,8.3,0,0,1-5.12,1.37,12.54,12.54,0,0,1-4.94-.92v-3.08a12,12,0,0,0,2.19.82,9.3,9.3,0,0,0,2.37.31,4.61,4.61,0,0,0,2.65-.61,2.22,2.22,0,0,0,.85-2,1.79,1.79,0,0,0-1-1.72,7.42,7.42,0,0,0-3.14-.5h-1.31V97.86h1.33a6.11,6.11,0,0,0,2.91-.52,1.89,1.89,0,0,0,.92-1.79c0-1.29-.81-1.94-2.44-1.94a5.46,5.46,0,0,0-1.71.28,8.33,8.33,0,0,0-1.94,1l-1.68-2.49a9.28,9.28,0,0,1,5.59-1.69,7.2,7.2,0,0,1,4.2,1.08A3.45,3.45,0,0,1,127.81,94.76Z" transform="translate(-0.45 -4.78)" fill="#231f20"/><path d="M141.51,94.76a4,4,0,0,1-1,2.73A5.11,5.11,0,0,1,137.81,99v.07a5.43,5.43,0,0,1,3.14,1.26,3.51,3.51,0,0,1,1.07,2.7,4.58,4.58,0,0,1-1.8,3.85,8.3,8.3,0,0,1-5.12,1.37,12.51,12.51,0,0,1-4.94-.92v-3.08a12,12,0,0,0,2.19.82,9.24,9.24,0,0,0,2.37.31,4.55,4.55,0,0,0,2.64-.61,2.23,2.23,0,0,0,.86-2,1.78,1.78,0,0,0-1-1.72,7.36,7.36,0,0,0-3.14-.5h-1.3V97.86h1.33a6.11,6.11,0,0,0,2.91-.52,1.89,1.89,0,0,0,.92-1.79c0-1.29-.81-1.94-2.44-1.94a5.46,5.46,0,0,0-1.71.28,8.33,8.33,0,0,0-1.94,1l-1.68-2.49a9.28,9.28,0,0,1,5.59-1.69,7.22,7.22,0,0,1,4.2,1.08A3.45,3.45,0,0,1,141.51,94.76Z" transform="translate(-0.45 -4.78)" fill="#231f20"/><path d="M147.73,101a4.32,4.32,0,0,1-.53,2.36,1.81,1.81,0,0,1-3,0,5.5,5.5,0,0,1,0-4.67,1.67,1.67,0,0,1,1.51-.79,1.71,1.71,0,0,1,1.52.81A4.2,4.2,0,0,1,147.73,101Zm-3.13,0a4.6,4.6,0,0,0,.25,1.75.86.86,0,0,0,.82.58c.75,0,1.12-.78,1.12-2.33s-.37-2.31-1.12-2.31a.86.86,0,0,0-.82.58A4.48,4.48,0,0,0,144.6,101Zm7.39-3-5.55,10h-1l5.54-10Zm1.76,7a4.4,4.4,0,0,1-.52,2.35,1.73,1.73,0,0,1-1.54.8,1.68,1.68,0,0,1-1.49-.82,4.3,4.3,0,0,1-.52-2.33,4.47,4.47,0,0,1,.5-2.34,1.69,1.69,0,0,1,1.51-.78,1.73,1.73,0,0,1,1.52.8A4.17,4.17,0,0,1,153.75,105.05Zm-3.14,0a4.8,4.8,0,0,0,.25,1.75.87.87,0,0,0,.83.58.91.91,0,0,0,.85-.58,4.28,4.28,0,0,0,.27-1.75,4.18,4.18,0,0,0-.27-1.73.9.9,0,0,0-.85-.57.86.86,0,0,0-.83.57A4.61,4.61,0,0,0,150.61,105.05Z" transform="translate(-0.45 -4.78)" fill="#231f20"/><path d="M120.11,119.06l-.18-.84h0a2.45,2.45,0,0,1-.88.75,2.65,2.65,0,0,1-1.09.2,1.91,1.91,0,0,1-1.37-.46,1.6,1.6,0,0,1-.5-1.28c0-1.19,1-1.81,2.85-1.87l1,0v-.37a1.48,1.48,0,0,0-.3-1,1.22,1.22,0,0,0-.95-.33,3.92,3.92,0,0,0-1.67.45l-.27-.68a4.2,4.2,0,0,1,2-.5,2.25,2.25,0,0,1,1.56.46,1.94,1.94,0,0,1,.51,1.5v4Zm-2-.63a1.77,1.77,0,0,0,1.3-.46,1.67,1.67,0,0,0,.48-1.27v-.54l-.89,0a3.42,3.42,0,0,0-1.54.33,1,1,0,0,0-.47.91.92.92,0,0,0,.3.74A1.18,1.18,0,0,0,118.1,118.43Z" transform="translate(-0.45 -4.78)" fill="#231f20"/><path d="M124.51,118.43a3.19,3.19,0,0,0,.45,0,2.7,2.7,0,0,0,.35-.08V119a1.43,1.43,0,0,1-.42.12,3.36,3.36,0,0,1-.51,0q-1.71,0-1.71-1.8v-3.5h-.84v-.43l.84-.38.38-1.25h.51v1.36h1.71v.7h-1.71v3.46a1.2,1.2,0,0,0,.26.82A.88.88,0,0,0,124.51,118.43Z" transform="translate(-0.45 -4.78)" fill="#231f20"/><path d="M134.52,119.06h-1l-2.47-6.57h0c-.12.79-.25,1.54-.4,2.24l-.93,4.33h-.87l1.66-7.85h1l2.47,6.55h0c.11-.8.23-1.53.38-2.18l.94-4.37h.88Z" transform="translate(-0.45 -4.78)" fill="#231f20"/><path d="M140.49,116.56h-2.66l-1.32,2.5h-1l4.29-7.85h.93l1,7.85h-.91Zm-.09-.84-.19-1.6a17.67,17.67,0,0,1-.16-1.88c-.13.31-.27.63-.43.94s-.6,1.16-1.34,2.54Z" transform="translate(-0.45 -4.78)" fill="#231f20"/><path d="M146.64,119.06h-3.95l1.66-7.85h4l-.17.82h-3l-.53,2.52h2.84l-.16.81H144.4l-.61,2.88h3Z" transform="translate(-0.45 -4.78)" fill="#231f20"/><path d="M154.08,113.23a2.45,2.45,0,0,1-.88,2,4.07,4.07,0,0,1-2.58.7h-.73l-.66,3.09h-.91l1.66-7.85h1.77a2.64,2.64,0,0,1,1.74.5A1.92,1.92,0,0,1,154.08,113.23Zm-4,2h.71a2.76,2.76,0,0,0,1.76-.49,1.74,1.74,0,0,0,.61-1.44,1.18,1.18,0,0,0-.38-1,1.81,1.81,0,0,0-1.14-.29h-.88Z" transform="translate(-0.45 -4.78)" fill="#231f20"/><path d="M119.68,122.21c1.55,0,2.32.6,2.32,1.8a1.85,1.85,0,0,1-.47,1.28,2.27,2.27,0,0,1-1.31.68v0a1.78,1.78,0,0,1,1,.59,1.66,1.66,0,0,1,.33,1,2.17,2.17,0,0,1-.82,1.78,3.44,3.44,0,0,1-2.19.65H116l1.66-7.85Zm-2.59,7.07h1.42a2.29,2.29,0,0,0,1.5-.43,1.53,1.53,0,0,0,.52-1.22,1.16,1.16,0,0,0-.4-1,1.77,1.77,0,0,0-1.15-.33h-1.27Zm.79-3.71h1.33a2.08,2.08,0,0,0,1.33-.39,1.27,1.27,0,0,0,.5-1.07,1,1,0,0,0-.35-.84,1.9,1.9,0,0,0-1.13-.27h-1.13Z" transform="translate(-0.45 -4.78)" fill="#231f20"/><path d="M125.56,124.06a1.5,1.5,0,0,1,.88.27,1.75,1.75,0,0,1,.6.77h.06l.36-.93h.68l-1.25,5.89h-.72l.14-1.12h0a2.65,2.65,0,0,1-2,1.23,1.43,1.43,0,0,1-1.18-.54,2.27,2.27,0,0,1-.42-1.45,5.56,5.56,0,0,1,.38-2.07,3.68,3.68,0,0,1,1-1.5A2.32,2.32,0,0,1,125.56,124.06Zm-1,5.36a1.52,1.52,0,0,0,1-.5,3.66,3.66,0,0,0,.84-1.29,4.35,4.35,0,0,0,.32-1.6,1.25,1.25,0,0,0-.3-.88,1,1,0,0,0-.79-.33,1.52,1.52,0,0,0-1,.46,3.11,3.11,0,0,0-.75,1.26,5.07,5.07,0,0,0-.28,1.66,1.42,1.42,0,0,0,.26.92A.86.86,0,0,0,124.54,129.42Z" transform="translate(-0.45 -4.78)" fill="#231f20"/><path d="M132.29,128.39a1.58,1.58,0,0,1-.6,1.31,2.63,2.63,0,0,1-1.67.47,3.54,3.54,0,0,1-1.64-.38V129a3.67,3.67,0,0,0,.81.35,3.06,3.06,0,0,0,.81.12,1.63,1.63,0,0,0,1-.27.83.83,0,0,0,.34-.69.72.72,0,0,0-.19-.51,3.69,3.69,0,0,0-.81-.58,3.43,3.43,0,0,1-1-.76,1.47,1.47,0,0,1-.29-.9,1.49,1.49,0,0,1,.55-1.19,2.15,2.15,0,0,1,1.43-.46,4.23,4.23,0,0,1,1.77.4l-.29.74-.3-.14a3.06,3.06,0,0,0-1.18-.23,1.18,1.18,0,0,0-.79.24.72.72,0,0,0-.28.6.76.76,0,0,0,.19.52,3.55,3.55,0,0,0,.78.55,4.51,4.51,0,0,1,.83.55,1.54,1.54,0,0,1,.37.5A1.47,1.47,0,0,1,132.29,128.39Z" transform="translate(-0.45 -4.78)" fill="#231f20"/><path d="M134.27,130.06h-.9l1.25-5.89h.9Zm.6-7.39a.67.67,0,0,1,.18-.49.55.55,0,0,1,.44-.19.42.42,0,0,1,.47.48.73.73,0,0,1-.18.5.53.53,0,0,1-.41.2A.52.52,0,0,1,135,123,.5.5,0,0,1,134.87,122.67Z" transform="translate(-0.45 -4.78)" fill="#231f20"/><path d="M138.56,130.17a2,2,0,0,1-2.19-2.2,4.77,4.77,0,0,1,.4-2,3.36,3.36,0,0,1,1.09-1.42,2.64,2.64,0,0,1,1.58-.51,4,4,0,0,1,1.44.28l-.25.76a2.92,2.92,0,0,0-1.18-.28,1.71,1.71,0,0,0-1.1.41,2.79,2.79,0,0,0-.78,1.15,4.58,4.58,0,0,0-.28,1.59,1.51,1.51,0,0,0,.36,1.07,1.3,1.3,0,0,0,1,.38,2.43,2.43,0,0,0,.73-.11,5.54,5.54,0,0,0,.68-.25v.77A3.29,3.29,0,0,1,138.56,130.17Z" transform="translate(-0.45 -4.78)" fill="#231f20"/><rect x="82.53" y="148.74" width="106.13" height="32.8" fill="#8d9ebc"/><line x1="40.98" y1="171.54" x2="40.98" y2="132.88" fill="none" stroke="#231f20" stroke-miterlimit="10"/><circle cx="40.85" cy="132.88" r="2.72" fill="#fff" stroke="#231f20" stroke-miterlimit="10"/><path d="M27.36,107.84h-12v-2.51l4.3-4.35c1.27-1.31,2.11-2.21,2.5-2.72a5.81,5.81,0,0,0,.84-1.4,3.58,3.58,0,0,0,.26-1.33A2,2,0,0,0,22.71,94a2.23,2.23,0,0,0-1.52-.5,4.28,4.28,0,0,0-1.93.46,9.34,9.34,0,0,0-2,1.3l-2-2.33a13.58,13.58,0,0,1,2.1-1.53,7.6,7.6,0,0,1,1.82-.68,9.27,9.27,0,0,1,2.2-.24,6.55,6.55,0,0,1,2.84.58,4.58,4.58,0,0,1,1.91,1.64,4.41,4.41,0,0,1,.68,2.42,5.85,5.85,0,0,1-.42,2.22,8.55,8.55,0,0,1-1.29,2.12,31.18,31.18,0,0,1-3.07,3.11l-2.21,2.07v.17h7.47Z" transform="translate(-0.45 -4.78)" fill="#231f20"/><path d="M29,100.57c0-3.39.72-5.92,2.15-7.57s3.58-2.49,6.44-2.49a11.46,11.46,0,0,1,2.3.18v2.89a9.78,9.78,0,0,0-2.06-.23,7.11,7.11,0,0,0-3,.56A3.78,3.78,0,0,0,33,95.58a7.59,7.59,0,0,0-.69,3.12h.15a4,4,0,0,1,3.72-2,4.58,4.58,0,0,1,3.59,1.44,5.73,5.73,0,0,1,1.31,4,6,6,0,0,1-1.55,4.34,5.67,5.67,0,0,1-4.29,1.6,6.09,6.09,0,0,1-3.31-.88,5.71,5.71,0,0,1-2.18-2.57A9.77,9.77,0,0,1,29,100.57Zm6.19,4.61a2.16,2.16,0,0,0,1.78-.77,3.52,3.52,0,0,0,.62-2.23,3,3,0,0,0-.58-2,2.1,2.1,0,0,0-1.75-.72,2.72,2.72,0,0,0-1.88.71,2.22,2.22,0,0,0-.78,1.67,3.74,3.74,0,0,0,.73,2.35A2.25,2.25,0,0,0,35.15,105.18Z" transform="translate(-0.45 -4.78)" fill="#231f20"/><path d="M46.6,100.83a4.32,4.32,0,0,1-.52,2.36,1.72,1.72,0,0,1-1.53.79,1.68,1.68,0,0,1-1.49-.81,4.31,4.31,0,0,1-.53-2.34A4.37,4.37,0,0,1,43,98.49a1.68,1.68,0,0,1,1.51-.78,1.72,1.72,0,0,1,1.52.81A4.24,4.24,0,0,1,46.6,100.83Zm-3.13,0a4.71,4.71,0,0,0,.25,1.74.87.87,0,0,0,.83.59c.74,0,1.12-.78,1.12-2.33s-.38-2.31-1.12-2.31a.86.86,0,0,0-.83.57A4.78,4.78,0,0,0,43.47,100.83Zm7.39-3-5.54,10h-1l5.55-10Zm1.77,7a4.26,4.26,0,0,1-.53,2.34,1.7,1.7,0,0,1-1.53.8,1.68,1.68,0,0,1-1.5-.81,4.4,4.4,0,0,1-.52-2.33,4.32,4.32,0,0,1,.51-2.34,1.67,1.67,0,0,1,1.51-.79,1.72,1.72,0,0,1,1.51.81A4.14,4.14,0,0,1,52.63,104.84Zm-3.14,0a4.5,4.5,0,0,0,.25,1.74.85.85,0,0,0,.83.58.91.91,0,0,0,.85-.57,5.77,5.77,0,0,0,0-3.49.91.91,0,0,0-.85-.56.86.86,0,0,0-.83.56A4.5,4.5,0,0,0,49.49,104.84Z" transform="translate(-0.45 -4.78)" fill="#231f20"/><path d="M18.1,112.86a2.22,2.22,0,0,1,1.81.79,4.25,4.25,0,0,1,0,4.5,2.19,2.19,0,0,1-1.8.8,2.59,2.59,0,0,1-1.05-.21,2,2,0,0,1-.79-.65h-.07l-.19.75h-.64v-8.35h.9v2c0,.45,0,.86-.05,1.22h.05A2.12,2.12,0,0,1,18.1,112.86Zm-.12.75a1.56,1.56,0,0,0-1.32.52,3,3,0,0,0-.4,1.77,2.92,2.92,0,0,0,.41,1.77,1.58,1.58,0,0,0,1.33.54,1.38,1.38,0,0,0,1.22-.6,3.08,3.08,0,0,0,.4-1.72,3,3,0,0,0-.4-1.72A1.43,1.43,0,0,0,18,113.61Z" transform="translate(-0.45 -4.78)" fill="#231f20"/><path d="M24.59,119a2.71,2.71,0,0,1-2.06-.79,3.1,3.1,0,0,1-.75-2.21,3.4,3.4,0,0,1,.7-2.26,2.32,2.32,0,0,1,1.88-.84,2.2,2.2,0,0,1,1.75.73,2.77,2.77,0,0,1,.65,1.92v.56H22.7a2.32,2.32,0,0,0,.53,1.58,1.82,1.82,0,0,0,1.39.53,4.8,4.8,0,0,0,1.88-.39v.79a4.38,4.38,0,0,1-.89.29A5,5,0,0,1,24.59,119Zm-.24-5.35a1.45,1.45,0,0,0-1.13.46,2.13,2.13,0,0,0-.5,1.28H25.8a1.89,1.89,0,0,0-.38-1.29A1.31,1.31,0,0,0,24.35,113.6Z" transform="translate(-0.45 -4.78)" fill="#231f20"/><path d="M29.17,118.84h-.89v-8.35h.89Z" transform="translate(-0.45 -4.78)" fill="#231f20"/><path d="M36.14,115.9a3.24,3.24,0,0,1-.72,2.24,2.58,2.58,0,0,1-2,.81,2.64,2.64,0,0,1-1.4-.37,2.51,2.51,0,0,1-.95-1.06,3.72,3.72,0,0,1-.33-1.62,3.27,3.27,0,0,1,.72-2.25,2.57,2.57,0,0,1,2-.8,2.47,2.47,0,0,1,2,.82A3.22,3.22,0,0,1,36.14,115.9Zm-4.48,0a2.77,2.77,0,0,0,.45,1.71,1.55,1.55,0,0,0,1.32.6,1.57,1.57,0,0,0,1.33-.59,2.73,2.73,0,0,0,.46-1.72,2.7,2.7,0,0,0-.46-1.71,1.83,1.83,0,0,0-2.66,0A2.78,2.78,0,0,0,31.66,115.9Z" transform="translate(-0.45 -4.78)" fill="#231f20"/><path d="M42.51,118.84l-1.08-3.45c-.07-.21-.19-.69-.38-1.44h0c-.15.63-.27,1.11-.38,1.45l-1.11,3.44h-1L36.88,113h.94c.38,1.48.66,2.6.86,3.38A11.51,11.51,0,0,1,39,117.9h0c0-.2.1-.47.19-.79s.16-.58.23-.77L40.57,113h1l1.06,3.38a10.8,10.8,0,0,1,.4,1.55h0a5,5,0,0,1,.11-.6c.06-.27.44-1.71,1.12-4.33h.93l-1.63,5.88Z" transform="translate(-0.45 -4.78)" fill="#231f20"/><path d="M20.54,129.84h-1l-2.48-6.56h0c-.11.79-.24,1.54-.4,2.24l-.92,4.32h-.87L16.53,122h1L20,128.54h0c.11-.8.24-1.52.39-2.17l.94-4.38h.88Z" transform="translate(-0.45 -4.78)" fill="#231f20"/><path d="M26.51,127.35H23.85l-1.32,2.49h-1l4.3-7.85h.93l1,7.85h-.91Zm-.1-.84-.18-1.61a17.45,17.45,0,0,1-.16-1.88c-.13.32-.28.63-.43.94l-1.34,2.55Z" transform="translate(-0.45 -4.78)" fill="#231f20"/><path d="M32.66,129.84H28.71L30.37,122h3.95l-.17.82h-3l-.53,2.52h2.83l-.15.82H30.41L29.8,129h3Z" transform="translate(-0.45 -4.78)" fill="#231f20"/><path d="M40.1,124a2.43,2.43,0,0,1-.88,2,4.08,4.08,0,0,1-2.59.71h-.72l-.66,3.08h-.91L36,122h1.77a2.62,2.62,0,0,1,1.74.51A1.9,1.9,0,0,1,40.1,124Zm-4,2h.71a2.71,2.71,0,0,0,1.76-.49,1.73,1.73,0,0,0,.6-1.43,1.16,1.16,0,0,0-.37-1,1.82,1.82,0,0,0-1.15-.3h-.87Z" transform="translate(-0.45 -4.78)" fill="#231f20"/><path d="M47.09,122c1.55,0,2.32.6,2.32,1.81a1.83,1.83,0,0,1-.47,1.28,2.26,2.26,0,0,1-1.31.67v.06a1.75,1.75,0,0,1,.95.59,1.59,1.59,0,0,1,.33,1,2.17,2.17,0,0,1-.82,1.79,3.41,3.41,0,0,1-2.18.64H43.42L45.08,122Zm-2.59,7.08h1.43a2.28,2.28,0,0,0,1.49-.44,1.47,1.47,0,0,0,.52-1.22,1.16,1.16,0,0,0-.4-1,1.77,1.77,0,0,0-1.15-.33H45.12Zm.79-3.72h1.33A2.13,2.13,0,0,0,48,125a1.3,1.3,0,0,0,.5-1.07,1,1,0,0,0-.36-.83,1.81,1.81,0,0,0-1.13-.28H45.84Z" transform="translate(-0.45 -4.78)" fill="#231f20"/><path d="M53,123.85a1.5,1.5,0,0,1,.88.27,1.65,1.65,0,0,1,.6.76h.06l.36-.92h.68l-1.25,5.88h-.71l.14-1.12h0a2.64,2.64,0,0,1-2,1.23,1.42,1.42,0,0,1-1.17-.53,2.23,2.23,0,0,1-.43-1.46,5.64,5.64,0,0,1,.38-2.07,3.6,3.6,0,0,1,1.06-1.5A2.26,2.26,0,0,1,53,123.85Zm-1,5.36a1.5,1.5,0,0,0,1-.5,3.48,3.48,0,0,0,.84-1.3,4.1,4.1,0,0,0,.32-1.59,1.24,1.24,0,0,0-.3-.88,1,1,0,0,0-.79-.33,1.49,1.49,0,0,0-1,.46,3.07,3.07,0,0,0-.75,1.25A5.13,5.13,0,0,0,51,128a1.39,1.39,0,0,0,.25.91A.88.88,0,0,0,52,129.21Z" transform="translate(-0.45 -4.78)" fill="#231f20"/><path d="M59.7,128.17a1.57,1.57,0,0,1-.6,1.31,2.58,2.58,0,0,1-1.67.47,3.56,3.56,0,0,1-1.64-.37v-.85a3.25,3.25,0,0,0,.81.35,3.09,3.09,0,0,0,.81.13,1.63,1.63,0,0,0,1-.27.83.83,0,0,0,.34-.69.78.78,0,0,0-.18-.52,3.94,3.94,0,0,0-.81-.57,3.17,3.17,0,0,1-1-.77,1.38,1.38,0,0,1-.29-.89,1.5,1.5,0,0,1,.54-1.2,2.17,2.17,0,0,1,1.43-.45,4.08,4.08,0,0,1,1.77.4L60,125l-.3-.13a3.06,3.06,0,0,0-1.18-.23,1.24,1.24,0,0,0-.79.23.75.75,0,0,0-.28.61.72.72,0,0,0,.19.51,3.31,3.31,0,0,0,.79.56,4.22,4.22,0,0,1,.82.55,1.45,1.45,0,0,1,.37.5A1.25,1.25,0,0,1,59.7,128.17Z" transform="translate(-0.45 -4.78)" fill="#231f20"/><path d="M61.68,129.84h-.9L62,124h.91Zm.61-7.39a.68.68,0,0,1,.17-.49.58.58,0,0,1,.44-.19.42.42,0,0,1,.48.48.71.71,0,0,1-.18.5.54.54,0,0,1-.42.21.48.48,0,0,1-.35-.13A.47.47,0,0,1,62.29,122.45Z" transform="translate(-0.45 -4.78)" fill="#231f20"/><path d="M66,130a2,2,0,0,1-2.19-2.2,4.83,4.83,0,0,1,.4-2,3.33,3.33,0,0,1,1.1-1.41,2.59,2.59,0,0,1,1.57-.51,4,4,0,0,1,1.44.27l-.25.76a3.07,3.07,0,0,0-1.18-.27,1.71,1.71,0,0,0-1.1.41,2.59,2.59,0,0,0-.77,1.14,4.36,4.36,0,0,0-.29,1.59,1.49,1.49,0,0,0,.36,1.07,1.28,1.28,0,0,0,1,.39,2.53,2.53,0,0,0,.73-.11c.23-.07.45-.16.67-.25v.76A3.16,3.16,0,0,1,66,130Z" transform="translate(-0.45 -4.78)" fill="#231f20"/><rect y="148.74" width="82.8" height="32.8" fill="#262b69"/><line x1="241.07" y1="187.54" x2="241.07" y2="200.77" fill="none" stroke="#231f20" stroke-miterlimit="10"/><circle cx="240.93" cy="202.29" r="2.72" fill="#fff" stroke="#231f20" stroke-miterlimit="10"/><line x1="190.07" y1="187.87" x2="321.2" y2="187.87" fill="none" stroke="#231f20" stroke-miterlimit="10"/><line x1="189.77" y1="182.27" x2="189.77" y2="188.1" fill="none" stroke="#231f20" stroke-miterlimit="10" stroke-width="0.85"/><line x1="320.77" y1="182.27" x2="320.77" y2="188.1" fill="none" stroke="#231f20" stroke-miterlimit="10" stroke-width="0.85"/><line x1="1.13" y1="39.07" x2="71.67" y2="39.07" fill="none" stroke="#231f20" stroke-miterlimit="10"/><line x1="253.27" y1="39.07" x2="318.13" y2="39.07" fill="none" stroke="#231f20" stroke-miterlimit="10"/><line x1="0.97" y1="38.47" x2="0.97" y2="44.3" fill="none" stroke="#231f20" stroke-miterlimit="10" stroke-width="0.85"/><line x1="317.97" y1="38.47" x2="317.97" y2="44.3" fill="none" stroke="#231f20" stroke-miterlimit="10" stroke-width="0.85"/></svg>