<svg id="Layer_1" data-name="Layer 1" xmlns="http://www.w3.org/2000/svg" width="664.19" height="277.47" viewBox="0 0 664.19 277.47"><title>PrepArticle1_FullTimeJob_Overall</title><line x1="95.54" y1="217.61" x2="95.54" y2="247.51" fill="none" stroke="#231f20" stroke-miterlimit="10"/><circle cx="95.68" cy="247.67" r="2.72" fill="#fff" stroke="#231f20" stroke-miterlimit="10"/><line x1="95.73" y1="64.46" x2="95.73" y2="36.36" fill="none" stroke="#231f20" stroke-miterlimit="10"/><circle cx="95.6" cy="36.2" r="2.72" fill="#fff" stroke="#231f20" stroke-miterlimit="10"/><line x1="311.66" y1="253.07" x2="324.73" y2="253.07" fill="none" stroke="#231f20" stroke-miterlimit="10" stroke-width="0.5"/><line x1="522.25" y1="253.07" x2="536.05" y2="253.07" fill="none" stroke="#231f20" stroke-miterlimit="10" stroke-width="0.5"/><line x1="328.2" y1="253.07" x2="518.85" y2="253.07" fill="none" stroke="#231f20" stroke-miterlimit="10" stroke-width="0.5"/><line x1="311.91" y1="252.93" x2="311.91" y2="255.33" fill="none" stroke="#231f20" stroke-miterlimit="10" stroke-width="0.5"/><line x1="535.91" y1="252.93" x2="535.91" y2="255.33" fill="none" stroke="#231f20" stroke-miterlimit="10" stroke-width="0.5"/><line x1="503.91" y1="252.93" x2="503.91" y2="255.33" fill="none" stroke="#231f20" stroke-miterlimit="10" stroke-width="0.5"/><line x1="471.91" y1="252.93" x2="471.91" y2="255.33" fill="none" stroke="#231f20" stroke-miterlimit="10" stroke-width="0.5"/><line x1="439.91" y1="252.93" x2="439.91" y2="255.33" fill="none" stroke="#231f20" stroke-miterlimit="10" stroke-width="0.5"/><line x1="407.91" y1="252.93" x2="407.91" y2="255.33" fill="none" stroke="#231f20" stroke-miterlimit="10" stroke-width="0.5"/><line x1="375.91" y1="252.93" x2="375.91" y2="255.33" fill="none" stroke="#231f20" stroke-miterlimit="10" stroke-width="0.5"/><line x1="343.91" y1="252.93" x2="343.91" y2="255.33" fill="none" stroke="#231f20" stroke-miterlimit="10" stroke-width="0.5"/><path d="M315.08,264.22a5.81,5.81,0,0,1-.64,3,2.19,2.19,0,0,1-2,1,2.15,2.15,0,0,1-1.92-1,5.54,5.54,0,0,1-.67-3,5.76,5.76,0,0,1,.64-3,2.16,2.16,0,0,1,2-1,2.18,2.18,0,0,1,1.95,1A5.61,5.61,0,0,1,315.08,264.22Zm-4.29,0a5.8,5.8,0,0,0,.4,2.5,1.45,1.45,0,0,0,2.58,0,7.89,7.89,0,0,0,0-5,1.37,1.37,0,0,0-1.3-.79,1.35,1.35,0,0,0-1.28.78A5.72,5.72,0,0,0,310.79,264.22Z" transform="translate(-0.84 -3.19)" fill="#58595b"/><path d="M342,268.16h-5.17v-.77l2.07-2.08a16.29,16.29,0,0,0,1.25-1.36,3.42,3.42,0,0,0,.45-.8,2.23,2.23,0,0,0,.15-.83,1.35,1.35,0,0,0-.38-1,1.5,1.5,0,0,0-1.06-.36,2.64,2.64,0,0,0-.93.16,3.86,3.86,0,0,0-1,.58l-.47-.6a3.58,3.58,0,0,1,2.36-.91,2.46,2.46,0,0,1,1.73.57,2,2,0,0,1,.63,1.52,3,3,0,0,1-.42,1.48,9.59,9.59,0,0,1-1.56,1.85l-1.72,1.68v0h4Z" transform="translate(-0.84 -3.19)" fill="#58595b"/><path d="M345.56,263.36a2.87,2.87,0,0,1,1.95.62,2.09,2.09,0,0,1,.71,1.68,2.45,2.45,0,0,1-.77,1.91,3.07,3.07,0,0,1-2.14.7,4,4,0,0,1-2-.43V267a3,3,0,0,0,.94.38,4.67,4.67,0,0,0,1.1.14,2.19,2.19,0,0,0,1.47-.45,1.58,1.58,0,0,0,.52-1.29c0-1.09-.67-1.64-2-1.64a7.56,7.56,0,0,0-1.37.16l-.46-.3.29-3.67h3.91v.82h-3.14l-.2,2.36A5.71,5.71,0,0,1,345.56,263.36Z" transform="translate(-0.84 -3.19)" fill="#58595b"/><path d="M354.6,264.22a5.81,5.81,0,0,1-.64,3,2.37,2.37,0,0,1-3.9,0,5.64,5.64,0,0,1-.66-3,5.76,5.76,0,0,1,.64-3,2.36,2.36,0,0,1,3.89,0A5.51,5.51,0,0,1,354.6,264.22Zm-4.29,0a5.77,5.77,0,0,0,.4,2.5,1.44,1.44,0,0,0,2.57,0,7.92,7.92,0,0,0,0-5,1.45,1.45,0,0,0-2.57,0A5.72,5.72,0,0,0,350.31,264.22Z" transform="translate(-0.84 -3.19)" fill="#58595b"/><path d="M373.72,268.16h-5.17v-.77l2.07-2.08a16.29,16.29,0,0,0,1.25-1.36,3.42,3.42,0,0,0,.45-.8,2.23,2.23,0,0,0,.15-.83,1.35,1.35,0,0,0-.38-1A1.5,1.5,0,0,0,371,261a2.64,2.64,0,0,0-.93.16,3.86,3.86,0,0,0-1,.58l-.48-.6a3.62,3.62,0,0,1,2.37-.91,2.47,2.47,0,0,1,1.73.57,2,2,0,0,1,.63,1.52,3,3,0,0,1-.42,1.48,9.59,9.59,0,0,1-1.56,1.85l-1.72,1.68v0h4Z" transform="translate(-0.84 -3.19)" fill="#58595b"/><path d="M374.93,264.8a5.55,5.55,0,0,1,.9-3.46,3.19,3.19,0,0,1,2.66-1.15,3.41,3.41,0,0,1,1,.11v.76a3,3,0,0,0-.94-.13,2.36,2.36,0,0,0-1.93.79,3.94,3.94,0,0,0-.73,2.47h.06a2.06,2.06,0,0,1,1.87-.92,2.22,2.22,0,0,1,1.67.63,2.46,2.46,0,0,1,.61,1.74,2.67,2.67,0,0,1-.67,1.92,2.39,2.39,0,0,1-1.81.71,2.32,2.32,0,0,1-1.93-.92A4,4,0,0,1,374.93,264.8Zm2.64,2.71a1.52,1.52,0,0,0,1.19-.48,2.06,2.06,0,0,0,.42-1.39,1.77,1.77,0,0,0-.4-1.23,1.49,1.49,0,0,0-1.17-.44,2,2,0,0,0-.88.2,1.5,1.5,0,0,0-.64.55,1.24,1.24,0,0,0-.24.72,2.53,2.53,0,0,0,.21,1,1.84,1.84,0,0,0,.61.76A1.48,1.48,0,0,0,377.57,267.51Z" transform="translate(-0.84 -3.19)" fill="#58595b"/><path d="M386.34,264.22a5.7,5.7,0,0,1-.65,3,2.36,2.36,0,0,1-3.89,0,7.39,7.39,0,0,1,0-6.06,2.36,2.36,0,0,1,3.89,0A5.6,5.6,0,0,1,386.34,264.22Zm-4.3,0a5.74,5.74,0,0,0,.41,2.5,1.44,1.44,0,0,0,2.57,0,7.92,7.92,0,0,0,0-5,1.45,1.45,0,0,0-2.57,0A5.69,5.69,0,0,0,382,264.22Z" transform="translate(-0.84 -3.19)" fill="#58595b"/><path d="M405.86,268.16h-5.17v-.77l2.07-2.08A16.29,16.29,0,0,0,404,264a3.42,3.42,0,0,0,.45-.8,2.23,2.23,0,0,0,.15-.83,1.35,1.35,0,0,0-.38-1,1.5,1.5,0,0,0-1.06-.36,2.64,2.64,0,0,0-.93.16,3.86,3.86,0,0,0-1,.58l-.47-.6a3.58,3.58,0,0,1,2.36-.91,2.46,2.46,0,0,1,1.73.57,2,2,0,0,1,.63,1.52,3,3,0,0,1-.42,1.48,9.23,9.23,0,0,1-1.56,1.85l-1.72,1.68v0h4Z" transform="translate(-0.84 -3.19)" fill="#58595b"/><path d="M408,268.16l3.25-7H407v-.82h5.23V261L409,268.16Z" transform="translate(-0.84 -3.19)" fill="#58595b"/><path d="M418.48,264.22a5.7,5.7,0,0,1-.65,3,2.36,2.36,0,0,1-3.89,0,5.64,5.64,0,0,1-.66-3,5.76,5.76,0,0,1,.64-3,2.36,2.36,0,0,1,3.89,0A5.51,5.51,0,0,1,418.48,264.22Zm-4.29,0a5.77,5.77,0,0,0,.4,2.5,1.44,1.44,0,0,0,2.57,0,7.92,7.92,0,0,0,0-5,1.45,1.45,0,0,0-2.57,0A5.72,5.72,0,0,0,414.19,264.22Z" transform="translate(-0.84 -3.19)" fill="#58595b"/><path d="M436.8,268.16h-5.16v-.77l2.06-2.08A16.29,16.29,0,0,0,435,264a3.42,3.42,0,0,0,.45-.8,2.23,2.23,0,0,0,.15-.83,1.35,1.35,0,0,0-.38-1,1.48,1.48,0,0,0-1.06-.36,2.58,2.58,0,0,0-.92.16,3.73,3.73,0,0,0-1,.58l-.47-.6a3.58,3.58,0,0,1,2.36-.91,2.5,2.5,0,0,1,1.74.57,2,2,0,0,1,.62,1.52,2.93,2.93,0,0,1-.41,1.48,9.72,9.72,0,0,1-1.57,1.85l-1.72,1.68v0h4Z" transform="translate(-0.84 -3.19)" fill="#58595b"/><path d="M440.52,260.19a2.7,2.7,0,0,1,1.71.5,1.68,1.68,0,0,1,.63,1.38,1.72,1.72,0,0,1-.36,1.06,3.21,3.21,0,0,1-1.15.87,4.1,4.1,0,0,1,1.36,1,1.85,1.85,0,0,1,.4,1.16,2,2,0,0,1-.68,1.56,2.79,2.79,0,0,1-1.87.59,3,3,0,0,1-1.94-.55,1.91,1.91,0,0,1-.67-1.57,2.31,2.31,0,0,1,1.64-2.09,3.07,3.07,0,0,1-1.06-.91,1.89,1.89,0,0,1-.33-1.09,1.66,1.66,0,0,1,.63-1.36A2.64,2.64,0,0,1,440.52,260.19Zm-1.69,6a1.2,1.2,0,0,0,.45,1,1.93,1.93,0,0,0,1.26.36,1.82,1.82,0,0,0,1.24-.38,1.31,1.31,0,0,0,0-2,4.25,4.25,0,0,0-1.46-.79,3.1,3.1,0,0,0-1.16.76A1.48,1.48,0,0,0,438.83,266.18Zm1.68-5.26a1.61,1.61,0,0,0-1.05.32,1.09,1.09,0,0,0-.38.86,1.25,1.25,0,0,0,.32.85,3.28,3.28,0,0,0,1.17.71,3.2,3.2,0,0,0,1.09-.69,1.31,1.31,0,0,0,.31-.87,1.05,1.05,0,0,0-.39-.86A1.57,1.57,0,0,0,440.51,260.92Z" transform="translate(-0.84 -3.19)" fill="#58595b"/><path d="M449.42,264.22a5.81,5.81,0,0,1-.64,3,2.19,2.19,0,0,1-2,1,2.15,2.15,0,0,1-1.92-1,5.54,5.54,0,0,1-.67-3,5.76,5.76,0,0,1,.64-3,2.36,2.36,0,0,1,3.89,0A5.51,5.51,0,0,1,449.42,264.22Zm-4.29,0a5.77,5.77,0,0,0,.4,2.5,1.35,1.35,0,0,0,1.28.78,1.37,1.37,0,0,0,1.3-.79,8.11,8.11,0,0,0,0-5,1.36,1.36,0,0,0-1.3-.78,1.34,1.34,0,0,0-1.28.77A5.72,5.72,0,0,0,445.13,264.22Z" transform="translate(-0.84 -3.19)" fill="#58595b"/><path d="M469.74,268.16h-5.16v-.77l2.07-2.08a17.55,17.55,0,0,0,1.24-1.36,3.42,3.42,0,0,0,.45-.8,2.23,2.23,0,0,0,.15-.83,1.35,1.35,0,0,0-.38-1,1.48,1.48,0,0,0-1.06-.36,2.58,2.58,0,0,0-.92.16,3.73,3.73,0,0,0-1,.58l-.47-.6a3.58,3.58,0,0,1,2.36-.91,2.5,2.5,0,0,1,1.74.57,2,2,0,0,1,.62,1.52,2.93,2.93,0,0,1-.41,1.48,9.72,9.72,0,0,1-1.57,1.85l-1.72,1.68v0h4Z" transform="translate(-0.84 -3.19)" fill="#58595b"/><path d="M476,263.66q0,4.6-3.57,4.61a3.76,3.76,0,0,1-1-.11v-.77a3.26,3.26,0,0,0,1,.14,2.39,2.39,0,0,0,1.95-.8,4,4,0,0,0,.71-2.44h-.06a2.05,2.05,0,0,1-.78.68,2.65,2.65,0,0,1-1.11.23,2.23,2.23,0,0,1-1.65-.62,2.38,2.38,0,0,1-.61-1.74,2.71,2.71,0,0,1,.68-1.94,2.62,2.62,0,0,1,3.2-.3,2.71,2.71,0,0,1,.93,1.2A5,5,0,0,1,476,263.66Zm-2.64-2.7a1.46,1.46,0,0,0-1.19.49,2.06,2.06,0,0,0-.42,1.37,1.77,1.77,0,0,0,.39,1.22,1.43,1.43,0,0,0,1.17.44,2,2,0,0,0,.9-.19,1.68,1.68,0,0,0,.65-.55,1.24,1.24,0,0,0,.24-.72,2.43,2.43,0,0,0-.23-1,1.75,1.75,0,0,0-.61-.75A1.54,1.54,0,0,0,473.39,261Z" transform="translate(-0.84 -3.19)" fill="#58595b"/><path d="M482.36,264.22a5.71,5.71,0,0,1-.64,3,2.36,2.36,0,0,1-3.89,0,7.39,7.39,0,0,1,0-6.06,2.13,2.13,0,0,1,1.94-1,2.18,2.18,0,0,1,1.95,1A5.61,5.61,0,0,1,482.36,264.22Zm-4.29,0a5.77,5.77,0,0,0,.4,2.5,1.35,1.35,0,0,0,1.28.78,1.37,1.37,0,0,0,1.3-.79,7.92,7.92,0,0,0,0-5,1.36,1.36,0,0,0-1.3-.78,1.34,1.34,0,0,0-1.28.77A5.72,5.72,0,0,0,478.07,264.22Z" transform="translate(-0.84 -3.19)" fill="#58595b"/><path d="M501.23,262.15a1.84,1.84,0,0,1-.41,1.23,2,2,0,0,1-1.16.64v.05a2.18,2.18,0,0,1,1.36.6,1.82,1.82,0,0,1,.44,1.27,2.06,2.06,0,0,1-.76,1.72,3.37,3.37,0,0,1-2.14.61,6.18,6.18,0,0,1-1.11-.1,3.54,3.54,0,0,1-1-.33V267a4.62,4.62,0,0,0,1.06.39,4.45,4.45,0,0,0,1.06.13c1.31,0,2-.53,2-1.6s-.72-1.43-2.18-1.43h-.75v-.76h.76a2.26,2.26,0,0,0,1.42-.41,1.33,1.33,0,0,0,.52-1.12,1.15,1.15,0,0,0-.38-.91,1.56,1.56,0,0,0-1-.32,3,3,0,0,0-1,.14,4.15,4.15,0,0,0-1,.51l-.44-.6a4.05,4.05,0,0,1,1.08-.6,4,4,0,0,1,1.29-.22,2.57,2.57,0,0,1,1.73.53A1.79,1.79,0,0,1,501.23,262.15Z" transform="translate(-0.84 -3.19)" fill="#58595b"/><path d="M507.66,264.22a5.93,5.93,0,0,1-.62,3,2.26,2.26,0,0,1-3.78,0,7.6,7.6,0,0,1,0-6.06,2.06,2.06,0,0,1,1.89-1,2.09,2.09,0,0,1,1.89,1A5.72,5.72,0,0,1,507.66,264.22Zm-4.17,0a6,6,0,0,0,.39,2.5,1.32,1.32,0,0,0,1.25.78,1.3,1.3,0,0,0,1.25-.79,8.11,8.11,0,0,0,0-5,1.29,1.29,0,0,0-1.25-.78,1.31,1.31,0,0,0-1.25.77A5.9,5.9,0,0,0,503.49,264.22Z" transform="translate(-0.84 -3.19)" fill="#58595b"/><path d="M513.76,264.22a5.83,5.83,0,0,1-.62,3,2.26,2.26,0,0,1-3.78,0,7.6,7.6,0,0,1,0-6.06,2.26,2.26,0,0,1,3.78,0A5.72,5.72,0,0,1,513.76,264.22Zm-4.16,0a6,6,0,0,0,.39,2.5,1.39,1.39,0,0,0,2.5,0,8.11,8.11,0,0,0,0-5,1.4,1.4,0,0,0-2.5,0A5.9,5.9,0,0,0,509.6,264.22Z" transform="translate(-0.84 -3.19)" fill="#58595b"/><path d="M530.58,263.36a2.87,2.87,0,0,1,1.95.62,2.09,2.09,0,0,1,.72,1.68,2.42,2.42,0,0,1-.78,1.91,3.07,3.07,0,0,1-2.14.7,4,4,0,0,1-2-.43V267a3.13,3.13,0,0,0,.94.38,4.67,4.67,0,0,0,1.1.14,2.19,2.19,0,0,0,1.47-.45,1.58,1.58,0,0,0,.52-1.29c0-1.09-.67-1.64-2-1.64a7.56,7.56,0,0,0-1.37.16l-.46-.3.3-3.67h3.9v.82h-3.14l-.2,2.36A5.71,5.71,0,0,1,530.58,263.36Z" transform="translate(-0.84 -3.19)" fill="#58595b"/><path d="M539.62,264.22a5.71,5.71,0,0,1-.64,3,2.36,2.36,0,0,1-3.89,0,7.39,7.39,0,0,1,0-6.06,2.13,2.13,0,0,1,1.94-1,2.18,2.18,0,0,1,2,1A5.61,5.61,0,0,1,539.62,264.22Zm-4.29,0a5.77,5.77,0,0,0,.4,2.5,1.35,1.35,0,0,0,1.28.78,1.37,1.37,0,0,0,1.3-.79,7.92,7.92,0,0,0,0-5A1.36,1.36,0,0,0,537,261a1.34,1.34,0,0,0-1.28.77A5.72,5.72,0,0,0,535.33,264.22Z" transform="translate(-0.84 -3.19)" fill="#58595b"/><path d="M545.91,264.22a5.81,5.81,0,0,1-.64,3,2.19,2.19,0,0,1-2,1,2.15,2.15,0,0,1-1.92-1,5.54,5.54,0,0,1-.67-3,5.76,5.76,0,0,1,.64-3,2.16,2.16,0,0,1,1.95-1,2.18,2.18,0,0,1,2,1A5.61,5.61,0,0,1,545.91,264.22Zm-4.29,0a5.77,5.77,0,0,0,.4,2.5,1.35,1.35,0,0,0,1.28.78,1.37,1.37,0,0,0,1.3-.79,7.92,7.92,0,0,0,0-5,1.36,1.36,0,0,0-1.3-.78,1.34,1.34,0,0,0-1.28.77A5.72,5.72,0,0,0,541.62,264.22Z" transform="translate(-0.84 -3.19)" fill="#58595b"/><line x1="330.14" y1="254.95" x2="326.16" y2="251.03" fill="#231f20" stroke="#231f20" stroke-width="0.5"/><line x1="326.98" y1="254.95" x2="322.99" y2="251.03" fill="#231f20" stroke="#231f20" stroke-width="0.5"/><line x1="524.14" y1="254.95" x2="520.16" y2="251.03" fill="#231f20" stroke="#231f20" stroke-width="0.5"/><line x1="520.98" y1="254.95" x2="516.99" y2="251.03" fill="#231f20" stroke="#231f20" stroke-width="0.5"/><line x1="516.37" y1="143.19" x2="536.46" y2="143.27" fill="none" stroke="#231f20" stroke-miterlimit="10" stroke-width="0.5"/><circle cx="537.73" cy="143.38" r="2.72" fill="#fff" stroke="#231f20" stroke-miterlimit="10"/><line x1="517" y1="83.6" x2="517" y2="199.8" fill="none" stroke="#231f20" stroke-miterlimit="10" stroke-width="0.5"/><path d="M94.56,144.46l-42.14,76a86.9,86.9,0,1,1,118.14-33.88,83.46,83.46,0,0,1-29.95,31.57Z" transform="translate(-0.84 -3.19)" fill="#00aeef" fill-rule="evenodd"/><path d="M94.56,144.46l46.05,73.7c-27.68,17.29-59.64,18.13-88.19,2.31Z" transform="translate(-0.84 -3.19)" fill="#262b69" fill-rule="evenodd"/><circle cx="93.85" cy="141.23" r="57.79" fill="#fff"/><path d="M6.87,3.21a6.44,6.44,0,0,1,4,1.12,3.56,3.56,0,0,1,1.51,3,3.94,3.94,0,0,1-.73,2.34,6.16,6.16,0,0,1-2.34,1.83A8.32,8.32,0,0,1,12,13.67a4,4,0,0,1,.84,2.46,4.08,4.08,0,0,1-1.66,3.39A6.91,6.91,0,0,1,6.87,20.8a7.3,7.3,0,0,1-4.42-1.19A4,4,0,0,1,.84,16.22a4.48,4.48,0,0,1,.78-2.6,6.5,6.5,0,0,1,2.51-2A6.25,6.25,0,0,1,2,9.63a4.33,4.33,0,0,1-.65-2.31,3.55,3.55,0,0,1,1.52-3A6.48,6.48,0,0,1,6.87,3.21ZM4.2,16a1.9,1.9,0,0,0,.7,1.57,3,3,0,0,0,1.92.56,3,3,0,0,0,2-.58A2,2,0,0,0,9.5,16a2.11,2.11,0,0,0-.66-1.47A8.56,8.56,0,0,0,6.69,13.1Q4.2,14.26,4.2,16ZM6.84,5.86a2.29,2.29,0,0,0-1.49.47,1.58,1.58,0,0,0-.57,1.28,2,2,0,0,0,.45,1.26A5,5,0,0,0,6.87,10a4.63,4.63,0,0,0,1.6-1.1,2,2,0,0,0,.46-1.3,1.55,1.55,0,0,0-.59-1.28A2.34,2.34,0,0,0,6.84,5.86Z" transform="translate(-0.84 -3.19)" fill="#231f20"/><path d="M26,7.27A4.07,4.07,0,0,1,25,10a5,5,0,0,1-2.73,1.54v.07a5.57,5.57,0,0,1,3.14,1.26,3.53,3.53,0,0,1,1.06,2.7,4.55,4.55,0,0,1-1.79,3.85,8.25,8.25,0,0,1-5.12,1.38,12.59,12.59,0,0,1-4.95-.92V16.79a11.15,11.15,0,0,0,2.19.82,9.32,9.32,0,0,0,2.37.32,4.57,4.57,0,0,0,2.65-.61,2.25,2.25,0,0,0,.86-2,1.77,1.77,0,0,0-1-1.71,7.36,7.36,0,0,0-3.14-.5h-1.3V10.37h1.32a6.18,6.18,0,0,0,2.92-.52,1.89,1.89,0,0,0,.92-1.79c0-1.29-.82-1.94-2.44-1.94a5.52,5.52,0,0,0-1.72.28,8.53,8.53,0,0,0-1.94,1L14.64,4.88a9.26,9.26,0,0,1,5.59-1.69,7.22,7.22,0,0,1,4.2,1.08A3.43,3.43,0,0,1,26,7.27Z" transform="translate(-0.84 -3.19)" fill="#231f20"/><path d="M32.18,13.55a4.32,4.32,0,0,1-.52,2.36,1.72,1.72,0,0,1-1.53.79,1.68,1.68,0,0,1-1.49-.81,4.31,4.31,0,0,1-.53-2.34,4.37,4.37,0,0,1,.51-2.34,1.68,1.68,0,0,1,1.51-.78,1.72,1.72,0,0,1,1.52.81A4.16,4.16,0,0,1,32.18,13.55Zm-3.13,0a4.56,4.56,0,0,0,.26,1.75.85.85,0,0,0,.82.58c.74,0,1.12-.78,1.12-2.33s-.38-2.31-1.12-2.31a.84.84,0,0,0-.82.58A4.45,4.45,0,0,0,29.05,13.55Zm7.39-3-5.54,10h-1l5.55-10Zm1.77,7a4.3,4.3,0,0,1-.53,2.35,1.72,1.72,0,0,1-1.53.79,1.68,1.68,0,0,1-1.5-.81,4.4,4.4,0,0,1-.52-2.33,4.32,4.32,0,0,1,.51-2.34,1.69,1.69,0,0,1,1.51-.79,1.71,1.71,0,0,1,1.51.81A4.14,4.14,0,0,1,38.21,17.56Zm-3.14,0a4.6,4.6,0,0,0,.25,1.75.86.86,0,0,0,.83.57.91.91,0,0,0,.85-.57,4.28,4.28,0,0,0,.27-1.75A4.18,4.18,0,0,0,37,15.83a.91.91,0,0,0-.85-.57.86.86,0,0,0-.83.57A4.41,4.41,0,0,0,35.07,17.56Z" transform="translate(-0.84 -3.19)" fill="#231f20"/><path d="M46.73,19.78h0a2.1,2.1,0,0,1-1.85.89,2.18,2.18,0,0,1-1.8-.79,3.44,3.44,0,0,1-.64-2.24A3.53,3.53,0,0,1,43,15.38a2.17,2.17,0,0,1,1.8-.81,2.12,2.12,0,0,1,1.83.87h.07l0-.42,0-.42V12.21h.89v8.36h-.73ZM45,19.93a1.61,1.61,0,0,0,1.32-.5,2.47,2.47,0,0,0,.42-1.6v-.19a2.94,2.94,0,0,0-.42-1.79,1.6,1.6,0,0,0-1.33-.53,1.36,1.36,0,0,0-1.2.61,3,3,0,0,0-.42,1.72,2.86,2.86,0,0,0,.42,1.7A1.38,1.38,0,0,0,45,19.93Z" transform="translate(-0.84 -3.19)" fill="#231f20"/><path d="M49.39,13.08a.57.57,0,0,1,.15-.44.52.52,0,0,1,.38-.15.51.51,0,0,1,.37.15.59.59,0,0,1,.15.44.6.6,0,0,1-.15.45.51.51,0,0,1-.37.15.52.52,0,0,1-.38-.15A.6.6,0,0,1,49.39,13.08Zm1,7.49h-.89V14.68h.89Z" transform="translate(-0.84 -3.19)" fill="#231f20"/><path d="M56.26,19.78h0a2.09,2.09,0,0,1-1.85.89,2.18,2.18,0,0,1-1.8-.79,3.49,3.49,0,0,1-.64-2.24,3.54,3.54,0,0,1,.65-2.26,2.38,2.38,0,0,1,3.63.06h.07l0-.42,0-.42V12.21h.89v8.36h-.73Zm-1.79.15a1.65,1.65,0,0,0,1.33-.5,2.54,2.54,0,0,0,.41-1.6v-.19a2.94,2.94,0,0,0-.42-1.79,1.6,1.6,0,0,0-1.33-.53,1.36,1.36,0,0,0-1.2.61,3,3,0,0,0-.41,1.72,2.86,2.86,0,0,0,.41,1.7A1.39,1.39,0,0,0,54.47,19.93Z" transform="translate(-0.84 -3.19)" fill="#231f20"/><path d="M63,20.57V16.76a1.55,1.55,0,0,0-.33-1.08,1.35,1.35,0,0,0-1-.35,1.72,1.72,0,0,0-1.36.5,2.49,2.49,0,0,0-.43,1.65v3.09H59V14.68h.73l.14.81h0a1.89,1.89,0,0,1,.77-.68,2.5,2.5,0,0,1,1.1-.24,2.23,2.23,0,0,1,1.6.51,2.2,2.2,0,0,1,.54,1.65v3.84Z" transform="translate(-0.84 -3.19)" fill="#231f20"/><path d="M66.46,12.71l.08.12c-.1.36-.23.78-.41,1.25a13.89,13.89,0,0,1-.54,1.32h-.66c.25-1,.43-1.91.55-2.69Z" transform="translate(-0.84 -3.19)" fill="#231f20"/><path d="M69.51,19.94a2.32,2.32,0,0,0,.46,0,1.94,1.94,0,0,0,.35-.07v.68a1.51,1.51,0,0,1-.43.12,3.25,3.25,0,0,1-.51,0c-1.14,0-1.7-.6-1.7-1.8v-3.5h-.85v-.43l.85-.37.37-1.25h.52v1.36h1.7v.69h-1.7v3.47a1.17,1.17,0,0,0,.25.81A.88.88,0,0,0,69.51,19.94Z" transform="translate(-0.84 -3.19)" fill="#231f20"/><path d="M78,20.57l-.18-.84h0a2.37,2.37,0,0,1-.88.75,2.66,2.66,0,0,1-1.09.19,2,2,0,0,1-1.37-.45,1.65,1.65,0,0,1-.5-1.28c0-1.19,1-1.81,2.85-1.87l1,0v-.37a1.48,1.48,0,0,0-.3-1,1.2,1.2,0,0,0-.95-.33,3.88,3.88,0,0,0-1.66.45l-.28-.68a4.45,4.45,0,0,1,2-.51,2.27,2.27,0,0,1,1.57.47,2,2,0,0,1,.5,1.5v4Zm-2-.63a1.81,1.81,0,0,0,1.31-.46,1.71,1.71,0,0,0,.47-1.28v-.53l-.89,0a3.1,3.1,0,0,0-1.53.33,1,1,0,0,0-.47.91.92.92,0,0,0,.29.74A1.25,1.25,0,0,0,76,19.94Z" transform="translate(-0.84 -3.19)" fill="#231f20"/><path d="M83.21,20.67a2.59,2.59,0,0,1-1-.21,2,2,0,0,1-.8-.65H81.3a8.44,8.44,0,0,1,.06,1v2.42h-.89V14.68h.72l.13.81h0a2,2,0,0,1,.8-.7,2.35,2.35,0,0,1,1-.22,2.2,2.2,0,0,1,1.81.8,3.56,3.56,0,0,1,.63,2.25A3.5,3.5,0,0,1,85,19.87,2.19,2.19,0,0,1,83.21,20.67Zm-.13-5.34a1.6,1.6,0,0,0-1.31.5,2.64,2.64,0,0,0-.41,1.59v.2a3,3,0,0,0,.41,1.77,1.58,1.58,0,0,0,1.33.54,1.39,1.39,0,0,0,1.2-.62,3,3,0,0,0,.43-1.7,2.86,2.86,0,0,0-.43-1.69A1.44,1.44,0,0,0,83.08,15.33Z" transform="translate(-0.84 -3.19)" fill="#231f20"/><path d="M90,20.67a2.59,2.59,0,0,1-1-.21,2,2,0,0,1-.8-.65H88a8.44,8.44,0,0,1,.06,1v2.42h-.89V14.68h.73l.12.81h0a2,2,0,0,1,.8-.7,2.38,2.38,0,0,1,1-.22,2.2,2.2,0,0,1,1.81.8,3.56,3.56,0,0,1,.63,2.25,3.5,3.5,0,0,1-.64,2.25A2.18,2.18,0,0,1,90,20.67Zm-.13-5.34a1.57,1.57,0,0,0-1.3.5,2.56,2.56,0,0,0-.42,1.59v.2a2.89,2.89,0,0,0,.42,1.77,1.54,1.54,0,0,0,1.32.54,1.39,1.39,0,0,0,1.2-.62,2.91,2.91,0,0,0,.43-1.7A2.79,2.79,0,0,0,91,15.92,1.44,1.44,0,0,0,89.82,15.33Z" transform="translate(-0.84 -3.19)" fill="#231f20"/><path d="M94.84,20.57H94V12.21h.89Z" transform="translate(-0.84 -3.19)" fill="#231f20"/><path d="M95.8,14.68h1L98,18a11.89,11.89,0,0,1,.53,1.66h0c0-.19.15-.5.3-.94s.63-1.8,1.45-4.08h1l-2.53,6.7a3.2,3.2,0,0,1-.88,1.41,1.84,1.84,0,0,1-1.23.42,3.72,3.72,0,0,1-.81-.09V22.4a2.73,2.73,0,0,0,.66.07,1.36,1.36,0,0,0,1.31-1l.33-.84Z" transform="translate(-0.84 -3.19)" fill="#231f20"/><path d="M107.79,15.37h-1.5v5.2h-.89v-5.2h-1.06V15l1.06-.32v-.33c0-1.45.63-2.17,1.89-2.17a3.79,3.79,0,0,1,1.1.19l-.23.71a3,3,0,0,0-.88-.16.87.87,0,0,0-.75.33,1.9,1.9,0,0,0-.24,1.08v.38h1.5Z" transform="translate(-0.84 -3.19)" fill="#231f20"/><path d="M113.94,17.62a3.27,3.27,0,0,1-.72,2.25,2.59,2.59,0,0,1-2,.8,2.64,2.64,0,0,1-1.4-.37,2.38,2.38,0,0,1-.94-1.06,3.58,3.58,0,0,1-.34-1.62,3.23,3.23,0,0,1,.72-2.24,2.54,2.54,0,0,1,2-.81,2.51,2.51,0,0,1,2,.82A3.22,3.22,0,0,1,113.94,17.62Zm-4.48,0a2.82,2.82,0,0,0,.45,1.72,1.78,1.78,0,0,0,2.65,0,2.73,2.73,0,0,0,.46-1.72,2.7,2.7,0,0,0-.46-1.71,1.83,1.83,0,0,0-2.66,0A2.85,2.85,0,0,0,109.46,17.62Z" transform="translate(-0.84 -3.19)" fill="#231f20"/><path d="M118.19,14.57a3,3,0,0,1,.7.07l-.12.82a3.28,3.28,0,0,0-.64-.08,1.6,1.6,0,0,0-1.23.58,2.16,2.16,0,0,0-.5,1.45v3.16h-.9V14.68h.74l.1,1.09h0a2.55,2.55,0,0,1,.79-.89A1.8,1.8,0,0,1,118.19,14.57Z" transform="translate(-0.84 -3.19)" fill="#231f20"/><path d="M126.47,20.57l-.17-.84h0a2.37,2.37,0,0,1-.88.75,2.66,2.66,0,0,1-1.09.19,2,2,0,0,1-1.37-.45,1.65,1.65,0,0,1-.5-1.28c0-1.19,1-1.81,2.86-1.87l1,0v-.37a1.53,1.53,0,0,0-.29-1,1.24,1.24,0,0,0-1-.33,3.88,3.88,0,0,0-1.66.45l-.28-.68a4.45,4.45,0,0,1,2-.51,2.26,2.26,0,0,1,1.56.47,2,2,0,0,1,.5,1.5v4Zm-2-.63a1.81,1.81,0,0,0,1.31-.46,1.71,1.71,0,0,0,.47-1.28v-.53l-.89,0a3.1,3.1,0,0,0-1.53.33,1,1,0,0,0-.47.91.92.92,0,0,0,.29.74A1.27,1.27,0,0,0,124.46,19.94Z" transform="translate(-0.84 -3.19)" fill="#231f20"/><path d="M134.48,15.37H133v5.2h-.89v-5.2H131V15l1.05-.32v-.33c0-1.45.63-2.17,1.9-2.17a3.73,3.73,0,0,1,1.09.19l-.23.71a2.94,2.94,0,0,0-.88-.16.88.88,0,0,0-.75.33A1.9,1.9,0,0,0,133,14.3v.38h1.5Z" transform="translate(-0.84 -3.19)" fill="#231f20"/><path d="M136.39,14.68V18.5a1.51,1.51,0,0,0,.33,1.07,1.33,1.33,0,0,0,1,.36,1.68,1.68,0,0,0,1.35-.51,2.56,2.56,0,0,0,.42-1.65V14.68h.9v5.89h-.74l-.13-.79h-.05a1.69,1.69,0,0,1-.76.66,2.45,2.45,0,0,1-1.11.23,2.27,2.27,0,0,1-1.61-.51,2.19,2.19,0,0,1-.53-1.63V14.68Z" transform="translate(-0.84 -3.19)" fill="#231f20"/><path d="M143.2,20.57h-.89V12.21h.89Z" transform="translate(-0.84 -3.19)" fill="#231f20"/><path d="M146,20.57h-.89V12.21H146Z" transform="translate(-0.84 -3.19)" fill="#231f20"/><path d="M147.38,18v-.82H150V18Z" transform="translate(-0.84 -3.19)" fill="#231f20"/><path d="M153.31,19.94a2.32,2.32,0,0,0,.46,0,1.94,1.94,0,0,0,.35-.07v.68a1.51,1.51,0,0,1-.43.12,3.25,3.25,0,0,1-.51,0c-1.14,0-1.7-.6-1.7-1.8v-3.5h-.85v-.43l.85-.37.37-1.25h.52v1.36h1.7v.69h-1.7v3.47a1.17,1.17,0,0,0,.25.81A.88.88,0,0,0,153.31,19.94Z" transform="translate(-0.84 -3.19)" fill="#231f20"/><path d="M155.22,13.08a.57.57,0,0,1,.15-.44.52.52,0,0,1,.38-.15.53.53,0,0,1,.37.15.59.59,0,0,1,.15.44.6.6,0,0,1-.15.45.53.53,0,0,1-.37.15.52.52,0,0,1-.38-.15A.6.6,0,0,1,155.22,13.08Zm1,7.49h-.9V14.68h.9Z" transform="translate(-0.84 -3.19)" fill="#231f20"/><path d="M165.58,20.57V16.74a1.61,1.61,0,0,0-.3-1.06,1.18,1.18,0,0,0-.94-.35,1.52,1.52,0,0,0-1.23.48,2.31,2.31,0,0,0-.39,1.47v3.29h-.9V16.74a1.61,1.61,0,0,0-.3-1.06,1.18,1.18,0,0,0-.94-.35,1.45,1.45,0,0,0-1.22.5,2.74,2.74,0,0,0-.39,1.65v3.09h-.89V14.68h.72l.15.81h0a1.79,1.79,0,0,1,.71-.68,2.2,2.2,0,0,1,1-.24,1.75,1.75,0,0,1,1.8,1h.05a1.85,1.85,0,0,1,.76-.73,2.34,2.34,0,0,1,1.14-.27,2,2,0,0,1,1.49.51,2.28,2.28,0,0,1,.5,1.65v3.84Z" transform="translate(-0.84 -3.19)" fill="#231f20"/><path d="M170.79,20.67a2.73,2.73,0,0,1-2.06-.79,3.1,3.1,0,0,1-.75-2.21,3.4,3.4,0,0,1,.7-2.26,2.33,2.33,0,0,1,1.88-.84,2.19,2.19,0,0,1,1.75.73,2.81,2.81,0,0,1,.65,1.92v.56H168.9a2.36,2.36,0,0,0,.53,1.58,1.81,1.81,0,0,0,1.4.54,4.85,4.85,0,0,0,1.88-.4v.79a4.06,4.06,0,0,1-.9.29A5,5,0,0,1,170.79,20.67Zm-.24-5.35a1.45,1.45,0,0,0-1.13.46,2.13,2.13,0,0,0-.49,1.28H172a2,2,0,0,0-.37-1.29A1.33,1.33,0,0,0,170.55,15.32Z" transform="translate(-0.84 -3.19)" fill="#231f20"/><path d="M176.62,23.21a2.09,2.09,0,0,1-.82-.14v-.72a2.64,2.64,0,0,0,.73.11.76.76,0,0,0,.61-.23,1.06,1.06,0,0,0,.2-.7V14.68h.89v6.79C178.23,22.63,177.69,23.21,176.62,23.21Zm.64-10.13a.57.57,0,0,1,.15-.44.52.52,0,0,1,.38-.15.51.51,0,0,1,.37.15.59.59,0,0,1,.15.44.6.6,0,0,1-.15.45.51.51,0,0,1-.37.15.52.52,0,0,1-.38-.15A.6.6,0,0,1,177.26,13.08Z" transform="translate(-0.84 -3.19)" fill="#231f20"/><path d="M185.2,17.62a3.22,3.22,0,0,1-.73,2.25,2.57,2.57,0,0,1-2,.8,2.62,2.62,0,0,1-1.4-.37,2.46,2.46,0,0,1-.95-1.06,3.72,3.72,0,0,1-.33-1.62,3.23,3.23,0,0,1,.72-2.24,2.54,2.54,0,0,1,2-.81,2.51,2.51,0,0,1,2,.82A3.22,3.22,0,0,1,185.2,17.62Zm-4.49,0a2.75,2.75,0,0,0,.46,1.72,1.78,1.78,0,0,0,2.65,0,2.8,2.8,0,0,0,.46-1.72,2.77,2.77,0,0,0-.46-1.71,1.83,1.83,0,0,0-2.66,0A2.78,2.78,0,0,0,180.71,17.62Z" transform="translate(-0.84 -3.19)" fill="#231f20"/><path d="M189.5,14.58a2.17,2.17,0,0,1,1.8.8,3.44,3.44,0,0,1,.65,2.24,3.5,3.5,0,0,1-.65,2.25,2.16,2.16,0,0,1-1.8.8,2.59,2.59,0,0,1-1.05-.21,2.08,2.08,0,0,1-.8-.65h-.06l-.19.76h-.64V12.21h.89v2c0,.45,0,.86,0,1.22h0A2.15,2.15,0,0,1,189.5,14.58Zm-.13.75a1.55,1.55,0,0,0-1.31.52,3,3,0,0,0-.41,1.77,2.89,2.89,0,0,0,.42,1.77,1.56,1.56,0,0,0,1.33.54,1.38,1.38,0,0,0,1.22-.6,3.06,3.06,0,0,0,.4-1.72,3,3,0,0,0-.4-1.72A1.44,1.44,0,0,0,189.37,15.33Z" transform="translate(-0.84 -3.19)" fill="#231f20"/><path d="M20.56,278H16.93V268.1l0-1.63.06-1.78c-.6.6-1,1-1.26,1.18l-2,1.58-1.75-2.18,5.52-4.39h3Z" transform="translate(-0.84 -3.19)" fill="#231f20"/><path d="M27,278,33.43,264H25V260.9H37.28v2.28L30.8,278Z" transform="translate(-0.84 -3.19)" fill="#231f20"/><path d="M42.83,271a4.28,4.28,0,0,1-.53,2.35,1.72,1.72,0,0,1-1.53.8,1.68,1.68,0,0,1-1.49-.81,5.53,5.53,0,0,1,0-4.68,1.69,1.69,0,0,1,1.51-.79,1.71,1.71,0,0,1,1.52.82A4.15,4.15,0,0,1,42.83,271Zm-3.14,0a4.54,4.54,0,0,0,.26,1.74.85.85,0,0,0,.82.58c.75,0,1.12-.77,1.12-2.32s-.37-2.31-1.12-2.31a.85.85,0,0,0-.82.57A4.51,4.51,0,0,0,39.69,271Zm7.39-3-5.54,10h-1l5.54-10Zm1.77,7a4.28,4.28,0,0,1-.53,2.35,1.71,1.71,0,0,1-1.53.8,1.67,1.67,0,0,1-1.49-.81,5.5,5.5,0,0,1,0-4.67,1.67,1.67,0,0,1,1.51-.79,1.72,1.72,0,0,1,1.51.8A4.08,4.08,0,0,1,48.85,275Zm-3.14,0a4.56,4.56,0,0,0,.25,1.75.86.86,0,0,0,.83.58.9.9,0,0,0,.85-.57,4.34,4.34,0,0,0,.27-1.76,4.24,4.24,0,0,0-.27-1.73.9.9,0,0,0-.85-.56.87.87,0,0,0-.83.56A4.48,4.48,0,0,0,45.71,275Z" transform="translate(-0.84 -3.19)" fill="#231f20"/><path d="M57.77,278l-.18-.84h0a2.53,2.53,0,0,1-.88.75,2.69,2.69,0,0,1-1.09.2,2,2,0,0,1-1.38-.45,1.65,1.65,0,0,1-.49-1.29c0-1.18.95-1.81,2.85-1.86l1,0v-.36a1.46,1.46,0,0,0-.3-1,1.2,1.2,0,0,0-.95-.34,3.8,3.8,0,0,0-1.67.46l-.27-.69a4.69,4.69,0,0,1,1-.37,4.12,4.12,0,0,1,1-.13,2.21,2.21,0,0,1,1.56.47,1.93,1.93,0,0,1,.51,1.49v4Zm-2-.63a1.83,1.83,0,0,0,1.31-.45,1.69,1.69,0,0,0,.48-1.28v-.53l-.89,0a3.39,3.39,0,0,0-1.54.33,1,1,0,0,0-.47.92.93.93,0,0,0,.29.73A1.22,1.22,0,0,0,55.75,277.38Z" transform="translate(-0.84 -3.19)" fill="#231f20"/><path d="M63,278.12a2.59,2.59,0,0,1-1-.21,1.92,1.92,0,0,1-.79-.66h-.07a6.84,6.84,0,0,1,.07,1v2.42h-.89v-8.52H61l.12.8h0a2.12,2.12,0,0,1,.8-.7,2.44,2.44,0,0,1,1-.21,2.15,2.15,0,0,1,1.81.8,3.47,3.47,0,0,1,.64,2.24,3.54,3.54,0,0,1-.65,2.26A2.19,2.19,0,0,1,63,278.12Zm-.12-5.35a1.59,1.59,0,0,0-1.31.5,2.54,2.54,0,0,0-.41,1.59v.2a2.94,2.94,0,0,0,.41,1.78,1.6,1.6,0,0,0,1.33.53,1.37,1.37,0,0,0,1.19-.61,2.94,2.94,0,0,0,.43-1.71,2.83,2.83,0,0,0-.43-1.69A1.42,1.42,0,0,0,62.88,272.77Z" transform="translate(-0.84 -3.19)" fill="#231f20"/><path d="M69.75,278.12a2.52,2.52,0,0,1-1-.21,1.89,1.89,0,0,1-.8-.66h-.07a6.84,6.84,0,0,1,.07,1v2.42H67v-8.52h.72l.12.8h.05a2.12,2.12,0,0,1,.8-.7,2.46,2.46,0,0,1,1-.21,2.14,2.14,0,0,1,1.8.8,3.47,3.47,0,0,1,.64,2.24,3.54,3.54,0,0,1-.65,2.26A2.19,2.19,0,0,1,69.75,278.12Zm-.13-5.35a1.59,1.59,0,0,0-1.31.5,2.54,2.54,0,0,0-.41,1.59v.2a3,3,0,0,0,.41,1.78,1.6,1.6,0,0,0,1.33.53,1.37,1.37,0,0,0,1.19-.61,2.94,2.94,0,0,0,.44-1.71,2.83,2.83,0,0,0-.44-1.69A1.42,1.42,0,0,0,69.62,272.77Z" transform="translate(-0.84 -3.19)" fill="#231f20"/><path d="M74.64,278h-.89v-8.36h.89Z" transform="translate(-0.84 -3.19)" fill="#231f20"/><path d="M76.45,270.53a.61.61,0,0,1,.15-.45.56.56,0,0,1,.38-.14.55.55,0,0,1,.37.14.71.71,0,0,1,0,.9.51.51,0,0,1-.37.15.52.52,0,0,1-.38-.15A.61.61,0,0,1,76.45,270.53Zm1,7.48h-.89v-5.88h.89Z" transform="translate(-0.84 -3.19)" fill="#231f20"/><path d="M81.8,278.12a2.7,2.7,0,0,1-2.06-.8,3,3,0,0,1-.76-2.2,3.43,3.43,0,0,1,.7-2.26,2.34,2.34,0,0,1,1.89-.84,2.22,2.22,0,0,1,1.75.73,2.77,2.77,0,0,1,.64,1.92v.56h-4a2.33,2.33,0,0,0,.52,1.57,1.81,1.81,0,0,0,1.4.54,4.68,4.68,0,0,0,1.88-.4v.8a5.1,5.1,0,0,1-.89.29A5,5,0,0,1,81.8,278.12Zm-.24-5.36a1.44,1.44,0,0,0-1.13.47,2,2,0,0,0-.5,1.27H83a2,2,0,0,0-.38-1.29A1.32,1.32,0,0,0,81.56,272.76Z" transform="translate(-0.84 -3.19)" fill="#231f20"/><path d="M89.49,277.22h0a2.09,2.09,0,0,1-1.85.9,2.15,2.15,0,0,1-1.79-.79,3.47,3.47,0,0,1-.65-2.25,3.54,3.54,0,0,1,.65-2.26,2.19,2.19,0,0,1,1.79-.8,2.15,2.15,0,0,1,1.84.87h.07l0-.43,0-.41v-2.4h.89V278h-.72Zm-1.78.15a1.62,1.62,0,0,0,1.32-.49,2.57,2.57,0,0,0,.41-1.61v-.19A2.91,2.91,0,0,0,89,273.3a1.56,1.56,0,0,0-1.32-.54,1.36,1.36,0,0,0-1.2.61,3,3,0,0,0-.42,1.73,3,3,0,0,0,.41,1.7A1.41,1.41,0,0,0,87.71,277.37Z" transform="translate(-0.84 -3.19)" fill="#231f20"/><path d="M97.73,272.82H96.24V278h-.9v-5.19h-1v-.4l1-.33v-.32c0-1.45.64-2.17,1.9-2.17a4.1,4.1,0,0,1,1.1.18l-.24.72a2.94,2.94,0,0,0-.88-.17.84.84,0,0,0-.74.34,1.86,1.86,0,0,0-.24,1.07v.39h1.49Z" transform="translate(-0.84 -3.19)" fill="#231f20"/><path d="M103.89,275.06a3.22,3.22,0,0,1-.73,2.25,2.54,2.54,0,0,1-2,.81,2.62,2.62,0,0,1-1.4-.37,2.51,2.51,0,0,1-1-1.06,3.8,3.8,0,0,1-.33-1.63,3.24,3.24,0,0,1,.72-2.24,2.57,2.57,0,0,1,2-.8,2.47,2.47,0,0,1,2,.82A3.21,3.21,0,0,1,103.89,275.06Zm-4.49,0a2.73,2.73,0,0,0,.46,1.72,1.78,1.78,0,0,0,2.65,0,2.78,2.78,0,0,0,.46-1.72,2.73,2.73,0,0,0-.46-1.7,1.8,1.8,0,0,0-2.66,0A2.73,2.73,0,0,0,99.4,275.06Z" transform="translate(-0.84 -3.19)" fill="#231f20"/><path d="M108.14,272a3.73,3.73,0,0,1,.7.06l-.12.83a3.37,3.37,0,0,0-.65-.08,1.57,1.57,0,0,0-1.22.58,2.11,2.11,0,0,0-.51,1.44V278h-.89v-5.88h.74l.1,1.09h0a2.56,2.56,0,0,1,.79-.89A1.78,1.78,0,0,1,108.14,272Z" transform="translate(-0.84 -3.19)" fill="#231f20"/><path d="M116.42,278l-.18-.84h0a2.45,2.45,0,0,1-.88.75,2.65,2.65,0,0,1-1.09.2,2,2,0,0,1-1.37-.45,1.62,1.62,0,0,1-.5-1.29c0-1.18,1-1.81,2.85-1.86l1,0v-.36a1.46,1.46,0,0,0-.3-1,1.18,1.18,0,0,0-1-.34,3.8,3.8,0,0,0-1.67.46l-.27-.69a4.69,4.69,0,0,1,1-.37,4.17,4.17,0,0,1,1-.13,2.21,2.21,0,0,1,1.56.47,1.93,1.93,0,0,1,.51,1.49v4Zm-2-.63a1.8,1.8,0,0,0,1.3-.45,1.69,1.69,0,0,0,.48-1.28v-.53l-.89,0a3.42,3.42,0,0,0-1.54.33,1,1,0,0,0-.47.92.9.9,0,0,0,.3.73A1.18,1.18,0,0,0,114.41,277.38Z" transform="translate(-0.84 -3.19)" fill="#231f20"/><path d="M124.43,272.82h-1.5V278H122v-5.19H121v-.4l1.05-.33v-.32c0-1.45.63-2.17,1.89-2.17a4,4,0,0,1,1.1.18l-.23.72a3.05,3.05,0,0,0-.88-.17.85.85,0,0,0-.75.34,1.86,1.86,0,0,0-.24,1.07v.39h1.5Z" transform="translate(-0.84 -3.19)" fill="#231f20"/><path d="M126.34,272.13v3.81a1.55,1.55,0,0,0,.33,1.08,1.35,1.35,0,0,0,1,.35,1.68,1.68,0,0,0,1.35-.5,2.53,2.53,0,0,0,.43-1.65v-3.09h.89V278h-.73l-.13-.79h-.05a1.84,1.84,0,0,1-.76.67,2.59,2.59,0,0,1-1.11.23,2.27,2.27,0,0,1-1.61-.51,2.19,2.19,0,0,1-.53-1.63v-3.85Z" transform="translate(-0.84 -3.19)" fill="#231f20"/><path d="M133.15,278h-.9v-8.36h.9Z" transform="translate(-0.84 -3.19)" fill="#231f20"/><path d="M135.93,278H135v-8.36h.89Z" transform="translate(-0.84 -3.19)" fill="#231f20"/><path d="M137.32,275.47v-.82H140v.82Z" transform="translate(-0.84 -3.19)" fill="#231f20"/><path d="M143.26,277.38a3.44,3.44,0,0,0,.46,0l.35-.07V278a2,2,0,0,1-.43.11,3.36,3.36,0,0,1-.51.05q-1.71,0-1.71-1.8v-3.5h-.84v-.43l.84-.37.38-1.26h.51v1.37H144v.69h-1.71v3.46a1.19,1.19,0,0,0,.26.82A.88.88,0,0,0,143.26,277.38Z" transform="translate(-0.84 -3.19)" fill="#231f20"/><path d="M145.17,270.53a.61.61,0,0,1,.15-.45.56.56,0,0,1,.74,0,.71.71,0,0,1,0,.9.53.53,0,0,1-.74,0A.61.61,0,0,1,145.17,270.53Zm1,7.48h-.89v-5.88h.89Z" transform="translate(-0.84 -3.19)" fill="#231f20"/><path d="M155.53,278v-3.83a1.57,1.57,0,0,0-.3-1.05,1.16,1.16,0,0,0-.94-.36,1.52,1.52,0,0,0-1.23.48,2.32,2.32,0,0,0-.4,1.48V278h-.89v-3.83a1.57,1.57,0,0,0-.3-1.05,1.15,1.15,0,0,0-.94-.36,1.45,1.45,0,0,0-1.23.51,2.7,2.7,0,0,0-.38,1.64V278H148v-5.88h.73l.14.8h.05a1.65,1.65,0,0,1,.71-.67,2.17,2.17,0,0,1,1-.24,1.74,1.74,0,0,1,1.8,1h0a1.87,1.87,0,0,1,.77-.73,2.34,2.34,0,0,1,1.14-.27,2,2,0,0,1,1.49.51,2.3,2.3,0,0,1,.5,1.64V278Z" transform="translate(-0.84 -3.19)" fill="#231f20"/><path d="M160.74,278.12a2.7,2.7,0,0,1-2.06-.8,3.07,3.07,0,0,1-.75-2.2,3.38,3.38,0,0,1,.7-2.26,2.32,2.32,0,0,1,1.88-.84,2.2,2.2,0,0,1,1.75.73,2.77,2.77,0,0,1,.65,1.92v.56h-4.06a2.28,2.28,0,0,0,.53,1.57,1.79,1.79,0,0,0,1.39.54,4.64,4.64,0,0,0,1.88-.4v.8a5.1,5.1,0,0,1-.89.29A5,5,0,0,1,160.74,278.12Zm-.24-5.36a1.46,1.46,0,0,0-1.13.47,2.1,2.1,0,0,0-.5,1.27H162a1.91,1.91,0,0,0-.38-1.29A1.31,1.31,0,0,0,160.5,272.76Z" transform="translate(-0.84 -3.19)" fill="#231f20"/><path d="M166.57,280.65a2.16,2.16,0,0,1-.83-.13v-.72a2.67,2.67,0,0,0,.73.1.75.75,0,0,0,.62-.23,1,1,0,0,0,.19-.69v-6.85h.9v6.78C168.18,280.07,167.64,280.65,166.57,280.65Zm.64-10.12a.61.61,0,0,1,.15-.45.54.54,0,0,1,.38-.14.57.57,0,0,1,.37.14.75.75,0,0,1,0,.9.53.53,0,0,1-.37.15.5.5,0,0,1-.38-.15A.61.61,0,0,1,167.21,270.53Z" transform="translate(-0.84 -3.19)" fill="#231f20"/><path d="M175.15,275.06a3.22,3.22,0,0,1-.73,2.25,2.54,2.54,0,0,1-2,.81,2.62,2.62,0,0,1-1.4-.37,2.45,2.45,0,0,1-1-1.06,3.8,3.8,0,0,1-.33-1.63,3.24,3.24,0,0,1,.72-2.24,2.55,2.55,0,0,1,2-.8,2.49,2.49,0,0,1,2,.82A3.21,3.21,0,0,1,175.15,275.06Zm-4.49,0a2.8,2.8,0,0,0,.45,1.72,1.79,1.79,0,0,0,2.66,0,2.78,2.78,0,0,0,.45-1.72,2.74,2.74,0,0,0-.45-1.7,1.8,1.8,0,0,0-2.66,0A2.73,2.73,0,0,0,170.66,275.06Z" transform="translate(-0.84 -3.19)" fill="#231f20"/><path d="M179.45,272a2.18,2.18,0,0,1,1.8.79,3.47,3.47,0,0,1,.64,2.24,3.53,3.53,0,0,1-.64,2.26,2.21,2.21,0,0,1-1.8.8,2.59,2.59,0,0,1-1-.21,2,2,0,0,1-.8-.66h-.06l-.19.76h-.64v-8.36h.89v2c0,.45,0,.86,0,1.22h0A2.11,2.11,0,0,1,179.45,272Zm-.13.74a1.57,1.57,0,0,0-1.32.53,4.07,4.07,0,0,0,0,3.54,1.6,1.6,0,0,0,1.33.53,1.38,1.38,0,0,0,1.23-.6,3.15,3.15,0,0,0,.4-1.72,3,3,0,0,0-.4-1.71A1.43,1.43,0,0,0,179.32,272.77Z" transform="translate(-0.84 -3.19)" fill="#231f20"/><rect x="311.1" y="184" width="89.8" height="32.8" fill="#262b69"/><path d="M371.66,211H361.19v-2.21L365,205c1.11-1.14,1.84-1.94,2.18-2.38a5.37,5.37,0,0,0,.74-1.22,3.17,3.17,0,0,0,.23-1.17,1.7,1.7,0,0,0-.5-1.34,1.91,1.91,0,0,0-1.33-.44,3.9,3.9,0,0,0-1.69.39,8.75,8.75,0,0,0-1.71,1.14l-1.73-2a11,11,0,0,1,1.84-1.33,6.55,6.55,0,0,1,1.59-.6,8.15,8.15,0,0,1,1.93-.21,5.75,5.75,0,0,1,2.48.51,3.93,3.93,0,0,1,1.67,1.44,3.77,3.77,0,0,1,.59,2.11,5.19,5.19,0,0,1-.36,1.94,7.19,7.19,0,0,1-1.13,1.86,26,26,0,0,1-2.69,2.72l-1.93,1.82v.14h6.53Z" transform="translate(-0.84 -3.19)" fill="#fff"/><path d="M372.86,204.62q0-4.45,1.88-6.63a7.09,7.09,0,0,1,5.64-2.17,10.55,10.55,0,0,1,2,.15v2.54a8,8,0,0,0-1.81-.21,6.32,6.32,0,0,0-2.66.49,3.31,3.31,0,0,0-1.54,1.46,6.54,6.54,0,0,0-.61,2.74h.13a3.51,3.51,0,0,1,3.26-1.75,4,4,0,0,1,3.14,1.27,5,5,0,0,1,1.14,3.48,5.24,5.24,0,0,1-1.35,3.8,5,5,0,0,1-3.76,1.4,5.29,5.29,0,0,1-2.89-.77,5,5,0,0,1-1.91-2.24A8.54,8.54,0,0,1,372.86,204.62Zm5.41,4a1.88,1.88,0,0,0,1.56-.68,3.1,3.1,0,0,0,.55-1.95,2.65,2.65,0,0,0-.51-1.72,1.86,1.86,0,0,0-1.54-.63,2.31,2.31,0,0,0-1.64.62,1.9,1.9,0,0,0-.68,1.46,3.29,3.29,0,0,0,.64,2.06A2,2,0,0,0,378.27,208.66Z" transform="translate(-0.84 -3.19)" fill="#fff"/><path d="M389.91,195.8a5.71,5.71,0,0,1,3.47,1,3.11,3.11,0,0,1,1.32,2.64,3.49,3.49,0,0,1-.64,2.05,5.47,5.47,0,0,1-2.05,1.6,7.28,7.28,0,0,1,2.41,1.88,3.5,3.5,0,0,1,.74,2.15,3.59,3.59,0,0,1-1.45,3,6,6,0,0,1-3.8,1.12,6.42,6.42,0,0,1-3.87-1,3.48,3.48,0,0,1-1.4-3,3.87,3.87,0,0,1,.68-2.27,5.58,5.58,0,0,1,2.19-1.76,5.67,5.67,0,0,1-1.85-1.73,3.87,3.87,0,0,1-.56-2,3.12,3.12,0,0,1,1.33-2.61A5.7,5.7,0,0,1,389.91,195.8ZM387.57,207a1.65,1.65,0,0,0,.61,1.37,2.62,2.62,0,0,0,1.69.49,2.68,2.68,0,0,0,1.76-.5,1.69,1.69,0,0,0,.58-1.34,1.82,1.82,0,0,0-.58-1.29,7.51,7.51,0,0,0-1.88-1.28C388.3,205.12,387.57,206,387.57,207Zm2.32-8.88a2,2,0,0,0-1.31.41,1.39,1.39,0,0,0-.5,1.12,1.68,1.68,0,0,0,.4,1.1,4.35,4.35,0,0,0,1.43,1,4.06,4.06,0,0,0,1.4-1,1.72,1.72,0,0,0,.4-1.13,1.35,1.35,0,0,0-.51-1.12A2,2,0,0,0,389.89,198.12Z" transform="translate(-0.84 -3.19)" fill="#fff"/><path d="M319,177l-1-2.5h-3.15l-1,2.5h-.93l3.11-7.89h.77l3.09,7.89Zm-1.26-3.32-.92-2.44c-.11-.3-.24-.68-.36-1.13a9.88,9.88,0,0,1-.34,1.13l-.92,2.44Z" transform="translate(-0.84 -3.19)" fill="#231f20"/><path d="M323.59,177.09a2.59,2.59,0,0,1-1-.21,2,2,0,0,1-.8-.65h-.06a8.44,8.44,0,0,1,.06,1v2.42h-.89V171.1h.73l.12.8h0a2.07,2.07,0,0,1,.8-.69,2.38,2.38,0,0,1,1-.22,2.2,2.2,0,0,1,1.81.8A3.56,3.56,0,0,1,326,174a3.5,3.5,0,0,1-.64,2.25A2.16,2.16,0,0,1,323.59,177.09Zm-.13-5.34a1.57,1.57,0,0,0-1.3.5,2.56,2.56,0,0,0-.42,1.59v.2a2.89,2.89,0,0,0,.42,1.77,1.54,1.54,0,0,0,1.32.54,1.39,1.39,0,0,0,1.2-.62,2.91,2.91,0,0,0,.43-1.7,2.79,2.79,0,0,0-.43-1.69A1.42,1.42,0,0,0,323.46,171.75Z" transform="translate(-0.84 -3.19)" fill="#231f20"/><path d="M330.33,177.09a2.59,2.59,0,0,1-1.05-.21,2,2,0,0,1-.8-.65h-.06a8.44,8.44,0,0,1,.06,1v2.42h-.89V171.1h.73l.12.8h0a2.07,2.07,0,0,1,.8-.69,2.38,2.38,0,0,1,1.05-.22,2.2,2.2,0,0,1,1.81.8,3.56,3.56,0,0,1,.63,2.25,3.5,3.5,0,0,1-.64,2.25A2.16,2.16,0,0,1,330.33,177.09Zm-.13-5.34a1.58,1.58,0,0,0-1.3.5,2.56,2.56,0,0,0-.42,1.59v.2a2.89,2.89,0,0,0,.42,1.77,1.54,1.54,0,0,0,1.32.54,1.39,1.39,0,0,0,1.2-.62,2.91,2.91,0,0,0,.43-1.7,2.79,2.79,0,0,0-.43-1.69A1.42,1.42,0,0,0,330.2,171.75Z" transform="translate(-0.84 -3.19)" fill="#231f20"/><path d="M335.22,177h-.89v-8.36h.89Z" transform="translate(-0.84 -3.19)" fill="#231f20"/><path d="M337,169.5a.57.57,0,0,1,.15-.44.52.52,0,0,1,.38-.15.53.53,0,0,1,.37.15.57.57,0,0,1,.15.44.61.61,0,0,1-.15.45.53.53,0,0,1-.37.15.52.52,0,0,1-.38-.15A.61.61,0,0,1,337,169.5Zm1,7.49h-.9V171.1h.9Z" transform="translate(-0.84 -3.19)" fill="#231f20"/><path d="M342.38,177.09a2.71,2.71,0,0,1-2.06-.79,3.1,3.1,0,0,1-.75-2.21,3.4,3.4,0,0,1,.7-2.26,2.32,2.32,0,0,1,1.88-.84,2.2,2.2,0,0,1,1.75.73,2.79,2.79,0,0,1,.65,1.92v.56h-4.06a2.36,2.36,0,0,0,.53,1.58,1.79,1.79,0,0,0,1.4.53,4.84,4.84,0,0,0,1.88-.39v.79a4.06,4.06,0,0,1-.9.29A5,5,0,0,1,342.38,177.09Zm-.24-5.35a1.45,1.45,0,0,0-1.13.46,2.13,2.13,0,0,0-.5,1.28h3.08a2,2,0,0,0-.37-1.29A1.33,1.33,0,0,0,342.14,171.74Z" transform="translate(-0.84 -3.19)" fill="#231f20"/><path d="M350.07,176.2h0a2.12,2.12,0,0,1-1.85.89,2.18,2.18,0,0,1-1.8-.79,3.44,3.44,0,0,1-.64-2.24,3.58,3.58,0,0,1,.64-2.26,2.17,2.17,0,0,1,1.8-.81,2.15,2.15,0,0,1,1.84.87h.07l0-.42,0-.42v-2.39h.89V177h-.73Zm-1.78.15a1.65,1.65,0,0,0,1.33-.5,2.54,2.54,0,0,0,.41-1.6v-.19a2.94,2.94,0,0,0-.42-1.79,1.6,1.6,0,0,0-1.33-.53,1.36,1.36,0,0,0-1.2.61,3,3,0,0,0-.42,1.72,2.86,2.86,0,0,0,.42,1.7A1.38,1.38,0,0,0,348.29,176.35Z" transform="translate(-0.84 -3.19)" fill="#231f20"/><path d="M358.32,171.79h-1.5V177h-.89v-5.2h-1.05v-.4l1.05-.32v-.33c0-1.45.63-2.17,1.9-2.17a3.73,3.73,0,0,1,1.09.19l-.23.71a2.94,2.94,0,0,0-.88-.16.87.87,0,0,0-.75.33,1.87,1.87,0,0,0-.24,1.08v.38h1.5Z" transform="translate(-0.84 -3.19)" fill="#231f20"/><path d="M364.47,174a3.23,3.23,0,0,1-.72,2.24,2.54,2.54,0,0,1-2,.81,2.65,2.65,0,0,1-1.41-.37,2.44,2.44,0,0,1-.94-1.06,3.72,3.72,0,0,1-.33-1.62,3.27,3.27,0,0,1,.72-2.25,2.82,2.82,0,0,1,4,0A3.27,3.27,0,0,1,364.47,174ZM360,174a2.82,2.82,0,0,0,.45,1.72,1.57,1.57,0,0,0,1.33.59,1.6,1.6,0,0,0,1.33-.59,2.8,2.8,0,0,0,.45-1.72,2.77,2.77,0,0,0-.45-1.71,1.6,1.6,0,0,0-1.34-.58,1.56,1.56,0,0,0-1.32.57A2.78,2.78,0,0,0,360,174Z" transform="translate(-0.84 -3.19)" fill="#231f20"/><path d="M368.72,171a3.11,3.11,0,0,1,.71.07l-.13.82a3.28,3.28,0,0,0-.64-.08,1.57,1.57,0,0,0-1.22.58,2.12,2.12,0,0,0-.51,1.45V177H366V171.1h.73l.11,1.09h0a2.65,2.65,0,0,1,.79-.89A1.82,1.82,0,0,1,368.72,171Z" transform="translate(-0.84 -3.19)" fill="#231f20"/><path d="M377,177l-.17-.84h0a2.53,2.53,0,0,1-.88.75,2.75,2.75,0,0,1-1.1.19,2,2,0,0,1-1.37-.45,1.65,1.65,0,0,1-.5-1.28c0-1.19.95-1.81,2.86-1.87l1,0v-.37a1.48,1.48,0,0,0-.29-1,1.24,1.24,0,0,0-1-.33,3.88,3.88,0,0,0-1.66.45l-.27-.68a3.84,3.84,0,0,1,.95-.37,4.07,4.07,0,0,1,1-.14,2.26,2.26,0,0,1,1.56.47,1.94,1.94,0,0,1,.51,1.5v4Zm-2-.63a1.79,1.79,0,0,0,1.31-.46,1.67,1.67,0,0,0,.47-1.28v-.53l-.89,0a3.1,3.1,0,0,0-1.53.33,1,1,0,0,0-.47.91.91.91,0,0,0,.29.73A1.22,1.22,0,0,0,375,176.36Z" transform="translate(-0.84 -3.19)" fill="#231f20"/><path d="M385,171.79h-1.5V177h-.89v-5.2h-1.05v-.4l1.05-.32v-.33c0-1.45.64-2.17,1.9-2.17a3.79,3.79,0,0,1,1.1.19l-.24.71a2.89,2.89,0,0,0-.88-.16.86.86,0,0,0-.74.33,1.87,1.87,0,0,0-.25,1.08v.38H385Z" transform="translate(-0.84 -3.19)" fill="#231f20"/><path d="M386.93,171.1v3.82a1.55,1.55,0,0,0,.32,1.07,1.33,1.33,0,0,0,1,.36,1.65,1.65,0,0,0,1.35-.51,2.49,2.49,0,0,0,.43-1.65V171.1H391V177h-.74l-.13-.79h0a1.8,1.8,0,0,1-.76.66,2.51,2.51,0,0,1-1.11.23,2.24,2.24,0,0,1-1.61-.51A2.15,2.15,0,0,1,386,175V171.1Z" transform="translate(-0.84 -3.19)" fill="#231f20"/><path d="M393.73,177h-.89v-8.36h.89Z" transform="translate(-0.84 -3.19)" fill="#231f20"/><path d="M396.51,177h-.89v-8.36h.89Z" transform="translate(-0.84 -3.19)" fill="#231f20"/><path d="M397.91,174.45v-.82h2.64v.82Z" transform="translate(-0.84 -3.19)" fill="#231f20"/><path d="M403.84,176.36a2.32,2.32,0,0,0,.46,0,3.56,3.56,0,0,0,.35-.07v.68a1.51,1.51,0,0,1-.43.12,3,3,0,0,1-.5,0q-1.71,0-1.71-1.8v-3.5h-.85v-.43L402,171l.37-1.26h.52v1.37h1.71v.69H402.9v3.47a1.17,1.17,0,0,0,.25.81A.88.88,0,0,0,403.84,176.36Z" transform="translate(-0.84 -3.19)" fill="#231f20"/><path d="M405.75,169.5a.57.57,0,0,1,.15-.44.52.52,0,0,1,.38-.15.53.53,0,0,1,.37.15.57.57,0,0,1,.15.44.61.61,0,0,1-.15.45.53.53,0,0,1-.37.15.52.52,0,0,1-.38-.15A.61.61,0,0,1,405.75,169.5Zm1,7.49h-.89V171.1h.89Z" transform="translate(-0.84 -3.19)" fill="#231f20"/><path d="M416.11,177v-3.83a1.61,1.61,0,0,0-.3-1.06,1.17,1.17,0,0,0-.93-.35,1.49,1.49,0,0,0-1.23.48,2.24,2.24,0,0,0-.4,1.47V177h-.89v-3.83a1.61,1.61,0,0,0-.3-1.06,1.19,1.19,0,0,0-.94-.35,1.47,1.47,0,0,0-1.23.5,2.74,2.74,0,0,0-.39,1.65V177h-.89V171.1h.72l.15.8h0a1.91,1.91,0,0,1,.71-.67,2.2,2.2,0,0,1,1-.24,1.76,1.76,0,0,1,1.81,1h0a1.91,1.91,0,0,1,.76-.73A2.4,2.4,0,0,1,415,171a2,2,0,0,1,1.5.51,2.33,2.33,0,0,1,.49,1.65V177Z" transform="translate(-0.84 -3.19)" fill="#231f20"/><path d="M421.33,177.09a2.7,2.7,0,0,1-2.06-.79,3.06,3.06,0,0,1-.76-2.21,3.45,3.45,0,0,1,.7-2.26,2.34,2.34,0,0,1,1.89-.84,2.22,2.22,0,0,1,1.75.73,2.78,2.78,0,0,1,.64,1.92v.56h-4.05a2.35,2.35,0,0,0,.52,1.58,1.8,1.8,0,0,0,1.4.53,4.84,4.84,0,0,0,1.88-.39v.79a4,4,0,0,1-.89.29A5,5,0,0,1,421.33,177.09Zm-.24-5.35a1.43,1.43,0,0,0-1.13.46,2.07,2.07,0,0,0-.5,1.28h3.08a2,2,0,0,0-.38-1.29A1.32,1.32,0,0,0,421.09,171.74Z" transform="translate(-0.84 -3.19)" fill="#231f20"/><path d="M427.15,179.63a2.09,2.09,0,0,1-.82-.14v-.72a2.64,2.64,0,0,0,.73.11.76.76,0,0,0,.61-.23,1.06,1.06,0,0,0,.2-.7V171.1h.89v6.79C428.76,179.05,428.23,179.63,427.15,179.63Zm.64-10.13a.57.57,0,0,1,.15-.44.52.52,0,0,1,.38-.15.51.51,0,0,1,.37.15.57.57,0,0,1,.16.44.61.61,0,0,1-.16.45.51.51,0,0,1-.37.15.52.52,0,0,1-.38-.15A.61.61,0,0,1,427.79,169.5Z" transform="translate(-0.84 -3.19)" fill="#231f20"/><path d="M435.73,174a3.23,3.23,0,0,1-.72,2.24,2.55,2.55,0,0,1-2,.81,2.64,2.64,0,0,1-1.4-.37,2.44,2.44,0,0,1-.94-1.06,3.72,3.72,0,0,1-.34-1.62,3.27,3.27,0,0,1,.72-2.25,2.57,2.57,0,0,1,2-.8,2.53,2.53,0,0,1,2,.82A3.27,3.27,0,0,1,435.73,174Zm-4.48,0a2.82,2.82,0,0,0,.45,1.72,1.57,1.57,0,0,0,1.33.59,1.6,1.6,0,0,0,1.33-.59,2.8,2.8,0,0,0,.45-1.72,2.77,2.77,0,0,0-.45-1.71,1.84,1.84,0,0,0-2.67,0A2.85,2.85,0,0,0,431.25,174Z" transform="translate(-0.84 -3.19)" fill="#231f20"/><path d="M440,171a2.21,2.21,0,0,1,1.8.79,3.54,3.54,0,0,1,.64,2.25,3.5,3.5,0,0,1-.65,2.25,2.16,2.16,0,0,1-1.79.8,2.52,2.52,0,0,1-1.05-.21,1.94,1.94,0,0,1-.8-.65h-.07l-.19.76h-.63v-8.36h.89v2c0,.45,0,.86-.05,1.22h.05A2.13,2.13,0,0,1,440,171Zm-.13.75a1.56,1.56,0,0,0-1.32.52,4.07,4.07,0,0,0,0,3.54,1.58,1.58,0,0,0,1.33.54,1.37,1.37,0,0,0,1.22-.6,3.08,3.08,0,0,0,.41-1.72,3,3,0,0,0-.41-1.72A1.43,1.43,0,0,0,439.91,171.75Z" transform="translate(-0.84 -3.19)" fill="#231f20"/><rect x="311.03" y="68" width="163.07" height="32.8" fill="#00aeef"/><path d="M446.66,96H436.19V93.78L440,90c1.11-1.14,1.84-1.94,2.18-2.38a5.37,5.37,0,0,0,.74-1.22,3.17,3.17,0,0,0,.23-1.17,1.7,1.7,0,0,0-.5-1.34,1.91,1.91,0,0,0-1.33-.44,3.78,3.78,0,0,0-1.69.4A8.25,8.25,0,0,0,437.87,85l-1.73-2A11,11,0,0,1,438,81.59a6.55,6.55,0,0,1,1.59-.6,8.15,8.15,0,0,1,1.93-.21,5.75,5.75,0,0,1,2.48.51,3.93,3.93,0,0,1,1.67,1.44,3.77,3.77,0,0,1,.59,2.11,5.19,5.19,0,0,1-.36,1.94,7.19,7.19,0,0,1-1.13,1.86,26,26,0,0,1-2.69,2.72l-1.93,1.82v.14h6.53Z" transform="translate(-0.84 -3.19)" fill="#fff"/><path d="M458.38,87.39c0,3-.62,5.16-1.87,6.62s-3.12,2.18-5.65,2.18a11.26,11.26,0,0,1-2-.14V93.5a7.18,7.18,0,0,0,1.81.22,6.31,6.31,0,0,0,2.61-.47,3.28,3.28,0,0,0,1.57-1.46,6.61,6.61,0,0,0,.63-2.76h-.13A3.42,3.42,0,0,1,454,90.39a4.34,4.34,0,0,1-1.95.39,3.92,3.92,0,0,1-3.08-1.26A5,5,0,0,1,447.8,86a5.17,5.17,0,0,1,1.37-3.81,5,5,0,0,1,3.72-1.4,5.37,5.37,0,0,1,2.91.78,5,5,0,0,1,1.91,2.26A8.49,8.49,0,0,1,458.38,87.39Zm-5.42-4a1.88,1.88,0,0,0-1.54.68,3,3,0,0,0-.56,1.95,2.67,2.67,0,0,0,.51,1.72,1.8,1.8,0,0,0,1.52.64,2.33,2.33,0,0,0,1.65-.63,1.93,1.93,0,0,0,.69-1.45,3.27,3.27,0,0,0-.64-2.06A2,2,0,0,0,453,83.36Z" transform="translate(-0.84 -3.19)" fill="#fff"/><path d="M467.57,96H464.4V87.31l0-1.42.05-1.56c-.53.52-.9.87-1.1,1l-1.72,1.39-1.53-1.91L465,81h2.6Z" transform="translate(-0.84 -3.19)" fill="#fff"/><path d="M320.29,57a4,4,0,0,1-1.05,3,4.22,4.22,0,0,1-3,1H314V53.13h2.41A3.52,3.52,0,0,1,320.29,57Zm-1,0a3.14,3.14,0,0,0-.78-2.32,3.07,3.07,0,0,0-2.29-.78h-1.32V60.2h1.11a3.34,3.34,0,0,0,2.45-.81A3.15,3.15,0,0,0,319.33,57Z" transform="translate(-0.84 -3.19)" fill="#231f20"/><path d="M321.83,53.5a.57.57,0,0,1,.15-.44.52.52,0,0,1,.38-.15.51.51,0,0,1,.37.15.59.59,0,0,1,.16.44.6.6,0,0,1-.16.45.51.51,0,0,1-.37.15A.52.52,0,0,1,322,54,.6.6,0,0,1,321.83,53.5Zm1,7.49h-.89V55.1h.89Z" transform="translate(-0.84 -3.19)" fill="#231f20"/><path d="M328.7,60.2h-.05a2.11,2.11,0,0,1-1.85.89A2.15,2.15,0,0,1,325,60.3a3.44,3.44,0,0,1-.65-2.24A3.52,3.52,0,0,1,325,55.8a2.38,2.38,0,0,1,3.63.06h.07l0-.42,0-.42V52.63h.89V61h-.72Zm-1.79.15a1.65,1.65,0,0,0,1.33-.5,2.54,2.54,0,0,0,.41-1.6v-.19a2.94,2.94,0,0,0-.42-1.79,1.59,1.59,0,0,0-1.33-.53,1.36,1.36,0,0,0-1.2.61,3.08,3.08,0,0,0-.41,1.72,2.86,2.86,0,0,0,.41,1.7A1.39,1.39,0,0,0,326.91,60.35Z" transform="translate(-0.84 -3.19)" fill="#231f20"/><path d="M335.46,61V57.18a1.55,1.55,0,0,0-.33-1.08,1.35,1.35,0,0,0-1-.35,1.72,1.72,0,0,0-1.36.5,2.55,2.55,0,0,0-.43,1.65V61h-.89V55.1h.73l.14.81h0a1.89,1.89,0,0,1,.77-.68,2.5,2.5,0,0,1,1.1-.24,2.23,2.23,0,0,1,1.6.51,2.2,2.2,0,0,1,.54,1.65V61Z" transform="translate(-0.84 -3.19)" fill="#231f20"/><path d="M338.9,53.13l.08.12c-.1.36-.23.78-.4,1.25s-.36.92-.55,1.32h-.66c.25-1,.44-1.91.55-2.69Z" transform="translate(-0.84 -3.19)" fill="#231f20"/><path d="M342,60.36a2.32,2.32,0,0,0,.46,0,1.94,1.94,0,0,0,.35-.07v.68a1.51,1.51,0,0,1-.43.12,3.16,3.16,0,0,1-.51,0c-1.13,0-1.7-.6-1.7-1.8v-3.5h-.85v-.43l.85-.37.37-1.25H341V55.1h1.71v.69H341v3.47a1.17,1.17,0,0,0,.25.81A.88.88,0,0,0,342,60.36Z" transform="translate(-0.84 -3.19)" fill="#231f20"/><path d="M350.41,61l-.17-.84h-.05a2.37,2.37,0,0,1-.88.75,2.66,2.66,0,0,1-1.09.19,2,2,0,0,1-1.37-.45,1.65,1.65,0,0,1-.5-1.28c0-1.19.95-1.81,2.85-1.87l1,0v-.37a1.53,1.53,0,0,0-.29-1,1.24,1.24,0,0,0-1-.33,3.88,3.88,0,0,0-1.66.45l-.28-.68a4.45,4.45,0,0,1,2-.51,2.26,2.26,0,0,1,1.56.47,2,2,0,0,1,.5,1.5v4Zm-2-.63a1.81,1.81,0,0,0,1.31-.46,1.71,1.71,0,0,0,.47-1.28v-.53l-.89,0a3.1,3.1,0,0,0-1.53.33,1,1,0,0,0-.47.91.92.92,0,0,0,.29.74A1.25,1.25,0,0,0,348.4,60.36Z" transform="translate(-0.84 -3.19)" fill="#231f20"/><path d="M355.65,61.09a2.59,2.59,0,0,1-1-.21,2,2,0,0,1-.8-.65h-.06a8.44,8.44,0,0,1,.06,1v2.42h-.89V55.1h.73l.12.81h0a2,2,0,0,1,.8-.7,2.38,2.38,0,0,1,1-.22,2.2,2.2,0,0,1,1.81.8,3.56,3.56,0,0,1,.63,2.25,3.5,3.5,0,0,1-.64,2.25A2.16,2.16,0,0,1,355.65,61.09Zm-.13-5.34a1.57,1.57,0,0,0-1.3.5,2.56,2.56,0,0,0-.42,1.59V58a2.89,2.89,0,0,0,.42,1.77,1.54,1.54,0,0,0,1.32.54,1.39,1.39,0,0,0,1.2-.62,2.91,2.91,0,0,0,.43-1.7,2.79,2.79,0,0,0-.43-1.69A1.44,1.44,0,0,0,355.52,55.75Z" transform="translate(-0.84 -3.19)" fill="#231f20"/><path d="M362.39,61.09a2.59,2.59,0,0,1-1.05-.21,2,2,0,0,1-.8-.65h-.06a8.44,8.44,0,0,1,.06,1v2.42h-.89V55.1h.73l.12.81h0a2,2,0,0,1,.8-.7,2.38,2.38,0,0,1,1.05-.22,2.2,2.2,0,0,1,1.81.8,3.56,3.56,0,0,1,.63,2.25,3.5,3.5,0,0,1-.64,2.25A2.16,2.16,0,0,1,362.39,61.09Zm-.13-5.34a1.58,1.58,0,0,0-1.3.5,2.56,2.56,0,0,0-.42,1.59V58a2.89,2.89,0,0,0,.42,1.77,1.54,1.54,0,0,0,1.32.54,1.39,1.39,0,0,0,1.2-.62,2.91,2.91,0,0,0,.43-1.7,2.79,2.79,0,0,0-.43-1.69A1.44,1.44,0,0,0,362.26,55.75Z" transform="translate(-0.84 -3.19)" fill="#231f20"/><path d="M367.28,61h-.89V52.63h.89Z" transform="translate(-0.84 -3.19)" fill="#231f20"/><path d="M368.24,55.1h1l1.28,3.36a11.89,11.89,0,0,1,.53,1.66h0c.05-.19.15-.5.3-.94s.63-1.8,1.45-4.08h1l-2.53,6.7a3.2,3.2,0,0,1-.88,1.41,1.84,1.84,0,0,1-1.23.42,3.72,3.72,0,0,1-.81-.09v-.72a2.73,2.73,0,0,0,.66.07,1.38,1.38,0,0,0,1.32-1l.32-.84Z" transform="translate(-0.84 -3.19)" fill="#231f20"/><path d="M380.23,55.79h-1.5V61h-.89v-5.2h-1v-.4l1-.32v-.33c0-1.45.63-2.17,1.89-2.17a3.79,3.79,0,0,1,1.1.19l-.23.71a3,3,0,0,0-.88-.16.87.87,0,0,0-.75.33,1.9,1.9,0,0,0-.24,1.08v.38h1.5Z" transform="translate(-0.84 -3.19)" fill="#231f20"/><path d="M386.38,58a3.27,3.27,0,0,1-.72,2.25,2.57,2.57,0,0,1-2,.8,2.65,2.65,0,0,1-1.41-.37,2.44,2.44,0,0,1-.94-1.06A3.72,3.72,0,0,1,381,58a3.22,3.22,0,0,1,.73-2.25,2.82,2.82,0,0,1,4,0A3.27,3.27,0,0,1,386.38,58Zm-4.48,0a2.82,2.82,0,0,0,.45,1.72,1.57,1.57,0,0,0,1.33.59,1.6,1.6,0,0,0,1.33-.59,2.8,2.8,0,0,0,.45-1.72,2.77,2.77,0,0,0-.45-1.71,1.84,1.84,0,0,0-2.67,0A2.85,2.85,0,0,0,381.9,58Z" transform="translate(-0.84 -3.19)" fill="#231f20"/><path d="M390.63,55a3,3,0,0,1,.7.07l-.12.82a3.28,3.28,0,0,0-.64-.08,1.57,1.57,0,0,0-1.22.58,2.12,2.12,0,0,0-.51,1.45V61H388V55.1h.73l.1,1.09h.05a2.65,2.65,0,0,1,.79-.89A1.8,1.8,0,0,1,390.63,55Z" transform="translate(-0.84 -3.19)" fill="#231f20"/><path d="M398.91,61l-.17-.84h-.05a2.43,2.43,0,0,1-.87.75,2.75,2.75,0,0,1-1.1.19,2,2,0,0,1-1.37-.45,1.65,1.65,0,0,1-.5-1.28c0-1.19.95-1.81,2.86-1.87l1,0v-.37a1.48,1.48,0,0,0-.29-1,1.24,1.24,0,0,0-1-.33,3.88,3.88,0,0,0-1.66.45l-.28-.68a4.45,4.45,0,0,1,2-.51,2.26,2.26,0,0,1,1.56.47,1.94,1.94,0,0,1,.51,1.5v4Zm-2-.63a1.79,1.79,0,0,0,1.31-.46,1.71,1.71,0,0,0,.47-1.28v-.53l-.89,0a3.1,3.1,0,0,0-1.53.33,1,1,0,0,0-.47.91,1,1,0,0,0,.29.74A1.27,1.27,0,0,0,396.9,60.36Z" transform="translate(-0.84 -3.19)" fill="#231f20"/><path d="M406.92,55.79h-1.5V61h-.89v-5.2h-1v-.4l1-.32v-.33c0-1.45.64-2.17,1.9-2.17a3.68,3.68,0,0,1,1.09.19l-.23.71a2.89,2.89,0,0,0-.88-.16.86.86,0,0,0-.74.33,1.81,1.81,0,0,0-.25,1.08v.38h1.5Z" transform="translate(-0.84 -3.19)" fill="#231f20"/><path d="M408.83,55.1v3.82a1.51,1.51,0,0,0,.33,1.07,1.33,1.33,0,0,0,1,.36,1.68,1.68,0,0,0,1.35-.51,2.56,2.56,0,0,0,.42-1.65V55.1h.9V61h-.74L412,60.2h-.05a1.69,1.69,0,0,1-.76.66,2.45,2.45,0,0,1-1.11.23,2.23,2.23,0,0,1-1.6-.51,2.15,2.15,0,0,1-.54-1.63V55.1Z" transform="translate(-0.84 -3.19)" fill="#231f20"/><path d="M415.64,61h-.89V52.63h.89Z" transform="translate(-0.84 -3.19)" fill="#231f20"/><path d="M418.42,61h-.89V52.63h.89Z" transform="translate(-0.84 -3.19)" fill="#231f20"/><path d="M419.82,58.45v-.82h2.64v.82Z" transform="translate(-0.84 -3.19)" fill="#231f20"/><path d="M425.75,60.36a2.32,2.32,0,0,0,.46,0,1.94,1.94,0,0,0,.35-.07v.68a1.51,1.51,0,0,1-.43.12,3.25,3.25,0,0,1-.51,0c-1.13,0-1.7-.6-1.7-1.8v-3.5h-.85v-.43l.85-.37.37-1.25h.52V55.1h1.71v.69h-1.71v3.47a1.17,1.17,0,0,0,.25.81A.88.88,0,0,0,425.75,60.36Z" transform="translate(-0.84 -3.19)" fill="#231f20"/><path d="M427.66,53.5a.57.57,0,0,1,.15-.44.52.52,0,0,1,.38-.15.53.53,0,0,1,.37.15.59.59,0,0,1,.15.44.6.6,0,0,1-.15.45.53.53,0,0,1-.37.15.52.52,0,0,1-.38-.15A.6.6,0,0,1,427.66,53.5Zm1,7.49h-.89V55.1h.89Z" transform="translate(-0.84 -3.19)" fill="#231f20"/><path d="M438,61V57.16a1.61,1.61,0,0,0-.3-1.06,1.17,1.17,0,0,0-.93-.35,1.49,1.49,0,0,0-1.23.48,2.24,2.24,0,0,0-.4,1.47V61h-.89V57.16a1.61,1.61,0,0,0-.3-1.06,1.19,1.19,0,0,0-.94-.35,1.47,1.47,0,0,0-1.23.5,2.74,2.74,0,0,0-.39,1.65V61h-.89V55.1h.72l.15.81h0a1.86,1.86,0,0,1,.71-.68,2.2,2.2,0,0,1,1-.24A1.77,1.77,0,0,1,435,56h0a1.85,1.85,0,0,1,.76-.73,2.34,2.34,0,0,1,1.14-.27,2,2,0,0,1,1.5.51,2.33,2.33,0,0,1,.49,1.65V61Z" transform="translate(-0.84 -3.19)" fill="#231f20"/><path d="M443.24,61.09a2.7,2.7,0,0,1-2.06-.79,3.06,3.06,0,0,1-.76-2.21,3.45,3.45,0,0,1,.7-2.26A2.34,2.34,0,0,1,443,55a2.22,2.22,0,0,1,1.75.73,2.8,2.8,0,0,1,.64,1.92v.56h-4a2.3,2.3,0,0,0,.52,1.58,1.8,1.8,0,0,0,1.4.53,4.84,4.84,0,0,0,1.88-.39v.79a3.9,3.9,0,0,1-.9.29A4.91,4.91,0,0,1,443.24,61.09ZM443,55.74a1.47,1.47,0,0,0-1.14.46,2.13,2.13,0,0,0-.49,1.28h3.08a2,2,0,0,0-.38-1.29A1.32,1.32,0,0,0,443,55.74Z" transform="translate(-0.84 -3.19)" fill="#231f20"/><path d="M449.06,63.63a2.09,2.09,0,0,1-.82-.14v-.72a2.64,2.64,0,0,0,.73.11.76.76,0,0,0,.61-.23,1.06,1.06,0,0,0,.2-.7V55.1h.89v6.79C450.67,63.05,450.13,63.63,449.06,63.63Zm.64-10.13a.57.57,0,0,1,.15-.44.52.52,0,0,1,.38-.15.51.51,0,0,1,.37.15.59.59,0,0,1,.16.44.6.6,0,0,1-.16.45.51.51,0,0,1-.37.15.52.52,0,0,1-.38-.15A.6.6,0,0,1,449.7,53.5Z" transform="translate(-0.84 -3.19)" fill="#231f20"/><path d="M457.64,58a3.27,3.27,0,0,1-.72,2.25,2.59,2.59,0,0,1-2,.8,2.64,2.64,0,0,1-1.4-.37,2.38,2.38,0,0,1-.94-1.06,3.58,3.58,0,0,1-.34-1.62,3.27,3.27,0,0,1,.72-2.25,2.57,2.57,0,0,1,2-.8,2.51,2.51,0,0,1,2,.82A3.22,3.22,0,0,1,457.64,58Zm-4.48,0a2.82,2.82,0,0,0,.45,1.72,1.78,1.78,0,0,0,2.65,0,2.73,2.73,0,0,0,.46-1.72,2.7,2.7,0,0,0-.46-1.71,1.83,1.83,0,0,0-2.66,0A2.85,2.85,0,0,0,453.16,58Z" transform="translate(-0.84 -3.19)" fill="#231f20"/><path d="M461.94,55a2.22,2.22,0,0,1,1.81.79,3.54,3.54,0,0,1,.64,2.25,3.5,3.5,0,0,1-.65,2.25,2.16,2.16,0,0,1-1.8.8,2.59,2.59,0,0,1-1.05-.21,2,2,0,0,1-.79-.65H460l-.19.76h-.63V52.63h.89v2c0,.45,0,.86-.05,1.22h.05A2.12,2.12,0,0,1,461.94,55Zm-.12.75a1.56,1.56,0,0,0-1.32.52,3,3,0,0,0-.4,1.77,2.9,2.9,0,0,0,.41,1.77,1.58,1.58,0,0,0,1.33.54,1.38,1.38,0,0,0,1.22-.6,3.06,3.06,0,0,0,.4-1.72,3,3,0,0,0-.4-1.72A1.43,1.43,0,0,0,461.82,55.75Z" transform="translate(-0.84 -3.19)" fill="#231f20"/><path d="M561.08,153h-12v-2.52l4.31-4.35c1.27-1.31,2.1-2.21,2.49-2.71a6.46,6.46,0,0,0,.85-1.4,3.62,3.62,0,0,0,.25-1.34,2,2,0,0,0-.57-1.54,2.2,2.2,0,0,0-1.51-.5,4.32,4.32,0,0,0-1.94.46,10,10,0,0,0-2,1.3l-2-2.33a12.68,12.68,0,0,1,2.1-1.53,8,8,0,0,1,1.81-.68,9.33,9.33,0,0,1,2.2-.24,6.52,6.52,0,0,1,2.84.58,4.52,4.52,0,0,1,1.91,1.64,4.41,4.41,0,0,1,.68,2.42,5.85,5.85,0,0,1-.42,2.22,8.42,8.42,0,0,1-1.28,2.13,32.9,32.9,0,0,1-3.08,3.1l-2.2,2.07v.17h7.46Z" transform="translate(-0.84 -3.19)" fill="#231f20"/><path d="M574.11,139.69a4,4,0,0,1-1,2.73,5,5,0,0,1-2.73,1.54V144a5.43,5.43,0,0,1,3.14,1.26,3.54,3.54,0,0,1,1.07,2.7,4.56,4.56,0,0,1-1.8,3.85,8.23,8.23,0,0,1-5.12,1.38,12.33,12.33,0,0,1-4.94-.93v-3.08A10.69,10.69,0,0,0,565,150a9.26,9.26,0,0,0,2.37.32,4.55,4.55,0,0,0,2.64-.61,2.25,2.25,0,0,0,.86-2,1.77,1.77,0,0,0-1-1.71,7.36,7.36,0,0,0-3.14-.5h-1.3v-2.78h1.33a6.11,6.11,0,0,0,2.91-.52,1.89,1.89,0,0,0,.92-1.79c0-1.29-.81-1.94-2.44-1.94a5.46,5.46,0,0,0-1.71.28,8.33,8.33,0,0,0-1.94,1l-1.68-2.5a9.34,9.34,0,0,1,5.59-1.68,7.22,7.22,0,0,1,4.2,1.08A3.43,3.43,0,0,1,574.11,139.69Z" transform="translate(-0.84 -3.19)" fill="#231f20"/><path d="M575.9,150.5V149h3.15v1.46Z" transform="translate(-0.84 -3.19)" fill="#231f20"/><path d="M583.94,153.1a2.19,2.19,0,0,1-1.81-.83H582c.07.54.1.86.1.94v2.66h-1.79v-9.43h1.45l.26.84h.08a2.09,2.09,0,0,1,1.86-1,2.12,2.12,0,0,1,1.81.9,4.14,4.14,0,0,1,.66,2.49,4.78,4.78,0,0,1-.31,1.82,2.51,2.51,0,0,1-.88,1.18A2.21,2.21,0,0,1,583.94,153.1Zm-.53-5.36a1.15,1.15,0,0,0-1,.41,2.38,2.38,0,0,0-.31,1.34v.2a2.77,2.77,0,0,0,.31,1.51,1.13,1.13,0,0,0,1,.46c.81,0,1.21-.66,1.21-2a2.78,2.78,0,0,0-.3-1.45A1,1,0,0,0,583.41,147.74Z" transform="translate(-0.84 -3.19)" fill="#231f20"/><path d="M593.89,149.7a3.48,3.48,0,0,1-.85,2.5,3.05,3.05,0,0,1-2.35.9,3.25,3.25,0,0,1-1.66-.41,2.78,2.78,0,0,1-1.11-1.19,4,4,0,0,1-.38-1.8,3.56,3.56,0,0,1,.83-2.5,3.11,3.11,0,0,1,2.36-.89,3.32,3.32,0,0,1,1.66.41,2.81,2.81,0,0,1,1.11,1.18A3.92,3.92,0,0,1,593.89,149.7Zm-4.53,0a2.67,2.67,0,0,0,.32,1.47,1.32,1.32,0,0,0,2.07,0,2.77,2.77,0,0,0,.31-1.47,2.7,2.7,0,0,0-.32-1.46,1.34,1.34,0,0,0-2.07,0A2.71,2.71,0,0,0,589.36,149.7Z" transform="translate(-0.84 -3.19)" fill="#231f20"/><path d="M595.29,144.74c0-.58.32-.87,1-.87s1,.29,1,.87a.87.87,0,0,1-.24.65,1,1,0,0,1-.73.23C595.61,145.62,595.29,145.33,595.29,144.74Zm1.86,8.25h-1.79v-6.55h1.79Z" transform="translate(-0.84 -3.19)" fill="#231f20"/><path d="M605.07,153h-1.78v-3.83a1.8,1.8,0,0,0-.26-1.06.89.89,0,0,0-.8-.36,1.2,1.2,0,0,0-1.08.5,3,3,0,0,0-.34,1.66V153H599v-6.55h1.36l.24.83h.1a2,2,0,0,1,.82-.71,2.71,2.71,0,0,1,1.2-.25,2.28,2.28,0,0,1,1.73.62,2.45,2.45,0,0,1,.59,1.78Z" transform="translate(-0.84 -3.19)" fill="#231f20"/><path d="M609.67,151.68a3.79,3.79,0,0,0,1.13-.21v1.33a4,4,0,0,1-1.64.3,2,2,0,0,1-1.56-.54,2.33,2.33,0,0,1-.49-1.62v-3.16h-.86V147l1-.6.51-1.38h1.14v1.4h1.84v1.34h-1.84v3.16a.68.68,0,0,0,.22.56A.84.84,0,0,0,609.67,151.68Z" transform="translate(-0.84 -3.19)" fill="#231f20"/><path d="M619.35,151.2a1.64,1.64,0,0,1-.64,1.41,3.2,3.2,0,0,1-1.92.48,6,6,0,0,1-1.12-.09,3.44,3.44,0,0,1-.86-.26v-1.35a6.06,6.06,0,0,0,1,.36,4.11,4.11,0,0,0,1,.15c.6,0,.89-.18.89-.52a.45.45,0,0,0-.11-.31,1.51,1.51,0,0,0-.41-.28c-.2-.1-.45-.22-.78-.35a5.18,5.18,0,0,1-1-.54,1.59,1.59,0,0,1-.48-.57,1.86,1.86,0,0,1-.14-.79,1.4,1.4,0,0,1,.62-1.23,2.94,2.94,0,0,1,1.75-.44,5.11,5.11,0,0,1,2.12.47l-.5,1.18a8.07,8.07,0,0,0-.84-.31,2.44,2.44,0,0,0-.8-.13c-.48,0-.73.13-.73.39a.44.44,0,0,0,.24.38,5.56,5.56,0,0,0,1,.48,5,5,0,0,1,1,.53,1.54,1.54,0,0,1,.48.58A1.64,1.64,0,0,1,619.35,151.2Z" transform="translate(-0.84 -3.19)" fill="#231f20"/><path d="M623,153.09c-1.87,0-2.81-1-2.81-3.07a3.28,3.28,0,0,1,.77-2.34,2.83,2.83,0,0,1,2.18-.81,4.05,4.05,0,0,1,1.87.41l-.48,1.26c-.26-.1-.5-.19-.72-.25a2.22,2.22,0,0,0-.67-.1c-.85,0-1.28.6-1.28,1.82s.43,1.76,1.28,1.76a3.06,3.06,0,0,0,.88-.13,3.28,3.28,0,0,0,.8-.39v1.4a2.67,2.67,0,0,1-.8.35A4.82,4.82,0,0,1,623,153.09Z" transform="translate(-0.84 -3.19)" fill="#231f20"/><path d="M631.52,150a3.28,3.28,0,0,1-.77,2.3,2.83,2.83,0,0,1-2.16.82,2.93,2.93,0,0,1-1.52-.38,2.54,2.54,0,0,1-1-1.08,3.79,3.79,0,0,1-.35-1.66,3.19,3.19,0,0,1,.77-2.28,2.8,2.8,0,0,1,2.16-.82,3,3,0,0,1,1.52.37,2.54,2.54,0,0,1,1,1.08A3.71,3.71,0,0,1,631.52,150Zm-4.15,0a2.55,2.55,0,0,0,.29,1.35,1.05,1.05,0,0,0,1,.46,1,1,0,0,0,.94-.46,2.55,2.55,0,0,0,.29-1.35,2.48,2.48,0,0,0-.29-1.33,1.24,1.24,0,0,0-1.9,0A2.52,2.52,0,0,0,627.37,150Z" transform="translate(-0.84 -3.19)" fill="#231f20"/><path d="M636.12,146.87a2.19,2.19,0,0,1,.55,0l-.12,1.53a2.31,2.31,0,0,0-.49,0,1.73,1.73,0,0,0-1.22.4,1.48,1.48,0,0,0-.44,1.13V153h-1.63v-6H634l.24,1h.08a2.17,2.17,0,0,1,.75-.81A1.86,1.86,0,0,1,636.12,146.87Z" transform="translate(-0.84 -3.19)" fill="#231f20"/><path d="M640.37,153.09a3.08,3.08,0,0,1-2.27-.8,3,3,0,0,1-.81-2.26,3.36,3.36,0,0,1,.75-2.34,3.08,3.08,0,0,1,4.07-.1,2.77,2.77,0,0,1,.71,2v.79H639a1.52,1.52,0,0,0,.41,1.09,1.46,1.46,0,0,0,1.08.39,4.28,4.28,0,0,0,1-.11,4.56,4.56,0,0,0,1-.36v1.27a4,4,0,0,1-.92.32A5.81,5.81,0,0,1,640.37,153.09Zm-.23-5.06a1,1,0,0,0-.82.33,1.54,1.54,0,0,0-.34.94h2.3a1.37,1.37,0,0,0-.32-.94A1.06,1.06,0,0,0,640.14,148Z" transform="translate(-0.84 -3.19)" fill="#231f20"/><path d="M652,147v.83l-.94.25a1.54,1.54,0,0,1,.26.9,1.81,1.81,0,0,1-.67,1.5,2.93,2.93,0,0,1-1.87.54h-.3l-.24,0a.54.54,0,0,0-.25.43q0,.36.9.36h1a2.31,2.31,0,0,1,1.5.42,1.51,1.51,0,0,1,.52,1.25,1.85,1.85,0,0,1-.87,1.63,4.58,4.58,0,0,1-2.53.58,3.54,3.54,0,0,1-1.92-.44A1.39,1.39,0,0,1,646,154a1.25,1.25,0,0,1,.34-.9,1.92,1.92,0,0,1,1-.53,1,1,0,0,1-.44-.35.86.86,0,0,1,0-1.09,2.66,2.66,0,0,1,.58-.45,1.53,1.53,0,0,1-.75-.65,2,2,0,0,1-.28-1.06,1.85,1.85,0,0,1,.64-1.52,2.76,2.76,0,0,1,1.83-.54,4.85,4.85,0,0,1,.6,0l.44.07Zm-4.63,6.85a.61.61,0,0,0,.32.54,1.79,1.79,0,0,0,.91.19,3.23,3.23,0,0,0,1.38-.24.72.72,0,0,0,.5-.66.48.48,0,0,0-.29-.47,2.33,2.33,0,0,0-.91-.13h-.85a1.29,1.29,0,0,0-.76.21A.66.66,0,0,0,647.38,153.83ZM648,149a1.22,1.22,0,0,0,.23.77.81.81,0,0,0,.68.29.79.79,0,0,0,.67-.29,1.21,1.21,0,0,0,.22-.77c0-.73-.3-1.09-.89-1.09S648,148.22,648,149Z" transform="translate(-0.84 -3.19)" fill="#231f20"/><path d="M656.71,153l-.32-.82h0a2.23,2.23,0,0,1-.85.72,2.65,2.65,0,0,1-1.14.2,1.85,1.85,0,0,1-1.36-.49,1.91,1.91,0,0,1-.5-1.41,1.59,1.59,0,0,1,.67-1.41,3.9,3.9,0,0,1,2-.5l1,0V149a.82.82,0,0,0-.93-.91,4.32,4.32,0,0,0-1.7.44l-.54-1.11a4.91,4.91,0,0,1,2.3-.54,2.85,2.85,0,0,1,1.85.52,2,2,0,0,1,.65,1.6v4Zm-.49-2.79-.63,0a2.11,2.11,0,0,0-1.07.25.82.82,0,0,0-.35.72c0,.46.27.7.8.7a1.26,1.26,0,0,0,.91-.33,1.15,1.15,0,0,0,.34-.87Z" transform="translate(-0.84 -3.19)" fill="#231f20"/><path d="M662.72,153.09a2,2,0,0,1-1.66-.76H661c0,.5.08.79.08.86v2.44h-1.64V147h1.34l.23.78h.07a1.91,1.91,0,0,1,1.71-.89,1.94,1.94,0,0,1,1.66.82A3.81,3.81,0,0,1,665,150a4.46,4.46,0,0,1-.28,1.67,2.33,2.33,0,0,1-.8,1.08A2.06,2.06,0,0,1,662.72,153.09Zm-.48-4.91a1,1,0,0,0-.89.37,2.22,2.22,0,0,0-.29,1.23V150a2.55,2.55,0,0,0,.29,1.39,1,1,0,0,0,.91.42c.74,0,1.1-.61,1.1-1.82a2.62,2.62,0,0,0-.27-1.33A.93.93,0,0,0,662.24,148.18Z" transform="translate(-0.84 -3.19)" fill="#231f20"/><line x1="478.07" y1="82.76" x2="516.87" y2="82.76" fill="none" stroke="#231f20" stroke-miterlimit="10" stroke-width="0.5"/><line x1="404.87" y1="199.96" x2="517.67" y2="199.96" fill="none" stroke="#231f20" stroke-miterlimit="10" stroke-width="0.5"/><path d="M320.27,20.39l-1-2.78h-3.82l-1,2.78h-1.73l3.74-10h1.78l3.74,10Zm-1.42-4.19-.94-2.72c-.07-.18-.16-.47-.28-.86s-.21-.68-.25-.86a18.82,18.82,0,0,1-.54,1.84l-.91,2.6Z" transform="translate(-0.84 -3.19)" fill="#231f20"/><path d="M329,10.39h1.7l-3.5,10H325.5l-3.49-10h1.68l2.09,6.22c.11.29.22.67.35,1.14s.2.82.24,1a12,12,0,0,1,.27-1.2c.12-.46.22-.79.3-1Z" transform="translate(-0.84 -3.19)" fill="#231f20"/><path d="M337.69,20.39H332v-10h5.65v1.38h-4v2.72h3.77v1.37h-3.77V19h4Z" transform="translate(-0.84 -3.19)" fill="#231f20"/><path d="M341.49,16.39v4h-1.64v-10h2.83a4.58,4.58,0,0,1,2.86.73,2.59,2.59,0,0,1,.93,2.18A2.73,2.73,0,0,1,344.53,16l2.82,4.43h-1.86l-2.39-4Zm0-1.35h1.13a2.65,2.65,0,0,0,1.66-.42,1.55,1.55,0,0,0,.51-1.26,1.36,1.36,0,0,0-.56-1.22,3,3,0,0,0-1.66-.37h-1.08Z" transform="translate(-0.84 -3.19)" fill="#231f20"/><path d="M355,20.39l-1-2.78h-3.82l-1,2.78h-1.72l3.74-10H353l3.74,10Zm-1.43-4.19-.93-2.72c-.07-.18-.17-.47-.29-.86s-.2-.68-.25-.86a14.54,14.54,0,0,1-.54,1.84l-.9,2.6Z" transform="translate(-0.84 -3.19)" fill="#231f20"/><path d="M362.14,15h3.68v5a10.09,10.09,0,0,1-1.73.42,12.54,12.54,0,0,1-1.8.12,4.51,4.51,0,0,1-3.5-1.34,5.4,5.4,0,0,1-1.23-3.79A5.08,5.08,0,0,1,359,11.61a5.22,5.22,0,0,1,3.82-1.36,7.44,7.44,0,0,1,3,.6l-.57,1.36a5.89,5.89,0,0,0-2.44-.56,3.29,3.29,0,0,0-2.53,1,3.87,3.87,0,0,0-.93,2.74,4.1,4.1,0,0,0,.84,2.79,3.05,3.05,0,0,0,2.41.95,7.54,7.54,0,0,0,1.7-.2V16.37h-2.08Z" transform="translate(-0.84 -3.19)" fill="#231f20"/><path d="M373.88,20.39h-5.66v-10h5.66v1.38h-4v2.72h3.76v1.37h-3.76V19h4Z" transform="translate(-0.84 -3.19)" fill="#231f20"/><path d="M381.31,16.39v4h-1.64v-10h2.83a4.58,4.58,0,0,1,2.86.73,2.59,2.59,0,0,1,.93,2.18A2.73,2.73,0,0,1,384.35,16l2.82,4.43h-1.86l-2.39-4Zm0-1.35h1.13a2.59,2.59,0,0,0,1.65-.42,1.53,1.53,0,0,0,.52-1.26,1.36,1.36,0,0,0-.56-1.22,3.07,3.07,0,0,0-1.66-.37h-1.08Z" transform="translate(-0.84 -3.19)" fill="#231f20"/><path d="M394.27,20.39h-5.65v-10h5.65v1.38h-4v2.72H394v1.37h-3.77V19h4Z" transform="translate(-0.84 -3.19)" fill="#231f20"/><path d="M402.63,20.39l-1-2.78h-3.83l-1,2.78h-1.73l3.74-10h1.78l3.74,10Zm-1.42-4.19-.94-2.72c-.07-.18-.16-.47-.28-.86s-.21-.68-.25-.86a18.82,18.82,0,0,1-.54,1.84l-.91,2.6Z" transform="translate(-0.84 -3.19)" fill="#231f20"/><path d="M413.82,15.29a5,5,0,0,1-1.38,3.79,5.5,5.5,0,0,1-3.95,1.31h-2.8v-10h3.09a5.09,5.09,0,0,1,3.71,1.29A4.76,4.76,0,0,1,413.82,15.29Zm-1.73.06c0-2.39-1.11-3.59-3.35-3.59h-1.42V19h1.17Q412.09,19,412.09,15.35Z" transform="translate(-0.84 -3.19)" fill="#231f20"/><path d="M416,20.39v-10h1.64v10Z" transform="translate(-0.84 -3.19)" fill="#231f20"/><path d="M428.56,20.39h-2l-4.92-8h-.05l0,.45c.07.84.1,1.62.1,2.32v5.2h-1.48v-10h2l4.9,7.93h0c0-.11,0-.49-.05-1.15s0-1.17,0-1.54V10.39h1.49Z" transform="translate(-0.84 -3.19)" fill="#231f20"/><path d="M435.29,15H439v5a10,10,0,0,1-1.74.42,12.5,12.5,0,0,1-1.79.12,4.49,4.49,0,0,1-3.5-1.34,5.4,5.4,0,0,1-1.23-3.79,5,5,0,0,1,1.39-3.78,5.2,5.2,0,0,1,3.82-1.36,7.42,7.42,0,0,1,3,.6l-.57,1.36a5.81,5.81,0,0,0-2.43-.56,3.28,3.28,0,0,0-2.53,1,3.87,3.87,0,0,0-.93,2.74,4.15,4.15,0,0,0,.83,2.79,3.08,3.08,0,0,0,2.42.95,7.46,7.46,0,0,0,1.69-.2V16.37h-2.07Z" transform="translate(-0.84 -3.19)" fill="#231f20"/><path d="M450.77,17.67a2.51,2.51,0,0,1-1,2.09,4.17,4.17,0,0,1-2.66.76,6.34,6.34,0,0,1-2.77-.52V18.45a7.53,7.53,0,0,0,1.45.51,6.29,6.29,0,0,0,1.43.18,2.23,2.23,0,0,0,1.43-.37,1.19,1.19,0,0,0,.47-1,1.26,1.26,0,0,0-.43-1,6.11,6.11,0,0,0-1.75-.92A4.65,4.65,0,0,1,445,14.64a2.67,2.67,0,0,1-.56-1.7,2.4,2.4,0,0,1,.89-2,3.68,3.68,0,0,1,2.39-.72,7,7,0,0,1,2.86.63l-.52,1.33a6.35,6.35,0,0,0-2.38-.56,1.86,1.86,0,0,0-1.21.35,1.14,1.14,0,0,0-.41.91,1.24,1.24,0,0,0,.17.66,1.71,1.71,0,0,0,.54.53,9.65,9.65,0,0,0,1.35.65,7.39,7.39,0,0,1,1.61.85,2.46,2.46,0,0,1,.76.9A2.66,2.66,0,0,1,450.77,17.67Z" transform="translate(-0.84 -3.19)" fill="#231f20"/><path d="M457,11.65a2.67,2.67,0,0,0-2.21,1,4.23,4.23,0,0,0-.81,2.75,4.3,4.3,0,0,0,.78,2.79,2.74,2.74,0,0,0,2.24.94,5.46,5.46,0,0,0,1.23-.13c.4-.08.81-.19,1.24-.32v1.4a7.4,7.4,0,0,1-2.67.44,4.26,4.26,0,0,1-3.37-1.33,5.56,5.56,0,0,1-1.17-3.8,6.16,6.16,0,0,1,.57-2.73,4.09,4.09,0,0,1,1.65-1.79,5.06,5.06,0,0,1,2.54-.62,6.29,6.29,0,0,1,2.83.64l-.59,1.36a9.15,9.15,0,0,0-1.07-.42A3.9,3.9,0,0,0,457,11.65Z" transform="translate(-0.84 -3.19)" fill="#231f20"/><path d="M470.45,15.38a5.48,5.48,0,0,1-1.22,3.79,5.15,5.15,0,0,1-6.94,0,5.54,5.54,0,0,1-1.21-3.82,5.44,5.44,0,0,1,1.22-3.8,4.52,4.52,0,0,1,3.48-1.32,4.4,4.4,0,0,1,3.45,1.34A5.47,5.47,0,0,1,470.45,15.38Zm-7.63,0a4.54,4.54,0,0,0,.74,2.8,3,3,0,0,0,4.41,0,4.53,4.53,0,0,0,.74-2.81,4.49,4.49,0,0,0-.74-2.79,2.57,2.57,0,0,0-2.19-.95,2.61,2.61,0,0,0-2.21.95A4.42,4.42,0,0,0,462.82,15.38Z" transform="translate(-0.84 -3.19)" fill="#231f20"/><path d="M474.23,16.39v4h-1.64v-10h2.83a4.58,4.58,0,0,1,2.86.73,2.59,2.59,0,0,1,.93,2.18A2.73,2.73,0,0,1,477.27,16l2.82,4.43h-1.86l-2.39-4Zm0-1.35h1.13a2.65,2.65,0,0,0,1.66-.42,1.55,1.55,0,0,0,.51-1.26,1.36,1.36,0,0,0-.56-1.22,3,3,0,0,0-1.66-.37h-1.08Z" transform="translate(-0.84 -3.19)" fill="#231f20"/><path d="M487.19,20.39h-5.65v-10h5.65v1.38h-4v2.72h3.77v1.37h-3.77V19h4Z" transform="translate(-0.84 -3.19)" fill="#231f20"/></svg>