<svg id="Layer_1" data-name="Layer 1" xmlns="http://www.w3.org/2000/svg" width="341.13" height="236.48" viewBox="0 0 341.13 236.48"><title>PrepArticle1_FullTimeJob_Achieve</title><path d="M114.16,26.91a4.31,4.31,0,0,1-1,3A3.33,3.33,0,0,1,110.55,31a3.4,3.4,0,0,1-2.67-1.06,4.37,4.37,0,0,1-.95-3,4.29,4.29,0,0,1,.95-3,3.42,3.42,0,0,1,2.68-1.06A3.36,3.36,0,0,1,113.21,24,4.31,4.31,0,0,1,114.16,26.91Zm-6.26,0a3.73,3.73,0,0,0,.68,2.42,2.76,2.76,0,0,0,4,0,3.78,3.78,0,0,0,.66-2.42,3.75,3.75,0,0,0-.66-2.4,2.37,2.37,0,0,0-2-.82,2.41,2.41,0,0,0-2,.82A3.71,3.71,0,0,0,107.9,26.91Z" transform="translate(-0.25 -5.15)" fill="#231f20"/><path d="M118.43,25.66h-1.5v5.19H116V25.66H115v-.41l1.06-.32V24.6c0-1.44.63-2.17,1.89-2.17a4.1,4.1,0,0,1,1.1.19l-.23.71a3,3,0,0,0-.88-.16.87.87,0,0,0-.75.33,1.92,1.92,0,0,0-.24,1.08V25h1.5Z" transform="translate(-0.25 -5.15)" fill="#231f20"/><path d="M124.26,30.22a3.44,3.44,0,0,0,.46,0l.35-.08v.69a2,2,0,0,1-.43.11,3.36,3.36,0,0,1-.51.05q-1.71,0-1.71-1.8v-3.5h-.84v-.43l.84-.37.38-1.26h.52V25H125v.7h-1.7v3.46a1.2,1.2,0,0,0,.25.82A.88.88,0,0,0,124.26,30.22Z" transform="translate(-0.25 -5.15)" fill="#231f20"/><path d="M130.27,30.85V27a1.51,1.51,0,0,0-.33-1.07,1.3,1.3,0,0,0-1-.36,1.69,1.69,0,0,0-1.36.51,2.57,2.57,0,0,0-.43,1.65v3.08h-.89V22.49h.89V25a5.35,5.35,0,0,1,0,.76h.06a1.79,1.79,0,0,1,.74-.67,2.51,2.51,0,0,1,1.11-.24,2.28,2.28,0,0,1,1.62.51,2.15,2.15,0,0,1,.54,1.63v3.84Z" transform="translate(-0.25 -5.15)" fill="#231f20"/><path d="M135.48,31a2.7,2.7,0,0,1-2.06-.8,3.08,3.08,0,0,1-.75-2.21,3.41,3.41,0,0,1,.7-2.26,2.31,2.31,0,0,1,1.88-.83,2.23,2.23,0,0,1,1.75.72,2.81,2.81,0,0,1,.65,1.92v.57h-4.06a2.34,2.34,0,0,0,.52,1.57,1.82,1.82,0,0,0,1.4.54,4.64,4.64,0,0,0,1.88-.4v.8a5.1,5.1,0,0,1-.89.29A5,5,0,0,1,135.48,31Zm-.24-5.36a1.48,1.48,0,0,0-1.13.46,2.16,2.16,0,0,0-.5,1.28h3.08a2,2,0,0,0-.38-1.29A1.32,1.32,0,0,0,135.24,25.6Z" transform="translate(-0.25 -5.15)" fill="#231f20"/><path d="M156,30.85h-5.43V16l0-2.44.09-2.68c-.9.91-1.53,1.5-1.88,1.78l-3,2.37-2.62-3.27,8.28-6.59H156Z" transform="translate(-0.25 -5.15)" fill="#262b69"/><path d="M165.62,30.85l9.65-21.09H162.59V5.19H181V8.6l-9.72,22.25Z" transform="translate(-0.25 -5.15)" fill="#262b69"/><path d="M191.06,18.83a6.64,6.64,0,0,1-1,4.05A3.64,3.64,0,0,1,187,24.23a3.52,3.52,0,0,1-3-1.39,6.56,6.56,0,0,1-1.06-4q0-5.35,4.05-5.36a3.59,3.59,0,0,1,3,1.39A6.49,6.49,0,0,1,191.06,18.83Zm-5.19,0a6.9,6.9,0,0,0,.26,2.22c.18.49.46.73.85.73.75,0,1.13-1,1.13-2.95s-.38-2.93-1.13-2.93c-.39,0-.67.24-.85.72A6.79,6.79,0,0,0,185.87,18.85Zm13.25-5.13-9.5,17.13H186.8l9.51-17.13Zm3.94,12a6.61,6.61,0,0,1-1,4A3.64,3.64,0,0,1,199,31.06a3.52,3.52,0,0,1-3-1.39,6.53,6.53,0,0,1-1.06-4q0-5.35,4.05-5.36a3.62,3.62,0,0,1,3,1.39A6.49,6.49,0,0,1,203.06,25.67Zm-5.19,0a6.82,6.82,0,0,0,.26,2.22c.18.49.46.74.85.74.75,0,1.13-1,1.13-3s-.38-2.93-1.13-2.93c-.39,0-.67.24-.85.72A6.79,6.79,0,0,0,197.87,25.69Z" transform="translate(-0.25 -5.15)" fill="#262b69"/><path d="M95.78,41.9a3.22,3.22,0,0,1-.73,2.25,2.54,2.54,0,0,1-2,.81,2.71,2.71,0,0,1-1.4-.37,2.48,2.48,0,0,1-1-1.07,3.72,3.72,0,0,1-.33-1.62,3.23,3.23,0,0,1,.72-2.24,2.52,2.52,0,0,1,2-.8,2.47,2.47,0,0,1,2,.82A3.2,3.2,0,0,1,95.78,41.9Zm-4.49,0a2.8,2.8,0,0,0,.45,1.72,1.79,1.79,0,0,0,2.66,0,2.78,2.78,0,0,0,.45-1.72,2.72,2.72,0,0,0-.45-1.7,1.59,1.59,0,0,0-1.34-.59,1.56,1.56,0,0,0-1.32.58A2.73,2.73,0,0,0,91.29,41.9Z" transform="translate(-0.25 -5.15)" fill="#231f20"/><path d="M100,39.66H98.5v5.19h-.9V39.66h-1v-.41l1-.32V38.6c0-1.44.64-2.17,1.9-2.17a4.16,4.16,0,0,1,1.1.19l-.24.72a2.65,2.65,0,0,0-.88-.17.86.86,0,0,0-.74.33,1.92,1.92,0,0,0-.24,1.08V39H100Z" transform="translate(-0.25 -5.15)" fill="#231f20"/><path d="M108.74,39v.57l-1.09.13a1.86,1.86,0,0,1,.27.49,1.83,1.83,0,0,1,.12.68,1.74,1.74,0,0,1-.59,1.38,2.35,2.35,0,0,1-1.62.52,3.9,3.9,0,0,1-.5,0,.87.87,0,0,0-.57.75.4.4,0,0,0,.2.36,1.39,1.39,0,0,0,.68.12h1a2.36,2.36,0,0,1,1.47.4,1.41,1.41,0,0,1,.51,1.17,1.66,1.66,0,0,1-.79,1.49,4.19,4.19,0,0,1-2.28.51,3.08,3.08,0,0,1-1.78-.43,1.37,1.37,0,0,1-.63-1.21,1.35,1.35,0,0,1,.34-.93,1.77,1.77,0,0,1,1-.53,1,1,0,0,1-.38-.32.84.84,0,0,1-.15-.5,1,1,0,0,1,.17-.56,2,2,0,0,1,.54-.47,1.57,1.57,0,0,1-.74-.64,1.88,1.88,0,0,1-.29-1,1.92,1.92,0,0,1,.58-1.49,2.38,2.38,0,0,1,1.65-.52,3.1,3.1,0,0,1,.83.1Zm-4.69,6.88a.78.78,0,0,0,.4.72,2.2,2.2,0,0,0,1.16.25,3.14,3.14,0,0,0,1.66-.34,1,1,0,0,0,.54-.91.72.72,0,0,0-.3-.66,2.28,2.28,0,0,0-1.11-.19h-1.07a1.36,1.36,0,0,0-.94.3A1,1,0,0,0,104.05,45.84Zm.48-5a1.2,1.2,0,0,0,.35.93,1.4,1.4,0,0,0,1,.32,1.14,1.14,0,0,0,1.31-1.27,1.17,1.17,0,0,0-1.32-1.32,1.34,1.34,0,0,0-1,.33A1.4,1.4,0,0,0,104.53,40.85Z" transform="translate(-0.25 -5.15)" fill="#231f20"/><path d="M112.64,38.86a3.73,3.73,0,0,1,.7.06l-.12.83a2.73,2.73,0,0,0-.65-.08,1.57,1.57,0,0,0-1.22.58,2.1,2.1,0,0,0-.51,1.44v3.16H110V39h.74l.1,1.09h0a2.61,2.61,0,0,1,.79-.88A1.78,1.78,0,0,1,112.64,38.86Z" transform="translate(-0.25 -5.15)" fill="#231f20"/><path d="M118.06,44.85l-.17-.84h0a2.37,2.37,0,0,1-.88.75,2.65,2.65,0,0,1-1.09.2,2,2,0,0,1-1.37-.45,1.66,1.66,0,0,1-.5-1.29c0-1.19,1-1.81,2.85-1.87l1,0V41a1.49,1.49,0,0,0-.3-1,1.2,1.2,0,0,0-1-.33,3.88,3.88,0,0,0-1.66.45l-.28-.68a4.28,4.28,0,0,1,2-.5,2.25,2.25,0,0,1,1.56.46,2,2,0,0,1,.5,1.5v4Zm-2-.63a1.81,1.81,0,0,0,1.31-.46,1.7,1.7,0,0,0,.47-1.27V42l-.89,0a3.34,3.34,0,0,0-1.53.33,1,1,0,0,0-.47.91.92.92,0,0,0,.29.74A1.2,1.2,0,0,0,116.05,44.22Z" transform="translate(-0.25 -5.15)" fill="#231f20"/><path d="M124.57,44.06h0a2.09,2.09,0,0,1-1.85.9,2.21,2.21,0,0,1-1.8-.79,4.26,4.26,0,0,1,0-4.51,2.39,2.39,0,0,1,3.63.07h.07l0-.43,0-.41v-2.4h.89v8.36h-.72Zm-1.79.15a1.65,1.65,0,0,0,1.33-.5,2.52,2.52,0,0,0,.41-1.6v-.19a2.91,2.91,0,0,0-.42-1.78,1.58,1.58,0,0,0-1.33-.54,1.38,1.38,0,0,0-1.2.61,3.1,3.1,0,0,0-.41,1.72,2.9,2.9,0,0,0,.41,1.71A1.41,1.41,0,0,0,122.78,44.21Z" transform="translate(-0.25 -5.15)" fill="#231f20"/><path d="M129.79,45a2.7,2.7,0,0,1-2.06-.8A3,3,0,0,1,127,42a3.48,3.48,0,0,1,.7-2.27,2.33,2.33,0,0,1,1.89-.83,2.24,2.24,0,0,1,1.75.72A2.8,2.8,0,0,1,132,41.5v.57h-4a2.34,2.34,0,0,0,.52,1.57,1.81,1.81,0,0,0,1.4.54,4.68,4.68,0,0,0,1.88-.4v.8a5.39,5.39,0,0,1-.89.29A5,5,0,0,1,129.79,45Zm-.24-5.36a1.47,1.47,0,0,0-1.13.46,2.1,2.1,0,0,0-.5,1.28H131a2,2,0,0,0-.38-1.29A1.32,1.32,0,0,0,129.55,39.6Z" transform="translate(-0.25 -5.15)" fill="#231f20"/><path d="M139.22,44.85h-.87v-5.6c0-.46,0-.9.05-1.32l-.25.24-1.28,1-.48-.61,2.08-1.6h.75Z" transform="translate(-0.25 -5.15)" fill="#231f20"/><path d="M147.37,44.85h-5.16v-.77L144.28,42a16.49,16.49,0,0,0,1.25-1.36,3.42,3.42,0,0,0,.45-.8,2.23,2.23,0,0,0,.15-.83,1.35,1.35,0,0,0-.38-1,1.5,1.5,0,0,0-1.06-.36,2.6,2.6,0,0,0-.93.16,3.69,3.69,0,0,0-1,.58l-.48-.6a3.65,3.65,0,0,1,2.37-.91,2.49,2.49,0,0,1,1.73.57A2,2,0,0,1,147,39a3,3,0,0,1-.42,1.48,9.35,9.35,0,0,1-1.57,1.85L143.33,44v0h4Z" transform="translate(-0.25 -5.15)" fill="#231f20"/><path d="M155.56,43.24a1.47,1.47,0,0,1-.61,1.27,2.86,2.86,0,0,1-1.72.45,3.78,3.78,0,0,1-1.82-.37v-.83a4.28,4.28,0,0,0,.91.34,3.83,3.83,0,0,0,.93.12,2.12,2.12,0,0,0,1.08-.22.74.74,0,0,0,.37-.68.72.72,0,0,0-.29-.59,5.14,5.14,0,0,0-1.17-.58,6.84,6.84,0,0,1-1.17-.53,1.57,1.57,0,0,1-.51-.52,1.36,1.36,0,0,1-.17-.69,1.34,1.34,0,0,1,.59-1.14,2.69,2.69,0,0,1,1.6-.41,4.62,4.62,0,0,1,1.86.38l-.32.73a4.13,4.13,0,0,0-1.6-.37,1.88,1.88,0,0,0-1,.2.63.63,0,0,0-.32.55.65.65,0,0,0,.12.4,1.19,1.19,0,0,0,.39.32,8.94,8.94,0,0,0,1,.43,4,4,0,0,1,1.42.77A1.37,1.37,0,0,1,155.56,43.24Z" transform="translate(-0.25 -5.15)" fill="#231f20"/><path d="M158.92,44.22a3.4,3.4,0,0,0,.45,0l.35-.08v.69a2,2,0,0,1-.43.11,3.13,3.13,0,0,1-.5.05q-1.71,0-1.71-1.8v-3.5h-.85v-.43l.85-.37.37-1.26H158V39h1.71v.7H158v3.46a1.2,1.2,0,0,0,.25.82A.88.88,0,0,0,158.92,44.22Z" transform="translate(-0.25 -5.15)" fill="#231f20"/><path d="M161.73,39v3.82a1.55,1.55,0,0,0,.33,1.08,1.36,1.36,0,0,0,1,.35,1.71,1.71,0,0,0,1.35-.5,2.59,2.59,0,0,0,.43-1.65V39h.89v5.89H165l-.13-.79h0a1.78,1.78,0,0,1-.76.67A2.57,2.57,0,0,1,163,45a2.24,2.24,0,0,1-1.61-.51,2.17,2.17,0,0,1-.54-1.64V39Z" transform="translate(-0.25 -5.15)" fill="#231f20"/><path d="M171.66,44.06h0a2.09,2.09,0,0,1-1.85.9,2.21,2.21,0,0,1-1.8-.79,3.49,3.49,0,0,1-.64-2.25,3.54,3.54,0,0,1,.65-2.26,2.39,2.39,0,0,1,3.63.07h.07l0-.43,0-.41v-2.4h.89v8.36h-.73Zm-1.79.15a1.65,1.65,0,0,0,1.33-.5,2.52,2.52,0,0,0,.41-1.6v-.19a2.91,2.91,0,0,0-.42-1.78,1.58,1.58,0,0,0-1.33-.54,1.38,1.38,0,0,0-1.2.61,3,3,0,0,0-.42,1.72,2.89,2.89,0,0,0,.42,1.71A1.4,1.4,0,0,0,169.87,44.21Z" transform="translate(-0.25 -5.15)" fill="#231f20"/><path d="M176.88,45a2.7,2.7,0,0,1-2.06-.8,3,3,0,0,1-.76-2.2,3.48,3.48,0,0,1,.7-2.27,2.33,2.33,0,0,1,1.89-.83,2.24,2.24,0,0,1,1.75.72A2.8,2.8,0,0,1,179,41.5v.57h-4a2.29,2.29,0,0,0,.52,1.57,1.81,1.81,0,0,0,1.4.54,4.68,4.68,0,0,0,1.88-.4v.8a5.19,5.19,0,0,1-.9.29A4.91,4.91,0,0,1,176.88,45Zm-.25-5.36a1.48,1.48,0,0,0-1.13.46,2.15,2.15,0,0,0-.49,1.28h3.07a2,2,0,0,0-.37-1.29A1.33,1.33,0,0,0,176.63,39.6Z" transform="translate(-0.25 -5.15)" fill="#231f20"/><path d="M184.59,44.85V41a1.51,1.51,0,0,0-.33-1.07,1.33,1.33,0,0,0-1-.36,1.71,1.71,0,0,0-1.35.5,2.59,2.59,0,0,0-.43,1.65v3.09h-.89V39h.72l.15.81h0a1.89,1.89,0,0,1,.77-.68,2.64,2.64,0,0,1,1.1-.23,2.24,2.24,0,0,1,1.6.51,2.17,2.17,0,0,1,.54,1.64v3.84Z" transform="translate(-0.25 -5.15)" fill="#231f20"/><path d="M189.21,44.22a3.44,3.44,0,0,0,.46,0l.35-.08v.69a2,2,0,0,1-.43.11,3.36,3.36,0,0,1-.51.05c-1.13,0-1.7-.6-1.7-1.8v-3.5h-.85v-.43l.85-.37.37-1.26h.52V39H190v.7h-1.71v3.46a1.2,1.2,0,0,0,.25.82A.88.88,0,0,0,189.21,44.22Z" transform="translate(-0.25 -5.15)" fill="#231f20"/><path d="M195,43.24a1.47,1.47,0,0,1-.61,1.27,2.86,2.86,0,0,1-1.72.45,3.78,3.78,0,0,1-1.82-.37v-.83a4.28,4.28,0,0,0,.91.34,3.83,3.83,0,0,0,.93.12,2.12,2.12,0,0,0,1.08-.22.77.77,0,0,0,.07-1.27,4.8,4.8,0,0,0-1.16-.58,6.16,6.16,0,0,1-1.17-.53,1.57,1.57,0,0,1-.51-.52,1.36,1.36,0,0,1-.17-.69,1.33,1.33,0,0,1,.58-1.14,2.72,2.72,0,0,1,1.61-.41,4.69,4.69,0,0,1,1.86.38l-.32.73a4.13,4.13,0,0,0-1.6-.37,1.86,1.86,0,0,0-1,.2.63.63,0,0,0-.32.55.65.65,0,0,0,.12.4,1.19,1.19,0,0,0,.39.32,8.94,8.94,0,0,0,1,.43,3.81,3.81,0,0,1,1.41.77A1.34,1.34,0,0,1,195,43.24Z" transform="translate(-0.25 -5.15)" fill="#231f20"/><path d="M204.11,44.85,203,41.4c-.07-.22-.2-.69-.38-1.44h-.05c-.14.62-.26,1.11-.37,1.45l-1.11,3.44h-1L198.48,39h.93l.87,3.38a14.36,14.36,0,0,1,.34,1.56h0c0-.2.11-.46.2-.79s.16-.58.22-.77L202.16,39h1l1.05,3.38a11.38,11.38,0,0,1,.41,1.55h0c0-.13.06-.32.12-.59s.44-1.72,1.12-4.34h.92l-1.62,5.89Z" transform="translate(-0.25 -5.15)" fill="#231f20"/><path d="M211.89,44.85V41a1.51,1.51,0,0,0-.33-1.07,1.33,1.33,0,0,0-1-.36,1.65,1.65,0,0,0-1.35.51,2.51,2.51,0,0,0-.43,1.65v3.08h-.89V36.49h.89V39a7.42,7.42,0,0,1,0,.76h0a1.81,1.81,0,0,1,.75-.67,2.45,2.45,0,0,1,1.11-.24,2.28,2.28,0,0,1,1.62.51,2.15,2.15,0,0,1,.54,1.63v3.84Z" transform="translate(-0.25 -5.15)" fill="#231f20"/><path d="M219.69,41.9a3.22,3.22,0,0,1-.73,2.25,2.54,2.54,0,0,1-2,.81,2.71,2.71,0,0,1-1.4-.37,2.54,2.54,0,0,1-.95-1.07,3.72,3.72,0,0,1-.33-1.62,3.23,3.23,0,0,1,.72-2.24,2.54,2.54,0,0,1,2-.8,2.47,2.47,0,0,1,2,.82A3.2,3.2,0,0,1,219.69,41.9Zm-4.49,0a2.8,2.8,0,0,0,.45,1.72,1.6,1.6,0,0,0,1.33.59,1.57,1.57,0,0,0,1.33-.59,2.78,2.78,0,0,0,.46-1.72,2.71,2.71,0,0,0-.46-1.7,1.59,1.59,0,0,0-1.34-.59,1.56,1.56,0,0,0-1.32.58A2.73,2.73,0,0,0,215.2,41.9Z" transform="translate(-0.25 -5.15)" fill="#231f20"/><path d="M67.21,52.86a3.65,3.65,0,0,1,.7.06l-.12.83a2.66,2.66,0,0,0-.64-.08,1.57,1.57,0,0,0-1.23.58,2.09,2.09,0,0,0-.5,1.44v3.16h-.9V53h.74l.1,1.09h0a2.72,2.72,0,0,1,.79-.88A1.78,1.78,0,0,1,67.21,52.86Z" transform="translate(-0.25 -5.15)" fill="#231f20"/><path d="M71.5,59a2.7,2.7,0,0,1-2.06-.8,3.07,3.07,0,0,1-.75-2.2,3.42,3.42,0,0,1,.7-2.27,2.31,2.31,0,0,1,1.88-.83,2.23,2.23,0,0,1,1.75.72,2.81,2.81,0,0,1,.65,1.92v.57H69.61a2.34,2.34,0,0,0,.52,1.57,1.82,1.82,0,0,0,1.4.54,4.64,4.64,0,0,0,1.88-.4v.8a5.1,5.1,0,0,1-.89.29A5,5,0,0,1,71.5,59Zm-.24-5.36a1.48,1.48,0,0,0-1.13.46,2.16,2.16,0,0,0-.5,1.28h3.08a2,2,0,0,0-.38-1.29A1.32,1.32,0,0,0,71.26,53.6Z" transform="translate(-0.25 -5.15)" fill="#231f20"/><path d="M77.92,59a2.51,2.51,0,0,1-1-.21,2,2,0,0,1-.8-.66H76a6.84,6.84,0,0,1,.07,1v2.42h-.89V53h.72l.12.81h0a2,2,0,0,1,.8-.7,2.44,2.44,0,0,1,1-.21,2.15,2.15,0,0,1,1.81.8,4.23,4.23,0,0,1,0,4.49A2.17,2.17,0,0,1,77.92,59Zm-.12-5.35a1.59,1.59,0,0,0-1.31.5,2.54,2.54,0,0,0-.41,1.59v.2a2.94,2.94,0,0,0,.41,1.78,1.6,1.6,0,0,0,1.33.53A1.38,1.38,0,0,0,79,57.59a2.91,2.91,0,0,0,.43-1.7A2.81,2.81,0,0,0,79,54.2,1.42,1.42,0,0,0,77.8,53.61Z" transform="translate(-0.25 -5.15)" fill="#231f20"/><path d="M87,55.9a3.22,3.22,0,0,1-.73,2.25,2.54,2.54,0,0,1-2,.81,2.71,2.71,0,0,1-1.4-.37,2.48,2.48,0,0,1-.95-1.07,3.72,3.72,0,0,1-.33-1.62,3.23,3.23,0,0,1,.72-2.24,2.52,2.52,0,0,1,2-.8,2.49,2.49,0,0,1,2,.82A3.24,3.24,0,0,1,87,55.9Zm-4.49,0A2.8,2.8,0,0,0,83,57.62a1.79,1.79,0,0,0,2.66,0,2.78,2.78,0,0,0,.45-1.72,2.72,2.72,0,0,0-.45-1.7,1.59,1.59,0,0,0-1.34-.59,1.56,1.56,0,0,0-1.32.58A2.73,2.73,0,0,0,82.52,55.9Z" transform="translate(-0.25 -5.15)" fill="#231f20"/><path d="M91.26,52.86a3.73,3.73,0,0,1,.7.06l-.12.83a2.73,2.73,0,0,0-.65-.08,1.57,1.57,0,0,0-1.22.58,2.1,2.1,0,0,0-.51,1.44v3.16h-.89V53h.74l.1,1.09h0a2.61,2.61,0,0,1,.79-.88A1.78,1.78,0,0,1,91.26,52.86Z" transform="translate(-0.25 -5.15)" fill="#231f20"/><path d="M95,58.22a3.44,3.44,0,0,0,.46,0l.35-.08v.69a2,2,0,0,1-.43.11,3.36,3.36,0,0,1-.51.05c-1.14,0-1.7-.6-1.7-1.8v-3.5h-.85v-.43l.85-.37.37-1.26H94V53h1.7v.7H94v3.46a1.2,1.2,0,0,0,.25.82A.88.88,0,0,0,95,58.22Z" transform="translate(-0.25 -5.15)" fill="#231f20"/><path d="M99.43,59a2.7,2.7,0,0,1-2.06-.8,3.07,3.07,0,0,1-.75-2.2,3.42,3.42,0,0,1,.7-2.27,2.3,2.3,0,0,1,1.88-.83,2.23,2.23,0,0,1,1.75.72,2.81,2.81,0,0,1,.65,1.92v.57H97.54a2.34,2.34,0,0,0,.52,1.57,1.82,1.82,0,0,0,1.4.54,4.64,4.64,0,0,0,1.88-.4v.8a5.1,5.1,0,0,1-.89.29A5,5,0,0,1,99.43,59Zm-.24-5.36a1.48,1.48,0,0,0-1.13.46,2.16,2.16,0,0,0-.5,1.28h3.08a2,2,0,0,0-.38-1.29A1.32,1.32,0,0,0,99.19,53.6Z" transform="translate(-0.25 -5.15)" fill="#231f20"/><path d="M107.12,58.06h-.05a2.08,2.08,0,0,1-1.84.9,2.21,2.21,0,0,1-1.8-.79,3.49,3.49,0,0,1-.64-2.25,3.53,3.53,0,0,1,.64-2.26,2.16,2.16,0,0,1,1.8-.8,2.13,2.13,0,0,1,1.83.87h.07l0-.43,0-.41v-2.4h.9v8.36h-.73Zm-1.78.15a1.61,1.61,0,0,0,1.32-.5,2.46,2.46,0,0,0,.41-1.6v-.19a2.92,2.92,0,0,0-.41-1.78,1.58,1.58,0,0,0-1.33-.54,1.38,1.38,0,0,0-1.2.61,3,3,0,0,0-.42,1.72,2.89,2.89,0,0,0,.42,1.71A1.4,1.4,0,0,0,105.34,58.21Z" transform="translate(-0.25 -5.15)" fill="#231f20"/><path d="M116.33,58.85l-.17-.84h0a2.37,2.37,0,0,1-.88.75,2.65,2.65,0,0,1-1.09.2,2,2,0,0,1-1.37-.45,1.66,1.66,0,0,1-.5-1.29c0-1.19,1-1.81,2.86-1.87l1,0V55a1.49,1.49,0,0,0-.29-1,1.24,1.24,0,0,0-1-.33,3.88,3.88,0,0,0-1.66.45l-.28-.68a4.28,4.28,0,0,1,2-.5,2.25,2.25,0,0,1,1.56.46,2,2,0,0,1,.5,1.5v4Zm-2-.63a1.81,1.81,0,0,0,1.31-.46,1.7,1.7,0,0,0,.47-1.27V56l-.89,0a3.34,3.34,0,0,0-1.53.33,1,1,0,0,0-.47.91,1,1,0,0,0,.29.74A1.22,1.22,0,0,0,114.32,58.22Z" transform="translate(-0.25 -5.15)" fill="#231f20"/><path d="M121.57,59a2.59,2.59,0,0,1-1-.21,2,2,0,0,1-.8-.66h-.06a8.57,8.57,0,0,1,.06,1v2.42h-.89V53h.73l.12.81h0a2.1,2.1,0,0,1,.8-.7,2.52,2.52,0,0,1,1-.21,2.17,2.17,0,0,1,1.81.8A3.53,3.53,0,0,1,124,55.9a3.49,3.49,0,0,1-.64,2.25A2.17,2.17,0,0,1,121.57,59Zm-.13-5.35a1.57,1.57,0,0,0-1.3.5,2.61,2.61,0,0,0-.42,1.59v.2a2.93,2.93,0,0,0,.42,1.78,1.57,1.57,0,0,0,1.32.53,1.39,1.39,0,0,0,1.2-.62,2.91,2.91,0,0,0,.43-1.7,2.81,2.81,0,0,0-.43-1.69A1.44,1.44,0,0,0,121.44,53.61Z" transform="translate(-0.25 -5.15)" fill="#231f20"/><path d="M128.31,59a2.59,2.59,0,0,1-1-.21,2,2,0,0,1-.8-.66h-.06a8.57,8.57,0,0,1,.06,1v2.42h-.89V53h.73l.12.81h0a2.1,2.1,0,0,1,.8-.7,2.52,2.52,0,0,1,1-.21,2.17,2.17,0,0,1,1.81.8,3.53,3.53,0,0,1,.63,2.24,3.49,3.49,0,0,1-.64,2.25A2.17,2.17,0,0,1,128.31,59Zm-.13-5.35a1.58,1.58,0,0,0-1.3.5,2.61,2.61,0,0,0-.42,1.59v.2a2.93,2.93,0,0,0,.42,1.78,1.57,1.57,0,0,0,1.32.53,1.39,1.39,0,0,0,1.2-.62,2.91,2.91,0,0,0,.43-1.7,2.81,2.81,0,0,0-.43-1.69A1.43,1.43,0,0,0,128.18,53.61Z" transform="translate(-0.25 -5.15)" fill="#231f20"/><path d="M133.2,58.85h-.89V50.49h.89Z" transform="translate(-0.25 -5.15)" fill="#231f20"/><path d="M134.16,53h1l1.29,3.36a13.47,13.47,0,0,1,.52,1.66h0c.05-.18.15-.5.3-.94s.63-1.8,1.46-4.08h1l-2.53,6.71a3.32,3.32,0,0,1-.88,1.41,1.88,1.88,0,0,1-1.23.41,3.57,3.57,0,0,1-.8-.09v-.71a3.23,3.23,0,0,0,.66.06,1.36,1.36,0,0,0,1.31-1l.32-.84Z" transform="translate(-0.25 -5.15)" fill="#231f20"/><path d="M140.56,51.37a.58.58,0,0,1,.15-.45.51.51,0,0,1,.38-.14.55.55,0,0,1,.37.14.71.71,0,0,1,0,.9.5.5,0,0,1-.37.14.51.51,0,0,1-.38-.14A.61.61,0,0,1,140.56,51.37Zm1,7.48h-.89V53h.89Z" transform="translate(-0.25 -5.15)" fill="#231f20"/><path d="M147.45,58.85V55a1.51,1.51,0,0,0-.33-1.07,1.33,1.33,0,0,0-1-.36,1.71,1.71,0,0,0-1.35.5,2.53,2.53,0,0,0-.43,1.65v3.09h-.89V53h.73l.14.81h0a1.89,1.89,0,0,1,.77-.68,2.64,2.64,0,0,1,1.1-.23,2.24,2.24,0,0,1,1.6.51,2.17,2.17,0,0,1,.54,1.64v3.84Z" transform="translate(-0.25 -5.15)" fill="#231f20"/><path d="M155,53v.57l-1.09.13a1.86,1.86,0,0,1,.27.49,1.83,1.83,0,0,1,.12.68,1.72,1.72,0,0,1-.6,1.38,2.34,2.34,0,0,1-1.62.52,3.74,3.74,0,0,1-.49,0,.87.87,0,0,0-.57.75.4.4,0,0,0,.2.36,1.39,1.39,0,0,0,.68.12h1a2.32,2.32,0,0,1,1.47.4,1.41,1.41,0,0,1,.51,1.17,1.67,1.67,0,0,1-.78,1.49,4.22,4.22,0,0,1-2.29.51,3.1,3.1,0,0,1-1.78-.43,1.47,1.47,0,0,1-.28-2.14,1.73,1.73,0,0,1,1-.53,1,1,0,0,1-.38-.32.85.85,0,0,1-.16-.5.91.91,0,0,1,.18-.56,1.72,1.72,0,0,1,.54-.47,1.53,1.53,0,0,1-.74-.64,1.8,1.8,0,0,1-.29-1,1.89,1.89,0,0,1,.58-1.49,2.34,2.34,0,0,1,1.64-.52,3,3,0,0,1,.83.1Zm-4.69,6.88a.78.78,0,0,0,.4.72,2.16,2.16,0,0,0,1.15.25,3.21,3.21,0,0,0,1.67-.34,1,1,0,0,0,.53-.91.71.71,0,0,0-.29-.66,2.34,2.34,0,0,0-1.11-.19h-1.07a1.39,1.39,0,0,0-1,.3A1,1,0,0,0,150.3,59.84Zm.48-5a1.16,1.16,0,0,0,.35.93,1.38,1.38,0,0,0,1,.32,1.13,1.13,0,0,0,1.3-1.27,1.17,1.17,0,0,0-1.32-1.32,1.3,1.3,0,0,0-1,.33A1.36,1.36,0,0,0,150.78,54.85Z" transform="translate(-0.25 -5.15)" fill="#231f20"/><path d="M161.71,53.66h-1.5v5.19h-.89V53.66h-1v-.41l1-.32V52.6c0-1.44.63-2.17,1.89-2.17a4.1,4.1,0,0,1,1.1.19l-.23.72a2.7,2.7,0,0,0-.88-.17.87.87,0,0,0-.75.33,1.92,1.92,0,0,0-.24,1.08V53h1.5Z" transform="translate(-0.25 -5.15)" fill="#231f20"/><path d="M167.86,55.9a3.27,3.27,0,0,1-.72,2.25,2.54,2.54,0,0,1-2,.81,2.74,2.74,0,0,1-1.41-.37,2.52,2.52,0,0,1-.94-1.07,3.72,3.72,0,0,1-.33-1.62,3.22,3.22,0,0,1,.71-2.24,2.54,2.54,0,0,1,2-.8,2.49,2.49,0,0,1,2,.82A3.24,3.24,0,0,1,167.86,55.9Zm-4.48,0a2.8,2.8,0,0,0,.45,1.72,1.57,1.57,0,0,0,1.33.59,1.6,1.6,0,0,0,1.33-.59,2.78,2.78,0,0,0,.45-1.72,2.72,2.72,0,0,0-.45-1.7,1.61,1.61,0,0,0-1.34-.59,1.57,1.57,0,0,0-1.33.58A2.8,2.8,0,0,0,163.38,55.9Z" transform="translate(-0.25 -5.15)" fill="#231f20"/><path d="M172.11,52.86a3.84,3.84,0,0,1,.71.06l-.13.83a2.66,2.66,0,0,0-.64-.08,1.54,1.54,0,0,0-1.22.58,2.1,2.1,0,0,0-.51,1.44v3.16h-.89V53h.73l.1,1.09h.05a2.61,2.61,0,0,1,.79-.88A1.74,1.74,0,0,1,172.11,52.86Z" transform="translate(-0.25 -5.15)" fill="#231f20"/><path d="M180.39,58.85l-.17-.84h0a2.53,2.53,0,0,1-.88.75,2.74,2.74,0,0,1-1.1.2,2,2,0,0,1-1.37-.45,1.66,1.66,0,0,1-.5-1.29c0-1.19.95-1.81,2.86-1.87l1,0V55a1.49,1.49,0,0,0-.3-1,1.24,1.24,0,0,0-1-.33,3.88,3.88,0,0,0-1.66.45l-.27-.68A3.84,3.84,0,0,1,178,53a4.06,4.06,0,0,1,1-.13,2.25,2.25,0,0,1,1.56.46,1.94,1.94,0,0,1,.51,1.5v4Zm-2-.63a1.79,1.79,0,0,0,1.31-.46,1.66,1.66,0,0,0,.47-1.27V56l-.89,0a3.34,3.34,0,0,0-1.53.33,1,1,0,0,0-.47.91,1,1,0,0,0,.29.74A1.22,1.22,0,0,0,178.38,58.22Z" transform="translate(-0.25 -5.15)" fill="#231f20"/><path d="M188.4,53.66h-1.5v5.19H186V53.66h-1v-.41l1-.32V52.6c0-1.44.64-2.17,1.9-2.17a4,4,0,0,1,1.09.19l-.23.72a2.65,2.65,0,0,0-.88-.17.86.86,0,0,0-.74.33,1.83,1.83,0,0,0-.25,1.08V53h1.5Z" transform="translate(-0.25 -5.15)" fill="#231f20"/><path d="M190.32,53v3.82a1.55,1.55,0,0,0,.32,1.08,1.36,1.36,0,0,0,1,.35,1.71,1.71,0,0,0,1.35-.5,2.59,2.59,0,0,0,.43-1.65V53h.89v5.89h-.74l-.13-.79h-.05a1.78,1.78,0,0,1-.76.67,2.57,2.57,0,0,1-1.1.23,2.24,2.24,0,0,1-1.61-.51,2.17,2.17,0,0,1-.54-1.64V53Z" transform="translate(-0.25 -5.15)" fill="#231f20"/><path d="M197.12,58.85h-.89V50.49h.89Z" transform="translate(-0.25 -5.15)" fill="#231f20"/><path d="M199.9,58.85H199V50.49h.89Z" transform="translate(-0.25 -5.15)" fill="#231f20"/><path d="M201.3,56.31v-.82h2.64v.82Z" transform="translate(-0.25 -5.15)" fill="#231f20"/><path d="M207.23,58.22a3.44,3.44,0,0,0,.46,0l.35-.08v.69a2,2,0,0,1-.43.11,3.24,3.24,0,0,1-.5.05q-1.71,0-1.71-1.8v-3.5h-.85v-.43l.85-.37.37-1.26h.52V53H208v.7h-1.71v3.46a1.2,1.2,0,0,0,.25.82A.88.88,0,0,0,207.23,58.22Z" transform="translate(-0.25 -5.15)" fill="#231f20"/><path d="M209.14,51.37a.58.58,0,0,1,.15-.45.51.51,0,0,1,.38-.14.57.57,0,0,1,.37.14.75.75,0,0,1,0,.9.52.52,0,0,1-.37.14.51.51,0,0,1-.38-.14A.61.61,0,0,1,209.14,51.37Zm1,7.48h-.89V53h.89Z" transform="translate(-0.25 -5.15)" fill="#231f20"/><path d="M219.5,58.85V55a1.61,1.61,0,0,0-.3-1.06,1.17,1.17,0,0,0-.93-.35,1.49,1.49,0,0,0-1.23.48,2.24,2.24,0,0,0-.4,1.47v3.29h-.89V55a1.61,1.61,0,0,0-.3-1.06,1.19,1.19,0,0,0-.94-.35,1.45,1.45,0,0,0-1.23.51,2.69,2.69,0,0,0-.39,1.64v3.09H212V53h.72l.15.81h0a1.76,1.76,0,0,1,.71-.67,2.2,2.2,0,0,1,1-.24,1.77,1.77,0,0,1,1.81,1h0a1.91,1.91,0,0,1,.76-.73,2.46,2.46,0,0,1,1.14-.26,2,2,0,0,1,1.5.51,2.3,2.3,0,0,1,.49,1.64v3.84Z" transform="translate(-0.25 -5.15)" fill="#231f20"/><path d="M224.72,59a2.7,2.7,0,0,1-2.06-.8,3,3,0,0,1-.76-2.2,3.48,3.48,0,0,1,.7-2.27,2.33,2.33,0,0,1,1.89-.83,2.24,2.24,0,0,1,1.75.72,2.8,2.8,0,0,1,.64,1.92v.57h-4a2.29,2.29,0,0,0,.52,1.57,1.81,1.81,0,0,0,1.4.54,4.68,4.68,0,0,0,1.88-.4v.8a5.19,5.19,0,0,1-.9.29A4.91,4.91,0,0,1,224.72,59Zm-.24-5.36a1.51,1.51,0,0,0-1.14.46,2.15,2.15,0,0,0-.49,1.28h3.08a2,2,0,0,0-.38-1.29A1.32,1.32,0,0,0,224.48,53.6Z" transform="translate(-0.25 -5.15)" fill="#231f20"/><path d="M230.54,61.49a2.1,2.1,0,0,1-.82-.13v-.73a2.64,2.64,0,0,0,.73.11.76.76,0,0,0,.61-.23,1,1,0,0,0,.2-.69V53h.89v6.79C232.15,60.91,231.62,61.49,230.54,61.49Zm.64-10.12a.58.58,0,0,1,.15-.45.53.53,0,0,1,.38-.14.55.55,0,0,1,.37.14.71.71,0,0,1,0,.9.5.5,0,0,1-.37.14.53.53,0,0,1-.38-.14A.61.61,0,0,1,231.18,51.37Z" transform="translate(-0.25 -5.15)" fill="#231f20"/><path d="M239.12,55.9a3.27,3.27,0,0,1-.72,2.25,2.56,2.56,0,0,1-2,.81,2.73,2.73,0,0,1-1.4-.37,2.46,2.46,0,0,1-.94-1.07,3.58,3.58,0,0,1-.34-1.62,3.23,3.23,0,0,1,.72-2.24,2.54,2.54,0,0,1,2-.8,2.47,2.47,0,0,1,2,.82A3.2,3.2,0,0,1,239.12,55.9Zm-4.48,0a2.8,2.8,0,0,0,.45,1.72,1.78,1.78,0,0,0,2.65,0,2.71,2.71,0,0,0,.46-1.72,2.65,2.65,0,0,0-.46-1.7,1.59,1.59,0,0,0-1.34-.59,1.56,1.56,0,0,0-1.32.58A2.8,2.8,0,0,0,234.64,55.9Z" transform="translate(-0.25 -5.15)" fill="#231f20"/><path d="M243.42,52.87a2.19,2.19,0,0,1,1.81.79,4.23,4.23,0,0,1,0,4.49,2.17,2.17,0,0,1-1.8.81,2.59,2.59,0,0,1-1-.21,2,2,0,0,1-.79-.66h-.07l-.19.76h-.63V50.49h.89v2c0,.46,0,.87-.05,1.23h.05A2.1,2.1,0,0,1,243.42,52.87Zm-.12.74a1.57,1.57,0,0,0-1.32.53,4.07,4.07,0,0,0,0,3.54,1.6,1.6,0,0,0,1.33.53,1.38,1.38,0,0,0,1.22-.6,3.06,3.06,0,0,0,.4-1.72,2.92,2.92,0,0,0-.4-1.71A1.41,1.41,0,0,0,243.3,53.61Z" transform="translate(-0.25 -5.15)" fill="#231f20"/><path d="M9,218.25a4.33,4.33,0,0,1-.95,3,3.37,3.37,0,0,1-2.66,1.08,3.38,3.38,0,0,1-2.67-1.06,5.21,5.21,0,0,1,0-6,3.44,3.44,0,0,1,2.69-1,3.38,3.38,0,0,1,2.64,1.07A4.36,4.36,0,0,1,9,218.25Zm-6.26,0a3.75,3.75,0,0,0,.68,2.42,2.4,2.4,0,0,0,2,.82,2.39,2.39,0,0,0,2-.82,4.75,4.75,0,0,0,0-4.83,2.39,2.39,0,0,0-2-.81,2.43,2.43,0,0,0-2,.82A3.71,3.71,0,0,0,2.75,218.25Z" transform="translate(-0.25 -5.15)" fill="#231f20"/><path d="M13.28,217h-1.5v5.2h-.89V217H9.84v-.4l1.05-.32v-.33c0-1.45.63-2.17,1.89-2.17a3.74,3.74,0,0,1,1.1.19l-.23.71a3,3,0,0,0-.88-.17.87.87,0,0,0-.75.34,1.87,1.87,0,0,0-.24,1.08v.38h1.5Z" transform="translate(-0.25 -5.15)" fill="#231f20"/><path d="M19.11,221.56a2.32,2.32,0,0,0,.46,0l.35-.07v.68a1.51,1.51,0,0,1-.43.12,3.25,3.25,0,0,1-.51,0c-1.13,0-1.7-.6-1.7-1.8V217h-.85v-.43l.85-.37.37-1.26h.52v1.37h1.71V217H18.17v3.47a1.17,1.17,0,0,0,.25.81A.88.88,0,0,0,19.11,221.56Z" transform="translate(-0.25 -5.15)" fill="#231f20"/><path d="M25.12,222.19v-3.81a1.6,1.6,0,0,0-.32-1.08,1.38,1.38,0,0,0-1-.35,1.72,1.72,0,0,0-1.36.5,2.61,2.61,0,0,0-.42,1.66v3.08h-.9v-8.36H22v2.53a5.26,5.26,0,0,1,0,.76H22a1.69,1.69,0,0,1,.75-.67,2.33,2.33,0,0,1,1.11-.25,2.27,2.27,0,0,1,1.61.51,2.19,2.19,0,0,1,.54,1.64v3.84Z" transform="translate(-0.25 -5.15)" fill="#231f20"/><path d="M30.33,222.29a2.71,2.71,0,0,1-2.06-.79,3.1,3.1,0,0,1-.75-2.21,3.4,3.4,0,0,1,.7-2.26,2.32,2.32,0,0,1,1.88-.84,2.2,2.2,0,0,1,1.75.73,2.77,2.77,0,0,1,.65,1.92v.56H28.44A2.38,2.38,0,0,0,29,221a1.82,1.82,0,0,0,1.4.53,4.75,4.75,0,0,0,1.87-.39v.79a3.84,3.84,0,0,1-.89.29A5,5,0,0,1,30.33,222.29Zm-.24-5.35a1.45,1.45,0,0,0-1.13.46,2.13,2.13,0,0,0-.5,1.28h3.08a2,2,0,0,0-.37-1.29A1.34,1.34,0,0,0,30.09,216.94Z" transform="translate(-0.25 -5.15)" fill="#231f20"/><path d="M42.49,222.19H40.38V216.4l0-1,0-1c-.35.35-.59.58-.73.69l-1.15.93-1-1.28,3.22-2.56h1.73Z" transform="translate(-0.25 -5.15)" fill="#231f20"/><path d="M46.25,222.19,50,214H45.08v-1.77h7.17v1.32l-3.78,8.66Z" transform="translate(-0.25 -5.15)" fill="#231f20"/><path d="M57.87,215.17a3.78,3.78,0,0,1-.61,2.36,2.09,2.09,0,0,1-1.78.79,2.06,2.06,0,0,1-1.74-.81,3.81,3.81,0,0,1-.62-2.34c0-2.08.79-3.12,2.36-3.12a2.09,2.09,0,0,1,1.77.81A3.69,3.69,0,0,1,57.87,215.17Zm-3,0a4.1,4.1,0,0,0,.16,1.29c.1.29.27.43.49.43.44,0,.66-.58.66-1.72s-.22-1.71-.66-1.71c-.22,0-.39.14-.49.42A4.05,4.05,0,0,0,54.84,215.19Zm7.74-3-5.55,10H55.39l5.55-10Zm2.29,7a3.8,3.8,0,0,1-.61,2.36,2.12,2.12,0,0,1-1.78.79,2.06,2.06,0,0,1-1.74-.81,3.81,3.81,0,0,1-.62-2.34c0-2.08.79-3.12,2.36-3.12a2.09,2.09,0,0,1,1.77.81A3.69,3.69,0,0,1,64.87,219.16Zm-3,0a4.05,4.05,0,0,0,.16,1.29c.1.29.27.43.49.43.44,0,.66-.57.66-1.72s-.22-1.71-.66-1.71c-.22,0-.39.14-.49.42A4.05,4.05,0,0,0,61.84,219.18Z" transform="translate(-0.25 -5.15)" fill="#231f20"/><path d="M74.17,222.19l-1.08-3.46c-.06-.21-.19-.69-.38-1.44h0c-.14.63-.27,1.11-.38,1.45l-1.11,3.45h-1l-1.61-5.89h.94l.87,3.38c.19.77.31,1.29.34,1.56h0c0-.2.1-.47.19-.79s.16-.58.23-.77l1.08-3.38h1l1,3.38a12.59,12.59,0,0,1,.41,1.55h0a3.85,3.85,0,0,1,.12-.6c.06-.26.43-1.71,1.11-4.33h.93l-1.63,5.89Z" transform="translate(-0.25 -5.15)" fill="#231f20"/><path d="M82,222.19v-3.81a1.55,1.55,0,0,0-.33-1.08,1.35,1.35,0,0,0-1-.35,1.72,1.72,0,0,0-1.36.5,2.6,2.6,0,0,0-.43,1.66v3.08h-.89v-8.36h.89v2.53a5.44,5.44,0,0,1,0,.76h0a1.81,1.81,0,0,1,.75-.67,2.39,2.39,0,0,1,1.11-.25,2.28,2.28,0,0,1,1.62.51,2.19,2.19,0,0,1,.54,1.64v3.84Z" transform="translate(-0.25 -5.15)" fill="#231f20"/><path d="M89.75,219.24a3.23,3.23,0,0,1-.72,2.24,2.54,2.54,0,0,1-2,.81,2.65,2.65,0,0,1-1.41-.37,2.44,2.44,0,0,1-.94-1.06,3.72,3.72,0,0,1-.33-1.62,3.27,3.27,0,0,1,.72-2.25,2.55,2.55,0,0,1,2-.8,2.49,2.49,0,0,1,2,.82A3.27,3.27,0,0,1,89.75,219.24Zm-4.48,0a2.82,2.82,0,0,0,.45,1.72,1.57,1.57,0,0,0,1.33.59,1.6,1.6,0,0,0,1.33-.59,2.8,2.8,0,0,0,.45-1.72,2.77,2.77,0,0,0-.45-1.71A1.6,1.6,0,0,0,87,217a1.56,1.56,0,0,0-1.32.57A2.78,2.78,0,0,0,85.27,219.24Z" transform="translate(-0.25 -5.15)" fill="#231f20"/><path d="M96.86,216.19a3,3,0,0,1,.7.07l-.12.82a3.28,3.28,0,0,0-.64-.08,1.6,1.6,0,0,0-1.23.58,2.12,2.12,0,0,0-.5,1.45v3.16h-.9V216.3h.74l.1,1.09h0a2.63,2.63,0,0,1,.78-.89A1.78,1.78,0,0,1,96.86,216.19Z" transform="translate(-0.25 -5.15)" fill="#231f20"/><path d="M101.15,222.29a2.7,2.7,0,0,1-2.06-.79,3.1,3.1,0,0,1-.75-2.21A3.4,3.4,0,0,1,99,217a2.32,2.32,0,0,1,1.88-.84,2.2,2.2,0,0,1,1.75.73,2.77,2.77,0,0,1,.65,1.92v.56H99.26a2.37,2.37,0,0,0,.52,1.58,1.85,1.85,0,0,0,1.4.53,4.8,4.8,0,0,0,1.88-.39v.79a3.84,3.84,0,0,1-.89.29A5,5,0,0,1,101.15,222.29Zm-.24-5.35a1.45,1.45,0,0,0-1.13.46,2.13,2.13,0,0,0-.5,1.28h3.08a2,2,0,0,0-.38-1.29A1.31,1.31,0,0,0,100.91,216.94Z" transform="translate(-0.25 -5.15)" fill="#231f20"/><path d="M107.58,222.29a2.52,2.52,0,0,1-1-.21,1.94,1.94,0,0,1-.8-.65h-.07a6.75,6.75,0,0,1,.07,1v2.42h-.89V216.3h.72l.13.8h0a2,2,0,0,1,.8-.69,2.32,2.32,0,0,1,1-.22,2.17,2.17,0,0,1,1.8.8,4.25,4.25,0,0,1,0,4.5A2.16,2.16,0,0,1,107.58,222.29Zm-.13-5.34a1.6,1.6,0,0,0-1.31.5,2.5,2.5,0,0,0-.41,1.59v.2a3,3,0,0,0,.41,1.77,1.58,1.58,0,0,0,1.33.54,1.37,1.37,0,0,0,1.19-.62,2.91,2.91,0,0,0,.44-1.7,2.79,2.79,0,0,0-.44-1.69A1.39,1.39,0,0,0,107.45,217Z" transform="translate(-0.25 -5.15)" fill="#231f20"/><path d="M116.66,219.24a3.18,3.18,0,0,1-.73,2.24,2.54,2.54,0,0,1-2,.81,2.62,2.62,0,0,1-1.4-.37,2.4,2.4,0,0,1-1-1.06,3.72,3.72,0,0,1-.33-1.62A3.27,3.27,0,0,1,112,217a2.55,2.55,0,0,1,2-.8,2.49,2.49,0,0,1,2,.82A3.22,3.22,0,0,1,116.66,219.24Zm-4.49,0a2.82,2.82,0,0,0,.45,1.72,1.79,1.79,0,0,0,2.66,0,2.8,2.8,0,0,0,.45-1.72,2.77,2.77,0,0,0-.45-1.71,1.83,1.83,0,0,0-2.66,0A2.78,2.78,0,0,0,112.17,219.24Z" transform="translate(-0.25 -5.15)" fill="#231f20"/><path d="M120.91,216.19a3,3,0,0,1,.7.07l-.12.82a3.37,3.37,0,0,0-.65-.08,1.6,1.6,0,0,0-1.22.58,2.12,2.12,0,0,0-.51,1.45v3.16h-.89V216.3H119l.1,1.09h0a2.65,2.65,0,0,1,.79-.89A1.78,1.78,0,0,1,120.91,216.19Z" transform="translate(-0.25 -5.15)" fill="#231f20"/><path d="M124.61,221.56a2.32,2.32,0,0,0,.46,0l.35-.07v.68a1.51,1.51,0,0,1-.43.12,3.25,3.25,0,0,1-.51,0c-1.13,0-1.7-.6-1.7-1.8V217h-.85v-.43l.85-.37.37-1.26h.52v1.37h1.71V217h-1.71v3.47a1.17,1.17,0,0,0,.25.81A.88.88,0,0,0,124.61,221.56Z" transform="translate(-0.25 -5.15)" fill="#231f20"/><path d="M129.08,222.29a2.7,2.7,0,0,1-2.06-.79,3.1,3.1,0,0,1-.75-2.21A3.4,3.4,0,0,1,127,217a2.32,2.32,0,0,1,1.88-.84,2.2,2.2,0,0,1,1.75.73,2.77,2.77,0,0,1,.65,1.92v.56h-4.06a2.37,2.37,0,0,0,.52,1.58,1.85,1.85,0,0,0,1.4.53,4.8,4.8,0,0,0,1.88-.39v.79a3.84,3.84,0,0,1-.89.29A5,5,0,0,1,129.08,222.29Zm-.24-5.35a1.45,1.45,0,0,0-1.13.46,2.13,2.13,0,0,0-.5,1.28h3.08a2,2,0,0,0-.38-1.29A1.31,1.31,0,0,0,128.84,216.94Z" transform="translate(-0.25 -5.15)" fill="#231f20"/><path d="M136.77,221.4h0a2.12,2.12,0,0,1-1.85.89,2.18,2.18,0,0,1-1.8-.79,3.44,3.44,0,0,1-.64-2.24,3.52,3.52,0,0,1,.64-2.26,2.17,2.17,0,0,1,1.8-.81,2.12,2.12,0,0,1,1.83.87h.07l0-.42,0-.42v-2.39h.89v8.36h-.73Zm-1.78.15a1.61,1.61,0,0,0,1.32-.5,2.47,2.47,0,0,0,.42-1.6v-.19a2.94,2.94,0,0,0-.42-1.79,1.6,1.6,0,0,0-1.33-.53,1.36,1.36,0,0,0-1.2.61,3,3,0,0,0-.42,1.72,2.86,2.86,0,0,0,.42,1.7A1.4,1.4,0,0,0,135,221.55Z" transform="translate(-0.25 -5.15)" fill="#231f20"/><path d="M146,222.19l-.17-.84h-.05a2.43,2.43,0,0,1-.87.75,2.75,2.75,0,0,1-1.1.19,2,2,0,0,1-1.37-.45,1.65,1.65,0,0,1-.5-1.28c0-1.19,1-1.81,2.86-1.87l1,0v-.37a1.48,1.48,0,0,0-.29-1,1.24,1.24,0,0,0-1-.33,3.88,3.88,0,0,0-1.66.45l-.28-.68a4.45,4.45,0,0,1,2-.51,2.26,2.26,0,0,1,1.56.47,1.94,1.94,0,0,1,.51,1.5v4Zm-2-.63a1.79,1.79,0,0,0,1.31-.46,1.71,1.71,0,0,0,.47-1.28v-.53l-.89,0a3.1,3.1,0,0,0-1.53.33,1,1,0,0,0-.47.91.91.91,0,0,0,.29.73A1.22,1.22,0,0,0,144,221.56Z" transform="translate(-0.25 -5.15)" fill="#231f20"/><path d="M151.22,222.29a2.59,2.59,0,0,1-1.05-.21,2,2,0,0,1-.8-.65h-.06a8.44,8.44,0,0,1,.06,1v2.42h-.89V216.3h.73l.12.8h0a2.07,2.07,0,0,1,.8-.69,2.38,2.38,0,0,1,1.05-.22,2.2,2.2,0,0,1,1.81.8,3.56,3.56,0,0,1,.64,2.25,3.5,3.5,0,0,1-.65,2.25A2.16,2.16,0,0,1,151.22,222.29Zm-.13-5.34a1.58,1.58,0,0,0-1.3.5,2.56,2.56,0,0,0-.42,1.59v.2a2.89,2.89,0,0,0,.42,1.77,1.56,1.56,0,0,0,1.32.54,1.39,1.39,0,0,0,1.2-.62,2.91,2.91,0,0,0,.43-1.7,2.79,2.79,0,0,0-.43-1.69A1.42,1.42,0,0,0,151.09,217Z" transform="translate(-0.25 -5.15)" fill="#231f20"/><path d="M158,222.29a2.59,2.59,0,0,1-1.05-.21,2.08,2.08,0,0,1-.8-.65h-.06a8.44,8.44,0,0,1,.06,1v2.42h-.89V216.3H156l.12.8h0a2.07,2.07,0,0,1,.8-.69,2.38,2.38,0,0,1,1.05-.22,2.19,2.19,0,0,1,1.81.8,3.56,3.56,0,0,1,.64,2.25,3.5,3.5,0,0,1-.65,2.25A2.16,2.16,0,0,1,158,222.29Zm-.13-5.34a1.58,1.58,0,0,0-1.3.5,2.56,2.56,0,0,0-.42,1.59v.2a2.89,2.89,0,0,0,.42,1.77,1.56,1.56,0,0,0,1.33.54,1.39,1.39,0,0,0,1.19-.62,2.91,2.91,0,0,0,.43-1.7,2.79,2.79,0,0,0-.43-1.69A1.4,1.4,0,0,0,157.83,217Z" transform="translate(-0.25 -5.15)" fill="#231f20"/><path d="M162.86,222.19H162v-8.36h.9Z" transform="translate(-0.25 -5.15)" fill="#231f20"/><path d="M163.81,216.3h1l1.29,3.36a13,13,0,0,1,.52,1.66h0a9.84,9.84,0,0,1,.29-.94c.15-.44.63-1.8,1.46-4.08h1L166.8,223a3.32,3.32,0,0,1-.88,1.41,1.84,1.84,0,0,1-1.23.42,3.57,3.57,0,0,1-.8-.09V224a2.62,2.62,0,0,0,.66.07,1.37,1.37,0,0,0,1.31-1l.33-.84Z" transform="translate(-0.25 -5.15)" fill="#231f20"/><path d="M170.21,214.7a.61.61,0,0,1,.15-.45.56.56,0,0,1,.38-.14.51.51,0,0,1,.37.15.57.57,0,0,1,.16.44.61.61,0,0,1-.16.45.51.51,0,0,1-.37.15.52.52,0,0,1-.38-.15A.61.61,0,0,1,170.21,214.7Zm1,7.49h-.89V216.3h.89Z" transform="translate(-0.25 -5.15)" fill="#231f20"/><path d="M177.1,222.19v-3.81a1.55,1.55,0,0,0-.33-1.08,1.35,1.35,0,0,0-1-.35,1.72,1.72,0,0,0-1.36.5,2.55,2.55,0,0,0-.43,1.65v3.09h-.89V216.3h.73l.14.8h0a1.86,1.86,0,0,1,.77-.67,2.5,2.5,0,0,1,1.1-.24,2.23,2.23,0,0,1,1.6.51,2.2,2.2,0,0,1,.54,1.65v3.84Z" transform="translate(-0.25 -5.15)" fill="#231f20"/><path d="M184.64,216.3v.56l-1.09.13a2,2,0,0,1,.27.49,1.88,1.88,0,0,1,.12.69,1.76,1.76,0,0,1-.59,1.38,2.43,2.43,0,0,1-1.63.51,2.56,2.56,0,0,1-.49,0,.87.87,0,0,0-.57.76.4.4,0,0,0,.2.36,1.55,1.55,0,0,0,.68.11h1a2.32,2.32,0,0,1,1.47.4,1.41,1.41,0,0,1,.52,1.17,1.7,1.7,0,0,1-.79,1.5,4.2,4.2,0,0,1-2.29.51,3.18,3.18,0,0,1-1.78-.43,1.4,1.4,0,0,1-.62-1.22,1.34,1.34,0,0,1,.34-.92,1.75,1.75,0,0,1,1-.54.86.86,0,0,1-.53-.81.92.92,0,0,1,.17-.57,1.7,1.7,0,0,1,.54-.46,1.63,1.63,0,0,1-.74-.64,2.12,2.12,0,0,1,.29-2.53,2.41,2.41,0,0,1,1.64-.52,3.11,3.11,0,0,1,.84.11ZM180,223.17a.81.81,0,0,0,.4.73,2.26,2.26,0,0,0,1.15.25,3.28,3.28,0,0,0,1.67-.34,1,1,0,0,0,.54-.91.71.71,0,0,0-.3-.66,2.22,2.22,0,0,0-1.11-.19h-1.07a1.46,1.46,0,0,0-.95.29A1.06,1.06,0,0,0,180,223.17Zm.48-5a1.21,1.21,0,0,0,.35.94,1.4,1.4,0,0,0,1,.32,1.14,1.14,0,0,0,1.31-1.27,1.17,1.17,0,0,0-1.33-1.33,1.28,1.28,0,0,0-1,.34A1.35,1.35,0,0,0,180.43,218.18Z" transform="translate(-0.25 -5.15)" fill="#231f20"/><path d="M191.36,217h-1.5v5.2H189V217h-1.05v-.4l1.05-.32v-.33c0-1.45.63-2.17,1.89-2.17a3.74,3.74,0,0,1,1.1.19l-.23.71a3,3,0,0,0-.88-.17.87.87,0,0,0-.75.34,1.87,1.87,0,0,0-.24,1.08v.38h1.5Z" transform="translate(-0.25 -5.15)" fill="#231f20"/><path d="M197.52,219.24a3.23,3.23,0,0,1-.73,2.24,2.54,2.54,0,0,1-2,.81,2.59,2.59,0,0,1-1.4-.37,2.4,2.4,0,0,1-.95-1.06,3.72,3.72,0,0,1-.33-1.62,3.27,3.27,0,0,1,.72-2.25,2.55,2.55,0,0,1,2-.8,2.49,2.49,0,0,1,2,.82A3.27,3.27,0,0,1,197.52,219.24Zm-4.49,0a2.82,2.82,0,0,0,.45,1.72,1.57,1.57,0,0,0,1.33.59,1.6,1.6,0,0,0,1.33-.59,2.8,2.8,0,0,0,.45-1.72,2.77,2.77,0,0,0-.45-1.71,1.6,1.6,0,0,0-1.34-.58,1.56,1.56,0,0,0-1.32.57A2.78,2.78,0,0,0,193,219.24Z" transform="translate(-0.25 -5.15)" fill="#231f20"/><path d="M201.76,216.19a3,3,0,0,1,.71.07l-.13.82a3.19,3.19,0,0,0-.64-.08,1.58,1.58,0,0,0-1.22.58A2.12,2.12,0,0,0,200,219v3.16h-.89V216.3h.73l.11,1.09h0a2.65,2.65,0,0,1,.79-.89A1.74,1.74,0,0,1,201.76,216.19Z" transform="translate(-0.25 -5.15)" fill="#231f20"/><path d="M210.05,222.19l-.18-.84h0a2.53,2.53,0,0,1-.88.75,2.75,2.75,0,0,1-1.1.19,2,2,0,0,1-1.37-.45,1.65,1.65,0,0,1-.5-1.28c0-1.19,1-1.81,2.86-1.87l1,0v-.37a1.48,1.48,0,0,0-.3-1,1.24,1.24,0,0,0-1-.33,3.88,3.88,0,0,0-1.66.45l-.27-.68a4,4,0,0,1,.95-.37,4.07,4.07,0,0,1,1-.14,2.26,2.26,0,0,1,1.56.47,1.94,1.94,0,0,1,.51,1.5v4Zm-2-.63a1.79,1.79,0,0,0,1.31-.46,1.67,1.67,0,0,0,.47-1.28v-.53l-.89,0a3.1,3.1,0,0,0-1.53.33,1,1,0,0,0-.47.91.91.91,0,0,0,.29.73A1.22,1.22,0,0,0,208,221.56Z" transform="translate(-0.25 -5.15)" fill="#231f20"/><path d="M218.05,217h-1.49v5.2h-.9V217h-1v-.4l1-.32v-.33c0-1.45.64-2.17,1.9-2.17a3.79,3.79,0,0,1,1.1.19l-.24.71a2.94,2.94,0,0,0-.88-.17.86.86,0,0,0-.74.34,1.87,1.87,0,0,0-.24,1.08v.38h1.49Z" transform="translate(-0.25 -5.15)" fill="#231f20"/><path d="M220,216.3v3.82a1.51,1.51,0,0,0,.32,1.07,1.33,1.33,0,0,0,1,.36,1.65,1.65,0,0,0,1.35-.51,2.55,2.55,0,0,0,.43-1.65V216.3H224v5.89h-.74l-.13-.79h-.05a1.72,1.72,0,0,1-.75.66,2.51,2.51,0,0,1-1.11.23,2.24,2.24,0,0,1-1.61-.51,2.15,2.15,0,0,1-.54-1.63V216.3Z" transform="translate(-0.25 -5.15)" fill="#231f20"/><path d="M226.77,222.19h-.89v-8.36h.89Z" transform="translate(-0.25 -5.15)" fill="#231f20"/><path d="M229.55,222.19h-.89v-8.36h.89Z" transform="translate(-0.25 -5.15)" fill="#231f20"/><path d="M231,219.64v-.81h2.64v.81Z" transform="translate(-0.25 -5.15)" fill="#231f20"/><path d="M236.88,221.56a2.32,2.32,0,0,0,.46,0l.35-.07v.68a1.51,1.51,0,0,1-.43.12,3.13,3.13,0,0,1-.5,0q-1.71,0-1.71-1.8V217h-.85v-.43l.85-.37.37-1.26h.52v1.37h1.71V217h-1.71v3.47a1.17,1.17,0,0,0,.25.81A.88.88,0,0,0,236.88,221.56Z" transform="translate(-0.25 -5.15)" fill="#231f20"/><path d="M238.79,214.7a.61.61,0,0,1,.15-.45.56.56,0,0,1,.38-.14.53.53,0,0,1,.37.15.57.57,0,0,1,.15.44.61.61,0,0,1-.15.45.53.53,0,0,1-.37.15.52.52,0,0,1-.38-.15A.61.61,0,0,1,238.79,214.7Zm1,7.49h-.89V216.3h.89Z" transform="translate(-0.25 -5.15)" fill="#231f20"/><path d="M249.15,222.19v-3.83a1.61,1.61,0,0,0-.3-1.06,1.17,1.17,0,0,0-.93-.35,1.49,1.49,0,0,0-1.23.48,2.24,2.24,0,0,0-.4,1.47v3.29h-.89v-3.83a1.61,1.61,0,0,0-.3-1.06,1.19,1.19,0,0,0-.94-.35,1.47,1.47,0,0,0-1.23.5,2.72,2.72,0,0,0-.39,1.65v3.09h-.89V216.3h.72l.15.8h0a1.83,1.83,0,0,1,.71-.67,2.2,2.2,0,0,1,1-.24,1.76,1.76,0,0,1,1.81,1h0a1.91,1.91,0,0,1,.76-.73,2.4,2.4,0,0,1,1.14-.27,2,2,0,0,1,1.5.51,2.33,2.33,0,0,1,.49,1.65v3.84Z" transform="translate(-0.25 -5.15)" fill="#231f20"/><path d="M254.37,222.29a2.7,2.7,0,0,1-2.06-.79,3.1,3.1,0,0,1-.76-2.21,3.45,3.45,0,0,1,.7-2.26,2.34,2.34,0,0,1,1.89-.84,2.22,2.22,0,0,1,1.75.73,2.77,2.77,0,0,1,.64,1.92v.56h-4A2.37,2.37,0,0,0,253,221a1.84,1.84,0,0,0,1.4.53,4.84,4.84,0,0,0,1.88-.39v.79a3.84,3.84,0,0,1-.89.29A5,5,0,0,1,254.37,222.29Zm-.24-5.35a1.43,1.43,0,0,0-1.13.46,2.07,2.07,0,0,0-.5,1.28h3.08a2,2,0,0,0-.38-1.29A1.32,1.32,0,0,0,254.13,216.94Z" transform="translate(-0.25 -5.15)" fill="#231f20"/><path d="M260.19,224.83a2.12,2.12,0,0,1-.82-.14V224a2.64,2.64,0,0,0,.73.11.76.76,0,0,0,.61-.23,1.06,1.06,0,0,0,.2-.7V216.3h.89v6.79C261.8,224.25,261.27,224.83,260.19,224.83Zm.64-10.13a.61.61,0,0,1,.15-.45.57.57,0,0,1,.38-.14.51.51,0,0,1,.37.15.54.54,0,0,1,.16.44.58.58,0,0,1-.16.45.51.51,0,0,1-.37.15.54.54,0,0,1-.38-.15A.61.61,0,0,1,260.83,214.7Z" transform="translate(-0.25 -5.15)" fill="#231f20"/><path d="M268.77,219.24a3.23,3.23,0,0,1-.72,2.24,2.55,2.55,0,0,1-2,.81,2.64,2.64,0,0,1-1.4-.37,2.38,2.38,0,0,1-.94-1.06,3.72,3.72,0,0,1-.34-1.62,3.27,3.27,0,0,1,.72-2.25,2.57,2.57,0,0,1,2-.8,2.49,2.49,0,0,1,2,.82A3.27,3.27,0,0,1,268.77,219.24Zm-4.48,0a2.82,2.82,0,0,0,.45,1.72,1.57,1.57,0,0,0,1.33.59,1.6,1.6,0,0,0,1.33-.59,2.8,2.8,0,0,0,.45-1.72,2.77,2.77,0,0,0-.45-1.71,1.84,1.84,0,0,0-2.67,0A2.85,2.85,0,0,0,264.29,219.24Z" transform="translate(-0.25 -5.15)" fill="#231f20"/><path d="M273.08,216.2a2.21,2.21,0,0,1,1.8.79,4.25,4.25,0,0,1,0,4.5,2.16,2.16,0,0,1-1.79.8,2.52,2.52,0,0,1-1.05-.21,1.94,1.94,0,0,1-.8-.65h-.07l-.18.76h-.64v-8.36h.89v2c0,.45,0,.86,0,1.22h0A2.13,2.13,0,0,1,273.08,216.2ZM273,217a1.56,1.56,0,0,0-1.32.52,4.07,4.07,0,0,0,0,3.54,1.58,1.58,0,0,0,1.33.54,1.37,1.37,0,0,0,1.22-.6,3.08,3.08,0,0,0,.41-1.72,3,3,0,0,0-.41-1.72A1.43,1.43,0,0,0,273,217Z" transform="translate(-0.25 -5.15)" fill="#231f20"/><path d="M278,220.91l.08.12c-.09.36-.23.77-.4,1.25s-.36.92-.55,1.32h-.67c.1-.37.2-.83.32-1.38s.2-1,.24-1.31Z" transform="translate(-0.25 -5.15)" fill="#231f20"/><path d="M8.66,239h-7v-1.47L4.18,235c.75-.76,1.23-1.29,1.46-1.58a3.53,3.53,0,0,0,.49-.82,2.08,2.08,0,0,0,.15-.78,1.12,1.12,0,0,0-.33-.89,1.27,1.27,0,0,0-.88-.3,2.51,2.51,0,0,0-1.13.27,5.51,5.51,0,0,0-1.14.76l-1.15-1.36a7.34,7.34,0,0,1,1.22-.89,4.08,4.08,0,0,1,1.06-.4,5.1,5.1,0,0,1,1.29-.14,3.77,3.77,0,0,1,1.65.34,2.61,2.61,0,0,1,1.11,1,2.49,2.49,0,0,1,.4,1.4,3.49,3.49,0,0,1-.24,1.3,4.88,4.88,0,0,1-.75,1.24,18.3,18.3,0,0,1-1.8,1.81l-1.28,1.21v.1H8.66Z" transform="translate(-0.25 -5.15)" fill="#231f20"/><path d="M16.65,239h-7v-1.47l2.5-2.54c.75-.76,1.23-1.29,1.46-1.58a3.53,3.53,0,0,0,.49-.82,2.08,2.08,0,0,0,.15-.78,1.12,1.12,0,0,0-.33-.89,1.25,1.25,0,0,0-.88-.3,2.51,2.51,0,0,0-1.13.27,5.51,5.51,0,0,0-1.14.76l-1.15-1.36a7.34,7.34,0,0,1,1.22-.89,4.22,4.22,0,0,1,1.06-.4,5.1,5.1,0,0,1,1.29-.14,3.77,3.77,0,0,1,1.65.34,2.7,2.7,0,0,1,1.12,1,2.57,2.57,0,0,1,.39,1.4,3.49,3.49,0,0,1-.24,1.3,4.88,4.88,0,0,1-.75,1.24,18.3,18.3,0,0,1-1.8,1.81l-1.28,1.21v.1h4.35Z" transform="translate(-0.25 -5.15)" fill="#231f20"/><path d="M21.54,233a3.35,3.35,0,0,1-.52,2,1.82,1.82,0,0,1-1.53.67A1.77,1.77,0,0,1,18,235a3.28,3.28,0,0,1-.52-2c0-1.78.67-2.67,2-2.67A1.81,1.81,0,0,1,21,231,3.22,3.22,0,0,1,21.54,233Zm-2.6,0a3.81,3.81,0,0,0,.13,1.11c.09.24.23.36.43.36.37,0,.56-.49.56-1.47s-.19-1.47-.56-1.47c-.2,0-.34.12-.43.36A3.71,3.71,0,0,0,18.94,233Zm6.63-2.57L20.82,239H19.41l4.75-8.57Zm2,6a3.31,3.31,0,0,1-.52,2,1.8,1.8,0,0,1-1.53.68,1.77,1.77,0,0,1-1.5-.69,3.29,3.29,0,0,1-.52-2c0-1.79.67-2.68,2-2.68a1.81,1.81,0,0,1,1.52.69A3.27,3.27,0,0,1,27.54,236.4Zm-2.6,0a3.81,3.81,0,0,0,.13,1.11c.09.24.23.36.43.36.37,0,.56-.49.56-1.47s-.19-1.47-.56-1.47c-.2,0-.34.12-.43.36A3.71,3.71,0,0,0,24.94,236.41Z" transform="translate(-0.25 -5.15)" fill="#231f20"/><path d="M34.71,239.09a2.59,2.59,0,0,1-1.05-.21,2,2,0,0,1-.8-.65H32.8a8.44,8.44,0,0,1,.06,1v2.42H32V233.1h.72l.13.8h0a2.07,2.07,0,0,1,.8-.69,2.38,2.38,0,0,1,1.05-.22,2.2,2.2,0,0,1,1.81.8,3.56,3.56,0,0,1,.63,2.25,3.52,3.52,0,0,1-.64,2.25A2.18,2.18,0,0,1,34.71,239.09Zm-.13-5.34a1.6,1.6,0,0,0-1.31.5,2.64,2.64,0,0,0-.41,1.59v.2a3,3,0,0,0,.41,1.77,1.58,1.58,0,0,0,1.33.54,1.39,1.39,0,0,0,1.2-.62,3,3,0,0,0,.43-1.7,2.86,2.86,0,0,0-.43-1.69A1.42,1.42,0,0,0,34.58,233.75Z" transform="translate(-0.25 -5.15)" fill="#231f20"/><path d="M41.09,239.09A2.7,2.7,0,0,1,39,238.3a3.06,3.06,0,0,1-.76-2.21,3.45,3.45,0,0,1,.7-2.26,2.34,2.34,0,0,1,1.89-.84,2.22,2.22,0,0,1,1.75.73,2.77,2.77,0,0,1,.64,1.92v.56h-4a2.32,2.32,0,0,0,.52,1.58,1.84,1.84,0,0,0,1.4.53,4.84,4.84,0,0,0,1.88-.39v.79a4,4,0,0,1-.89.29A5.09,5.09,0,0,1,41.09,239.09Zm-.24-5.35a1.47,1.47,0,0,0-1.14.46,2.13,2.13,0,0,0-.49,1.28H42.3a2,2,0,0,0-.38-1.29A1.32,1.32,0,0,0,40.85,233.74Z" transform="translate(-0.25 -5.15)" fill="#231f20"/><path d="M47.35,233a3,3,0,0,1,.7.07l-.12.82a3.37,3.37,0,0,0-.65-.08,1.6,1.6,0,0,0-1.22.58,2.12,2.12,0,0,0-.51,1.45V239h-.89V233.1h.74l.1,1.09h0a2.65,2.65,0,0,1,.79-.89A1.78,1.78,0,0,1,47.35,233Z" transform="translate(-0.25 -5.15)" fill="#231f20"/><path d="M51.69,233.79H50.2V239h-.89v-5.2H48.25v-.4l1.06-.32v-.33c0-1.45.63-2.17,1.89-2.17a3.79,3.79,0,0,1,1.1.19l-.23.71a3.05,3.05,0,0,0-.89-.17.86.86,0,0,0-.74.34,1.87,1.87,0,0,0-.24,1.08v.38h1.49Z" transform="translate(-0.25 -5.15)" fill="#231f20"/><path d="M57.74,236a3.18,3.18,0,0,1-.73,2.24,2.54,2.54,0,0,1-2,.81,2.62,2.62,0,0,1-1.4-.37,2.46,2.46,0,0,1-1-1.06,3.72,3.72,0,0,1-.33-1.62,3.27,3.27,0,0,1,.72-2.25,2.57,2.57,0,0,1,2-.8,2.47,2.47,0,0,1,2,.82A3.22,3.22,0,0,1,57.74,236Zm-4.49,0a2.7,2.7,0,0,0,.46,1.71,1.55,1.55,0,0,0,1.32.6,1.57,1.57,0,0,0,1.33-.59,2.8,2.8,0,0,0,.46-1.72,2.77,2.77,0,0,0-.46-1.71,1.83,1.83,0,0,0-2.66,0A2.78,2.78,0,0,0,53.25,236Z" transform="translate(-0.25 -5.15)" fill="#231f20"/><path d="M61.88,233a3,3,0,0,1,.7.07l-.12.82a3.28,3.28,0,0,0-.65-.08,1.6,1.6,0,0,0-1.22.58,2.12,2.12,0,0,0-.51,1.45V239h-.89V233.1h.74l.1,1.09h0a2.76,2.76,0,0,1,.79-.89A1.78,1.78,0,0,1,61.88,233Z" transform="translate(-0.25 -5.15)" fill="#231f20"/><path d="M71.08,239v-3.83a1.6,1.6,0,0,0-.3-1.06,1.19,1.19,0,0,0-.94-.35,1.52,1.52,0,0,0-1.23.48,2.28,2.28,0,0,0-.4,1.47V239h-.89v-3.83a1.6,1.6,0,0,0-.3-1.06,1.18,1.18,0,0,0-.94-.35,1.44,1.44,0,0,0-1.22.5,2.72,2.72,0,0,0-.39,1.65V239h-.9V233.1h.73l.14.8h0a1.7,1.7,0,0,1,.71-.67,2.17,2.17,0,0,1,1-.24,1.74,1.74,0,0,1,1.8,1h0a1.87,1.87,0,0,1,.77-.73A2.34,2.34,0,0,1,70,233a2,2,0,0,1,1.49.51,2.33,2.33,0,0,1,.5,1.65V239Z" transform="translate(-0.25 -5.15)" fill="#231f20"/><path d="M76.18,239.09a2.71,2.71,0,0,1-2.06-.79,3.1,3.1,0,0,1-.75-2.21,3.4,3.4,0,0,1,.7-2.26A2.32,2.32,0,0,1,76,233a2.2,2.2,0,0,1,1.75.73,2.77,2.77,0,0,1,.65,1.92v.56H74.29a2.32,2.32,0,0,0,.53,1.58,1.82,1.82,0,0,0,1.4.53,4.75,4.75,0,0,0,1.87-.39v.79a3.84,3.84,0,0,1-.89.29A5,5,0,0,1,76.18,239.09Zm-.24-5.35a1.45,1.45,0,0,0-1.13.46,2.13,2.13,0,0,0-.5,1.28h3.08a2,2,0,0,0-.37-1.29A1.34,1.34,0,0,0,75.94,233.74Z" transform="translate(-0.25 -5.15)" fill="#231f20"/><path d="M83.76,238.2h0a2.12,2.12,0,0,1-1.85.89,2.18,2.18,0,0,1-1.8-.79,3.44,3.44,0,0,1-.64-2.24,3.52,3.52,0,0,1,.64-2.26,2.17,2.17,0,0,1,1.8-.81,2.12,2.12,0,0,1,1.83.87h.07l0-.42,0-.42v-2.39h.89V239h-.73Zm-1.78.15a1.61,1.61,0,0,0,1.32-.5,2.47,2.47,0,0,0,.42-1.6v-.19a2.94,2.94,0,0,0-.42-1.79,1.6,1.6,0,0,0-1.33-.53,1.36,1.36,0,0,0-1.2.61,3,3,0,0,0-.42,1.72,2.86,2.86,0,0,0,.42,1.7A1.4,1.4,0,0,0,82,238.35Z" transform="translate(-0.25 -5.15)" fill="#231f20"/><path d="M92.76,239l-.18-.84h0a2.53,2.53,0,0,1-.88.75,2.75,2.75,0,0,1-1.1.19,2,2,0,0,1-1.37-.45,1.65,1.65,0,0,1-.5-1.28c0-1.19,1-1.81,2.86-1.87l1,0v-.37a1.48,1.48,0,0,0-.3-1,1.24,1.24,0,0,0-1-.33,3.88,3.88,0,0,0-1.66.45l-.27-.68a4,4,0,0,1,1-.37,4.07,4.07,0,0,1,1-.14,2.26,2.26,0,0,1,1.56.47,1.94,1.94,0,0,1,.51,1.5v4Zm-2-.63a1.79,1.79,0,0,0,1.31-.46,1.67,1.67,0,0,0,.47-1.28v-.53l-.89,0a3.1,3.1,0,0,0-1.53.33,1,1,0,0,0-.47.91.91.91,0,0,0,.29.73A1.22,1.22,0,0,0,90.74,238.36Z" transform="translate(-0.25 -5.15)" fill="#231f20"/><path d="M97,238.36a2.32,2.32,0,0,0,.46,0,3.56,3.56,0,0,0,.35-.07v.68a1.51,1.51,0,0,1-.43.12,3.16,3.16,0,0,1-.51,0c-1.13,0-1.7-.6-1.7-1.8v-3.5h-.85v-.43l.85-.37.37-1.26h.52v1.37h1.71v.69H96.1v3.47a1.17,1.17,0,0,0,.25.81A.88.88,0,0,0,97,238.36Z" transform="translate(-0.25 -5.15)" fill="#231f20"/><path d="M106.74,236a3.23,3.23,0,0,1-.72,2.24,2.54,2.54,0,0,1-2,.81,2.65,2.65,0,0,1-1.41-.37,2.44,2.44,0,0,1-.94-1.06,3.72,3.72,0,0,1-.33-1.62,3.27,3.27,0,0,1,.72-2.25,2.55,2.55,0,0,1,2-.8,2.49,2.49,0,0,1,2,.82A3.27,3.27,0,0,1,106.74,236Zm-4.48,0a2.77,2.77,0,0,0,.45,1.71,1.55,1.55,0,0,0,1.33.6,1.6,1.6,0,0,0,1.33-.59,2.8,2.8,0,0,0,.45-1.72,2.77,2.77,0,0,0-.45-1.71,1.6,1.6,0,0,0-1.34-.58,1.56,1.56,0,0,0-1.32.57A2.78,2.78,0,0,0,102.26,236Z" transform="translate(-0.25 -5.15)" fill="#231f20"/><path d="M110.88,233a3,3,0,0,1,.71.07l-.13.82a3.19,3.19,0,0,0-.64-.08,1.58,1.58,0,0,0-1.22.58,2.12,2.12,0,0,0-.51,1.45V239h-.89V233.1h.73l.11,1.09h0a2.65,2.65,0,0,1,.79-.89A1.74,1.74,0,0,1,110.88,233Z" transform="translate(-0.25 -5.15)" fill="#231f20"/><path d="M118.94,239l-.17-.84h0a2.53,2.53,0,0,1-.88.75,2.75,2.75,0,0,1-1.1.19,2,2,0,0,1-1.37-.45,1.65,1.65,0,0,1-.5-1.28c0-1.19,1-1.81,2.86-1.87l1,0v-.37a1.48,1.48,0,0,0-.29-1,1.24,1.24,0,0,0-1-.33,3.88,3.88,0,0,0-1.66.45l-.27-.68a3.84,3.84,0,0,1,1-.37,4.07,4.07,0,0,1,1-.14,2.26,2.26,0,0,1,1.56.47,1.94,1.94,0,0,1,.51,1.5v4Zm-2-.63a1.79,1.79,0,0,0,1.31-.46,1.67,1.67,0,0,0,.47-1.28v-.53l-.89,0a3.1,3.1,0,0,0-1.53.33,1,1,0,0,0-.47.91.91.91,0,0,0,.29.73A1.22,1.22,0,0,0,116.93,238.36Z" transform="translate(-0.25 -5.15)" fill="#231f20"/><path d="M124.07,233a2.19,2.19,0,0,1,1.8.79,3.49,3.49,0,0,1,.65,2.25,3.52,3.52,0,0,1-.65,2.25,2.16,2.16,0,0,1-1.8.8,2.59,2.59,0,0,1-1-.21,2,2,0,0,1-.8-.65h-.06L122,239h-.64v-8.36h.89v2c0,.45,0,.86,0,1.22h0A2.15,2.15,0,0,1,124.07,233Zm-.13.75a1.54,1.54,0,0,0-1.31.52,3,3,0,0,0-.41,1.77,2.89,2.89,0,0,0,.42,1.77,1.56,1.56,0,0,0,1.32.54,1.38,1.38,0,0,0,1.23-.6,3.08,3.08,0,0,0,.4-1.72,3,3,0,0,0-.4-1.72A1.44,1.44,0,0,0,123.94,233.75Z" transform="translate(-0.25 -5.15)" fill="#231f20"/><path d="M133,236a3.23,3.23,0,0,1-.72,2.24,2.54,2.54,0,0,1-2,.81,2.65,2.65,0,0,1-1.41-.37,2.44,2.44,0,0,1-.94-1.06,3.72,3.72,0,0,1-.33-1.62,3.27,3.27,0,0,1,.72-2.25,2.55,2.55,0,0,1,2-.8,2.49,2.49,0,0,1,2,.82A3.27,3.27,0,0,1,133,236Zm-4.48,0a2.77,2.77,0,0,0,.45,1.71,1.55,1.55,0,0,0,1.33.6,1.6,1.6,0,0,0,1.33-.59,2.8,2.8,0,0,0,.45-1.72,2.77,2.77,0,0,0-.45-1.71,1.6,1.6,0,0,0-1.34-.58,1.56,1.56,0,0,0-1.32.57A2.78,2.78,0,0,0,128.56,236Z" transform="translate(-0.25 -5.15)" fill="#231f20"/><path d="M135.79,239l-2.24-5.89h1l1.27,3.49c.28.82.45,1.35.5,1.59h0c0-.19.17-.58.38-1.18s.68-1.9,1.41-3.9h.95L136.83,239Z" transform="translate(-0.25 -5.15)" fill="#231f20"/><path d="M142.38,239.09a2.73,2.73,0,0,1-2.06-.79,3.1,3.1,0,0,1-.75-2.21,3.4,3.4,0,0,1,.7-2.26,2.33,2.33,0,0,1,1.88-.84,2.19,2.19,0,0,1,1.75.73,2.77,2.77,0,0,1,.65,1.92v.56h-4.06a2.38,2.38,0,0,0,.53,1.58,1.84,1.84,0,0,0,1.4.53,4.84,4.84,0,0,0,1.88-.39v.79a4.06,4.06,0,0,1-.9.29A5,5,0,0,1,142.38,239.09Zm-.24-5.35a1.45,1.45,0,0,0-1.13.46,2.13,2.13,0,0,0-.49,1.28h3.07a2,2,0,0,0-.37-1.29A1.33,1.33,0,0,0,142.14,233.74Z" transform="translate(-0.25 -5.15)" fill="#231f20"/><path d="M150.61,238.36a2.15,2.15,0,0,0,.45,0,3,3,0,0,0,.35-.07v.68a1.43,1.43,0,0,1-.42.12,3.25,3.25,0,0,1-.51,0q-1.71,0-1.71-1.8v-3.5h-.84v-.43l.84-.37.38-1.26h.51v1.37h1.71v.69h-1.71v3.47a1.18,1.18,0,0,0,.26.81A.85.85,0,0,0,150.61,238.36Z" transform="translate(-0.25 -5.15)" fill="#231f20"/><path d="M156.51,239v-3.81a1.55,1.55,0,0,0-.33-1.08,1.36,1.36,0,0,0-1-.35,1.69,1.69,0,0,0-1.35.5,2.54,2.54,0,0,0-.43,1.66V239h-.89v-8.36h.89v2.53a5.53,5.53,0,0,1,0,.76h0a1.81,1.81,0,0,1,.75-.67,2.39,2.39,0,0,1,1.11-.25,2.28,2.28,0,0,1,1.62.51,2.19,2.19,0,0,1,.54,1.64V239Z" transform="translate(-0.25 -5.15)" fill="#231f20"/><path d="M161.61,239.09a2.7,2.7,0,0,1-2.06-.79,3.1,3.1,0,0,1-.76-2.21,3.45,3.45,0,0,1,.7-2.26,2.34,2.34,0,0,1,1.89-.84,2.22,2.22,0,0,1,1.75.73,2.77,2.77,0,0,1,.64,1.92v.56h-4.05a2.37,2.37,0,0,0,.52,1.58,1.84,1.84,0,0,0,1.4.53,4.84,4.84,0,0,0,1.88-.39v.79a3.84,3.84,0,0,1-.89.29A5,5,0,0,1,161.61,239.09Zm-.24-5.35a1.43,1.43,0,0,0-1.13.46,2.07,2.07,0,0,0-.5,1.28h3.08a2,2,0,0,0-.38-1.29A1.32,1.32,0,0,0,161.37,233.74Z" transform="translate(-0.25 -5.15)" fill="#231f20"/><path d="M173.1,239h-1l-2.47-6.57h0c-.12.79-.25,1.54-.4,2.24l-.92,4.33h-.87l1.66-7.86h1l2.47,6.56h0c.11-.81.24-1.53.39-2.18l.93-4.38h.88Z" transform="translate(-0.25 -5.15)" fill="#231f20"/><path d="M179,236.49H176.3L175,239h-1l4.29-7.86h.94l1,7.86h-.92Zm-.1-.84-.19-1.61a17.4,17.4,0,0,1-.15-1.88c-.14.32-.28.63-.44.94s-.6,1.16-1.34,2.55Z" transform="translate(-0.25 -5.15)" fill="#231f20"/><path d="M185,239h-3.95l1.66-7.86h3.95l-.18.82h-3l-.52,2.52h2.83l-.16.82h-2.84l-.61,2.88h3Z" transform="translate(-0.25 -5.15)" fill="#231f20"/><path d="M192.33,233.16a2.43,2.43,0,0,1-.88,2,4,4,0,0,1-2.58.71h-.73l-.66,3.09h-.91l1.66-7.86H190a2.58,2.58,0,0,1,1.74.51A1.87,1.87,0,0,1,192.33,233.16Zm-4,2H189a2.71,2.71,0,0,0,1.76-.49,1.73,1.73,0,0,0,.6-1.43,1.19,1.19,0,0,0-.37-1,1.84,1.84,0,0,0-1.15-.3H189Z" transform="translate(-0.25 -5.15)" fill="#231f20"/><path d="M201.2,233.16a2.46,2.46,0,0,1-.88,2,4.08,4.08,0,0,1-2.59.71H197l-.66,3.09h-.92l1.66-7.86h1.78a2.62,2.62,0,0,1,1.74.51A1.9,1.9,0,0,1,201.2,233.16Zm-4,2h.72a2.71,2.71,0,0,0,1.76-.49,1.73,1.73,0,0,0,.6-1.43,1.16,1.16,0,0,0-.37-1,1.82,1.82,0,0,0-1.15-.3h-.87Z" transform="translate(-0.25 -5.15)" fill="#231f20"/><path d="M205.13,233a2.43,2.43,0,0,1,.64.08l-.19.8a2.78,2.78,0,0,0-.57-.07,1.51,1.51,0,0,0-.91.32,2.82,2.82,0,0,0-.75.9,4.57,4.57,0,0,0-.47,1.27l-.57,2.7h-.91l1.26-5.89h.75l-.12,1.09h.05a4.78,4.78,0,0,1,.64-.73,2.11,2.11,0,0,1,.53-.35A1.56,1.56,0,0,1,205.13,233Z" transform="translate(-0.25 -5.15)" fill="#231f20"/><path d="M208.79,233a2.13,2.13,0,0,1,1.61.61,2.27,2.27,0,0,1,.59,1.66,4.76,4.76,0,0,1-.39,1.91,3.32,3.32,0,0,1-1,1.38,2.4,2.4,0,0,1-1.49.49,2.13,2.13,0,0,1-1.62-.61,2.27,2.27,0,0,1-.58-1.66,4.78,4.78,0,0,1,.39-1.92,3.26,3.26,0,0,1,1.06-1.38A2.47,2.47,0,0,1,208.79,233Zm1.26,2.15a1.45,1.45,0,0,0-.33-1,1.15,1.15,0,0,0-.91-.39,1.55,1.55,0,0,0-1.05.4,2.52,2.52,0,0,0-.72,1.1,4.62,4.62,0,0,0-.26,1.57,1.63,1.63,0,0,0,.34,1.09,1.24,1.24,0,0,0,1,.39,1.5,1.5,0,0,0,1-.4,2.46,2.46,0,0,0,.69-1.11A4.93,4.93,0,0,0,210.05,235.17Z" transform="translate(-0.25 -5.15)" fill="#231f20"/><path d="M210.84,241.63a1.83,1.83,0,0,1-.68-.12v-.75a1.87,1.87,0,0,0,.61.12.7.7,0,0,0,.62-.34,2.77,2.77,0,0,0,.36-.95l1.22-5.81h-1l.07-.36,1.11-.35.12-.54a3.17,3.17,0,0,1,.69-1.52,1.75,1.75,0,0,1,1.29-.44,2.86,2.86,0,0,1,.53.06,2.18,2.18,0,0,1,.48.14l-.23.69a2.2,2.2,0,0,0-.73-.16.93.93,0,0,0-.72.27,2.07,2.07,0,0,0-.41,1l-.13.58h1.28l-.14.68h-1.27l-1.25,5.9a3.09,3.09,0,0,1-.64,1.48A1.49,1.49,0,0,1,210.84,241.63Zm5.23-2.64h-.91l1.26-5.89h.9Zm.6-7.4a.69.69,0,0,1,.18-.49.58.58,0,0,1,.44-.19c.32,0,.47.16.47.49a.75.75,0,0,1-.18.5.54.54,0,0,1-.41.2.52.52,0,0,1-.36-.13A.51.51,0,0,1,216.67,231.59Z" transform="translate(-0.25 -5.15)" fill="#231f20"/><path d="M220.26,239.09a2,2,0,0,1-2.19-2.19,4.85,4.85,0,0,1,.4-2,3.39,3.39,0,0,1,1.09-1.41,2.64,2.64,0,0,1,1.58-.51,4,4,0,0,1,1.44.27l-.25.76a3.07,3.07,0,0,0-1.18-.27,1.71,1.71,0,0,0-1.1.41,2.69,2.69,0,0,0-.78,1.14,4.59,4.59,0,0,0-.28,1.6,1.48,1.48,0,0,0,.36,1.06,1.27,1.27,0,0,0,1,.39,2.55,2.55,0,0,0,.74-.11c.22-.07.45-.16.67-.25v.76A3.16,3.16,0,0,1,220.26,239.09Z" transform="translate(-0.25 -5.15)" fill="#231f20"/><path d="M223.6,239h-.9L224,233.1h.9Zm.61-7.4a.73.73,0,0,1,.17-.49.62.62,0,0,1,.45-.19c.31,0,.47.16.47.49a.75.75,0,0,1-.18.5.56.56,0,0,1-.42.2.48.48,0,0,1-.35-.13A.51.51,0,0,1,224.21,231.59Z" transform="translate(-0.25 -5.15)" fill="#231f20"/><path d="M227.71,239.09a2,2,0,0,1-1.55-.58,2.22,2.22,0,0,1-.57-1.62A5,5,0,0,1,226,235a3.57,3.57,0,0,1,1.06-1.44,2.29,2.29,0,0,1,1.46-.52,1.81,1.81,0,0,1,1.23.36,1.23,1.23,0,0,1,.42,1,1.7,1.7,0,0,1-.89,1.52,4.88,4.88,0,0,1-2.55.55h-.18l0,.43a1.66,1.66,0,0,0,.33,1.1,1.26,1.26,0,0,0,1,.39,2.86,2.86,0,0,0,.7-.09,5.69,5.69,0,0,0,.89-.36v.79a4.6,4.6,0,0,1-.9.33A3.7,3.7,0,0,1,227.71,239.09Zm.75-5.33a1.45,1.45,0,0,0-1,.5,3.26,3.26,0,0,0-.75,1.41h.07a4.4,4.4,0,0,0,1.87-.32,1,1,0,0,0,.66-.93.62.62,0,0,0-.2-.47A.84.84,0,0,0,228.46,233.76Z" transform="translate(-0.25 -5.15)" fill="#231f20"/><path d="M234.3,239l.79-3.72a5.2,5.2,0,0,0,.11-.77A.77.77,0,0,0,235,234a.83.83,0,0,0-.61-.2,1.61,1.61,0,0,0-.93.32,2.8,2.8,0,0,0-.8.92,5,5,0,0,0-.53,1.44L231.6,239h-.9L232,233.1h.74l-.12,1.09h.06a3.49,3.49,0,0,1,1-.93,2,2,0,0,1,1-.27,1.57,1.57,0,0,1,1.08.37,1.39,1.39,0,0,1,.39,1,4.65,4.65,0,0,1-.12,1l-.77,3.61Z" transform="translate(-0.25 -5.15)" fill="#231f20"/><path d="M238.74,238.36a3.07,3.07,0,0,0,.78-.14v.69a3.27,3.27,0,0,1-.46.13,1.89,1.89,0,0,1-.43.05,1.44,1.44,0,0,1-1-.32,1.2,1.2,0,0,1-.36-1,3.64,3.64,0,0,1,.1-.81l.68-3.23h-.93l.08-.39,1-.42.67-1.22h.53l-.29,1.35h1.47l-.14.68h-1.47l-.69,3.24a3.54,3.54,0,0,0-.1.71.64.64,0,0,0,.16.47A.6.6,0,0,0,238.74,238.36Z" transform="translate(-0.25 -5.15)" fill="#231f20"/><path d="M244.66,239h-.89v-8.36h.89Z" transform="translate(-0.25 -5.15)" fill="#231f20"/><path d="M248.93,239.09a2.7,2.7,0,0,1-2.06-.79,3.1,3.1,0,0,1-.76-2.21,3.4,3.4,0,0,1,.71-2.26,2.31,2.31,0,0,1,1.88-.84,2.2,2.2,0,0,1,1.75.73,2.77,2.77,0,0,1,.64,1.92v.56H247a2.37,2.37,0,0,0,.52,1.58,1.84,1.84,0,0,0,1.4.53,4.84,4.84,0,0,0,1.88-.39v.79a3.84,3.84,0,0,1-.89.29A5,5,0,0,1,248.93,239.09Zm-.24-5.35a1.43,1.43,0,0,0-1.13.46,2.13,2.13,0,0,0-.5,1.28h3.08a2,2,0,0,0-.38-1.29A1.32,1.32,0,0,0,248.69,233.74Z" transform="translate(-0.25 -5.15)" fill="#231f20"/><path d="M253.79,239l-2.23-5.89h.95l1.27,3.49a16.67,16.67,0,0,1,.51,1.59h0a12,12,0,0,1,.37-1.18q.31-.9,1.41-3.9h1L254.83,239Z" transform="translate(-0.25 -5.15)" fill="#231f20"/><path d="M260.39,239.09a2.7,2.7,0,0,1-2.06-.79,3.1,3.1,0,0,1-.75-2.21,3.4,3.4,0,0,1,.7-2.26,2.31,2.31,0,0,1,1.88-.84,2.2,2.2,0,0,1,1.75.73,2.77,2.77,0,0,1,.65,1.92v.56H258.5a2.37,2.37,0,0,0,.52,1.58,1.85,1.85,0,0,0,1.4.53,4.8,4.8,0,0,0,1.88-.39v.79a3.84,3.84,0,0,1-.89.29A5,5,0,0,1,260.39,239.09Zm-.24-5.35a1.45,1.45,0,0,0-1.13.46,2.13,2.13,0,0,0-.5,1.28h3.08a2,2,0,0,0-.38-1.29A1.32,1.32,0,0,0,260.15,233.74Z" transform="translate(-0.25 -5.15)" fill="#231f20"/><path d="M264.86,239H264v-8.36h.89Z" transform="translate(-0.25 -5.15)" fill="#231f20"/><path d="M266.51,238.42a.8.8,0,0,1,.16-.55.61.61,0,0,1,.47-.18.66.66,0,0,1,.49.18.8.8,0,0,1,.17.55.77.77,0,0,1-.17.53.63.63,0,0,1-.49.19.64.64,0,0,1-.45-.17A.73.73,0,0,1,266.51,238.42Z" transform="translate(-0.25 -5.15)" fill="#231f20"/><path d="M307.29,108.09h-12v-2.52l4.3-4.35c1.28-1.3,2.11-2.21,2.5-2.71a6,6,0,0,0,.84-1.4,3.44,3.44,0,0,0,.26-1.34,1.92,1.92,0,0,0-.57-1.53,2.17,2.17,0,0,0-1.51-.51,4.32,4.32,0,0,0-1.94.46,10,10,0,0,0-2,1.3l-2-2.33a13.12,13.12,0,0,1,2.09-1.53,8.05,8.05,0,0,1,1.82-.68,9.33,9.33,0,0,1,2.2-.24,6.55,6.55,0,0,1,2.84.58,4.52,4.52,0,0,1,1.91,1.64,4.41,4.41,0,0,1,.68,2.42,5.85,5.85,0,0,1-.42,2.22,8.19,8.19,0,0,1-1.29,2.13,31.31,31.31,0,0,1-3.07,3.1l-2.21,2.08V105h7.47Z" transform="translate(-0.25 -5.15)" fill="#231f20"/><path d="M312.84,101.07a4.32,4.32,0,0,1-.53,2.36,1.82,1.82,0,0,1-3,0,5.5,5.5,0,0,1,0-4.67,1.67,1.67,0,0,1,1.51-.79,1.71,1.71,0,0,1,1.52.81A4.2,4.2,0,0,1,312.84,101.07Zm-3.13,0a4.6,4.6,0,0,0,.25,1.75.86.86,0,0,0,.82.58c.75,0,1.12-.78,1.12-2.33s-.37-2.31-1.12-2.31a.85.85,0,0,0-.82.58A4.48,4.48,0,0,0,309.71,101.07Zm7.39-3-5.55,10h-1l5.54-10Zm1.76,7a4.4,4.4,0,0,1-.52,2.35,1.72,1.72,0,0,1-1.54.79,1.67,1.67,0,0,1-1.49-.81,4.3,4.3,0,0,1-.53-2.33,4.35,4.35,0,0,1,.51-2.34,1.69,1.69,0,0,1,1.51-.78,1.73,1.73,0,0,1,1.52.8A4.14,4.14,0,0,1,318.86,105.08Zm-3.14,0a4.56,4.56,0,0,0,.26,1.75.84.84,0,0,0,.82.57.9.9,0,0,0,.85-.57,4.28,4.28,0,0,0,.27-1.75,4.18,4.18,0,0,0-.27-1.73.9.9,0,0,0-.85-.57.84.84,0,0,0-.82.57A4.38,4.38,0,0,0,315.72,105.08Z" transform="translate(-0.25 -5.15)" fill="#231f20"/><path d="M298.92,119.09l-.18-.84h0a2.53,2.53,0,0,1-.88.75,2.7,2.7,0,0,1-1.09.19,2,2,0,0,1-1.38-.45,1.64,1.64,0,0,1-.49-1.28c0-1.19.95-1.81,2.85-1.87l1,0v-.37a1.48,1.48,0,0,0-.3-1,1.23,1.23,0,0,0-1-.33,3.92,3.92,0,0,0-1.67.45l-.27-.68a4.36,4.36,0,0,1,2-.51,2.26,2.26,0,0,1,1.56.47,1.94,1.94,0,0,1,.51,1.5v4Zm-2-.63a1.79,1.79,0,0,0,1.31-.46,1.67,1.67,0,0,0,.48-1.28v-.53l-.89,0a3.14,3.14,0,0,0-1.54.33,1,1,0,0,0-.47.91,1,1,0,0,0,.29.74A1.27,1.27,0,0,0,296.9,118.46Z" transform="translate(-0.25 -5.15)" fill="#231f20"/><path d="M303.32,118.46a2.22,2.22,0,0,0,.45,0,1.77,1.77,0,0,0,.35-.07V119a1.43,1.43,0,0,1-.42.12,3.25,3.25,0,0,1-.51,0c-1.14,0-1.71-.6-1.71-1.79v-3.51h-.84v-.43l.84-.37.38-1.25h.51v1.36h1.71v.69h-1.71v3.47a1.22,1.22,0,0,0,.25.81A.89.89,0,0,0,303.32,118.46Z" transform="translate(-0.25 -5.15)" fill="#231f20"/><path d="M313.33,119.09h-1l-2.47-6.57h0c-.11.79-.24,1.54-.39,2.24l-.93,4.33h-.87l1.66-7.86h1l2.46,6.56h0a21.72,21.72,0,0,1,.38-2.18l.94-4.38H315Z" transform="translate(-0.25 -5.15)" fill="#231f20"/><path d="M319.3,116.59h-2.66l-1.32,2.5h-1l4.29-7.86h.93l1,7.86h-.91Zm-.1-.84-.18-1.6a17.89,17.89,0,0,1-.16-1.88c-.13.31-.28.62-.43.94s-.6,1.16-1.34,2.54Z" transform="translate(-0.25 -5.15)" fill="#231f20"/><path d="M325.45,119.09H321.5l1.66-7.86h3.95l-.17.83h-3l-.53,2.52h2.83l-.15.81h-2.84l-.62,2.88h3Z" transform="translate(-0.25 -5.15)" fill="#231f20"/><path d="M332.89,113.26a2.42,2.42,0,0,1-.88,2,4.07,4.07,0,0,1-2.58.71h-.73l-.66,3.09h-.91l1.66-7.86h1.77a2.62,2.62,0,0,1,1.74.51A1.92,1.92,0,0,1,332.89,113.26Zm-4,1.95h.71a2.78,2.78,0,0,0,1.76-.48,1.76,1.76,0,0,0,.6-1.44,1.16,1.16,0,0,0-.37-1,1.82,1.82,0,0,0-1.15-.3h-.87Z" transform="translate(-0.25 -5.15)" fill="#231f20"/><path d="M298.72,127.59h-2.66l-1.32,2.5h-1l4.3-7.86H299l1,7.86H299Zm-.1-.84-.19-1.6c-.08-.65-.13-1.27-.15-1.88-.13.31-.28.62-.43.94l-1.34,2.54Z" transform="translate(-0.25 -5.15)" fill="#231f20"/><path d="M303.89,124.1a1.56,1.56,0,0,1,1.51,1h.05a14.87,14.87,0,0,1,.25-1.47l.41-1.92h.9l-1.78,8.36h-.74l.12-1.13h-.05a4.18,4.18,0,0,1-1,1,2,2,0,0,1-1,.27,1.41,1.41,0,0,1-1.17-.52,2.35,2.35,0,0,1-.41-1.46,5.54,5.54,0,0,1,.38-2.11,3.54,3.54,0,0,1,1.05-1.48A2.36,2.36,0,0,1,303.89,124.1Zm-1,5.35a1.56,1.56,0,0,0,1-.5,3.46,3.46,0,0,0,.85-1.29,4.22,4.22,0,0,0,.32-1.59,1.31,1.31,0,0,0-.29-.91,1.1,1.1,0,0,0-.85-.31,1.44,1.44,0,0,0-1,.44,3.15,3.15,0,0,0-.75,1.25,5,5,0,0,0-.28,1.69C301.91,129,302.23,129.45,302.87,129.45Z" transform="translate(-0.25 -5.15)" fill="#231f20"/><path d="M308,130.09l-.68-5.89h.91l.34,3.29c.09.93.13,1.57.13,2h0c.46-1,.78-1.65,1-2l1.75-3.24h.95l-3.17,5.89Z" transform="translate(-0.25 -5.15)" fill="#231f20"/><path d="M315.32,124.09a1.5,1.5,0,0,1,.88.27,1.7,1.7,0,0,1,.6.76h.06l.36-.92h.68l-1.25,5.89h-.71l.14-1.13h0a2.67,2.67,0,0,1-2,1.23,1.39,1.39,0,0,1-1.17-.53,2.27,2.27,0,0,1-.42-1.45,5.46,5.46,0,0,1,.38-2.08,3.53,3.53,0,0,1,1.05-1.49A2.26,2.26,0,0,1,315.32,124.09Zm-1,5.36a1.54,1.54,0,0,0,1-.5,3.8,3.8,0,0,0,.84-1.29,4.35,4.35,0,0,0,.32-1.6,1.25,1.25,0,0,0-.3-.88,1,1,0,0,0-.79-.33,1.46,1.46,0,0,0-1,.46,3.27,3.27,0,0,0-.76,1.25,5.13,5.13,0,0,0-.27,1.67,1.37,1.37,0,0,0,.25.91A.86.86,0,0,0,314.3,129.45Z" transform="translate(-0.25 -5.15)" fill="#231f20"/><path d="M322,130.09l.8-3.72a4.79,4.79,0,0,0,.1-.77.77.77,0,0,0-.19-.55.83.83,0,0,0-.61-.2,1.61,1.61,0,0,0-.93.32,2.92,2.92,0,0,0-.8.92,4.66,4.66,0,0,0-.52,1.45l-.55,2.55h-.9l1.26-5.89h.74l-.11,1.09h.05a3.51,3.51,0,0,1,1-.93,2,2,0,0,1,1-.27,1.5,1.5,0,0,1,1.08.38,1.35,1.35,0,0,1,.39,1,4.57,4.57,0,0,1-.12,1l-.77,3.61Z" transform="translate(-0.25 -5.15)" fill="#231f20"/><path d="M327.17,130.19a2.22,2.22,0,0,1-1.62-.57A2.19,2.19,0,0,1,325,128a4.77,4.77,0,0,1,.4-2,3.36,3.36,0,0,1,1.09-1.42,2.64,2.64,0,0,1,1.58-.51,3.8,3.8,0,0,1,1.44.28l-.25.75a3.07,3.07,0,0,0-1.18-.27,1.71,1.71,0,0,0-1.1.41,2.79,2.79,0,0,0-.78,1.15,4.5,4.5,0,0,0-.28,1.59,1.51,1.51,0,0,0,.36,1.07,1.3,1.3,0,0,0,1,.38,2.55,2.55,0,0,0,.74-.11c.22-.07.45-.16.67-.25v.77A3.28,3.28,0,0,1,327.17,130.19Z" transform="translate(-0.25 -5.15)" fill="#231f20"/><path d="M332.05,130.19a2.07,2.07,0,0,1-1.56-.58,2.26,2.26,0,0,1-.56-1.62,5,5,0,0,1,.4-1.94,3.57,3.57,0,0,1,1.06-1.44,2.29,2.29,0,0,1,1.46-.52,1.81,1.81,0,0,1,1.23.36,1.24,1.24,0,0,1,.42,1,1.7,1.7,0,0,1-.89,1.51,4.89,4.89,0,0,1-2.56.55h-.17l0,.43a1.66,1.66,0,0,0,.33,1.1,1.24,1.24,0,0,0,1,.4,2.4,2.4,0,0,0,.69-.1,4.86,4.86,0,0,0,.89-.35v.78a4.31,4.31,0,0,1-.89.33A3.76,3.76,0,0,1,332.05,130.19Zm.74-5.33a1.46,1.46,0,0,0-1,.51,3.26,3.26,0,0,0-.74,1.4h.06a4.42,4.42,0,0,0,1.88-.32,1,1,0,0,0,.66-.93.62.62,0,0,0-.2-.47A.85.85,0,0,0,332.79,124.86Z" transform="translate(-0.25 -5.15)" fill="#231f20"/><path d="M338.26,124.1a1.56,1.56,0,0,1,1.51,1h.05a12.42,12.42,0,0,1,.25-1.47l.41-1.92h.9l-1.78,8.36h-.74L339,129h-.05a4.18,4.18,0,0,1-1,1,2,2,0,0,1-1,.27,1.41,1.41,0,0,1-1.17-.52,2.28,2.28,0,0,1-.41-1.46,5.54,5.54,0,0,1,.38-2.11,3.54,3.54,0,0,1,1.05-1.48A2.36,2.36,0,0,1,338.26,124.1Zm-1,5.35a1.58,1.58,0,0,0,1-.5,3.59,3.59,0,0,0,.85-1.29,4.22,4.22,0,0,0,.32-1.59,1.31,1.31,0,0,0-.29-.91,1.1,1.1,0,0,0-.84-.31,1.45,1.45,0,0,0-1,.44,3.15,3.15,0,0,0-.75,1.25,5,5,0,0,0-.28,1.69C336.28,129,336.6,129.45,337.24,129.45Z" transform="translate(-0.25 -5.15)" fill="#231f20"/><line x1="317.68" y1="171.37" x2="317.68" y2="132.71" fill="none" stroke="#231f20" stroke-miterlimit="10"/><circle cx="317.55" cy="132.71" r="2.72" fill="#fff" stroke="#231f20" stroke-miterlimit="10"/><rect x="314.67" y="148.57" width="6.43" height="32.8" fill="#dbe2e9"/><path d="M255.42,108h-12v-2.52l4.3-4.35c1.27-1.3,2.1-2.21,2.49-2.71a6.46,6.46,0,0,0,.85-1.4,3.62,3.62,0,0,0,.25-1.34,2,2,0,0,0-.56-1.53,2.2,2.2,0,0,0-1.52-.51,4.32,4.32,0,0,0-1.94.46,10,10,0,0,0-1.95,1.3l-2-2.33a12.68,12.68,0,0,1,2.1-1.53,8,8,0,0,1,1.81-.68,9.35,9.35,0,0,1,2.21-.24,6.5,6.5,0,0,1,2.83.58,4.52,4.52,0,0,1,1.91,1.64,4.33,4.33,0,0,1,.68,2.42,6,6,0,0,1-.41,2.22,8.78,8.78,0,0,1-1.29,2.13,32.9,32.9,0,0,1-3.08,3.1l-2.2,2.08v.16h7.46Z" transform="translate(-0.25 -5.15)" fill="#231f20"/><path d="M269,99.38q0,4.49-1.47,6.65a5.12,5.12,0,0,1-4.53,2.15,5,5,0,0,1-4.47-2.22q-1.51-2.23-1.51-6.58,0-4.53,1.47-6.68a5.68,5.68,0,0,1,9,.09Q269,95,269,99.38Zm-8.38,0a13.47,13.47,0,0,0,.54,4.52,1.89,1.89,0,0,0,1.84,1.36,1.92,1.92,0,0,0,1.83-1.38,13.08,13.08,0,0,0,.56-4.5,12.91,12.91,0,0,0-.57-4.53,1.9,1.9,0,0,0-3.65,0A13.26,13.26,0,0,0,260.65,99.38Z" transform="translate(-0.25 -5.15)" fill="#231f20"/><path d="M274.67,100.93a4.32,4.32,0,0,1-.53,2.36,1.82,1.82,0,0,1-3,0,5.5,5.5,0,0,1,0-4.67,1.68,1.68,0,0,1,1.51-.79,1.71,1.71,0,0,1,1.52.81A4.2,4.2,0,0,1,274.67,100.93Zm-3.13,0a4.6,4.6,0,0,0,.25,1.75.86.86,0,0,0,.82.58c.75,0,1.12-.78,1.12-2.33s-.37-2.31-1.12-2.31a.85.85,0,0,0-.82.58A4.48,4.48,0,0,0,271.54,100.93Zm7.39-3-5.55,10h-1l5.54-10Zm1.76,7a4.31,4.31,0,0,1-.52,2.35,1.72,1.72,0,0,1-1.54.79,1.68,1.68,0,0,1-1.49-.81,4.3,4.3,0,0,1-.52-2.33,4.37,4.37,0,0,1,.51-2.34,1.67,1.67,0,0,1,1.5-.78,1.72,1.72,0,0,1,1.52.8A4.14,4.14,0,0,1,280.69,104.94Zm-3.14,0a4.56,4.56,0,0,0,.26,1.75.84.84,0,0,0,.82.57.89.89,0,0,0,.85-.57,4.28,4.28,0,0,0,.27-1.75,4.18,4.18,0,0,0-.27-1.73.89.89,0,0,0-.85-.57.84.84,0,0,0-.82.57A4.38,4.38,0,0,0,277.55,104.94Z" transform="translate(-0.25 -5.15)" fill="#231f20"/><path d="M247.05,119l-.18-.84h0a2.45,2.45,0,0,1-.88.75,2.66,2.66,0,0,1-1.09.19,2,2,0,0,1-1.37-.45,1.63,1.63,0,0,1-.5-1.28c0-1.19.95-1.81,2.85-1.87l1,0v-.37a1.48,1.48,0,0,0-.3-1,1.22,1.22,0,0,0-.95-.33,3.92,3.92,0,0,0-1.67.45l-.27-.68a4.36,4.36,0,0,1,2-.51,2.26,2.26,0,0,1,1.56.47,1.94,1.94,0,0,1,.51,1.5v4Zm-2-.63a1.77,1.77,0,0,0,1.3-.46,1.67,1.67,0,0,0,.48-1.28v-.53l-.89,0a3.29,3.29,0,0,0-1.54.33,1,1,0,0,0-.47.91.92.92,0,0,0,.3.74A1.25,1.25,0,0,0,245,118.32Z" transform="translate(-0.25 -5.15)" fill="#231f20"/><path d="M251.45,118.32a2.32,2.32,0,0,0,.46,0,1.81,1.81,0,0,0,.34-.07v.68a1.34,1.34,0,0,1-.42.12,3.25,3.25,0,0,1-.51,0c-1.14,0-1.71-.59-1.71-1.79v-3.51h-.84v-.43l.84-.37.38-1.25h.51v1.36h1.71v.69H250.5v3.47a1.18,1.18,0,0,0,.26.81A.87.87,0,0,0,251.45,118.32Z" transform="translate(-0.25 -5.15)" fill="#231f20"/><path d="M261.46,119h-1L258,112.38h0c-.12.79-.25,1.54-.4,2.24l-.93,4.33h-.87l1.66-7.86h1l2.47,6.56h0a21.58,21.58,0,0,1,.39-2.18l.93-4.38h.88Z" transform="translate(-0.25 -5.15)" fill="#231f20"/><path d="M267.43,116.45h-2.66l-1.32,2.5h-1l4.29-7.86h.93l1,7.86h-.91Zm-.09-.84-.19-1.6a17.67,17.67,0,0,1-.16-1.88c-.13.31-.27.62-.43.94s-.6,1.16-1.34,2.54Z" transform="translate(-0.25 -5.15)" fill="#231f20"/><path d="M273.58,119h-3.94l1.66-7.86h3.94l-.17.83h-3l-.53,2.52h2.84l-.16.81h-2.84l-.61,2.88h3Z" transform="translate(-0.25 -5.15)" fill="#231f20"/><path d="M281,113.12a2.45,2.45,0,0,1-.88,2,4.13,4.13,0,0,1-2.58.7h-.73l-.66,3.09h-.91l1.66-7.86h1.77a2.58,2.58,0,0,1,1.74.51A1.88,1.88,0,0,1,281,113.12Zm-4,1.95h.71a2.76,2.76,0,0,0,1.76-.48,1.74,1.74,0,0,0,.61-1.44,1.17,1.17,0,0,0-.38-1,1.81,1.81,0,0,0-1.14-.3h-.88Z" transform="translate(-0.25 -5.15)" fill="#231f20"/><path d="M248.71,124.12a2.45,2.45,0,0,1-.88,2,4.13,4.13,0,0,1-2.58.7h-.73l-.66,3.09H243l1.66-7.86h1.77a2.58,2.58,0,0,1,1.74.51A1.92,1.92,0,0,1,248.71,124.12Zm-4,1.95h.71a2.78,2.78,0,0,0,1.76-.48,1.76,1.76,0,0,0,.6-1.44,1.16,1.16,0,0,0-.37-1,1.82,1.82,0,0,0-1.15-.3h-.87Z" transform="translate(-0.25 -5.15)" fill="#231f20"/><path d="M252.75,124a2.38,2.38,0,0,1,.64.08l-.19.8a2.77,2.77,0,0,0-.56-.07,1.46,1.46,0,0,0-.92.33,2.92,2.92,0,0,0-.75.89,4.69,4.69,0,0,0-.47,1.27l-.57,2.7H249l1.25-5.89H251l-.12,1.09H251a4.73,4.73,0,0,1,.64-.73,1.9,1.9,0,0,1,.52-.35A1.56,1.56,0,0,1,252.75,124Z" transform="translate(-0.25 -5.15)" fill="#231f20"/><path d="M256.52,124a2.15,2.15,0,0,1,1.61.6,2.25,2.25,0,0,1,.59,1.66,4.93,4.93,0,0,1-.38,1.91,3.26,3.26,0,0,1-1,1.38,2.43,2.43,0,0,1-1.5.49,2.15,2.15,0,0,1-1.61-.6,2.31,2.31,0,0,1-.59-1.66,4.78,4.78,0,0,1,.39-1.92,3.35,3.35,0,0,1,1.06-1.38A2.49,2.49,0,0,1,256.52,124Zm1.27,2.14a1.43,1.43,0,0,0-.34-1,1.14,1.14,0,0,0-.91-.39,1.6,1.6,0,0,0-1.05.4,2.58,2.58,0,0,0-.72,1.1,4.62,4.62,0,0,0-.25,1.57,1.57,1.57,0,0,0,.34,1.09,1.22,1.22,0,0,0,1,.39,1.45,1.45,0,0,0,1-.4,2.56,2.56,0,0,0,.7-1.11A5.2,5.2,0,0,0,257.79,126.13Z" transform="translate(-0.25 -5.15)" fill="#231f20"/><path d="M258.68,132.59a2,2,0,0,1-.67-.11v-.76a1.87,1.87,0,0,0,.6.12.71.71,0,0,0,.63-.34,2.92,2.92,0,0,0,.35-.95l1.22-5.81h-1l.07-.36L261,124l.12-.54a3.32,3.32,0,0,1,.69-1.52,1.76,1.76,0,0,1,1.3-.44,2.76,2.76,0,0,1,.52.06,2.49,2.49,0,0,1,.49.14l-.23.69a2.21,2.21,0,0,0-.74-.15.94.94,0,0,0-.72.26,2.08,2.08,0,0,0-.4,1l-.14.58h1.28l-.13.68h-1.28l-1.24,5.9a3,3,0,0,1-.65,1.48A1.49,1.49,0,0,1,258.68,132.59Zm5.23-2.64H263l1.25-5.89h.91Zm.61-7.39a.67.67,0,0,1,.17-.49.55.55,0,0,1,.44-.19.42.42,0,0,1,.48.48.75.75,0,0,1-.18.5.56.56,0,0,1-.42.2.48.48,0,0,1-.35-.13A.46.46,0,0,1,264.52,122.56Z" transform="translate(-0.25 -5.15)" fill="#231f20"/><path d="M268.21,130.05a2.18,2.18,0,0,1-1.61-.57,2.16,2.16,0,0,1-.58-1.62,4.77,4.77,0,0,1,.4-2,3.3,3.3,0,0,1,1.1-1.42,2.59,2.59,0,0,1,1.57-.51,3.8,3.8,0,0,1,1.44.28l-.25.75a3.07,3.07,0,0,0-1.18-.27,1.73,1.73,0,0,0-1.1.41,2.68,2.68,0,0,0-.77,1.15,4.32,4.32,0,0,0-.29,1.59,1.51,1.51,0,0,0,.36,1.07,1.31,1.31,0,0,0,1,.38,2.48,2.48,0,0,0,.73-.11c.23-.07.45-.16.67-.25v.77A3.25,3.25,0,0,1,268.21,130.05Z" transform="translate(-0.25 -5.15)" fill="#231f20"/><path d="M271.67,130h-.91l1.26-5.89h.9Zm.6-7.39a.67.67,0,0,1,.18-.49.55.55,0,0,1,.44-.19.42.42,0,0,1,.47.48.75.75,0,0,1-.18.5.56.56,0,0,1-.41.2.47.47,0,0,1-.5-.5Z" transform="translate(-0.25 -5.15)" fill="#231f20"/><path d="M275.88,130.05a2.05,2.05,0,0,1-1.55-.58,2.26,2.26,0,0,1-.56-1.62,4.78,4.78,0,0,1,.4-1.94,3.48,3.48,0,0,1,1.06-1.44,2.32,2.32,0,0,1,1.45-.52,1.85,1.85,0,0,1,1.24.36,1.27,1.27,0,0,1,.41,1,1.68,1.68,0,0,1-.89,1.51,4.82,4.82,0,0,1-2.55.56h-.18l0,.42a1.66,1.66,0,0,0,.33,1.1,1.24,1.24,0,0,0,1,.4,2.47,2.47,0,0,0,.7-.1,5.15,5.15,0,0,0,.89-.35v.78a4.78,4.78,0,0,1-.89.33A3.85,3.85,0,0,1,275.88,130.05Zm.75-5.33a1.42,1.42,0,0,0-1,.51,3.26,3.26,0,0,0-.74,1.4h.06a4.45,4.45,0,0,0,1.88-.32,1,1,0,0,0,.65-.93.59.59,0,0,0-.2-.47A.83.83,0,0,0,276.63,124.72Z" transform="translate(-0.25 -5.15)" fill="#231f20"/><path d="M282.58,130l.8-3.72a4.79,4.79,0,0,0,.1-.77.77.77,0,0,0-.19-.55.83.83,0,0,0-.61-.2,1.61,1.61,0,0,0-.93.32,2.92,2.92,0,0,0-.8.92,4.66,4.66,0,0,0-.52,1.45l-.55,2.55H279l1.26-5.89H281l-.11,1.09h.05a3.66,3.66,0,0,1,1-.93,2,2,0,0,1,1-.27,1.5,1.5,0,0,1,1.08.38,1.36,1.36,0,0,1,.39,1,4.57,4.57,0,0,1-.12,1l-.77,3.61Z" transform="translate(-0.25 -5.15)" fill="#231f20"/><path d="M287.13,129.32a3.07,3.07,0,0,0,.78-.14v.69a2.77,2.77,0,0,1-.45.13,2,2,0,0,1-.43.05,1.51,1.51,0,0,1-1-.31,1.24,1.24,0,0,1-.36-1,3.49,3.49,0,0,1,.1-.8l.68-3.24h-.92l.07-.39,1-.42.67-1.22h.52l-.29,1.35h1.47l-.14.68h-1.47l-.69,3.25a4.09,4.09,0,0,0-.09.71.65.65,0,0,0,.15.46A.56.56,0,0,0,287.13,129.32Z" transform="translate(-0.25 -5.15)" fill="#231f20"/><line x1="265.72" y1="171.3" x2="265.72" y2="132.64" fill="none" stroke="#231f20" stroke-miterlimit="10"/><circle cx="265.58" cy="132.64" r="2.72" fill="#fff" stroke="#231f20" stroke-miterlimit="10"/><rect x="249.8" y="148.5" width="64.6" height="32.8" fill="#bbc6d6"/><line x1="197.05" y1="171.17" x2="197.05" y2="132.51" fill="none" stroke="#231f20" stroke-miterlimit="10"/><circle cx="196.91" cy="132.51" r="2.72" fill="#fff" stroke="#231f20" stroke-miterlimit="10"/><path d="M190,94.76a4,4,0,0,1-1,2.73A5.11,5.11,0,0,1,186.31,99v.07a5.43,5.43,0,0,1,3.14,1.26,3.51,3.51,0,0,1,1.07,2.7,4.58,4.58,0,0,1-1.8,3.85,8.3,8.3,0,0,1-5.12,1.37,12.54,12.54,0,0,1-4.94-.92v-3.08a12,12,0,0,0,2.19.82,9.3,9.3,0,0,0,2.37.31,4.59,4.59,0,0,0,2.65-.61,2.22,2.22,0,0,0,.85-2,1.79,1.79,0,0,0-1-1.72,7.42,7.42,0,0,0-3.14-.5h-1.3V97.86h1.32a6.11,6.11,0,0,0,2.91-.52,1.89,1.89,0,0,0,.92-1.79c0-1.29-.81-1.94-2.44-1.94a5.46,5.46,0,0,0-1.71.28,8.33,8.33,0,0,0-1.94,1l-1.68-2.49a9.28,9.28,0,0,1,5.59-1.69,7.17,7.17,0,0,1,4.2,1.08A3.45,3.45,0,0,1,190,94.76Z" transform="translate(-0.25 -5.15)" fill="#231f20"/><path d="M203.71,94.76a4,4,0,0,1-1,2.73A5.11,5.11,0,0,1,200,99v.07a5.43,5.43,0,0,1,3.14,1.26,3.51,3.51,0,0,1,1.07,2.7,4.58,4.58,0,0,1-1.8,3.85,8.3,8.3,0,0,1-5.12,1.37,12.54,12.54,0,0,1-4.94-.92v-3.08a12,12,0,0,0,2.19.82,9.24,9.24,0,0,0,2.37.31,4.55,4.55,0,0,0,2.64-.61,2.23,2.23,0,0,0,.86-2,1.79,1.79,0,0,0-1-1.72,7.42,7.42,0,0,0-3.14-.5H195V97.86h1.33a6.11,6.11,0,0,0,2.91-.52,1.89,1.89,0,0,0,.92-1.79c0-1.29-.81-1.94-2.44-1.94a5.46,5.46,0,0,0-1.71.28,8.33,8.33,0,0,0-1.94,1l-1.68-2.49A9.28,9.28,0,0,1,198,90.68a7.22,7.22,0,0,1,4.2,1.08A3.45,3.45,0,0,1,203.71,94.76Z" transform="translate(-0.25 -5.15)" fill="#231f20"/><path d="M209.93,101a4.32,4.32,0,0,1-.53,2.36,1.81,1.81,0,0,1-3,0,5.5,5.5,0,0,1,0-4.67,1.67,1.67,0,0,1,1.51-.79,1.71,1.71,0,0,1,1.52.81A4.2,4.2,0,0,1,209.93,101Zm-3.13,0a4.6,4.6,0,0,0,.25,1.75.86.86,0,0,0,.82.58c.75,0,1.12-.78,1.12-2.33s-.37-2.31-1.12-2.31a.86.86,0,0,0-.82.58A4.48,4.48,0,0,0,206.8,101Zm7.39-3-5.55,10h-1l5.54-10Zm1.76,7a4.31,4.31,0,0,1-.52,2.35,1.73,1.73,0,0,1-1.54.8,1.68,1.68,0,0,1-1.49-.82,4.3,4.3,0,0,1-.52-2.33,4.47,4.47,0,0,1,.5-2.34,1.69,1.69,0,0,1,1.51-.78,1.73,1.73,0,0,1,1.52.8A4.17,4.17,0,0,1,216,105.05Zm-3.14,0a4.56,4.56,0,0,0,.26,1.75.85.85,0,0,0,.82.58.9.9,0,0,0,.85-.58,4.28,4.28,0,0,0,.27-1.75,4.18,4.18,0,0,0-.27-1.73.89.89,0,0,0-.85-.57.84.84,0,0,0-.82.57A4.38,4.38,0,0,0,212.81,105.05Z" transform="translate(-0.25 -5.15)" fill="#231f20"/><path d="M182.31,119.06l-.18-.84h0a2.45,2.45,0,0,1-.88.75,2.65,2.65,0,0,1-1.09.2,1.91,1.91,0,0,1-1.37-.46,1.6,1.6,0,0,1-.5-1.28c0-1.19.95-1.81,2.85-1.87l1,0v-.37a1.48,1.48,0,0,0-.3-1,1.22,1.22,0,0,0-1-.33,3.92,3.92,0,0,0-1.67.45l-.27-.68a4.2,4.2,0,0,1,2-.5,2.25,2.25,0,0,1,1.56.46A1.94,1.94,0,0,1,183,115v4Zm-2-.63a1.77,1.77,0,0,0,1.3-.46,1.67,1.67,0,0,0,.48-1.27v-.54l-.89,0a3.42,3.42,0,0,0-1.54.33,1,1,0,0,0-.47.91.92.92,0,0,0,.3.74A1.18,1.18,0,0,0,180.3,118.43Z" transform="translate(-0.25 -5.15)" fill="#231f20"/><path d="M186.71,118.43a3.44,3.44,0,0,0,.46,0,2.92,2.92,0,0,0,.34-.08V119a1.34,1.34,0,0,1-.42.12,3.36,3.36,0,0,1-.51,0q-1.71,0-1.71-1.8v-3.5H184v-.43l.84-.38.38-1.25h.51v1.36h1.71v.7h-1.71v3.46a1.2,1.2,0,0,0,.26.82A.9.9,0,0,0,186.71,118.43Z" transform="translate(-0.25 -5.15)" fill="#231f20"/><path d="M196.72,119.06h-1l-2.47-6.57h0c-.12.79-.25,1.54-.4,2.24l-.93,4.33h-.87l1.66-7.85h1l2.47,6.55h0c.11-.8.23-1.53.38-2.18l.94-4.37h.88Z" transform="translate(-0.25 -5.15)" fill="#231f20"/><path d="M202.69,116.56H200l-1.32,2.5h-1l4.29-7.85h.93l1,7.85H203Zm-.09-.84-.19-1.6a17.67,17.67,0,0,1-.16-1.88c-.13.31-.27.63-.43.94s-.6,1.16-1.34,2.54Z" transform="translate(-0.25 -5.15)" fill="#231f20"/><path d="M208.84,119.06H204.9l1.65-7.85h3.95l-.17.82h-3l-.53,2.52h2.84l-.16.81H206.6l-.61,2.88h3Z" transform="translate(-0.25 -5.15)" fill="#231f20"/><path d="M216.28,113.23a2.45,2.45,0,0,1-.88,2,4.07,4.07,0,0,1-2.58.7h-.73l-.66,3.09h-.91l1.66-7.85H214a2.64,2.64,0,0,1,1.74.5A1.92,1.92,0,0,1,216.28,113.23Zm-4,2H213a2.76,2.76,0,0,0,1.76-.49,1.74,1.74,0,0,0,.61-1.44,1.18,1.18,0,0,0-.38-1,1.81,1.81,0,0,0-1.14-.29h-.88Z" transform="translate(-0.25 -5.15)" fill="#231f20"/><path d="M181.88,122.21c1.55,0,2.32.6,2.32,1.8a1.85,1.85,0,0,1-.47,1.28,2.27,2.27,0,0,1-1.31.68v0a1.78,1.78,0,0,1,1,.59,1.6,1.6,0,0,1,.33,1,2.17,2.17,0,0,1-.82,1.78,3.44,3.44,0,0,1-2.19.65h-2.48l1.66-7.85Zm-2.59,7.07h1.42a2.29,2.29,0,0,0,1.5-.43,1.53,1.53,0,0,0,.52-1.22,1.16,1.16,0,0,0-.4-1,1.77,1.77,0,0,0-1.15-.33h-1.27Zm.79-3.71h1.33a2.08,2.08,0,0,0,1.33-.39,1.27,1.27,0,0,0,.5-1.07,1,1,0,0,0-.35-.84,1.9,1.9,0,0,0-1.13-.27h-1.13Z" transform="translate(-0.25 -5.15)" fill="#231f20"/><path d="M187.76,124.06a1.5,1.5,0,0,1,.88.27,1.75,1.75,0,0,1,.6.77h.06l.36-.93h.68l-1.25,5.89h-.72l.14-1.12h0a2.65,2.65,0,0,1-2,1.23,1.43,1.43,0,0,1-1.18-.54,2.27,2.27,0,0,1-.42-1.45,5.56,5.56,0,0,1,.38-2.07,3.68,3.68,0,0,1,1.05-1.5A2.32,2.32,0,0,1,187.76,124.06Zm-1,5.36a1.52,1.52,0,0,0,1-.5,3.52,3.52,0,0,0,.84-1.29,4.35,4.35,0,0,0,.32-1.6,1.25,1.25,0,0,0-.3-.88,1,1,0,0,0-.79-.33,1.52,1.52,0,0,0-1,.46,3.11,3.11,0,0,0-.75,1.26,5.07,5.07,0,0,0-.28,1.66,1.42,1.42,0,0,0,.26.92A.86.86,0,0,0,186.74,129.42Z" transform="translate(-0.25 -5.15)" fill="#231f20"/><path d="M194.49,128.39a1.58,1.58,0,0,1-.6,1.31,2.63,2.63,0,0,1-1.67.47,3.54,3.54,0,0,1-1.64-.38V129a3.67,3.67,0,0,0,.81.35,3.06,3.06,0,0,0,.81.12,1.63,1.63,0,0,0,1-.27.83.83,0,0,0,.34-.69.72.72,0,0,0-.19-.51,3.69,3.69,0,0,0-.81-.58,3.43,3.43,0,0,1-1-.76,1.47,1.47,0,0,1-.29-.9,1.49,1.49,0,0,1,.55-1.19,2.17,2.17,0,0,1,1.43-.46,4.23,4.23,0,0,1,1.77.4l-.29.74-.3-.14a3.06,3.06,0,0,0-1.18-.23,1.18,1.18,0,0,0-.79.24.72.72,0,0,0-.28.6.76.76,0,0,0,.19.52,3.55,3.55,0,0,0,.78.55,4.51,4.51,0,0,1,.83.55,1.54,1.54,0,0,1,.37.5A1.47,1.47,0,0,1,194.49,128.39Z" transform="translate(-0.25 -5.15)" fill="#231f20"/><path d="M196.47,130.06h-.9l1.25-5.89h.9Zm.6-7.39a.67.67,0,0,1,.18-.49.55.55,0,0,1,.44-.19.42.42,0,0,1,.48.48.69.69,0,0,1-.19.5.53.53,0,0,1-.41.2.52.52,0,0,1-.36-.13A.5.5,0,0,1,197.07,122.67Z" transform="translate(-0.25 -5.15)" fill="#231f20"/><path d="M200.76,130.17a2.23,2.23,0,0,1-1.62-.58,2.19,2.19,0,0,1-.57-1.62,4.77,4.77,0,0,1,.4-2,3.36,3.36,0,0,1,1.09-1.42,2.64,2.64,0,0,1,1.58-.51,4,4,0,0,1,1.44.28l-.25.76a2.92,2.92,0,0,0-1.18-.28,1.71,1.71,0,0,0-1.1.41,2.79,2.79,0,0,0-.78,1.15,4.58,4.58,0,0,0-.28,1.59,1.51,1.51,0,0,0,.36,1.07,1.3,1.3,0,0,0,1,.38,2.55,2.55,0,0,0,.74-.11,6.07,6.07,0,0,0,.67-.25v.77A3.29,3.29,0,0,1,200.76,130.17Z" transform="translate(-0.25 -5.15)" fill="#231f20"/><rect x="144" y="148.37" width="105.87" height="32.8" fill="#8d9ebc"/><line x1="71.38" y1="171.17" x2="71.38" y2="132.51" fill="none" stroke="#231f20" stroke-miterlimit="10"/><circle cx="71.25" cy="132.51" r="2.72" fill="#fff" stroke="#231f20" stroke-miterlimit="10"/><path d="M57.94,104.29H55.88v3.55H52.34v-3.55H45v-2.52l7.51-11.06h3.34v10.77h2.06Zm-5.6-2.81v-2.9c0-.49,0-1.19.06-2.11s.07-1.46.09-1.61H52.4a13.91,13.91,0,0,1-1,1.88l-3.14,4.74Z" transform="translate(-0.25 -5.15)" fill="#231f20"/><path d="M65.51,96.9a5.51,5.51,0,0,1,4,1.39,5,5,0,0,1,1.47,3.82,5.55,5.55,0,0,1-1.77,4.42,7.47,7.47,0,0,1-5.06,1.55,9.87,9.87,0,0,1-4.62-.93V104a9.73,9.73,0,0,0,2.16.81,9.84,9.84,0,0,0,2.33.31q3.32,0,3.32-2.72t-3.44-2.59a8.76,8.76,0,0,0-1.37.12,8.5,8.5,0,0,0-1.22.27l-1.44-.78.65-8.73h9.29v3.07H63.65l-.32,3.37.41-.09A8.1,8.1,0,0,1,65.51,96.9Z" transform="translate(-0.25 -5.15)" fill="#231f20"/><path d="M76.8,100.83a4.32,4.32,0,0,1-.52,2.36,1.72,1.72,0,0,1-1.53.79,1.68,1.68,0,0,1-1.49-.81,4.31,4.31,0,0,1-.53-2.34,4.37,4.37,0,0,1,.51-2.34,1.68,1.68,0,0,1,1.51-.78,1.72,1.72,0,0,1,1.52.81A4.16,4.16,0,0,1,76.8,100.83Zm-3.13,0a4.71,4.71,0,0,0,.25,1.74.87.87,0,0,0,.83.59c.74,0,1.12-.78,1.12-2.33s-.38-2.31-1.12-2.31a.86.86,0,0,0-.83.57A4.78,4.78,0,0,0,73.67,100.83Zm7.39-3-5.54,10h-1l5.55-10Zm1.77,7a4.26,4.26,0,0,1-.53,2.34,1.7,1.7,0,0,1-1.53.8,1.68,1.68,0,0,1-1.5-.81,4.4,4.4,0,0,1-.52-2.33,4.32,4.32,0,0,1,.51-2.34,1.67,1.67,0,0,1,1.51-.79,1.71,1.71,0,0,1,1.51.81A4.14,4.14,0,0,1,82.83,104.84Zm-3.14,0a4.5,4.5,0,0,0,.25,1.74.85.85,0,0,0,.83.58.91.91,0,0,0,.85-.57,5.77,5.77,0,0,0,0-3.49.91.91,0,0,0-.85-.56.86.86,0,0,0-.83.56A4.5,4.5,0,0,0,79.69,104.84Z" transform="translate(-0.25 -5.15)" fill="#231f20"/><path d="M48.3,112.86a2.22,2.22,0,0,1,1.81.79,4.25,4.25,0,0,1,0,4.5,2.19,2.19,0,0,1-1.8.8,2.59,2.59,0,0,1-1-.21,2,2,0,0,1-.79-.65h-.07l-.19.75h-.63v-8.35h.89v2c0,.45,0,.86-.05,1.22h.05A2.12,2.12,0,0,1,48.3,112.86Zm-.12.75a1.56,1.56,0,0,0-1.32.52,3,3,0,0,0-.4,1.77,2.92,2.92,0,0,0,.41,1.77,1.58,1.58,0,0,0,1.33.54,1.38,1.38,0,0,0,1.22-.6,3.08,3.08,0,0,0,.4-1.72,3,3,0,0,0-.4-1.72A1.43,1.43,0,0,0,48.18,113.61Z" transform="translate(-0.25 -5.15)" fill="#231f20"/><path d="M54.79,119a2.71,2.71,0,0,1-2.06-.79A3.1,3.1,0,0,1,52,116a3.4,3.4,0,0,1,.7-2.26,2.32,2.32,0,0,1,1.88-.84,2.2,2.2,0,0,1,1.75.73A2.77,2.77,0,0,1,57,115.5v.56H52.9a2.32,2.32,0,0,0,.53,1.58,1.82,1.82,0,0,0,1.39.53,4.76,4.76,0,0,0,1.88-.39v.79a4.38,4.38,0,0,1-.89.29A5,5,0,0,1,54.79,119Zm-.24-5.35a1.45,1.45,0,0,0-1.13.46,2.13,2.13,0,0,0-.5,1.28H56a2,2,0,0,0-.37-1.29A1.34,1.34,0,0,0,54.55,113.6Z" transform="translate(-0.25 -5.15)" fill="#231f20"/><path d="M59.37,118.84h-.89v-8.35h.89Z" transform="translate(-0.25 -5.15)" fill="#231f20"/><path d="M66.34,115.9a3.24,3.24,0,0,1-.72,2.24,2.58,2.58,0,0,1-2,.81,2.64,2.64,0,0,1-1.4-.37,2.51,2.51,0,0,1-1-1.06,3.72,3.72,0,0,1-.33-1.62,3.27,3.27,0,0,1,.72-2.25,2.57,2.57,0,0,1,2-.8,2.47,2.47,0,0,1,2,.82A3.22,3.22,0,0,1,66.34,115.9Zm-4.48,0a2.77,2.77,0,0,0,.45,1.71,1.55,1.55,0,0,0,1.32.6,1.57,1.57,0,0,0,1.33-.59,2.73,2.73,0,0,0,.46-1.72,2.7,2.7,0,0,0-.46-1.71,1.83,1.83,0,0,0-2.66,0A2.78,2.78,0,0,0,61.86,115.9Z" transform="translate(-0.25 -5.15)" fill="#231f20"/><path d="M72.71,118.84l-1.08-3.45c-.07-.21-.19-.69-.38-1.44h0c-.15.63-.27,1.11-.38,1.45l-1.11,3.44h-1L67.08,113H68c.38,1.48.66,2.6.86,3.38a11.51,11.51,0,0,1,.34,1.56h0c0-.2.1-.47.19-.79s.16-.58.23-.77L70.77,113h1l1.06,3.38a10.8,10.8,0,0,1,.4,1.55h0a5,5,0,0,1,.11-.6L74.47,113h.93l-1.63,5.88Z" transform="translate(-0.25 -5.15)" fill="#231f20"/><path d="M50.74,129.84h-1l-2.48-6.56h0c-.11.79-.24,1.54-.4,2.24l-.92,4.32h-.87L46.73,122h1l2.46,6.55h0c.11-.8.24-1.52.39-2.17l.94-4.38h.88Z" transform="translate(-0.25 -5.15)" fill="#231f20"/><path d="M56.71,127.35H54.05l-1.32,2.49h-1L56,122h.93l1,7.85H57Zm-.1-.84-.18-1.61a17.45,17.45,0,0,1-.16-1.88c-.13.32-.28.63-.43.94l-1.34,2.55Z" transform="translate(-0.25 -5.15)" fill="#231f20"/><path d="M62.86,129.84h-4L60.57,122h3.95l-.17.82h-3l-.53,2.52h2.83l-.15.82H60.61L60,129h3Z" transform="translate(-0.25 -5.15)" fill="#231f20"/><path d="M70.3,124a2.43,2.43,0,0,1-.88,2,4.08,4.08,0,0,1-2.59.71h-.72l-.66,3.08h-.91L66.2,122H68a2.62,2.62,0,0,1,1.74.51A1.9,1.9,0,0,1,70.3,124Zm-4,2H67a2.71,2.71,0,0,0,1.76-.49,1.73,1.73,0,0,0,.6-1.43,1.16,1.16,0,0,0-.37-1,1.82,1.82,0,0,0-1.15-.3H67Z" transform="translate(-0.25 -5.15)" fill="#231f20"/><path d="M77.29,122c1.55,0,2.32.6,2.32,1.81a1.83,1.83,0,0,1-.47,1.28,2.26,2.26,0,0,1-1.31.67v.06a1.75,1.75,0,0,1,1,.59,1.59,1.59,0,0,1,.33,1,2.15,2.15,0,0,1-.82,1.79,3.41,3.41,0,0,1-2.18.64H73.62L75.28,122Zm-2.59,7.08h1.43a2.28,2.28,0,0,0,1.49-.44,1.47,1.47,0,0,0,.52-1.22,1.16,1.16,0,0,0-.4-1,1.77,1.77,0,0,0-1.15-.33H75.32Zm.79-3.72h1.33a2.13,2.13,0,0,0,1.34-.39,1.3,1.3,0,0,0,.5-1.07,1,1,0,0,0-.36-.83,1.81,1.81,0,0,0-1.13-.28H76Z" transform="translate(-0.25 -5.15)" fill="#231f20"/><path d="M83.17,123.85a1.5,1.5,0,0,1,.88.27,1.65,1.65,0,0,1,.6.76h.06l.36-.92h.68l-1.25,5.88h-.71l.14-1.12h-.05a2.64,2.64,0,0,1-2,1.23,1.42,1.42,0,0,1-1.17-.53,2.23,2.23,0,0,1-.43-1.46,5.64,5.64,0,0,1,.38-2.07,3.6,3.6,0,0,1,1.06-1.5A2.26,2.26,0,0,1,83.17,123.85Zm-1,5.36a1.5,1.5,0,0,0,1-.5,3.48,3.48,0,0,0,.84-1.3,4.1,4.1,0,0,0,.32-1.59,1.24,1.24,0,0,0-.3-.88,1,1,0,0,0-.79-.33,1.49,1.49,0,0,0-1,.46,3.07,3.07,0,0,0-.75,1.25,5.13,5.13,0,0,0-.27,1.67,1.39,1.39,0,0,0,.25.91A.88.88,0,0,0,82.15,129.21Z" transform="translate(-0.25 -5.15)" fill="#231f20"/><path d="M89.9,128.17a1.57,1.57,0,0,1-.6,1.31,2.58,2.58,0,0,1-1.67.47,3.56,3.56,0,0,1-1.64-.37v-.85a3.25,3.25,0,0,0,.81.35,3.09,3.09,0,0,0,.81.13,1.63,1.63,0,0,0,1-.27.83.83,0,0,0,.34-.69.78.78,0,0,0-.18-.52,3.94,3.94,0,0,0-.81-.57,3.17,3.17,0,0,1-1-.77,1.38,1.38,0,0,1-.29-.89,1.5,1.5,0,0,1,.54-1.2,2.17,2.17,0,0,1,1.43-.45,4.08,4.08,0,0,1,1.77.4l-.29.73-.3-.13a3.06,3.06,0,0,0-1.18-.23,1.26,1.26,0,0,0-.79.23.75.75,0,0,0-.28.61.72.72,0,0,0,.19.51,3.31,3.31,0,0,0,.79.56,4.22,4.22,0,0,1,.82.55,1.45,1.45,0,0,1,.37.5A1.25,1.25,0,0,1,89.9,128.17Z" transform="translate(-0.25 -5.15)" fill="#231f20"/><path d="M91.88,129.84H91L92.23,124h.91Zm.61-7.39a.68.68,0,0,1,.17-.49.58.58,0,0,1,.44-.19.42.42,0,0,1,.48.48.71.71,0,0,1-.18.5A.54.54,0,0,1,93,123a.48.48,0,0,1-.35-.13A.47.47,0,0,1,92.49,122.45Z" transform="translate(-0.25 -5.15)" fill="#231f20"/><path d="M96.17,130a2,2,0,0,1-2.19-2.2,4.83,4.83,0,0,1,.4-2,3.33,3.33,0,0,1,1.1-1.41,2.59,2.59,0,0,1,1.57-.51,4,4,0,0,1,1.44.27l-.25.76a3.07,3.07,0,0,0-1.18-.27A1.73,1.73,0,0,0,96,125a2.59,2.59,0,0,0-.77,1.14,4.36,4.36,0,0,0-.29,1.59,1.49,1.49,0,0,0,.36,1.07,1.28,1.28,0,0,0,1,.39,2.53,2.53,0,0,0,.73-.11c.23-.07.45-.16.67-.25v.76A3.16,3.16,0,0,1,96.17,130Z" transform="translate(-0.25 -5.15)" fill="#231f20"/><rect y="148.37" width="144" height="32.8" fill="#262b69"/><line x1="286.47" y1="187.17" x2="286.47" y2="200.4" fill="none" stroke="#231f20" stroke-miterlimit="10"/><circle cx="286.33" cy="201.92" r="2.72" fill="#fff" stroke="#231f20" stroke-miterlimit="10"/><line x1="250.17" y1="187.5" x2="321.17" y2="187.5" fill="none" stroke="#231f20" stroke-miterlimit="10"/><line x1="250.17" y1="181.9" x2="250.17" y2="187.73" fill="none" stroke="#231f20" stroke-miterlimit="10" stroke-width="0.85"/><line x1="321.17" y1="181.9" x2="321.17" y2="187.73" fill="none" stroke="#231f20" stroke-miterlimit="10" stroke-width="0.85"/><line x1="1.33" y1="38.7" x2="71.87" y2="38.7" fill="none" stroke="#231f20" stroke-miterlimit="10"/><line x1="253.47" y1="38.7" x2="318.33" y2="38.7" fill="none" stroke="#231f20" stroke-miterlimit="10"/><line x1="1.17" y1="38.1" x2="1.17" y2="43.93" fill="none" stroke="#231f20" stroke-miterlimit="10" stroke-width="0.85"/><line x1="318.17" y1="38.1" x2="318.17" y2="43.93" fill="none" stroke="#231f20" stroke-miterlimit="10" stroke-width="0.85"/></svg>