<svg id="Layer_1" data-name="Layer 1" xmlns="http://www.w3.org/2000/svg" width="674.16" height="277.49" viewBox="0 0 674.16 277.49"><title>PrepArticle1_4YearCollege_Overall</title><line x1="106.15" y1="218.03" x2="106.15" y2="247.93" fill="none" stroke="#231f20" stroke-miterlimit="10"/><circle cx="106.28" cy="248.09" r="2.72" fill="#fff" stroke="#231f20" stroke-miterlimit="10"/><line x1="106.34" y1="64.88" x2="106.34" y2="36.78" fill="none" stroke="#231f20" stroke-miterlimit="10"/><circle cx="106.2" cy="36.62" r="2.72" fill="#fff" stroke="#231f20" stroke-miterlimit="10"/><path d="M104.55,144.76l-82.17-28.3A86.9,86.9,0,0,1,132.84,62.59c27.23,9.37,46.4,29.22,54.82,56.76Z" transform="translate(-0.41 -3.16)" fill="#00aeef" fill-rule="evenodd"/><path d="M104.55,144.76l83.11-25.41A86.9,86.9,0,0,1,21.45,170.16a83.22,83.22,0,0,1,.93-53.7Z" transform="translate(-0.41 -3.16)" fill="#262b69" fill-rule="evenodd"/><circle cx="104.07" cy="141.73" r="57.79" fill="#fff"/><path d="M13.32,17H11.26v3.55H7.72V17H.41V14.5L7.92,3.43h3.34V14.2h2.06ZM7.72,14.2V11.3c0-.49,0-1.19.06-2.11s.07-1.46.1-1.61h-.1a13.91,13.91,0,0,1-1,1.88L3.6,14.2Z" transform="translate(-0.41 -3.16)" fill="#231f20"/><path d="M26.54,12c0,3-.49,5.21-1.47,6.64a5.1,5.1,0,0,1-4.53,2.16,5,5,0,0,1-4.47-2.23q-1.5-2.22-1.5-6.57c0-3,.48-5.25,1.46-6.69a5.09,5.09,0,0,1,4.51-2.15A5.08,5.08,0,0,1,25,5.41Q26.55,7.66,26.54,12Zm-8.38,0a13.41,13.41,0,0,0,.55,4.52,1.87,1.87,0,0,0,1.83,1.36,1.9,1.9,0,0,0,1.83-1.38,12.84,12.84,0,0,0,.56-4.5,13.2,13.2,0,0,0-.56-4.53,1.9,1.9,0,0,0-3.66,0A13.52,13.52,0,0,0,18.16,12Z" transform="translate(-0.41 -3.16)" fill="#231f20"/><path d="M32.18,13.55a4.32,4.32,0,0,1-.52,2.36,1.72,1.72,0,0,1-1.53.79,1.68,1.68,0,0,1-1.49-.81,4.31,4.31,0,0,1-.53-2.34,4.37,4.37,0,0,1,.51-2.34,1.68,1.68,0,0,1,1.51-.78,1.72,1.72,0,0,1,1.52.81A4.16,4.16,0,0,1,32.18,13.55Zm-3.13,0a4.56,4.56,0,0,0,.26,1.75.85.85,0,0,0,.82.58c.74,0,1.12-.78,1.12-2.33s-.38-2.31-1.12-2.31a.84.84,0,0,0-.82.58A4.45,4.45,0,0,0,29.05,13.55Zm7.39-3-5.54,10h-1l5.55-10Zm1.77,7a4.3,4.3,0,0,1-.53,2.35,1.72,1.72,0,0,1-1.53.79,1.68,1.68,0,0,1-1.5-.81,4.4,4.4,0,0,1-.52-2.33,4.32,4.32,0,0,1,.51-2.34,1.69,1.69,0,0,1,1.51-.79,1.71,1.71,0,0,1,1.51.81A4.14,4.14,0,0,1,38.21,17.56Zm-3.14,0a4.6,4.6,0,0,0,.25,1.75.86.86,0,0,0,.83.57.91.91,0,0,0,.85-.57,4.28,4.28,0,0,0,.27-1.75A4.18,4.18,0,0,0,37,15.83a.91.91,0,0,0-.85-.57.86.86,0,0,0-.83.57A4.41,4.41,0,0,0,35.07,17.56Z" transform="translate(-0.41 -3.16)" fill="#231f20"/><path d="M46.73,19.78h0a2.1,2.1,0,0,1-1.85.89,2.18,2.18,0,0,1-1.8-.79,3.44,3.44,0,0,1-.64-2.24A3.53,3.53,0,0,1,43,15.38a2.17,2.17,0,0,1,1.8-.81,2.12,2.12,0,0,1,1.83.87h.07l0-.42,0-.42V12.21h.89v8.36h-.73ZM45,19.93a1.61,1.61,0,0,0,1.32-.5,2.47,2.47,0,0,0,.42-1.6v-.19a2.94,2.94,0,0,0-.42-1.79,1.6,1.6,0,0,0-1.33-.53,1.36,1.36,0,0,0-1.2.61,3,3,0,0,0-.42,1.72,2.86,2.86,0,0,0,.42,1.7A1.38,1.38,0,0,0,45,19.93Z" transform="translate(-0.41 -3.16)" fill="#231f20"/><path d="M49.39,13.08a.57.57,0,0,1,.15-.44.52.52,0,0,1,.38-.15.51.51,0,0,1,.37.15.59.59,0,0,1,.15.44.6.6,0,0,1-.15.45.51.51,0,0,1-.37.15.52.52,0,0,1-.38-.15A.6.6,0,0,1,49.39,13.08Zm1,7.49h-.89V14.68h.89Z" transform="translate(-0.41 -3.16)" fill="#231f20"/><path d="M56.26,19.78h0a2.09,2.09,0,0,1-1.85.89,2.18,2.18,0,0,1-1.8-.79,3.49,3.49,0,0,1-.64-2.24,3.54,3.54,0,0,1,.65-2.26,2.38,2.38,0,0,1,3.63.06h.07l0-.42,0-.42V12.21h.89v8.36h-.73Zm-1.79.15a1.65,1.65,0,0,0,1.33-.5,2.54,2.54,0,0,0,.41-1.6v-.19a2.94,2.94,0,0,0-.42-1.79,1.6,1.6,0,0,0-1.33-.53,1.36,1.36,0,0,0-1.2.61,3,3,0,0,0-.41,1.72,2.86,2.86,0,0,0,.41,1.7A1.39,1.39,0,0,0,54.47,19.93Z" transform="translate(-0.41 -3.16)" fill="#231f20"/><path d="M63,20.57V16.76a1.55,1.55,0,0,0-.33-1.08,1.35,1.35,0,0,0-1-.35,1.72,1.72,0,0,0-1.36.5,2.49,2.49,0,0,0-.43,1.65v3.09H59V14.68h.73l.14.81h0a1.89,1.89,0,0,1,.77-.68,2.5,2.5,0,0,1,1.1-.24,2.23,2.23,0,0,1,1.6.51,2.2,2.2,0,0,1,.54,1.65v3.84Z" transform="translate(-0.41 -3.16)" fill="#231f20"/><path d="M66.46,12.71l.08.12c-.1.36-.23.78-.41,1.25a13.89,13.89,0,0,1-.54,1.32h-.66c.25-1,.43-1.91.55-2.69Z" transform="translate(-0.41 -3.16)" fill="#231f20"/><path d="M69.51,19.94a2.32,2.32,0,0,0,.46,0,1.94,1.94,0,0,0,.35-.07v.68a1.51,1.51,0,0,1-.43.12,3.25,3.25,0,0,1-.51,0c-1.14,0-1.7-.6-1.7-1.8v-3.5h-.85v-.43l.85-.37.37-1.25h.52v1.36h1.7v.69h-1.7v3.47a1.17,1.17,0,0,0,.25.81A.88.88,0,0,0,69.51,19.94Z" transform="translate(-0.41 -3.16)" fill="#231f20"/><path d="M78,20.57l-.18-.84h0a2.37,2.37,0,0,1-.88.75,2.66,2.66,0,0,1-1.09.19,2,2,0,0,1-1.37-.45,1.65,1.65,0,0,1-.5-1.28c0-1.19,1-1.81,2.85-1.87l1,0v-.37a1.48,1.48,0,0,0-.3-1,1.2,1.2,0,0,0-.95-.33,3.88,3.88,0,0,0-1.66.45l-.28-.68a4.45,4.45,0,0,1,2-.51,2.27,2.27,0,0,1,1.57.47,2,2,0,0,1,.5,1.5v4Zm-2-.63a1.81,1.81,0,0,0,1.31-.46,1.71,1.71,0,0,0,.47-1.28v-.53l-.89,0a3.1,3.1,0,0,0-1.53.33,1,1,0,0,0-.47.91.92.92,0,0,0,.29.74A1.25,1.25,0,0,0,76,19.94Z" transform="translate(-0.41 -3.16)" fill="#231f20"/><path d="M83.21,20.67a2.59,2.59,0,0,1-1-.21,2,2,0,0,1-.8-.65H81.3a8.44,8.44,0,0,1,.06,1v2.42h-.89V14.68h.72l.13.81h0a2,2,0,0,1,.8-.7,2.35,2.35,0,0,1,1-.22,2.2,2.2,0,0,1,1.81.8,3.56,3.56,0,0,1,.63,2.25A3.5,3.5,0,0,1,85,19.87,2.19,2.19,0,0,1,83.21,20.67Zm-.13-5.34a1.6,1.6,0,0,0-1.31.5,2.64,2.64,0,0,0-.41,1.59v.2a3,3,0,0,0,.41,1.77,1.58,1.58,0,0,0,1.33.54,1.39,1.39,0,0,0,1.2-.62,3,3,0,0,0,.43-1.7,2.86,2.86,0,0,0-.43-1.69A1.44,1.44,0,0,0,83.08,15.33Z" transform="translate(-0.41 -3.16)" fill="#231f20"/><path d="M90,20.67a2.59,2.59,0,0,1-1-.21,2,2,0,0,1-.8-.65H88a8.44,8.44,0,0,1,.06,1v2.42h-.89V14.68h.73l.12.81h0a2,2,0,0,1,.8-.7,2.38,2.38,0,0,1,1-.22,2.2,2.2,0,0,1,1.81.8,3.56,3.56,0,0,1,.63,2.25,3.5,3.5,0,0,1-.64,2.25A2.18,2.18,0,0,1,90,20.67Zm-.13-5.34a1.57,1.57,0,0,0-1.3.5,2.56,2.56,0,0,0-.42,1.59v.2a2.89,2.89,0,0,0,.42,1.77,1.54,1.54,0,0,0,1.32.54,1.39,1.39,0,0,0,1.2-.62,2.91,2.91,0,0,0,.43-1.7A2.79,2.79,0,0,0,91,15.92,1.44,1.44,0,0,0,89.82,15.33Z" transform="translate(-0.41 -3.16)" fill="#231f20"/><path d="M94.84,20.57H94V12.21h.89Z" transform="translate(-0.41 -3.16)" fill="#231f20"/><path d="M95.8,14.68h1L98,18a11.89,11.89,0,0,1,.53,1.66h0c0-.19.15-.5.3-.94s.63-1.8,1.45-4.08h1l-2.53,6.7a3.2,3.2,0,0,1-.88,1.41,1.84,1.84,0,0,1-1.23.42,3.72,3.72,0,0,1-.81-.09V22.4a2.73,2.73,0,0,0,.66.07,1.36,1.36,0,0,0,1.31-1l.33-.84Z" transform="translate(-0.41 -3.16)" fill="#231f20"/><path d="M107,19.94a2.32,2.32,0,0,0,.46,0,1.94,1.94,0,0,0,.35-.07v.68a1.51,1.51,0,0,1-.43.12,3,3,0,0,1-.5,0q-1.71,0-1.71-1.8v-3.5h-.85v-.43l.85-.37.37-1.25h.52v1.36h1.71v.69h-1.71v3.47a1.17,1.17,0,0,0,.25.81A.88.88,0,0,0,107,19.94Z" transform="translate(-0.41 -3.16)" fill="#231f20"/><path d="M114.1,17.62a3.22,3.22,0,0,1-.73,2.25,2.57,2.57,0,0,1-2,.8,2.62,2.62,0,0,1-1.4-.37,2.4,2.4,0,0,1-1-1.06,3.72,3.72,0,0,1-.33-1.62,3.23,3.23,0,0,1,.72-2.24,2.81,2.81,0,0,1,4,0A3.27,3.27,0,0,1,114.1,17.62Zm-4.49,0a2.82,2.82,0,0,0,.45,1.72,1.79,1.79,0,0,0,2.66,0,2.8,2.8,0,0,0,.45-1.72,2.77,2.77,0,0,0-.45-1.71,1.83,1.83,0,0,0-2.66,0A2.78,2.78,0,0,0,109.61,17.62Z" transform="translate(-0.41 -3.16)" fill="#231f20"/><path d="M122.14,20.57l-.18-.84h0a2.53,2.53,0,0,1-.88.75,2.7,2.7,0,0,1-1.09.19,2,2,0,0,1-1.38-.45,1.64,1.64,0,0,1-.49-1.28c0-1.19,1-1.81,2.85-1.87l1,0v-.37a1.48,1.48,0,0,0-.3-1,1.23,1.23,0,0,0-.95-.33,3.92,3.92,0,0,0-1.67.45l-.27-.68a4.36,4.36,0,0,1,2-.51,2.26,2.26,0,0,1,1.56.47,1.94,1.94,0,0,1,.51,1.5v4Zm-2-.63a1.79,1.79,0,0,0,1.31-.46,1.67,1.67,0,0,0,.48-1.28v-.53l-.89,0a3.17,3.17,0,0,0-1.54.33A1,1,0,0,0,119,19a.92.92,0,0,0,.3.74A1.22,1.22,0,0,0,120.12,19.94Z" transform="translate(-0.41 -3.16)" fill="#231f20"/><path d="M130.15,15.37h-1.5v5.2h-.89v-5.2H126.7V15l1.06-.32v-.33c0-1.45.63-2.17,1.89-2.17a3.79,3.79,0,0,1,1.1.19l-.23.71a3,3,0,0,0-.88-.16.87.87,0,0,0-.75.33,1.9,1.9,0,0,0-.24,1.08v.38h1.5Z" transform="translate(-0.41 -3.16)" fill="#231f20"/><path d="M136.3,17.62a3.27,3.27,0,0,1-.72,2.25,2.59,2.59,0,0,1-2,.8,2.64,2.64,0,0,1-1.4-.37,2.38,2.38,0,0,1-.94-1.06,3.58,3.58,0,0,1-.34-1.62,3.23,3.23,0,0,1,.72-2.24,2.54,2.54,0,0,1,2-.81,2.51,2.51,0,0,1,2,.82A3.22,3.22,0,0,1,136.3,17.62Zm-4.48,0a2.82,2.82,0,0,0,.45,1.72,1.78,1.78,0,0,0,2.65,0,2.73,2.73,0,0,0,.46-1.72,2.7,2.7,0,0,0-.46-1.71,1.83,1.83,0,0,0-2.66,0A2.85,2.85,0,0,0,131.82,17.62Z" transform="translate(-0.41 -3.16)" fill="#231f20"/><path d="M138.7,14.68V18.5a1.51,1.51,0,0,0,.33,1.07,1.33,1.33,0,0,0,1,.36,1.68,1.68,0,0,0,1.35-.51,2.56,2.56,0,0,0,.42-1.65V14.68h.9v5.89H142l-.13-.79h-.05a1.69,1.69,0,0,1-.76.66,2.45,2.45,0,0,1-1.11.23,2.27,2.27,0,0,1-1.61-.51,2.19,2.19,0,0,1-.53-1.63V14.68Z" transform="translate(-0.41 -3.16)" fill="#231f20"/><path d="M147.3,14.57a3,3,0,0,1,.7.07l-.12.82a3.28,3.28,0,0,0-.64-.08A1.57,1.57,0,0,0,146,16a2.12,2.12,0,0,0-.51,1.45v3.16h-.89V14.68h.73l.1,1.09h.05a2.65,2.65,0,0,1,.79-.89A1.8,1.8,0,0,1,147.3,14.57Z" transform="translate(-0.41 -3.16)" fill="#231f20"/><path d="M148.61,18v-.82h2.64V18Z" transform="translate(-0.41 -3.16)" fill="#231f20"/><path d="M151.71,14.68h1L154,18a13,13,0,0,1,.52,1.66h.05a9.84,9.84,0,0,1,.29-.94c.15-.44.63-1.8,1.46-4.08h.95l-2.53,6.7a3.2,3.2,0,0,1-.88,1.41,1.84,1.84,0,0,1-1.23.42,3.57,3.57,0,0,1-.8-.09V22.4a2.62,2.62,0,0,0,.66.07,1.37,1.37,0,0,0,1.31-1l.32-.84Z" transform="translate(-0.41 -3.16)" fill="#231f20"/><path d="M160.67,20.67a2.69,2.69,0,0,1-2-.79,3.06,3.06,0,0,1-.76-2.21,3.4,3.4,0,0,1,.7-2.26,2.33,2.33,0,0,1,1.88-.84,2.22,2.22,0,0,1,1.76.73,2.8,2.8,0,0,1,.64,1.92v.56h-4.06a2.36,2.36,0,0,0,.53,1.58,1.81,1.81,0,0,0,1.4.54,4.85,4.85,0,0,0,1.88-.4v.79a4.06,4.06,0,0,1-.9.29A5,5,0,0,1,160.67,20.67Zm-.24-5.35a1.45,1.45,0,0,0-1.13.46,2.13,2.13,0,0,0-.49,1.28h3.07a2,2,0,0,0-.37-1.29A1.33,1.33,0,0,0,160.43,15.32Z" transform="translate(-0.41 -3.16)" fill="#231f20"/><path d="M168,20.57l-.18-.84h0a2.45,2.45,0,0,1-.88.75,2.66,2.66,0,0,1-1.09.19,2,2,0,0,1-1.37-.45,1.65,1.65,0,0,1-.5-1.28c0-1.19,1-1.81,2.85-1.87l1,0v-.37a1.48,1.48,0,0,0-.3-1,1.22,1.22,0,0,0-.95-.33,3.92,3.92,0,0,0-1.67.45l-.27-.68a4.36,4.36,0,0,1,2-.51,2.24,2.24,0,0,1,1.56.47,1.94,1.94,0,0,1,.51,1.5v4Zm-2-.63a1.77,1.77,0,0,0,1.3-.46,1.67,1.67,0,0,0,.48-1.28v-.53l-.89,0a3.17,3.17,0,0,0-1.54.33,1,1,0,0,0-.47.91.92.92,0,0,0,.3.74A1.25,1.25,0,0,0,166,19.94Z" transform="translate(-0.41 -3.16)" fill="#231f20"/><path d="M173.16,14.57a3.11,3.11,0,0,1,.71.07l-.13.82a3.19,3.19,0,0,0-.64-.08,1.57,1.57,0,0,0-1.22.58,2.12,2.12,0,0,0-.51,1.45v3.16h-.89V14.68h.73l.11,1.09h0a2.65,2.65,0,0,1,.79-.89A1.82,1.82,0,0,1,173.16,14.57Z" transform="translate(-0.41 -3.16)" fill="#231f20"/><path d="M180.18,20.67a2.53,2.53,0,0,1-2-.78,3.24,3.24,0,0,1-.7-2.23,3.31,3.31,0,0,1,.71-2.28,2.55,2.55,0,0,1,2-.81,4,4,0,0,1,.84.09,2.75,2.75,0,0,1,.67.22l-.27.76a3.82,3.82,0,0,0-.65-.2,3,3,0,0,0-.61-.08c-1.2,0-1.8.76-1.8,2.29a2.71,2.71,0,0,0,.44,1.66,1.52,1.52,0,0,0,1.3.59,4,4,0,0,0,1.51-.32v.79A3.29,3.29,0,0,1,180.18,20.67Z" transform="translate(-0.41 -3.16)" fill="#231f20"/><path d="M188.14,17.62a3.27,3.27,0,0,1-.72,2.25,2.57,2.57,0,0,1-2,.8A2.65,2.65,0,0,1,184,20.3a2.44,2.44,0,0,1-.94-1.06,3.72,3.72,0,0,1-.34-1.62,3.18,3.18,0,0,1,.73-2.24,2.81,2.81,0,0,1,4,0A3.27,3.27,0,0,1,188.14,17.62Zm-4.48,0a2.82,2.82,0,0,0,.45,1.72,1.57,1.57,0,0,0,1.33.59,1.6,1.6,0,0,0,1.33-.59,2.8,2.8,0,0,0,.45-1.72,2.77,2.77,0,0,0-.45-1.71,1.84,1.84,0,0,0-2.67,0A2.85,2.85,0,0,0,183.66,17.62Z" transform="translate(-0.41 -3.16)" fill="#231f20"/><path d="M190.6,20.57h-.89V12.21h.89Z" transform="translate(-0.41 -3.16)" fill="#231f20"/><path d="M193.38,20.57h-.89V12.21h.89Z" transform="translate(-0.41 -3.16)" fill="#231f20"/><path d="M197.76,20.67a2.7,2.7,0,0,1-2.06-.79,3.06,3.06,0,0,1-.76-2.21,3.45,3.45,0,0,1,.7-2.26,2.34,2.34,0,0,1,1.89-.84,2.22,2.22,0,0,1,1.75.73,2.8,2.8,0,0,1,.64,1.92v.56h-4a2.3,2.3,0,0,0,.52,1.58,1.81,1.81,0,0,0,1.4.54,4.85,4.85,0,0,0,1.88-.4v.79a4,4,0,0,1-.89.29A5,5,0,0,1,197.76,20.67Zm-.24-5.35a1.47,1.47,0,0,0-1.14.46,2.13,2.13,0,0,0-.49,1.28H199a2,2,0,0,0-.38-1.29A1.32,1.32,0,0,0,197.52,15.32Z" transform="translate(-0.41 -3.16)" fill="#231f20"/><path d="M206.26,14.68v.56l-1.09.13a2,2,0,0,1,.27.49,1.88,1.88,0,0,1,.12.69,1.74,1.74,0,0,1-.59,1.38,2.43,2.43,0,0,1-1.63.51,2.56,2.56,0,0,1-.49,0,.87.87,0,0,0-.57.76.4.4,0,0,0,.2.36,1.55,1.55,0,0,0,.68.11h1a2.38,2.38,0,0,1,1.47.4,1.41,1.41,0,0,1,.51,1.18,1.68,1.68,0,0,1-.78,1.49,4.2,4.2,0,0,1-2.29.51,3.1,3.1,0,0,1-1.78-.43,1.4,1.4,0,0,1-.62-1.21,1.35,1.35,0,0,1,.34-.93,1.81,1.81,0,0,1,1-.54.86.86,0,0,1-.53-.81.94.94,0,0,1,.17-.57,1.7,1.7,0,0,1,.54-.46,1.63,1.63,0,0,1-.74-.64,1.82,1.82,0,0,1-.29-1,1.89,1.89,0,0,1,.58-1.49,2.36,2.36,0,0,1,1.64-.53,3,3,0,0,1,.83.11Zm-4.69,6.87a.8.8,0,0,0,.4.73,2.26,2.26,0,0,0,1.15.25,3.18,3.18,0,0,0,1.67-.34,1,1,0,0,0,.54-.91.71.71,0,0,0-.3-.66,2.22,2.22,0,0,0-1.11-.19h-1.07a1.46,1.46,0,0,0-.95.29A1.06,1.06,0,0,0,201.57,21.55Zm.48-5a1.21,1.21,0,0,0,.35.94,1.4,1.4,0,0,0,1,.32,1.14,1.14,0,0,0,1.31-1.27,1.17,1.17,0,0,0-1.33-1.33,1.28,1.28,0,0,0-1,.34A1.35,1.35,0,0,0,202.05,16.56Z" transform="translate(-0.41 -3.16)" fill="#231f20"/><path d="M210,20.67a2.7,2.7,0,0,1-2.06-.79,3.06,3.06,0,0,1-.76-2.21,3.45,3.45,0,0,1,.7-2.26,2.33,2.33,0,0,1,1.88-.84,2.22,2.22,0,0,1,1.76.73,2.8,2.8,0,0,1,.64,1.92v.56h-4.06a2.36,2.36,0,0,0,.53,1.58,1.81,1.81,0,0,0,1.4.54,4.85,4.85,0,0,0,1.88-.4v.79a4.06,4.06,0,0,1-.9.29A4.91,4.91,0,0,1,210,20.67Zm-.25-5.35a1.45,1.45,0,0,0-1.13.46,2.13,2.13,0,0,0-.49,1.28h3.07a2,2,0,0,0-.37-1.29A1.33,1.33,0,0,0,209.71,15.32Z" transform="translate(-0.41 -3.16)" fill="#231f20"/><path d="M10.48,270.73q0-5.09,2.16-7.57c1.43-1.65,3.58-2.48,6.43-2.48a11.4,11.4,0,0,1,2.3.18v2.89a9.1,9.1,0,0,0-2.06-.23,7,7,0,0,0-3,.56,3.81,3.81,0,0,0-1.77,1.66,7.68,7.68,0,0,0-.69,3.13H14a4,4,0,0,1,3.71-2,4.61,4.61,0,0,1,3.6,1.44,5.71,5.71,0,0,1,1.3,4A6,6,0,0,1,21,276.65a5.71,5.71,0,0,1-4.29,1.6,6.2,6.2,0,0,1-3.31-.88,5.71,5.71,0,0,1-2.18-2.57A9.79,9.79,0,0,1,10.48,270.73Zm6.19,4.62a2.13,2.13,0,0,0,1.78-.78,3.45,3.45,0,0,0,.62-2.22,3,3,0,0,0-.58-2,2.1,2.1,0,0,0-1.75-.72,2.67,2.67,0,0,0-1.88.71,2.2,2.2,0,0,0-.78,1.67,3.82,3.82,0,0,0,.73,2.35A2.25,2.25,0,0,0,16.67,275.35Z" transform="translate(-0.41 -3.16)" fill="#231f20"/><path d="M36.18,269.45q0,4.49-1.47,6.64a5.1,5.1,0,0,1-4.53,2.16A5.07,5.07,0,0,1,25.71,276c-1-1.48-1.5-3.68-1.5-6.57s.49-5.26,1.46-6.69a5.09,5.09,0,0,1,4.51-2.15,5.08,5.08,0,0,1,4.49,2.25C35.68,264.36,36.18,266.55,36.18,269.45Zm-8.37,0a13.4,13.4,0,0,0,.54,4.51A1.91,1.91,0,0,0,32,274a18.48,18.48,0,0,0,0-9,1.92,1.92,0,0,0-1.83-1.38,1.88,1.88,0,0,0-1.82,1.38A13.18,13.18,0,0,0,27.81,269.45Z" transform="translate(-0.41 -3.16)" fill="#231f20"/><path d="M41.82,271a4.29,4.29,0,0,1-.52,2.35,1.72,1.72,0,0,1-1.53.8,1.68,1.68,0,0,1-1.49-.81,5.53,5.53,0,0,1,0-4.68,1.83,1.83,0,0,1,3,0A4.16,4.16,0,0,1,41.82,271Zm-3.13,0a4.54,4.54,0,0,0,.26,1.74.85.85,0,0,0,.82.58c.74,0,1.12-.77,1.12-2.32s-.38-2.31-1.12-2.31a.85.85,0,0,0-.82.57A4.47,4.47,0,0,0,38.69,271Zm7.39-3-5.54,10h-1l5.55-10Zm1.77,7a4.28,4.28,0,0,1-.53,2.35,1.71,1.71,0,0,1-1.53.8,1.65,1.65,0,0,1-1.49-.82,5.48,5.48,0,0,1,0-4.66,1.67,1.67,0,0,1,1.51-.79,1.72,1.72,0,0,1,1.51.8A4.08,4.08,0,0,1,47.85,275Zm-3.14,0a4.56,4.56,0,0,0,.25,1.75.86.86,0,0,0,.83.58.9.9,0,0,0,.85-.57,4.34,4.34,0,0,0,.27-1.76,4.21,4.21,0,0,0-.27-1.73.89.89,0,0,0-.85-.56.85.85,0,0,0-.83.56A4.45,4.45,0,0,0,44.71,275Z" transform="translate(-0.41 -3.16)" fill="#231f20"/><path d="M56.77,278l-.18-.84h0a2.53,2.53,0,0,1-.88.75,2.69,2.69,0,0,1-1.09.2,2,2,0,0,1-1.38-.45,1.65,1.65,0,0,1-.49-1.29c0-1.18.95-1.81,2.85-1.87l1,0v-.36a1.51,1.51,0,0,0-.3-1,1.23,1.23,0,0,0-.95-.33,3.92,3.92,0,0,0-1.67.45l-.27-.68a4.69,4.69,0,0,1,1-.37,4.12,4.12,0,0,1,1-.13,2.21,2.21,0,0,1,1.56.47,1.93,1.93,0,0,1,.51,1.49v4Zm-2-.63a1.83,1.83,0,0,0,1.31-.45,1.69,1.69,0,0,0,.48-1.28v-.53l-.9,0a3.37,3.37,0,0,0-1.53.33,1,1,0,0,0-.47.91.93.93,0,0,0,.29.74A1.22,1.22,0,0,0,54.75,277.38Z" transform="translate(-0.41 -3.16)" fill="#231f20"/><path d="M62,278.12a2.59,2.59,0,0,1-1-.21,1.92,1.92,0,0,1-.79-.66h-.07a8.68,8.68,0,0,1,.07,1v2.42h-.9v-8.52H60l.12.8h0a2.12,2.12,0,0,1,.8-.7,2.44,2.44,0,0,1,1-.21,2.16,2.16,0,0,1,1.81.8,3.47,3.47,0,0,1,.64,2.24,3.54,3.54,0,0,1-.65,2.26A2.19,2.19,0,0,1,62,278.12Zm-.12-5.35a1.59,1.59,0,0,0-1.31.5,2.54,2.54,0,0,0-.41,1.59v.2a2.94,2.94,0,0,0,.41,1.78,1.6,1.6,0,0,0,1.33.53,1.37,1.37,0,0,0,1.19-.62,2.89,2.89,0,0,0,.43-1.7,2.81,2.81,0,0,0-.43-1.69A1.42,1.42,0,0,0,61.88,272.77Z" transform="translate(-0.41 -3.16)" fill="#231f20"/><path d="M68.74,278.12a2.59,2.59,0,0,1-1-.21,1.92,1.92,0,0,1-.79-.66h-.07a6.84,6.84,0,0,1,.07,1v2.42H66v-8.52h.72l.12.8h.05a2.12,2.12,0,0,1,.8-.7,2.44,2.44,0,0,1,1-.21,2.15,2.15,0,0,1,1.81.8,3.47,3.47,0,0,1,.64,2.24,3.54,3.54,0,0,1-.65,2.26A2.19,2.19,0,0,1,68.74,278.12Zm-.12-5.35a1.59,1.59,0,0,0-1.31.5,2.54,2.54,0,0,0-.41,1.59v.2a2.94,2.94,0,0,0,.41,1.78,1.6,1.6,0,0,0,1.33.53,1.35,1.35,0,0,0,1.19-.62,2.89,2.89,0,0,0,.43-1.7,2.81,2.81,0,0,0-.43-1.69A1.42,1.42,0,0,0,68.62,272.77Z" transform="translate(-0.41 -3.16)" fill="#231f20"/><path d="M73.64,278h-.89v-8.36h.89Z" transform="translate(-0.41 -3.16)" fill="#231f20"/><path d="M75.45,270.53a.61.61,0,0,1,.15-.45.56.56,0,0,1,.38-.14.55.55,0,0,1,.37.14.71.71,0,0,1,0,.9.51.51,0,0,1-.37.15.52.52,0,0,1-.38-.15A.61.61,0,0,1,75.45,270.53Zm1,7.48h-.89v-5.88h.89Z" transform="translate(-0.41 -3.16)" fill="#231f20"/><path d="M80.8,278.12a2.7,2.7,0,0,1-2.06-.8,3,3,0,0,1-.76-2.2,3.43,3.43,0,0,1,.7-2.26,2.34,2.34,0,0,1,1.89-.84,2.22,2.22,0,0,1,1.75.73,2.77,2.77,0,0,1,.64,1.92v.56h-4a2.28,2.28,0,0,0,.52,1.57,1.81,1.81,0,0,0,1.4.54,4.68,4.68,0,0,0,1.88-.4v.8a5.39,5.39,0,0,1-.89.29A5.09,5.09,0,0,1,80.8,278.12Zm-.24-5.36a1.48,1.48,0,0,0-1.14.47,2.1,2.1,0,0,0-.49,1.27H82a2,2,0,0,0-.38-1.29A1.32,1.32,0,0,0,80.56,272.76Z" transform="translate(-0.41 -3.16)" fill="#231f20"/><path d="M88.49,277.22h0a2.09,2.09,0,0,1-1.85.9,2.15,2.15,0,0,1-1.79-.79,3.49,3.49,0,0,1-.65-2.25,3.54,3.54,0,0,1,.65-2.26,2.19,2.19,0,0,1,1.79-.8,2.15,2.15,0,0,1,1.84.87h.07l0-.43,0-.41v-2.4h.89V278h-.72Zm-1.78.15a1.62,1.62,0,0,0,1.32-.49,2.57,2.57,0,0,0,.41-1.61v-.19A2.91,2.91,0,0,0,88,273.3a1.56,1.56,0,0,0-1.33-.54,1.38,1.38,0,0,0-1.2.61,3.1,3.1,0,0,0-.41,1.72,3,3,0,0,0,.41,1.71A1.41,1.41,0,0,0,86.71,277.37Z" transform="translate(-0.41 -3.16)" fill="#231f20"/><path d="M96,277.38a3.44,3.44,0,0,0,.46,0l.35-.07V278a2,2,0,0,1-.43.11,3.36,3.36,0,0,1-.51.05q-1.71,0-1.71-1.8v-3.5H93.3v-.43l.84-.37.38-1.26H95v1.37h1.7v.69H95v3.46a1.18,1.18,0,0,0,.25.82A.88.88,0,0,0,96,277.38Z" transform="translate(-0.41 -3.16)" fill="#231f20"/><path d="M103,275.06a3.27,3.27,0,0,1-.72,2.25,2.54,2.54,0,0,1-2,.81,2.65,2.65,0,0,1-1.41-.37,2.46,2.46,0,0,1-.94-1.07,3.72,3.72,0,0,1-.33-1.62,3.24,3.24,0,0,1,.72-2.24,2.55,2.55,0,0,1,2-.8,2.49,2.49,0,0,1,2,.82A3.26,3.26,0,0,1,103,275.06Zm-4.48,0a2.8,2.8,0,0,0,.45,1.72,1.55,1.55,0,0,0,1.33.59,1.57,1.57,0,0,0,1.33-.59,2.78,2.78,0,0,0,.45-1.72,2.74,2.74,0,0,0-.45-1.7,1.61,1.61,0,0,0-1.34-.59,1.56,1.56,0,0,0-1.32.58A2.73,2.73,0,0,0,98.56,275.06Z" transform="translate(-0.41 -3.16)" fill="#231f20"/><path d="M111.08,278l-.17-.84h0a2.43,2.43,0,0,1-.87.75,2.74,2.74,0,0,1-1.1.2,2,2,0,0,1-1.37-.45,1.66,1.66,0,0,1-.5-1.29c0-1.18,1-1.81,2.86-1.87l1,0v-.36a1.51,1.51,0,0,0-.3-1,1.24,1.24,0,0,0-1-.33,3.88,3.88,0,0,0-1.66.45l-.27-.68a4.47,4.47,0,0,1,1-.37,4.06,4.06,0,0,1,1-.13,2.21,2.21,0,0,1,1.56.47,1.93,1.93,0,0,1,.51,1.49v4Zm-2-.63a1.83,1.83,0,0,0,1.31-.45,1.68,1.68,0,0,0,.47-1.28v-.53l-.89,0a3.34,3.34,0,0,0-1.53.33,1,1,0,0,0-.47.91.93.93,0,0,0,.29.74A1.22,1.22,0,0,0,109.07,277.38Z" transform="translate(-0.41 -3.16)" fill="#231f20"/><path d="M119.09,272.82h-1.5V278h-.89v-5.19h-1v-.4l1-.33v-.33c0-1.44.63-2.17,1.9-2.17a4,4,0,0,1,1.09.19l-.23.72a2.94,2.94,0,0,0-.88-.17.84.84,0,0,0-.74.34,1.85,1.85,0,0,0-.25,1.07v.39h1.5Z" transform="translate(-0.41 -3.16)" fill="#231f20"/><path d="M125.25,275.06a3.22,3.22,0,0,1-.73,2.25,2.54,2.54,0,0,1-2,.81,2.62,2.62,0,0,1-1.4-.37,2.48,2.48,0,0,1-1-1.07,3.72,3.72,0,0,1-.33-1.62,3.24,3.24,0,0,1,.72-2.24,2.57,2.57,0,0,1,2-.8,2.47,2.47,0,0,1,2,.82A3.21,3.21,0,0,1,125.25,275.06Zm-4.49,0a2.8,2.8,0,0,0,.45,1.72,1.57,1.57,0,0,0,1.33.59,1.55,1.55,0,0,0,1.33-.59,2.78,2.78,0,0,0,.45-1.72,2.74,2.74,0,0,0-.45-1.7,1.8,1.8,0,0,0-2.66,0A2.73,2.73,0,0,0,120.76,275.06Z" transform="translate(-0.41 -3.16)" fill="#231f20"/><path d="M127.65,272.13v3.81A1.55,1.55,0,0,0,128,277a1.35,1.35,0,0,0,1,.35,1.68,1.68,0,0,0,1.35-.5,2.53,2.53,0,0,0,.43-1.65v-3.09h.89V278h-.73l-.13-.79h-.05a1.84,1.84,0,0,1-.76.67,2.62,2.62,0,0,1-1.11.23,2.25,2.25,0,0,1-1.61-.51,2.2,2.2,0,0,1-.53-1.63v-3.85Z" transform="translate(-0.41 -3.16)" fill="#231f20"/><path d="M136.25,272a3.73,3.73,0,0,1,.7.06l-.12.83a3.28,3.28,0,0,0-.65-.08,1.57,1.57,0,0,0-1.22.58,2.1,2.1,0,0,0-.51,1.44V278h-.89v-5.88h.74l.1,1.08h0a2.72,2.72,0,0,1,.79-.88A1.78,1.78,0,0,1,136.25,272Z" transform="translate(-0.41 -3.16)" fill="#231f20"/><path d="M137.56,275.47v-.82h2.64v.82Z" transform="translate(-0.41 -3.16)" fill="#231f20"/><path d="M140.66,272.13h1l1.29,3.35a12.32,12.32,0,0,1,.53,1.66h0c.05-.18.15-.49.3-.94s.63-1.8,1.45-4.07h1l-2.53,6.7a3.32,3.32,0,0,1-.88,1.41,1.83,1.83,0,0,1-1.23.41,3.72,3.72,0,0,1-.81-.09v-.71a3.37,3.37,0,0,0,.66.06,1.35,1.35,0,0,0,1.31-1L143,278Z" transform="translate(-0.41 -3.16)" fill="#231f20"/><path d="M149.62,278.12a2.7,2.7,0,0,1-2.06-.8,3.07,3.07,0,0,1-.75-2.2,3.38,3.38,0,0,1,.7-2.26,2.32,2.32,0,0,1,1.88-.84,2.2,2.2,0,0,1,1.75.73,2.77,2.77,0,0,1,.65,1.92v.56h-4.06a2.28,2.28,0,0,0,.53,1.57,1.79,1.79,0,0,0,1.39.54,4.64,4.64,0,0,0,1.88-.4v.8a5.1,5.1,0,0,1-.89.29A5,5,0,0,1,149.62,278.12Zm-.24-5.36a1.46,1.46,0,0,0-1.13.47,2.1,2.1,0,0,0-.5,1.27h3.08a1.91,1.91,0,0,0-.38-1.29A1.31,1.31,0,0,0,149.38,272.76Z" transform="translate(-0.41 -3.16)" fill="#231f20"/><path d="M156.93,278l-.18-.84h0a2.53,2.53,0,0,1-.88.75,2.69,2.69,0,0,1-1.09.2,2,2,0,0,1-1.38-.45,1.65,1.65,0,0,1-.49-1.29c0-1.18.95-1.81,2.85-1.87l1,0v-.36a1.51,1.51,0,0,0-.3-1,1.23,1.23,0,0,0-.95-.33,3.92,3.92,0,0,0-1.67.45l-.27-.68a4.69,4.69,0,0,1,.95-.37,4.12,4.12,0,0,1,1-.13,2.21,2.21,0,0,1,1.56.47,1.93,1.93,0,0,1,.51,1.49v4Zm-2-.63a1.83,1.83,0,0,0,1.31-.45,1.69,1.69,0,0,0,.48-1.28v-.53l-.89,0a3.39,3.39,0,0,0-1.54.33,1,1,0,0,0-.47.91.93.93,0,0,0,.29.74A1.22,1.22,0,0,0,154.91,277.38Z" transform="translate(-0.41 -3.16)" fill="#231f20"/><path d="M162.11,272a3.65,3.65,0,0,1,.7.06l-.12.83a3.28,3.28,0,0,0-.64-.08,1.57,1.57,0,0,0-1.23.58,2.09,2.09,0,0,0-.5,1.44V278h-.9v-5.88h.74l.1,1.08h.05a2.59,2.59,0,0,1,.78-.88A1.78,1.78,0,0,1,162.11,272Z" transform="translate(-0.41 -3.16)" fill="#231f20"/><path d="M169.12,278.12a2.47,2.47,0,0,1-2-.79,3.2,3.2,0,0,1-.71-2.22,3.33,3.33,0,0,1,.72-2.29,2.57,2.57,0,0,1,2-.8,4,4,0,0,1,.85.09,3,3,0,0,1,.67.21l-.28.76a4.83,4.83,0,0,0-.64-.2,2.94,2.94,0,0,0-.62-.07c-1.19,0-1.79.76-1.79,2.28a2.68,2.68,0,0,0,.44,1.67,1.5,1.5,0,0,0,1.29.58,4,4,0,0,0,1.51-.32v.79A3.14,3.14,0,0,1,169.12,278.12Z" transform="translate(-0.41 -3.16)" fill="#231f20"/><path d="M177.09,275.06a3.22,3.22,0,0,1-.73,2.25,2.54,2.54,0,0,1-2,.81,2.64,2.64,0,0,1-1.4-.37,2.4,2.4,0,0,1-.94-1.07,3.58,3.58,0,0,1-.34-1.62,3.24,3.24,0,0,1,.72-2.24,2.57,2.57,0,0,1,2-.8,2.47,2.47,0,0,1,2,.82A3.21,3.21,0,0,1,177.09,275.06Zm-4.49,0a2.8,2.8,0,0,0,.46,1.72,1.78,1.78,0,0,0,2.65,0,2.71,2.71,0,0,0,.46-1.72,2.67,2.67,0,0,0-.46-1.7,1.8,1.8,0,0,0-2.66,0A2.73,2.73,0,0,0,172.6,275.06Z" transform="translate(-0.41 -3.16)" fill="#231f20"/><path d="M179.54,278h-.89v-8.36h.89Z" transform="translate(-0.41 -3.16)" fill="#231f20"/><path d="M182.33,278h-.89v-8.36h.89Z" transform="translate(-0.41 -3.16)" fill="#231f20"/><path d="M186.7,278.12a2.72,2.72,0,0,1-2.06-.8,3.07,3.07,0,0,1-.75-2.2,3.38,3.38,0,0,1,.7-2.26,2.33,2.33,0,0,1,1.88-.84,2.2,2.2,0,0,1,1.75.73,2.77,2.77,0,0,1,.65,1.92v.56h-4.06a2.33,2.33,0,0,0,.53,1.57,1.81,1.81,0,0,0,1.4.54,4.68,4.68,0,0,0,1.88-.4v.8a5.48,5.48,0,0,1-.9.29A5,5,0,0,1,186.7,278.12Zm-.24-5.36a1.46,1.46,0,0,0-1.13.47,2.16,2.16,0,0,0-.5,1.27h3.08a2,2,0,0,0-.37-1.29A1.33,1.33,0,0,0,186.46,272.76Z" transform="translate(-0.41 -3.16)" fill="#231f20"/><path d="M195.21,272.13v.56l-1.09.13a1.86,1.86,0,0,1,.27.49,2.06,2.06,0,0,1,.11.68,1.71,1.71,0,0,1-.59,1.38,2.34,2.34,0,0,1-1.62.52,2.49,2.49,0,0,1-.49,0,.87.87,0,0,0-.57.75.37.37,0,0,0,.2.36,1.39,1.39,0,0,0,.68.12h1a2.32,2.32,0,0,1,1.47.4,1.41,1.41,0,0,1,.51,1.17,1.67,1.67,0,0,1-.78,1.49,4.25,4.25,0,0,1-2.29.51,3.1,3.1,0,0,1-1.78-.43,1.45,1.45,0,0,1-.28-2.14,1.74,1.74,0,0,1,1-.53.87.87,0,0,1-.37-.32.79.79,0,0,1-.16-.5,1,1,0,0,1,.17-.56,1.9,1.9,0,0,1,.55-.47,1.55,1.55,0,0,1-.75-.64,1.87,1.87,0,0,1-.28-1,1.9,1.9,0,0,1,.58-1.49,2.34,2.34,0,0,1,1.64-.52,2.69,2.69,0,0,1,.83.11Zm-4.7,6.87a.79.79,0,0,0,.41.72,2.13,2.13,0,0,0,1.15.25,3.26,3.26,0,0,0,1.66-.33,1,1,0,0,0,.54-.91.75.75,0,0,0-.29-.67,2.36,2.36,0,0,0-1.11-.18H191.8a1.39,1.39,0,0,0-1,.29A1,1,0,0,0,190.51,279Zm.49-5a1.16,1.16,0,0,0,.35.93,1.34,1.34,0,0,0,1,.32,1.13,1.13,0,0,0,1.3-1.27,1.17,1.17,0,0,0-1.32-1.32,1.3,1.3,0,0,0-1,.34A1.37,1.37,0,0,0,191,274Z" transform="translate(-0.41 -3.16)" fill="#231f20"/><path d="M198.9,278.12a2.72,2.72,0,0,1-2.06-.8,3.07,3.07,0,0,1-.75-2.2,3.38,3.38,0,0,1,.7-2.26,2.32,2.32,0,0,1,1.88-.84,2.2,2.2,0,0,1,1.75.73,2.77,2.77,0,0,1,.65,1.92v.56H197a2.28,2.28,0,0,0,.53,1.57,1.79,1.79,0,0,0,1.4.54,4.63,4.63,0,0,0,1.87-.4v.8a5.1,5.1,0,0,1-.89.29A5,5,0,0,1,198.9,278.12Zm-.24-5.36a1.46,1.46,0,0,0-1.13.47,2.1,2.1,0,0,0-.5,1.27h3.08a1.91,1.91,0,0,0-.38-1.29A1.31,1.31,0,0,0,198.66,272.76Z" transform="translate(-0.41 -3.16)" fill="#231f20"/><line x1="322.27" y1="253.49" x2="335.33" y2="253.49" fill="none" stroke="#231f20" stroke-miterlimit="10" stroke-width="0.5"/><line x1="532.85" y1="253.49" x2="546.65" y2="253.49" fill="none" stroke="#231f20" stroke-miterlimit="10" stroke-width="0.5"/><line x1="338.8" y1="253.49" x2="529.45" y2="253.49" fill="none" stroke="#231f20" stroke-miterlimit="10" stroke-width="0.5"/><line x1="322.51" y1="253.36" x2="322.51" y2="255.76" fill="none" stroke="#231f20" stroke-miterlimit="10" stroke-width="0.5"/><line x1="546.51" y1="253.36" x2="546.51" y2="255.76" fill="none" stroke="#231f20" stroke-miterlimit="10" stroke-width="0.5"/><line x1="514.51" y1="253.36" x2="514.51" y2="255.76" fill="none" stroke="#231f20" stroke-miterlimit="10" stroke-width="0.5"/><line x1="482.51" y1="253.36" x2="482.51" y2="255.76" fill="none" stroke="#231f20" stroke-miterlimit="10" stroke-width="0.5"/><line x1="450.51" y1="253.36" x2="450.51" y2="255.76" fill="none" stroke="#231f20" stroke-miterlimit="10" stroke-width="0.5"/><line x1="418.51" y1="253.36" x2="418.51" y2="255.76" fill="none" stroke="#231f20" stroke-miterlimit="10" stroke-width="0.5"/><line x1="386.51" y1="253.36" x2="386.51" y2="255.76" fill="none" stroke="#231f20" stroke-miterlimit="10" stroke-width="0.5"/><line x1="354.51" y1="253.36" x2="354.51" y2="255.76" fill="none" stroke="#231f20" stroke-miterlimit="10" stroke-width="0.5"/><path d="M325.25,264.62a5.81,5.81,0,0,1-.64,3,2.19,2.19,0,0,1-2,1,2.15,2.15,0,0,1-1.92-1,5.55,5.55,0,0,1-.66-3,5.77,5.77,0,0,1,.63-3,2.16,2.16,0,0,1,1.95-1,2.18,2.18,0,0,1,1.95,1A5.61,5.61,0,0,1,325.25,264.62Zm-4.29,0a5.8,5.8,0,0,0,.4,2.5,1.45,1.45,0,0,0,2.58,0,7.89,7.89,0,0,0,0-5,1.37,1.37,0,0,0-1.3-.79,1.35,1.35,0,0,0-1.28.78A5.72,5.72,0,0,0,321,264.62Z" transform="translate(-0.41 -3.16)" fill="#58595b"/><path d="M352.15,268.56H347v-.77l2.07-2.08a16.29,16.29,0,0,0,1.25-1.36,3.42,3.42,0,0,0,.45-.8,2.27,2.27,0,0,0,.15-.83,1.35,1.35,0,0,0-.38-1,1.5,1.5,0,0,0-1.06-.36,2.64,2.64,0,0,0-.93.16,3.86,3.86,0,0,0-1,.58l-.47-.6a3.58,3.58,0,0,1,2.36-.91,2.46,2.46,0,0,1,1.73.57,1.94,1.94,0,0,1,.63,1.52,3,3,0,0,1-.42,1.48,9.23,9.23,0,0,1-1.56,1.85l-1.72,1.68v0h4Z" transform="translate(-0.41 -3.16)" fill="#58595b"/><path d="M355.73,263.76a2.87,2.87,0,0,1,1.95.62,2.09,2.09,0,0,1,.71,1.68,2.45,2.45,0,0,1-.77,1.91,3.07,3.07,0,0,1-2.14.7,4,4,0,0,1-2-.43v-.86a3,3,0,0,0,.94.38,4.67,4.67,0,0,0,1.1.14,2.19,2.19,0,0,0,1.47-.45,1.58,1.58,0,0,0,.52-1.29c0-1.09-.67-1.64-2-1.64a7.56,7.56,0,0,0-1.37.16l-.46-.3.29-3.67h3.91v.82H354.7l-.2,2.36A5.71,5.71,0,0,1,355.73,263.76Z" transform="translate(-0.41 -3.16)" fill="#58595b"/><path d="M364.77,264.62a5.81,5.81,0,0,1-.64,3,2.19,2.19,0,0,1-2,1,2.14,2.14,0,0,1-1.92-1,5.54,5.54,0,0,1-.67-3,5.76,5.76,0,0,1,.64-3,2.36,2.36,0,0,1,3.89,0A5.51,5.51,0,0,1,364.77,264.62Zm-4.29,0a5.77,5.77,0,0,0,.4,2.5,1.35,1.35,0,0,0,1.28.78,1.37,1.37,0,0,0,1.3-.79,8.11,8.11,0,0,0,0-5,1.36,1.36,0,0,0-1.3-.78,1.34,1.34,0,0,0-1.28.77A5.72,5.72,0,0,0,360.48,264.62Z" transform="translate(-0.41 -3.16)" fill="#58595b"/><path d="M383.89,268.56h-5.17v-.77l2.07-2.08a16.29,16.29,0,0,0,1.25-1.36,3.42,3.42,0,0,0,.45-.8,2.27,2.27,0,0,0,.15-.83,1.35,1.35,0,0,0-.38-1,1.5,1.5,0,0,0-1.06-.36,2.64,2.64,0,0,0-.93.16,3.86,3.86,0,0,0-1,.58l-.47-.6a3.58,3.58,0,0,1,2.36-.91,2.47,2.47,0,0,1,1.73.57,1.94,1.94,0,0,1,.63,1.52,3,3,0,0,1-.42,1.48,9.59,9.59,0,0,1-1.56,1.85l-1.72,1.68v0h4Z" transform="translate(-0.41 -3.16)" fill="#58595b"/><path d="M385.1,265.2a5.55,5.55,0,0,1,.9-3.46,3.2,3.2,0,0,1,2.67-1.15,3.38,3.38,0,0,1,.95.11v.76a3,3,0,0,0-.94-.13,2.36,2.36,0,0,0-1.93.79,3.94,3.94,0,0,0-.73,2.47h.06a2.06,2.06,0,0,1,1.87-.92,2.22,2.22,0,0,1,1.67.63,2.46,2.46,0,0,1,.61,1.74,2.67,2.67,0,0,1-.67,1.92,2.39,2.39,0,0,1-1.81.71,2.32,2.32,0,0,1-1.93-.92A4,4,0,0,1,385.1,265.2Zm2.64,2.71a1.52,1.52,0,0,0,1.19-.48,2.06,2.06,0,0,0,.42-1.39,1.81,1.81,0,0,0-.39-1.23,1.53,1.53,0,0,0-1.18-.44,2,2,0,0,0-.88.2,1.56,1.56,0,0,0-.64.55,1.24,1.24,0,0,0-.24.72,2.53,2.53,0,0,0,.21,1,1.92,1.92,0,0,0,.61.76A1.48,1.48,0,0,0,387.74,267.91Z" transform="translate(-0.41 -3.16)" fill="#58595b"/><path d="M396.51,264.62a5.7,5.7,0,0,1-.65,3,2.36,2.36,0,0,1-3.89,0,5.64,5.64,0,0,1-.66-3,5.76,5.76,0,0,1,.64-3,2.36,2.36,0,0,1,3.89,0A5.51,5.51,0,0,1,396.51,264.62Zm-4.3,0a5.74,5.74,0,0,0,.41,2.5,1.44,1.44,0,0,0,2.57,0,7.92,7.92,0,0,0,0-5,1.45,1.45,0,0,0-2.57,0A5.69,5.69,0,0,0,392.21,264.62Z" transform="translate(-0.41 -3.16)" fill="#58595b"/><path d="M416,268.56h-5.17v-.77l2.07-2.08a16.29,16.29,0,0,0,1.25-1.36,3.42,3.42,0,0,0,.45-.8,2.27,2.27,0,0,0,.15-.83,1.35,1.35,0,0,0-.38-1,1.48,1.48,0,0,0-1.06-.36,2.68,2.68,0,0,0-.93.16,3.86,3.86,0,0,0-1,.58l-.47-.6a3.58,3.58,0,0,1,2.36-.91,2.46,2.46,0,0,1,1.73.57,1.94,1.94,0,0,1,.63,1.52,3,3,0,0,1-.42,1.48,9.23,9.23,0,0,1-1.56,1.85L412,267.69v0h4Z" transform="translate(-0.41 -3.16)" fill="#58595b"/><path d="M418.15,268.56l3.25-7h-4.28v-.82h5.23v.71l-3.21,7.14Z" transform="translate(-0.41 -3.16)" fill="#58595b"/><path d="M428.65,264.62a5.81,5.81,0,0,1-.64,3,2.37,2.37,0,0,1-3.9,0,5.64,5.64,0,0,1-.66-3,5.76,5.76,0,0,1,.64-3,2.36,2.36,0,0,1,3.89,0A5.51,5.51,0,0,1,428.65,264.62Zm-4.29,0a5.77,5.77,0,0,0,.4,2.5,1.44,1.44,0,0,0,2.57,0,7.92,7.92,0,0,0,0-5,1.45,1.45,0,0,0-2.57,0A5.72,5.72,0,0,0,424.36,264.62Z" transform="translate(-0.41 -3.16)" fill="#58595b"/><path d="M447,268.56h-5.16v-.77l2.06-2.08a16.29,16.29,0,0,0,1.25-1.36,3.42,3.42,0,0,0,.45-.8,2.27,2.27,0,0,0,.15-.83,1.35,1.35,0,0,0-.38-1,1.48,1.48,0,0,0-1.06-.36,2.58,2.58,0,0,0-.92.16,3.73,3.73,0,0,0-1,.58l-.47-.6a3.58,3.58,0,0,1,2.36-.91,2.5,2.5,0,0,1,1.74.57,1.93,1.93,0,0,1,.62,1.52,2.93,2.93,0,0,1-.41,1.48,9.72,9.72,0,0,1-1.57,1.85l-1.72,1.68v0h4Z" transform="translate(-0.41 -3.16)" fill="#58595b"/><path d="M450.69,260.59a2.7,2.7,0,0,1,1.71.5,1.68,1.68,0,0,1,.63,1.38,1.72,1.72,0,0,1-.36,1.06,3.21,3.21,0,0,1-1.15.87,4.1,4.1,0,0,1,1.36,1,1.85,1.85,0,0,1,.4,1.16,2,2,0,0,1-.68,1.56,2.79,2.79,0,0,1-1.87.59,3,3,0,0,1-1.94-.55,1.91,1.91,0,0,1-.67-1.57,2.31,2.31,0,0,1,1.64-2.09,3.07,3.07,0,0,1-1.06-.91,1.89,1.89,0,0,1-.33-1.09,1.64,1.64,0,0,1,.64-1.36A2.59,2.59,0,0,1,450.69,260.59Zm-1.69,6a1.2,1.2,0,0,0,.45,1,1.93,1.93,0,0,0,1.26.36,1.82,1.82,0,0,0,1.24-.38,1.31,1.31,0,0,0,0-1.95,4.25,4.25,0,0,0-1.46-.79,3.1,3.1,0,0,0-1.16.76A1.48,1.48,0,0,0,449,266.58Zm1.68-5.26a1.62,1.62,0,0,0-1.05.32,1.09,1.09,0,0,0-.38.86,1.25,1.25,0,0,0,.32.85,3.44,3.44,0,0,0,1.17.71,3.2,3.2,0,0,0,1.09-.69,1.32,1.32,0,0,0,.32-.87,1.05,1.05,0,0,0-.39-.86A1.62,1.62,0,0,0,450.68,261.32Z" transform="translate(-0.41 -3.16)" fill="#58595b"/><path d="M459.59,264.62a5.81,5.81,0,0,1-.64,3,2.19,2.19,0,0,1-2,1,2.15,2.15,0,0,1-1.92-1,5.55,5.55,0,0,1-.66-3,5.77,5.77,0,0,1,.63-3,2.16,2.16,0,0,1,2-1,2.18,2.18,0,0,1,1.95,1A5.61,5.61,0,0,1,459.59,264.62Zm-4.29,0a5.77,5.77,0,0,0,.4,2.5,1.35,1.35,0,0,0,1.28.78,1.37,1.37,0,0,0,1.3-.79,7.92,7.92,0,0,0,0-5,1.36,1.36,0,0,0-1.3-.78,1.34,1.34,0,0,0-1.28.77A5.72,5.72,0,0,0,455.3,264.62Z" transform="translate(-0.41 -3.16)" fill="#58595b"/><path d="M479.91,268.56h-5.16v-.77l2.07-2.08a15.64,15.64,0,0,0,1.24-1.36,3.42,3.42,0,0,0,.45-.8,2.27,2.27,0,0,0,.15-.83,1.31,1.31,0,0,0-.38-1,1.48,1.48,0,0,0-1.06-.36,2.58,2.58,0,0,0-.92.16,3.73,3.73,0,0,0-1,.58l-.47-.6a3.58,3.58,0,0,1,2.36-.91,2.5,2.5,0,0,1,1.74.57,1.94,1.94,0,0,1,.63,1.52,3,3,0,0,1-.42,1.48,9.72,9.72,0,0,1-1.57,1.85l-1.72,1.68v0h4Z" transform="translate(-0.41 -3.16)" fill="#58595b"/><path d="M486.2,264.06q0,4.6-3.57,4.61a3.76,3.76,0,0,1-1-.11v-.77a3.26,3.26,0,0,0,1,.14,2.39,2.39,0,0,0,1.95-.8,3.94,3.94,0,0,0,.71-2.44h-.06a2.05,2.05,0,0,1-.78.68,2.65,2.65,0,0,1-1.11.23,2.23,2.23,0,0,1-1.65-.62,2.38,2.38,0,0,1-.61-1.74,2.71,2.71,0,0,1,.68-1.94,2.62,2.62,0,0,1,3.2-.3,2.71,2.71,0,0,1,.93,1.2A5,5,0,0,1,486.2,264.06Zm-2.64-2.7a1.46,1.46,0,0,0-1.19.49,2.06,2.06,0,0,0-.42,1.37,1.77,1.77,0,0,0,.39,1.22,1.45,1.45,0,0,0,1.17.44,2,2,0,0,0,.9-.19,1.68,1.68,0,0,0,.65-.55,1.24,1.24,0,0,0,.24-.72,2.58,2.58,0,0,0-.22-1,1.85,1.85,0,0,0-.62-.75A1.54,1.54,0,0,0,483.56,261.36Z" transform="translate(-0.41 -3.16)" fill="#58595b"/><path d="M492.53,264.62a5.71,5.71,0,0,1-.64,3,2.36,2.36,0,0,1-3.89,0,7.39,7.39,0,0,1,0-6.06,2.13,2.13,0,0,1,1.94-1,2.18,2.18,0,0,1,1.95,1A5.61,5.61,0,0,1,492.53,264.62Zm-4.29,0a5.77,5.77,0,0,0,.4,2.5,1.35,1.35,0,0,0,1.28.78,1.37,1.37,0,0,0,1.3-.79,7.92,7.92,0,0,0,0-5,1.36,1.36,0,0,0-1.3-.78,1.34,1.34,0,0,0-1.28.77A5.72,5.72,0,0,0,488.24,264.62Z" transform="translate(-0.41 -3.16)" fill="#58595b"/><path d="M511.4,262.55a1.84,1.84,0,0,1-.41,1.23,2,2,0,0,1-1.16.64v.05a2.13,2.13,0,0,1,1.36.6,1.81,1.81,0,0,1,.44,1.26,2.07,2.07,0,0,1-.76,1.73,3.37,3.37,0,0,1-2.14.61,6.18,6.18,0,0,1-1.11-.1,3.54,3.54,0,0,1-1-.33v-.85a4.62,4.62,0,0,0,1.06.39,4.45,4.45,0,0,0,1.06.13c1.31,0,2-.53,2-1.6s-.72-1.43-2.18-1.43h-.75v-.76h.76a2.26,2.26,0,0,0,1.42-.41,1.33,1.33,0,0,0,.52-1.12,1.15,1.15,0,0,0-.38-.91,1.56,1.56,0,0,0-1-.32,3,3,0,0,0-.95.14,4.15,4.15,0,0,0-1,.51l-.44-.6a4.05,4.05,0,0,1,1.08-.6,4,4,0,0,1,1.3-.22,2.56,2.56,0,0,1,1.72.53A1.79,1.79,0,0,1,511.4,262.55Z" transform="translate(-0.41 -3.16)" fill="#58595b"/><path d="M517.83,264.62a5.93,5.93,0,0,1-.62,3,2.26,2.26,0,0,1-3.78,0,7.6,7.6,0,0,1,0-6.06,2.06,2.06,0,0,1,1.89-1,2.09,2.09,0,0,1,1.89,1A5.72,5.72,0,0,1,517.83,264.62Zm-4.17,0a5.77,5.77,0,0,0,.4,2.5,1.3,1.3,0,0,0,1.24.78,1.32,1.32,0,0,0,1.26-.79,8.32,8.32,0,0,0,0-5,1.31,1.31,0,0,0-1.26-.78,1.29,1.29,0,0,0-1.24.77A5.72,5.72,0,0,0,513.66,264.62Z" transform="translate(-0.41 -3.16)" fill="#58595b"/><path d="M523.94,264.62a5.82,5.82,0,0,1-.63,3,2.26,2.26,0,0,1-3.78,0,7.6,7.6,0,0,1,0-6.06,2.26,2.26,0,0,1,3.78,0A5.71,5.71,0,0,1,523.94,264.62Zm-4.17,0a6,6,0,0,0,.39,2.5,1.39,1.39,0,0,0,2.5,0,8.11,8.11,0,0,0,0-5,1.4,1.4,0,0,0-2.5,0A5.9,5.9,0,0,0,519.77,264.62Z" transform="translate(-0.41 -3.16)" fill="#58595b"/><path d="M540.75,263.76a2.87,2.87,0,0,1,2,.62,2.09,2.09,0,0,1,.72,1.68,2.42,2.42,0,0,1-.78,1.91,3.07,3.07,0,0,1-2.14.7,4,4,0,0,1-2-.43v-.86a3.13,3.13,0,0,0,.94.38,4.67,4.67,0,0,0,1.1.14,2.19,2.19,0,0,0,1.47-.45,1.58,1.58,0,0,0,.52-1.29c0-1.09-.67-1.64-2-1.64a7.56,7.56,0,0,0-1.37.16l-.46-.3.3-3.67h3.9v.82h-3.14l-.2,2.36A5.71,5.71,0,0,1,540.75,263.76Z" transform="translate(-0.41 -3.16)" fill="#58595b"/><path d="M549.79,264.62a5.71,5.71,0,0,1-.64,3,2.36,2.36,0,0,1-3.89,0,7.39,7.39,0,0,1,0-6.06,2.13,2.13,0,0,1,2-1,2.18,2.18,0,0,1,1.94,1A5.61,5.61,0,0,1,549.79,264.62Zm-4.29,0a5.77,5.77,0,0,0,.4,2.5,1.45,1.45,0,0,0,2.58,0,7.92,7.92,0,0,0,0-5,1.46,1.46,0,0,0-2.58,0A5.72,5.72,0,0,0,545.5,264.62Z" transform="translate(-0.41 -3.16)" fill="#58595b"/><path d="M556.08,264.62a5.81,5.81,0,0,1-.64,3,2.19,2.19,0,0,1-2,1,2.15,2.15,0,0,1-1.92-1,5.55,5.55,0,0,1-.66-3,5.77,5.77,0,0,1,.63-3,2.16,2.16,0,0,1,2-1,2.18,2.18,0,0,1,1.95,1A5.61,5.61,0,0,1,556.08,264.62Zm-4.29,0a5.77,5.77,0,0,0,.4,2.5,1.35,1.35,0,0,0,1.28.78,1.37,1.37,0,0,0,1.3-.79,7.92,7.92,0,0,0,0-5,1.36,1.36,0,0,0-1.3-.78,1.34,1.34,0,0,0-1.28.77A5.72,5.72,0,0,0,551.79,264.62Z" transform="translate(-0.41 -3.16)" fill="#58595b"/><line x1="340.75" y1="255.38" x2="336.76" y2="251.45" fill="#231f20" stroke="#231f20" stroke-width="0.5"/><line x1="337.58" y1="255.38" x2="333.59" y2="251.45" fill="#231f20" stroke="#231f20" stroke-width="0.5"/><line x1="534.75" y1="255.38" x2="530.76" y2="251.45" fill="#231f20" stroke="#231f20" stroke-width="0.5"/><line x1="531.58" y1="255.38" x2="527.59" y2="251.45" fill="#231f20" stroke="#231f20" stroke-width="0.5"/><path d="M570.62,153.65h-12v-2.52l4.3-4.34c1.27-1.31,2.1-2.21,2.5-2.72a5.81,5.81,0,0,0,.84-1.4,3.58,3.58,0,0,0,.26-1.33,2,2,0,0,0-.57-1.54,2.2,2.2,0,0,0-1.52-.5,4.4,4.4,0,0,0-1.93.45,10.2,10.2,0,0,0-2,1.3l-2-2.33a12.94,12.94,0,0,1,2.1-1.52,7.46,7.46,0,0,1,1.82-.69,9.27,9.27,0,0,1,2.2-.24,6.51,6.51,0,0,1,2.83.59,4.55,4.55,0,0,1,1.92,1.64,4.37,4.37,0,0,1,.67,2.41,5.84,5.84,0,0,1-.41,2.22,8.42,8.42,0,0,1-1.29,2.13,31.52,31.52,0,0,1-3.08,3.11l-2.2,2.07v.17h7.47Z" transform="translate(-0.41 -3.16)" fill="#231f20"/><path d="M584.24,143.83q0,5.07-2.13,7.56c-1.42,1.66-3.57,2.5-6.46,2.5a11.89,11.89,0,0,1-2.3-.17v-2.9a8.61,8.61,0,0,0,2.06.24,7.35,7.35,0,0,0,3-.53,3.74,3.74,0,0,0,1.79-1.68,7.39,7.39,0,0,0,.71-3.14h-.14a3.91,3.91,0,0,1-1.57,1.54,4.87,4.87,0,0,1-2.22.45,4.49,4.49,0,0,1-3.53-1.44,5.73,5.73,0,0,1-1.29-4,6,6,0,0,1,1.56-4.35,5.69,5.69,0,0,1,4.26-1.6,6.18,6.18,0,0,1,3.33.89,5.73,5.73,0,0,1,2.18,2.58A9.78,9.78,0,0,1,584.24,143.83Zm-6.2-4.6a2.11,2.11,0,0,0-1.75.77,3.46,3.46,0,0,0-.64,2.23,3.14,3.14,0,0,0,.58,2,2.08,2.08,0,0,0,1.74.72,2.69,2.69,0,0,0,1.89-.72,2.21,2.21,0,0,0,.79-1.66,3.75,3.75,0,0,0-.74-2.35A2.24,2.24,0,0,0,578,139.23Z" transform="translate(-0.41 -3.16)" fill="#231f20"/><path d="M585.43,151.17V149.7h3.15v1.47Z" transform="translate(-0.41 -3.16)" fill="#231f20"/><path d="M593.47,153.77a2.17,2.17,0,0,1-1.81-.84h-.09c.06.55.09.86.09.95v2.66h-1.78V147.1h1.45l.25.85h.08a2.07,2.07,0,0,1,1.86-1,2.14,2.14,0,0,1,1.82.9,4.17,4.17,0,0,1,.65,2.49,5.07,5.07,0,0,1-.3,1.82,2.63,2.63,0,0,1-.88,1.18A2.33,2.33,0,0,1,593.47,153.77Zm-.52-5.36a1.1,1.1,0,0,0-1,.41,2.37,2.37,0,0,0-.32,1.34v.19a2.77,2.77,0,0,0,.32,1.52,1.12,1.12,0,0,0,1,.45q1.2,0,1.2-2a2.8,2.8,0,0,0-.3-1.45A1,1,0,0,0,593,148.41Z" transform="translate(-0.41 -3.16)" fill="#231f20"/><path d="M603.42,150.37a3.53,3.53,0,0,1-.84,2.5,3.07,3.07,0,0,1-2.35.9,3.39,3.39,0,0,1-1.67-.41,2.76,2.76,0,0,1-1.1-1.19,4,4,0,0,1-.39-1.8,3.48,3.48,0,0,1,.84-2.5,3.08,3.08,0,0,1,2.35-.89,3.36,3.36,0,0,1,1.67.41,2.7,2.7,0,0,1,1.11,1.18A4,4,0,0,1,603.42,150.37Zm-4.53,0a2.81,2.81,0,0,0,.32,1.47,1.15,1.15,0,0,0,1,.49,1.12,1.12,0,0,0,1-.49,2.77,2.77,0,0,0,.31-1.47,2.71,2.71,0,0,0-.31-1.46,1.35,1.35,0,0,0-2.07,0A2.74,2.74,0,0,0,598.89,150.37Z" transform="translate(-0.41 -3.16)" fill="#231f20"/><path d="M604.82,145.41c0-.58.33-.87,1-.87s1,.29,1,.87a.84.84,0,0,1-.25.65,1,1,0,0,1-.72.23C605.15,146.29,604.82,146,604.82,145.41Zm1.87,8.24H604.9V147.1h1.79Z" transform="translate(-0.41 -3.16)" fill="#231f20"/><path d="M614.61,153.65h-1.79v-3.82a1.84,1.84,0,0,0-.25-1.07.94.94,0,0,0-.8-.35,1.22,1.22,0,0,0-1.09.5,3.13,3.13,0,0,0-.33,1.66v3.08h-1.79V147.1h1.37l.24.84h.1a1.85,1.85,0,0,1,.82-.72,2.84,2.84,0,0,1,1.19-.24,2.29,2.29,0,0,1,1.74.62,2.48,2.48,0,0,1,.59,1.78Z" transform="translate(-0.41 -3.16)" fill="#231f20"/><path d="M619.21,152.35a3.74,3.74,0,0,0,1.12-.21v1.33a4,4,0,0,1-1.64.3,2,2,0,0,1-1.56-.54,2.35,2.35,0,0,1-.49-1.63v-3.16h-.85v-.75l1-.6.52-1.38h1.14v1.39h1.83v1.34h-1.83v3.16a.69.69,0,0,0,.21.56A.8.8,0,0,0,619.21,152.35Z" transform="translate(-0.41 -3.16)" fill="#231f20"/><path d="M628.89,151.87a1.66,1.66,0,0,1-.65,1.41,3.16,3.16,0,0,1-1.92.48,5.85,5.85,0,0,1-1.11-.09,4,4,0,0,1-.87-.26v-1.35a6.52,6.52,0,0,0,1,.36,4.5,4.5,0,0,0,1,.14c.59,0,.89-.17.89-.51a.44.44,0,0,0-.12-.32,1.59,1.59,0,0,0-.41-.27c-.19-.1-.45-.22-.77-.36a4.61,4.61,0,0,1-1-.54,1.46,1.46,0,0,1-.47-.56,1.89,1.89,0,0,1-.15-.79A1.44,1.44,0,0,1,625,148a3,3,0,0,1,1.76-.43,4.91,4.91,0,0,1,2.11.47l-.49,1.18a8.4,8.4,0,0,0-.85-.32,2.67,2.67,0,0,0-.8-.12q-.72,0-.72.39a.47.47,0,0,0,.23.38,6.16,6.16,0,0,0,1,.48,5.28,5.28,0,0,1,1,.53,1.7,1.7,0,0,1,.48.57A1.82,1.82,0,0,1,628.89,151.87Z" transform="translate(-0.41 -3.16)" fill="#231f20"/><path d="M632.49,153.76c-1.87,0-2.8-1-2.8-3.08a3.28,3.28,0,0,1,.76-2.34,2.86,2.86,0,0,1,2.19-.8,4.24,4.24,0,0,1,1.87.4l-.49,1.27c-.26-.1-.5-.19-.72-.25a2.16,2.16,0,0,0-.66-.1c-.86,0-1.28.6-1.28,1.81s.42,1.76,1.28,1.76a3,3,0,0,0,.87-.12,3.38,3.38,0,0,0,.81-.4v1.4a2.54,2.54,0,0,1-.8.35A4.32,4.32,0,0,1,632.49,153.76Z" transform="translate(-0.41 -3.16)" fill="#231f20"/><path d="M641.06,150.64a3.19,3.19,0,0,1-.78,2.29,2.79,2.79,0,0,1-2.15.83,3,3,0,0,1-1.53-.38,2.43,2.43,0,0,1-1-1.09,3.58,3.58,0,0,1-.36-1.65,3.24,3.24,0,0,1,.77-2.29,2.83,2.83,0,0,1,2.16-.81,3,3,0,0,1,1.53.37,2.46,2.46,0,0,1,1,1.08A3.58,3.58,0,0,1,641.06,150.64Zm-4.16,0a2.5,2.5,0,0,0,.3,1.35,1,1,0,0,0,.95.45,1,1,0,0,0,.94-.45,2.55,2.55,0,0,0,.29-1.35,2.52,2.52,0,0,0-.29-1.34,1,1,0,0,0-1-.44,1,1,0,0,0-.95.44A2.49,2.49,0,0,0,636.9,150.64Z" transform="translate(-0.41 -3.16)" fill="#231f20"/><path d="M645.65,147.54a2.81,2.81,0,0,1,.55,0l-.12,1.54a1.68,1.68,0,0,0-.48-.05,1.73,1.73,0,0,0-1.22.4,1.43,1.43,0,0,0-.44,1.13v3.05H642.3v-6h1.24l.24,1h.08a2.3,2.3,0,0,1,.76-.82A1.9,1.9,0,0,1,645.65,147.54Z" transform="translate(-0.41 -3.16)" fill="#231f20"/><path d="M649.9,153.76a3.1,3.1,0,0,1-2.26-.8,3,3,0,0,1-.82-2.27,3.35,3.35,0,0,1,.75-2.33,2.7,2.7,0,0,1,2.09-.82,2.64,2.64,0,0,1,2,.72,2.7,2.7,0,0,1,.71,2v.8h-3.87a1.63,1.63,0,0,0,.41,1.09,1.47,1.47,0,0,0,1.09.39,4.76,4.76,0,0,0,1-.11,5.59,5.59,0,0,0,1-.36v1.27a4.45,4.45,0,0,1-.91.32A6.73,6.73,0,0,1,649.9,153.76Zm-.23-5.06a1,1,0,0,0-.82.33,1.57,1.57,0,0,0-.33.94h2.3a1.4,1.4,0,0,0-.32-.94A1.08,1.08,0,0,0,649.67,148.7Z" transform="translate(-0.41 -3.16)" fill="#231f20"/><path d="M661.55,147.65v.83l-.94.24a1.66,1.66,0,0,1,.26.9,1.82,1.82,0,0,1-.68,1.51,2.91,2.91,0,0,1-1.87.54l-.3,0-.24,0a.54.54,0,0,0-.25.43c0,.23.3.35.9.35h1a2.3,2.3,0,0,1,1.51.43,1.49,1.49,0,0,1,.52,1.24,1.83,1.83,0,0,1-.88,1.63,4.56,4.56,0,0,1-2.52.58,3.5,3.5,0,0,1-1.92-.43,1.4,1.4,0,0,1-.67-1.23,1.33,1.33,0,0,1,.34-.91,1.94,1.94,0,0,1,1-.52,1.06,1.06,0,0,1-.44-.35.82.82,0,0,1-.19-.52.8.8,0,0,1,.2-.57,2.36,2.36,0,0,1,.57-.45,1.68,1.68,0,0,1-.75-.65,2.07,2.07,0,0,1-.27-1.07,1.87,1.87,0,0,1,.64-1.52,2.73,2.73,0,0,1,1.82-.53,4.62,4.62,0,0,1,.6,0,3.61,3.61,0,0,1,.44.07Zm-4.64,6.85a.59.59,0,0,0,.33.53,1.75,1.75,0,0,0,.91.2,3.12,3.12,0,0,0,1.38-.25.74.74,0,0,0,.5-.66.46.46,0,0,0-.3-.46,2.3,2.3,0,0,0-.91-.13H658a1.28,1.28,0,0,0-.75.21A.64.64,0,0,0,656.91,154.5Zm.6-4.89a1.23,1.23,0,0,0,.22.78.81.81,0,0,0,.68.28.8.8,0,0,0,.68-.28,1.29,1.29,0,0,0,.21-.78c0-.72-.29-1.08-.89-1.08S657.51,148.89,657.51,149.61Z" transform="translate(-0.41 -3.16)" fill="#231f20"/><path d="M666.24,153.65l-.32-.81h0a2.61,2.61,0,0,1-.85.72,2.81,2.81,0,0,1-1.14.2,1.72,1.72,0,0,1-1.86-1.9,1.57,1.57,0,0,1,.67-1.41,3.86,3.86,0,0,1,2-.5l1,0v-.26a.82.82,0,0,0-.94-.91,4.24,4.24,0,0,0-1.69.43l-.54-1.1a4.88,4.88,0,0,1,2.3-.55,2.87,2.87,0,0,1,1.85.53,1.93,1.93,0,0,1,.64,1.6v4Zm-.48-2.78-.64,0a2.05,2.05,0,0,0-1.06.26.82.82,0,0,0-.35.72c0,.46.27.69.79.69a1.28,1.28,0,0,0,.92-.33,1.15,1.15,0,0,0,.34-.87Z" transform="translate(-0.41 -3.16)" fill="#231f20"/><path d="M672.26,153.76a2,2,0,0,1-1.66-.77h-.09q.09.75.09.87v2.43H669v-8.64h1.33l.23.78h.08a1.88,1.88,0,0,1,1.7-.89,2,2,0,0,1,1.67.82,3.79,3.79,0,0,1,.6,2.28,4.45,4.45,0,0,1-.29,1.67,2.3,2.3,0,0,1-.8,1.08A2,2,0,0,1,672.26,153.76Zm-.49-4.91a1,1,0,0,0-.88.37,2.06,2.06,0,0,0-.29,1.23v.18a2.44,2.44,0,0,0,.29,1.38,1,1,0,0,0,.91.42c.73,0,1.1-.6,1.1-1.81a2.59,2.59,0,0,0-.27-1.33A.93.93,0,0,0,671.77,148.85Z" transform="translate(-0.41 -3.16)" fill="#231f20"/><line x1="526.98" y1="143.61" x2="547.07" y2="143.69" fill="none" stroke="#231f20" stroke-miterlimit="10" stroke-width="0.5"/><circle cx="548.33" cy="143.81" r="2.72" fill="#fff" stroke="#231f20" stroke-miterlimit="10"/><line x1="527.6" y1="84.02" x2="527.6" y2="200.22" fill="none" stroke="#231f20" stroke-miterlimit="10" stroke-width="0.5"/><line x1="516.87" y1="200.02" x2="527.6" y2="200.02" fill="none" stroke="#231f20" stroke-miterlimit="10" stroke-width="0.5"/><rect x="322.6" y="184.62" width="188.8" height="32.8" fill="#262b69"/><path d="M477.73,211.59H467.25v-2.21l3.77-3.8c1.11-1.14,1.84-1.94,2.18-2.38a5.37,5.37,0,0,0,.74-1.22,3.15,3.15,0,0,0,.22-1.17,1.69,1.69,0,0,0-.49-1.34,1.93,1.93,0,0,0-1.33-.44,3.87,3.87,0,0,0-1.69.39,9.11,9.11,0,0,0-1.72,1.14l-1.72-2a11,11,0,0,1,1.84-1.33,6.55,6.55,0,0,1,1.59-.6,8.06,8.06,0,0,1,1.92-.21,5.77,5.77,0,0,1,2.49.51,4,4,0,0,1,1.67,1.44,3.85,3.85,0,0,1,.59,2.11,5.19,5.19,0,0,1-.36,1.94,7.47,7.47,0,0,1-1.13,1.86,27,27,0,0,1-2.69,2.72l-1.93,1.82v.14h6.53Z" transform="translate(-0.41 -3.16)" fill="#fff"/><path d="M489.45,203c0,3-.62,5.16-1.87,6.62s-3.13,2.18-5.65,2.18a11.18,11.18,0,0,1-2-.14V209.1a7.18,7.18,0,0,0,1.81.22,6.31,6.31,0,0,0,2.61-.47,3.32,3.32,0,0,0,1.57-1.46,6.47,6.47,0,0,0,.62-2.76h-.12A3.42,3.42,0,0,1,485,206a4.34,4.34,0,0,1-1.95.39,3.94,3.94,0,0,1-3.09-1.26,5,5,0,0,1-1.12-3.49,5.21,5.21,0,0,1,1.36-3.81,5,5,0,0,1,3.73-1.4,5.37,5.37,0,0,1,2.91.78,5,5,0,0,1,1.91,2.26A8.49,8.49,0,0,1,489.45,203ZM484,199a1.9,1.9,0,0,0-1.54.68,3.06,3.06,0,0,0-.55,2,2.73,2.73,0,0,0,.5,1.72A1.83,1.83,0,0,0,484,204a2.36,2.36,0,0,0,1.65-.63,1.93,1.93,0,0,0,.69-1.45,3.32,3.32,0,0,0-.64-2.07A2,2,0,0,0,484,199Z" transform="translate(-0.41 -3.16)" fill="#fff"/><path d="M501.22,203c0,3-.62,5.16-1.86,6.62a7.05,7.05,0,0,1-5.65,2.18,11.18,11.18,0,0,1-2-.14V209.1a7,7,0,0,0,1.8.22,6.4,6.4,0,0,0,2.62-.47,3.37,3.37,0,0,0,1.57-1.46,6.47,6.47,0,0,0,.62-2.76h-.12A3.51,3.51,0,0,1,496.8,206a4.27,4.27,0,0,1-1.94.39,3.93,3.93,0,0,1-3.09-1.26,5.05,5.05,0,0,1-1.13-3.49,5.22,5.22,0,0,1,1.37-3.81,5,5,0,0,1,3.73-1.4,5.39,5.39,0,0,1,2.91.78,5,5,0,0,1,1.91,2.26A8.65,8.65,0,0,1,501.22,203Zm-5.42-4a1.88,1.88,0,0,0-1.54.68,3,3,0,0,0-.55,2,2.73,2.73,0,0,0,.5,1.72,1.82,1.82,0,0,0,1.53.64,2.36,2.36,0,0,0,1.65-.63,1.93,1.93,0,0,0,.69-1.45,3.38,3.38,0,0,0-.64-2.07A2,2,0,0,0,495.8,199Z" transform="translate(-0.41 -3.16)" fill="#fff"/><path d="M330,177.59l-1-2.5H325.9l-1,2.5H324l3.11-7.89h.76l3.09,7.89Zm-1.26-3.32-.92-2.44a10.22,10.22,0,0,1-.36-1.13,9.88,9.88,0,0,1-.34,1.13l-.93,2.44Z" transform="translate(-0.41 -3.16)" fill="#231f20"/><path d="M334.66,177.69a2.52,2.52,0,0,1-1.05-.21,1.94,1.94,0,0,1-.8-.65h-.06a8.44,8.44,0,0,1,.06,1v2.42h-.89V171.7h.72l.13.8h0a2.07,2.07,0,0,1,.8-.69,2.32,2.32,0,0,1,1.05-.22,2.17,2.17,0,0,1,1.8.8,3.5,3.5,0,0,1,.64,2.25,3.45,3.45,0,0,1-.65,2.25A2.16,2.16,0,0,1,334.66,177.69Zm-.13-5.34a1.6,1.6,0,0,0-1.31.5,2.57,2.57,0,0,0-.41,1.59v.2a3,3,0,0,0,.41,1.77,1.58,1.58,0,0,0,1.33.54,1.39,1.39,0,0,0,1.2-.62,3,3,0,0,0,.43-1.7,2.86,2.86,0,0,0-.43-1.69A1.42,1.42,0,0,0,334.53,172.35Z" transform="translate(-0.41 -3.16)" fill="#231f20"/><path d="M341.4,177.69a2.52,2.52,0,0,1-1-.21,2,2,0,0,1-.8-.65h-.06a8.44,8.44,0,0,1,.06,1v2.42h-.89V171.7h.72l.13.8h0a2.07,2.07,0,0,1,.8-.69,2.32,2.32,0,0,1,1-.22,2.2,2.2,0,0,1,1.81.8,3.56,3.56,0,0,1,.63,2.25,3.45,3.45,0,0,1-.65,2.25A2.16,2.16,0,0,1,341.4,177.69Zm-.13-5.34a1.6,1.6,0,0,0-1.31.5,2.64,2.64,0,0,0-.41,1.59v.2a3,3,0,0,0,.41,1.77,1.58,1.58,0,0,0,1.33.54,1.39,1.39,0,0,0,1.2-.62,3,3,0,0,0,.43-1.7,2.86,2.86,0,0,0-.43-1.69A1.42,1.42,0,0,0,341.27,172.35Z" transform="translate(-0.41 -3.16)" fill="#231f20"/><path d="M346.29,177.59h-.89v-8.36h.89Z" transform="translate(-0.41 -3.16)" fill="#231f20"/><path d="M348.11,170.1a.57.57,0,0,1,.15-.44.53.53,0,0,1,.74,0,.54.54,0,0,1,.16.44.58.58,0,0,1-.16.45.53.53,0,0,1-.74,0A.61.61,0,0,1,348.11,170.1Zm1,7.49h-.89V171.7h.89Z" transform="translate(-0.41 -3.16)" fill="#231f20"/><path d="M353.45,177.69a2.7,2.7,0,0,1-2.06-.79,3.1,3.1,0,0,1-.75-2.21,3.4,3.4,0,0,1,.7-2.26,2.31,2.31,0,0,1,1.88-.84,2.2,2.2,0,0,1,1.75.73,2.79,2.79,0,0,1,.65,1.92v.56h-4.06a2.35,2.35,0,0,0,.52,1.58,1.82,1.82,0,0,0,1.4.54,4.81,4.81,0,0,0,1.88-.4v.79a3.84,3.84,0,0,1-.89.29A5,5,0,0,1,353.45,177.69Zm-.24-5.35a1.45,1.45,0,0,0-1.13.46,2.13,2.13,0,0,0-.5,1.28h3.08a2,2,0,0,0-.38-1.29A1.32,1.32,0,0,0,353.21,172.34Z" transform="translate(-0.41 -3.16)" fill="#231f20"/><path d="M361.14,176.8h-.05a2.09,2.09,0,0,1-1.84.89,2.18,2.18,0,0,1-1.8-.79,3.44,3.44,0,0,1-.64-2.24,3.52,3.52,0,0,1,.64-2.26,2.17,2.17,0,0,1,1.8-.81,2.13,2.13,0,0,1,1.83.87h.07l0-.42,0-.42v-2.39h.9v8.36h-.73Zm-1.78.15a1.61,1.61,0,0,0,1.32-.5,2.48,2.48,0,0,0,.41-1.6v-.19a3,3,0,0,0-.41-1.79,1.6,1.6,0,0,0-1.33-.53,1.36,1.36,0,0,0-1.2.61,3,3,0,0,0-.42,1.72,2.86,2.86,0,0,0,.42,1.7A1.38,1.38,0,0,0,359.36,177Z" transform="translate(-0.41 -3.16)" fill="#231f20"/><path d="M368.63,177a2.32,2.32,0,0,0,.46,0,1.94,1.94,0,0,0,.35-.07v.68a1.51,1.51,0,0,1-.43.12,3,3,0,0,1-.5,0q-1.71,0-1.71-1.8v-3.5H366V172l.85-.37.37-1.26h.52v1.37h1.71v.69h-1.71v3.47a1.17,1.17,0,0,0,.25.81A.88.88,0,0,0,368.63,177Z" transform="translate(-0.41 -3.16)" fill="#231f20"/><path d="M375.7,174.64a3.18,3.18,0,0,1-.73,2.24,2.54,2.54,0,0,1-2,.81,2.62,2.62,0,0,1-1.4-.37,2.4,2.4,0,0,1-.95-1.06,3.72,3.72,0,0,1-.33-1.62,3.27,3.27,0,0,1,.72-2.25,2.55,2.55,0,0,1,2-.8,2.52,2.52,0,0,1,2,.82A3.22,3.22,0,0,1,375.7,174.64Zm-4.49,0a2.82,2.82,0,0,0,.45,1.72,1.79,1.79,0,0,0,2.66,0,2.8,2.8,0,0,0,.45-1.72,2.77,2.77,0,0,0-.45-1.71,1.83,1.83,0,0,0-2.66,0A2.78,2.78,0,0,0,371.21,174.64Z" transform="translate(-0.41 -3.16)" fill="#231f20"/><path d="M383.74,177.59l-.18-.84h0a2.53,2.53,0,0,1-.88.75,2.7,2.7,0,0,1-1.09.19,2,2,0,0,1-1.38-.45,1.64,1.64,0,0,1-.49-1.28c0-1.19.95-1.81,2.85-1.87l1,0v-.37a1.48,1.48,0,0,0-.3-1,1.23,1.23,0,0,0-1-.33,3.92,3.92,0,0,0-1.67.45l-.27-.68a4.36,4.36,0,0,1,2-.51,2.26,2.26,0,0,1,1.56.47,1.94,1.94,0,0,1,.51,1.5v4Zm-2-.63a1.79,1.79,0,0,0,1.31-.46,1.67,1.67,0,0,0,.48-1.28v-.53l-.89,0a3.17,3.17,0,0,0-1.54.33,1,1,0,0,0-.47.91.92.92,0,0,0,.3.74A1.22,1.22,0,0,0,381.72,177Z" transform="translate(-0.41 -3.16)" fill="#231f20"/><path d="M391.75,172.39h-1.5v5.2h-.89v-5.2H388.3V172l1.06-.32v-.33c0-1.45.63-2.17,1.89-2.17a3.79,3.79,0,0,1,1.1.19l-.23.71a3,3,0,0,0-.88-.16.87.87,0,0,0-.75.33,1.87,1.87,0,0,0-.24,1.08v.38h1.5Z" transform="translate(-0.41 -3.16)" fill="#231f20"/><path d="M397.9,174.64a3.23,3.23,0,0,1-.72,2.24,2.56,2.56,0,0,1-2,.81,2.64,2.64,0,0,1-1.4-.37,2.38,2.38,0,0,1-.94-1.06,3.58,3.58,0,0,1-.34-1.62,3.27,3.27,0,0,1,.72-2.25,2.57,2.57,0,0,1,2-.8,2.49,2.49,0,0,1,2,.82A3.22,3.22,0,0,1,397.9,174.64Zm-4.48,0a2.82,2.82,0,0,0,.45,1.72,1.78,1.78,0,0,0,2.65,0,2.73,2.73,0,0,0,.46-1.72,2.7,2.7,0,0,0-.46-1.71,1.83,1.83,0,0,0-2.66,0A2.85,2.85,0,0,0,393.42,174.64Z" transform="translate(-0.41 -3.16)" fill="#231f20"/><path d="M400.3,171.7v3.82a1.51,1.51,0,0,0,.33,1.07,1.33,1.33,0,0,0,1,.36,1.68,1.68,0,0,0,1.35-.51,2.56,2.56,0,0,0,.42-1.65V171.7h.9v5.89h-.74l-.13-.79h0a1.69,1.69,0,0,1-.76.66,2.45,2.45,0,0,1-1.11.23,2.27,2.27,0,0,1-1.61-.51,2.19,2.19,0,0,1-.53-1.63V171.7Z" transform="translate(-0.41 -3.16)" fill="#231f20"/><path d="M408.9,171.59a3,3,0,0,1,.7.07l-.12.82a3.28,3.28,0,0,0-.64-.08,1.57,1.57,0,0,0-1.22.58,2.12,2.12,0,0,0-.51,1.45v3.16h-.89V171.7H407l.1,1.09h.05a2.65,2.65,0,0,1,.79-.89A1.8,1.8,0,0,1,408.9,171.59Z" transform="translate(-0.41 -3.16)" fill="#231f20"/><path d="M410.21,175.05v-.82h2.64v.82Z" transform="translate(-0.41 -3.16)" fill="#231f20"/><path d="M413.31,171.7h1l1.29,3.36a13,13,0,0,1,.52,1.66h.05a9.84,9.84,0,0,1,.29-.94c.15-.44.63-1.8,1.46-4.08h.95l-2.53,6.7a3.2,3.2,0,0,1-.88,1.41,1.84,1.84,0,0,1-1.23.42,3.57,3.57,0,0,1-.8-.09v-.72a2.62,2.62,0,0,0,.66.07,1.37,1.37,0,0,0,1.31-1l.33-.84Z" transform="translate(-0.41 -3.16)" fill="#231f20"/><path d="M422.28,177.69a2.7,2.7,0,0,1-2.06-.79,3.06,3.06,0,0,1-.76-2.21,3.45,3.45,0,0,1,.7-2.26,2.33,2.33,0,0,1,1.88-.84,2.22,2.22,0,0,1,1.76.73,2.78,2.78,0,0,1,.64,1.92v.56h-4.06a2.36,2.36,0,0,0,.53,1.58,1.81,1.81,0,0,0,1.4.54,4.85,4.85,0,0,0,1.88-.4v.79a3.9,3.9,0,0,1-.9.29A4.91,4.91,0,0,1,422.28,177.69Zm-.25-5.35a1.45,1.45,0,0,0-1.13.46,2.13,2.13,0,0,0-.49,1.28h3.07a2,2,0,0,0-.37-1.29A1.33,1.33,0,0,0,422,172.34Z" transform="translate(-0.41 -3.16)" fill="#231f20"/><path d="M429.58,177.59l-.18-.84h0a2.45,2.45,0,0,1-.88.75,2.66,2.66,0,0,1-1.09.19,2,2,0,0,1-1.37-.45,1.65,1.65,0,0,1-.5-1.28c0-1.19,1-1.81,2.85-1.87l1,0v-.37a1.48,1.48,0,0,0-.3-1,1.22,1.22,0,0,0-.95-.33,3.92,3.92,0,0,0-1.67.45l-.27-.68a4.36,4.36,0,0,1,2-.51,2.24,2.24,0,0,1,1.56.47,1.94,1.94,0,0,1,.51,1.5v4Zm-2-.63a1.77,1.77,0,0,0,1.3-.46,1.67,1.67,0,0,0,.48-1.28v-.53l-.89,0a3.17,3.17,0,0,0-1.54.33,1,1,0,0,0-.47.91.92.92,0,0,0,.3.74A1.24,1.24,0,0,0,427.57,177Z" transform="translate(-0.41 -3.16)" fill="#231f20"/><path d="M434.76,171.59a3,3,0,0,1,.71.07l-.13.82a3.19,3.19,0,0,0-.64-.08,1.58,1.58,0,0,0-1.22.58,2.12,2.12,0,0,0-.51,1.45v3.16h-.89V171.7h.73l.11,1.09h0a2.65,2.65,0,0,1,.79-.89A1.82,1.82,0,0,1,434.76,171.59Z" transform="translate(-0.41 -3.16)" fill="#231f20"/><path d="M441.78,177.69a2.53,2.53,0,0,1-2-.78,3.24,3.24,0,0,1-.7-2.23,3.3,3.3,0,0,1,.71-2.28,2.55,2.55,0,0,1,2-.81,4.17,4.17,0,0,1,.85.09,2.81,2.81,0,0,1,.66.22l-.27.76a3.82,3.82,0,0,0-.65-.2,2.92,2.92,0,0,0-.61-.08c-1.2,0-1.8.76-1.8,2.29a2.71,2.71,0,0,0,.44,1.66,1.52,1.52,0,0,0,1.3.59,4,4,0,0,0,1.51-.32v.79A3.29,3.29,0,0,1,441.78,177.69Z" transform="translate(-0.41 -3.16)" fill="#231f20"/><path d="M449.74,174.64a3.23,3.23,0,0,1-.72,2.24,2.54,2.54,0,0,1-2,.81,2.65,2.65,0,0,1-1.41-.37,2.44,2.44,0,0,1-.94-1.06,3.72,3.72,0,0,1-.34-1.62,3.27,3.27,0,0,1,.73-2.25,2.82,2.82,0,0,1,4,0A3.27,3.27,0,0,1,449.74,174.64Zm-4.48,0a2.82,2.82,0,0,0,.45,1.72A1.57,1.57,0,0,0,447,177a1.6,1.6,0,0,0,1.33-.59,2.8,2.8,0,0,0,.45-1.72,2.77,2.77,0,0,0-.45-1.71,1.6,1.6,0,0,0-1.34-.58,1.56,1.56,0,0,0-1.32.57A2.78,2.78,0,0,0,445.26,174.64Z" transform="translate(-0.41 -3.16)" fill="#231f20"/><path d="M452.2,177.59h-.89v-8.36h.89Z" transform="translate(-0.41 -3.16)" fill="#231f20"/><path d="M455,177.59h-.89v-8.36H455Z" transform="translate(-0.41 -3.16)" fill="#231f20"/><path d="M459.36,177.69a2.7,2.7,0,0,1-2.06-.79,3.06,3.06,0,0,1-.76-2.21,3.45,3.45,0,0,1,.7-2.26,2.34,2.34,0,0,1,1.89-.84,2.22,2.22,0,0,1,1.75.73,2.78,2.78,0,0,1,.64,1.92v.56h-4a2.35,2.35,0,0,0,.52,1.58,1.81,1.81,0,0,0,1.4.54,4.85,4.85,0,0,0,1.88-.4v.79a3.84,3.84,0,0,1-.89.29A5,5,0,0,1,459.36,177.69Zm-.24-5.35a1.43,1.43,0,0,0-1.13.46,2.07,2.07,0,0,0-.5,1.28h3.08a2,2,0,0,0-.38-1.29A1.32,1.32,0,0,0,459.12,172.34Z" transform="translate(-0.41 -3.16)" fill="#231f20"/><path d="M467.86,171.7v.56l-1.09.13a2,2,0,0,1,.27.49,1.88,1.88,0,0,1,.12.69,1.74,1.74,0,0,1-.59,1.38,2.43,2.43,0,0,1-1.63.51,2.56,2.56,0,0,1-.49,0,.89.89,0,0,0-.57.76.4.4,0,0,0,.2.36,1.55,1.55,0,0,0,.68.11h1a2.38,2.38,0,0,1,1.47.4,1.41,1.41,0,0,1,.51,1.18,1.68,1.68,0,0,1-.78,1.49,4.22,4.22,0,0,1-2.29.51,3.1,3.1,0,0,1-1.78-.43,1.38,1.38,0,0,1-.62-1.22,1.34,1.34,0,0,1,.34-.92,1.75,1.75,0,0,1,1-.54.89.89,0,0,1-.54-.81.94.94,0,0,1,.18-.57,1.7,1.7,0,0,1,.54-.46,1.63,1.63,0,0,1-.74-.64,1.82,1.82,0,0,1-.29-1,1.87,1.87,0,0,1,.58-1.49,2.36,2.36,0,0,1,1.64-.53,3,3,0,0,1,.83.11Zm-4.69,6.87a.81.81,0,0,0,.4.73,2.26,2.26,0,0,0,1.15.25,3.28,3.28,0,0,0,1.67-.34,1,1,0,0,0,.53-.91.7.7,0,0,0-.29-.66,2.22,2.22,0,0,0-1.11-.19h-1.07a1.44,1.44,0,0,0-.95.29A1.06,1.06,0,0,0,463.17,178.57Zm.48-5a1.21,1.21,0,0,0,.35.94,1.38,1.38,0,0,0,1,.32,1.14,1.14,0,0,0,1.31-1.27,1.18,1.18,0,0,0-1.33-1.33,1.28,1.28,0,0,0-1,.34A1.35,1.35,0,0,0,463.65,173.58Z" transform="translate(-0.41 -3.16)" fill="#231f20"/><path d="M471.56,177.69a2.7,2.7,0,0,1-2.06-.79,3.06,3.06,0,0,1-.76-2.21,3.45,3.45,0,0,1,.7-2.26,2.34,2.34,0,0,1,1.89-.84,2.22,2.22,0,0,1,1.75.73,2.78,2.78,0,0,1,.64,1.92v.56h-4.05a2.3,2.3,0,0,0,.52,1.58,1.81,1.81,0,0,0,1.4.54,4.85,4.85,0,0,0,1.88-.4v.79a3.9,3.9,0,0,1-.9.29A4.91,4.91,0,0,1,471.56,177.69Zm-.25-5.35a1.45,1.45,0,0,0-1.13.46,2.13,2.13,0,0,0-.49,1.28h3.07a2,2,0,0,0-.37-1.29A1.33,1.33,0,0,0,471.31,172.34Z" transform="translate(-0.41 -3.16)" fill="#231f20"/><line x1="427.87" y1="84.02" x2="527.6" y2="84.02" fill="none" stroke="#231f20" stroke-miterlimit="10" stroke-width="0.5"/><rect x="322.53" y="68.62" width="95.67" height="32.8" fill="#00aeef"/><path d="M384.73,96.59H374.25V94.38l3.77-3.8c1.11-1.14,1.84-1.94,2.18-2.38a5.37,5.37,0,0,0,.74-1.22,3.15,3.15,0,0,0,.22-1.17,1.69,1.69,0,0,0-.49-1.34,1.93,1.93,0,0,0-1.33-.44,3.87,3.87,0,0,0-1.69.39,9.11,9.11,0,0,0-1.72,1.14l-1.72-2a11,11,0,0,1,1.84-1.33,6.55,6.55,0,0,1,1.59-.6,8.06,8.06,0,0,1,1.92-.21,5.77,5.77,0,0,1,2.49.51,4,4,0,0,1,1.67,1.44,3.85,3.85,0,0,1,.59,2.11,5.19,5.19,0,0,1-.36,1.94,7.47,7.47,0,0,1-1.13,1.86A27,27,0,0,1,380.13,92l-1.93,1.82v.14h6.53Z" transform="translate(-0.41 -3.16)" fill="#fff"/><path d="M387.52,96.59l5.63-12.31h-7.4V81.62h10.76v2l-5.67,13Z" transform="translate(-0.41 -3.16)" fill="#fff"/><path d="M408.2,89.09q0,3.93-1.28,5.81a4.47,4.47,0,0,1-4,1.89,4.41,4.41,0,0,1-3.91-2,10.27,10.27,0,0,1-1.32-5.75q0-4,1.29-5.85a5,5,0,0,1,7.87.09A10.35,10.35,0,0,1,408.2,89.09Zm-7.33,0a11.54,11.54,0,0,0,.48,4,1.65,1.65,0,0,0,1.6,1.2,1.67,1.67,0,0,0,1.6-1.21,11.28,11.28,0,0,0,.5-3.94,11.29,11.29,0,0,0-.5-4,1.66,1.66,0,0,0-3.2,0A11.65,11.65,0,0,0,400.87,89.09Z" transform="translate(-0.41 -3.16)" fill="#fff"/><path d="M331.36,57.58a4,4,0,0,1-1.06,3,4.18,4.18,0,0,1-3,1h-2.18V53.73h2.41a3.54,3.54,0,0,1,3.86,3.85Zm-1,0a3.14,3.14,0,0,0-.77-2.32,3.08,3.08,0,0,0-2.29-.78H326V60.8h1.12a3.37,3.37,0,0,0,2.45-.81A3.14,3.14,0,0,0,330.39,57.62Z" transform="translate(-0.41 -3.16)" fill="#231f20"/><path d="M332.9,54.1a.57.57,0,0,1,.15-.44.52.52,0,0,1,.38-.15.53.53,0,0,1,.37.15.57.57,0,0,1,.15.44.61.61,0,0,1-.15.45.53.53,0,0,1-.37.15.52.52,0,0,1-.38-.15A.61.61,0,0,1,332.9,54.1Zm1,7.49H333V55.7h.89Z" transform="translate(-0.41 -3.16)" fill="#231f20"/><path d="M339.77,60.8h0a2.11,2.11,0,0,1-1.85.89,2.18,2.18,0,0,1-1.8-.79,3.44,3.44,0,0,1-.64-2.24,3.52,3.52,0,0,1,.65-2.26,2.38,2.38,0,0,1,3.63.06h.07l0-.42,0-.42V53.23h.89v8.36h-.73ZM338,61a1.65,1.65,0,0,0,1.33-.5,2.54,2.54,0,0,0,.41-1.6v-.19a2.94,2.94,0,0,0-.42-1.79,1.6,1.6,0,0,0-1.33-.53,1.36,1.36,0,0,0-1.2.61,3,3,0,0,0-.42,1.72,2.86,2.86,0,0,0,.42,1.7A1.38,1.38,0,0,0,338,61Z" transform="translate(-0.41 -3.16)" fill="#231f20"/><path d="M346.53,61.59V57.78a1.55,1.55,0,0,0-.33-1.08,1.36,1.36,0,0,0-1-.35,1.71,1.71,0,0,0-1.35.5,2.49,2.49,0,0,0-.43,1.65v3.09h-.89V55.7h.72l.15.8h0a1.8,1.8,0,0,1,.77-.67,2.5,2.5,0,0,1,1.1-.24,2.24,2.24,0,0,1,1.6.51,2.2,2.2,0,0,1,.54,1.65v3.84Z" transform="translate(-0.41 -3.16)" fill="#231f20"/><path d="M350,53.73l.09.12c-.1.36-.23.78-.41,1.25s-.36.92-.55,1.32h-.65c.25-1,.43-1.91.55-2.69Z" transform="translate(-0.41 -3.16)" fill="#231f20"/><path d="M353,61a2.32,2.32,0,0,0,.46,0,2.15,2.15,0,0,0,.35-.07v.68a1.51,1.51,0,0,1-.43.12,3.25,3.25,0,0,1-.51,0q-1.71,0-1.71-1.8v-3.5h-.84V56l.84-.37.38-1.26h.52V55.7h1.7v.69h-1.7v3.47a1.17,1.17,0,0,0,.25.81A.88.88,0,0,0,353,61Z" transform="translate(-0.41 -3.16)" fill="#231f20"/><path d="M361.48,61.59l-.18-.84h0a2.45,2.45,0,0,1-.88.75,2.66,2.66,0,0,1-1.09.19,2,2,0,0,1-1.37-.45,1.65,1.65,0,0,1-.5-1.28c0-1.19.95-1.81,2.85-1.87l1,0v-.37a1.48,1.48,0,0,0-.3-1,1.22,1.22,0,0,0-1-.33,3.92,3.92,0,0,0-1.67.45l-.27-.68a4.36,4.36,0,0,1,2-.51,2.26,2.26,0,0,1,1.56.47,1.94,1.94,0,0,1,.51,1.5v4Zm-2-.63a1.77,1.77,0,0,0,1.3-.46,1.67,1.67,0,0,0,.48-1.28v-.53l-.89,0a3.17,3.17,0,0,0-1.54.33,1,1,0,0,0-.47.91.92.92,0,0,0,.3.74A1.25,1.25,0,0,0,359.47,61Z" transform="translate(-0.41 -3.16)" fill="#231f20"/><path d="M366.72,61.69a2.52,2.52,0,0,1-1.05-.21,1.94,1.94,0,0,1-.8-.65h-.06a8.44,8.44,0,0,1,.06,1v2.42H364V55.7h.72l.13.8h0a2.07,2.07,0,0,1,.8-.69,2.32,2.32,0,0,1,1.05-.22,2.17,2.17,0,0,1,1.8.8,3.5,3.5,0,0,1,.64,2.25,3.47,3.47,0,0,1-.65,2.25A2.16,2.16,0,0,1,366.72,61.69Zm-.13-5.34a1.6,1.6,0,0,0-1.31.5,2.57,2.57,0,0,0-.41,1.59v.2a3,3,0,0,0,.41,1.77,1.58,1.58,0,0,0,1.33.54,1.39,1.39,0,0,0,1.2-.62,3,3,0,0,0,.43-1.7,2.86,2.86,0,0,0-.43-1.69A1.42,1.42,0,0,0,366.59,56.35Z" transform="translate(-0.41 -3.16)" fill="#231f20"/><path d="M373.46,61.69a2.56,2.56,0,0,1-1-.21,2,2,0,0,1-.8-.65h-.06a8.44,8.44,0,0,1,.06,1v2.42h-.89V55.7h.72l.13.8h0a2.07,2.07,0,0,1,.8-.69,2.32,2.32,0,0,1,1-.22,2.2,2.2,0,0,1,1.81.8,3.56,3.56,0,0,1,.63,2.25,3.47,3.47,0,0,1-.65,2.25A2.16,2.16,0,0,1,373.46,61.69Zm-.13-5.34a1.6,1.6,0,0,0-1.31.5,2.64,2.64,0,0,0-.41,1.59v.2a3,3,0,0,0,.41,1.77,1.58,1.58,0,0,0,1.33.54,1.39,1.39,0,0,0,1.2-.62,3,3,0,0,0,.43-1.7,2.86,2.86,0,0,0-.43-1.69A1.42,1.42,0,0,0,373.33,56.35Z" transform="translate(-0.41 -3.16)" fill="#231f20"/><path d="M378.35,61.59h-.89V53.23h.89Z" transform="translate(-0.41 -3.16)" fill="#231f20"/><path d="M379.31,55.7h.95l1.29,3.36a13.45,13.45,0,0,1,.53,1.66h0c.05-.19.15-.5.29-.94s.64-1.8,1.46-4.08h1l-2.53,6.7a3.42,3.42,0,0,1-.88,1.41,1.87,1.87,0,0,1-1.23.42,3.72,3.72,0,0,1-.81-.09v-.72a2.73,2.73,0,0,0,.66.07,1.36,1.36,0,0,0,1.31-1l.33-.84Z" transform="translate(-0.41 -3.16)" fill="#231f20"/><path d="M390.54,61a2.32,2.32,0,0,0,.46,0,1.94,1.94,0,0,0,.35-.07v.68a1.51,1.51,0,0,1-.43.12,3.25,3.25,0,0,1-.51,0c-1.13,0-1.7-.6-1.7-1.8v-3.5h-.85V56l.85-.37.37-1.26h.52V55.7h1.71v.69H389.6v3.47a1.17,1.17,0,0,0,.25.81A.88.88,0,0,0,390.54,61Z" transform="translate(-0.41 -3.16)" fill="#231f20"/><path d="M397.61,58.64a3.18,3.18,0,0,1-.73,2.24,2.54,2.54,0,0,1-2,.81,2.59,2.59,0,0,1-1.4-.37,2.4,2.4,0,0,1-1-1.06,3.72,3.72,0,0,1-.33-1.62,3.27,3.27,0,0,1,.72-2.25,2.55,2.55,0,0,1,2-.8,2.52,2.52,0,0,1,2,.82A3.27,3.27,0,0,1,397.61,58.64Zm-4.49,0a2.82,2.82,0,0,0,.45,1.72,1.79,1.79,0,0,0,2.66,0,2.8,2.8,0,0,0,.45-1.72,2.77,2.77,0,0,0-.45-1.71,1.59,1.59,0,0,0-1.34-.58,1.56,1.56,0,0,0-1.32.57A2.78,2.78,0,0,0,393.12,58.64Z" transform="translate(-0.41 -3.16)" fill="#231f20"/><path d="M405.65,61.59l-.18-.84h0a2.53,2.53,0,0,1-.88.75,2.7,2.7,0,0,1-1.09.19,2,2,0,0,1-1.38-.45,1.64,1.64,0,0,1-.49-1.28c0-1.19,1-1.81,2.85-1.87l1,0v-.37a1.48,1.48,0,0,0-.3-1,1.23,1.23,0,0,0-.95-.33,3.92,3.92,0,0,0-1.67.45l-.27-.68a4,4,0,0,1,.95-.37,4.13,4.13,0,0,1,1-.14,2.26,2.26,0,0,1,1.56.47,1.94,1.94,0,0,1,.51,1.5v4Zm-2-.63a1.79,1.79,0,0,0,1.31-.46,1.67,1.67,0,0,0,.48-1.28v-.53l-.9,0a3.13,3.13,0,0,0-1.53.33,1,1,0,0,0-.47.91,1,1,0,0,0,.29.74A1.27,1.27,0,0,0,403.63,61Z" transform="translate(-0.41 -3.16)" fill="#231f20"/><path d="M413.66,56.39h-1.5v5.2h-.89v-5.2h-1.06V56l1.06-.32v-.33c0-1.45.63-2.17,1.89-2.17a3.79,3.79,0,0,1,1.1.19l-.23.71a3,3,0,0,0-.89-.16.86.86,0,0,0-.74.33,1.87,1.87,0,0,0-.24,1.08v.38h1.5Z" transform="translate(-0.41 -3.16)" fill="#231f20"/><path d="M419.81,58.64a3.18,3.18,0,0,1-.73,2.24,2.54,2.54,0,0,1-2,.81,2.64,2.64,0,0,1-1.4-.37,2.38,2.38,0,0,1-.94-1.06,3.58,3.58,0,0,1-.34-1.62,3.27,3.27,0,0,1,.72-2.25,2.57,2.57,0,0,1,2-.8,2.51,2.51,0,0,1,2,.82A3.22,3.22,0,0,1,419.81,58.64Zm-4.48,0a2.82,2.82,0,0,0,.45,1.72,1.78,1.78,0,0,0,2.65,0,2.73,2.73,0,0,0,.46-1.72,2.7,2.7,0,0,0-.46-1.71,1.83,1.83,0,0,0-2.66,0A2.78,2.78,0,0,0,415.33,58.64Z" transform="translate(-0.41 -3.16)" fill="#231f20"/><path d="M422.21,55.7v3.82a1.51,1.51,0,0,0,.33,1.07,1.33,1.33,0,0,0,1,.36,1.68,1.68,0,0,0,1.35-.51,2.56,2.56,0,0,0,.42-1.65V55.7h.9v5.89h-.74l-.13-.79h-.05a1.69,1.69,0,0,1-.76.66,2.45,2.45,0,0,1-1.11.23,2.27,2.27,0,0,1-1.61-.51,2.19,2.19,0,0,1-.53-1.63V55.7Z" transform="translate(-0.41 -3.16)" fill="#231f20"/><path d="M430.81,55.59a3,3,0,0,1,.7.07l-.12.82a3.28,3.28,0,0,0-.64-.08,1.6,1.6,0,0,0-1.23.58,2.16,2.16,0,0,0-.5,1.45v3.16h-.89V55.7h.73l.1,1.09H429a2.63,2.63,0,0,1,.78-.89A1.85,1.85,0,0,1,430.81,55.59Z" transform="translate(-0.41 -3.16)" fill="#231f20"/><path d="M432.12,59.05v-.82h2.64v.82Z" transform="translate(-0.41 -3.16)" fill="#231f20"/><path d="M435.22,55.7h1l1.29,3.36a13,13,0,0,1,.52,1.66H438a9.84,9.84,0,0,1,.29-.94c.15-.44.63-1.8,1.46-4.08h.95l-2.53,6.7a3.32,3.32,0,0,1-.88,1.41,1.84,1.84,0,0,1-1.23.42,3.57,3.57,0,0,1-.8-.09v-.72a2.62,2.62,0,0,0,.66.07,1.37,1.37,0,0,0,1.31-1l.32-.84Z" transform="translate(-0.41 -3.16)" fill="#231f20"/><path d="M444.18,61.69a2.69,2.69,0,0,1-2.05-.79,3.06,3.06,0,0,1-.76-2.21,3.4,3.4,0,0,1,.7-2.26,2.33,2.33,0,0,1,1.88-.84,2.22,2.22,0,0,1,1.76.73,2.82,2.82,0,0,1,.64,1.92v.56h-4.06a2.38,2.38,0,0,0,.53,1.58,1.8,1.8,0,0,0,1.4.53,4.84,4.84,0,0,0,1.88-.39v.79a4.06,4.06,0,0,1-.9.29A5,5,0,0,1,444.18,61.69Zm-.24-5.35a1.45,1.45,0,0,0-1.13.46,2.13,2.13,0,0,0-.49,1.28h3.07a2,2,0,0,0-.37-1.29A1.33,1.33,0,0,0,443.94,56.34Z" transform="translate(-0.41 -3.16)" fill="#231f20"/><path d="M451.49,61.59l-.18-.84h0a2.45,2.45,0,0,1-.88.75,2.7,2.7,0,0,1-1.09.19,2,2,0,0,1-1.37-.45,1.62,1.62,0,0,1-.5-1.28c0-1.19.95-1.81,2.85-1.87l1,0v-.37a1.48,1.48,0,0,0-.3-1,1.23,1.23,0,0,0-1-.33,3.92,3.92,0,0,0-1.67.45l-.27-.68a4.36,4.36,0,0,1,2-.51,2.26,2.26,0,0,1,1.56.47,1.94,1.94,0,0,1,.51,1.5v4Zm-2-.63a1.77,1.77,0,0,0,1.31-.46,1.67,1.67,0,0,0,.48-1.28v-.53l-.89,0a3.17,3.17,0,0,0-1.54.33,1,1,0,0,0-.47.91.92.92,0,0,0,.3.74A1.22,1.22,0,0,0,449.47,61Z" transform="translate(-0.41 -3.16)" fill="#231f20"/><path d="M456.67,55.59a3.11,3.11,0,0,1,.71.07l-.13.82a3.28,3.28,0,0,0-.64-.08,1.57,1.57,0,0,0-1.22.58,2.12,2.12,0,0,0-.51,1.45v3.16H454V55.7h.73l.11,1.09h0a2.65,2.65,0,0,1,.79-.89A1.82,1.82,0,0,1,456.67,55.59Z" transform="translate(-0.41 -3.16)" fill="#231f20"/><path d="M463.69,61.69a2.52,2.52,0,0,1-2-.78,3.24,3.24,0,0,1-.7-2.23,3.3,3.3,0,0,1,.71-2.28,2.55,2.55,0,0,1,2-.81,4,4,0,0,1,.84.09,2.75,2.75,0,0,1,.67.22l-.27.76a3.82,3.82,0,0,0-.65-.2,3,3,0,0,0-.61-.08c-1.2,0-1.8.76-1.8,2.29a2.71,2.71,0,0,0,.44,1.66,1.51,1.51,0,0,0,1.3.58,3.91,3.91,0,0,0,1.5-.31v.79A3.22,3.22,0,0,1,463.69,61.69Z" transform="translate(-0.41 -3.16)" fill="#231f20"/><path d="M471.65,58.64a3.23,3.23,0,0,1-.72,2.24,2.56,2.56,0,0,1-2,.81,2.64,2.64,0,0,1-1.4-.37,2.38,2.38,0,0,1-.94-1.06,3.58,3.58,0,0,1-.34-1.62,3.27,3.27,0,0,1,.72-2.25,2.57,2.57,0,0,1,2-.8,2.49,2.49,0,0,1,2,.82A3.22,3.22,0,0,1,471.65,58.64Zm-4.48,0a2.82,2.82,0,0,0,.45,1.72,1.78,1.78,0,0,0,2.65,0,2.73,2.73,0,0,0,.46-1.72,2.7,2.7,0,0,0-.46-1.71,1.83,1.83,0,0,0-2.66,0A2.85,2.85,0,0,0,467.17,58.64Z" transform="translate(-0.41 -3.16)" fill="#231f20"/><path d="M474.11,61.59h-.89V53.23h.89Z" transform="translate(-0.41 -3.16)" fill="#231f20"/><path d="M476.89,61.59H476V53.23h.89Z" transform="translate(-0.41 -3.16)" fill="#231f20"/><path d="M481.27,61.69a2.7,2.7,0,0,1-2.06-.79,3.06,3.06,0,0,1-.76-2.21,3.45,3.45,0,0,1,.7-2.26,2.34,2.34,0,0,1,1.89-.84,2.22,2.22,0,0,1,1.75.73,2.77,2.77,0,0,1,.64,1.92v.56h-4.05a2.32,2.32,0,0,0,.52,1.58,1.8,1.8,0,0,0,1.4.53,4.84,4.84,0,0,0,1.88-.39v.79a4,4,0,0,1-.89.29A5,5,0,0,1,481.27,61.69ZM481,56.34a1.47,1.47,0,0,0-1.14.46,2.13,2.13,0,0,0-.49,1.28h3.08a2,2,0,0,0-.38-1.29A1.32,1.32,0,0,0,481,56.34Z" transform="translate(-0.41 -3.16)" fill="#231f20"/><path d="M489.77,55.7v.56l-1.09.13a2,2,0,0,1,.27.49,1.88,1.88,0,0,1,.12.69,1.73,1.73,0,0,1-.6,1.38,2.38,2.38,0,0,1-1.62.51,2.56,2.56,0,0,1-.49,0,.87.87,0,0,0-.57.76.4.4,0,0,0,.2.36,1.55,1.55,0,0,0,.68.11h1a2.38,2.38,0,0,1,1.47.4,1.41,1.41,0,0,1,.51,1.18,1.68,1.68,0,0,1-.78,1.49,4.22,4.22,0,0,1-2.29.51,3.1,3.1,0,0,1-1.78-.43,1.39,1.39,0,0,1-.63-1.22,1.35,1.35,0,0,1,.35-.92,1.75,1.75,0,0,1,1-.54.87.87,0,0,1-.38-.31.81.81,0,0,1-.16-.5.92.92,0,0,1,.18-.57,1.7,1.7,0,0,1,.54-.46,1.65,1.65,0,0,1-.75-.64,1.9,1.9,0,0,1-.28-1,1.87,1.87,0,0,1,.58-1.49,2.34,2.34,0,0,1,1.64-.53,3,3,0,0,1,.83.11Zm-4.7,6.87a.81.81,0,0,0,.41.73,2.26,2.26,0,0,0,1.15.25,3.24,3.24,0,0,0,1.66-.34,1,1,0,0,0,.54-.91.7.7,0,0,0-.29-.66,2.22,2.22,0,0,0-1.11-.19h-1.07a1.44,1.44,0,0,0-.95.29A1.06,1.06,0,0,0,485.07,62.57Zm.49-5a1.17,1.17,0,0,0,.35.94,1.38,1.38,0,0,0,1,.32,1.14,1.14,0,0,0,1.3-1.27,1.17,1.17,0,0,0-1.32-1.33,1.26,1.26,0,0,0-1,.34A1.35,1.35,0,0,0,485.56,57.58Z" transform="translate(-0.41 -3.16)" fill="#231f20"/><path d="M493.46,61.69a2.71,2.71,0,0,1-2.06-.79,3.1,3.1,0,0,1-.75-2.21,3.4,3.4,0,0,1,.7-2.26,2.33,2.33,0,0,1,1.88-.84,2.2,2.2,0,0,1,1.75.73,2.77,2.77,0,0,1,.65,1.92v.56h-4.06a2.38,2.38,0,0,0,.53,1.58,1.8,1.8,0,0,0,1.4.53,4.84,4.84,0,0,0,1.88-.39v.79a4.06,4.06,0,0,1-.9.29A5,5,0,0,1,493.46,61.69Zm-.24-5.35a1.45,1.45,0,0,0-1.13.46,2.2,2.2,0,0,0-.5,1.28h3.08a2,2,0,0,0-.37-1.29A1.33,1.33,0,0,0,493.22,56.34Z" transform="translate(-0.41 -3.16)" fill="#231f20"/><path d="M331.27,20.39l-1-2.78h-3.83l-1,2.78h-1.73l3.74-10h1.78l3.74,10Zm-1.42-4.19-.94-2.72c-.07-.18-.16-.47-.28-.86s-.21-.68-.25-.86a18.82,18.82,0,0,1-.54,1.84l-.91,2.6Z" transform="translate(-0.41 -3.16)" fill="#231f20"/><path d="M340,10.39h1.7l-3.5,10H336.5l-3.49-10h1.68l2.09,6.22c.11.29.22.67.35,1.14s.2.82.23,1c.06-.34.16-.74.28-1.2s.22-.79.3-1Z" transform="translate(-0.41 -3.16)" fill="#231f20"/><path d="M348.69,20.39H343v-10h5.65v1.38h-4v2.72h3.77v1.37h-3.77V19h4Z" transform="translate(-0.41 -3.16)" fill="#231f20"/><path d="M352.49,16.39v4h-1.64v-10h2.83a4.58,4.58,0,0,1,2.86.73,2.59,2.59,0,0,1,.93,2.18A2.73,2.73,0,0,1,355.53,16l2.82,4.43h-1.86l-2.39-4Zm0-1.35h1.13a2.59,2.59,0,0,0,1.65-.42,1.53,1.53,0,0,0,.52-1.26,1.36,1.36,0,0,0-.56-1.22,3.07,3.07,0,0,0-1.66-.37h-1.08Z" transform="translate(-0.41 -3.16)" fill="#231f20"/><path d="M366,20.39l-1-2.78h-3.82l-1,2.78h-1.72l3.74-10H364l3.74,10Zm-1.43-4.19-.93-2.72c-.07-.18-.17-.47-.29-.86s-.2-.68-.25-.86a14.54,14.54,0,0,1-.54,1.84l-.9,2.6Z" transform="translate(-0.41 -3.16)" fill="#231f20"/><path d="M373.14,15h3.68v5a10.09,10.09,0,0,1-1.73.42,12.54,12.54,0,0,1-1.8.12,4.49,4.49,0,0,1-3.5-1.34,5.4,5.4,0,0,1-1.23-3.79A5.08,5.08,0,0,1,370,11.61a5.22,5.22,0,0,1,3.82-1.36,7.44,7.44,0,0,1,3,.6l-.57,1.36a5.89,5.89,0,0,0-2.44-.56,3.29,3.29,0,0,0-2.53,1,3.87,3.87,0,0,0-.93,2.74,4.1,4.1,0,0,0,.84,2.79,3.05,3.05,0,0,0,2.41.95,7.54,7.54,0,0,0,1.7-.2V16.37h-2.08Z" transform="translate(-0.41 -3.16)" fill="#231f20"/><path d="M384.87,20.39h-5.65v-10h5.65v1.38h-4v2.72h3.77v1.37h-3.77V19h4Z" transform="translate(-0.41 -3.16)" fill="#231f20"/><path d="M392.31,16.39v4h-1.64v-10h2.82a4.61,4.61,0,0,1,2.87.73,2.59,2.59,0,0,1,.93,2.18A2.73,2.73,0,0,1,395.35,16l2.82,4.43h-1.86l-2.39-4Zm0-1.35h1.13a2.59,2.59,0,0,0,1.65-.42,1.53,1.53,0,0,0,.52-1.26,1.36,1.36,0,0,0-.56-1.22,3.07,3.07,0,0,0-1.66-.37h-1.08Z" transform="translate(-0.41 -3.16)" fill="#231f20"/><path d="M405.27,20.39h-5.65v-10h5.65v1.38h-4v2.72H405v1.37h-3.77V19h4Z" transform="translate(-0.41 -3.16)" fill="#231f20"/><path d="M413.63,20.39l-1-2.78h-3.83l-1,2.78h-1.73l3.74-10h1.78l3.74,10ZM412.2,16.2l-.93-2.72c-.07-.18-.17-.47-.29-.86s-.2-.68-.25-.86a14.54,14.54,0,0,1-.54,1.84l-.9,2.6Z" transform="translate(-0.41 -3.16)" fill="#231f20"/><path d="M424.82,15.29a5,5,0,0,1-1.38,3.79,5.51,5.51,0,0,1-4,1.31h-2.79v-10h3.09a5.09,5.09,0,0,1,3.71,1.29A4.8,4.8,0,0,1,424.82,15.29Zm-1.73.06c0-2.39-1.11-3.59-3.35-3.59h-1.42V19h1.16Q423.1,19,423.09,15.35Z" transform="translate(-0.41 -3.16)" fill="#231f20"/><path d="M427,20.39v-10h1.64v10Z" transform="translate(-0.41 -3.16)" fill="#231f20"/><path d="M439.56,20.39h-2l-4.92-8h-.05l0,.45c.07.84.1,1.62.1,2.32v5.2h-1.48v-10h2l4.9,7.93h0c0-.11,0-.49-.05-1.15s-.05-1.17-.05-1.54V10.39h1.5Z" transform="translate(-0.41 -3.16)" fill="#231f20"/><path d="M446.29,15H450v5a10.19,10.19,0,0,1-1.74.42,12.5,12.5,0,0,1-1.79.12,4.49,4.49,0,0,1-3.5-1.34,5.4,5.4,0,0,1-1.23-3.79,5,5,0,0,1,1.39-3.78,5.2,5.2,0,0,1,3.82-1.36,7.42,7.42,0,0,1,3,.6l-.57,1.36a5.81,5.81,0,0,0-2.43-.56,3.28,3.28,0,0,0-2.53,1,3.87,3.87,0,0,0-.93,2.74,4.15,4.15,0,0,0,.83,2.79,3.07,3.07,0,0,0,2.41.95,7.48,7.48,0,0,0,1.7-.2V16.37h-2.07Z" transform="translate(-0.41 -3.16)" fill="#231f20"/><path d="M461.77,17.67a2.51,2.51,0,0,1-1,2.09,4.17,4.17,0,0,1-2.66.76,6.34,6.34,0,0,1-2.77-.52V18.45a7.53,7.53,0,0,0,1.45.51,6.29,6.29,0,0,0,1.43.18,2.23,2.23,0,0,0,1.43-.37,1.19,1.19,0,0,0,.47-1,1.26,1.26,0,0,0-.43-1,6.26,6.26,0,0,0-1.75-.92A4.65,4.65,0,0,1,456,14.64a2.67,2.67,0,0,1-.56-1.7,2.4,2.4,0,0,1,.89-2,3.68,3.68,0,0,1,2.39-.72,7,7,0,0,1,2.85.63l-.51,1.33a6.35,6.35,0,0,0-2.38-.56,1.86,1.86,0,0,0-1.21.35,1.14,1.14,0,0,0-.41.91,1.24,1.24,0,0,0,.17.66,1.71,1.71,0,0,0,.54.53,9.65,9.65,0,0,0,1.35.65,7.39,7.39,0,0,1,1.61.85,2.46,2.46,0,0,1,.76.9A2.66,2.66,0,0,1,461.77,17.67Z" transform="translate(-0.41 -3.16)" fill="#231f20"/><path d="M468,11.65a2.66,2.66,0,0,0-2.21,1,4.23,4.23,0,0,0-.81,2.75,4.3,4.3,0,0,0,.78,2.79,2.74,2.74,0,0,0,2.24.94,5.46,5.46,0,0,0,1.23-.13c.4-.08.81-.19,1.24-.32v1.4a7.4,7.4,0,0,1-2.67.44,4.26,4.26,0,0,1-3.37-1.33,5.56,5.56,0,0,1-1.17-3.8,6.16,6.16,0,0,1,.57-2.73,4.09,4.09,0,0,1,1.65-1.79,5,5,0,0,1,2.54-.62,6.29,6.29,0,0,1,2.83.64l-.59,1.36a9.15,9.15,0,0,0-1.07-.42A3.9,3.9,0,0,0,468,11.65Z" transform="translate(-0.41 -3.16)" fill="#231f20"/><path d="M481.45,15.38a5.48,5.48,0,0,1-1.22,3.79,5.15,5.15,0,0,1-6.94,0,5.49,5.49,0,0,1-1.21-3.82,5.44,5.44,0,0,1,1.22-3.8,4.49,4.49,0,0,1,3.48-1.32,4.4,4.4,0,0,1,3.45,1.34A5.47,5.47,0,0,1,481.45,15.38Zm-7.63,0a4.47,4.47,0,0,0,.74,2.8,3,3,0,0,0,4.41,0,4.53,4.53,0,0,0,.74-2.81,4.49,4.49,0,0,0-.74-2.79,2.58,2.58,0,0,0-2.19-.95,2.61,2.61,0,0,0-2.21.95A4.42,4.42,0,0,0,473.82,15.38Z" transform="translate(-0.41 -3.16)" fill="#231f20"/><path d="M485.23,16.39v4h-1.64v-10h2.83a4.58,4.58,0,0,1,2.86.73,2.59,2.59,0,0,1,.93,2.18A2.73,2.73,0,0,1,488.27,16l2.82,4.43h-1.86l-2.39-4Zm0-1.35h1.13a2.65,2.65,0,0,0,1.66-.42,1.55,1.55,0,0,0,.51-1.26,1.36,1.36,0,0,0-.56-1.22,3.07,3.07,0,0,0-1.66-.37h-1.08Z" transform="translate(-0.41 -3.16)" fill="#231f20"/><path d="M498.19,20.39h-5.65v-10h5.65v1.38h-4v2.72h3.77v1.37h-3.77V19h4Z" transform="translate(-0.41 -3.16)" fill="#231f20"/></svg>