<svg id="Layer_1" data-name="Layer 1" xmlns="http://www.w3.org/2000/svg" width="382.47" height="239.14" viewBox="0 0 382.47 239.14"><title>R-G12_pie37_2019</title><path d="M104.34,137.59l76.31,71.16A104.34,104.34,0,0,1,28,66.43c20.44-21.92,46.35-33.18,76.31-33.18Z" transform="translate(0 -2.79)" fill="#d1d3d4"/><path d="M104.34,137.59V33.25A104.33,104.33,0,0,1,208.68,137.59c0,27.66-9.16,50.93-28,71.16Z" transform="translate(0 -2.79)" fill="#262b69"/><circle cx="104.34" cy="134.8" r="72.88" fill="#fff"/><path d="M73.86,124.08a10.09,10.09,0,0,1-2.43,6.83,12.69,12.69,0,0,1-6.83,3.87V135q5.19.65,7.86,3.15a8.84,8.84,0,0,1,2.66,6.75,11.44,11.44,0,0,1-4.48,9.63q-4.48,3.44-12.8,3.44a31.19,31.19,0,0,1-12.37-2.31V147.9A28.17,28.17,0,0,0,51,150a23,23,0,0,0,5.92.79q4.49,0,6.62-1.52a5.59,5.59,0,0,0,2.14-4.89,4.42,4.42,0,0,0-2.46-4.28q-2.46-1.26-7.85-1.26H52.07v-6.94h3.31c3.32,0,5.74-.44,7.28-1.31a4.72,4.72,0,0,0,2.3-4.47c0-3.24-2-4.86-6.1-4.86a14.25,14.25,0,0,0-4.29.7,20.93,20.93,0,0,0-4.85,2.44l-4.19-6.24a23.25,23.25,0,0,1,14-4.22q6.65,0,10.5,2.69A8.65,8.65,0,0,1,73.86,124.08Z" transform="translate(0 -2.79)" fill="#262b69"/><path d="M84.09,157.33l16.08-35.15H79.05v-7.62h30.73v5.68l-16.2,37.09Z" transform="translate(0 -2.79)" fill="#262b69"/><path d="M133.89,127.28q0,6.74-2.61,10.12t-7.64,3.38a8.84,8.84,0,0,1-7.47-3.47q-2.64-3.47-2.64-10,0-13.4,10.11-13.39a9,9,0,0,1,7.6,3.47Q133.89,120.83,133.89,127.28Zm-13,0a17.5,17.5,0,0,0,.66,5.56q.66,1.83,2.13,1.83,2.8,0,2.81-7.39T123.7,120q-1.47,0-2.13,1.8A17.14,17.14,0,0,0,120.91,127.33Zm33.14-12.83-23.76,42.83h-7L147,114.5Zm9.84,29.89q0,6.71-2.61,10.09t-7.64,3.38a8.84,8.84,0,0,1-7.47-3.47q-2.64-3.46-2.64-10,0-13.39,10.11-13.39a9,9,0,0,1,7.6,3.47Q163.9,137.94,163.89,144.39Zm-13,.05a17.55,17.55,0,0,0,.66,5.56q.66,1.83,2.13,1.83,2.81,0,2.81-7.39t-2.81-7.32q-1.47,0-2.13,1.8A17.14,17.14,0,0,0,150.91,144.44Z" transform="translate(0 -2.79)" fill="#262b69"/><path d="M61,12v6H58.58V3h4.24a7,7,0,0,1,4.29,1.09,3.91,3.91,0,0,1,1.4,3.28,4.1,4.1,0,0,1-2.91,4L69.83,18H67l-3.59-6Zm0-2h1.71a3.86,3.86,0,0,0,2.48-.64A2.31,2.31,0,0,0,66,7.45a2,2,0,0,0-.83-1.82,4.58,4.58,0,0,0-2.51-.55H61Z" transform="translate(0 -2.79)" fill="#007367"/><path d="M81,18H72.53V3H81V5.08H75V9.16h5.65v2.05H75v4.7h6Z" transform="translate(0 -2.79)" fill="#007367"/><path d="M94.08,18l-1.5-4.17H86.85L85.38,18H82.8L88.41,2.94h2.66L96.68,18Zm-2.15-6.28-1.4-4.08c-.11-.27-.25-.7-.43-1.29s-.3-1-.37-1.29a24.62,24.62,0,0,1-.81,2.75l-1.36,3.91Z" transform="translate(0 -2.79)" fill="#007367"/><path d="M111.38,10.36A7.45,7.45,0,0,1,109.31,16a8.26,8.26,0,0,1-5.93,2h-4.2V3h4.64a7.71,7.71,0,0,1,5.57,1.93A7.25,7.25,0,0,1,111.38,10.36Zm-2.59.08q0-5.38-5-5.38h-2.12V15.93h1.74Q108.79,15.93,108.79,10.44Z" transform="translate(0 -2.79)" fill="#007367"/><path d="M115.12,18V3h2.45V18Z" transform="translate(0 -2.79)" fill="#007367"/><path d="M134.54,18h-3L124.17,6.05h-.08l0,.67c.09,1.27.14,2.43.14,3.48V18h-2.23V3h3l7.35,11.89h.06c0-.16,0-.73-.08-1.72s-.06-1.76-.06-2.31V3h2.24Z" transform="translate(0 -2.79)" fill="#007367"/><path d="M145.16,9.86h5.52v7.53a17.46,17.46,0,0,1-2.6.63,18.91,18.91,0,0,1-2.7.18,6.77,6.77,0,0,1-5.25-2,8.13,8.13,0,0,1-1.84-5.69,7.6,7.6,0,0,1,2.08-5.67,7.84,7.84,0,0,1,5.73-2,11.17,11.17,0,0,1,4.45.9l-.86,2A8.67,8.67,0,0,0,146,4.89a4.89,4.89,0,0,0-3.79,1.51,5.83,5.83,0,0,0-1.4,4.12,6.14,6.14,0,0,0,1.26,4.18,4.56,4.56,0,0,0,3.61,1.43,11.85,11.85,0,0,0,2.55-.3V12h-3.11Z" transform="translate(0 -2.79)" fill="#007367"/><path d="M228.51,130.37a5.27,5.27,0,0,1-1.19,3.68,4.17,4.17,0,0,1-3.27,1.32,4.41,4.41,0,0,1-2.3-.6,4,4,0,0,1-1.54-1.75,6,6,0,0,1-.55-2.65,5.29,5.29,0,0,1,1.18-3.67,4.14,4.14,0,0,1,3.27-1.31,4.08,4.08,0,0,1,3.21,1.34A5.32,5.32,0,0,1,228.51,130.37Zm-7.34,0a4.57,4.57,0,0,0,.74,2.81,2.55,2.55,0,0,0,2.17,1,2.59,2.59,0,0,0,2.18-1,4.58,4.58,0,0,0,.74-2.82,4.53,4.53,0,0,0-.74-2.79,2.61,2.61,0,0,0-2.2-1,2.57,2.57,0,0,0-2.16.94A4.55,4.55,0,0,0,221.17,130.37Z" transform="translate(0 -2.79)" fill="#262b69"/><path d="M235.86,126.7h-2.45v8.49H232V126.7h-1.72V126l1.72-.53V125c0-2.36,1-3.55,3.1-3.55a6.66,6.66,0,0,1,1.8.31l-.38,1.17a5,5,0,0,0-1.44-.27,1.42,1.42,0,0,0-1.23.55,3.08,3.08,0,0,0-.39,1.76v.62h2.45Z" transform="translate(0 -2.79)" fill="#262b69"/><path d="M249.41,132.57a2.42,2.42,0,0,1-1,2.07,4.71,4.71,0,0,1-2.82.73,6.21,6.21,0,0,1-3-.6v-1.36a6.81,6.81,0,0,0,1.49.55,6.06,6.06,0,0,0,1.54.21,3.42,3.42,0,0,0,1.76-.37,1.25,1.25,0,0,0,.12-2.07,7.69,7.69,0,0,0-1.9-.95,10,10,0,0,1-1.91-.87,2.51,2.51,0,0,1-.84-.85,2.33,2.33,0,0,1,.68-3,4.4,4.4,0,0,1,2.62-.68,7.75,7.75,0,0,1,3.05.63l-.52,1.19a7,7,0,0,0-2.63-.6,3.15,3.15,0,0,0-1.57.32,1,1,0,0,0-.52.9,1.09,1.09,0,0,0,.19.66,2.21,2.21,0,0,0,.64.52,15.9,15.9,0,0,0,1.69.71,6.36,6.36,0,0,1,2.32,1.26A2.21,2.21,0,0,1,249.41,132.57Z" transform="translate(0 -2.79)" fill="#262b69"/><path d="M255.34,134.17a4.56,4.56,0,0,0,.75-.06,5.41,5.41,0,0,0,.57-.12v1.12a2.94,2.94,0,0,1-.7.19,5.16,5.16,0,0,1-.83.07q-2.79,0-2.79-2.94V126.7H251V126l1.38-.6.61-2.06h.85v2.23h2.79v1.14H253.8v5.66a1.94,1.94,0,0,0,.41,1.34A1.43,1.43,0,0,0,255.34,134.17Z" transform="translate(0 -2.79)" fill="#262b69"/><path d="M260.41,125.56v6.25a2.55,2.55,0,0,0,.53,1.76,2.18,2.18,0,0,0,1.68.58,2.73,2.73,0,0,0,2.21-.83,4.14,4.14,0,0,0,.7-2.7v-5.06H267v9.63h-1.2l-.22-1.29h-.07a2.89,2.89,0,0,1-1.25,1.09,4,4,0,0,1-1.81.38,3.7,3.7,0,0,1-2.63-.83,3.54,3.54,0,0,1-.88-2.68v-6.3Z" transform="translate(0 -2.79)" fill="#262b69"/><path d="M277.09,133.9H277a3.42,3.42,0,0,1-3,1.47,3.58,3.58,0,0,1-2.94-1.29,5.69,5.69,0,0,1-1.05-3.67,5.83,5.83,0,0,1,1.05-3.71,3.58,3.58,0,0,1,2.94-1.31,3.49,3.49,0,0,1,3,1.42h.12l-.06-.69,0-.68v-3.92h1.46v13.67h-1.19Zm-2.92.25a2.67,2.67,0,0,0,2.17-.81,4.13,4.13,0,0,0,.67-2.63v-.3a4.9,4.9,0,0,0-.68-2.93,2.59,2.59,0,0,0-2.18-.87,2.22,2.22,0,0,0-2,1,5,5,0,0,0-.68,2.81,4.71,4.71,0,0,0,.68,2.79A2.28,2.28,0,0,0,274.17,134.15Z" transform="translate(0 -2.79)" fill="#262b69"/><path d="M286.08,135.37a4.43,4.43,0,0,1-3.37-1.3,5,5,0,0,1-1.23-3.61,5.55,5.55,0,0,1,1.15-3.7,3.78,3.78,0,0,1,3.08-1.37,3.61,3.61,0,0,1,2.86,1.19,4.57,4.57,0,0,1,1.06,3.14v.92H283a3.81,3.81,0,0,0,.86,2.58,3,3,0,0,0,2.29.88,7.8,7.8,0,0,0,3.07-.65v1.3a8,8,0,0,1-1.46.48A8.83,8.83,0,0,1,286.08,135.37Zm-.39-8.76a2.38,2.38,0,0,0-1.85.75,3.58,3.58,0,0,0-.82,2.1h5a3.23,3.23,0,0,0-.61-2.12A2.17,2.17,0,0,0,285.69,126.61Z" transform="translate(0 -2.79)" fill="#262b69"/><path d="M299.15,135.19V129a2.48,2.48,0,0,0-.53-1.75,2.18,2.18,0,0,0-1.68-.58,2.79,2.79,0,0,0-2.22.81,4.2,4.2,0,0,0-.7,2.7v5.05h-1.46v-9.63h1.19l.24,1.32h.07a2.92,2.92,0,0,1,1.25-1.1,4.1,4.1,0,0,1,1.8-.39,3.65,3.65,0,0,1,2.62.84,3.54,3.54,0,0,1,.88,2.68v6.28Z" transform="translate(0 -2.79)" fill="#262b69"/><path d="M307.17,134.17a4.56,4.56,0,0,0,.75-.06,5.41,5.41,0,0,0,.57-.12v1.12a2.94,2.94,0,0,1-.7.19,5.16,5.16,0,0,1-.83.07q-2.79,0-2.79-2.94V126.7h-1.38V126l1.38-.6.61-2.06h.84v2.23h2.8v1.14h-2.8v5.66a1.94,1.94,0,0,0,.42,1.34A1.43,1.43,0,0,0,307.17,134.17Z" transform="translate(0 -2.79)" fill="#262b69"/><path d="M317.08,132.57a2.42,2.42,0,0,1-1,2.07,4.71,4.71,0,0,1-2.82.73,6.14,6.14,0,0,1-3-.6v-1.36a6.45,6.45,0,0,0,1.49.55,6,6,0,0,0,1.53.21,3.42,3.42,0,0,0,1.76-.37,1.19,1.19,0,0,0,.61-1.11,1.21,1.21,0,0,0-.48-1,7.81,7.81,0,0,0-1.91-.95,10.29,10.29,0,0,1-1.91-.87,2.51,2.51,0,0,1-.84-.85,2.33,2.33,0,0,1,.68-3,4.42,4.42,0,0,1,2.63-.68,7.74,7.74,0,0,1,3,.63l-.52,1.19a7,7,0,0,0-2.63-.6,3.08,3.08,0,0,0-1.56.32,1,1,0,0,0-.53.9,1,1,0,0,0,.2.66,2,2,0,0,0,.63.52,15.9,15.9,0,0,0,1.69.71,6.36,6.36,0,0,1,2.32,1.26A2.21,2.21,0,0,1,317.08,132.57Z" transform="translate(0 -2.79)" fill="#262b69"/><path d="M331.24,132.57a2.4,2.4,0,0,1-1,2.07,4.69,4.69,0,0,1-2.81.73,6.16,6.16,0,0,1-3-.6v-1.36a6.62,6.62,0,0,0,1.49.55,6,6,0,0,0,1.53.21,3.42,3.42,0,0,0,1.76-.37,1.2,1.2,0,0,0,.62-1.11,1.22,1.22,0,0,0-.49-1,7.81,7.81,0,0,0-1.91-.95,10.29,10.29,0,0,1-1.91-.87,2.51,2.51,0,0,1-.84-.85,2.33,2.33,0,0,1,.68-3,4.44,4.44,0,0,1,2.63-.68,7.7,7.7,0,0,1,3,.63l-.52,1.19a7,7,0,0,0-2.63-.6,3.08,3.08,0,0,0-1.56.32,1,1,0,0,0-.53.9,1.1,1.1,0,0,0,.2.66,2,2,0,0,0,.64.52,14.6,14.6,0,0,0,1.68.71,6.19,6.19,0,0,1,2.32,1.26A2.21,2.21,0,0,1,331.24,132.57Z" transform="translate(0 -2.79)" fill="#262b69"/><path d="M337.91,135.37a4.09,4.09,0,0,1-3.23-1.29,5.25,5.25,0,0,1-1.15-3.64,5.51,5.51,0,0,1,1.16-3.74,4.22,4.22,0,0,1,3.32-1.31,6.57,6.57,0,0,1,1.39.15,4.36,4.36,0,0,1,1.09.35l-.45,1.24a6.16,6.16,0,0,0-1.05-.32,4.5,4.5,0,0,0-1-.13q-2.94,0-2.94,3.74a4.44,4.44,0,0,0,.72,2.73,2.48,2.48,0,0,0,2.12.95,6.64,6.64,0,0,0,2.47-.52v1.29A5.35,5.35,0,0,1,337.91,135.37Z" transform="translate(0 -2.79)" fill="#262b69"/><path d="M351.4,130.37a5.32,5.32,0,0,1-1.19,3.68,4.18,4.18,0,0,1-3.28,1.32,4.37,4.37,0,0,1-2.29-.6,4.07,4.07,0,0,1-1.55-1.75,6.09,6.09,0,0,1-.54-2.65,5.29,5.29,0,0,1,1.18-3.67,4.62,4.62,0,0,1,6.48,0A5.32,5.32,0,0,1,351.4,130.37Zm-7.34,0a4.57,4.57,0,0,0,.74,2.81,2.54,2.54,0,0,0,2.17,1,2.57,2.57,0,0,0,2.17-1,4.52,4.52,0,0,0,.75-2.82,4.46,4.46,0,0,0-.75-2.79,2.58,2.58,0,0,0-2.19-1,2.55,2.55,0,0,0-2.16.94A4.48,4.48,0,0,0,344.06,130.37Z" transform="translate(0 -2.79)" fill="#262b69"/><path d="M358.8,125.39a5.73,5.73,0,0,1,1.15.1l-.2,1.36a4.91,4.91,0,0,0-1.06-.14,2.6,2.6,0,0,0-2,1,3.49,3.49,0,0,0-.83,2.37v5.16h-1.45v-9.63h1.2l.17,1.79h.07a4.17,4.17,0,0,1,1.29-1.45A2.9,2.9,0,0,1,358.8,125.39Z" transform="translate(0 -2.79)" fill="#262b69"/><path d="M366.27,135.37a4.43,4.43,0,0,1-3.37-1.3,5,5,0,0,1-1.23-3.61,5.6,5.6,0,0,1,1.14-3.7,3.81,3.81,0,0,1,3.08-1.37,3.61,3.61,0,0,1,2.87,1.19,4.57,4.57,0,0,1,1.05,3.14v.92h-6.63a3.81,3.81,0,0,0,.86,2.58,3,3,0,0,0,2.29.88,7.8,7.8,0,0,0,3.07-.65v1.3a8,8,0,0,1-1.46.48A8.83,8.83,0,0,1,366.27,135.37Zm-.39-8.76a2.38,2.38,0,0,0-1.85.75,3.58,3.58,0,0,0-.82,2.1h5a3.23,3.23,0,0,0-.61-2.12A2.17,2.17,0,0,0,365.88,126.61Z" transform="translate(0 -2.79)" fill="#262b69"/><path d="M379.31,133.9h-.08a3.42,3.42,0,0,1-3,1.47,3.58,3.58,0,0,1-2.94-1.29,5.69,5.69,0,0,1-1-3.67,5.83,5.83,0,0,1,1-3.71,3.56,3.56,0,0,1,2.94-1.31,3.49,3.49,0,0,1,3,1.42h.12l-.06-.69,0-.68v-3.92h1.46v13.67H379.5Zm-2.92.25a2.67,2.67,0,0,0,2.17-.81,4.13,4.13,0,0,0,.67-2.63v-.3a4.9,4.9,0,0,0-.68-2.93,2.61,2.61,0,0,0-2.18-.87,2.22,2.22,0,0,0-2,1,4.88,4.88,0,0,0-.68,2.81,4.79,4.79,0,0,0,.67,2.79A2.31,2.31,0,0,0,376.39,134.15Z" transform="translate(0 -2.79)" fill="#262b69"/><path d="M226.12,156.8l-.29-1.38h-.07a4,4,0,0,1-1.44,1.23,4.41,4.41,0,0,1-1.79.32,3.17,3.17,0,0,1-2.24-.74,2.69,2.69,0,0,1-.81-2.1q0-2.91,4.66-3.06l1.64,0v-.6a2.47,2.47,0,0,0-.49-1.67,2,2,0,0,0-1.56-.54A6.23,6.23,0,0,0,221,149l-.45-1.12a6.76,6.76,0,0,1,1.56-.61,7,7,0,0,1,1.7-.22,3.65,3.65,0,0,1,2.55.77,3.17,3.17,0,0,1,.83,2.45v6.58Zm-3.3-1A2.94,2.94,0,0,0,225,155a2.77,2.77,0,0,0,.78-2.09v-.87l-1.46.06a5.31,5.31,0,0,0-2.51.54,1.63,1.63,0,0,0-.76,1.49,1.48,1.48,0,0,0,.47,1.2A2,2,0,0,0,222.82,155.77Z" transform="translate(0 -2.79)" fill="#262b69"/><path d="M233.77,155.77a4.56,4.56,0,0,0,.75-.06,5.41,5.41,0,0,0,.57-.12v1.12a2.94,2.94,0,0,1-.7.19,5.25,5.25,0,0,1-.83.07c-1.87,0-2.8-1-2.8-2.94V148.3h-1.38v-.71l1.38-.6.62-2.06h.84v2.23H235v1.14h-2.8V154a1.91,1.91,0,0,0,.42,1.33A1.43,1.43,0,0,0,233.77,155.77Z" transform="translate(0 -2.79)" fill="#262b69"/><path d="M250.9,152a5.32,5.32,0,0,1-1.18,3.68,4.21,4.21,0,0,1-3.28,1.32,4.32,4.32,0,0,1-2.3-.61,4,4,0,0,1-1.54-1.74,6,6,0,0,1-.55-2.65,5.29,5.29,0,0,1,1.18-3.67A4.17,4.17,0,0,1,246.5,147a4.08,4.08,0,0,1,3.21,1.34A5.32,5.32,0,0,1,250.9,152Zm-7.34,0a4.57,4.57,0,0,0,.74,2.81,2.55,2.55,0,0,0,2.17,1,2.59,2.59,0,0,0,2.18-1,4.58,4.58,0,0,0,.74-2.82,4.53,4.53,0,0,0-.74-2.79,2.61,2.61,0,0,0-2.2-1,2.57,2.57,0,0,0-2.16.94A4.55,4.55,0,0,0,243.56,152Z" transform="translate(0 -2.79)" fill="#262b69"/><path d="M258.3,147a5.83,5.83,0,0,1,1.16.1l-.21,1.36a4.91,4.91,0,0,0-1.05-.14,2.57,2.57,0,0,0-2,.95,3.49,3.49,0,0,0-.83,2.37v5.17h-1.46v-9.64h1.2l.17,1.79h.07a4.27,4.27,0,0,1,1.29-1.45A2.93,2.93,0,0,1,258.3,147Z" transform="translate(0 -2.79)" fill="#262b69"/><path d="M272.76,156.8l-.29-1.38h-.07a4,4,0,0,1-1.44,1.23,4.44,4.44,0,0,1-1.79.32,3.17,3.17,0,0,1-2.24-.74,2.66,2.66,0,0,1-.82-2.1q0-2.91,4.67-3.06l1.63,0v-.6a2.47,2.47,0,0,0-.48-1.67,2,2,0,0,0-1.56-.54,6.27,6.27,0,0,0-2.73.74l-.45-1.12a7,7,0,0,1,3.26-.83,3.7,3.7,0,0,1,2.56.77,3.21,3.21,0,0,1,.83,2.45v6.58Zm-3.3-1a3,3,0,0,0,2.14-.75,2.77,2.77,0,0,0,.78-2.09v-.87l-1.46.06a5.28,5.28,0,0,0-2.51.54,1.64,1.64,0,0,0-.77,1.49,1.48,1.48,0,0,0,.48,1.2A2,2,0,0,0,269.46,155.77Z" transform="translate(0 -2.79)" fill="#262b69"/><path d="M281.78,147a3.62,3.62,0,0,1,3,1.3,5.71,5.71,0,0,1,1,3.67,5.79,5.79,0,0,1-1.06,3.69,3.59,3.59,0,0,1-2.94,1.31,4.2,4.2,0,0,1-1.72-.35,3.2,3.2,0,0,1-1.31-1.06h-.1l-.31,1.24h-1V143.12h1.46v3.32c0,.75,0,1.41-.07,2h.07A3.46,3.46,0,0,1,281.78,147Zm-.21,1.23a2.56,2.56,0,0,0-2.16.85,6.59,6.59,0,0,0,0,5.79,2.55,2.55,0,0,0,2.17.88,2.24,2.24,0,0,0,2-1,5,5,0,0,0,.66-2.82,4.82,4.82,0,0,0-.66-2.8A2.29,2.29,0,0,0,281.57,148.23Z" transform="translate(0 -2.79)" fill="#262b69"/><path d="M297.09,152a5.32,5.32,0,0,1-1.19,3.68,4.18,4.18,0,0,1-3.28,1.32,4.29,4.29,0,0,1-2.29-.61,4,4,0,0,1-1.55-1.74,6.09,6.09,0,0,1-.54-2.65,5.29,5.29,0,0,1,1.18-3.67,4.17,4.17,0,0,1,3.27-1.31,4.11,4.11,0,0,1,3.21,1.34A5.32,5.32,0,0,1,297.09,152Zm-7.34,0a4.57,4.57,0,0,0,.74,2.81,2.54,2.54,0,0,0,2.17,1,2.57,2.57,0,0,0,2.17-1,4.52,4.52,0,0,0,.75-2.82,4.46,4.46,0,0,0-.75-2.79,3,3,0,0,0-4.35,0A4.48,4.48,0,0,0,289.75,152Z" transform="translate(0 -2.79)" fill="#262b69"/><path d="M302.21,156.8l-3.66-9.64h1.56l2.08,5.72a24.84,24.84,0,0,1,.82,2.6h.07a19.7,19.7,0,0,1,.62-1.93q.51-1.47,2.3-6.39h1.57l-3.66,9.64Z" transform="translate(0 -2.79)" fill="#262b69"/><path d="M313.63,157a4.43,4.43,0,0,1-3.37-1.3,5,5,0,0,1-1.23-3.61,5.55,5.55,0,0,1,1.15-3.7,3.78,3.78,0,0,1,3.08-1.37,3.61,3.61,0,0,1,2.86,1.19,4.57,4.57,0,0,1,1.06,3.14v.92h-6.64a3.81,3.81,0,0,0,.86,2.58,3,3,0,0,0,2.29.88,7.8,7.8,0,0,0,3.07-.65v1.3a8,8,0,0,1-1.46.48A8.83,8.83,0,0,1,313.63,157Zm-.39-8.76a2.38,2.38,0,0,0-1.85.75,3.58,3.58,0,0,0-.82,2.1h5a3.23,3.23,0,0,0-.61-2.12A2.17,2.17,0,0,0,313.24,148.21Z" transform="translate(0 -2.79)" fill="#262b69"/><path d="M340.33,150.74a5.87,5.87,0,0,1-1.38,4,6.9,6.9,0,0,1-3.91,2.09V157a7.36,7.36,0,0,1,4.59,2,5.77,5.77,0,0,1,1.49,4.15,6.75,6.75,0,0,1-2.54,5.65q-2.55,2-7.25,2a21.39,21.39,0,0,1-3.73-.31,13.29,13.29,0,0,1-3.3-1.08v-2.78a16.34,16.34,0,0,0,3.56,1.26,16.54,16.54,0,0,0,3.58.43q6.66,0,6.66-5.22,0-4.68-7.35-4.68h-2.53v-2.51h2.57a7.69,7.69,0,0,0,4.76-1.33,4.35,4.35,0,0,0,1.76-3.68A3.61,3.61,0,0,0,336,147.9a5.3,5.3,0,0,0-3.51-1.08,11,11,0,0,0-3.18.46,14.07,14.07,0,0,0-3.41,1.69l-1.48-2a12.29,12.29,0,0,1,3.65-2,13.14,13.14,0,0,1,4.35-.71,8.9,8.9,0,0,1,5.82,1.71A5.77,5.77,0,0,1,340.33,150.74Z" transform="translate(0 -2.79)" fill="#262b69"/><path d="M362,157.51q0,6.66-2.1,10a7.75,7.75,0,0,1-12.73-.08Q345,164,345,157.51q0-6.72,2.09-10a7.76,7.76,0,0,1,12.73.14Q362,151.08,362,157.51Zm-14,0q0,5.61,1.32,8.17a4.74,4.74,0,0,0,8.43,0Q359,163,359,157.51c0-3.69-.44-6.4-1.31-8.11a4.75,4.75,0,0,0-8.43,0C348.42,151.06,348,153.77,348,157.51Z" transform="translate(0 -2.79)" fill="#262b69"/><path d="M382.47,170.4H365.58v-2.52l6.76-6.8a48.3,48.3,0,0,0,4.08-4.47,11.2,11.2,0,0,0,1.48-2.6,7.38,7.38,0,0,0,.49-2.72,4.32,4.32,0,0,0-1.25-3.26,4.74,4.74,0,0,0-3.46-1.21,8.7,8.7,0,0,0-3,.53,11.85,11.85,0,0,0-3.19,1.92l-1.55-2a11.83,11.83,0,0,1,7.73-2.95,8.15,8.15,0,0,1,5.68,1.85,6.39,6.39,0,0,1,2.06,5A9.7,9.7,0,0,1,380,156a31.1,31.1,0,0,1-5.14,6.05l-5.62,5.5v.14h13.22Z" transform="translate(0 -2.79)" fill="#262b69"/></svg>